<svg width="48" height="48" viewBox="0 0 48 48" fill="none" xmlns="http://www.w3.org/2000/svg">
<rect width="48" height="48" rx="24" fill="#0762F7" fill-opacity="0.8"/>
<path d="M34.6665 13.3327H30.4398L27.9998 10.666H19.9998L17.5598 13.3327H13.3332C11.8665 13.3327 10.6665 14.5327 10.6665 15.9993V31.9993C10.6665 33.466 11.8665 34.666 13.3332 34.666H34.6665C36.1332 34.666 37.3332 33.466 37.3332 31.9993V15.9993C37.3332 14.5327 36.1332 13.3327 34.6665 13.3327ZM34.6665 31.9993H13.3332V15.9993H18.7332L21.1732 13.3327H26.8265L29.2665 15.9993H34.6665V31.9993ZM23.9998 17.3327C20.3198 17.3327 17.3332 20.3193 17.3332 23.9993C17.3332 27.6793 20.3198 30.666 23.9998 30.666C27.6798 30.666 30.6665 27.6793 30.6665 23.9993C30.6665 20.3193 27.6798 17.3327 23.9998 17.3327ZM23.9998 27.9993C21.7998 27.9993 19.9998 26.1993 19.9998 23.9993C19.9998 21.7993 21.7998 19.9993 23.9998 19.9993C26.1998 19.9993 27.9998 21.7993 27.9998 23.9993C27.9998 26.1993 26.1998 27.9993 23.9998 27.9993Z" fill="white"/>
</svg>
