<svg width="19" height="22" viewBox="0 0 19 22" fill="none" xmlns="http://www.w3.org/2000/svg">
<path d="M9 4.25H6V2.75H6.5C6.76522 2.75 7.01957 2.64464 7.20711 2.45711C7.39464 2.26957 7.5 2.01522 7.5 1.75C7.5 1.48478 7.39464 1.23043 7.20711 1.04289C7.01957 0.855357 6.76522 0.75 6.5 0.75H3.5C3.23478 0.75 2.98043 0.855357 2.79289 1.04289C2.60536 1.23043 2.5 1.48478 2.5 1.75C2.5 2.01522 2.60536 2.26957 2.79289 2.45711C2.98043 2.64464 3.23478 2.75 3.5 2.75H4V4.25H1C0.734784 4.25 0.48043 4.35536 0.292893 4.54289C0.105357 4.73043 0 4.98478 0 5.25C0 5.51522 0.105357 5.76957 0.292893 5.95711C0.48043 6.14464 0.734784 6.25 1 6.25V13.75C1 14.2804 1.21071 14.7891 1.58579 15.1642C1.96086 15.5393 2.46957 15.75 3 15.75H4V19.75L6 21.25V15.75H7C7.53043 15.75 8.03914 15.5393 8.41421 15.1642C8.78929 14.7891 9 14.2804 9 13.75V6.25C9.26522 6.25 9.51957 6.14464 9.70711 5.95711C9.89464 5.76957 10 5.51522 10 5.25C10 4.98478 9.89464 4.73043 9.70711 4.54289C9.51957 4.35536 9.26522 4.25 9 4.25ZM7 7.75H5.25C5.05109 7.75 4.86032 7.82902 4.71967 7.96967C4.57902 8.11032 4.5 8.30109 4.5 8.5C4.5 8.69891 4.57902 8.88968 4.71967 9.03033C4.86032 9.17098 5.05109 9.25 5.25 9.25H7V10.75H5.25C5.05109 10.75 4.86032 10.829 4.71967 10.9697C4.57902 11.1103 4.5 11.3011 4.5 11.5C4.5 11.6989 4.57902 11.8897 4.71967 12.0303C4.86032 12.171 5.05109 12.25 5.25 12.25H7V13.75H3V6.25H7V7.75ZM17.5 9.25V8.75C17.7652 8.75 18.0196 8.64464 18.2071 8.45711C18.3946 8.26957 18.5 8.01522 18.5 7.75C18.5 7.48478 18.3946 7.23043 18.2071 7.04289C18.0196 6.85536 17.7652 6.75 17.5 6.75H12.5C12.2348 6.75 11.9804 6.85536 11.7929 7.04289C11.6054 7.23043 11.5 7.48478 11.5 7.75C11.5 8.01522 11.6054 8.26957 11.7929 8.45711C11.9804 8.64464 12.2348 8.75 12.5 8.75V9.25C12.5 9.75 11 10.41 11 12.25V18.75C11 19.2804 11.2107 19.7891 11.5858 20.1642C11.9609 20.5393 12.4696 20.75 13 20.75H17C17.5304 20.75 18.0391 20.5393 18.4142 20.1642C18.7893 19.7891 19 19.2804 19 18.75V12.25C19 10.41 17.5 9.75 17.5 9.25ZM14.5 9.25V8.75H15.5V9.25C15.5 10.85 17 11.25 17 12.25V12.75H13V12.25C13 11.25 14.5 10.85 14.5 9.25ZM17 14.25V15.75H13V14.25H17ZM13 18.75V17.25H17V18.75H13Z" fill="#D9D9D9"/>
<path d="M9 4.25H6V2.75H6.5C6.76522 2.75 7.01957 2.64464 7.20711 2.45711C7.39464 2.26957 7.5 2.01522 7.5 1.75C7.5 1.48478 7.39464 1.23043 7.20711 1.04289C7.01957 0.855357 6.76522 0.75 6.5 0.75H3.5C3.23478 0.75 2.98043 0.855357 2.79289 1.04289C2.60536 1.23043 2.5 1.48478 2.5 1.75C2.5 2.01522 2.60536 2.26957 2.79289 2.45711C2.98043 2.64464 3.23478 2.75 3.5 2.75H4V4.25H1C0.734784 4.25 0.48043 4.35536 0.292893 4.54289C0.105357 4.73043 0 4.98478 0 5.25C0 5.51522 0.105357 5.76957 0.292893 5.95711C0.48043 6.14464 0.734784 6.25 1 6.25V13.75C1 14.2804 1.21071 14.7891 1.58579 15.1642C1.96086 15.5393 2.46957 15.75 3 15.75H4V19.75L6 21.25V15.75H7C7.53043 15.75 8.03914 15.5393 8.41421 15.1642C8.78929 14.7891 9 14.2804 9 13.75V6.25C9.26522 6.25 9.51957 6.14464 9.70711 5.95711C9.89464 5.76957 10 5.51522 10 5.25C10 4.98478 9.89464 4.73043 9.70711 4.54289C9.51957 4.35536 9.26522 4.25 9 4.25ZM7 7.75H5.25C5.05109 7.75 4.86032 7.82902 4.71967 7.96967C4.57902 8.11032 4.5 8.30109 4.5 8.5C4.5 8.69891 4.57902 8.88968 4.71967 9.03033C4.86032 9.17098 5.05109 9.25 5.25 9.25H7V10.75H5.25C5.05109 10.75 4.86032 10.829 4.71967 10.9697C4.57902 11.1103 4.5 11.3011 4.5 11.5C4.5 11.6989 4.57902 11.8897 4.71967 12.0303C4.86032 12.171 5.05109 12.25 5.25 12.25H7V13.75H3V6.25H7V7.75ZM17.5 9.25V8.75C17.7652 8.75 18.0196 8.64464 18.2071 8.45711C18.3946 8.26957 18.5 8.01522 18.5 7.75C18.5 7.48478 18.3946 7.23043 18.2071 7.04289C18.0196 6.85536 17.7652 6.75 17.5 6.75H12.5C12.2348 6.75 11.9804 6.85536 11.7929 7.04289C11.6054 7.23043 11.5 7.48478 11.5 7.75C11.5 8.01522 11.6054 8.26957 11.7929 8.45711C11.9804 8.64464 12.2348 8.75 12.5 8.75V9.25C12.5 9.75 11 10.41 11 12.25V18.75C11 19.2804 11.2107 19.7891 11.5858 20.1642C11.9609 20.5393 12.4696 20.75 13 20.75H17C17.5304 20.75 18.0391 20.5393 18.4142 20.1642C18.7893 19.7891 19 19.2804 19 18.75V12.25C19 10.41 17.5 9.75 17.5 9.25ZM14.5 9.25V8.75H15.5V9.25C15.5 10.85 17 11.25 17 12.25V12.75H13V12.25C13 11.25 14.5 10.85 14.5 9.25ZM17 14.25V15.75H13V14.25H17ZM13 18.75V17.25H17V18.75H13Z" fill="black" fill-opacity="0.7"/>
</svg>
