<svg width="20" height="20" viewBox="0 0 20 20" fill="none" xmlns="http://www.w3.org/2000/svg">
<path d="M9.16675 5.83341H10.8334V7.50008H9.16675V5.83341ZM9.16675 9.16675H10.8334V14.1667H9.16675V9.16675ZM10.0001 1.66675C5.41675 1.66675 1.66675 5.41675 1.66675 10.0001C1.66675 14.5834 5.41675 18.3334 10.0001 18.3334C14.5834 18.3334 18.3334 14.5834 18.3334 10.0001C18.3334 5.41675 14.5834 1.66675 10.0001 1.66675ZM10.0001 16.6667C6.33341 16.6667 3.33341 13.6667 3.33341 10.0001C3.33341 6.33341 6.33341 3.33341 10.0001 3.33341C13.6667 3.33341 16.6667 6.33341 16.6667 10.0001C16.6667 13.6667 13.6667 16.6667 10.0001 16.6667Z" fill="#172B4D"/>
</svg>
