<svg width="20" height="20" viewBox="0 0 20 20" fill="none" xmlns="http://www.w3.org/2000/svg">
<path d="M14.75 8.83333L13.5 7.66667L14.75 6.5L13.5 5.25L12.3333 6.5L11.1667 5.25L10 6.5L11.1667 7.66667L10 8.83333L11.1667 10L12.3333 8.83333L13.5 10L14.75 8.83333Z" fill="#172B4D"/>
<path d="M15.9166 4.08325C13.9999 2.16659 10.7499 2.16659 8.83325 4.08325L4.08325 8.83325C2.16659 10.7499 2.16659 13.9999 4.08325 15.9166C5.99992 17.8333 9.24992 17.8333 11.1666 15.9166L15.9166 11.1666C17.8333 9.24992 17.8333 6.08325 15.9166 4.08325ZM14.7499 5.24992C16.0833 6.58325 16.0833 8.66658 14.7499 9.99992L12.4166 12.3333L7.66658 7.66658L9.99992 5.24992C11.3333 3.99992 13.4166 3.99992 14.7499 5.24992Z" fill="#172B4D"/>
</svg>
