<svg width="24" height="24" viewBox="0 0 24 24" fill="none" xmlns="http://www.w3.org/2000/svg">
<path d="M20 6H16V4C16 3.46957 15.7893 2.96089 15.4142 2.58582C15.0391 2.21074 14.5304 2 14 2H10C9.46957 2 8.96086 2.21074 8.58578 2.58582C8.21071 2.96089 8 3.46957 8 4V6H4C3.46957 6 2.96086 6.21074 2.58578 6.58582C2.21071 6.96089 2 7.46957 2 8V20C2 20.5304 2.21071 21.0392 2.58578 21.4142C2.96086 21.7893 3.46957 22 4 22H20C20.5304 22 21.0391 21.7893 21.4142 21.4142C21.7893 21.0392 22 20.5304 22 20V8C22 7.46957 21.7893 6.96089 21.4142 6.58582C21.0391 6.21074 20.5304 6 20 6ZM10 4H14V6H10V4ZM20 20H4V8H20V20Z" fill="#172B4D"/>
<path d="M13 10H11V13H8V15H11V18H13V15H16V13H13V10Z" fill="#172B4D"/>
</svg>
