<svg width="20" height="20" viewBox="0 0 20 20" fill="none" xmlns="http://www.w3.org/2000/svg">
<path d="M10.0001 3.33335C11.6084 3.33335 14.1667 4.50002 14.1667 7.62502C14.1667 9.42502 12.7334 11.5167 10.0001 13.725C7.26675 11.5167 5.83341 9.41669 5.83341 7.62502C5.83341 4.50002 8.39175 3.33335 10.0001 3.33335ZM10.0001 1.66669C7.27508 1.66669 4.16675 3.71669 4.16675 7.62502C4.16675 10.225 6.10841 12.9667 10.0001 15.8334C13.8917 12.9667 15.8334 10.225 15.8334 7.62502C15.8334 3.71669 12.7251 1.66669 10.0001 1.66669Z" fill="#172B4D"/>
<path d="M10.0001 5.83331C9.08342 5.83331 8.33342 6.58331 8.33342 7.49998C8.33342 8.41665 9.08342 9.16665 10.0001 9.16665C10.9167 9.16665 11.6667 8.41665 11.6667 7.49998C11.6667 6.58331 10.9167 5.83331 10.0001 5.83331ZM4.16675 16.6666H15.8334V18.3333H4.16675V16.6666Z" fill="#172B4D"/>
</svg>
