<svg width="20" height="20" viewBox="0 0 20 20" fill="none" xmlns="http://www.w3.org/2000/svg">
<path d="M10 10C12.3 10 14.1667 8.13335 14.1667 5.83335C14.1667 3.53335 12.3 1.66669 10 1.66669C7.70004 1.66669 5.83337 3.53335 5.83337 5.83335C5.83337 8.13335 7.70004 10 10 10ZM10 3.33335C11.3834 3.33335 12.5 4.45002 12.5 5.83335C12.5 7.21669 11.3834 8.33335 10 8.33335C8.61671 8.33335 7.50004 7.21669 7.50004 5.83335C7.50004 4.45002 8.61671 3.33335 10 3.33335Z" fill="#172B4D"/>
<path d="M12.5 13.3334H11.6667V14.1667H10.8334V15H11.6667V15.8334H12.5V15H13.3334V14.1667H12.5V13.3334Z" fill="#172B4D"/>
<path d="M11.6667 10.8334H8.33337C5.57504 10.8334 3.33337 13.075 3.33337 15.8334V16.6667C3.33337 17.5834 4.08337 18.3334 5.00004 18.3334H15C15.9167 18.3334 16.6667 17.5834 16.6667 16.6667V15.8334C16.6667 13.075 14.425 10.8334 11.6667 10.8334ZM6.66671 15V16.6667H5.83337C5.37504 16.6667 5.00004 16.2917 5.00004 15.8334C5.00004 14.1334 6.27504 12.75 7.91671 12.5417V13.3917C7.20004 13.575 6.66671 14.225 6.66671 15ZM9.16671 16.6667H7.50004V15C7.50004 14.5417 7.87504 14.1667 8.33337 14.1667C8.79171 14.1667 9.16671 14.5417 9.16671 15V16.6667ZM14.1667 16.6667H10V15C10 14.225 9.46671 13.575 8.75004 13.3917V12.5H11.6667C13.5084 12.5 15 13.9917 15 15.8334C15 16.2917 14.625 16.6667 14.1667 16.6667Z" fill="#172B4D"/>
</svg>
