<svg width="20" height="20" viewBox="0 0 20 20" fill="none" xmlns="http://www.w3.org/2000/svg">
<path d="M16.6333 5.52498L14.6833 3.57498C14.5166 3.41665 14.3083 3.33331 14.1 3.33331C13.8833 3.33331 13.675 3.41665 13.5083 3.57498L8.96663 8.11665L8.54996 7.69998L1.66663 14.5833L2.41663 15.3333C4.18329 17.1 7.05829 17.1 8.82496 15.3333L12.5083 11.6666L12.0916 11.25L16.6333 6.70831C16.9583 6.37498 16.9583 5.84998 16.6333 5.52498ZM7.39996 14.4083C6.51663 15.2916 5.08329 15.2916 4.19996 14.4083L8.32496 10.2833L9.92496 11.8833L7.39996 14.4083ZM10.6833 10.2916L9.91663 9.52498L11.2083 8.23331L12.4166 8.55831L10.6833 10.2916ZM13.775 7.19165L12.5666 6.86665L14.0916 5.34165L14.8583 6.10831L13.775 7.19165ZM10.8333 15H18.3333C18.3333 15.9166 17.5833 16.6666 16.6666 16.6666H9.16663L10.8333 15Z" fill="#172B4D"/>
</svg>
