<svg width="87" height="65" viewBox="0 0 87 65" fill="none" xmlns="http://www.w3.org/2000/svg">
<path fill-rule="evenodd" clip-rule="evenodd" d="M13.9824 68.9926C6.2919 68.9926 0 62.6683 0 54.9418C0 47.2154 6.2919 40.8911 13.9824 40.8911C17.2348 40.8911 19.8962 38.2167 19.8962 34.9525C19.8962 31.6847 17.2348 29.014 13.9824 29.014H13.2776C9.89671 29.014 7.12886 26.2357 7.12886 22.838C7.12886 19.4403 9.89671 16.6621 13.2776 16.6621H15.4361C16.7503 16.6621 17.8295 15.579 17.8295 14.2585C17.8295 12.938 16.7539 11.8549 15.4361 11.8549H13.8503C12.9399 11.8549 12.1984 11.1093 12.1984 10.1968C12.1984 9.28432 12.9435 8.53876 13.8503 8.53876H24.5142C25.9422 8.53876 27.1095 7.36663 27.1095 5.93114C27.1095 4.49565 25.9422 3.32351 24.5142 3.32351H21.3278C20.4175 3.32351 19.6759 2.57795 19.6759 1.66547C19.6759 0.752983 20.4211 0.00741856 21.3278 0.00741856H66.6743C67.86 0.00741856 68.8291 0.982959 68.8291 2.17364C68.8291 3.36432 67.8563 4.33986 66.6743 4.33986H63.4072C61.5461 4.33986 60.019 5.87179 60.019 7.74126C60.019 9.61074 61.5424 11.1427 63.4072 11.1427H77.408C78.5937 11.1427 79.5628 12.1182 79.5628 13.3089C79.5628 14.4996 78.5937 15.4751 77.408 15.4751H75.3376C73.6196 15.4751 72.2137 16.8883 72.2137 18.6132C72.2137 20.338 73.6196 21.7512 75.3376 21.7512H78.1532C82.5656 21.7512 86.174 25.3789 86.174 29.8115C86.174 34.2441 82.5656 37.8717 78.1532 37.8717H77.2354C72.9919 37.8717 69.5192 41.3585 69.5192 45.6241C69.5192 49.8898 72.9919 53.3765 77.2354 53.3765H79.2251C83.5053 53.3765 87.0037 56.8929 87.0037 61.192C87.0037 65.491 83.5016 69.0074 79.2251 69.0074C57.086 68.9926 36.1215 68.9926 13.9824 68.9926ZM72.188 4.33244C73.3773 4.33244 74.3428 3.36432 74.3428 2.16622C74.3428 0.968122 73.3773 0 72.188 0C70.9986 0 70.0332 0.968122 70.0332 2.16622C70.0332 3.36432 70.9949 4.33244 72.188 4.33244ZM9.2176 11.8511C10.1316 11.8511 10.8695 11.1093 10.8695 10.1931C10.8695 9.27691 10.128 8.53505 9.2176 8.53505C8.30354 8.53505 7.5657 9.27691 7.5657 10.1931C7.5657 11.1093 8.30354 11.8511 9.2176 11.8511Z" fill="#C1DBF2"/>
<path fill-rule="evenodd" clip-rule="evenodd" d="M43.801 13.6353H17.7487C17.8001 13.8319 17.8295 14.0433 17.8295 14.2548C17.8295 15.5753 16.7539 16.6584 15.4361 16.6584H13.2776C9.89669 16.6584 7.12885 19.4366 7.12885 22.8343C7.12885 22.8529 7.12885 22.8714 7.12885 22.89H43.7973C46.3302 22.89 48.4043 20.809 48.4043 18.2608C48.408 15.7199 46.3339 13.6353 43.801 13.6353Z" fill="#DCE9F7"/>
<path fill-rule="evenodd" clip-rule="evenodd" d="M7.69785 20.2601H48.408V68.9926H13.9824C6.2919 68.9926 0 62.6683 0 54.9418C0 47.2154 6.2919 40.8911 13.9824 40.8911C17.2348 40.8911 19.8962 38.2167 19.8962 34.9525C19.8962 31.6847 17.2348 29.014 13.9824 29.014H13.2776C9.89671 29.014 7.12886 26.2357 7.12886 22.838C7.13253 21.9181 7.33443 21.0465 7.69785 20.2601Z" fill="#CDE0F3"/>
<path fill-rule="evenodd" clip-rule="evenodd" d="M7.28671 24.2068H45.0932C46.1761 24.2068 47.0608 25.2602 47.0608 26.551V68.9926H13.9824C6.2919 68.9926 0 62.6683 0 54.9418C0 47.2154 6.2919 40.8911 13.9824 40.8911C17.2348 40.8911 19.8962 38.2167 19.8962 34.9525C19.8962 31.6847 17.2348 29.014 13.9824 29.014H13.2776C10.3666 29.014 7.91076 26.9516 7.28671 24.2068Z" fill="#C1DBF2"/>
<path fill-rule="evenodd" clip-rule="evenodd" d="M19.5658 32.9977H47.0608V36.9889H19.5365C19.7677 36.3509 19.8962 35.6684 19.8962 34.9525C19.8962 34.27 19.7787 33.6135 19.5658 32.9977Z" fill="#CDE0F3"/>
<path fill-rule="evenodd" clip-rule="evenodd" d="M48.9916 31.2989H18.6371C19.4263 32.3078 19.8962 33.5801 19.8962 34.9525C19.8962 35.0675 19.8925 35.1788 19.8852 35.2901H48.988C49.7038 35.2901 50.2838 34.704 50.2838 33.9881V32.6046C50.2875 31.885 49.7038 31.2989 48.9916 31.2989Z" fill="#DCE9F7"/>
<path fill-rule="evenodd" clip-rule="evenodd" d="M0.546962 51.0619H47.0608V55.0531H0.00367089C0.00367089 55.016 0 54.9789 0 54.9418C0 53.5991 0.190886 52.2971 0.546962 51.0619Z" fill="#CDE0F3"/>
<path fill-rule="evenodd" clip-rule="evenodd" d="M48.9916 49.3631H1.15633C0.616712 50.6131 0.249623 51.9521 0.0881042 53.3542H48.988C49.7038 53.3542 50.2838 52.7682 50.2838 52.0523V50.665C50.2875 49.9491 49.7038 49.3631 48.9916 49.3631Z" fill="#DCE9F7"/>
<path fill-rule="evenodd" clip-rule="evenodd" d="M48.9917 18.2645H9.15887C8.05026 19.2734 7.30874 20.6829 7.15823 22.2557H48.988C49.7038 22.2557 50.2838 21.6696 50.2838 20.9537V19.5665C50.2875 18.8506 49.7038 18.2645 48.9917 18.2645Z" fill="#DCE9F7"/>
<path fill-rule="evenodd" clip-rule="evenodd" d="M10.7631 17.263H44.7848C45.7062 17.263 46.4587 16.4098 46.4587 15.3712C46.4587 14.9669 46.3449 14.5923 46.1541 14.2844C47.4866 14.9818 48.4153 16.5063 48.4153 18.2645H9.15887C9.63242 17.8565 10.172 17.5152 10.7631 17.263Z" fill="#CDE0F3"/>
<path fill-rule="evenodd" clip-rule="evenodd" d="M45.4382 39.2775H39.752C39.4841 39.2775 39.2675 39.4964 39.2675 39.7672V48.8772C39.2675 49.1479 39.4841 49.3668 39.752 49.3668H45.4382C45.7062 49.3668 45.9228 49.1479 45.9228 48.8772V39.7672C45.9228 39.4964 45.7062 39.2775 45.4382 39.2775Z" fill="#EAEAE6"/>
<path fill-rule="evenodd" clip-rule="evenodd" d="M38.5003 39.2775H35.6113C35.4755 39.2775 35.3653 39.3888 35.3653 39.5261V49.1146C35.3653 49.2518 35.4755 49.3631 35.6113 49.3631H38.5003C38.6361 49.3631 38.7462 49.2518 38.7462 49.1146V39.5261C38.7462 39.3888 38.6361 39.2775 38.5003 39.2775Z" fill="#E7E9E3"/>
<path fill-rule="evenodd" clip-rule="evenodd" d="M36.0665 37.3784H32.7076C32.5497 37.3784 32.4213 37.5082 32.4213 37.6677V49.0775C32.4213 49.237 32.5497 49.3668 32.7076 49.3668H36.0701C36.228 49.3668 36.3565 49.237 36.3565 49.0775V37.6677C36.3565 37.5082 36.2243 37.3784 36.0665 37.3784Z" fill="#B3CEEB"/>
<path fill-rule="evenodd" clip-rule="evenodd" d="M37.2999 44.6931H31.4779C31.2906 44.6931 31.1401 44.8452 31.1401 45.0344V49.0218C31.1401 49.211 31.2906 49.3631 31.4779 49.3631H37.2999C37.4871 49.3631 37.6376 49.211 37.6376 49.0218V45.0344C37.6376 44.8452 37.4871 44.6931 37.2999 44.6931Z" fill="#B8D3EE"/>
<path fill-rule="evenodd" clip-rule="evenodd" d="M30.1453 40.8058H27.2563C27.1205 40.8058 27.0104 40.917 27.0104 41.0543V49.1146C27.0104 49.2518 27.1205 49.3631 27.2563 49.3631H30.1453C30.2811 49.3631 30.3913 49.2518 30.3913 49.1146V41.0543C30.3913 40.9208 30.2811 40.8058 30.1453 40.8058Z" fill="#B8D3EE"/>
<path fill-rule="evenodd" clip-rule="evenodd" d="M44.3296 41.5402H40.857C40.6771 41.5402 40.5302 41.6886 40.5302 41.8666V43.7769C40.5302 43.9587 40.6771 44.1033 40.857 44.1033H44.3296C44.5095 44.1033 44.6563 43.9549 44.6563 43.7769V41.8666C44.6563 41.6849 44.5095 41.5402 44.3296 41.5402Z" fill="#E3E2DC"/>
<path fill-rule="evenodd" clip-rule="evenodd" d="M44.381 44.6931H40.8056C40.6551 44.6931 40.5302 44.8155 40.5302 44.9676V45.2347C40.5302 45.3867 40.6514 45.5128 40.8056 45.5128H44.381C44.5315 45.5128 44.6563 45.3904 44.6563 45.2347V44.9676C44.6563 44.8155 44.5315 44.6931 44.381 44.6931Z" fill="#E3E2DC"/>
<path fill-rule="evenodd" clip-rule="evenodd" d="M44.381 46.2733H40.8056C40.6551 46.2733 40.5302 46.3957 40.5302 46.5477V46.8111C40.5302 46.9632 40.6514 47.0893 40.8056 47.0893H44.381C44.5315 47.0893 44.6563 46.9669 44.6563 46.8111V46.5477C44.6563 46.3957 44.5315 46.2733 44.381 46.2733Z" fill="#E3E2DC"/>
<path fill-rule="evenodd" clip-rule="evenodd" d="M28.7027 44.2406C28.3099 44.2406 27.9905 44.6189 27.9905 45.09C27.9905 45.5574 28.3099 45.9394 28.7027 45.9394C29.0954 45.9394 29.4148 45.5611 29.4148 45.09C29.4111 44.6189 29.0954 44.2406 28.7027 44.2406Z" fill="#B3CEEB"/>
<path fill-rule="evenodd" clip-rule="evenodd" d="M30.2297 29.7596H28.7027C28.5962 29.7596 28.5044 29.8486 28.5044 29.9561V31.1023C28.5044 31.2099 28.5925 31.2989 28.7027 31.2989H30.2297C30.3362 31.2989 30.4243 31.2099 30.4243 31.1023V29.9561C30.4243 29.8486 30.3399 29.7596 30.2297 29.7596Z" fill="#DCE9F7"/>
<path fill-rule="evenodd" clip-rule="evenodd" d="M27.7813 27.2743H23.5854C23.4239 27.2743 23.2918 27.4041 23.2918 27.5674V31.0059C23.2918 31.1654 23.4239 31.2989 23.5854 31.2989H27.7813C27.9428 31.2989 28.0749 31.1691 28.0749 31.0059V27.5674C28.0749 27.4041 27.9428 27.2743 27.7813 27.2743Z" fill="#B8D3EE"/>
<path fill-rule="evenodd" clip-rule="evenodd" d="M25.7659 28.5577H22.91C22.7999 28.5577 22.7118 28.6468 22.7118 28.758V31.1023C22.7118 31.2136 22.7999 31.3026 22.91 31.3026H25.7659C25.8761 31.3026 25.9642 31.2136 25.9642 31.1023V28.758C25.9678 28.6468 25.8761 28.5577 25.7659 28.5577Z" fill="#B3CEEB"/>
<path fill-rule="evenodd" clip-rule="evenodd" d="M23.78 24.804H21.3058C21.192 24.804 21.0929 24.9004 21.0929 25.0154V31.0875C21.0929 31.2025 21.1884 31.2989 21.3058 31.2989H23.78C23.8938 31.2989 23.9929 31.2025 23.9929 31.0875V25.0154C23.9929 24.9004 23.8938 24.804 23.78 24.804Z" fill="#DCE9F7"/>
<path fill-rule="evenodd" clip-rule="evenodd" d="M39.2968 26.7921H39.1353V26.4917H39.1904C39.2895 26.4917 39.3703 26.3952 39.3703 26.2765C39.3703 26.1578 39.2895 26.0614 39.1904 26.0614H38.9922V24.7854C38.9922 24.6667 38.9077 24.5703 38.8123 24.5703C38.7132 24.5703 38.6324 24.6667 38.6324 24.7854V26.0614H38.4342C38.3351 26.0614 38.2506 26.1578 38.2506 26.2765C38.2506 26.3952 38.3351 26.4917 38.4342 26.4917H38.4892V26.7921H38.3277C38.2176 26.7921 38.1258 26.8997 38.1258 27.0332V31.0541C38.1258 31.1876 38.2176 31.2952 38.3277 31.2952H39.3005C39.4143 31.2952 39.5061 31.1876 39.5061 31.0541V27.0369C39.4987 26.9034 39.407 26.7921 39.2968 26.7921Z" fill="#B3CEEB"/>
<path fill-rule="evenodd" clip-rule="evenodd" d="M40.8716 27.2669H40.7285V26.9961H40.7799C40.868 26.9961 40.9451 26.9108 40.9451 26.8032C40.9451 26.6957 40.8716 26.6104 40.7799 26.6104H40.6037V25.4679C40.6037 25.3603 40.5303 25.275 40.4385 25.275C40.3467 25.275 40.2733 25.3603 40.2733 25.4679V26.6104H40.0971C40.0053 26.6104 39.9319 26.6957 39.9319 26.8032C39.9319 26.9108 40.0053 26.9961 40.0971 26.9961H40.1448V27.2669H40.0016C39.9025 27.2669 39.8181 27.3633 39.8181 27.482V31.08C39.8181 31.1987 39.9025 31.2952 40.0016 31.2952H40.8716C40.9708 31.2952 41.0515 31.1987 41.0515 31.08V27.482C41.0515 27.3633 40.9708 27.2669 40.8716 27.2669Z" fill="#B3CEEB"/>
<path fill-rule="evenodd" clip-rule="evenodd" d="M43.5624 27.0406H41.1617C41.0479 27.0406 40.9561 27.1334 40.9561 27.2484V31.0949C40.9561 31.2099 41.0479 31.2989 41.1617 31.2989H43.5624C43.6762 31.2989 43.768 31.2062 43.768 31.0949V27.2484C43.7643 27.1334 43.6762 27.0406 43.5624 27.0406Z" fill="#DCE9F7"/>
<path fill-rule="evenodd" clip-rule="evenodd" d="M43.0925 27.9939H41.6278C41.5544 27.9939 41.4883 28.057 41.4883 28.1312V28.9398C41.4883 29.014 41.5507 29.0807 41.6278 29.0807H43.0925C43.1659 29.0807 43.232 29.0177 43.232 28.9398V28.1312C43.232 28.057 43.1696 27.9939 43.0925 27.9939Z" fill="#F5F6F5"/>
<path fill-rule="evenodd" clip-rule="evenodd" d="M43.1182 29.3256H41.6095C41.5471 29.3256 41.492 29.3775 41.492 29.4406V29.5518C41.492 29.6149 41.5434 29.6668 41.6095 29.6668H43.1182C43.1806 29.6668 43.232 29.6149 43.232 29.5518V29.4406C43.232 29.3775 43.1806 29.3256 43.1182 29.3256Z" fill="#F5F6F5"/>
<path fill-rule="evenodd" clip-rule="evenodd" d="M43.1182 29.9932H41.6095C41.5471 29.9932 41.492 30.0452 41.492 30.1082V30.2195C41.492 30.2825 41.5434 30.3345 41.6095 30.3345H43.1182C43.1806 30.3345 43.232 30.2825 43.232 30.2195V30.1082C43.232 30.0452 43.1806 29.9932 43.1182 29.9932Z" fill="#F5F6F5"/>
<path fill-rule="evenodd" clip-rule="evenodd" d="M40.5927 28.6839H39.117C39.0472 28.6839 38.9922 28.7395 38.9922 28.81V31.1728C38.9922 31.2433 39.0472 31.2989 39.117 31.2989H40.5927C40.6624 31.2989 40.7175 31.2433 40.7175 31.1728V28.81C40.7175 28.7395 40.6624 28.6839 40.5927 28.6839Z" fill="#B8D3EE"/>
<path fill-rule="evenodd" clip-rule="evenodd" d="M37.4614 24.9041H32.458C32.2231 24.9041 32.0322 25.097 32.0322 25.3344V30.8723C32.0322 31.1097 32.2231 31.3026 32.458 31.3026H37.4614C37.6963 31.3026 37.8909 31.1097 37.8909 30.8723V25.3307C37.8872 25.097 37.6963 24.9041 37.4614 24.9041Z" fill="#B8D3EE"/>
<path fill-rule="evenodd" clip-rule="evenodd" d="M38.4195 28.6839H36.9438C36.874 28.6839 36.819 28.7395 36.819 28.81V31.1728C36.819 31.2433 36.874 31.2989 36.9438 31.2989H38.4195C38.4892 31.2989 38.5443 31.2433 38.5443 31.1728V28.81C38.5443 28.7395 38.4892 28.6839 38.4195 28.6839Z" fill="#DCE9F7"/>
<path fill-rule="evenodd" clip-rule="evenodd" d="M15.0947 27.2743H19.2905C19.452 27.2743 19.5842 27.4041 19.5842 27.5674V31.0059C19.5842 31.1654 19.452 31.2989 19.2905 31.2989H18.6371C17.712 30.1156 16.3501 29.2885 14.8047 29.0696V27.5636C14.801 27.4041 14.9332 27.2743 15.0947 27.2743Z" fill="#B3CEEB"/>
<path fill-rule="evenodd" clip-rule="evenodd" d="M17.11 28.5577H19.966C20.0761 28.5577 20.1642 28.6468 20.1642 28.758V31.1023C20.1642 31.2136 20.0761 31.3026 19.966 31.3026H18.6371C18.1635 30.698 17.5762 30.1861 16.9118 29.8003V28.758C16.9118 28.6468 16.9999 28.5577 17.11 28.5577Z" fill="#B8D3EE"/>
<path fill-rule="evenodd" clip-rule="evenodd" d="M16.3318 29.3701H17.2825C17.3266 29.3701 17.3633 29.4072 17.3633 29.4517V30.086C17.0182 29.8411 16.6438 29.6334 16.251 29.4702V29.4517C16.251 29.4072 16.2877 29.3701 16.3318 29.3701Z" fill="#F0F1EE"/>
<path fill-rule="evenodd" clip-rule="evenodd" d="M10.15 25.7016H7.83734C8.41734 26.8033 9.32038 27.7157 10.418 28.2981V25.9724C10.4216 25.824 10.2968 25.7016 10.15 25.7016Z" fill="#EAEAE6"/>
<path fill-rule="evenodd" clip-rule="evenodd" d="M9.53698 26.9553H8.71103C9.01204 27.2929 9.34976 27.597 9.71685 27.8604V27.1371C9.71685 27.0406 9.63609 26.9553 9.53698 26.9553Z" fill="#E3E2DC"/>
<path fill-rule="evenodd" clip-rule="evenodd" d="M12.0111 42.2672H11.7578V41.7924H11.8459C12.0038 41.7924 12.1323 41.6404 12.1323 41.4512C12.1323 41.262 12.0038 41.1099 11.8459 41.1099H11.5523C11.1521 41.1804 10.7557 41.2694 10.3666 41.377C10.3629 41.403 10.3592 41.4289 10.3592 41.4512C10.3592 41.6404 10.4877 41.7924 10.6456 41.7924H10.7337V42.2672H10.4804C10.3042 42.2672 10.161 42.4378 10.161 42.6493V48.981C10.161 49.1887 10.3042 49.3631 10.4804 49.3631H12.0148C12.191 49.3631 12.3342 49.1924 12.3342 48.981V42.6493C12.3305 42.4416 12.1873 42.2672 12.0111 42.2672Z" fill="#B3CEEB"/>
<path fill-rule="evenodd" clip-rule="evenodd" d="M14.489 43.0128H14.2614V42.5862H14.3385C14.478 42.5862 14.5954 42.449 14.5954 42.2821C14.5954 42.1151 14.4817 41.9779 14.3385 41.9779H14.0558V40.8948C14.0301 40.8948 14.0044 40.8948 13.9824 40.8948C13.8356 40.8948 13.6924 40.8985 13.5456 40.9022V41.9779H13.2629C13.1234 41.9779 13.006 42.1151 13.006 42.2821C13.006 42.449 13.1198 42.5862 13.2629 42.5862H13.34V43.0128H13.1124C12.9546 43.0128 12.8261 43.1649 12.8261 43.354V49.0218C12.8261 49.211 12.9546 49.3631 13.1124 49.3631H14.4853C14.6432 49.3631 14.7717 49.211 14.7717 49.0218V43.354C14.7753 43.1686 14.6468 43.0128 14.489 43.0128Z" fill="#DEDED7"/>
<path fill-rule="evenodd" clip-rule="evenodd" d="M18.7252 42.6604H14.9442C14.768 42.6604 14.6212 42.8051 14.6212 42.9831V49.0404C14.6212 49.2184 14.7643 49.3631 14.9442 49.3631H18.7252C18.9014 49.3631 19.0482 49.2184 19.0482 49.0404V42.9831C19.0519 42.8051 18.9051 42.6604 18.7252 42.6604Z" fill="#F9F9FA"/>
<path fill-rule="evenodd" clip-rule="evenodd" d="M17.991 44.1627H15.682C15.5609 44.1627 15.4655 44.2628 15.4655 44.3815V45.6501C15.4655 45.7688 15.5646 45.8689 15.682 45.8689H17.991C18.1122 45.8689 18.2076 45.7688 18.2076 45.6501V44.3815C18.2076 44.2591 18.1085 44.1627 17.991 44.1627Z" fill="#F5F6F5"/>
<path fill-rule="evenodd" clip-rule="evenodd" d="M18.024 46.2584H15.6453C15.5462 46.2584 15.4618 46.34 15.4618 46.4439V46.6182C15.4618 46.7184 15.5425 46.8037 15.6453 46.8037H18.0204C18.1195 46.8037 18.2039 46.7221 18.2039 46.6182V46.4439C18.2076 46.34 18.1268 46.2584 18.024 46.2584Z" fill="#F5F6F5"/>
<path fill-rule="evenodd" clip-rule="evenodd" d="M18.024 47.3082H15.6453C15.5462 47.3082 15.4618 47.3898 15.4618 47.4936V47.6679C15.4618 47.7681 15.5425 47.8534 15.6453 47.8534H18.0204C18.1195 47.8534 18.2039 47.7718 18.2039 47.6679V47.4936C18.2076 47.3935 18.1268 47.3082 18.024 47.3082Z" fill="#F5F6F5"/>
<path fill-rule="evenodd" clip-rule="evenodd" d="M14.0521 45.2421H11.7321C11.622 45.2421 11.5339 45.3311 11.5339 45.4424V49.1628C11.5339 49.274 11.622 49.3631 11.7321 49.3631H14.0558C14.1659 49.3631 14.254 49.274 14.254 49.1628V45.4424C14.2504 45.3348 14.1623 45.2421 14.0521 45.2421Z" fill="#EAEAE6"/>
<path fill-rule="evenodd" clip-rule="evenodd" d="M1.16 49.3594C1.18937 49.3631 1.21874 49.3668 1.2481 49.3668H9.12583C9.49659 49.3668 9.7976 49.0626 9.7976 48.6917V41.5439C5.92481 42.7717 2.77152 45.6538 1.16 49.3594Z" fill="#C1DBF2"/>
<path fill-rule="evenodd" clip-rule="evenodd" d="M10.6272 45.2421H8.30354C8.19342 45.2421 8.10532 45.3311 8.10532 45.4424V49.1628C8.10532 49.274 8.19342 49.3631 8.30354 49.3631H10.6272C10.7373 49.3631 10.8254 49.274 10.8254 49.1628V45.4424C10.8254 45.3348 10.7373 45.2421 10.6272 45.2421Z" fill="#C1DBF2"/>
<path fill-rule="evenodd" clip-rule="evenodd" d="M23.9452 61.5889H30.0278C30.2591 61.5889 30.45 61.7818 30.45 62.0154V67.0044C30.45 67.2381 30.2591 67.431 30.0278 67.431H23.9452C23.7139 67.431 23.523 67.2381 23.523 67.0044V62.0154C23.523 61.778 23.7139 61.5889 23.9452 61.5889Z" fill="#EAEAE6"/>
<path fill-rule="evenodd" clip-rule="evenodd" d="M26.8672 63.4509H31.0116C31.1695 63.4509 31.3016 63.5807 31.3016 63.7402V67.1379C31.3016 67.2974 31.1732 67.4273 31.0116 67.4273H26.8672C26.7094 67.4273 26.5772 67.2974 26.5772 67.1379V63.7402C26.5772 63.5807 26.7094 63.4509 26.8672 63.4509Z" fill="#E1E1D9"/>
<path fill-rule="evenodd" clip-rule="evenodd" d="M29.7489 58.0131H33.339C33.5079 58.0131 33.6437 58.1541 33.6437 58.321V67.1194C33.6437 67.29 33.5042 67.4272 33.339 67.4272H29.7489C29.58 67.4272 29.4442 67.29 29.4442 67.1194V58.321C29.4442 58.1466 29.58 58.0131 29.7489 58.0131Z" fill="#B8D3EE"/>
<path fill-rule="evenodd" clip-rule="evenodd" d="M7.25366 60.8915H7.4886V60.4538H7.40784C7.26468 60.4538 7.14354 60.3129 7.14354 60.1385C7.14354 59.9679 7.26468 59.8232 7.40784 59.8232H7.69784V57.9723C7.69784 57.8017 7.81898 57.657 7.96215 57.657C8.10531 57.657 8.22645 57.798 8.22645 57.9723V59.8232H8.51645C8.65961 59.8232 8.78075 59.9642 8.78075 60.1385C8.78075 60.3092 8.65961 60.4538 8.51645 60.4538H8.43569V60.8915H8.67063C8.83215 60.8915 8.9643 61.051 8.9643 61.2402V67.0712C8.9643 67.2641 8.83215 67.4236 8.67063 67.4236H7.59506C7.38214 67.3123 7.1729 67.1936 6.96366 67.0749V67.0712V61.2402C6.95632 61.051 7.09214 60.8915 7.25366 60.8915Z" fill="#DEDED7"/>
<path fill-rule="evenodd" clip-rule="evenodd" d="M4.97038 61.5777H5.17962V61.1846H5.10988C4.9814 61.1846 4.87127 61.0584 4.87127 60.9026C4.87127 60.7469 4.97773 60.6207 5.10988 60.6207H5.36684V58.9627C5.36684 58.8069 5.4733 58.6808 5.60545 58.6808C5.73393 58.6808 5.84405 58.8069 5.84405 58.9627V60.6207H6.10102C6.2295 60.6207 6.33962 60.7469 6.33962 60.9026C6.33962 61.0584 6.23317 61.1846 6.10102 61.1846H6.03127V61.5777H6.24051C6.38368 61.5777 6.50481 61.7187 6.50481 61.893V66.793C5.86975 66.385 5.27507 65.9287 4.71342 65.4317V61.8967C4.70608 61.7187 4.82722 61.5777 4.97038 61.5777Z" fill="#DEDED7"/>
<path fill-rule="evenodd" clip-rule="evenodd" d="M1.49774 61.2513H4.54825C4.71344 61.2513 4.84559 61.3848 4.84559 61.5481V65.5541C3.47268 64.3597 2.32736 62.8982 1.49774 61.2513Z" fill="#F9F9FA"/>
<path fill-rule="evenodd" clip-rule="evenodd" d="M2.29797 62.6349H3.86911C3.97924 62.6349 4.07101 62.7276 4.07101 62.8352V64.0036C4.07101 64.1149 3.97924 64.2039 3.86911 64.2039H3.49101C3.05785 63.7143 2.66139 63.1876 2.29797 62.6349Z" fill="#F5F6F5"/>
<path fill-rule="evenodd" clip-rule="evenodd" d="M3.82138 64.5674H3.90214C3.99391 64.5674 4.071 64.6416 4.071 64.7343V64.8233C3.98657 64.7417 3.90214 64.6564 3.82138 64.5674Z" fill="#F5F6F5"/>
<path fill-rule="evenodd" clip-rule="evenodd" d="M5.3705 63.6327H7.51062C7.60974 63.6327 7.69417 63.7143 7.69417 63.8181V67.2455C7.69417 67.3234 7.64277 67.3939 7.56936 67.4161C6.72138 66.971 5.9248 66.4443 5.18695 65.8434V63.8144C5.19062 63.7143 5.27138 63.6327 5.3705 63.6327Z" fill="#EAEAE6"/>
<path fill-rule="evenodd" clip-rule="evenodd" d="M9.91139 58.1504H17.1651C17.5064 58.1504 17.7818 58.4323 17.7818 58.7735V66.8041C17.7818 67.1454 17.5028 67.4273 17.1651 67.4273H9.91139C9.56999 67.4273 9.29468 67.1454 9.29468 66.8041V58.7735C9.29468 58.4323 9.56999 58.1504 9.91139 58.1504Z" fill="#EAEAE6"/>
<path fill-rule="evenodd" clip-rule="evenodd" d="M8.52748 63.6327H10.6639C10.763 63.6327 10.8475 63.7143 10.8475 63.8181V67.2455C10.8475 67.3457 10.763 67.4273 10.6639 67.4273H8.52748C8.42836 67.4273 8.34393 67.3457 8.34393 67.2455V63.8181C8.34393 63.7143 8.42469 63.6327 8.52748 63.6327Z" fill="#F9F9FA"/>
<path fill-rule="evenodd" clip-rule="evenodd" d="M42.34 61.5889H36.2573C36.0224 61.5889 35.8352 61.7818 35.8352 62.0154V67.0044C35.8352 67.2381 36.0261 67.431 36.2573 67.431H42.34C42.5749 67.431 42.7621 67.2381 42.7621 67.0044V62.0154C42.7621 61.778 42.5713 61.5889 42.34 61.5889Z" fill="#EAEAE6"/>
<path fill-rule="evenodd" clip-rule="evenodd" d="M39.418 63.4509H35.2772C35.1194 63.4509 34.9872 63.5807 34.9872 63.7402V67.1379C34.9872 67.2974 35.1157 67.4273 35.2772 67.4273H39.418C39.5795 67.4273 39.708 67.2974 39.708 67.1379V63.7402C39.708 63.5807 39.5795 63.4509 39.418 63.4509Z" fill="#E1E1D9"/>
<path fill-rule="evenodd" clip-rule="evenodd" d="M40.5486 64.6268H39.172C39.1059 64.6268 39.0546 64.6787 39.0546 64.7455V67.3086C39.0546 67.3753 39.1059 67.4273 39.172 67.4273H40.5486C40.6147 67.4273 40.6661 67.3753 40.6661 67.3086V64.7455C40.6661 64.6824 40.6147 64.6268 40.5486 64.6268Z" fill="#F0F1EE"/>
<path fill-rule="evenodd" clip-rule="evenodd" d="M15.5205 41.5662L17.1687 41.4141C17.2752 41.403 17.367 41.4846 17.367 41.5958V42.13C17.367 42.2375 17.2789 42.334 17.1687 42.3451L15.5205 42.4935C15.4141 42.5046 15.326 42.423 15.326 42.3117V41.7776C15.326 41.6737 15.4141 41.5736 15.5205 41.5662Z" fill="white"/>
<path d="M66.9606 58.6177H37.12V15.2303H70.2387V55.7913C70.2387 57.3529 68.7704 58.6177 66.9606 58.6177Z" fill="#F6F6F6"/>
<path d="M70.1727 15.2303H37.109V17.2444H70.1727V15.2303Z" fill="#424DBF"/>
<path d="M61.8875 39.0921C62.3316 39.0921 62.3316 38.5839 61.8875 38.5839C56.3554 38.5839 50.8234 38.5839 45.2914 38.5839C44.8472 38.5839 44.8472 39.0921 45.2914 39.0921H61.8875Z" fill="#F6F6F6"/>
<path d="M52.9231 18.6428C50.2654 18.6428 47.883 19.8335 46.2715 21.7141L52.9231 27.5377L59.5748 21.7141C57.9596 19.8298 55.5809 18.6428 52.9231 18.6428Z" fill="#F6D5D5"/>
<path d="M62.2692 26.232L53.5545 27.4969V36.3917C58.4221 36.3917 62.3573 32.4117 62.3573 27.4969C62.361 27.0703 62.3279 26.6475 62.2692 26.232Z" fill="#5966D6"/>
<path d="M46.2788 21.7401C43.1439 25.5013 43.6138 31.106 47.3361 34.2737C47.6628 34.5519 48.0005 34.7967 48.3529 35.0193L53.0113 27.4709L46.2788 21.7401Z" fill="#DEDAE8"/>
<path d="M52.9966 36.3806C51.3483 36.3806 49.6928 35.9169 48.2391 34.9674L53.0002 27.4857L52.9966 36.3806Z" fill="#7EACF1"/>
<path d="M62.7171 25.7424C62.4748 24.0102 61.737 22.4411 60.6577 21.1837L54.0061 27.0073L62.7171 25.7424Z" fill="#3B308A"/>
<path d="M44.2452 48.7956H41.0111V56.6666H44.2452V48.7956Z" fill="#F17187"/>
<path d="M44.2452 45.7502H41.0111V49.4484H44.2452V45.7502Z" fill="#F6D5D5"/>
<path d="M65.5363 49.1517H62.3023V57.0228H65.5363V49.1517Z" fill="#F17187"/>
<path d="M65.5583 42.5083H62.3023V49.8008H65.5583V42.5083Z" fill="#F6D5D5"/>
<path d="M58.4405 48.5322H55.2065V56.8484H58.4405V48.5322Z" fill="#F17187"/>
<path d="M58.4405 47.7904H55.2065V53.3098H58.4405V47.7904Z" fill="#F6D5D5"/>
<path d="M51.341 45.6353H48.107V56.8039H51.341V45.6353Z" fill="#F17187"/>
<path d="M51.341 41.3102H48.107V50.2422H51.341V41.3102Z" fill="#F6D5D5"/>
<path d="M38.3717 16.8067C38.1368 16.8067 37.9459 16.6139 37.9459 16.3765C37.9459 16.1391 38.1368 15.9462 38.3717 15.9462C38.6067 15.9462 38.7976 16.1391 38.7976 16.3765C38.7976 16.6139 38.6067 16.8067 38.3717 16.8067ZM38.3717 16.0204C38.1772 16.0204 38.0157 16.1799 38.0157 16.3802C38.0157 16.5805 38.1735 16.74 38.3717 16.74C38.5663 16.74 38.7278 16.5805 38.7278 16.3802C38.7278 16.1799 38.57 16.0204 38.3717 16.0204Z" fill="white"/>
<path d="M39.6859 16.8067C39.451 16.8067 39.2601 16.6139 39.2601 16.3765C39.2601 16.1391 39.451 15.9462 39.6859 15.9462C39.9209 15.9462 40.1117 16.1391 40.1117 16.3765C40.1117 16.6139 39.9209 16.8067 39.6859 16.8067ZM39.6859 16.0204C39.4914 16.0204 39.3298 16.1799 39.3298 16.3802C39.3298 16.5805 39.4877 16.74 39.6859 16.74C39.8842 16.74 40.042 16.5805 40.042 16.3802C40.042 16.1799 39.8805 16.0204 39.6859 16.0204Z" fill="white"/>
<path d="M40.9964 16.8067C40.7615 16.8067 40.5706 16.6139 40.5706 16.3765C40.5706 16.1391 40.7615 15.9462 40.9964 15.9462C41.2314 15.9462 41.4222 16.1391 41.4222 16.3765C41.4222 16.6139 41.2314 16.8067 40.9964 16.8067ZM40.9964 16.0204C40.8019 16.0204 40.6404 16.1799 40.6404 16.3802C40.6404 16.5805 40.7982 16.74 40.9964 16.74C41.191 16.74 41.3525 16.5805 41.3525 16.3802C41.3525 16.1799 41.191 16.0204 40.9964 16.0204Z" fill="white"/>
<path opacity="0.07" d="M44.3186 59.8789H23.2073V26.9331H46.2789V57.8981C46.2789 58.9924 45.4015 59.8789 44.3186 59.8789Z" fill="#184462"/>
<path d="M42.5896 58.959H20.5863V24.4404H45.4456V56.0695C45.4456 57.6681 44.1644 58.959 42.5896 58.959Z" fill="#7EACF1"/>
<path d="M43.3458 27.1964H23.222V40.0565H43.3458V27.1964Z" fill="white"/>
<path d="M35.971 31.6587C36.0554 31.8293 36.1986 31.974 36.4739 32.0778C36.9842 32.2707 37.667 32.1298 37.9606 31.6995C38.4525 30.9799 38.313 29.9487 38.8416 29.1994C39.0546 28.8953 39.3849 28.6505 39.7704 28.5392C40.1558 28.4279 40.6 28.4613 40.9414 28.6505C41.4994 28.962 41.6939 29.6038 41.6976 30.1861C41.7086 31.3063 41.5544 32.4636 41.3525 33.569C41.2571 34.1031 41.1066 34.6521 40.7248 35.0749C40.2035 35.6499 39.3482 35.8873 38.5296 36.0134C36.4556 36.3361 34.3301 36.1395 32.2377 35.9392C30.5528 35.7797 28.8715 35.6202 27.1866 35.4607C26.713 35.4162 25.3144 35.4867 25.0318 35.1565C24.7528 34.8338 24.973 33.7322 25.1346 33.3946C25.4943 32.6379 26.4854 32.2114 27.4105 32.2596C29.5029 32.3672 28.677 30.1601 29.3451 29.1104C29.7011 28.554 30.483 28.1534 31.1585 28.3871C31.8009 28.6097 32.0725 29.2625 32.3882 29.8041C32.5534 30.086 32.7884 30.3753 33.1371 30.4383C33.7354 30.5422 34.2347 29.9265 34.8441 29.9524C35.2038 29.9673 35.5122 30.2121 35.6663 30.5014C35.8792 30.8909 35.8058 31.3211 35.971 31.6587Z" fill="#F6F6F6"/>
<path d="M42.0316 39.3592C42.0316 39.3592 42.0353 38.4318 42.0353 38.3836C42.039 37.0038 42.039 35.6202 42.0427 34.2404C42.0427 32.9199 42.1528 31.6031 42.1308 30.2863C42.1197 29.6779 41.8628 29.3589 41.2277 29.5222C40.6037 29.6817 40.031 30.0563 39.6382 30.5756C39.3703 30.9243 39.15 31.3657 38.7352 31.5066C37.9937 31.7588 37.388 30.9168 36.7235 30.5014C36.0077 30.0563 35.0092 30.1305 34.3668 30.6794C33.5923 31.3434 33.4124 32.4896 32.7553 33.2722C32.0322 34.1365 30.718 34.4258 29.7048 33.951C29.2863 33.7544 28.9303 33.4503 28.5191 33.2426C26.8892 32.4154 24.6243 33.6061 24.3527 35.4273V39.196C24.3527 39.1922 42.0647 39.3925 42.0316 39.3592Z" fill="#F6D5D5"/>
<path d="M25.0648 42.0187H23.5524V43.5469H25.0648V42.0187Z" fill="#7EACF1"/>
<path d="M25.0648 44.2777H23.5524V45.8059H25.0648V44.2777Z" fill="#5966D6"/>
<path d="M30.718 42.4824H26.3129V42.946H30.718V42.4824Z" fill="#F6F6F6"/>
<path d="M30.6519 44.9416H26.2468V45.4053H30.6519V44.9416Z" fill="#F6F6F6"/>
<path d="M42.9567 48.4135H23.7506V48.9142H42.9567V48.4135Z" fill="#F6F6F6"/>
<path d="M32.3001 49.8712H23.7506V56.7594H32.3001V49.8712Z" fill="#F6F6F6"/>
<path d="M42.9531 49.938H33.6143V52.9351H42.9531V49.938Z" fill="#F6F6F6"/>
<path d="M42.8539 53.7252H33.5152V56.7223H42.8539V53.7252Z" fill="#F6F6F6"/>
<path d="M34.6789 10.1783H18.9675C18.9087 10.1783 18.8573 10.2339 18.8573 10.3007V18.7096C18.8573 20.7831 20.3844 22.4634 22.2676 22.4634H28.7834L31.4485 26.2394C31.5182 26.3396 31.6761 26.2914 31.6797 26.1652L31.7348 22.4597H34.6825C34.7413 22.4597 34.7926 22.404 34.7926 22.3373V10.2969C34.789 10.2302 34.7413 10.1783 34.6789 10.1783Z" fill="#5966D6"/>
<path d="M30.6996 12.1887H20.913V12.6004H30.6996V12.1887Z" fill="#F6F6F6"/>
<path d="M32.5864 15.3304H20.913V15.7422H32.5864V15.3304Z" fill="#F6F6F6"/>
<path d="M32.5864 18.4722H20.913V18.8839H32.5864V18.4722Z" fill="#F6F6F6"/>
<path d="M44.9023 14.1212H33.2472V5.77534H44.1607L46.4991 8.26798V12.3964C46.4991 13.3497 45.7833 14.1212 44.9023 14.1212Z" fill="#2F3787"/>
<path d="M46.5064 8.28653L44.1607 8.34587V5.77534L46.5064 8.28653Z" fill="#424DBF"/>
<path d="M43.8781 7.94156H36.4445V8.29765H43.8781V7.94156Z" fill="#F6F6F6"/>
<path d="M43.8781 9.67009H35.2662V10.0262H43.8781V9.67009Z" fill="#F6F6F6"/>
<path d="M43.8781 11.3986H35.2662V11.7547H43.8781V11.3986Z" fill="#F6F6F6"/>
<path opacity="0.07" d="M76.8867 40.8095H60.3163V52.9129H76.8867V40.8095Z" fill="#184462"/>
<path d="M77.5658 40.1084H60.8816V52.2489H77.5658V40.1084Z" fill="#7EACF1"/>
<path d="M77.5401 40.1084H60.8816V41.0766H77.5401V40.1084Z" fill="#5966D6"/>
<path opacity="0.03" d="M77.5291 43.1612V43.1241H75.4807V41.0951H75.444V43.1241H72.9882V41.0951H72.9515V43.1241H70.4957V41.0951H70.459V43.1241H68.0031V41.0951H67.9664V43.1241H65.5106V41.0951H65.4739V43.1241H63.0181V41.0951H62.9814V43.1241H60.9367V43.1612H62.9814V45.4535H60.9367V45.4906H62.9814V47.7829H60.9367V47.82H62.9814V50.1124H60.9367V50.1494H62.9814V52.286H63.0181V50.1494H65.4739V52.286H65.5106V50.1494H67.9664V52.286H68.0031V50.1494H70.459V52.286H70.4957V50.1494H72.9515V52.286H72.9882V50.1494H75.444V52.286H75.4807V50.1494H77.5291V50.1124H75.4807V47.82H77.5291V47.7829H75.4807V45.4906H77.5291V45.4535H75.4807V43.1612H77.5291ZM72.9515 43.1612V45.4535H70.4957V43.1612H72.9515ZM68.0068 45.4906H70.4626V47.7829H68.0068V45.4906ZM67.9701 47.7866H65.5143V45.4943H67.9701V47.7866ZM70.4993 45.4906H72.9552V47.7829H70.4993V45.4906ZM70.4626 43.1612V45.4535H68.0068V43.1612H70.4626ZM67.9701 43.1612V45.4535H65.5143V43.1612H67.9701ZM63.0218 43.1612H65.4776V45.4535H63.0218V43.1612ZM63.0218 45.4906H65.4776V47.7829H63.0218V45.4906ZM63.0218 50.1161V47.8237H65.4776V50.1161H63.0218ZM65.5143 50.1161V47.8237H67.9701V50.1161H65.5143ZM68.0068 50.1161V47.8237H70.4626V50.1161H68.0068ZM70.4993 50.1161V47.8237H72.9552V50.1161H70.4993ZM75.444 50.1161H72.9882V47.8237H75.444V50.1161ZM75.444 47.7866H72.9882V45.4943H75.444V47.7866ZM75.444 45.4535H72.9882V43.1612H75.444V45.4535Z" fill="#232020"/>
<path d="M75.7707 42.6307C75.4881 42.6307 75.2605 42.8607 75.2605 43.1463C75.2605 43.291 75.3192 43.4208 75.411 43.5135C74.82 44.0254 74.229 44.541 73.6416 45.0529C73.5976 45.0937 73.5535 45.1308 73.5058 45.1716C73.4177 45.1011 73.3076 45.0566 73.1864 45.0566C72.9038 45.0566 72.6762 45.2866 72.6762 45.5722C72.6762 45.754 72.768 45.9134 72.9075 46.0025C72.779 46.3178 72.6505 46.633 72.5183 46.9446C72.4633 47.0782 72.4082 47.2117 72.3532 47.3452C72.3164 47.3378 72.2761 47.3304 72.2394 47.3304C72.0521 47.3304 71.8869 47.4343 71.7988 47.5863C71.2299 47.2228 70.6572 46.8593 70.0882 46.4921C69.6661 46.2213 69.2439 45.9505 68.8218 45.6835C68.8438 45.6241 68.8585 45.5611 68.8585 45.4943C68.8585 45.2087 68.6309 44.9787 68.3482 44.9787C68.0656 44.9787 67.838 45.2087 67.838 45.4943C67.838 45.5314 67.8416 45.5648 67.849 45.5982C67.0487 45.9283 66.2485 46.2584 65.4519 46.5885C65.3748 46.6219 65.294 46.6516 65.217 46.685C65.1399 46.5032 64.96 46.3734 64.7508 46.3734C64.4681 46.3734 64.2405 46.6034 64.2405 46.889C64.2405 47.0374 64.3029 47.1709 64.402 47.2636C64.2846 47.4009 64.1634 47.5344 64.0459 47.6716C63.4806 48.3208 62.9116 48.9736 62.3463 49.6227C62.2656 49.5671 62.1665 49.5337 62.06 49.5337C61.7773 49.5337 61.5497 49.7637 61.5497 50.0493C61.5497 50.3349 61.7773 50.5649 62.06 50.5649C62.3427 50.5649 62.5702 50.3349 62.5702 50.0493C62.5702 49.938 62.5372 49.8379 62.4785 49.7563C62.963 49.1999 63.4476 48.6472 63.9321 48.0908C64.1414 47.8497 64.3506 47.6086 64.5635 47.3675C64.6223 47.3935 64.6883 47.4046 64.7544 47.4046C65.0371 47.4046 65.2647 47.1746 65.2647 46.889C65.2647 46.8816 65.2647 46.8742 65.2647 46.8667C65.2757 46.863 65.2867 46.8556 65.2977 46.8519C66.1751 46.4921 67.0487 46.1286 67.9261 45.7688C68.0178 45.9097 68.1757 46.0062 68.3556 46.0062C68.5024 46.0062 68.6345 45.9431 68.73 45.8393C69.1118 46.0841 69.4972 46.3289 69.879 46.5737C70.4994 46.9706 71.1234 47.3675 71.7438 47.7644C71.7401 47.7903 71.7364 47.8163 71.7364 47.8423C71.7364 48.1279 71.964 48.3579 72.2467 48.3579C72.5294 48.3579 72.7569 48.1279 72.7569 47.8423C72.7569 47.6642 72.6688 47.5084 72.533 47.4157C72.7166 46.9669 72.9038 46.5181 73.0873 46.0692C73.1204 46.0767 73.1571 46.0804 73.1938 46.0804C73.4764 46.0804 73.704 45.8504 73.704 45.5648C73.704 45.472 73.6783 45.383 73.6343 45.3051C73.7371 45.2161 73.8435 45.1234 73.9463 45.0344C74.3942 44.6449 74.842 44.2554 75.2862 43.8659C75.3816 43.7806 75.4807 43.699 75.5762 43.6137C75.6386 43.6397 75.7047 43.6545 75.7744 43.6545C76.0571 43.6545 76.2847 43.4245 76.2847 43.1389C76.2773 42.8607 76.0497 42.6307 75.7707 42.6307Z" fill="#F6D5D5"/>
</svg>
