<svg width="89" height="65" viewBox="0 0 89 65" fill="none" xmlns="http://www.w3.org/2000/svg">
<path fill-rule="evenodd" clip-rule="evenodd" d="M14.3052 69.9392C6.43822 69.9392 0 63.5295 0 55.6975C0 47.8635 6.43822 41.4558 14.3052 41.4558C17.6317 41.4558 20.3532 38.7463 20.3532 35.4346C20.3532 32.1228 17.6317 29.4134 14.3052 29.4134H13.5859C10.1273 29.4134 7.29744 26.596 7.29744 23.1528C7.29744 19.7096 10.1273 16.8923 13.5859 16.8923H15.7931C17.139 16.8923 18.2406 15.7956 18.2406 14.4556C18.2406 13.1156 17.139 12.0188 15.7931 12.0188H14.1712C13.241 12.0188 12.4823 11.2615 12.4823 10.3375C12.4823 9.41142 13.243 8.65607 14.1712 8.65607H25.0789C26.5392 8.65607 27.7334 7.46714 27.7334 6.01334C27.7334 4.55955 26.5392 3.37061 25.0789 3.37061H21.8174C20.8873 3.37061 20.1286 2.6133 20.1286 1.68923C20.1286 0.763194 20.8892 0.00784775 21.8174 0.00784775H68.2054C69.4173 0.00784775 70.4105 0.996665 70.4105 2.20326C70.4105 3.40985 69.4173 4.39867 68.2054 4.39867H64.8611C62.9555 4.39867 61.3966 5.95056 61.3966 7.84775C61.3966 9.74495 62.9555 11.2968 64.8611 11.2968H79.184C80.396 11.2968 81.3892 12.2857 81.3892 13.4923C81.3892 14.6988 80.398 15.6877 79.184 15.6877H77.0675C75.3097 15.6877 73.873 17.1199 73.873 18.868C73.873 20.618 75.3116 22.0483 77.0675 22.0483H79.9487C84.4615 22.0483 88.1546 25.7249 88.1546 30.2178C88.1546 34.7106 84.4615 38.3873 79.9487 38.3873H79.0086C74.6672 38.3873 71.1161 41.9227 71.1161 46.2449C71.1161 50.567 74.6672 54.1024 79.0086 54.1024H81.0424C85.4193 54.1024 89 57.6673 89 62.0247C89 66.3822 85.4193 69.947 81.0424 69.947C58.3973 69.9392 36.9503 69.9392 14.3052 69.9392ZM73.8454 4.39082C75.0633 4.39082 76.0506 3.40789 76.0506 2.19541C76.0506 0.982931 75.0633 0 73.8454 0C72.6276 0 71.6403 0.982931 71.6403 2.19541C71.6403 3.40789 72.6276 4.39082 73.8454 4.39082ZM9.42972 12.0149C10.3638 12.0149 11.1186 11.2615 11.1186 10.3335C11.1186 9.40357 10.3619 8.65215 9.42972 8.65215C8.49562 8.65215 7.74084 9.40553 7.74084 10.3335C7.73887 11.2615 8.49562 12.0149 9.42972 12.0149Z" fill="#CDE5FB"/>
<path fill-rule="evenodd" clip-rule="evenodd" d="M44.8094 13.8238H18.1579C18.2111 14.0239 18.2406 14.2358 18.2406 14.4536C18.2406 15.7936 17.139 16.8903 15.7931 16.8903H13.5859C10.1273 16.8903 7.29744 19.7077 7.29744 23.1509C7.29744 23.1685 7.29744 23.1882 7.29744 23.2058H44.8094C47.4008 23.2058 49.5213 21.0948 49.5213 18.5148C49.5213 15.9349 47.4008 13.8238 44.8094 13.8238Z" fill="#DCE9F7"/>
<path fill-rule="evenodd" clip-rule="evenodd" d="M7.87485 20.5376H49.5213V69.9392H14.3052C6.43822 69.9392 0 63.5295 0 55.6975C0 47.8634 6.43822 41.4558 14.3052 41.4558C17.6317 41.4558 20.3532 38.7463 20.3532 35.4346C20.3532 32.1228 17.6317 29.4134 14.3052 29.4134H13.5859C10.1273 29.4134 7.29744 26.596 7.29744 23.1528C7.29744 22.2189 7.50436 21.3341 7.87485 20.5376Z" fill="#CDE0F3"/>
<path fill-rule="evenodd" clip-rule="evenodd" d="M7.45509 24.5399H46.1298C47.2373 24.5399 48.1438 25.6092 48.1438 26.9178V69.9392H14.3052C6.43822 69.9392 0 63.5295 0 55.6975C0 47.8635 6.43822 41.4558 14.3052 41.4558C17.6317 41.4558 20.3532 38.7463 20.3532 35.4346C20.3532 32.1228 17.6317 29.4134 14.3052 29.4134H13.5859C10.6062 29.4114 8.0936 27.32 7.45509 24.5399Z" fill="#C1DBF2"/>
<path fill-rule="evenodd" clip-rule="evenodd" d="M20.0143 33.451H48.1418V37.4985H19.9847C20.2231 36.8531 20.3532 36.1585 20.3532 35.4346C20.3532 34.74 20.235 34.073 20.0143 33.451Z" fill="#CDE0F3"/>
<path fill-rule="evenodd" clip-rule="evenodd" d="M50.1164 31.7285H19.0664C19.8724 32.7526 20.3552 34.0396 20.3552 35.4326C20.3552 35.5484 20.3512 35.6622 20.3453 35.776H50.1184C50.8495 35.776 51.4447 35.1815 51.4447 34.4556V33.0508C51.4427 32.323 50.8476 31.7285 50.1164 31.7285Z" fill="#DCE9F7"/>
<path fill-rule="evenodd" clip-rule="evenodd" d="M0.559674 51.7618H48.1438V55.8093H0.00197068C0.00197068 55.772 0 55.7348 0 55.6975C0 54.3339 0.195098 53.0136 0.559674 51.7618Z" fill="#CDE0F3"/>
<path fill-rule="evenodd" clip-rule="evenodd" d="M50.1165 50.0412H1.18438C0.630618 51.3067 0.256188 52.6663 0.0926208 54.0887H50.1165C50.8476 54.0887 51.4427 53.4942 51.4427 52.7683V51.3635C51.4427 50.6357 50.8476 50.0412 50.1165 50.0412Z" fill="#DCE9F7"/>
<path fill-rule="evenodd" clip-rule="evenodd" d="M50.1164 18.5148H9.37058C8.23744 19.539 7.47675 20.9653 7.32501 22.5623H50.1164C50.8475 22.5623 51.4427 21.9678 51.4427 21.2419V19.8372C51.4427 19.1093 50.8475 18.5148 50.1164 18.5148Z" fill="#DCE9F7"/>
<path fill-rule="evenodd" clip-rule="evenodd" d="M11.0102 17.4985H45.8125C46.7545 17.4985 47.525 16.6353 47.525 15.5817C47.525 15.1736 47.4087 14.793 47.2117 14.4811C48.5734 15.1874 49.5233 16.7334 49.5233 18.5148H9.37061C9.85539 18.1009 10.4072 17.7556 11.0102 17.4985Z" fill="#CDE0F3"/>
<path fill-rule="evenodd" clip-rule="evenodd" d="M46.4825 39.8176H40.667C40.3931 39.8176 40.1704 40.0393 40.1704 40.312V49.5468C40.1704 49.8195 40.3931 50.0412 40.667 50.0412H46.4825C46.7564 50.0412 46.9791 49.8195 46.9791 49.5468V40.312C46.9791 40.0393 46.7564 39.8176 46.4825 39.8176Z" fill="#EAEAE6"/>
<path fill-rule="evenodd" clip-rule="evenodd" d="M39.3861 39.8176H36.432C36.2941 39.8176 36.1798 39.9294 36.1798 40.0687V49.7901C36.1798 49.9274 36.2941 50.0412 36.432 50.0412H39.3861C39.524 50.0412 39.6383 49.9274 39.6383 49.7901V40.0687C39.6383 39.9294 39.524 39.8176 39.3861 39.8176Z" fill="#E7E9E3"/>
<path fill-rule="evenodd" clip-rule="evenodd" d="M36.8971 37.8909H33.4583C33.2967 37.8909 33.1646 38.0224 33.1646 38.1833V49.7489C33.1646 49.9098 33.2967 50.0412 33.4583 50.0412H36.8971C37.0587 50.0412 37.1907 49.9098 37.1907 49.7489V38.1833C37.1907 38.0224 37.0587 37.8909 36.8971 37.8909Z" fill="#B3CEEB"/>
<path fill-rule="evenodd" clip-rule="evenodd" d="M38.1564 45.3071H32.201C32.0098 45.3071 31.8541 45.4621 31.8541 45.6524V49.6959C31.8541 49.8862 32.0098 50.0412 32.201 50.0412H38.1564C38.3475 50.0412 38.5032 49.8862 38.5032 49.6959V45.6524C38.5032 45.4621 38.3475 45.3071 38.1564 45.3071Z" fill="#B8D3EE"/>
<path fill-rule="evenodd" clip-rule="evenodd" d="M30.8392 41.3675H27.8852C27.7472 41.3675 27.6329 41.4813 27.6329 41.6186V49.7901C27.6329 49.9274 27.7472 50.0412 27.8852 50.0412H30.8392C30.9772 50.0412 31.0915 49.9274 31.0915 49.7901V41.6186C31.0915 41.4813 30.9772 41.3675 30.8392 41.3675Z" fill="#B8D3EE"/>
<path fill-rule="evenodd" clip-rule="evenodd" d="M45.3494 42.1091H41.7982C41.6149 42.1091 41.4651 42.2582 41.4651 42.4407V44.3771C41.4651 44.5596 41.6149 44.7087 41.7982 44.7087H45.3494C45.5326 44.7087 45.6824 44.5596 45.6824 44.3771V42.4407C45.6824 42.2582 45.5326 42.1091 45.3494 42.1091Z" fill="#E3E2DC"/>
<path fill-rule="evenodd" clip-rule="evenodd" d="M45.4026 45.3051H41.7469C41.5932 45.3051 41.4651 45.4306 41.4651 45.5837V45.8525C41.4651 46.0055 41.5913 46.133 41.7469 46.133H45.4026C45.5582 46.133 45.6844 46.0075 45.6844 45.8525V45.5837C45.6824 45.4306 45.5563 45.3051 45.4026 45.3051Z" fill="#E3E2DC"/>
<path fill-rule="evenodd" clip-rule="evenodd" d="M45.4026 46.908H41.7469C41.5932 46.908 41.4651 47.0336 41.4651 47.1866V47.4554C41.4651 47.6084 41.5913 47.7359 41.7469 47.7359H45.4026C45.5582 47.7359 45.6844 47.6104 45.6844 47.4554V47.1866C45.6824 47.0336 45.5563 46.908 45.4026 46.908Z" fill="#E3E2DC"/>
<path fill-rule="evenodd" clip-rule="evenodd" d="M29.3612 44.846C28.9592 44.846 28.634 45.2306 28.634 45.7053C28.634 46.1801 28.9592 46.5647 29.3612 46.5647C29.7632 46.5647 30.0884 46.1801 30.0884 45.7053C30.0884 45.2306 29.7632 44.846 29.3612 44.846Z" fill="#B3CEEB"/>
<path fill-rule="evenodd" clip-rule="evenodd" d="M30.9259 30.1687H29.3632C29.2528 30.1687 29.1622 30.2589 29.1622 30.3688V31.5322C29.1622 31.6421 29.2528 31.7304 29.3632 31.7304H30.9259C31.0363 31.7304 31.125 31.6402 31.125 31.5322V30.3688C31.125 30.2589 31.0363 30.1687 30.9259 30.1687Z" fill="#DCE9F7"/>
<path fill-rule="evenodd" clip-rule="evenodd" d="M28.4212 27.6476H24.1291C23.9655 27.6476 23.8295 27.781 23.8295 27.9458V31.4322C23.8295 31.595 23.9635 31.7304 24.1291 31.7304H28.4212C28.5848 31.7304 28.7207 31.597 28.7207 31.4322V27.9458C28.7188 27.781 28.5848 27.6476 28.4212 27.6476Z" fill="#B8D3EE"/>
<path fill-rule="evenodd" clip-rule="evenodd" d="M26.3598 28.9484H23.4373C23.325 28.9484 23.2343 29.0386 23.2343 29.1505V31.5264C23.2343 31.6382 23.325 31.7285 23.4373 31.7285H26.3598C26.4722 31.7285 26.5628 31.6382 26.5628 31.5264V29.1505C26.5628 29.0406 26.4722 28.9484 26.3598 28.9484Z" fill="#B3CEEB"/>
<path fill-rule="evenodd" clip-rule="evenodd" d="M24.3261 25.1442H21.7938C21.6755 25.1442 21.577 25.2403 21.577 25.36V31.5146C21.577 31.6323 21.6736 31.7304 21.7938 31.7304H24.3261C24.4444 31.7304 24.5429 31.6343 24.5429 31.5146V25.36C24.5429 25.2423 24.4444 25.1442 24.3261 25.1442Z" fill="#DCE9F7"/>
<path fill-rule="evenodd" clip-rule="evenodd" d="M40.2 27.1611H40.0364V26.855H40.0916C40.1941 26.855 40.2768 26.7569 40.2768 26.6353C40.2768 26.5137 40.1941 26.4156 40.0916 26.4156H39.8886V25.1207C39.8886 24.999 39.8039 24.9009 39.7034 24.9009C39.6009 24.9009 39.5181 24.999 39.5181 25.1207V26.4156H39.3151C39.2127 26.4156 39.1279 26.5137 39.1279 26.6353C39.1279 26.7569 39.2127 26.855 39.3151 26.855H39.3723V27.1611H39.2067C39.0924 27.1611 38.9998 27.271 38.9998 27.4063V31.4832C38.9998 31.6186 39.0924 31.7285 39.2067 31.7285H40.2019C40.3162 31.7285 40.4108 31.6186 40.4108 31.4832V27.4063C40.4069 27.271 40.3143 27.1611 40.2 27.1611Z" fill="#B3CEEB"/>
<path fill-rule="evenodd" clip-rule="evenodd" d="M41.81 27.6398H41.6622V27.3651H41.7134C41.8041 27.3651 41.881 27.2769 41.881 27.1689C41.881 27.061 41.8061 26.9728 41.7134 26.9728H41.5321V25.8152C41.5321 25.7073 41.4573 25.619 41.3646 25.619C41.272 25.619 41.1971 25.7073 41.1971 25.8152V26.9728H41.0158C40.9232 26.9728 40.8483 27.061 40.8483 27.1689C40.8483 27.2769 40.9232 27.3651 41.0158 27.3651H41.0651V27.6398H40.9173C40.8148 27.6398 40.7301 27.7379 40.7301 27.8596V31.5088C40.7301 31.6304 40.8148 31.7285 40.9173 31.7285H41.808C41.9105 31.7285 41.9933 31.6304 41.9933 31.5088V27.8596C41.9953 27.7399 41.9125 27.6398 41.81 27.6398Z" fill="#B3CEEB"/>
<path fill-rule="evenodd" clip-rule="evenodd" d="M44.5631 27.4122H42.1076C41.9913 27.4122 41.8967 27.5064 41.8967 27.6222V31.5225C41.8967 31.6382 41.9913 31.7305 42.1076 31.7305H44.5631C44.6793 31.7305 44.772 31.6363 44.772 31.5225V27.6222C44.772 27.5064 44.6793 27.4122 44.5631 27.4122Z" fill="#DCE9F7"/>
<path fill-rule="evenodd" clip-rule="evenodd" d="M44.0842 28.3795H42.5845C42.5076 28.3795 42.4426 28.4422 42.4426 28.5188V29.3369C42.4426 29.4134 42.5056 29.4781 42.5845 29.4781H44.0842C44.161 29.4781 44.2261 29.4154 44.2261 29.3369V28.5188C44.2261 28.4422 44.163 28.3795 44.0842 28.3795Z" fill="#F5F6F5"/>
<path fill-rule="evenodd" clip-rule="evenodd" d="M44.1078 29.7293H42.5648C42.4997 29.7293 42.4465 29.7823 42.4465 29.847V29.9608C42.4465 30.0255 42.4997 30.0785 42.5648 30.0785H44.1078C44.1729 30.0785 44.2261 30.0255 44.2261 29.9608V29.847C44.2261 29.7823 44.1729 29.7293 44.1078 29.7293Z" fill="#F5F6F5"/>
<path fill-rule="evenodd" clip-rule="evenodd" d="M44.1078 30.4061H42.5648C42.4997 30.4061 42.4465 30.4591 42.4465 30.5238V30.6376C42.4465 30.7024 42.4997 30.7554 42.5648 30.7554H44.1078C44.1729 30.7554 44.2261 30.7024 44.2261 30.6376V30.5238C44.2261 30.4591 44.1729 30.4061 44.1078 30.4061Z" fill="#F5F6F5"/>
<path fill-rule="evenodd" clip-rule="evenodd" d="M41.5262 29.076H40.0167C39.9457 29.076 39.8886 29.1329 39.8886 29.2035V31.599C39.8886 31.6696 39.9457 31.7265 40.0167 31.7265H41.5262C41.5972 31.7265 41.6543 31.6696 41.6543 31.599V29.2035C41.6543 29.1348 41.5972 29.076 41.5262 29.076Z" fill="#B8D3EE"/>
<path fill-rule="evenodd" clip-rule="evenodd" d="M38.3239 25.2443H33.206C32.9656 25.2443 32.7685 25.4405 32.7685 25.6798V31.2949C32.7685 31.5343 32.9656 31.7305 33.206 31.7305H38.3239C38.5643 31.7305 38.7614 31.5343 38.7614 31.2949V25.6798C38.7594 25.4405 38.5623 25.2443 38.3239 25.2443Z" fill="#B8D3EE"/>
<path fill-rule="evenodd" clip-rule="evenodd" d="M39.3013 29.076H37.7918C37.7208 29.076 37.6637 29.1329 37.6637 29.2035V31.599C37.6637 31.6696 37.7208 31.7265 37.7918 31.7265H39.3013C39.3723 31.7265 39.4294 31.6696 39.4294 31.599V29.2035C39.4294 29.1348 39.3723 29.076 39.3013 29.076Z" fill="#DCE9F7"/>
<path fill-rule="evenodd" clip-rule="evenodd" d="M15.4423 27.6476H19.7344C19.898 27.6476 20.034 27.7811 20.034 27.9459V31.4322C20.034 31.5951 19.9 31.7304 19.7344 31.7304H19.0664C18.1204 30.5297 16.7272 29.692 15.1447 29.4703V27.9439C15.1427 27.7811 15.2767 27.6476 15.4423 27.6476Z" fill="#B3CEEB"/>
<path fill-rule="evenodd" clip-rule="evenodd" d="M17.5036 28.9484H20.4261C20.5385 28.9484 20.6291 29.0387 20.6291 29.1505V31.5264C20.6291 31.6382 20.5385 31.7285 20.4261 31.7285H19.0664C18.5835 31.1144 17.9825 30.5965 17.3006 30.206V29.1505C17.2987 29.0406 17.3913 28.9484 17.5036 28.9484Z" fill="#B8D3EE"/>
<path fill-rule="evenodd" clip-rule="evenodd" d="M16.7055 29.7724H17.677C17.7224 29.7724 17.7598 29.8097 17.7598 29.8548V30.4983C17.407 30.2511 17.0247 30.0412 16.6227 29.8745V29.8568C16.6227 29.8097 16.6602 29.7724 16.7055 29.7724Z" fill="#F0F1EE"/>
<path fill-rule="evenodd" clip-rule="evenodd" d="M10.3835 26.0545H8.01871C8.61188 27.1728 9.53614 28.095 10.6575 28.6855V26.3292C10.6594 26.1781 10.5353 26.0545 10.3835 26.0545Z" fill="#EAEAE6"/>
<path fill-rule="evenodd" clip-rule="evenodd" d="M9.75489 27.3259H8.91144C9.21886 27.6672 9.5657 27.9753 9.94014 28.2441V27.5103C9.94014 27.4102 9.85737 27.3259 9.75489 27.3259Z" fill="#E3E2DC"/>
<path fill-rule="evenodd" clip-rule="evenodd" d="M12.2872 42.8488H12.0271V42.3661H12.1158C12.2774 42.3661 12.4094 42.2111 12.4094 42.0189C12.4094 41.8285 12.2774 41.6736 12.1158 41.6736H11.8143C11.4044 41.7461 11.0004 41.8364 10.6023 41.9443C10.5983 41.9698 10.5944 41.9953 10.5944 42.0208C10.5944 42.2111 10.7264 42.3681 10.888 42.3681H10.9767V42.8507H10.7166C10.5373 42.8507 10.3895 43.0253 10.3895 43.2372V49.6547C10.3895 49.8666 10.5373 50.0412 10.7166 50.0412H12.2852C12.4646 50.0412 12.6124 49.8666 12.6124 49.6547V43.2372C12.6143 43.0234 12.4665 42.8488 12.2872 42.8488Z" fill="#B3CEEB"/>
<path fill-rule="evenodd" clip-rule="evenodd" d="M14.8215 43.6041H14.589V43.1725H14.6678C14.8117 43.1725 14.9299 43.0332 14.9299 42.8625C14.9299 42.6918 14.8117 42.5525 14.6678 42.5525H14.3801V41.4558C14.3545 41.4558 14.3288 41.4558 14.3032 41.4558C14.1534 41.4558 14.0056 41.4597 13.8559 41.4636V42.5525H13.5681C13.4243 42.5525 13.306 42.6918 13.306 42.8625C13.306 43.0332 13.4243 43.1725 13.5681 43.1725H13.647V43.6041H13.4144C13.2528 43.6041 13.1208 43.7591 13.1208 43.9494V49.694C13.1208 49.8843 13.2528 50.0393 13.4144 50.0393H14.8176C14.9792 50.0393 15.1112 49.8843 15.1112 49.694V43.9494C15.1151 43.7591 14.9831 43.6041 14.8215 43.6041Z" fill="#DEDED7"/>
<path fill-rule="evenodd" clip-rule="evenodd" d="M19.157 43.2451H15.2905C15.1092 43.2451 14.9614 43.3922 14.9614 43.5727V49.7116C14.9614 49.8921 15.1092 50.0392 15.2905 50.0392H19.157C19.3383 50.0392 19.4881 49.8921 19.4881 49.7116V43.5727C19.4881 43.3922 19.3383 43.2451 19.157 43.2451Z" fill="#F9F9FA"/>
<path fill-rule="evenodd" clip-rule="evenodd" d="M18.4042 44.7675H16.0433C15.9212 44.7675 15.8226 44.8676 15.8226 44.9892V46.2763C15.8226 46.3979 15.9231 46.498 16.0433 46.498H18.4042C18.5264 46.498 18.6249 46.3979 18.6249 46.2763V44.9892C18.6249 44.8656 18.5264 44.7675 18.4042 44.7675Z" fill="#F5F6F5"/>
<path fill-rule="evenodd" clip-rule="evenodd" d="M18.4397 46.8923H16.0078C15.9054 46.8923 15.8206 46.9767 15.8206 47.0787V47.2572C15.8206 47.3592 15.9034 47.4436 16.0078 47.4436H18.4377C18.5402 47.4436 18.6249 47.3592 18.6249 47.2572V47.0787C18.6249 46.9767 18.5422 46.8923 18.4397 46.8923Z" fill="#F5F6F5"/>
<path fill-rule="evenodd" clip-rule="evenodd" d="M18.4397 47.9576H16.0078C15.9054 47.9576 15.8206 48.04 15.8206 48.144V48.3226C15.8206 48.4246 15.9034 48.5089 16.0078 48.5089H18.4377C18.5402 48.5089 18.6249 48.4246 18.6249 48.3226V48.144C18.6249 48.042 18.5422 47.9576 18.4397 47.9576Z" fill="#F5F6F5"/>
<path fill-rule="evenodd" clip-rule="evenodd" d="M14.3761 45.8643H12.0015C11.8891 45.8643 11.7985 45.9545 11.7985 46.0663V49.8391C11.7985 49.951 11.8891 50.0412 12.0015 50.0412H14.3781C14.4904 50.0412 14.5811 49.951 14.5811 49.8391V46.0663C14.5791 45.9565 14.4885 45.8643 14.3761 45.8643Z" fill="#EAEAE6"/>
<path fill-rule="evenodd" clip-rule="evenodd" d="M1.18832 50.0353C1.21788 50.0393 1.24744 50.0412 1.277 50.0412H9.33513C9.7135 50.0412 10.0229 49.7332 10.0229 49.3565V42.113C6.06182 43.3589 2.83384 46.2822 1.18832 50.0353Z" fill="#C1DBF2"/>
<path fill-rule="evenodd" clip-rule="evenodd" d="M10.8723 45.8643H8.49561C8.38328 45.8643 8.29263 45.9545 8.29263 46.0663V49.8391C8.29263 49.951 8.38328 50.0412 8.49561 50.0412H10.8723C10.9846 50.0412 11.0752 49.951 11.0752 49.8391V46.0663C11.0752 45.9565 10.9846 45.8643 10.8723 45.8643Z" fill="#C1DBF2"/>
<path fill-rule="evenodd" clip-rule="evenodd" d="M24.4956 62.4328H30.717C30.9555 62.4328 31.1506 62.627 31.1506 62.8644V67.9204C31.1506 68.1578 30.9555 68.352 30.717 68.352H24.4956C24.2571 68.352 24.062 68.1578 24.062 67.9204V62.8644C24.062 62.627 24.2571 62.4328 24.4956 62.4328Z" fill="#EAEAE6"/>
<path fill-rule="evenodd" clip-rule="evenodd" d="M27.4832 64.3202H31.7221C31.8837 64.3202 32.0177 64.4516 32.0177 64.6145V68.0577C32.0177 68.2186 31.8857 68.352 31.7221 68.352H27.4832C27.3216 68.352 27.1876 68.2205 27.1876 68.0577V64.6145C27.1895 64.4536 27.3216 64.3202 27.4832 64.3202Z" fill="#E1E1D9"/>
<path fill-rule="evenodd" clip-rule="evenodd" d="M30.4333 58.8071H34.1046C34.2761 58.8071 34.418 58.9484 34.418 59.1191V68.04C34.418 68.2127 34.2761 68.352 34.1046 68.352H30.4333C30.2598 68.352 30.1199 68.2127 30.1199 68.04V59.1191C30.1199 58.9464 30.2598 58.8071 30.4333 58.8071Z" fill="#B8D3EE"/>
<path fill-rule="evenodd" clip-rule="evenodd" d="M7.41962 61.7285H7.65807V61.2831H7.57727C7.42947 61.2831 7.30729 61.1399 7.30729 60.9653C7.30729 60.7907 7.42947 60.6455 7.57727 60.6455H7.87288V58.7699C7.87288 58.5953 7.99506 58.4501 8.14286 58.4501C8.29066 58.4501 8.41284 58.5933 8.41284 58.7699V60.6455H8.70844C8.85625 60.6455 8.97843 60.7887 8.97843 60.9653C8.97843 61.1399 8.85625 61.2831 8.70844 61.2831H8.62765V61.7285H8.8661C9.03164 61.7285 9.16761 61.8893 9.16761 62.0836V67.9949C9.16761 68.1911 9.03164 68.352 8.8661 68.352H7.76646C7.54771 68.2401 7.33291 68.1205 7.12205 67.9969V67.9949V62.0836C7.11811 61.8893 7.25408 61.7285 7.41962 61.7285Z" fill="#DEDED7"/>
<path fill-rule="evenodd" clip-rule="evenodd" d="M5.08438 62.423H5.29721V62.0247H5.22429C5.09226 62.0247 4.9819 61.8952 4.9819 61.7383C4.9819 61.5813 5.09029 61.4518 5.22429 61.4518H5.48837V59.7724C5.48837 59.6155 5.59675 59.4879 5.73076 59.4879C5.8628 59.4879 5.97315 59.6155 5.97315 59.7724V61.4518H6.23723C6.36926 61.4518 6.47962 61.5794 6.47962 61.7383C6.47962 61.8952 6.37123 62.0247 6.23723 62.0247H6.16431V62.423H6.37714C6.52495 62.423 6.64713 62.5662 6.64713 62.7408V67.7085C5.99877 67.2965 5.38786 66.8334 4.81439 66.3273V62.7428C4.81439 62.5662 4.93657 62.423 5.08438 62.423Z" fill="#DEDED7"/>
<path fill-rule="evenodd" clip-rule="evenodd" d="M1.5332 62.0934H4.6528C4.8203 62.0934 4.95628 62.2288 4.95628 62.3955V66.4567C3.55118 65.2423 2.38257 63.7591 1.5332 62.0934Z" fill="#F9F9FA"/>
<path fill-rule="evenodd" clip-rule="evenodd" d="M2.35104 63.4942H3.95912C4.07145 63.4942 4.16407 63.5864 4.16407 63.6983V64.8833C4.16407 64.9951 4.07145 65.0873 3.95912 65.0873H3.57287C3.12946 64.587 2.72153 64.0534 2.35104 63.4942Z" fill="#F5F6F5"/>
<path fill-rule="evenodd" clip-rule="evenodd" d="M5.49428 64.5066H7.68174C7.78422 64.5066 7.86896 64.5909 7.86896 64.6929V68.1675C7.86896 68.248 7.81575 68.3186 7.74283 68.3421C6.87573 67.8929 6.05987 67.3573 5.30707 66.7491V64.6929C5.30904 64.589 5.39181 64.5066 5.49428 64.5066Z" fill="#EAEAE6"/>
<path fill-rule="evenodd" clip-rule="evenodd" d="M10.1392 58.9484H17.5588C17.9076 58.9484 18.1914 59.2329 18.1914 59.5782V67.7202C18.1914 68.0675 17.9056 68.35 17.5588 68.35H10.1392C9.79035 68.35 9.50658 68.0655 9.50658 67.7202V59.5782C9.50658 59.2329 9.79035 58.9484 10.1392 58.9484Z" fill="#EAEAE6"/>
<path fill-rule="evenodd" clip-rule="evenodd" d="M8.72226 64.5066H10.9097C11.0122 64.5066 11.0969 64.5909 11.0969 64.6929V68.1675C11.0969 68.2696 11.0122 68.3539 10.9097 68.3539H8.72226C8.61979 68.3539 8.53505 68.2696 8.53505 68.1675V64.6929C8.53505 64.589 8.61979 64.5066 8.72226 64.5066Z" fill="#F9F9FA"/>
<path fill-rule="evenodd" clip-rule="evenodd" d="M43.3117 62.4328H37.0902C36.8518 62.4328 36.6567 62.627 36.6567 62.8644V67.9204C36.6567 68.1578 36.8518 68.352 37.0902 68.352H43.3117C43.5501 68.352 43.7452 68.1578 43.7452 67.9204V62.8644C43.7452 62.627 43.5501 62.4328 43.3117 62.4328Z" fill="#EAEAE6"/>
<path fill-rule="evenodd" clip-rule="evenodd" d="M40.3241 64.3202H36.0872C35.9256 64.3202 35.7915 64.4516 35.7915 64.6145V68.0577C35.7915 68.2186 35.9236 68.352 36.0872 68.352H40.3241C40.4877 68.352 40.6197 68.2205 40.6197 68.0577V64.6145C40.6197 64.4536 40.4877 64.3202 40.3241 64.3202Z" fill="#E1E1D9"/>
<path fill-rule="evenodd" clip-rule="evenodd" d="M15.8778 42.1346L17.5647 41.9816C17.6751 41.9718 17.7657 42.0542 17.7657 42.164V42.7055C17.7657 42.8154 17.6751 42.9135 17.5647 42.9253L15.8778 43.0763C15.7674 43.0861 15.6788 43.0037 15.6788 42.8939V42.3524C15.6768 42.2445 15.7674 42.1444 15.8778 42.1346Z" fill="white"/>
<path fill-rule="evenodd" clip-rule="evenodd" d="M21.4883 10.9967C21.4883 10.9162 21.4233 10.8515 21.3425 10.8515C21.2617 10.8515 21.1967 10.9162 21.1967 10.9967V11.3361H20.8557C20.7749 11.3361 20.7099 11.4008 20.7099 11.4813C20.7099 11.5617 20.7749 11.6264 20.8557 11.6264H21.1967V11.9659C21.1967 12.0463 21.2617 12.111 21.3425 12.111C21.4233 12.111 21.4883 12.0463 21.4883 11.9659V11.6264H21.8292C21.91 11.6264 21.9751 11.5617 21.9751 11.4813C21.9751 11.4008 21.91 11.3361 21.8292 11.3361H21.4883V10.9967Z" fill="white"/>
<path fill-rule="evenodd" clip-rule="evenodd" d="M60.027 27.7241C60.027 27.6437 59.962 27.5789 59.8812 27.5789C59.8004 27.5789 59.7354 27.6437 59.7354 27.7241V28.0635H59.3944C59.3136 28.0635 59.2486 28.1283 59.2486 28.2087C59.2486 28.2892 59.3136 28.3539 59.3944 28.3539H59.7354V28.6933C59.7354 28.7738 59.8004 28.8385 59.8812 28.8385C59.962 28.8385 60.027 28.7738 60.027 28.6933V28.3539H60.3679C60.4487 28.3539 60.5138 28.2892 60.5138 28.2087C60.5138 28.1283 60.4487 28.0635 60.3679 28.0635H60.027V27.7241Z" fill="white"/>
<path fill-rule="evenodd" clip-rule="evenodd" d="M55.8787 2.63292C55.8787 2.55248 55.8137 2.48773 55.7329 2.48773C55.6521 2.48773 55.5871 2.55248 55.5871 2.63292V2.97233H55.2461C55.1653 2.97233 55.1003 3.03707 55.1003 3.11751C55.1003 3.19795 55.1653 3.2627 55.2461 3.2627H55.5871V3.60211C55.5871 3.68255 55.6521 3.7473 55.7329 3.7473C55.8137 3.7473 55.8787 3.68255 55.8787 3.60211V3.2627H56.2197C56.3005 3.2627 56.3655 3.19795 56.3655 3.11751C56.3655 3.03707 56.3005 2.97233 56.2197 2.97233H55.8787V2.63292Z" fill="white"/>
<path fill-rule="evenodd" clip-rule="evenodd" d="M36.5246 5.49147C36.5246 5.41103 36.4596 5.34628 36.3788 5.34628C36.298 5.34628 36.233 5.41103 36.233 5.49147V5.83088H35.892C35.8112 5.83088 35.7462 5.89563 35.7462 5.97607C35.7462 6.0565 35.8112 6.12125 35.892 6.12125H36.233V6.46066C36.233 6.5411 36.298 6.60585 36.3788 6.60585C36.4596 6.60585 36.5246 6.5411 36.5246 6.46066V6.12125H36.8656C36.9464 6.12125 37.0114 6.0565 37.0114 5.97607C37.0114 5.89563 36.9464 5.83088 36.8656 5.83088H36.5246V5.49147Z" fill="white"/>
<path fill-rule="evenodd" clip-rule="evenodd" d="M81.2946 29.7371C81.2946 29.6567 81.2296 29.5919 81.1488 29.5919C81.068 29.5919 81.003 29.6567 81.003 29.7371V30.0765H80.662C80.5812 30.0765 80.5162 30.1413 80.5162 30.2217C80.5162 30.3021 80.5812 30.3669 80.662 30.3669H81.003V30.7063C81.003 30.7867 81.068 30.8515 81.1488 30.8515C81.2296 30.8515 81.2946 30.7867 81.2946 30.7063V30.3669H81.6355C81.7163 30.3669 81.7814 30.3021 81.7814 30.2217C81.7814 30.1413 81.7163 30.0765 81.6355 30.0765H81.2946V29.7371Z" fill="white"/>
<path fill-rule="evenodd" clip-rule="evenodd" d="M27.4851 36.8688C27.4851 36.7883 27.4201 36.7236 27.3393 36.7236C27.2585 36.7236 27.1935 36.7883 27.1935 36.8688V37.2082H26.8525C26.7717 37.2082 26.7067 37.2729 26.7067 37.3534C26.7067 37.4338 26.7717 37.4985 26.8525 37.4985H27.1954V37.838C27.1954 37.9184 27.2605 37.9832 27.3413 37.9832C27.4221 37.9832 27.4871 37.9184 27.4871 37.838V37.4985H27.828C27.9088 37.4985 27.9739 37.4338 27.9739 37.3534C27.9739 37.2729 27.9088 37.2082 27.828 37.2082H27.4871V36.8688H27.4851Z" fill="white"/>
<path fill-rule="evenodd" clip-rule="evenodd" d="M42.2672 9.38002C42.2672 9.29958 42.2022 9.23483 42.1214 9.23483C42.0406 9.23483 41.9756 9.29958 41.9756 9.38002V9.71943H41.6346C41.5538 9.71943 41.4888 9.78418 41.4888 9.86461C41.4888 9.94505 41.5538 10.0098 41.6346 10.0098H41.9756V10.3492C41.9756 10.4297 42.0406 10.4944 42.1214 10.4944C42.2022 10.4944 42.2672 10.4297 42.2672 10.3492V10.0098H42.6082C42.6889 10.0098 42.754 9.94505 42.754 9.86461C42.754 9.78418 42.6889 9.71943 42.6082 9.71943H42.2672V9.38002Z" fill="#719FD4"/>
<path fill-rule="evenodd" clip-rule="evenodd" d="M56.5172 23.9906C56.5172 23.9101 56.4522 23.8454 56.3714 23.8454C56.2906 23.8454 56.2256 23.9101 56.2256 23.9906V24.33H55.8846C55.8038 24.33 55.7388 24.3947 55.7388 24.4752C55.7388 24.5556 55.8038 24.6204 55.8846 24.6204H56.2256V24.9598C56.2256 25.0402 56.2906 25.105 56.3714 25.105C56.4522 25.105 56.5172 25.0402 56.5172 24.9598V24.6204H56.8581C56.9389 24.6204 57.004 24.5556 57.004 24.4752C57.004 24.3947 56.9389 24.33 56.8581 24.33H56.5172V23.9906Z" fill="#719FD4"/>
<path fill-rule="evenodd" clip-rule="evenodd" d="M27.2723 27.3063C27.2723 27.2258 27.2073 27.1611 27.1265 27.1611C27.0457 27.1611 26.9806 27.2258 26.9806 27.3063V27.6457H26.6397C26.5589 27.6457 26.4939 27.7104 26.4939 27.7909C26.4939 27.8713 26.5589 27.936 26.6397 27.936H26.9806V28.2755C26.9806 28.3559 27.0457 28.4206 27.1265 28.4206C27.2073 28.4206 27.2723 28.3559 27.2723 28.2755V27.936H27.6132C27.694 27.936 27.759 27.8713 27.759 27.7909C27.759 27.7104 27.694 27.6457 27.6132 27.6457H27.2723V27.3063Z" fill="#719FD4"/>
<path fill-rule="evenodd" clip-rule="evenodd" d="M32.9952 46.647C32.9952 46.5666 32.9301 46.5019 32.8493 46.5019C32.7685 46.5019 32.7035 46.5666 32.7035 46.647V46.9865H32.3626C32.2818 46.9865 32.2167 47.0512 32.2167 47.1316C32.2167 47.2121 32.2818 47.2768 32.3626 47.2768H32.7035V47.6162C32.7035 47.6967 32.7685 47.7614 32.8493 47.7614C32.9301 47.7614 32.9952 47.6967 32.9952 47.6162V47.2768H33.3361C33.4169 47.2768 33.4819 47.2121 33.4819 47.1316C33.4819 47.0512 33.4169 46.9865 33.3361 46.9865H32.9952V46.647Z" fill="#719FD4"/>
<path d="M13.9071 42.7742H12.9592V66.6804H13.9071V42.7742Z" fill="#164A6F"/>
<path d="M69.1454 42.7742H68.2645V66.6804H69.1454V42.7742Z" fill="#164A6F"/>
<path d="M68.2645 59.4153H13.9091V60.9123H68.2645V59.4153Z" fill="#2775A1"/>
<path d="M75.4417 44.5909H7.68173C7.00185 44.5909 6.45006 44.0416 6.45006 43.3647V42.1856C6.45006 41.5087 7.00185 40.9594 7.68173 40.9594H75.4417C76.1216 40.9594 76.6734 41.5087 76.6734 42.1856V43.3647C76.6734 44.0416 76.1216 44.5909 75.4417 44.5909Z" fill="#1D6294"/>
<path d="M75.1855 40.9908H61.9169C61.9169 39.4507 63.1703 38.2029 64.7173 38.2029H75.1855V40.9908Z" fill="#32A4EA"/>
<path d="M13.6431 38.8856C13.6431 38.8856 10.0052 38.8856 8.96465 38.8856C7.92413 38.8856 8.66511 40.6671 9.54206 40.9103C10.421 41.1536 11.7138 40.9103 13.377 40.9103C15.0403 40.9103 13.6431 38.8856 13.6431 38.8856Z" fill="#FC7575"/>
<path d="M40.9173 31.2713L43.0594 41.2792C45.6706 41.2792 48.1596 41.2792 50.3904 41.2772L52.499 31.5558C48.5557 27.9517 41.7805 28.1322 40.9173 31.2713Z" fill="#FC7575"/>
<path d="M62.7348 34.3849C59.7472 31.4106 53.4844 32.1993 52.097 30.4964L50.3864 41.2753C55.1456 41.2694 58.7284 41.2537 59.8043 41.2243C64.063 41.1046 64.8611 38.9876 64.8611 38.9876C64.8611 38.9876 65.3361 36.9747 62.7348 34.3849Z" fill="#9DE5F4"/>
<path d="M64.3113 36.4626C65.9943 36.8609 68.9759 36.5274 68.9759 36.5274L69.7011 38.5815C69.7011 38.5815 64.7113 39.1721 64.7113 39.0897C63.6078 38.3991 63.4895 36.3685 64.3113 36.4626Z" fill="#FC7575"/>
<path d="M73.1281 34.0828C73.1281 34.0828 71.1456 35.6425 70.9013 36.2821C70.6569 36.9237 70.2746 38.3559 70.2746 38.3559C70.2746 38.3559 67.3777 38.8483 66.7234 38.9209C66.7234 38.9209 67.2023 41.4911 71.6363 40.4277C73.3272 40.0216 74.3992 39.847 75.1284 38.1519C75.8556 36.4528 74.7539 34.64 73.1281 34.0828Z" fill="#18287D"/>
<path d="M73.676 35.3561C73.676 35.3561 73.2976 34.2496 72.4365 34.1436C71.5753 34.0377 71.1437 34.2437 70.7279 34.1927C70.3121 34.1417 69.5356 34.1907 68.3414 34.6832C67.1471 35.1756 67.8231 36.8511 68.6784 37.8125C69.642 38.8935 69.9356 38.9935 71.4905 38.9916C73.0454 38.9857 74.3303 37.1238 73.676 35.3561Z" fill="#FC7575"/>
<path d="M69.6321 35.307C69.7642 35.3267 69.6085 35.1462 70.0322 34.844C70.2194 34.9617 70.4519 35.0284 70.6589 35.0402C70.2411 34.9343 70.0755 34.7145 70.0381 34.6871C70.0263 34.6988 69.6262 34.9323 69.5789 35.2364C69.573 35.2698 69.5967 35.3012 69.6321 35.307Z" fill="#2846A6"/>
<path d="M70.6037 36.0114C70.5406 35.9309 70.5544 35.8172 70.6352 35.7544C70.716 35.6916 70.8323 35.7073 70.8954 35.7858C70.9584 35.8662 70.9446 35.98 70.8638 36.0428C70.783 36.1056 70.6668 36.0918 70.6037 36.0114Z" fill="#2846A6"/>
<path d="M70.6549 34.4968C70.5919 34.4163 70.6057 34.3025 70.6865 34.2398C70.7673 34.177 70.8835 34.1927 70.9466 34.2711C71.0097 34.3516 70.9959 34.4654 70.9151 34.5282C70.8343 34.5909 70.718 34.5772 70.6549 34.4968Z" fill="#2846A6"/>
<path d="M71.057 35.3561C71.0767 35.5641 71.055 35.772 70.9919 35.9761C70.9564 36.0801 70.9131 36.1703 70.8658 36.2606C70.8185 36.3508 70.7692 36.4411 70.7062 36.5274C70.7081 36.4195 70.7318 36.3175 70.7633 36.2194C70.7929 36.1193 70.8422 36.0251 70.8757 35.9368C70.9446 35.7505 70.9939 35.5543 71.057 35.3561Z" fill="#0F1D5B"/>
<path d="M71.0865 33.9828C71.0924 34.1358 71.0648 34.2927 71.0077 34.4458C70.9762 34.5243 70.9387 34.5929 70.8973 34.6616C70.8559 34.7303 70.8146 34.7989 70.7614 34.8676C70.7673 34.7872 70.7909 34.7106 70.8185 34.6361C70.8461 34.5615 70.8894 34.4889 70.919 34.4222C70.9821 34.281 71.0294 34.1319 71.0865 33.9828Z" fill="#0F1D5B"/>
<path d="M71.6147 35.36L71.3861 35.4464C71.3861 35.4464 71.4196 35.9977 71.1929 36.239C71.1949 36.237 71.7526 35.8231 71.6147 35.36Z" fill="#0F1D5B"/>
<path d="M71.6954 34.1319L71.4826 34.1691C71.4826 34.1691 71.5161 34.7204 71.2895 34.9618C71.2875 34.9598 71.8334 34.5949 71.6954 34.1319Z" fill="#0F1D5B"/>
<path d="M69.0291 34.8558C69.0291 34.8558 69.0941 35.4836 69.2991 36.0114C69.2991 36.0114 68.5148 35.5307 68.5522 35.2345C68.5896 34.9382 69.0291 34.8558 69.0291 34.8558Z" fill="white"/>
<path d="M74.482 34.3006C74.482 34.3006 74.3381 33.4236 73.4829 33.5295C72.6256 33.6374 71.589 35.7406 71.7605 37.1827C71.8255 37.7242 71.5004 37.7124 71.2895 37.9184C70.9367 38.2617 70.5032 38.556 69.8332 38.2284C68.7631 37.7065 69.3306 37.2513 69.3306 37.2513C69.3306 37.2513 68.6764 37.6575 69.0193 38.9249C69.3602 40.1942 71.2442 40.4061 72.3537 39.4997C73.4612 38.5933 73.9874 37.6398 74.2633 36.8629C74.8604 35.1815 74.482 34.3006 74.482 34.3006Z" fill="#2846A6"/>
<path d="M71.5319 38.3991C71.5319 38.2519 71.1003 37.6065 70.6352 37.7654C70.1702 37.9243 70.1347 38.0871 70.3416 38.5031C70.5505 38.9151 71.5319 38.7718 71.5319 38.3991Z" fill="#FC7575"/>
<path d="M70.9308 37.9596C70.9308 37.9596 71.319 38.2814 71.12 38.4344C70.9229 38.5855 70.5879 38.5246 70.4835 38.303C70.379 38.0793 70.7002 37.7418 70.9308 37.9596Z" fill="#FD5E5A"/>
<path d="M70.0026 36.9924C69.7918 36.9924 69.6223 36.7255 69.6223 36.3959C69.6223 36.0663 69.7918 35.7995 70.0026 35.7995C70.2135 35.7995 70.383 36.0663 70.383 36.3959C70.383 36.7255 70.2115 36.9924 70.0026 36.9924Z" fill="#FD5E5A"/>
<path d="M69.8923 34.6361C70.0716 34.6361 70.2214 34.4438 70.2608 34.1829C70.0598 34.1946 69.8233 34.228 69.5454 34.2908C69.6065 34.4928 69.7386 34.6361 69.8923 34.6361Z" fill="#FD5E5A"/>
<path d="M50.8535 38.6031L50.5007 38.6267C46.6934 38.6698 41.881 32.1326 39.8669 29.1211C31.9054 29.8509 22.3771 32.3288 17.6337 33.6688C14.9831 34.4183 12.8252 36.3704 11.897 38.9523C11.6231 39.7155 11.4714 40.4964 11.5522 41.2262L12.3365 47.6163L52.497 49.1642L54.8244 41.2674L50.8535 38.6031Z" fill="#7FCDEE"/>
<path d="M13.1563 42.8232C13.0735 42.0954 13.2272 41.3126 13.5012 40.5494C14.4294 37.9674 16.5873 36.0134 19.2378 35.2659C23.9813 33.9259 32.2128 31.3655 39.8669 29.1211C31.9054 29.8509 22.3771 32.3288 17.6337 33.6688C14.9831 34.4183 12.8252 36.3704 11.897 38.9523C11.6231 39.7155 11.4714 40.4964 11.5522 41.2262L12.3365 47.6163L13.7514 47.6712L13.1563 42.8232Z" fill="#CCEBF8"/>
<path d="M12.3385 47.6162L52.499 49.1642L54.8244 41.2674L51.8447 48.144L12.3385 47.6162Z" fill="#056B96"/>
<path d="M62.6145 39.0975C62.6145 39.0975 61.7928 37.4573 59.7728 38.142C57.7529 38.8268 53.6006 39.2584 52.4005 39.0975C51.2023 38.9386 46.924 34.6674 46.92 34.6498C46.8806 34.3849 46.5594 33.3706 46.3052 32.7134C46.0509 32.0541 46.2914 31.4852 46.1199 31.338C45.982 31.2203 45.7061 31.5735 45.8361 31.9894C45.9642 32.3955 46.1672 33.0802 45.7179 33.0587C45.2745 33.0371 44.6636 30.6062 44.6577 30.5807C44.6005 30.3433 44.437 29.9254 44.303 30.1314C44.2557 30.255 44.4113 31.0418 44.5631 31.5028C44.8272 32.3033 44.902 32.5603 44.837 32.6623C44.7326 32.678 44.5513 32.164 44.1138 31.0398C43.6349 29.8077 42.8033 29.1642 43.9541 31.6068C44.2714 32.2798 44.4488 32.8468 44.3739 32.8585C44.1433 32.8919 43.964 32.4387 43.7551 32.0326C43.5521 31.6363 43.0575 30.7808 42.9688 31.2341C42.9727 31.338 43.288 31.856 43.5186 32.2327C44.0172 33.0508 44.1453 33.2902 44.0881 33.4197C43.6901 33.4766 43.2585 32.5152 42.9471 32.0836C42.8998 32.0188 42.7973 32.0679 42.819 32.1444C42.9097 32.4662 43.1856 33.0606 43.6763 33.6924C44.1847 34.3496 45.172 35.2855 45.7849 35.8211C45.8145 35.9604 49.1587 40.1314 51.0683 40.928C52.9779 41.7245 62.9909 42.2209 62.6145 39.0975Z" fill="#FF9494"/>
<path d="M9.01983 39.0426C9.01983 39.0426 8.65525 38.6463 8.27491 38.8876C7.89457 39.1289 8.36162 39.3447 8.36162 39.3447C8.36162 39.3447 8.1744 39.3192 8.12514 39.4918C8.07587 39.6645 8.32615 39.7332 8.32615 39.7332C8.32615 39.7332 8.11134 39.8018 8.26506 39.9549C8.41877 40.1079 8.56854 40.1059 8.56854 40.1059C8.56854 40.1059 8.32615 40.2178 8.45621 40.3473C8.58628 40.4767 8.87203 40.4198 8.87203 40.4198C8.87203 40.4198 8.73802 40.465 8.84641 40.5729C8.95479 40.6808 9.2366 40.6415 9.2366 40.4944C9.2366 40.3473 9.06318 40.3826 9.06318 40.3826C9.06318 40.3826 9.17551 40.1334 8.97647 40.0804C8.97647 40.0804 9.04545 39.7626 8.81291 39.7234C8.81291 39.7234 8.99421 39.4428 8.78729 39.3996C8.78532 39.3957 9.1696 39.1917 9.01983 39.0426Z" fill="#E56565"/>
<path d="M47.6393 43.3569C46.6835 43.2745 45.7613 43.0077 45.44 42.4387C45.31 42.2072 45.2883 41.9639 45.375 41.7167C44.8705 41.5951 44.4133 41.3793 44.0862 41.0536C43.5009 40.4709 43.9817 39.7352 44.6124 39.1956C43.9482 39.1034 43.2762 38.8896 42.8033 38.5462C42.1963 38.1087 42.5963 37.4358 43.1343 36.9198C42.5628 36.6392 42.2259 35.8191 43.1107 35.0285C43.0043 34.9578 42.9038 34.8754 42.8112 34.7832C42.2889 34.2633 42.7974 33.5335 43.3748 33.0646C42.7225 32.3583 43.9995 30.6808 44.638 29.9765L44.8429 30.1609C44.3404 30.7142 43.0555 32.3779 43.5955 32.8958C43.899 32.682 44.2182 32.525 44.4646 32.4583C44.7148 32.3916 44.8981 32.4132 45.0085 32.525C45.1976 32.7134 45.2075 32.9782 45.0341 33.1862C44.7818 33.4883 44.2044 33.5963 43.5994 33.2372C43.1619 33.5806 42.6121 34.1986 43.0043 34.589C43.1048 34.6891 43.2171 34.7754 43.3353 34.848C44.1453 34.2594 45.4302 33.9435 45.4302 34.6302C45.4302 35.4365 44.2241 35.5994 43.361 35.1776C42.5786 35.827 42.7796 36.5235 43.359 36.7177C44.0074 36.1723 44.8488 35.7387 45.2095 35.8172C45.3474 35.8466 45.4302 35.9447 45.4302 36.082C45.4302 36.7 44.232 37.1944 43.4221 37.0218C43.0043 37.3946 42.5057 37.9969 42.9629 38.3265C43.4575 38.6816 44.2123 38.8935 44.9178 38.9563C45.6351 38.4364 46.5022 38.0812 46.8274 38.2166C47.2314 38.3853 47.0166 39.3742 45.0025 39.2388C44.7838 39.4036 44.5789 39.586 44.4133 39.7842C44.0468 40.2217 44.0014 40.5847 44.2793 40.8613C44.5887 41.1693 45.0242 41.3616 45.4972 41.4636C46.0214 40.6475 47.6196 40.0255 48.2916 40.2727C48.7646 40.4473 48.8158 41.1791 47.8522 41.5755C47.2472 41.8246 46.4155 41.9031 45.647 41.7736C45.574 41.958 45.5839 42.1366 45.6785 42.3033C45.913 42.7212 46.6717 43.0057 47.6787 43.0861C48.1438 41.7834 52.3138 40.8515 51.6891 42.2543C51.2634 43.2098 49.0484 43.4314 47.9152 43.3765C48.0236 44.587 54.9959 46.6824 54.3692 39.9667L54.6451 39.9412C55.3112 47.0257 47.6965 44.999 47.6393 43.3569ZM47.9803 43.1058C49.2001 43.1529 51.1136 42.8743 51.4408 42.1444C51.5078 41.9933 51.4526 41.9482 51.427 41.9266C50.956 41.546 48.4197 42.2464 47.9803 43.1058ZM45.8026 41.5166C46.8924 41.6637 48.3429 41.3498 48.3429 40.722C48.3448 40.1786 46.4746 40.6573 45.8026 41.5166ZM45.3947 38.9759C45.7987 38.972 46.7151 38.868 46.721 38.4697C46.7052 38.4619 45.6489 38.8189 45.3947 38.9759ZM43.7236 36.7785C44.3838 36.8021 45.1523 36.4136 45.1563 36.084C45.0006 36.033 44.3227 36.3292 43.7236 36.7785ZM43.6211 34.9873C44.2576 35.2423 45.1563 35.1501 45.1563 34.6302C45.1563 34.3791 44.3207 34.5282 43.6211 34.9873ZM43.8497 33.0587C44.5513 33.4118 45.0656 32.9724 44.8134 32.7212C44.7937 32.7016 44.7129 32.68 44.5355 32.7271C44.3424 32.7781 44.0941 32.8998 43.8497 33.0587Z" fill="#2B374D"/>
<path d="M60.4783 23.1725L59.02 32.2366L58.4722 32.1758L59.0318 23.0135L60.4783 23.1725Z" fill="#20293A"/>
<path d="M55.3407 49.1681L55.2067 48.8228C58.6318 48.0439 59.9955 44.4575 60.5749 41.7618C61.2331 38.6894 61.0735 35.7602 61.0715 35.7308L61.5405 35.7151C61.5425 35.7445 61.7041 38.7051 61.038 41.8148C60.4251 44.6851 58.9806 48.3402 55.3407 49.1681Z" fill="#2B374D"/>
<path d="M57.6918 49.2427L57.3587 48.9876C59.223 47.5613 59.893 38.146 59.9916 36.135L60.4606 36.1487C60.3561 38.3068 59.7019 47.7045 57.6918 49.2427Z" fill="#2B374D"/>
<path d="M60.4428 34.6302H57.0533V31.8756C57.0533 31.1811 57.6189 30.6161 58.3184 30.6161H59.1796C59.8773 30.6161 60.4448 31.1791 60.4448 31.8756V34.6302H60.4428Z" fill="#2B374D"/>
<path d="M59.3255 47.7477H47.8186V64.793H59.3255V47.7477Z" fill="#F1F9F4"/>
<path d="M62.9259 47.7477H59.3255V64.793H62.9259V47.7477Z" fill="#164A6F"/>
<path d="M60.2655 64.793H45.3533V66.188H60.2655V64.793Z" fill="#164A6F"/>
<path d="M66.8022 64.793H60.2655V66.188H66.8022V64.793Z" fill="#164A6F"/>
<path d="M55.2737 34.1161H52.8084V47.7477H55.2737V34.1161Z" fill="#2B374D"/>
<path d="M56.0975 47.7477H52.0458V46.5921C52.0458 46.2311 52.3394 45.9388 52.702 45.9388H55.4393C55.8019 45.9388 56.0955 46.2311 56.0955 46.5921V47.7477H56.0975Z" fill="#2B374D"/>
<path d="M56.6296 38.7247H41.5617V40.0647H56.6296V38.7247Z" fill="#5D767D"/>
<path d="M56.6296 38.7248H41.5617L49.4977 33.8003H62.5298L56.6296 38.7248Z" fill="#F1F9F4"/>
<path d="M62.5298 36.6941V33.8003L56.6296 38.7248V40.0648L62.5298 36.6941Z" fill="#164A6F"/>
<path d="M49.7913 34.3849L44.9119 37.5417L48.6168 37.3671C48.6168 37.3671 49.9667 35.9643 51.3166 36.2645C52.3197 36.4862 52.0458 37.5437 52.0458 37.5437H55.926L60.0211 34.3869H49.7913V34.3849Z" fill="#4C5A73"/>
<path d="M66.1361 10.3571H50.1677V23.9847H66.1361V10.3571Z" fill="#20293A"/>
<path d="M65.6074 23.4593V10.8833L50.6952 10.8833V23.4593L65.6074 23.4593Z" fill="#4C5A73"/>
<path d="M66.7608 10.5356L66.1361 10.3571V23.9847L66.4495 23.7512L66.7608 10.5356Z" fill="#65789A"/>
<path d="M61.6725 11.4518H51.7324V22.3484H61.6725V11.4518Z" fill="#191E27"/>
<path d="M61.306 14.6734C59.3117 14.7675 55.8926 15.0893 55.8078 17.0807C55.8078 17.0865 55.7999 17.2984 55.7999 17.2847C55.798 17.838 55.6443 18.3991 55.1279 18.609C54.5663 18.8464 53.6105 18.6443 53.3602 19.9333C53.1868 20.8299 53.5691 21.96 54.0401 22.1523C53.3799 21.9482 52.7868 20.1393 53.5218 19.1054C54.2273 18.1126 55.5713 19.0465 55.5654 17.2768C55.5654 17.271 55.5733 17.0551 55.5733 17.0669C55.6778 14.9049 59.1343 14.5733 61.306 14.6734Z" fill="#667287"/>
<path d="M60.0053 16.3685C60.0053 16.3685 58.6909 16.547 58.6909 17.8046C58.6909 19.0622 58.3815 19.1897 57.3173 19.5252C56.2532 19.8607 56.3714 21.7069 58.0701 21.9992C58.8052 22.1268 59.3117 21.4675 59.8142 20.8986C61.0951 19.4448 61.574 16.8197 60.0053 16.3685Z" fill="#667287"/>
<path d="M58.1509 19.9176L55.9595 19.6586L55.5102 21.3145C55.5102 21.3145 55.0373 20.3669 54.8087 20.5945C54.582 20.8201 54.9801 22.1523 55.4905 22.1523C55.999 22.1523 56.7557 20.6318 56.7557 20.6318L57.7607 20.9045L58.1509 19.9176Z" fill="#667287"/>
<path d="M56.5724 18.5403L55.5358 19.3683C55.5358 19.3683 55.8098 19.0073 55.3407 18.9543C55.1496 18.9327 55.0668 19.0936 55.0353 19.2917C54.9781 19.6429 55.0924 20 55.3289 20.2668L55.3604 20.3021L56.6335 19.4997L58.0012 20.3021L58.3283 19.5625L56.5724 18.5403Z" fill="#667287"/>
<path d="M58.4998 14.8676C58.4998 14.8676 57.7016 15.2855 57.9243 16.4391C58.145 17.5947 59.0062 17.7634 59.8438 16.9708C60.6793 16.1782 59.7846 14.5321 58.4998 14.8676Z" fill="#667287"/>
<path d="M55.859 16.5038C55.8117 16.6647 55.7881 16.8354 55.7901 17.0022C55.8019 17.683 56.2118 17.7497 56.7458 17.9263C57.5459 18.195 58.2948 18.4854 58.3283 19.329H57.9755C57.9933 18.6737 57.3134 18.3912 56.669 18.1303C56.1448 17.9184 55.6363 17.7968 55.6718 17.0002C55.6817 16.8197 55.7191 16.6471 55.7802 16.4764L55.859 16.5038Z" fill="#667287"/>
<path d="M59.0318 18.1401C59.0318 18.1401 57.9164 18.0263 57.8179 17.7124C57.7194 17.3985 57.9933 16.6981 57.9933 16.6981L57.9795 16.392C57.9795 16.392 57.3686 17.0904 57.3686 17.7124C57.3686 18.3343 58.5845 18.8209 58.5845 18.8209L59.0318 18.1401Z" fill="#667287"/>
<path d="M65.2947 11.6147H62.9259V15.9211H65.2947V11.6147Z" fill="#AEC2E7"/>
<path d="M65.2947 16.3096H62.9259V20.5964H65.2947V16.3096Z" fill="#AEC2E7"/>
<path d="M50.1677 48.4461H58.3283L57.9164 63.2097L57.3686 49.3741L50.1677 48.4461Z" fill="#5D767D"/>
<path d="M22.2963 48.8268C21.4568 48.8268 20.8715 48.5835 20.5542 48.1048C19.7936 46.9571 20.7651 44.8146 21.7918 42.5486C22.3949 41.2164 23.0196 39.8411 23.126 38.9151C23.4571 36.0251 23.1358 34.6557 23.1319 34.642L23.7152 34.4987C23.729 34.5576 24.066 35.9682 23.7211 38.9818C23.6049 40 22.99 41.3577 22.3377 42.7938C21.4647 44.7205 20.4754 46.9021 21.0528 47.7752C21.2597 48.0871 21.6992 48.2382 22.3633 48.2264C26.7422 48.146 29.1977 48.2264 29.2213 48.2264L29.2016 48.8229C29.1779 48.8229 26.7363 48.7424 22.3752 48.8229C22.3515 48.8248 22.3239 48.8268 22.2963 48.8268Z" fill="#0A2126"/>
<path d="M26.6082 37.8399C25.5854 38.0793 24.5626 37.4475 24.3242 36.4293L22.521 28.764C22.2806 27.7458 22.9151 26.7275 23.9379 26.4901C24.9607 26.2508 25.9835 26.8825 26.2219 27.9007L28.0251 35.566C28.2655 36.5823 27.631 37.6006 26.6082 37.8399Z" fill="#2B374D"/>
<path d="M26.6082 37.8399C25.5854 38.0793 24.5626 37.4475 24.3242 36.4293L22.521 28.764C22.2806 27.7458 22.9151 26.7275 23.9379 26.4901C24.9607 26.2508 25.9835 26.8825 26.2219 27.9007L28.0251 35.566C28.2655 36.5823 27.631 37.6006 26.6082 37.8399Z" fill="#2B374D"/>
<path d="M26.6082 37.8399C25.5854 38.0793 24.5626 37.4475 24.3242 36.4293L22.521 28.764C22.2806 27.7458 22.9151 26.7275 23.9379 26.4901C24.9607 26.2508 25.9835 26.8825 26.2219 27.9007L28.0251 35.566C28.2655 36.5823 27.631 37.6006 26.6082 37.8399Z" fill="#2B374D"/>
<path d="M28.0251 35.5641L26.2219 27.8988C25.9815 26.8805 24.9587 26.2488 23.9379 26.4882C23.8492 26.5078 23.7665 26.5372 23.6837 26.5686C24.6119 26.4842 25.4869 27.0905 25.7056 28.0204L27.5088 35.6857C27.7275 36.6157 27.2151 37.5437 26.3461 37.8792C26.4328 37.8713 26.5215 37.8596 26.6101 37.838C27.631 37.6006 28.2655 36.5823 28.0251 35.5641Z" fill="#2B374D"/>
<path d="M24.1448 35.6681L23.2758 35.3483L22.0579 30.1747L22.6905 29.4939L24.1448 35.6681Z" fill="#2B374D"/>
<path d="M40.8897 49.9117H28.9159L28.2852 48.4167H41.5933L40.8897 49.9117Z" fill="#0A2126"/>
<path d="M36.4498 49.1642H33.5588V54.9088H36.4498V49.1642Z" fill="#0A2126"/>
<path d="M35.7285 54.8637H34.2781V64.3379H35.7285V54.8637Z" fill="#9DA6A8"/>
<path d="M34.7373 54.8637H34.2781V64.3379H34.7373V54.8637Z" fill="#B2BEBF"/>
<path d="M36.0655 66.6412H33.9293V64.8264V63.3647H36.0655V66.6412Z" fill="#0A2126"/>
<path d="M26.0584 68.8111L33.9293 64.8264V66.6412L28.2852 68.8111V69.2094H26.0584V68.8111Z" fill="#0A2126"/>
<path d="M43.9344 68.8111V69.2094H41.7076V68.8111L36.0655 66.6412V64.8264L43.9344 68.8111Z" fill="#0A2126"/>
<path d="M36.0655 69.2094V69.5174H33.75V69.2094H34.2801V64.8264H35.7285L35.5768 69.2094H36.0655Z" fill="#0A2126"/>
<path d="M41.6346 48.4167H27.8438C27.0831 48.4167 26.4663 47.8027 26.4663 47.0453C26.4663 46.288 27.0831 45.674 27.8438 45.674H41.6346C42.3953 45.674 43.0122 46.288 43.0122 47.0453C43.0122 47.8027 42.3953 48.4167 41.6346 48.4167Z" fill="#288397"/>
<path d="M41.6346 45.674H27.8438C27.4477 45.674 27.093 45.8427 26.8407 46.1095C26.8466 46.1095 26.8525 46.1075 26.8584 46.1075H40.6493C41.41 46.1075 42.0268 46.7216 42.0268 47.4789C42.0268 47.8419 41.8829 48.1695 41.6524 48.4148C42.4052 48.405 43.0141 47.7968 43.0141 47.0453C43.0121 46.288 42.3953 45.674 41.6346 45.674Z" fill="#44C3D8"/>
<path d="M44.7739 28.1793C44.2202 28.2853 42.3914 29.7822 43.0102 30.3296C43.629 30.877 48.9321 30.8122 48.7232 29.743C48.5182 28.6737 47.1999 27.7202 44.7739 28.1793Z" fill="#7CAD98"/>
<path d="M48.7252 29.743C48.6523 29.3722 48.4493 29.0171 48.1103 28.7287C48.3172 28.97 48.4473 29.2407 48.5025 29.5213C48.6996 30.5395 43.9009 30.6455 42.9077 30.1825C42.9274 30.2374 42.9609 30.2864 43.0102 30.3296C43.631 30.877 48.9341 30.8122 48.7252 29.743Z" fill="#536460"/>
<path d="M48.0157 28.403L46.719 27.734C46.719 27.734 44.8666 27.4004 43.9246 27.9537C43.9246 27.9537 39.8847 31.2674 37.2637 30.8338C36.3473 30.6828 34.9186 29.6037 33.3696 28.3206C32.331 29.3506 31.2511 30.3551 30.2066 31.3322C32.7232 32.8625 35.7423 34.1848 37.5356 33.8729C40.6276 33.3333 44.5848 29.1858 44.5848 29.1858C44.5848 29.1858 46.0844 28.4265 46.7643 28.9033C47.4442 29.3781 47.8403 29.7548 47.8719 29.6547C47.9034 29.5546 47.0718 28.662 47.0718 28.662C47.0718 28.662 48.1142 29.6449 48.2463 29.5782C48.3783 29.5095 47.6137 28.713 47.6137 28.713L46.8865 28.2107L47.9093 28.609C47.9093 28.609 48.1891 29.2093 48.3074 29.1485C48.4217 29.0857 48.0157 28.403 48.0157 28.403Z" fill="#EA5959"/>
<path d="M34.1263 22.9684C32.0827 23.2313 31.7083 24.7597 32.1813 27.1101C32.3803 28.0969 33.2001 31.5754 34.3057 33.3961C35.6851 33.0077 38.1997 31.2066 38.9151 30.4964C37.4607 27.0532 35.561 22.784 34.1263 22.9684Z" fill="#5D8272"/>
<path d="M37.2321 43.0489C37.2321 43.0489 47.0304 48.4187 47.0304 48.8189C47.0304 49.2211 40.2295 64.9892 40.2295 64.9892L40.4838 67.8634C40.4838 67.8634 42.0879 69.1309 41.6248 69.1309C41.1597 69.1309 39.8512 69.1309 39.8512 69.1309C39.8512 69.1309 39.26 67.7771 38.8796 67.3985C38.4993 67.0179 37.6125 66.0879 37.6125 66.0879L38.8796 64.6086L38.247 64.5654L42.1332 50.361L36.4734 47.3906L34.4988 43.302L37.2321 43.0489Z" fill="#3E574C"/>
<path d="M27.7315 46.6843L27.5856 47.7713L33.9391 50.0863L34.6151 65.0304H35.2063L34.6565 68.2441C34.6565 68.2441 34.1441 69.792 34.286 69.9353C34.4279 70.0785 36.7671 69.9353 36.7671 69.9353L36.4715 65.0304L36.7671 64.9873C36.7671 64.9873 38.0342 48.8797 38.0342 47.8223C38.0342 46.7648 34.286 43.298 34.286 43.298L27.7315 46.6843Z" fill="#5D8272"/>
<path d="M35.6674 44.6498C36.2507 45.3385 37.8903 47.1709 37.8706 47.8968C37.8706 47.9047 37.843 48.2853 37.845 48.2598C37.5711 51.7226 37.2302 56.0722 37.1908 59.6018C38.0795 53.3844 38.2037 47.5554 38.2017 47.838C38.2017 47.8183 36.2862 45.2031 35.6674 44.6498Z" fill="#CBDED6"/>
<path d="M32.6168 22.3681C32.6168 22.3681 32.5419 22.3641 32.4079 22.3622C31.3969 22.3484 27.026 22.4956 25.9539 25.9761C24.738 29.9196 23.3664 43.9062 27.3768 47.9203C27.3768 47.9203 35.1314 43.0076 38.7358 43.971C38.7358 43.971 33.6849 39.5978 34.8378 35.7916C35.6418 33.1411 36.3118 26.443 35.7659 24.3457C35.2201 22.2484 32.6168 22.3681 32.6168 22.3681Z" fill="#7CAD98"/>
<path d="M34.6978 36.4469C34.6249 36.4057 34.556 36.3587 34.4909 36.3096C33.7874 35.7838 25.412 25.6347 25.885 27.9851C26.1116 29.1152 26.9136 32.323 28.2636 34.3948C28.9671 35.7053 31.9625 39.3643 33.3519 39.7999C33.9667 39.9922 34.6939 39.9882 35.4644 39.8607C34.9087 38.7875 34.554 37.6045 34.6978 36.4469Z" fill="#5D8272"/>
<path d="M34.8378 35.7917C35.362 33.2549 36.1325 26.7844 35.766 24.3457C36.5188 26.9963 35.8054 33.0999 34.8378 35.7917Z" fill="#CBDED6"/>
<path d="M30.2303 17.7006C30.2303 17.7006 29.8992 20.7946 30.1377 22.8252C30.1968 23.3314 30.4885 23.7807 30.9259 24.0436C31.8068 24.5713 33.34 25.3483 33.9174 24.7616L33.1824 19.9215L30.2303 17.7006Z" fill="#FC7575"/>
<path d="M30.2303 17.7006L33.1824 19.9196L33.5548 22.3759C32.398 22.525 31.0146 20.979 30.5239 18.9406C30.4392 18.5894 30.3269 18.2755 30.2027 17.9851C30.2204 17.8046 30.2303 17.7006 30.2303 17.7006Z" fill="#FD5E5A"/>
<path d="M34.1303 13.2941C34.1756 13.3275 34.2268 13.3922 34.284 13.4844C34.5422 13.9043 34.8713 14.8951 34.7885 16.1154C34.688 17.6006 34.6032 20.7161 33.5115 20.9084C32.4197 21.1007 30.6954 19.8725 30.2618 18.1205C29.8283 16.3704 28.9178 15.617 29.3258 14.1436C29.7317 12.6683 34.1303 13.2941 34.1303 13.2941Z" fill="#FC7575"/>
<path d="M34.1303 13.2941C34.1303 13.2941 29.7317 12.6663 29.3238 14.1417C28.9158 15.6171 29.8263 16.3685 30.2598 18.1185C30.65 18.0145 31.2688 17.9635 30.9279 15.8446C31.261 14.7106 31.9211 14.8244 32.0354 14.3241C33.0562 14.5458 33.1765 15.0775 33.2435 15.1364C33.7066 15.8917 34.1874 16.5058 34.7471 16.7824C34.7629 16.5372 34.7747 16.3096 34.7885 16.1115C34.8752 14.8382 34.4633 13.5452 34.1303 13.2941Z" fill="#FD5E5A"/>
<path d="M30.2598 18.1205C30.1869 17.9459 30.3052 18.3069 30.2598 18.1205V18.1205Z" fill="#FD5E5A"/>
<path d="M30.8589 15.927C30.8589 15.927 31.0954 15.0363 31.4068 14.5576C31.7182 14.0789 31.5369 13.7512 31.5369 13.7512C31.5369 13.7512 32.9597 13.7611 33.543 14.7028C34.1263 15.6445 34.8673 17.0473 36.2665 16.1154C37.6657 15.1835 37.0232 13.1116 36.6685 13.1744C36.3138 13.2372 35.9335 12.9782 35.9335 12.9782C35.9335 12.9782 34.3214 11.2733 33.6435 11.393C32.9656 11.5127 33.4366 10.7436 32.2522 10.7573C31.0678 10.7711 30.3505 12.0385 30.3505 12.0385C30.3505 12.0385 29.7416 11.5264 28.9631 12.2837C28.1847 13.041 29.0104 15.309 29.4676 16.0761C29.9248 16.8433 30.185 18.1833 30.185 18.1833C30.185 18.1833 31.2688 18.2343 30.8589 15.927Z" fill="#1B2B80"/>
<path d="M30.1771 15.6425C30.2283 15.1952 30.7407 15.0539 31.0166 15.4051C31.2452 15.6955 31.4167 16.0722 31.19 16.4234C30.7368 17.1238 30.116 16.547 30.1633 15.7897C30.1672 15.7367 30.1712 15.6877 30.1771 15.6425Z" fill="#FC7575"/>
<path d="M31.2334 15.9741C31.19 15.8015 30.92 15.3287 30.6934 15.5464C30.4668 15.7662 30.3702 16.4273 30.8175 16.4783C31.2629 16.5313 31.2747 16.1409 31.2334 15.9741Z" fill="#FD5E5A"/>
<path d="M33.6554 18.6404L34.2742 18.5305L33.9845 16.908C33.9785 16.8727 33.947 16.8491 33.9135 16.855C33.88 16.8609 33.8603 16.8943 33.8662 16.9296L34.1323 18.4265L33.6297 18.5148C33.5982 18.5207 33.5765 18.5541 33.5824 18.5894C33.5903 18.6227 33.6219 18.6463 33.6554 18.6404Z" fill="#18287D"/>
<path d="M32.8966 16.8884C32.9301 17.0708 33.0701 17.2003 33.21 17.1748C33.3499 17.1493 33.4386 16.9806 33.4051 16.7981C33.3716 16.6157 33.2317 16.4862 33.0917 16.5117C32.9518 16.5352 32.8631 16.704 32.8966 16.8884Z" fill="#18287D"/>
<path d="M34.2288 16.855C34.2584 17.0237 34.3805 17.1434 34.4988 17.1218C34.619 17.1003 34.6899 16.9472 34.6604 16.7785C34.6308 16.6098 34.5086 16.4901 34.3904 16.5117C34.2722 16.5313 34.1992 16.6863 34.2288 16.855Z" fill="#18287D"/>
<path d="M33.4504 19.9235C33.5746 19.9019 33.6514 19.8627 33.6534 19.8627C33.681 19.847 33.6908 19.8117 33.677 19.7822C33.6632 19.7528 33.6278 19.741 33.6002 19.7548C33.5785 19.7685 33.0701 20.0196 32.5084 19.4683C32.4848 19.4448 32.4493 19.4468 32.4296 19.4703C32.4079 19.4938 32.4118 19.5331 32.4335 19.5547C32.8336 19.949 33.2238 19.9627 33.4504 19.9235Z" fill="#18287D"/>
<path d="M33.4642 15.9447C33.4642 15.9447 33.1174 15.6798 32.7626 15.7426C32.4079 15.8054 32.2128 16.2959 32.2128 16.2959C32.2128 16.2959 32.4138 15.8897 32.7311 15.8996C33.0464 15.9094 33.5017 16.1546 33.5017 16.1546L33.4642 15.9447Z" fill="#18287D"/>
<path d="M45.4519 37.8831L44.6104 36.6942C44.6104 36.6942 43.1205 35.5484 42.0288 35.6073C42.0288 35.6073 36.9089 36.6942 34.7845 35.107C34.0574 34.5635 33.3065 33.0077 32.5419 31.2086C31.2708 31.8031 30.051 32.4956 28.7818 33.094C30.2402 35.3345 32.063 37.4397 33.6179 37.9282C36.6133 38.868 42.0426 37.0042 42.0426 37.0042C42.0426 37.0042 43.7236 37.0179 44.1079 37.7536C44.4921 38.4874 44.6695 39.0014 44.7424 38.9288C44.8153 38.8562 44.4921 37.681 44.4921 37.681C44.4921 37.681 44.9612 39.0328 45.1109 39.0328C45.2607 39.0328 44.9493 37.9753 44.9493 37.9753L44.5355 37.1964L45.2587 38.0185C45.2587 38.0185 45.2292 38.6796 45.3612 38.6796C45.4952 38.6777 45.4519 37.8831 45.4519 37.8831Z" fill="#FC7575"/>
<path d="M30.0766 34.9068L32.7882 31.7795C32.7055 31.5931 32.6247 31.4009 32.5419 31.2086C31.2708 31.8031 30.051 32.4956 28.7818 33.094C29.1898 33.7199 29.6253 34.334 30.0766 34.9068Z" fill="#FD5E5A"/>
<path d="M33.206 37.5476C33.206 37.5476 33.2454 37.0061 33.5233 36.9374C33.7992 36.8688 34.6643 37.5927 34.4633 37.7928C34.2584 37.9949 33.206 37.9106 33.206 37.5476Z" fill="#FD5E5A"/>
<path d="M28.1138 23.5629C26.0702 23.8258 25.4139 25.6347 25.8849 27.9851C26.1116 29.1152 26.9136 32.3229 28.2635 34.3947C29.5327 33.7983 31.998 31.7402 32.7981 31.2713C31.328 27.8085 29.5642 23.3745 28.1138 23.5629Z" fill="#96BDAD"/>
<path d="M32.7961 31.2714C31.5191 28.8405 30.1357 25.2149 28.9632 24.02C28.6104 23.6571 28.4449 23.6531 28.3818 23.6139C28.3286 23.6041 28.2596 23.5727 28.098 23.5766L27.9502 23.5864C27.9936 23.6414 29.3888 22.4426 31.9862 29.0485C32.2779 29.7822 32.5498 30.5219 32.7961 31.2714Z" fill="#CBDED6"/>
<path d="M22.8008 25.5719H22.7988C22.7614 25.57 22.7299 25.5386 22.7318 25.5013C22.7929 23.3628 23.9024 22.0856 24.8227 21.391C25.8179 20.6396 26.7836 20.3983 26.8249 20.3885C26.8624 20.3787 26.8998 20.4022 26.9097 20.4395C26.9195 20.4768 26.8959 20.5141 26.8584 20.5219C26.8486 20.5239 25.8751 20.7691 24.9035 21.5029C24.0088 22.1778 22.9309 23.4216 22.8718 25.5033C22.8678 25.5425 22.8383 25.5719 22.8008 25.5719Z" fill="#1B2B80"/>
<path d="M49.7598 28.1303C49.742 28.1303 49.7243 28.1224 49.7105 28.1087C47.4186 25.721 42.5451 25.4032 42.4958 25.4012C42.4584 25.3993 42.4288 25.3659 42.4308 25.3286C42.4328 25.2914 42.4663 25.2619 42.5037 25.2639C42.553 25.2658 47.4797 25.5876 49.809 28.0145C49.8346 28.042 49.8346 28.0852 49.8071 28.1126C49.7952 28.1244 49.7775 28.1303 49.7598 28.1303Z" fill="#1B2B80"/>
</svg>
