<svg width="87" height="65" viewBox="0 0 87 65" fill="none" xmlns="http://www.w3.org/2000/svg">
<path fill-rule="evenodd" clip-rule="evenodd" d="M13.9824 67.9927C6.2919 67.9927 0 61.76 0 54.1456C0 46.5311 6.2919 40.2985 13.9824 40.2985C17.2348 40.2985 19.8962 37.6628 19.8962 34.446C19.8962 31.2255 17.2348 28.5935 13.9824 28.5935H13.2776C9.89671 28.5935 7.12886 25.8555 7.12886 22.507C7.12886 19.1586 9.89671 16.4206 13.2776 16.4206H15.4361C16.7503 16.4206 17.8295 15.3532 17.8295 14.0518C17.8295 12.7505 16.7539 11.683 15.4361 11.683H13.8503C12.9399 11.683 12.1984 10.9483 12.1984 10.049C12.1984 9.14977 12.9435 8.41501 13.8503 8.41501H24.5142C25.9422 8.41501 27.1095 7.25986 27.1095 5.84518C27.1095 4.43049 25.9422 3.27535 24.5142 3.27535H21.3278C20.4175 3.27535 19.6759 2.54059 19.6759 1.64133C19.6759 0.742071 20.4211 0.00731104 21.3278 0.00731104H66.6743C67.86 0.00731104 68.8291 0.968713 68.8291 2.14214C68.8291 3.31556 67.8563 4.27696 66.6743 4.27696H63.4072C61.5461 4.27696 60.019 5.78669 60.019 7.62907C60.019 9.47146 61.5424 10.9812 63.4072 10.9812H77.408C78.5937 10.9812 79.5628 11.9426 79.5628 13.116C79.5628 14.2894 78.5937 15.2508 77.408 15.2508H75.3376C73.6196 15.2508 72.2137 16.6436 72.2137 18.3434C72.2137 20.0432 73.6196 21.436 75.3376 21.436H78.1532C82.5656 21.436 86.174 25.0111 86.174 29.3794C86.174 33.7478 82.5656 37.3229 78.1532 37.3229H77.2354C72.9919 37.3229 69.5192 40.7591 69.5192 44.9629C69.5192 49.1668 72.9919 52.6029 77.2354 52.6029H79.2251C83.5053 52.6029 87.0037 56.0684 87.0037 60.3051C87.0037 64.5419 83.5016 68.0073 79.2251 68.0073C57.086 67.9927 36.1215 67.9927 13.9824 67.9927ZM72.188 4.26965C73.3773 4.26965 74.3428 3.31556 74.3428 2.13482C74.3428 0.954091 73.3773 0 72.188 0C70.9986 0 70.0332 0.954091 70.0332 2.13482C70.0332 3.31556 70.9949 4.26965 72.188 4.26965ZM9.2176 11.6794C10.1316 11.6794 10.8695 10.9483 10.8695 10.0454C10.8695 9.14246 10.128 8.41135 9.2176 8.41135C8.30354 8.41135 7.5657 9.14246 7.5657 10.0454C7.5657 10.9483 8.30354 11.6794 9.2176 11.6794Z" fill="#C1DBF2"/>
<path fill-rule="evenodd" clip-rule="evenodd" d="M43.801 13.4377H17.7487C17.8001 13.6314 17.8295 13.8398 17.8295 14.0482C17.8295 15.3495 16.7539 16.4169 15.4361 16.4169H13.2776C9.89672 16.4169 7.12888 19.1549 7.12888 22.5034C7.12888 22.5217 7.12888 22.5399 7.12888 22.5582H43.7974C46.3303 22.5582 48.4043 20.5075 48.4043 17.9961C48.408 15.4921 46.3339 13.4377 43.801 13.4377Z" fill="#DCE9F7"/>
<path fill-rule="evenodd" clip-rule="evenodd" d="M7.69785 19.9665H48.408V67.9927H13.9824C6.2919 67.9927 0 61.76 0 54.1456C0 46.5311 6.2919 40.2985 13.9824 40.2985C17.2348 40.2985 19.8962 37.6628 19.8962 34.446C19.8962 31.2255 17.2348 28.5935 13.9824 28.5935H13.2776C9.89671 28.5935 7.12886 25.8555 7.12886 22.507C7.13253 21.6005 7.33443 20.7414 7.69785 19.9665Z" fill="#CDE0F3"/>
<path fill-rule="evenodd" clip-rule="evenodd" d="M7.28671 23.8559H45.0932C46.1761 23.8559 47.0608 24.8941 47.0608 26.1662V67.9927H13.9824C6.2919 67.9927 0 61.76 0 54.1456C0 46.5311 6.2919 40.2985 13.9824 40.2985C17.2348 40.2985 19.8962 37.6628 19.8962 34.446C19.8962 31.2255 17.2348 28.5935 13.9824 28.5935H13.2776C10.3666 28.5935 7.91076 26.561 7.28671 23.8559Z" fill="#C1DBF2"/>
<path fill-rule="evenodd" clip-rule="evenodd" d="M19.5658 32.5195H47.0608V36.4528H19.5365C19.7677 35.8241 19.8962 35.1515 19.8962 34.446C19.8962 33.7733 19.7787 33.1263 19.5658 32.5195Z" fill="#CDE0F3"/>
<path fill-rule="evenodd" clip-rule="evenodd" d="M48.9916 30.8453H18.6371C19.4263 31.8396 19.8962 33.0934 19.8962 34.446C19.8962 34.5593 19.8925 34.669 19.8852 34.7786H48.988C49.7038 34.7786 50.2838 34.201 50.2838 33.4955V32.132C50.2875 31.4229 49.7038 30.8453 48.9916 30.8453Z" fill="#DCE9F7"/>
<path fill-rule="evenodd" clip-rule="evenodd" d="M0.546962 50.3219H47.0608V54.2552H0.00367089C0.00367089 54.2187 0 54.1821 0 54.1456C0 52.8223 0.190886 51.5392 0.546962 50.3219Z" fill="#CDE0F3"/>
<path fill-rule="evenodd" clip-rule="evenodd" d="M48.9917 48.6477H1.15633C0.616712 49.8796 0.249623 51.1992 0.0881042 52.581H48.988C49.7038 52.581 50.2838 52.0034 50.2838 51.2979V49.9308C50.2875 49.2252 49.7038 48.6477 48.9917 48.6477Z" fill="#DCE9F7"/>
<path fill-rule="evenodd" clip-rule="evenodd" d="M48.9917 17.9998H9.15887C8.05026 18.9941 7.30874 20.3832 7.15823 21.9331H48.988C49.7038 21.9331 50.2838 21.3556 50.2838 20.65V19.2829C50.2875 18.5774 49.7038 17.9998 48.9917 17.9998Z" fill="#DCE9F7"/>
<path fill-rule="evenodd" clip-rule="evenodd" d="M10.7631 17.0128H44.7848C45.7062 17.0128 46.4587 16.172 46.4587 15.1485C46.4587 14.75 46.345 14.3808 46.1541 14.0774C47.4866 14.7647 48.4153 16.2671 48.4153 17.9998H9.15887C9.63242 17.5977 10.172 17.2614 10.7631 17.0128Z" fill="#CDE0F3"/>
<path fill-rule="evenodd" clip-rule="evenodd" d="M45.4382 38.7083H39.752C39.4841 38.7083 39.2675 38.924 39.2675 39.1908V48.1688C39.2675 48.4357 39.4841 48.6513 39.752 48.6513H45.4382C45.7062 48.6513 45.9228 48.4357 45.9228 48.1688V39.1908C45.9228 38.924 45.7062 38.7083 45.4382 38.7083Z" fill="#EAEAE6"/>
<path fill-rule="evenodd" clip-rule="evenodd" d="M38.5002 38.7083H35.6112C35.4754 38.7083 35.3653 38.818 35.3653 38.9532V48.4028C35.3653 48.538 35.4754 48.6477 35.6112 48.6477H38.5002C38.6361 48.6477 38.7462 48.538 38.7462 48.4028V38.9532C38.7462 38.818 38.6361 38.7083 38.5002 38.7083Z" fill="#E7E9E3"/>
<path fill-rule="evenodd" clip-rule="evenodd" d="M36.0665 36.8367H32.7076C32.5497 36.8367 32.4213 36.9646 32.4213 37.1218V48.3662C32.4213 48.5234 32.5497 48.6513 32.7076 48.6513H36.0701C36.228 48.6513 36.3565 48.5234 36.3565 48.3662V37.1218C36.3565 36.9646 36.2243 36.8367 36.0665 36.8367Z" fill="#B3CEEB"/>
<path fill-rule="evenodd" clip-rule="evenodd" d="M37.2999 44.0453H31.4778C31.2906 44.0453 31.1401 44.1952 31.1401 44.3817V48.3114C31.1401 48.4978 31.2906 48.6477 31.4778 48.6477H37.2999C37.4871 48.6477 37.6376 48.4978 37.6376 48.3114V44.3817C37.6376 44.1952 37.4871 44.0453 37.2999 44.0453Z" fill="#B8D3EE"/>
<path fill-rule="evenodd" clip-rule="evenodd" d="M30.1453 40.2144H27.2563C27.1205 40.2144 27.0104 40.3241 27.0104 40.4593V48.4028C27.0104 48.538 27.1205 48.6477 27.2563 48.6477H30.1453C30.2811 48.6477 30.3913 48.538 30.3913 48.4028V40.4593C30.3913 40.3277 30.2811 40.2144 30.1453 40.2144Z" fill="#B8D3EE"/>
<path fill-rule="evenodd" clip-rule="evenodd" d="M44.3296 40.9382H40.857C40.6771 40.9382 40.5303 41.0844 40.5303 41.2599V43.1425C40.5303 43.3216 40.6771 43.4641 40.857 43.4641H44.3296C44.5095 43.4641 44.6563 43.3179 44.6563 43.1425V41.2599C44.6563 41.0807 44.5095 40.9382 44.3296 40.9382Z" fill="#E3E2DC"/>
<path fill-rule="evenodd" clip-rule="evenodd" d="M44.381 44.0453H40.8056C40.6551 44.0453 40.5303 44.166 40.5303 44.3159V44.5791C40.5303 44.7289 40.6514 44.8532 40.8056 44.8532H44.381C44.5315 44.8532 44.6563 44.7326 44.6563 44.5791V44.3159C44.6563 44.166 44.5315 44.0453 44.381 44.0453Z" fill="#E3E2DC"/>
<path fill-rule="evenodd" clip-rule="evenodd" d="M44.381 45.6026H40.8056C40.6551 45.6026 40.5303 45.7233 40.5303 45.8731V46.1327C40.5303 46.2826 40.6514 46.4068 40.8056 46.4068H44.381C44.5315 46.4068 44.6563 46.2862 44.6563 46.1327V45.8731C44.6563 45.7233 44.5315 45.6026 44.381 45.6026Z" fill="#E3E2DC"/>
<path fill-rule="evenodd" clip-rule="evenodd" d="M28.7027 43.5994C28.3099 43.5994 27.9905 43.9723 27.9905 44.4365C27.9905 44.8971 28.3099 45.2736 28.7027 45.2736C29.0954 45.2736 29.4148 44.9008 29.4148 44.4365C29.4111 43.9723 29.0954 43.5994 28.7027 43.5994Z" fill="#B3CEEB"/>
<path fill-rule="evenodd" clip-rule="evenodd" d="M30.2298 29.3282H28.7027C28.5962 29.3282 28.5044 29.416 28.5044 29.522V30.6515C28.5044 30.7576 28.5925 30.8453 28.7027 30.8453H30.2298C30.3362 30.8453 30.4243 30.7576 30.4243 30.6515V29.522C30.4243 29.416 30.3399 29.3282 30.2298 29.3282Z" fill="#DCE9F7"/>
<path fill-rule="evenodd" clip-rule="evenodd" d="M27.7813 26.879H23.5854C23.4239 26.879 23.2918 27.007 23.2918 27.1678V30.5565C23.2918 30.7137 23.4239 30.8453 23.5854 30.8453H27.7813C27.9428 30.8453 28.0749 30.7173 28.0749 30.5565V27.1678C28.0749 27.007 27.9428 26.879 27.7813 26.879Z" fill="#B8D3EE"/>
<path fill-rule="evenodd" clip-rule="evenodd" d="M25.7659 28.1439H22.91C22.7999 28.1439 22.7118 28.2316 22.7118 28.3413V30.6515C22.7118 30.7612 22.7999 30.8489 22.91 30.8489H25.7659C25.8761 30.8489 25.9642 30.7612 25.9642 30.6515V28.3413C25.9678 28.2316 25.8761 28.1439 25.7659 28.1439Z" fill="#B3CEEB"/>
<path fill-rule="evenodd" clip-rule="evenodd" d="M23.78 24.4445H21.3058C21.192 24.4445 21.0929 24.5395 21.0929 24.6528V30.6369C21.0929 30.7502 21.1884 30.8453 21.3058 30.8453H23.78C23.8938 30.8453 23.9929 30.7502 23.9929 30.6369V24.6528C23.9929 24.5395 23.8938 24.4445 23.78 24.4445Z" fill="#DCE9F7"/>
<path fill-rule="evenodd" clip-rule="evenodd" d="M39.2968 26.4038H39.1353V26.1077H39.1904C39.2895 26.1077 39.3702 26.0127 39.3702 25.8957C39.3702 25.7787 39.2895 25.6837 39.1904 25.6837H38.9921V24.4262C38.9921 24.3092 38.9077 24.2142 38.8123 24.2142C38.7131 24.2142 38.6324 24.3092 38.6324 24.4262V25.6837H38.4342C38.335 25.6837 38.2506 25.7787 38.2506 25.8957C38.2506 26.0127 38.335 26.1077 38.4342 26.1077H38.4892V26.4038H38.3277C38.2176 26.4038 38.1258 26.5098 38.1258 26.6414V30.604C38.1258 30.7356 38.2176 30.8416 38.3277 30.8416H39.3005C39.4143 30.8416 39.5061 30.7356 39.5061 30.604V26.6451C39.4987 26.5135 39.4069 26.4038 39.2968 26.4038Z" fill="#B3CEEB"/>
<path fill-rule="evenodd" clip-rule="evenodd" d="M40.8717 26.8717H40.7285V26.6049H40.7799C40.868 26.6049 40.9451 26.5208 40.9451 26.4148C40.9451 26.3088 40.8717 26.2247 40.7799 26.2247H40.6037V25.0988C40.6037 24.9928 40.5303 24.9087 40.4385 24.9087C40.3467 24.9087 40.2733 24.9928 40.2733 25.0988V26.2247H40.0971C40.0053 26.2247 39.9319 26.3088 39.9319 26.4148C39.9319 26.5208 40.0053 26.6049 40.0971 26.6049H40.1448V26.8717H40.0017C39.9025 26.8717 39.8181 26.9668 39.8181 27.0838V30.6296C39.8181 30.7466 39.9025 30.8416 40.0017 30.8416H40.8717C40.9708 30.8416 41.0515 30.7466 41.0515 30.6296V27.0838C41.0515 26.9668 40.9708 26.8717 40.8717 26.8717Z" fill="#B3CEEB"/>
<path fill-rule="evenodd" clip-rule="evenodd" d="M43.5624 26.6487H41.1616C41.0478 26.6487 40.9561 26.7401 40.9561 26.8535V30.6442C40.9561 30.7575 41.0478 30.8453 41.1616 30.8453H43.5624C43.6762 30.8453 43.768 30.7539 43.768 30.6442V26.8535C43.7643 26.7401 43.6762 26.6487 43.5624 26.6487Z" fill="#DCE9F7"/>
<path fill-rule="evenodd" clip-rule="evenodd" d="M43.0925 27.5882H41.6278C41.5544 27.5882 41.4883 27.6504 41.4883 27.7235V28.5204C41.4883 28.5935 41.5507 28.6593 41.6278 28.6593H43.0925C43.1659 28.6593 43.232 28.5971 43.232 28.5204V27.7235C43.232 27.6504 43.1696 27.5882 43.0925 27.5882Z" fill="#F5F6F5"/>
<path fill-rule="evenodd" clip-rule="evenodd" d="M43.1182 28.9005H41.6095C41.5471 28.9005 41.492 28.9517 41.492 29.0139V29.1235C41.492 29.1857 41.5434 29.2369 41.6095 29.2369H43.1182C43.1806 29.2369 43.232 29.1857 43.232 29.1235V29.0139C43.232 28.9517 43.1806 28.9005 43.1182 28.9005Z" fill="#F5F6F5"/>
<path fill-rule="evenodd" clip-rule="evenodd" d="M43.1182 29.5585H41.6095C41.5471 29.5585 41.492 29.6097 41.492 29.6719V29.7815C41.492 29.8437 41.5434 29.8948 41.6095 29.8948H43.1182C43.1806 29.8948 43.232 29.8437 43.232 29.7815V29.6719C43.232 29.6097 43.1806 29.5585 43.1182 29.5585Z" fill="#F5F6F5"/>
<path fill-rule="evenodd" clip-rule="evenodd" d="M40.5927 28.2681H39.117C39.0472 28.2681 38.9922 28.323 38.9922 28.3924V30.721C38.9922 30.7904 39.0472 30.8453 39.117 30.8453H40.5927C40.6624 30.8453 40.7175 30.7904 40.7175 30.721V28.3924C40.7175 28.323 40.6624 28.2681 40.5927 28.2681Z" fill="#B8D3EE"/>
<path fill-rule="evenodd" clip-rule="evenodd" d="M37.4614 24.5432H32.458C32.223 24.5432 32.0322 24.7332 32.0322 24.9672V30.4249C32.0322 30.6588 32.223 30.8489 32.458 30.8489H37.4614C37.6963 30.8489 37.8909 30.6588 37.8909 30.4249V24.9635C37.8872 24.7332 37.6963 24.5432 37.4614 24.5432Z" fill="#B8D3EE"/>
<path fill-rule="evenodd" clip-rule="evenodd" d="M38.4195 28.2681H36.9438C36.874 28.2681 36.819 28.323 36.819 28.3924V30.721C36.819 30.7904 36.874 30.8453 36.9438 30.8453H38.4195C38.4892 30.8453 38.5443 30.7904 38.5443 30.721V28.3924C38.5443 28.323 38.4892 28.2681 38.4195 28.2681Z" fill="#DCE9F7"/>
<path fill-rule="evenodd" clip-rule="evenodd" d="M15.0947 26.879H19.2905C19.452 26.879 19.5842 27.007 19.5842 27.1678V30.5565C19.5842 30.7137 19.452 30.8453 19.2905 30.8453H18.6371C17.712 29.6792 16.3501 28.864 14.8047 28.6483V27.1642C14.801 27.007 14.9332 26.879 15.0947 26.879Z" fill="#B3CEEB"/>
<path fill-rule="evenodd" clip-rule="evenodd" d="M17.11 28.1439H19.9659C20.0761 28.1439 20.1642 28.2316 20.1642 28.3413V30.6515C20.1642 30.7612 20.0761 30.8489 19.9659 30.8489H18.6371C18.1635 30.2531 17.5762 29.7486 16.9118 29.3685V28.3413C16.9118 28.2316 16.9999 28.1439 17.11 28.1439Z" fill="#B8D3EE"/>
<path fill-rule="evenodd" clip-rule="evenodd" d="M16.3318 28.9444H17.2825C17.3266 28.9444 17.3633 28.981 17.3633 29.0248V29.6499C17.0182 29.4087 16.6438 29.204 16.251 29.0431V29.0248C16.251 28.981 16.2877 28.9444 16.3318 28.9444Z" fill="#F0F1EE"/>
<path fill-rule="evenodd" clip-rule="evenodd" d="M10.15 25.3291H7.83733C8.41733 26.4148 9.32036 27.314 10.418 27.888V25.596C10.4216 25.4497 10.2968 25.3291 10.15 25.3291Z" fill="#EAEAE6"/>
<path fill-rule="evenodd" clip-rule="evenodd" d="M9.53696 26.5647H8.71101C9.01203 26.8973 9.34975 27.1971 9.71684 27.4566V26.7438C9.71684 26.6487 9.63608 26.5647 9.53696 26.5647Z" fill="#E3E2DC"/>
<path fill-rule="evenodd" clip-rule="evenodd" d="M12.0112 41.6546H11.7579V41.1867H11.846C12.0038 41.1867 12.1323 41.0369 12.1323 40.8504C12.1323 40.664 12.0038 40.5141 11.846 40.5141H11.5523C11.1522 40.5836 10.7557 40.6713 10.3666 40.7773C10.3629 40.8029 10.3593 40.8285 10.3593 40.8504C10.3593 41.0369 10.4877 41.1867 10.6456 41.1867H10.7337V41.6546H10.4804C10.3042 41.6546 10.161 41.8228 10.161 42.0312V48.2711C10.161 48.4759 10.3042 48.6477 10.4804 48.6477H12.0148C12.191 48.6477 12.3342 48.4795 12.3342 48.2711V42.0312C12.3305 41.8265 12.1874 41.6546 12.0112 41.6546Z" fill="#B3CEEB"/>
<path fill-rule="evenodd" clip-rule="evenodd" d="M14.489 42.3894H14.2614V41.969H14.3385C14.478 41.969 14.5954 41.8338 14.5954 41.6693C14.5954 41.5048 14.4817 41.3695 14.3385 41.3695H14.0558V40.3021C14.0301 40.3021 14.0044 40.3021 13.9824 40.3021C13.8356 40.3021 13.6924 40.3058 13.5456 40.3094V41.3695H13.2629C13.1234 41.3695 13.006 41.5048 13.006 41.6693C13.006 41.8338 13.1198 41.969 13.2629 41.969H13.34V42.3894H13.1124C12.9546 42.3894 12.8261 42.5393 12.8261 42.7257V48.3114C12.8261 48.4978 12.9546 48.6477 13.1124 48.6477H14.4853C14.6432 48.6477 14.7717 48.4978 14.7717 48.3114V42.7257C14.7753 42.543 14.6468 42.3894 14.489 42.3894Z" fill="#DEDED7"/>
<path fill-rule="evenodd" clip-rule="evenodd" d="M18.7252 42.0421H14.9442C14.768 42.0421 14.6211 42.1847 14.6211 42.3602V48.3296C14.6211 48.5051 14.7643 48.6477 14.9442 48.6477H18.7252C18.9014 48.6477 19.0482 48.5051 19.0482 48.3296V42.3602C19.0519 42.1847 18.905 42.0421 18.7252 42.0421Z" fill="#F9F9FA"/>
<path fill-rule="evenodd" clip-rule="evenodd" d="M17.991 43.5226H15.682C15.5609 43.5226 15.4655 43.6213 15.4655 43.7383V44.9885C15.4655 45.1055 15.5646 45.2042 15.682 45.2042H17.991C18.1122 45.2042 18.2076 45.1055 18.2076 44.9885V43.7383C18.2076 43.6177 18.1085 43.5226 17.991 43.5226Z" fill="#F5F6F5"/>
<path fill-rule="evenodd" clip-rule="evenodd" d="M18.024 45.588H15.6453C15.5462 45.588 15.4618 45.6684 15.4618 45.7708V45.9426C15.4618 46.0413 15.5425 46.1254 15.6453 46.1254H18.0204C18.1195 46.1254 18.2039 46.045 18.2039 45.9426V45.7708C18.2076 45.6684 18.1268 45.588 18.024 45.588Z" fill="#F5F6F5"/>
<path fill-rule="evenodd" clip-rule="evenodd" d="M18.024 46.6225H15.6453C15.5462 46.6225 15.4618 46.7029 15.4618 46.8053V46.9771C15.4618 47.0758 15.5425 47.1599 15.6453 47.1599H18.0204C18.1195 47.1599 18.2039 47.0794 18.2039 46.9771V46.8053C18.2076 46.7066 18.1268 46.6225 18.024 46.6225Z" fill="#F5F6F5"/>
<path fill-rule="evenodd" clip-rule="evenodd" d="M14.0522 44.5864H11.7322C11.622 44.5864 11.5339 44.6741 11.5339 44.7838V48.4503C11.5339 48.5599 11.622 48.6477 11.7322 48.6477H14.0558C14.166 48.6477 14.2541 48.5599 14.2541 48.4503V44.7838C14.2504 44.6778 14.1623 44.5864 14.0522 44.5864Z" fill="#EAEAE6"/>
<path fill-rule="evenodd" clip-rule="evenodd" d="M1.16002 48.644C1.18939 48.6477 1.21875 48.6513 1.24812 48.6513H9.12584C9.4966 48.6513 9.79762 48.3516 9.79762 47.986V40.9418C5.92483 42.1518 2.77154 44.9922 1.16002 48.644Z" fill="#C1DBF2"/>
<path fill-rule="evenodd" clip-rule="evenodd" d="M10.6272 44.5864H8.30353C8.1934 44.5864 8.1053 44.6741 8.1053 44.7838V48.4503C8.1053 48.5599 8.1934 48.6477 8.30353 48.6477H10.6272C10.7373 48.6477 10.8254 48.5599 10.8254 48.4503V44.7838C10.8254 44.6778 10.7373 44.5864 10.6272 44.5864Z" fill="#C1DBF2"/>
<path fill-rule="evenodd" clip-rule="evenodd" d="M20.3954 64.2494H22.609C22.7668 64.2494 22.8916 64.3737 22.8916 64.5309V66.1686C22.8916 66.3221 22.7632 66.4501 22.609 66.4501H20.3954C20.2376 66.4501 20.1128 66.3258 20.1128 66.1686V64.5309C20.1128 64.3774 20.2376 64.2494 20.3954 64.2494Z" fill="#EAEAE6"/>
<path fill-rule="evenodd" clip-rule="evenodd" d="M23.9452 60.6963H30.0278C30.2591 60.6963 30.45 60.8864 30.45 61.1167V66.0333C30.45 66.2636 30.2591 66.4537 30.0278 66.4537H23.9452C23.7139 66.4537 23.523 66.2636 23.523 66.0333V61.1167C23.523 60.8827 23.7139 60.6963 23.9452 60.6963Z" fill="#EAEAE6"/>
<path fill-rule="evenodd" clip-rule="evenodd" d="M26.8672 62.5313H31.0117C31.1695 62.5313 31.3017 62.6593 31.3017 62.8165V66.1649C31.3017 66.3221 31.1732 66.4501 31.0117 66.4501H26.8672C26.7094 66.4501 26.5772 66.3221 26.5772 66.1649V62.8165C26.5772 62.6593 26.7094 62.5313 26.8672 62.5313Z" fill="#E1E1D9"/>
<path fill-rule="evenodd" clip-rule="evenodd" d="M29.7489 57.1723H33.339C33.5079 57.1723 33.6437 57.3112 33.6437 57.4757V66.1466C33.6437 66.3148 33.5042 66.4501 33.339 66.4501H29.7489C29.58 66.4501 29.4442 66.3148 29.4442 66.1466V57.4757C29.4442 57.3039 29.58 57.1723 29.7489 57.1723Z" fill="#B8D3EE"/>
<path fill-rule="evenodd" clip-rule="evenodd" d="M7.25366 60.009H7.4886V59.5777H7.40784C7.26468 59.5777 7.14354 59.4388 7.14354 59.267C7.14354 59.0988 7.26468 58.9562 7.40784 58.9562H7.69784V57.1321C7.69784 56.964 7.81898 56.8214 7.96215 56.8214C8.10531 56.8214 8.22645 56.9603 8.22645 57.1321V58.9562H8.51645C8.65961 58.9562 8.78075 59.0951 8.78075 59.267C8.78075 59.4351 8.65961 59.5777 8.51645 59.5777H8.43569V60.009H8.67063C8.83215 60.009 8.9643 60.1662 8.9643 60.3526V66.0991C8.9643 66.2892 8.83215 66.4464 8.67063 66.4464H7.59506C7.38214 66.3367 7.1729 66.2197 6.96366 66.1028V66.0991V60.3526C6.95632 60.1662 7.09214 60.009 7.25366 60.009Z" fill="#DEDED7"/>
<path fill-rule="evenodd" clip-rule="evenodd" d="M4.97038 60.6853H5.17962V60.2978H5.10988C4.9814 60.2978 4.87127 60.1735 4.87127 60.02C4.87127 59.8665 4.97773 59.7422 5.10988 59.7422H5.36684V58.1082C5.36684 57.9546 5.4733 57.8303 5.60545 57.8303C5.73393 57.8303 5.84405 57.9546 5.84405 58.1082V59.7422H6.10102C6.2295 59.7422 6.33962 59.8665 6.33962 60.02C6.33962 60.1735 6.23317 60.2978 6.10102 60.2978H6.03127V60.6853H6.24051C6.38367 60.6853 6.50481 60.8242 6.50481 60.996V65.825C5.86975 65.4229 5.27507 64.9732 4.71342 64.4834V60.9997C4.70608 60.8242 4.82722 60.6853 4.97038 60.6853Z" fill="#DEDED7"/>
<path fill-rule="evenodd" clip-rule="evenodd" d="M1.49771 60.3636H4.54822C4.71341 60.3636 4.84556 60.4952 4.84556 60.6561V64.604C3.47265 63.4269 2.32733 61.9867 1.49771 60.3636Z" fill="#F9F9FA"/>
<path fill-rule="evenodd" clip-rule="evenodd" d="M2.29797 61.7271H3.86911C3.97924 61.7271 4.07101 61.8185 4.07101 61.9245V63.076C4.07101 63.1857 3.97924 63.2734 3.86911 63.2734H3.49101C3.05785 62.7909 2.66139 62.2718 2.29797 61.7271Z" fill="#F5F6F5"/>
<path fill-rule="evenodd" clip-rule="evenodd" d="M3.82141 63.6317H3.90217C3.99394 63.6317 4.07103 63.7048 4.07103 63.7961V63.8839C3.9866 63.8035 3.90217 63.7194 3.82141 63.6317Z" fill="#F5F6F5"/>
<path fill-rule="evenodd" clip-rule="evenodd" d="M5.37053 62.7105H7.51065C7.60977 62.7105 7.6942 62.7909 7.6942 62.8932V66.2709C7.6942 66.3477 7.6428 66.4172 7.56939 66.4391C6.72141 66.0004 5.92483 65.4813 5.18698 64.8891V62.8896C5.19065 62.7909 5.27141 62.7105 5.37053 62.7105Z" fill="#EAEAE6"/>
<path fill-rule="evenodd" clip-rule="evenodd" d="M9.91139 57.3076H17.1651C17.5064 57.3076 17.7818 57.5854 17.7818 57.9217V65.8359C17.7818 66.1722 17.5028 66.4501 17.1651 66.4501H9.91139C9.56999 66.4501 9.29468 66.1722 9.29468 65.8359V57.9217C9.29468 57.5854 9.56999 57.3076 9.91139 57.3076Z" fill="#EAEAE6"/>
<path fill-rule="evenodd" clip-rule="evenodd" d="M8.52748 62.7105H10.6639C10.763 62.7105 10.8475 62.7909 10.8475 62.8932V66.2709C10.8475 66.3696 10.763 66.4501 10.6639 66.4501H8.52748C8.42836 66.4501 8.34393 66.3696 8.34393 66.2709V62.8932C8.34393 62.7909 8.42469 62.7105 8.52748 62.7105Z" fill="#F9F9FA"/>
<path fill-rule="evenodd" clip-rule="evenodd" d="M45.8898 64.2494H43.6725C43.5147 64.2494 43.3899 64.3737 43.3899 64.5309V66.1686C43.3899 66.3221 43.5184 66.4501 43.6725 66.4501H45.8898C46.0439 66.4501 46.1724 66.3221 46.1724 66.1686V64.5309C46.1724 64.3774 46.0439 64.2494 45.8898 64.2494Z" fill="#EAEAE6"/>
<path fill-rule="evenodd" clip-rule="evenodd" d="M42.34 60.6963H36.2573C36.0224 60.6963 35.8352 60.8864 35.8352 61.1167V66.0333C35.8352 66.2636 36.0261 66.4537 36.2573 66.4537H42.34C42.5749 66.4537 42.7621 66.2636 42.7621 66.0333V61.1167C42.7621 60.8827 42.5712 60.6963 42.34 60.6963Z" fill="#EAEAE6"/>
<path fill-rule="evenodd" clip-rule="evenodd" d="M39.418 62.5313H35.2772C35.1194 62.5313 34.9872 62.6593 34.9872 62.8165V66.1649C34.9872 66.3221 35.1157 66.4501 35.2772 66.4501H39.418C39.5795 66.4501 39.708 66.3221 39.708 66.1649V62.8165C39.708 62.6593 39.5795 62.5313 39.418 62.5313Z" fill="#E1E1D9"/>
<path fill-rule="evenodd" clip-rule="evenodd" d="M40.5486 63.6901H39.172C39.106 63.6901 39.0546 63.7413 39.0546 63.8071V66.3331C39.0546 66.3989 39.106 66.4501 39.172 66.4501H40.5486C40.6147 66.4501 40.6661 66.3989 40.6661 66.3331V63.8071C40.6661 63.745 40.6147 63.6901 40.5486 63.6901Z" fill="#F0F1EE"/>
<path fill-rule="evenodd" clip-rule="evenodd" d="M15.5205 40.9638L17.1687 40.8139C17.2752 40.8029 17.367 40.8834 17.367 40.993V41.5194C17.367 41.6254 17.2789 41.7205 17.1687 41.7314L15.5205 41.8777C15.414 41.8886 15.3259 41.8082 15.3259 41.6985V41.1721C15.3259 41.0698 15.414 40.9711 15.5205 40.9638Z" fill="white"/>
<path d="M60.019 57.6402C60.019 58.2251 59.5418 58.7004 58.9544 58.7004H25.8651C25.2777 58.7004 24.8005 58.2251 24.8005 57.6402V11.8475C24.8005 11.2627 25.2777 10.7874 25.8651 10.7874H58.9508C59.5381 10.7874 60.0153 11.2627 60.0153 11.8475V57.6402H60.019Z" fill="#2D3C75"/>
<path d="M58.5213 15.5323H27.9538V56.7227H58.5213V15.5323Z" fill="#212B56"/>
<path d="M60.1805 10.7838H58.9508C59.5381 10.7838 60.0153 11.259 60.0153 11.8439V57.6366C60.0153 58.2215 59.5381 58.6967 58.9508 58.6967H60.1805C60.7679 58.6967 61.2451 58.2215 61.2451 57.6366V11.8476C61.2488 11.259 60.7715 10.7838 60.1805 10.7838Z" fill="#212B56"/>
<path d="M57.6917 14.6367H27.1242V55.8235H57.6917V14.6367Z" fill="white"/>
<path d="M51.2089 9.51535H33.607V16.3621H51.2089V9.51535Z" fill="#7CC2EC"/>
<path opacity="0.5" d="M51.2125 9.51535H47.1232V16.3621H51.2125V9.51535Z" fill="white"/>
<path d="M36.0481 14.209V9.51535H33.607V16.3621H51.2089V14.209H36.0481Z" fill="#5DAADE"/>
<path d="M37.065 9.6579V7.82283C37.065 7.45362 37.366 7.15387 37.7367 7.15387H47.0791C47.4499 7.15387 47.7509 7.45362 47.7509 7.82283V9.6579H48.9036V7.82283C48.9036 6.82122 48.085 6.00238 47.0755 6.00238H37.7367C36.7309 6.00238 35.9086 6.81756 35.9086 7.82283V9.6579H37.065Z" fill="#7CC2EC"/>
<path d="M38.9702 22.5363H49.1165" stroke="#C3D7E1" stroke-width="9.978" stroke-miterlimit="10"/>
<path d="M49.9901 22.5363H54.8394" stroke="#C3D7E1" stroke-width="9.978" stroke-miterlimit="10"/>
<path d="M54.8394 26.572H44.6931" stroke="#C3D7E1" stroke-width="9.978" stroke-miterlimit="10"/>
<path d="M43.8157 26.572H38.9702" stroke="#C3D7E1" stroke-width="9.978" stroke-miterlimit="10"/>
<path d="M38.9702 28.5935H42.854" stroke="#C3D7E1" stroke-width="9.978" stroke-miterlimit="10"/>
<path d="M43.478 28.5935H49.5056" stroke="#C3D7E1" stroke-width="9.978" stroke-miterlimit="10"/>
<path d="M38.9702 24.5542H42.854" stroke="#C3D7E1" stroke-width="9.978" stroke-miterlimit="10"/>
<path d="M43.478 24.5542H47.2957" stroke="#C3D7E1" stroke-width="9.978" stroke-miterlimit="10"/>
<path d="M47.6922 24.5542H54.8394" stroke="#C3D7E1" stroke-width="9.978" stroke-miterlimit="10"/>
<path d="M30.0058 32.5598H45.8641" stroke="#C3D7E1" stroke-width="9.978" stroke-miterlimit="10"/>
<path d="M47.2333 32.5598H54.81" stroke="#C3D7E1" stroke-width="9.978" stroke-miterlimit="10"/>
<path d="M54.81 36.5954H38.9518" stroke="#C3D7E1" stroke-width="9.978" stroke-miterlimit="10"/>
<path d="M37.5825 36.5954H30.0058" stroke="#C3D7E1" stroke-width="9.978" stroke-miterlimit="10"/>
<path d="M30.0058 38.6169H36.0775" stroke="#C3D7E1" stroke-width="9.978" stroke-miterlimit="10"/>
<path d="M37.054 38.6169H46.4771" stroke="#C3D7E1" stroke-width="9.978" stroke-miterlimit="10"/>
<path d="M30.0058 34.5776H36.0775" stroke="#C3D7E1" stroke-width="9.978" stroke-miterlimit="10"/>
<path d="M37.054 34.5776H43.0191" stroke="#C3D7E1" stroke-width="9.978" stroke-miterlimit="10"/>
<path d="M43.6395 34.5776H54.81" stroke="#C3D7E1" stroke-width="9.978" stroke-miterlimit="10"/>
<path d="M30.0058 42.6526H45.8641" stroke="#C3D7E1" stroke-width="9.978" stroke-miterlimit="10"/>
<path d="M47.2333 42.6526H54.81" stroke="#C3D7E1" stroke-width="9.978" stroke-miterlimit="10"/>
<path d="M54.81 46.6884H38.9518" stroke="#C3D7E1" stroke-width="9.978" stroke-miterlimit="10"/>
<path d="M37.5825 46.6884H30.0058" stroke="#C3D7E1" stroke-width="9.978" stroke-miterlimit="10"/>
<path d="M30.0058 48.7098H36.0775" stroke="#C3D7E1" stroke-width="9.978" stroke-miterlimit="10"/>
<path d="M37.054 48.7098H46.4771" stroke="#C3D7E1" stroke-width="9.978" stroke-miterlimit="10"/>
<path d="M30.0058 44.6705H36.0775" stroke="#C3D7E1" stroke-width="9.978" stroke-miterlimit="10"/>
<path d="M37.054 44.6705H43.0191" stroke="#C3D7E1" stroke-width="9.978" stroke-miterlimit="10"/>
<path d="M43.6395 44.6705H54.81" stroke="#C3D7E1" stroke-width="9.978" stroke-miterlimit="10"/>
<path d="M37.656 25.5631C37.656 27.665 35.9453 29.3721 33.8309 29.3721C31.7202 29.3721 30.0058 27.6687 30.0058 25.5631C30.0058 23.4612 31.7165 21.754 33.8309 21.754C35.9453 21.7577 37.656 23.4612 37.656 25.5631Z" fill="#CAE2F5"/>
<path d="M34.51 23.1577H33.1518V27.9721H34.51V23.1577Z" fill="white"/>
<path d="M36.25 24.8868H31.4155V26.2394H36.25V24.8868Z" fill="white"/>
<path d="M66.2084 36.7198L64.3266 37.9014L66.1104 40.7184L67.9921 39.5368L66.2084 36.7198Z" fill="#9FD3F3"/>
<path opacity="0.5" d="M68.5501 29.8985C67.3865 35.0089 62.2839 38.2148 57.152 37.056C52.0201 35.8972 48.8008 30.8161 49.9644 25.7056C51.1281 20.5952 56.2306 17.3893 61.3625 18.5481C66.4908 19.7069 69.7101 24.7881 68.5501 29.8985Z" fill="#9BD7F6"/>
<path opacity="0.5" d="M68.5501 29.8985C67.3865 35.0089 62.2839 38.2148 57.152 37.056C52.0201 35.8972 48.8008 30.816 49.9644 25.7056L68.5501 29.8985Z" fill="#9BD7F6"/>
<path d="M52.9268 17.828C47.3875 21.3081 45.7282 28.6008 49.2229 34.117C52.7176 39.6332 60.041 41.2855 65.5804 37.8054C71.1198 34.3254 72.779 27.0326 69.2843 21.5164C65.7896 16.0002 58.4662 14.3479 52.9268 17.828ZM64.336 35.8424C59.8832 38.6389 53.9987 37.3119 51.1942 32.8778C48.386 28.4436 49.7185 22.5838 54.1713 19.791C58.6241 16.9945 64.5085 18.3215 67.313 22.7556C70.1213 27.1861 68.7887 33.0459 64.336 35.8424Z" fill="#354789"/>
<path opacity="0.5" d="M64.8719 22.4778C64.7067 23.505 62.64 24.0277 60.2613 23.6439C57.8825 23.2601 56.0911 22.1159 56.2563 21.0887C56.4215 20.0615 58.4882 19.5388 60.867 19.9226C63.2457 20.3064 65.0371 21.4506 64.8719 22.4778Z" fill="white"/>
<path d="M79.4416 54.3284C80.2859 55.659 79.8858 57.4209 78.5459 58.2617C77.2097 59.1025 75.4404 58.704 74.5961 57.3698L65.8447 43.5555C65.0004 42.2213 65.4005 40.463 66.7404 39.6222C68.0802 38.7814 69.8459 39.1799 70.6902 40.5142L79.4416 54.3284Z" fill="#755796"/>
<path opacity="0.5" d="M68.0179 39.1945L79.4821 57.2967C80.007 56.4047 80.029 55.2605 79.438 54.3284L70.6866 40.5142C70.0993 39.5784 69.0531 39.1031 68.0179 39.1945Z" fill="white"/>
<path d="M79.449 55.966C78.1091 56.8068 76.3434 56.4084 75.4991 55.0741L66.7477 41.2599C66.4871 40.8505 66.3476 40.4008 66.3146 39.9512C65.3271 40.8651 65.0995 42.3785 65.8447 43.5555L74.5961 57.3698C75.4404 58.7004 77.2098 59.1025 78.546 58.2617C79.471 57.6805 79.9482 56.6533 79.8748 55.637C79.7463 55.7577 79.6032 55.8673 79.449 55.966Z" fill="#5C468D"/>
<path d="M36.1325 37.3485C28.0052 37.3485 25.2777 32.0992 25.2777 32.0992C25.2777 32.0992 22.5539 37.3485 14.4229 37.3485C14.4229 37.3485 11.9194 52.9247 25.2777 58.7004C38.6361 52.9247 36.1325 37.3485 36.1325 37.3485Z" fill="#354789"/>
<path d="M34.1906 39.3554C29.7562 38.9204 26.926 37.0341 25.2814 35.4366C23.6368 37.0341 20.8066 38.9167 16.3722 39.3554C16.3134 40.8139 16.3612 43.073 16.9338 45.5259C18.1085 50.5778 20.9167 54.226 25.2814 56.3864C29.6461 54.226 32.4543 50.5778 33.629 45.5259C34.198 43.073 34.2494 40.8139 34.1906 39.3554Z" fill="#9FD3F3"/>
<path d="M26.6873 40.4118H23.8754V50.3877H26.6873V40.4118Z" fill="white"/>
<path d="M30.2885 43.9979H20.2706V46.798H30.2885V43.9979Z" fill="white"/>
<path d="M25.1933 32.249C24.672 33.1081 21.7353 37.3485 14.4266 37.3485C14.4266 37.3485 11.9341 52.8552 25.1933 58.6602V32.249Z" fill="#9DC1D4"/>
<path d="M32.4506 41.1941C32.2414 41.8703 30.7143 42.0019 29.0404 41.4865C27.3665 40.9747 26.1771 40.0097 26.3863 39.3334C26.5956 38.6571 28.1227 38.5255 29.7966 39.041C31.4705 39.5527 32.6599 40.5178 32.4506 41.1941Z" fill="#C3E0F6"/>
</svg>
