<svg width="87" height="65" viewBox="0 0 87 65" fill="none" xmlns="http://www.w3.org/2000/svg">
<path fill-rule="evenodd" clip-rule="evenodd" d="M13.9824 68.9926C6.2919 68.9926 0 62.6683 0 54.9418C0 47.2154 6.2919 40.8911 13.9824 40.8911C17.2348 40.8911 19.8962 38.2167 19.8962 34.9525C19.8962 31.6847 17.2348 29.014 13.9824 29.014H13.2776C9.89671 29.014 7.12886 26.2357 7.12886 22.838C7.12886 19.4403 9.89671 16.6621 13.2776 16.6621H15.4361C16.7503 16.6621 17.8295 15.579 17.8295 14.2585C17.8295 12.938 16.7539 11.8549 15.4361 11.8549H13.8503C12.9399 11.8549 12.1984 11.1093 12.1984 10.1968C12.1984 9.28432 12.9435 8.53876 13.8503 8.53876H24.5142C25.9422 8.53876 27.1095 7.36663 27.1095 5.93114C27.1095 4.49565 25.9422 3.32351 24.5142 3.32351H21.3278C20.4175 3.32351 19.6759 2.57795 19.6759 1.66547C19.6759 0.752983 20.4211 0.00741856 21.3278 0.00741856H66.6743C67.86 0.00741856 68.8291 0.982959 68.8291 2.17364C68.8291 3.36432 67.8563 4.33986 66.6743 4.33986H63.4072C61.5461 4.33986 60.019 5.87179 60.019 7.74126C60.019 9.61074 61.5424 11.1427 63.4072 11.1427H77.408C78.5937 11.1427 79.5628 12.1182 79.5628 13.3089C79.5628 14.4996 78.5937 15.4751 77.408 15.4751H75.3376C73.6196 15.4751 72.2137 16.8883 72.2137 18.6132C72.2137 20.338 73.6196 21.7512 75.3376 21.7512H78.1532C82.5656 21.7512 86.174 25.3789 86.174 29.8115C86.174 34.2441 82.5656 37.8717 78.1532 37.8717H77.2354C72.9919 37.8717 69.5192 41.3585 69.5192 45.6241C69.5192 49.8898 72.9919 53.3765 77.2354 53.3765H79.2251C83.5053 53.3765 87.0037 56.8929 87.0037 61.192C87.0037 65.491 83.5016 69.0074 79.2251 69.0074C57.086 68.9926 36.1215 68.9926 13.9824 68.9926ZM72.188 4.33244C73.3773 4.33244 74.3428 3.36432 74.3428 2.16622C74.3428 0.968122 73.3773 0 72.188 0C70.9986 0 70.0332 0.968122 70.0332 2.16622C70.0332 3.36432 70.9949 4.33244 72.188 4.33244ZM9.2176 11.8511C10.1316 11.8511 10.8695 11.1093 10.8695 10.1931C10.8695 9.27691 10.128 8.53505 9.2176 8.53505C8.30354 8.53505 7.5657 9.27691 7.5657 10.1931C7.5657 11.1093 8.30354 11.8511 9.2176 11.8511Z" fill="#C1DBF2"/>
<path fill-rule="evenodd" clip-rule="evenodd" d="M43.801 13.6353H17.7487C17.8001 13.8319 17.8295 14.0433 17.8295 14.2548C17.8295 15.5753 16.7539 16.6584 15.4361 16.6584H13.2776C9.89669 16.6584 7.12885 19.4366 7.12885 22.8343C7.12885 22.8529 7.12885 22.8714 7.12885 22.89H43.7973C46.3302 22.89 48.4043 20.809 48.4043 18.2608C48.408 15.7199 46.3339 13.6353 43.801 13.6353Z" fill="#DCE9F7"/>
<path fill-rule="evenodd" clip-rule="evenodd" d="M7.69785 20.2601H48.408V68.9926H13.9824C6.2919 68.9926 0 62.6683 0 54.9418C0 47.2154 6.2919 40.8911 13.9824 40.8911C17.2348 40.8911 19.8962 38.2167 19.8962 34.9525C19.8962 31.6847 17.2348 29.014 13.9824 29.014H13.2776C9.89671 29.014 7.12886 26.2357 7.12886 22.838C7.13253 21.9181 7.33443 21.0465 7.69785 20.2601Z" fill="#CDE0F3"/>
<path fill-rule="evenodd" clip-rule="evenodd" d="M7.28671 24.2068H45.0932C46.1761 24.2068 47.0608 25.2602 47.0608 26.551V68.9926H13.9824C6.2919 68.9926 0 62.6683 0 54.9418C0 47.2154 6.2919 40.8911 13.9824 40.8911C17.2348 40.8911 19.8962 38.2167 19.8962 34.9525C19.8962 31.6847 17.2348 29.014 13.9824 29.014H13.2776C10.3666 29.014 7.91076 26.9516 7.28671 24.2068Z" fill="#C1DBF2"/>
<path fill-rule="evenodd" clip-rule="evenodd" d="M19.5658 32.9977H47.0607V36.9889H19.5364C19.7677 36.3509 19.8962 35.6684 19.8962 34.9525C19.8962 34.27 19.7787 33.6135 19.5658 32.9977Z" fill="#CDE0F3"/>
<path fill-rule="evenodd" clip-rule="evenodd" d="M48.9916 31.2989H18.6371C19.4263 32.3078 19.8962 33.5801 19.8962 34.9525C19.8962 35.0675 19.8925 35.1788 19.8852 35.2901H48.988C49.7038 35.2901 50.2838 34.704 50.2838 33.9881V32.6046C50.2875 31.885 49.7038 31.2989 48.9916 31.2989Z" fill="#DCE9F7"/>
<path fill-rule="evenodd" clip-rule="evenodd" d="M0.546962 51.0619H47.0608V55.0531H0.00367089C0.00367089 55.016 0 54.9789 0 54.9418C0 53.5991 0.190886 52.2971 0.546962 51.0619Z" fill="#CDE0F3"/>
<path fill-rule="evenodd" clip-rule="evenodd" d="M48.9916 49.3631H1.1563C0.616681 50.6131 0.249593 51.9521 0.0880737 53.3542H48.9879C49.7038 53.3542 50.2838 52.7682 50.2838 52.0523V50.665C50.2874 49.9491 49.7038 49.3631 48.9916 49.3631Z" fill="#DCE9F7"/>
<path fill-rule="evenodd" clip-rule="evenodd" d="M48.9916 18.2645H9.15884C8.05023 19.2734 7.30871 20.6829 7.1582 22.2557H48.9879C49.7038 22.2557 50.2838 21.6696 50.2838 20.9537V19.5665C50.2874 18.8506 49.7038 18.2645 48.9916 18.2645Z" fill="#DCE9F7"/>
<path fill-rule="evenodd" clip-rule="evenodd" d="M10.7631 17.263H44.7848C45.7062 17.263 46.4587 16.4098 46.4587 15.3712C46.4587 14.9669 46.3449 14.5923 46.1541 14.2844C47.4866 14.9818 48.4153 16.5063 48.4153 18.2645H9.15887C9.63242 17.8565 10.172 17.5152 10.7631 17.263Z" fill="#CDE0F3"/>
<path fill-rule="evenodd" clip-rule="evenodd" d="M45.4382 39.2776H39.752C39.484 39.2776 39.2675 39.4964 39.2675 39.7672V48.8772C39.2675 49.148 39.484 49.3668 39.752 49.3668H45.4382C45.7062 49.3668 45.9228 49.148 45.9228 48.8772V39.7672C45.9228 39.4964 45.7062 39.2776 45.4382 39.2776Z" fill="#EAEAE6"/>
<path fill-rule="evenodd" clip-rule="evenodd" d="M38.5002 39.2776H35.6112C35.4754 39.2776 35.3653 39.3888 35.3653 39.5261V49.1146C35.3653 49.2518 35.4754 49.3631 35.6112 49.3631H38.5002C38.6361 49.3631 38.7462 49.2518 38.7462 49.1146V39.5261C38.7462 39.3888 38.6361 39.2776 38.5002 39.2776Z" fill="#E7E9E3"/>
<path fill-rule="evenodd" clip-rule="evenodd" d="M36.0665 37.3784H32.7076C32.5497 37.3784 32.4213 37.5082 32.4213 37.6677V49.0775C32.4213 49.237 32.5497 49.3668 32.7076 49.3668H36.0701C36.228 49.3668 36.3565 49.237 36.3565 49.0775V37.6677C36.3565 37.5082 36.2243 37.3784 36.0665 37.3784Z" fill="#B3CEEB"/>
<path fill-rule="evenodd" clip-rule="evenodd" d="M37.2999 44.6931H31.4779C31.2906 44.6931 31.1401 44.8452 31.1401 45.0344V49.0218C31.1401 49.211 31.2906 49.3631 31.4779 49.3631H37.2999C37.4871 49.3631 37.6376 49.211 37.6376 49.0218V45.0344C37.6376 44.8452 37.4871 44.6931 37.2999 44.6931Z" fill="#B8D3EE"/>
<path fill-rule="evenodd" clip-rule="evenodd" d="M30.1453 40.8058H27.2563C27.1205 40.8058 27.0104 40.9171 27.0104 41.0543V49.1146C27.0104 49.2518 27.1205 49.3631 27.2563 49.3631H30.1453C30.2811 49.3631 30.3913 49.2518 30.3913 49.1146V41.0543C30.3913 40.9208 30.2811 40.8058 30.1453 40.8058Z" fill="#B8D3EE"/>
<path fill-rule="evenodd" clip-rule="evenodd" d="M44.3296 41.5402H40.857C40.6771 41.5402 40.5303 41.6886 40.5303 41.8666V43.7769C40.5303 43.9587 40.6771 44.1033 40.857 44.1033H44.3296C44.5095 44.1033 44.6563 43.9549 44.6563 43.7769V41.8666C44.6563 41.6849 44.5095 41.5402 44.3296 41.5402Z" fill="#E3E2DC"/>
<path fill-rule="evenodd" clip-rule="evenodd" d="M44.381 44.6931H40.8056C40.6551 44.6931 40.5303 44.8155 40.5303 44.9676V45.2347C40.5303 45.3867 40.6514 45.5128 40.8056 45.5128H44.381C44.5315 45.5128 44.6563 45.3904 44.6563 45.2347V44.9676C44.6563 44.8155 44.5315 44.6931 44.381 44.6931Z" fill="#E3E2DC"/>
<path fill-rule="evenodd" clip-rule="evenodd" d="M44.381 46.2733H40.8056C40.6551 46.2733 40.5303 46.3957 40.5303 46.5477V46.8111C40.5303 46.9632 40.6514 47.0893 40.8056 47.0893H44.381C44.5315 47.0893 44.6563 46.9669 44.6563 46.8111V46.5477C44.6563 46.3957 44.5315 46.2733 44.381 46.2733Z" fill="#E3E2DC"/>
<path fill-rule="evenodd" clip-rule="evenodd" d="M28.7026 44.2406C28.3098 44.2406 27.9905 44.6189 27.9905 45.09C27.9905 45.5573 28.3098 45.9394 28.7026 45.9394C29.0954 45.9394 29.4148 45.5611 29.4148 45.09C29.4111 44.6189 29.0954 44.2406 28.7026 44.2406Z" fill="#B3CEEB"/>
<path fill-rule="evenodd" clip-rule="evenodd" d="M30.2297 29.7596H28.7026C28.5962 29.7596 28.5044 29.8486 28.5044 29.9561V31.1023C28.5044 31.2099 28.5925 31.2989 28.7026 31.2989H30.2297C30.3362 31.2989 30.4243 31.2099 30.4243 31.1023V29.9561C30.4243 29.8486 30.3398 29.7596 30.2297 29.7596Z" fill="#DCE9F7"/>
<path fill-rule="evenodd" clip-rule="evenodd" d="M27.7812 27.2743H23.5854C23.4239 27.2743 23.2917 27.4041 23.2917 27.5674V31.0059C23.2917 31.1654 23.4239 31.2989 23.5854 31.2989H27.7812C27.9428 31.2989 28.0749 31.1691 28.0749 31.0059V27.5674C28.0749 27.4041 27.9428 27.2743 27.7812 27.2743Z" fill="#B8D3EE"/>
<path fill-rule="evenodd" clip-rule="evenodd" d="M25.766 28.5577H22.91C22.7999 28.5577 22.7118 28.6468 22.7118 28.758V31.1023C22.7118 31.2136 22.7999 31.3026 22.91 31.3026H25.766C25.8761 31.3026 25.9642 31.2136 25.9642 31.1023V28.758C25.9679 28.6468 25.8761 28.5577 25.766 28.5577Z" fill="#B3CEEB"/>
<path fill-rule="evenodd" clip-rule="evenodd" d="M23.78 24.804H21.3058C21.192 24.804 21.0929 24.9004 21.0929 25.0154V31.0875C21.0929 31.2025 21.1883 31.2989 21.3058 31.2989H23.78C23.8938 31.2989 23.9929 31.2025 23.9929 31.0875V25.0154C23.9929 24.9004 23.8938 24.804 23.78 24.804Z" fill="#DCE9F7"/>
<path fill-rule="evenodd" clip-rule="evenodd" d="M39.2968 26.7921H39.1353V26.4917H39.1904C39.2895 26.4917 39.3702 26.3952 39.3702 26.2765C39.3702 26.1578 39.2895 26.0614 39.1904 26.0614H38.9921V24.7854C38.9921 24.6667 38.9077 24.5703 38.8123 24.5703C38.7131 24.5703 38.6324 24.6667 38.6324 24.7854V26.0614H38.4341C38.335 26.0614 38.2506 26.1578 38.2506 26.2765C38.2506 26.3952 38.335 26.4917 38.4341 26.4917H38.4892V26.7921H38.3277C38.2176 26.7921 38.1258 26.8997 38.1258 27.0332V31.0541C38.1258 31.1876 38.2176 31.2952 38.3277 31.2952H39.3005C39.4143 31.2952 39.5061 31.1876 39.5061 31.0541V27.0369C39.4987 26.9034 39.4069 26.7921 39.2968 26.7921Z" fill="#B3CEEB"/>
<path fill-rule="evenodd" clip-rule="evenodd" d="M40.8717 27.2669H40.7285V26.9961H40.7799C40.868 26.9961 40.9451 26.9108 40.9451 26.8032C40.9451 26.6957 40.8717 26.6104 40.7799 26.6104H40.6037V25.4679C40.6037 25.3603 40.5303 25.275 40.4385 25.275C40.3467 25.275 40.2733 25.3603 40.2733 25.4679V26.6104H40.0971C40.0053 26.6104 39.9319 26.6957 39.9319 26.8032C39.9319 26.9108 40.0053 26.9961 40.0971 26.9961H40.1448V27.2669H40.0017C39.9025 27.2669 39.8181 27.3633 39.8181 27.482V31.08C39.8181 31.1987 39.9025 31.2952 40.0017 31.2952H40.8717C40.9708 31.2952 41.0515 31.1987 41.0515 31.08V27.482C41.0515 27.3633 40.9708 27.2669 40.8717 27.2669Z" fill="#B3CEEB"/>
<path fill-rule="evenodd" clip-rule="evenodd" d="M43.5624 27.0406H41.1616C41.0478 27.0406 40.9561 27.1334 40.9561 27.2484V31.0949C40.9561 31.2099 41.0478 31.2989 41.1616 31.2989H43.5624C43.6762 31.2989 43.768 31.2062 43.768 31.0949V27.2484C43.7643 27.1334 43.6762 27.0406 43.5624 27.0406Z" fill="#DCE9F7"/>
<path fill-rule="evenodd" clip-rule="evenodd" d="M43.0925 27.9939H41.6278C41.5544 27.9939 41.4883 28.057 41.4883 28.1312V28.9398C41.4883 29.014 41.5507 29.0807 41.6278 29.0807H43.0925C43.1659 29.0807 43.232 29.0177 43.232 28.9398V28.1312C43.232 28.057 43.1696 27.9939 43.0925 27.9939Z" fill="#F5F6F5"/>
<path fill-rule="evenodd" clip-rule="evenodd" d="M43.1182 29.3256H41.6095C41.5471 29.3256 41.492 29.3775 41.492 29.4406V29.5518C41.492 29.6149 41.5434 29.6668 41.6095 29.6668H43.1182C43.1806 29.6668 43.232 29.6149 43.232 29.5518V29.4406C43.232 29.3775 43.1806 29.3256 43.1182 29.3256Z" fill="#F5F6F5"/>
<path fill-rule="evenodd" clip-rule="evenodd" d="M43.1182 29.9932H41.6095C41.5471 29.9932 41.492 30.0452 41.492 30.1082V30.2195C41.492 30.2826 41.5434 30.3345 41.6095 30.3345H43.1182C43.1806 30.3345 43.232 30.2826 43.232 30.2195V30.1082C43.232 30.0452 43.1806 29.9932 43.1182 29.9932Z" fill="#F5F6F5"/>
<path fill-rule="evenodd" clip-rule="evenodd" d="M40.5926 28.6839H39.1169C39.0472 28.6839 38.9921 28.7395 38.9921 28.81V31.1728C38.9921 31.2433 39.0472 31.2989 39.1169 31.2989H40.5926C40.6624 31.2989 40.7174 31.2433 40.7174 31.1728V28.81C40.7174 28.7395 40.6624 28.6839 40.5926 28.6839Z" fill="#B8D3EE"/>
<path fill-rule="evenodd" clip-rule="evenodd" d="M37.4614 24.9041H32.458C32.2231 24.9041 32.0322 25.097 32.0322 25.3344V30.8723C32.0322 31.1097 32.2231 31.3026 32.458 31.3026H37.4614C37.6963 31.3026 37.8909 31.1097 37.8909 30.8723V25.3307C37.8872 25.097 37.6963 24.9041 37.4614 24.9041Z" fill="#B8D3EE"/>
<path fill-rule="evenodd" clip-rule="evenodd" d="M38.4195 28.6839H36.9438C36.874 28.6839 36.819 28.7395 36.819 28.81V31.1728C36.819 31.2433 36.874 31.2989 36.9438 31.2989H38.4195C38.4892 31.2989 38.5443 31.2433 38.5443 31.1728V28.81C38.5443 28.7395 38.4892 28.6839 38.4195 28.6839Z" fill="#DCE9F7"/>
<path fill-rule="evenodd" clip-rule="evenodd" d="M15.0947 27.2743H19.2905C19.452 27.2743 19.5842 27.4041 19.5842 27.5674V31.0059C19.5842 31.1654 19.452 31.2989 19.2905 31.2989H18.6371C17.712 30.1156 16.3501 29.2885 14.8047 29.0696V27.5636C14.801 27.4041 14.9332 27.2743 15.0947 27.2743Z" fill="#B3CEEB"/>
<path fill-rule="evenodd" clip-rule="evenodd" d="M17.11 28.5577H19.9659C20.076 28.5577 20.1641 28.6468 20.1641 28.758V31.1023C20.1641 31.2136 20.076 31.3026 19.9659 31.3026H18.6371C18.1635 30.698 17.5762 30.1861 16.9117 29.8003V28.758C16.9117 28.6468 16.9998 28.5577 17.11 28.5577Z" fill="#B8D3EE"/>
<path fill-rule="evenodd" clip-rule="evenodd" d="M16.3318 29.3701H17.2826C17.3266 29.3701 17.3633 29.4072 17.3633 29.4517V30.086C17.0183 29.8411 16.6438 29.6334 16.251 29.4702V29.4517C16.251 29.4072 16.2877 29.3701 16.3318 29.3701Z" fill="#F0F1EE"/>
<path fill-rule="evenodd" clip-rule="evenodd" d="M10.15 25.7016H7.83734C8.41734 26.8033 9.32038 27.7157 10.418 28.2981V25.9724C10.4216 25.824 10.2968 25.7016 10.15 25.7016Z" fill="#EAEAE6"/>
<path fill-rule="evenodd" clip-rule="evenodd" d="M9.53695 26.9553H8.711C9.01201 27.2929 9.34973 27.597 9.71682 27.8604V27.1371C9.71682 27.0406 9.63606 26.9553 9.53695 26.9553Z" fill="#E3E2DC"/>
<path fill-rule="evenodd" clip-rule="evenodd" d="M12.0111 42.2672H11.7578V41.7924H11.8459C12.0038 41.7924 12.1323 41.6404 12.1323 41.4512C12.1323 41.262 12.0038 41.1099 11.8459 41.1099H11.5523C11.1521 41.1804 10.7557 41.2694 10.3666 41.377C10.3629 41.403 10.3592 41.4289 10.3592 41.4512C10.3592 41.6404 10.4877 41.7924 10.6456 41.7924H10.7337V42.2672H10.4804C10.3042 42.2672 10.161 42.4378 10.161 42.6493V48.981C10.161 49.1887 10.3042 49.3631 10.4804 49.3631H12.0148C12.191 49.3631 12.3342 49.1924 12.3342 48.981V42.6493C12.3305 42.4416 12.1873 42.2672 12.0111 42.2672Z" fill="#B3CEEB"/>
<path fill-rule="evenodd" clip-rule="evenodd" d="M14.489 43.0128H14.2614V42.5862H14.3385C14.478 42.5862 14.5954 42.449 14.5954 42.2821C14.5954 42.1151 14.4816 41.9779 14.3385 41.9779H14.0558V40.8948C14.0301 40.8948 14.0044 40.8948 13.9824 40.8948C13.8355 40.8948 13.6924 40.8985 13.5455 40.9022V41.9779H13.2629C13.1234 41.9779 13.0059 42.1151 13.0059 42.2821C13.0059 42.449 13.1197 42.5862 13.2629 42.5862H13.34V43.0128H13.1124C12.9545 43.0128 12.826 43.1649 12.826 43.354V49.0218C12.826 49.211 12.9545 49.3631 13.1124 49.3631H14.4853C14.6431 49.3631 14.7716 49.211 14.7716 49.0218V43.354C14.7753 43.1686 14.6468 43.0128 14.489 43.0128Z" fill="#DEDED7"/>
<path fill-rule="evenodd" clip-rule="evenodd" d="M18.7252 42.6604H14.9442C14.768 42.6604 14.6212 42.8051 14.6212 42.9831V49.0404C14.6212 49.2184 14.7643 49.3631 14.9442 49.3631H18.7252C18.9014 49.3631 19.0482 49.2184 19.0482 49.0404V42.9831C19.0519 42.8051 18.9051 42.6604 18.7252 42.6604Z" fill="#F9F9FA"/>
<path fill-rule="evenodd" clip-rule="evenodd" d="M17.991 44.1627H15.682C15.5609 44.1627 15.4655 44.2628 15.4655 44.3815V45.6501C15.4655 45.7688 15.5646 45.8689 15.682 45.8689H17.991C18.1122 45.8689 18.2076 45.7688 18.2076 45.6501V44.3815C18.2076 44.2591 18.1085 44.1627 17.991 44.1627Z" fill="#F5F6F5"/>
<path fill-rule="evenodd" clip-rule="evenodd" d="M18.0241 46.2584H15.6453C15.5462 46.2584 15.4618 46.34 15.4618 46.4439V46.6182C15.4618 46.7184 15.5426 46.8037 15.6453 46.8037H18.0204C18.1195 46.8037 18.2039 46.7221 18.2039 46.6182V46.4439C18.2076 46.34 18.1269 46.2584 18.0241 46.2584Z" fill="#F5F6F5"/>
<path fill-rule="evenodd" clip-rule="evenodd" d="M18.0241 47.3081H15.6453C15.5462 47.3081 15.4618 47.3897 15.4618 47.4936V47.6679C15.4618 47.7681 15.5426 47.8534 15.6453 47.8534H18.0204C18.1195 47.8534 18.2039 47.7718 18.2039 47.6679V47.4936C18.2076 47.3934 18.1269 47.3081 18.0241 47.3081Z" fill="#F5F6F5"/>
<path fill-rule="evenodd" clip-rule="evenodd" d="M14.0522 45.2421H11.7322C11.622 45.2421 11.5339 45.3311 11.5339 45.4424V49.1628C11.5339 49.2741 11.622 49.3631 11.7322 49.3631H14.0558C14.166 49.3631 14.2541 49.2741 14.2541 49.1628V45.4424C14.2504 45.3348 14.1623 45.2421 14.0522 45.2421Z" fill="#EAEAE6"/>
<path fill-rule="evenodd" clip-rule="evenodd" d="M1.15997 49.3594C1.18934 49.3631 1.21871 49.3668 1.24807 49.3668H9.12579C9.49655 49.3668 9.79757 49.0626 9.79757 48.6917V41.5439C5.92478 42.7717 2.77149 45.6538 1.15997 49.3594Z" fill="#C1DBF2"/>
<path fill-rule="evenodd" clip-rule="evenodd" d="M10.6272 45.2421H8.30351C8.19339 45.2421 8.10529 45.3311 8.10529 45.4424V49.1628C8.10529 49.2741 8.19339 49.3631 8.30351 49.3631H10.6272C10.7373 49.3631 10.8254 49.2741 10.8254 49.1628V45.4424C10.8254 45.3348 10.7373 45.2421 10.6272 45.2421Z" fill="#C1DBF2"/>
<path fill-rule="evenodd" clip-rule="evenodd" d="M23.9452 61.5889H30.0278C30.2591 61.5889 30.45 61.7818 30.45 62.0154V67.0044C30.45 67.2381 30.2591 67.431 30.0278 67.431H23.9452C23.7139 67.431 23.523 67.2381 23.523 67.0044V62.0154C23.523 61.778 23.7139 61.5889 23.9452 61.5889Z" fill="#EAEAE6"/>
<path fill-rule="evenodd" clip-rule="evenodd" d="M26.8672 63.4509H31.0116C31.1695 63.4509 31.3016 63.5807 31.3016 63.7402V67.1379C31.3016 67.2974 31.1732 67.4273 31.0116 67.4273H26.8672C26.7094 67.4273 26.5772 67.2974 26.5772 67.1379V63.7402C26.5772 63.5807 26.7094 63.4509 26.8672 63.4509Z" fill="#E1E1D9"/>
<path fill-rule="evenodd" clip-rule="evenodd" d="M29.7488 58.0131H33.339C33.5078 58.0131 33.6436 58.1541 33.6436 58.321V67.1194C33.6436 67.29 33.5042 67.4273 33.339 67.4273H29.7488C29.58 67.4273 29.4442 67.29 29.4442 67.1194V58.321C29.4442 58.1466 29.58 58.0131 29.7488 58.0131Z" fill="#B8D3EE"/>
<path fill-rule="evenodd" clip-rule="evenodd" d="M7.25366 60.8915H7.4886V60.4538H7.40784C7.26468 60.4538 7.14354 60.3129 7.14354 60.1385C7.14354 59.9679 7.26468 59.8232 7.40784 59.8232H7.69784V57.9723C7.69784 57.8017 7.81898 57.657 7.96215 57.657C8.10531 57.657 8.22645 57.798 8.22645 57.9723V59.8232H8.51645C8.65961 59.8232 8.78075 59.9642 8.78075 60.1385C8.78075 60.3092 8.65961 60.4538 8.51645 60.4538H8.43569V60.8915H8.67063C8.83215 60.8915 8.9643 61.051 8.9643 61.2402V67.0712C8.9643 67.2641 8.83215 67.4236 8.67063 67.4236H7.59506C7.38214 67.3123 7.1729 67.1936 6.96366 67.0749V67.0712V61.2402C6.95632 61.051 7.09214 60.8915 7.25366 60.8915Z" fill="#DEDED7"/>
<path fill-rule="evenodd" clip-rule="evenodd" d="M4.97035 61.5777H5.17959V61.1845H5.10985C4.98137 61.1845 4.87124 61.0584 4.87124 60.9026C4.87124 60.7469 4.97769 60.6207 5.10985 60.6207H5.36681V58.9627C5.36681 58.8069 5.47326 58.6808 5.60542 58.6808C5.7339 58.6808 5.84402 58.8069 5.84402 58.9627V60.6207H6.10099C6.22947 60.6207 6.33959 60.7469 6.33959 60.9026C6.33959 61.0584 6.23314 61.1845 6.10099 61.1845H6.03124V61.5777H6.24048C6.38364 61.5777 6.50478 61.7187 6.50478 61.893V66.793C5.86972 66.385 5.27504 65.9287 4.71339 65.4317V61.8967C4.70605 61.7187 4.82719 61.5777 4.97035 61.5777Z" fill="#DEDED7"/>
<path fill-rule="evenodd" clip-rule="evenodd" d="M1.49774 61.2513H4.54825C4.71344 61.2513 4.84559 61.3848 4.84559 61.5481V65.5541C3.47268 64.3597 2.32736 62.8982 1.49774 61.2513Z" fill="#F9F9FA"/>
<path fill-rule="evenodd" clip-rule="evenodd" d="M2.29797 62.6349H3.86911C3.97924 62.6349 4.07101 62.7276 4.07101 62.8352V64.0036C4.07101 64.1149 3.97924 64.2039 3.86911 64.2039H3.49101C3.05785 63.7143 2.66139 63.1876 2.29797 62.6349Z" fill="#F5F6F5"/>
<path fill-rule="evenodd" clip-rule="evenodd" d="M3.82141 64.5674H3.90217C3.99394 64.5674 4.07103 64.6416 4.07103 64.7343V64.8233C3.9866 64.7417 3.90217 64.6564 3.82141 64.5674Z" fill="#F5F6F5"/>
<path fill-rule="evenodd" clip-rule="evenodd" d="M5.37049 63.6327H7.51062C7.60973 63.6327 7.69417 63.7143 7.69417 63.8181V67.2455C7.69417 67.3234 7.64277 67.3939 7.56936 67.4161C6.72138 66.971 5.9248 66.4443 5.18695 65.8434V63.8144C5.19062 63.7143 5.27138 63.6327 5.37049 63.6327Z" fill="#EAEAE6"/>
<path fill-rule="evenodd" clip-rule="evenodd" d="M9.91139 58.1504H17.1651C17.5064 58.1504 17.7818 58.4323 17.7818 58.7735V66.8041C17.7818 67.1454 17.5028 67.4273 17.1651 67.4273H9.91139C9.56999 67.4273 9.29468 67.1454 9.29468 66.8041V58.7735C9.29468 58.4323 9.56999 58.1504 9.91139 58.1504Z" fill="#EAEAE6"/>
<path fill-rule="evenodd" clip-rule="evenodd" d="M8.52748 63.6327H10.6639C10.763 63.6327 10.8475 63.7143 10.8475 63.8181V67.2455C10.8475 67.3457 10.763 67.4273 10.6639 67.4273H8.52748C8.42836 67.4273 8.34393 67.3457 8.34393 67.2455V63.8181C8.34393 63.7143 8.42469 63.6327 8.52748 63.6327Z" fill="#F9F9FA"/>
<path fill-rule="evenodd" clip-rule="evenodd" d="M42.34 61.5889H36.2574C36.0224 61.5889 35.8352 61.7818 35.8352 62.0154V67.0044C35.8352 67.2381 36.0261 67.431 36.2574 67.431H42.34C42.5749 67.431 42.7622 67.2381 42.7622 67.0044V62.0154C42.7622 61.778 42.5713 61.5889 42.34 61.5889Z" fill="#EAEAE6"/>
<path fill-rule="evenodd" clip-rule="evenodd" d="M39.4179 63.4509H35.2772C35.1193 63.4509 34.9872 63.5807 34.9872 63.7402V67.1379C34.9872 67.2974 35.1157 67.4273 35.2772 67.4273H39.4179C39.5795 67.4273 39.7079 67.2974 39.7079 67.1379V63.7402C39.7079 63.5807 39.5795 63.4509 39.4179 63.4509Z" fill="#E1E1D9"/>
<path fill-rule="evenodd" clip-rule="evenodd" d="M40.5486 64.6268H39.172C39.106 64.6268 39.0546 64.6787 39.0546 64.7455V67.3086C39.0546 67.3753 39.106 67.4273 39.172 67.4273H40.5486C40.6147 67.4273 40.6661 67.3753 40.6661 67.3086V64.7455C40.6661 64.6824 40.6147 64.6268 40.5486 64.6268Z" fill="#F0F1EE"/>
<path fill-rule="evenodd" clip-rule="evenodd" d="M15.5205 41.5662L17.1687 41.4141C17.2752 41.403 17.3669 41.4846 17.3669 41.5958V42.13C17.3669 42.2375 17.2788 42.334 17.1687 42.3451L15.5205 42.4935C15.414 42.5046 15.3259 42.423 15.3259 42.3117V41.7776C15.3259 41.6737 15.414 41.5736 15.5205 41.5662Z" fill="white"/>
<path d="M14.9258 57.6867C14.9258 58.2653 15.3957 58.7401 15.9683 58.7401H72.3605C72.9331 58.7401 73.403 58.2653 73.403 57.6867L73.8729 24.9412C73.8729 24.3625 73.1975 23.2312 71.9604 23.3165L16.8457 21.8736C16.1262 21.8551 15.4287 22.1333 14.9221 22.6489C14.4119 23.1607 14.1329 23.8655 14.1512 24.5888L14.9258 57.6867Z" fill="url(#paint0_linear_14559_25123)"/>
<path d="M15.9537 56.6778C15.9537 57.2268 16.3979 57.6756 16.9411 57.6756H71.0023C71.5456 57.6756 71.9897 57.2268 71.9897 56.6778L72.4339 26.9516C72.3825 25.1638 70.8298 24.5183 69.89 24.5591L17.0623 23.1236C16.5557 23.1088 16.0675 23.3054 15.7114 23.6689C15.3517 24.0287 15.1571 24.522 15.1681 25.0339L15.9537 56.6778Z" fill="url(#paint1_linear_14559_25123)"/>
<g opacity="0.67">
<path opacity="0.67" d="M71.4024 42.5528C71.3216 42.5528 71.2556 42.4861 71.2592 42.4045L71.296 39.9934C71.296 39.9118 71.362 39.8488 71.4391 39.8488C71.4391 39.8488 71.4391 39.8488 71.4428 39.8488C71.5235 39.8488 71.5859 39.9155 71.5859 39.9971L71.5492 42.4082C71.5456 42.4898 71.4832 42.5528 71.4024 42.5528Z" fill="#91B3FA"/>
<path opacity="0.67" d="M71.4905 36.644C71.4905 36.644 71.4868 36.644 71.4905 36.644C71.4097 36.644 71.3437 36.5772 71.3473 36.4956L71.4832 27.2632C71.4795 26.7142 71.3143 26.2765 70.9949 25.9649C70.3929 25.3826 69.4385 25.4123 69.3981 25.4123L52.5157 24.956C52.4349 24.9523 52.3725 24.8855 52.3762 24.8077C52.3799 24.726 52.4386 24.6593 52.523 24.6667L69.3944 25.1229C69.5009 25.1155 70.5177 25.1007 71.1932 25.7535C71.5749 26.1244 71.7695 26.6326 71.7732 27.2632L71.6373 36.4993C71.6337 36.5809 71.5676 36.644 71.4905 36.644Z" fill="#91B3FA"/>
</g>
<path d="M11.3247 61.459H75.8625C76.3985 61.459 76.8353 61.0176 76.8353 60.4761V59.5673C76.8353 59.0258 76.3985 58.5844 75.8625 58.5844H11.3247C10.7887 58.5844 10.3519 59.0258 10.3519 59.5673V60.4761C10.3482 61.0139 10.7887 61.459 11.3247 61.459Z" fill="url(#paint2_linear_14559_25123)"/>
<path d="M57.0566 4.78498L21.4196 4.56242C20.2486 4.555 19.3125 5.54538 19.3713 6.72493L21.7573 56.5294C21.7941 57.2898 22.4144 57.887 23.167 57.887H60.1291C60.8853 57.887 61.5094 57.2861 61.5461 56.522L63.6825 12.1739L57.0566 4.78498Z" fill="#91B3FA"/>
<path d="M58.5396 11.9587C57.3796 11.9179 56.4876 10.9053 56.5794 9.73687L56.9611 4.85175L63.6899 12.1479L58.5396 11.9587Z" fill="#7D97F4"/>
<path d="M27.4399 13.9914C32.3772 14.1324 51.341 14.6479 56.1279 14.7815C56.7336 14.7963 57.2108 15.1895 57.1888 15.6457C57.1667 16.0797 56.6932 16.4136 56.1205 16.3987L27.4472 15.7162C26.8966 15.7014 26.4341 15.375 26.3827 14.9558L26.3717 14.852C26.3129 14.3698 26.8085 13.9729 27.4399 13.9914Z" fill="url(#paint3_linear_14559_25123)"/>
<path d="M26.8709 19.0472C26.948 19.1584 27.0985 19.2289 27.2637 19.2363L46.9396 19.9337C47.1856 19.9411 47.3911 19.8001 47.4022 19.6147L47.4535 18.6354C47.4646 18.4388 47.259 18.2719 46.9984 18.2682L27.8584 17.8157C27.0067 17.7934 26.4634 18.4722 26.8709 19.0472Z" fill="url(#paint4_linear_14559_25123)"/>
<path d="M26.9553 22.8566C31.8927 22.9975 50.8565 23.5131 55.6433 23.6467C56.249 23.6615 56.7262 24.0547 56.7042 24.5109C56.6822 24.9449 56.2086 25.2787 55.636 25.2639L26.9627 24.5814C26.4121 24.5666 25.9495 24.2401 25.8981 23.821L25.8871 23.7171C25.8284 23.2349 26.324 22.838 26.9553 22.8566Z" fill="url(#paint5_linear_14559_25123)"/>
<path d="M26.39 27.916C26.4671 28.0273 26.6176 28.0978 26.7828 28.1052L46.4587 28.8026C46.7047 28.81 46.9103 28.669 46.9213 28.4836L46.9727 27.5043C46.9837 27.3077 46.7781 27.1408 46.5175 27.1371L27.3775 26.6846C26.5222 26.6586 25.9789 27.3374 26.39 27.916Z" fill="url(#paint6_linear_14559_25123)"/>
<path d="M28.7467 44.0403C28.9156 41.8741 29.6424 39.7486 30.7841 37.8829C31.3567 36.9518 32.0322 36.0802 32.8031 35.3012C33.0013 35.112 33.1959 34.9192 33.3978 34.7337C33.607 34.5557 33.8089 34.3739 34.0255 34.1996C34.2421 34.0326 34.4586 33.8657 34.6826 33.7062L35.024 33.48L35.1965 33.365L35.2809 33.3093C35.3103 33.2908 35.3543 33.2648 35.391 33.2463C35.9931 32.9124 36.8557 32.8939 37.4394 33.4874C37.5826 33.6283 37.6817 33.799 37.7551 33.9696C37.7881 34.0549 37.8212 34.1402 37.8395 34.2218C37.8652 34.3071 37.8762 34.3887 37.8909 34.4703C37.9423 34.7968 37.9276 35.1046 37.8983 35.3977C37.8836 35.546 37.8579 35.6907 37.8322 35.8316L37.7551 36.2285C37.7037 36.4956 37.645 36.759 37.5899 37.0223C37.4761 37.549 37.344 38.0758 37.2081 38.5951C36.6502 40.6797 35.9123 42.7161 34.9983 44.6709L34.6495 45.3979C34.5284 45.639 34.4072 45.8801 34.2824 46.1175L34.0916 46.4736L33.9961 46.6516L33.8933 46.8371C33.7502 47.0856 33.5886 47.3267 33.3978 47.553C33.2105 47.7792 32.994 47.9981 32.7297 48.1835C32.4654 48.3653 32.1313 48.5137 31.7642 48.5322C31.6724 48.5433 31.5807 48.5322 31.4889 48.5211C31.3971 48.5174 31.3127 48.484 31.2246 48.4654C31.0484 48.4172 30.8832 48.3319 30.74 48.2281C30.4464 48.0166 30.2371 47.7273 30.1086 47.4157C29.9838 47.1079 29.9288 46.7851 29.9251 46.4699C29.9214 46.1583 29.9691 45.8578 30.0316 45.5759C30.0976 45.294 30.1784 45.0307 30.2665 44.771L30.3986 44.3815L30.5455 43.9995C30.9419 42.9757 31.4669 42.0076 32.0799 41.1062C32.6893 40.2012 33.4124 39.3777 34.2054 38.6359L34.3522 38.4949L34.5064 38.3614L34.8147 38.098C34.9212 38.0127 35.0276 37.9311 35.1341 37.8458C35.2405 37.7642 35.347 37.6752 35.4608 37.601C35.681 37.4452 35.9013 37.2857 36.1326 37.1447L36.3051 37.0372L36.3895 36.9815C36.4042 36.9704 36.4152 36.963 36.4336 36.9518L36.4886 36.9185C36.6428 36.8369 36.808 36.7849 36.9805 36.7664C37.3219 36.7256 37.6927 36.8294 37.9607 37.0742C38.0965 37.1967 38.2066 37.371 38.258 37.5527C38.3094 37.7345 38.3094 37.9088 38.2947 38.0646C38.2764 38.2204 38.2433 38.3651 38.2103 38.5023L38.1038 38.8918L37.8909 39.6633C37.6083 40.6908 37.3146 41.7146 37.0246 42.742V42.7457L36.5804 42.6641C36.6135 42.3192 36.7052 41.9705 36.8924 41.6589C36.9879 41.5031 37.1054 41.3585 37.2522 41.2398C37.399 41.1174 37.5716 41.0321 37.7514 40.9801C37.9313 40.9282 38.1259 40.9096 38.3204 40.943C38.4159 40.9579 38.515 40.9875 38.6031 41.0283C38.6508 41.0469 38.6912 41.0729 38.7352 41.0988L38.8233 41.1545C39.0399 41.2769 39.3152 41.3028 39.5355 41.2027C39.5905 41.1804 39.6456 41.147 39.6933 41.1099C39.7154 41.0914 39.741 41.0729 39.7631 41.0506L39.7961 41.0172L39.8365 40.9727L40.1595 40.624L40.8093 39.923L41.459 39.2219L41.7821 38.8733C41.8628 38.7879 41.9766 38.7138 42.1051 38.6878C42.2336 38.6618 42.3657 38.6804 42.4759 38.7286C42.5897 38.7805 42.6851 38.8658 42.7512 38.9734C42.8173 39.0847 42.8466 39.2219 42.8319 39.348C42.8319 39.3814 42.8246 39.4111 42.8136 39.4408C42.8062 39.4704 42.7952 39.5038 42.7916 39.5187L42.7512 39.6299L42.6778 39.8525C42.5823 40.1492 42.5016 40.4534 42.4355 40.7576C42.3694 41.0617 42.3143 41.3696 42.2776 41.6812C42.274 41.7183 42.2666 41.7591 42.2629 41.7962L42.2593 41.8926C42.2556 41.926 42.2593 41.9557 42.2666 41.9853C42.274 42.015 42.2703 42.0484 42.2813 42.0781C42.307 42.2005 42.3694 42.308 42.4502 42.4008C42.5273 42.4972 42.6374 42.5677 42.7512 42.6159C42.8062 42.6456 42.8686 42.653 42.9274 42.6716C42.9898 42.6753 43.0485 42.6864 43.1109 42.679C43.2321 42.6678 43.3532 42.6382 43.456 42.5677L43.4964 42.5454L43.5331 42.5158L43.6065 42.4564L43.7754 42.2895C44.2232 41.8444 44.649 41.3844 45.0565 40.9022C45.8678 39.9378 46.5909 38.8992 47.2186 37.805L47.4499 37.3895L47.56 37.1818L47.6151 37.078L47.6298 37.052C47.6298 37.0483 47.6298 37.052 47.6298 37.052C47.6335 37.052 47.6298 37.0557 47.6298 37.0557C47.6298 37.0743 47.6371 37.078 47.6335 37.0742C47.6335 37.0742 47.6371 37.078 47.6445 37.0742C47.6518 37.0742 47.6592 37.0705 47.6592 37.0705L47.6408 37.0928L47.6004 37.1336C47.5747 37.1596 47.549 37.1892 47.5233 37.2152C47.4719 37.2708 47.4205 37.3302 47.3691 37.3858C47.1709 37.6195 46.991 37.868 46.8295 38.1314C46.7488 38.2612 46.6754 38.3985 46.6056 38.532C46.5726 38.6025 46.5395 38.6692 46.5065 38.7397L46.4588 38.8436L46.4367 38.8955L46.4221 38.9437C46.3303 39.1922 46.3303 39.463 46.4441 39.7004C46.5542 39.9341 46.7524 40.1307 46.9947 40.2197C47.1122 40.2716 47.2443 40.2828 47.3691 40.2865C47.494 40.2754 47.6224 40.2531 47.7399 40.1938L47.828 40.153L47.9271 40.0936C47.9932 40.0528 48.0629 40.0157 48.129 39.9749C48.2612 39.8933 48.3933 39.808 48.5218 39.7227C49.557 39.0327 50.4857 38.1722 51.2603 37.1929C51.3374 37.0928 51.4805 37.078 51.5797 37.1559C51.6788 37.2337 51.6935 37.3784 51.6164 37.4786C50.8124 38.4986 49.8507 39.3888 48.7751 40.1084C48.6393 40.1975 48.5035 40.2865 48.3676 40.3681C48.2979 40.4126 48.2281 40.4497 48.1584 40.4942L48.0519 40.5573L47.9271 40.6166C47.7619 40.7019 47.571 40.7353 47.3838 40.7501C47.1966 40.7501 47.0021 40.7279 46.8295 40.6537C46.4771 40.5202 46.1908 40.242 46.0293 39.897C45.8641 39.552 45.8641 39.1366 45.9962 38.7879L46.0183 38.7212L46.044 38.6655L46.0954 38.5505C46.1284 38.4764 46.1651 38.4022 46.2018 38.328C46.2752 38.1796 46.356 38.035 46.4441 37.894C46.6166 37.6121 46.8112 37.3413 47.0241 37.0891C47.0792 37.026 47.1342 36.963 47.1893 36.9036C47.2186 36.8739 47.2443 36.8443 47.2737 36.8146L47.3178 36.7701L47.3398 36.7478C47.3545 36.7367 47.3692 36.7219 47.3838 36.7107C47.4462 36.6625 47.5307 36.6254 47.6188 36.6217C47.7032 36.618 47.7876 36.6403 47.8574 36.6774C47.9932 36.7515 48.096 36.9148 48.0813 37.0928C48.0776 37.1336 48.0703 37.1781 48.0556 37.2152C48.0483 37.2338 48.0409 37.2523 48.0336 37.2671L48.0189 37.2931L47.9638 37.4007L47.85 37.6158L47.6151 38.0387C46.9727 39.1589 46.2348 40.2197 45.4052 41.2027C44.9904 41.696 44.5536 42.1671 44.0984 42.6233L43.9259 42.794L43.8157 42.8867L43.7607 42.9312L43.6983 42.9683C43.5367 43.0759 43.3422 43.1315 43.1476 43.1463C43.0485 43.1575 42.9531 43.1463 42.8576 43.1352C42.7622 43.113 42.6704 43.0944 42.5823 43.0536C42.4061 42.9794 42.2409 42.8681 42.1161 42.7198C41.9913 42.5714 41.8922 42.3934 41.8481 42.2005C41.8335 42.1523 41.8335 42.104 41.8224 42.0558C41.8151 42.0076 41.8078 41.9594 41.8151 41.9111L41.8188 41.7665L41.8335 41.6441C41.8738 41.3177 41.9289 40.9987 41.9986 40.676C42.0684 40.357 42.1528 40.0417 42.2519 39.7301L42.329 39.4964L42.3694 39.3814C42.3767 39.3592 42.3767 39.3555 42.3804 39.3443C42.3841 39.3369 42.3878 39.3258 42.3841 39.3184C42.3878 39.285 42.3841 39.259 42.3657 39.233C42.351 39.2071 42.3217 39.1811 42.2886 39.1663C42.2226 39.1403 42.1712 39.1477 42.1124 39.2034L41.7894 39.552L41.1397 40.2531L40.4899 40.9542L40.1669 41.3028L40.1265 41.3473L40.0751 41.3993C40.0421 41.4364 40.0017 41.466 39.965 41.4957C39.8879 41.5551 39.8035 41.607 39.7117 41.6441C39.3519 41.8036 38.9298 41.7628 38.5957 41.5736L38.4856 41.5031C38.4599 41.4883 38.4379 41.4735 38.4085 41.4623C38.3571 41.4364 38.2984 41.4215 38.2397 41.4104C38.1222 41.3919 37.9937 41.403 37.8689 41.4364C37.6193 41.5068 37.4137 41.6775 37.2705 41.9149C37.1274 42.1485 37.0503 42.4342 37.0209 42.7235L36.5767 42.6419V42.6382C36.8337 41.6033 37.0797 40.5684 37.344 39.5335L37.5385 38.7583L37.634 38.3725C37.6633 38.2501 37.6854 38.1314 37.6927 38.0238C37.7 37.9163 37.6964 37.8198 37.6707 37.7456C37.645 37.6714 37.6083 37.6121 37.5459 37.5602C37.4174 37.4489 37.2338 37.4007 37.054 37.4266C36.9659 37.4378 36.8778 37.4711 36.797 37.5157L36.7676 37.5342L36.7309 37.5602L36.6502 37.6158L36.4886 37.7234C36.2721 37.8643 36.0665 38.0201 35.8609 38.1759C35.7545 38.2501 35.659 38.3354 35.5562 38.417C35.4571 38.4986 35.3543 38.5802 35.2589 38.6655L34.9726 38.9252L34.8294 39.055L34.6899 39.1885C33.9484 39.9044 33.2729 40.6982 32.7113 41.5662C32.146 42.4304 31.6614 43.3541 31.3053 44.3222L31.1732 44.6857L31.0557 45.0529C30.975 45.2977 30.9052 45.5462 30.8538 45.7836C30.751 46.2584 30.7474 46.7184 30.9052 47.0893C30.9823 47.2673 31.0998 47.4194 31.2429 47.5122C31.3127 47.5604 31.3861 47.5975 31.4669 47.616C31.5476 47.6383 31.6284 47.6494 31.7091 47.642C31.867 47.6346 32.0395 47.5641 32.2084 47.4454C32.3772 47.3267 32.5388 47.1635 32.6856 46.9817C32.8324 46.8 32.9683 46.596 33.0894 46.3845L33.1775 46.2213L33.2693 46.047L33.4528 45.6983C33.574 45.4646 33.6878 45.2272 33.8052 44.9936L34.1393 44.2814C35.0093 42.3711 35.7251 40.3866 36.2647 38.354C36.3969 37.8458 36.5217 37.3339 36.6318 36.822C36.6869 36.5661 36.7419 36.3101 36.7897 36.0505L36.8631 35.6647C36.8851 35.5423 36.9035 35.4236 36.9145 35.3049C36.9402 35.0712 36.9438 34.8376 36.9108 34.6373C36.8778 34.437 36.8154 34.2775 36.7236 34.1884C36.6832 34.1365 36.6245 34.1068 36.5584 34.0734C36.485 34.0475 36.4116 34.0178 36.3308 34.0141C36.1693 33.9993 35.9931 34.0364 35.8352 34.1217C35.8132 34.1328 35.7985 34.1402 35.7728 34.1588L35.6921 34.2107L35.5305 34.3145L35.2112 34.526C35.0019 34.6706 34.8 34.8301 34.5945 34.9785C34.3926 35.1343 34.198 35.3012 33.9998 35.4644C33.8052 35.6313 33.6217 35.8094 33.4345 35.9837C32.7003 36.6996 32.0359 37.4934 31.4669 38.354C30.3216 40.0713 29.5323 42.041 29.1836 44.1108C29.1616 44.2369 29.0441 44.3185 28.9229 44.2999C28.8202 44.2628 28.7394 44.1553 28.7467 44.0403Z" fill="url(#paint7_linear_14559_25123)"/>
<path d="M52.3762 37.0631C52.2992 37.0631 52.2257 37.026 52.1854 36.9556C52.1193 36.848 52.1523 36.707 52.2588 36.6403L54.5274 35.2048C54.6338 35.138 54.7733 35.1714 54.8394 35.279C54.9055 35.3865 54.8725 35.5275 54.766 35.5943L52.4974 37.0297C52.457 37.052 52.4166 37.0631 52.3762 37.0631Z" fill="url(#paint8_linear_14559_25123)"/>
<path d="M63.1025 61.6631C63.8036 61.7224 65.0187 61.8225 65.9768 61.8671C66.5531 61.893 66.8835 61.8374 67.0744 61.7595C67.0744 61.7817 67.0744 61.8003 67.0744 61.8225C67.0707 61.9227 66.9863 62.0043 66.8872 62.0117C65.0774 62.1156 63.6348 62.0488 63.1245 62.0154C63.0181 62.008 62.9557 61.893 63.0107 61.8003C63.0364 61.7521 63.0658 61.7076 63.1025 61.6631Z" fill="url(#paint9_linear_14559_25123)"/>
<path d="M65.9768 61.8671C65.0187 61.8263 63.8036 61.7261 63.1025 61.6631C63.7926 60.8099 65.9768 60.235 65.9768 60.235H66.5935C67.0193 60.8544 67.078 61.4405 67.0744 61.7595C66.8872 61.8374 66.5531 61.893 65.9768 61.8671Z" fill="url(#paint10_linear_14559_25123)"/>
<path d="M66.7 59.2149L66.6412 60.3685C66.6339 60.4946 66.5421 60.5985 66.4173 60.617C66.2925 60.6356 66.1273 60.6356 65.9548 60.5799C65.8483 60.5429 65.7676 60.4501 65.7455 60.3388L65.5473 59.2149H66.7Z" fill="url(#paint11_linear_14559_25123)"/>
<path d="M74.7172 61.8596C75.0219 61.8151 75.1577 61.6556 75.2165 61.4887V61.4924C75.2605 61.6705 75.1577 61.8596 74.9522 61.9487C74.7026 62.0562 74.4272 62.0748 74.2143 62.0637C73.9867 62.0525 73.7775 61.9598 73.6637 61.8077V61.804C73.8913 61.9153 74.2107 61.9301 74.7172 61.8596Z" fill="url(#paint12_linear_14559_25123)"/>
<path d="M73.2856 59.2075H73.7959C74.5704 59.1927 75.0587 60.8433 75.2165 61.485C75.1578 61.6556 75.0219 61.8151 74.7173 61.8559C74.2107 61.9264 73.8876 61.9153 73.66 61.8003C73.2416 61.2439 73.0323 60.4279 72.9332 59.9494C72.8231 59.4115 73.2856 59.2075 73.2856 59.2075Z" fill="url(#paint13_linear_14559_25123)"/>
<path d="M73.7298 58.1355L74.0124 59.2706C74.0455 59.4115 73.9794 59.5525 73.8546 59.6192C73.6967 59.7008 73.4728 59.7862 73.2709 59.7639C73.1755 59.7528 73.0947 59.6823 73.0617 59.5933L72.6469 58.3989L73.7298 58.1355Z" fill="url(#paint14_linear_14559_25123)"/>
<path d="M74.0675 58.4657C73.7151 58.7809 72.5734 58.8217 72.5734 58.8217C68.451 48.8252 66.7661 47.4083 66.7661 47.4083C67.3608 51.1806 66.8615 59.5339 66.8615 59.5339C66.1824 59.8381 65.3051 59.5339 65.3051 59.5339C65.25 53.358 64.3103 47.9721 63.2017 43.725C65.9879 43.6619 67.4672 42.6975 67.9518 42.3118C70.2718 46.0915 74.0675 58.4657 74.0675 58.4657Z" fill="url(#paint15_linear_14559_25123)"/>
<path d="M67.2396 30.8167C67.7682 33.4725 67.5773 38.2315 67.4525 40.3978C67.4158 41.0061 67.838 41.8518 68.1794 42.4304C68.2344 42.5195 68.2014 42.6382 68.1059 42.6864C67.537 42.9831 65.6061 43.8993 63.3668 44.0143C63.2163 44.0217 63.0842 43.9179 63.0475 43.7732C61.3882 37.5082 59.4573 33.5059 59.4573 33.5059C61.5901 30.0674 67.2396 30.8167 67.2396 30.8167Z" fill="url(#paint16_linear_14559_25123)"/>
<path d="M66.4834 47.1709C66.5054 47.1709 66.5311 47.1635 66.5531 47.1524C66.6155 47.1153 66.6339 47.0337 66.5972 46.9706C66.5752 46.9335 66.0429 46.0618 64.9636 45.5388C64.8976 45.5054 64.8205 45.5351 64.7874 45.6019C64.7544 45.6686 64.7838 45.7465 64.8498 45.7799C65.8557 46.2695 66.3696 47.1041 66.3733 47.1116C66.3953 47.1486 66.4393 47.1709 66.4834 47.1709Z" fill="url(#paint17_linear_14559_25123)"/>
<path d="M70.5471 38.443C70.3782 39.6819 69.879 41.032 68.8768 42.4638L68.4951 42.1522C68.4951 42.1522 68.9356 40.3532 68.6859 38.3094C69.3027 38.1833 70.0332 38.3094 70.5471 38.443Z" fill="url(#paint18_linear_14559_25123)"/>
<path d="M66.6523 34.0957L67.2396 30.8167C67.2396 30.8167 71.1748 33.8546 70.5471 38.443C70.0332 38.3131 69.3027 38.187 68.686 38.3094C68.5061 36.8331 67.9701 35.2382 66.6523 34.0957Z" fill="url(#paint19_linear_14559_25123)"/>
<path d="M59.3986 33.5319L61.6709 36.3621C61.9168 38.3576 61.0982 39.4556 60.0667 40.0602C59.7767 39.1959 59.3802 38.5394 59.0499 38.098C60.0997 36.2582 59.3986 33.5319 59.3986 33.5319Z" fill="url(#paint20_linear_14559_25123)"/>
<path d="M59.0535 38.098C59.3802 38.5394 59.7804 39.1959 60.0704 40.0602C57.4016 41.9742 56.0654 40.7909 56.0654 40.7909V40.4126C56.0654 40.0788 56.2857 39.7783 56.6051 39.693C57.6806 39.4074 58.6718 38.7694 59.0535 38.098Z" fill="url(#paint21_linear_14559_25123)"/>
<path d="M60.8596 29.4257L61.5938 32.1483C61.6746 32.4525 62.0049 32.6194 62.2949 32.5007C62.6106 32.3746 63.0071 32.2002 63.3522 32.0148C63.7192 31.8145 63.833 31.3397 63.6018 30.9873L62.0784 28.6913L60.8596 29.4257Z" fill="url(#paint22_linear_14559_25123)"/>
<path d="M59.2554 27.3559C59.2481 27.4041 59.8685 30.4643 59.8685 30.4643L61.5901 30.0711L61.4323 27.0814C61.4323 27.0814 59.3692 26.5733 59.2554 27.3559Z" fill="url(#paint23_linear_14559_25123)"/>
<path d="M61.0432 27.7454L61.2487 29.3107C61.2524 29.3293 61.2524 29.3515 61.2487 29.3701C61.2304 29.4925 61.1423 29.9116 60.7238 29.7929C60.3457 29.6854 59.997 29.5926 59.7584 29.6668C59.6519 29.7002 59.5858 29.8115 59.6079 29.9228C59.6629 30.2009 59.8024 30.8241 60.0043 31.3508C60.0447 31.4584 60.1622 31.514 60.2686 31.4806C60.5953 31.3842 61.2781 31.1617 61.7884 30.8538C61.8581 30.813 61.8985 30.7351 61.8948 30.6535C61.8801 30.2566 61.8324 29.0548 61.8728 28.7172C61.9095 28.4019 62.2949 28.2128 62.4601 28.1423C62.5152 28.12 62.5592 28.0755 62.5813 28.0199C62.6584 27.8233 62.7648 27.3708 62.1995 27.1853C62.082 27.1482 62.0196 27.0184 62.06 26.8997C62.1444 26.666 62.1775 26.3062 61.7406 26.1059C61.2965 25.9056 60.9661 26.143 60.7862 26.3396C60.7128 26.4175 60.599 26.4286 60.5072 26.373C60.4558 26.3396 60.3898 26.3285 60.309 26.3804C60.2025 26.4472 60.0594 26.4026 60.0043 26.2877C59.8979 26.0688 59.6813 25.8314 59.2444 25.9056C58.4736 26.0391 58.3855 26.9034 58.5874 27.4116C58.7893 27.9197 59.6189 27.7269 60.0337 27.4709C60.3494 27.278 60.7605 27.482 60.9367 27.5896C60.9954 27.623 61.0358 27.6786 61.0432 27.7454Z" fill="url(#paint24_linear_14559_25123)"/>
<path d="M61.9389 29.2885C61.9389 29.2885 61.6232 28.3908 61.9462 28.172C62.2729 27.9531 62.7538 28.0644 62.6474 28.7172C62.5152 29.5259 61.9389 29.2885 61.9389 29.2885Z" fill="url(#paint25_linear_14559_25123)"/>
<path d="M74.6988 34.8005L45.7355 44.4038L47.1195 48.7177L76.2516 39.348C76.872 39.1477 77.2574 38.532 77.173 37.8792C77.0849 37.2115 76.7876 36.2916 75.9763 35.2048C75.679 34.8079 75.165 34.6447 74.6988 34.8005Z" fill="url(#paint26_linear_14559_25123)"/>
<path d="M38.0414 49.0292L41.4773 46.9632C41.8077 47.4009 42.0977 48.076 42.1161 49.0997L38.1589 49.4039C37.9496 49.4187 37.8615 49.1368 38.0414 49.0292Z" fill="url(#paint27_linear_14559_25123)"/>
<path d="M45.7356 44.4038C47.4976 46.4068 47.1195 48.7177 47.1195 48.7177L42.1198 49.0997C42.1014 48.076 41.8114 47.4009 41.481 46.9632L45.7356 44.4038Z" fill="url(#paint28_linear_14559_25123)"/>
<path d="M75.2128 36.0542C75.2385 36.0319 75.2532 35.9948 75.2421 35.9615C75.2275 35.9169 75.1797 35.891 75.1357 35.9058L47.4609 45.1456C47.4168 45.1605 47.3911 45.2087 47.4058 45.2532C47.4205 45.2977 47.4682 45.3237 47.5123 45.3088L75.1871 36.069C75.1944 36.0653 75.2054 36.0616 75.2128 36.0542Z" fill="#91B3FA"/>
<path d="M75.8515 37.6714C75.8772 37.6492 75.8919 37.6121 75.8809 37.5787C75.8662 37.5342 75.8185 37.5082 75.7744 37.5231L48.0996 46.7629C48.0556 46.7777 48.0299 46.8259 48.0446 46.8704C48.0592 46.9149 48.107 46.9409 48.151 46.9261L75.8258 37.6863C75.8332 37.6825 75.8442 37.6751 75.8515 37.6714Z" fill="#91B3FA"/>
<path d="M68.6529 42.0966L66.8762 41.9519L66.1053 42.6678C66.1053 42.6678 66.2889 42.9238 66.8579 42.7754C67.4269 42.6307 68.2051 42.5936 68.2051 42.5936C68.2051 42.5936 68.9907 42.9497 69.0017 42.2821L68.6529 42.0966Z" fill="url(#paint29_linear_14559_25123)"/>
<path d="M57.2475 41.5402C57.0933 41.6626 56.5684 41.4067 56.2453 41.2323C56.0875 41.147 56.014 40.9616 56.0654 40.7909C56.1425 40.5424 56.271 40.2234 56.4325 40.1863C56.6968 40.1158 57.8789 41.0395 57.2475 41.5402Z" fill="url(#paint30_linear_14559_25123)"/>
<defs>
<linearGradient id="paint0_linear_14559_25123" x1="43.7516" y1="15.6808" x2="44.9759" y2="63.1783" gradientUnits="userSpaceOnUse">
<stop stop-color="#09005D"/>
<stop offset="1" stop-color="#1A0F91"/>
</linearGradient>
<linearGradient id="paint1_linear_14559_25123" x1="71.5078" y1="12.7862" x2="-42.8536" y2="124.525" gradientUnits="userSpaceOnUse">
<stop stop-color="#4F52FF"/>
<stop offset="1" stop-color="#4042E2"/>
</linearGradient>
<linearGradient id="paint2_linear_14559_25123" x1="46.6362" y1="26.5978" x2="44.1968" y2="52.8315" gradientUnits="userSpaceOnUse">
<stop stop-color="#09005D"/>
<stop offset="1" stop-color="#1A0F91"/>
</linearGradient>
<linearGradient id="paint3_linear_14559_25123" x1="26.3645" y1="15.1931" x2="57.1893" y2="15.1931" gradientUnits="userSpaceOnUse">
<stop stop-color="#DAE3FE"/>
<stop offset="1" stop-color="#E9EFFD"/>
</linearGradient>
<linearGradient id="paint4_linear_14559_25123" x1="26.7338" y1="18.8748" x2="47.4537" y2="18.8748" gradientUnits="userSpaceOnUse">
<stop stop-color="#DAE3FE"/>
<stop offset="1" stop-color="#E9EFFD"/>
</linearGradient>
<linearGradient id="paint5_linear_14559_25123" x1="25.8807" y1="24.0584" x2="56.7055" y2="24.0584" gradientUnits="userSpaceOnUse">
<stop stop-color="#DAE3FE"/>
<stop offset="1" stop-color="#E9EFFD"/>
</linearGradient>
<linearGradient id="paint6_linear_14559_25123" x1="26.25" y1="27.7401" x2="46.9698" y2="27.7401" gradientUnits="userSpaceOnUse">
<stop stop-color="#DAE3FE"/>
<stop offset="1" stop-color="#E9EFFD"/>
</linearGradient>
<linearGradient id="paint7_linear_14559_25123" x1="46.2574" y1="27.8881" x2="35.378" y2="48.4503" gradientUnits="userSpaceOnUse">
<stop stop-color="#09005D"/>
<stop offset="1" stop-color="#1A0F91"/>
</linearGradient>
<linearGradient id="paint8_linear_14559_25123" x1="52.1483" y1="36.115" x2="54.8711" y2="36.115" gradientUnits="userSpaceOnUse">
<stop stop-color="#09005D"/>
<stop offset="1" stop-color="#1A0F91"/>
</linearGradient>
<linearGradient id="paint9_linear_14559_25123" x1="67.0766" y1="61.8638" x2="62.9876" y2="61.8638" gradientUnits="userSpaceOnUse">
<stop stop-color="#09005D"/>
<stop offset="1" stop-color="#1A0F91"/>
</linearGradient>
<linearGradient id="paint10_linear_14559_25123" x1="66.8097" y1="58.84" x2="64.943" y2="61.8921" gradientUnits="userSpaceOnUse">
<stop stop-color="#4F52FF"/>
<stop offset="1" stop-color="#4042E2"/>
</linearGradient>
<linearGradient id="paint11_linear_14559_25123" x1="66.6991" y1="59.9234" x2="65.5473" y2="59.9234" gradientUnits="userSpaceOnUse">
<stop stop-color="#FEBBBA"/>
<stop offset="1" stop-color="#FF928E"/>
</linearGradient>
<linearGradient id="paint12_linear_14559_25123" x1="75.2284" y1="61.7746" x2="73.6614" y2="61.7746" gradientUnits="userSpaceOnUse">
<stop stop-color="#09005D"/>
<stop offset="1" stop-color="#1A0F91"/>
</linearGradient>
<linearGradient id="paint13_linear_14559_25123" x1="75.9668" y1="55.5726" x2="73.6877" y2="61.453" gradientUnits="userSpaceOnUse">
<stop stop-color="#4F52FF"/>
<stop offset="1" stop-color="#4042E2"/>
</linearGradient>
<linearGradient id="paint14_linear_14559_25123" x1="74.0215" y1="58.9532" x2="72.645" y2="58.9532" gradientUnits="userSpaceOnUse">
<stop stop-color="#FEBBBA"/>
<stop offset="1" stop-color="#FF928E"/>
</linearGradient>
<linearGradient id="paint15_linear_14559_25123" x1="71.217" y1="43.334" x2="65.4774" y2="60.2125" gradientUnits="userSpaceOnUse">
<stop stop-color="#09005D"/>
<stop offset="1" stop-color="#1A0F91"/>
</linearGradient>
<linearGradient id="paint16_linear_14559_25123" x1="72.0106" y1="17.8636" x2="60.869" y2="44.7805" gradientUnits="userSpaceOnUse">
<stop stop-color="#E1473D"/>
<stop offset="1" stop-color="#E9605A"/>
</linearGradient>
<linearGradient id="paint17_linear_14559_25123" x1="67.5382" y1="42.2879" x2="64.2375" y2="49.3974" gradientUnits="userSpaceOnUse">
<stop stop-color="#4F52FF"/>
<stop offset="1" stop-color="#4042E2"/>
</linearGradient>
<linearGradient id="paint18_linear_14559_25123" x1="53.3284" y1="-55.7744" x2="52.0556" y2="-63.1702" gradientUnits="userSpaceOnUse">
<stop stop-color="#FEBBBA"/>
<stop offset="1" stop-color="#FF928E"/>
</linearGradient>
<linearGradient id="paint19_linear_14559_25123" x1="75.1626" y1="19.1683" x2="64.0211" y2="46.0852" gradientUnits="userSpaceOnUse">
<stop stop-color="#E1473D"/>
<stop offset="1" stop-color="#E9605A"/>
</linearGradient>
<linearGradient id="paint20_linear_14559_25123" x1="68.3925" y1="16.3659" x2="57.2509" y2="43.2828" gradientUnits="userSpaceOnUse">
<stop stop-color="#E1473D"/>
<stop offset="1" stop-color="#E9605A"/>
</linearGradient>
<linearGradient id="paint21_linear_14559_25123" x1="59.866" y1="39.241" x2="55.9256" y2="40.2261" gradientUnits="userSpaceOnUse">
<stop stop-color="#FEBBBA"/>
<stop offset="1" stop-color="#FF928E"/>
</linearGradient>
<linearGradient id="paint22_linear_14559_25123" x1="62.2804" y1="28.6734" x2="62.3235" y2="35.9552" gradientUnits="userSpaceOnUse">
<stop stop-color="#FEBBBA"/>
<stop offset="1" stop-color="#FF928E"/>
</linearGradient>
<linearGradient id="paint23_linear_14559_25123" x1="59.942" y1="27.4761" x2="62.8283" y2="32.6556" gradientUnits="userSpaceOnUse">
<stop stop-color="#FEBBBA"/>
<stop offset="1" stop-color="#FF928E"/>
</linearGradient>
<linearGradient id="paint24_linear_14559_25123" x1="62.4617" y1="28.9991" x2="58.2661" y2="28.4" gradientUnits="userSpaceOnUse">
<stop stop-color="#09005D"/>
<stop offset="1" stop-color="#1A0F91"/>
</linearGradient>
<linearGradient id="paint25_linear_14559_25123" x1="64.5533" y1="31.9422" x2="62.1214" y2="28.6365" gradientUnits="userSpaceOnUse">
<stop stop-color="#FEBBBA"/>
<stop offset="1" stop-color="#FF928E"/>
</linearGradient>
<linearGradient id="paint26_linear_14559_25123" x1="43.2289" y1="42.2456" x2="94.7764" y2="40.7861" gradientUnits="userSpaceOnUse">
<stop stop-color="#09005D"/>
<stop offset="1" stop-color="#1A0F91"/>
</linearGradient>
<linearGradient id="paint27_linear_14559_25123" x1="46.2145" y1="48.5521" x2="38.9549" y2="48.1442" gradientUnits="userSpaceOnUse">
<stop stop-color="#09005D"/>
<stop offset="1" stop-color="#1A0F91"/>
</linearGradient>
<linearGradient id="paint28_linear_14559_25123" x1="38.1351" y1="45.9267" x2="66.9948" y2="49.9579" gradientUnits="userSpaceOnUse">
<stop stop-color="#FEBBBA"/>
<stop offset="1" stop-color="#FF928E"/>
</linearGradient>
<linearGradient id="paint29_linear_14559_25123" x1="51.0604" y1="-55.3838" x2="49.7874" y2="-62.7795" gradientUnits="userSpaceOnUse">
<stop stop-color="#FEBBBA"/>
<stop offset="1" stop-color="#FF928E"/>
</linearGradient>
<linearGradient id="paint30_linear_14559_25123" x1="57.4312" y1="40.8754" x2="56.0492" y2="40.8754" gradientUnits="userSpaceOnUse">
<stop stop-color="#FEBBBA"/>
<stop offset="1" stop-color="#FF928E"/>
</linearGradient>
</defs>
</svg>
