<svg width="86" height="65" viewBox="0 0 86 65" fill="none" xmlns="http://www.w3.org/2000/svg">
<path fill-rule="evenodd" clip-rule="evenodd" d="M13.823 68.6301C6.2212 68.6301 0 62.3404 0 54.6549C0 46.9675 6.2212 40.6798 13.823 40.6798C17.0374 40.6798 19.6672 38.0211 19.6672 34.7713C19.6672 31.5215 17.0374 28.8628 13.823 28.8628H13.1279C9.78597 28.8628 7.05146 26.0982 7.05146 22.7195C7.05146 19.3407 9.78597 16.5761 13.1279 16.5761H15.2607C16.5613 16.5761 17.6258 15.4999 17.6258 14.185C17.6258 12.8701 16.5613 11.7939 15.2607 11.7939H13.6935C12.7947 11.7939 12.0616 11.0507 12.0616 10.144C12.0616 9.23526 12.7966 8.49405 13.6935 8.49405H24.2336C25.6446 8.49405 26.7986 7.32737 26.7986 5.90078C26.7986 4.4742 25.6446 3.30752 24.2336 3.30752H21.082C20.1832 3.30752 19.4501 2.56439 19.4501 1.65761C19.4501 0.748909 20.1851 0.00770086 21.082 0.00770086H65.9063C67.0774 0.00770086 68.0372 0.978009 68.0372 2.16202C68.0372 3.34602 67.0774 4.31633 65.9063 4.31633H62.6748C60.8334 4.31633 59.3271 5.83918 59.3271 7.70086C59.3271 9.56254 60.8334 11.0854 62.6748 11.0854H76.5149C77.686 11.0854 78.6458 12.0557 78.6458 13.2397C78.6458 14.4237 77.6879 15.394 76.5149 15.394H74.4697C72.7711 15.394 71.3829 16.7994 71.3829 18.5148C71.3829 20.2321 72.773 21.6356 74.4697 21.6356H77.2538C81.6145 21.6356 85.1831 25.2434 85.1831 29.6522C85.1831 34.0609 81.6145 37.6688 77.2538 37.6688H76.3454C72.1503 37.6688 68.7189 41.138 68.7189 45.3792C68.7189 49.6205 72.1503 53.0897 76.3454 53.0897H78.3106C82.54 53.0897 86 56.5878 86 60.8637C86 65.1396 82.54 68.6378 78.3106 68.6378C56.4288 68.6301 35.7048 68.6301 13.823 68.6301ZM71.3563 4.30863C72.5331 4.30863 73.4871 3.3441 73.4871 2.15432C73.4871 0.964533 72.5331 0 71.3563 0C70.1794 0 69.2254 0.964533 69.2254 2.15432C69.2254 3.3441 70.1794 4.30863 71.3563 4.30863ZM9.11186 11.79C10.0145 11.79 10.7438 11.0507 10.7438 10.1401C10.7438 9.22755 10.0126 8.4902 9.11186 8.4902C8.20925 8.4902 7.47992 9.22948 7.47992 10.1401C7.47801 11.0507 8.20925 11.79 9.11186 11.79Z" fill="#CDE5FB"/>
<path fill-rule="evenodd" clip-rule="evenodd" d="M43.299 13.5651H17.5458C17.5972 13.7614 17.6258 13.9694 17.6258 14.1831C17.6258 15.498 16.5613 16.5742 15.2607 16.5742H13.1279C9.78596 16.5742 7.05145 19.3388 7.05145 22.7175C7.05145 22.7349 7.05145 22.7541 7.05145 22.7714H43.299C45.8031 22.7714 47.852 20.6999 47.852 18.1683C47.852 15.6366 45.8031 13.5651 43.299 13.5651Z" fill="#DCE9F7"/>
<path fill-rule="evenodd" clip-rule="evenodd" d="M7.60941 20.1531H47.852V68.6301H13.823C6.2212 68.6301 0 62.3404 0 54.6549C0 46.9675 6.2212 40.6798 13.823 40.6798C17.0374 40.6798 19.6672 38.0211 19.6672 34.7713C19.6672 31.5215 17.0374 28.8628 13.823 28.8628H13.1279C9.78597 28.8628 7.05146 26.0982 7.05146 22.7194C7.05146 21.803 7.25141 20.9348 7.60941 20.1531Z" fill="#CDE0F3"/>
<path fill-rule="evenodd" clip-rule="evenodd" d="M7.2038 24.0806H44.5748C45.645 24.0806 46.521 25.1298 46.521 26.414V68.6301H13.823C6.2212 68.6301 0 62.3404 0 54.6549C0 46.9676 6.2212 40.6798 13.823 40.6798C17.0374 40.6798 19.6672 38.0211 19.6672 34.7713C19.6672 31.5216 17.0374 28.8628 13.823 28.8628H13.1279C10.2487 28.8609 7.82078 26.8086 7.2038 24.0806Z" fill="#C1DBF2"/>
<path fill-rule="evenodd" clip-rule="evenodd" d="M19.3396 32.8249H46.519V36.7966H19.311C19.5415 36.1632 19.6671 35.4817 19.6671 34.7713C19.6671 34.0898 19.5529 33.4352 19.3396 32.8249Z" fill="#CDE0F3"/>
<path fill-rule="evenodd" clip-rule="evenodd" d="M48.4272 31.1346H18.4237C19.2025 32.1395 19.6691 33.4025 19.6691 34.7694C19.6691 34.883 19.6653 34.9946 19.6596 35.1063H48.4291C49.1355 35.1063 49.7106 34.523 49.7106 33.8106V32.4322C49.7087 31.7179 49.1336 31.1346 48.4272 31.1346Z" fill="#DCE9F7"/>
<path fill-rule="evenodd" clip-rule="evenodd" d="M0.540809 50.7929H46.521V54.7647H0.00190426C0.00190426 54.7281 0 54.6915 0 54.6549C0 53.3169 0.188521 52.0212 0.540809 50.7929Z" fill="#CDE0F3"/>
<path fill-rule="evenodd" clip-rule="evenodd" d="M48.4271 49.1045H1.14444C0.609339 50.3463 0.247531 51.6805 0.0894775 53.0762H48.4271C49.1336 53.0762 49.7087 52.4929 49.7087 51.7806V50.4021C49.7087 49.6879 49.1336 49.1045 48.4271 49.1045Z" fill="#DCE9F7"/>
<path fill-rule="evenodd" clip-rule="evenodd" d="M48.4271 18.1682H9.05474C7.9598 19.1732 7.22475 20.5728 7.07812 22.14H48.4271C49.1336 22.14 49.7087 21.5566 49.7087 20.8443V19.4658C49.7087 18.7516 49.1336 18.1682 48.4271 18.1682Z" fill="#DCE9F7"/>
<path fill-rule="evenodd" clip-rule="evenodd" d="M10.6391 17.171H44.2682C45.1785 17.171 45.923 16.3239 45.923 15.2901C45.923 14.8896 45.8107 14.5161 45.6203 14.21C46.9361 14.9031 47.854 16.4202 47.854 18.1683H9.05475C9.5232 17.762 10.0564 17.4232 10.6391 17.171Z" fill="#CDE0F3"/>
<path fill-rule="evenodd" clip-rule="evenodd" d="M44.9157 39.0722H39.2962C39.0315 39.0722 38.8163 39.2898 38.8163 39.5574V48.6194C38.8163 48.887 39.0315 49.1045 39.2962 49.1045H44.9157C45.1804 49.1045 45.3956 48.887 45.3956 48.6194V39.5574C45.3956 39.2898 45.1804 39.0722 44.9157 39.0722Z" fill="#EAEAE6"/>
<path fill-rule="evenodd" clip-rule="evenodd" d="M38.0584 39.0722H35.204C35.0707 39.0722 34.9602 39.182 34.9602 39.3187V48.8581C34.9602 48.9929 35.0707 49.1045 35.204 49.1045H38.0584C38.1917 49.1045 38.3022 48.9929 38.3022 48.8581V39.3187C38.3022 39.182 38.1917 39.0722 38.0584 39.0722Z" fill="#E7E9E3"/>
<path fill-rule="evenodd" clip-rule="evenodd" d="M35.6534 37.1817H32.3305C32.1743 37.1817 32.0468 37.3107 32.0468 37.4685V48.8177C32.0468 48.9755 32.1743 49.1045 32.3305 49.1045H35.6534C35.8096 49.1045 35.9371 48.9755 35.9371 48.8177V37.4685C35.9371 37.3107 35.8096 37.1817 35.6534 37.1817Z" fill="#B3CEEB"/>
<path fill-rule="evenodd" clip-rule="evenodd" d="M36.8702 44.459H31.1155C30.9308 44.459 30.7804 44.6111 30.7804 44.7978V48.7657C30.7804 48.9524 30.9308 49.1045 31.1155 49.1045H36.8702C37.0549 49.1045 37.2054 48.9524 37.2054 48.7657V44.7978C37.2054 44.6111 37.0549 44.459 36.8702 44.459Z" fill="#B8D3EE"/>
<path fill-rule="evenodd" clip-rule="evenodd" d="M29.7997 40.5932H26.9452C26.8119 40.5932 26.7015 40.7048 26.7015 40.8396V48.8581C26.7015 48.9929 26.8119 49.1045 26.9452 49.1045H29.7997C29.933 49.1045 30.0434 48.9929 30.0434 48.8581V40.8396C30.0434 40.7048 29.933 40.5932 29.7997 40.5932Z" fill="#B8D3EE"/>
<path fill-rule="evenodd" clip-rule="evenodd" d="M43.8207 41.3209H40.3893C40.2122 41.3209 40.0674 41.4672 40.0674 41.6462V43.5464C40.0674 43.7255 40.2122 43.8718 40.3893 43.8718H43.8207C43.9978 43.8718 44.1426 43.7255 44.1426 43.5464V41.6462C44.1426 41.4672 43.9978 41.3209 43.8207 41.3209Z" fill="#E3E2DC"/>
<path fill-rule="evenodd" clip-rule="evenodd" d="M43.8721 44.4571H40.3398C40.1912 44.4571 40.0674 44.5803 40.0674 44.7304V44.9942C40.0674 45.1444 40.1893 45.2695 40.3398 45.2695H43.8721C44.0226 45.2695 44.1445 45.1463 44.1445 44.9942V44.7304C44.1425 44.5803 44.0207 44.4571 43.8721 44.4571Z" fill="#E3E2DC"/>
<path fill-rule="evenodd" clip-rule="evenodd" d="M43.8721 46.03H40.3398C40.1912 46.03 40.0674 46.1532 40.0674 46.3034V46.5671C40.0674 46.7173 40.1893 46.8424 40.3398 46.8424H43.8721C44.0226 46.8424 44.1445 46.7192 44.1445 46.5671V46.3034C44.1425 46.1532 44.0207 46.03 43.8721 46.03Z" fill="#E3E2DC"/>
<path fill-rule="evenodd" clip-rule="evenodd" d="M28.3715 44.0066C27.983 44.0066 27.6688 44.3839 27.6688 44.8498C27.6688 45.3157 27.983 45.693 28.3715 45.693C28.76 45.693 29.0742 45.3157 29.0742 44.8498C29.0742 44.3839 28.76 44.0066 28.3715 44.0066Z" fill="#B3CEEB"/>
<path fill-rule="evenodd" clip-rule="evenodd" d="M29.8835 29.604H28.3734C28.2667 29.604 28.1791 29.6926 28.1791 29.8004V30.9421C28.1791 31.0499 28.2667 31.1365 28.3734 31.1365H29.8835C29.9901 31.1365 30.0758 31.0479 30.0758 30.9421V29.8004C30.0758 29.6926 29.9901 29.604 29.8835 29.604Z" fill="#DCE9F7"/>
<path fill-rule="evenodd" clip-rule="evenodd" d="M27.4632 27.1301H23.3157C23.1576 27.1301 23.0262 27.261 23.0262 27.4228V30.8439C23.0262 31.0037 23.1557 31.1365 23.3157 31.1365H27.4632C27.6212 31.1365 27.7526 31.0056 27.7526 30.8439V27.4228C27.7507 27.261 27.6212 27.1301 27.4632 27.1301Z" fill="#B8D3EE"/>
<path fill-rule="evenodd" clip-rule="evenodd" d="M25.4713 28.4065H22.6473C22.5388 28.4065 22.4512 28.4951 22.4512 28.6048V30.9363C22.4512 31.046 22.5388 31.1346 22.6473 31.1346H25.4713C25.5799 31.1346 25.6675 31.046 25.6675 30.9363V28.6048C25.6675 28.497 25.5799 28.4065 25.4713 28.4065Z" fill="#B3CEEB"/>
<path fill-rule="evenodd" clip-rule="evenodd" d="M23.5061 24.6736H21.0591C20.9449 24.6736 20.8497 24.7679 20.8497 24.8853V30.9247C20.8497 31.0402 20.943 31.1365 21.0591 31.1365H23.5061C23.6204 31.1365 23.7156 31.0422 23.7156 30.9247V24.8853C23.7156 24.7698 23.6204 24.6736 23.5061 24.6736Z" fill="#DCE9F7"/>
<path fill-rule="evenodd" clip-rule="evenodd" d="M38.8449 26.6527H38.6869V26.3523H38.7402C38.8392 26.3523 38.9192 26.2561 38.9192 26.1367C38.9192 26.0173 38.8392 25.9211 38.7402 25.9211H38.5441V24.6504C38.5441 24.5311 38.4622 24.4348 38.3651 24.4348C38.266 24.4348 38.1861 24.5311 38.1861 24.6504V25.9211H37.9899C37.8909 25.9211 37.809 26.0173 37.809 26.1367C37.809 26.2561 37.8909 26.3523 37.9899 26.3523H38.0451V26.6527H37.8852C37.7747 26.6527 37.6852 26.7605 37.6852 26.8933V30.8939C37.6852 31.0268 37.7747 31.1346 37.8852 31.1346H38.8468C38.9573 31.1346 39.0487 31.0268 39.0487 30.8939V26.8933C39.0449 26.7605 38.9554 26.6527 38.8449 26.6527Z" fill="#B3CEEB"/>
<path fill-rule="evenodd" clip-rule="evenodd" d="M40.4007 27.1224H40.2579V26.8529H40.3074C40.395 26.8529 40.4693 26.7662 40.4693 26.6604C40.4693 26.5545 40.3969 26.4678 40.3074 26.4678H40.1322V25.332C40.1322 25.2261 40.0599 25.1394 39.9704 25.1394C39.8809 25.1394 39.8085 25.2261 39.8085 25.332V26.4678H39.6333C39.5438 26.4678 39.4714 26.5545 39.4714 26.6604C39.4714 26.7662 39.5438 26.8529 39.6333 26.8529H39.6809V27.1224H39.5381C39.4391 27.1224 39.3572 27.2187 39.3572 27.338V30.9189C39.3572 31.0383 39.4391 31.1346 39.5381 31.1346H40.3988C40.4978 31.1346 40.5778 31.0383 40.5778 30.9189V27.338C40.5797 27.2206 40.4997 27.1224 40.4007 27.1224Z" fill="#B3CEEB"/>
<path fill-rule="evenodd" clip-rule="evenodd" d="M43.061 26.8991H40.6883C40.5759 26.8991 40.4845 26.9915 40.4845 27.1051V30.9324C40.4845 31.046 40.5759 31.1365 40.6883 31.1365H43.061C43.1733 31.1365 43.2628 31.0441 43.2628 30.9324V27.1051C43.2628 26.9915 43.1733 26.8991 43.061 26.8991Z" fill="#DCE9F7"/>
<path fill-rule="evenodd" clip-rule="evenodd" d="M42.5982 27.8482H41.1491C41.0748 27.8482 41.012 27.9098 41.012 27.9849V28.7877C41.012 28.8628 41.0729 28.9263 41.1491 28.9263H42.5982C42.6725 28.9263 42.7353 28.8647 42.7353 28.7877V27.9849C42.7353 27.9098 42.6744 27.8482 42.5982 27.8482Z" fill="#F5F6F5"/>
<path fill-rule="evenodd" clip-rule="evenodd" d="M42.6211 29.1728H41.1301C41.0672 29.1728 41.0158 29.2248 41.0158 29.2883V29.4C41.0158 29.4635 41.0672 29.5155 41.1301 29.5155H42.6211C42.6839 29.5155 42.7353 29.4635 42.7353 29.4V29.2883C42.7353 29.2248 42.6839 29.1728 42.6211 29.1728Z" fill="#F5F6F5"/>
<path fill-rule="evenodd" clip-rule="evenodd" d="M42.6211 29.837H41.1301C41.0672 29.837 41.0158 29.889 41.0158 29.9525V30.0642C41.0158 30.1277 41.0672 30.1797 41.1301 30.1797H42.6211C42.6839 30.1797 42.7353 30.1277 42.7353 30.0642V29.9525C42.7353 29.889 42.6839 29.837 42.6211 29.837Z" fill="#F5F6F5"/>
<path fill-rule="evenodd" clip-rule="evenodd" d="M40.1265 28.5317H38.6678C38.5993 28.5317 38.5441 28.5875 38.5441 28.6568V31.0075C38.5441 31.0768 38.5993 31.1326 38.6678 31.1326H40.1265C40.1951 31.1326 40.2503 31.0768 40.2503 31.0075V28.6568C40.2503 28.5894 40.1951 28.5317 40.1265 28.5317Z" fill="#B8D3EE"/>
<path fill-rule="evenodd" clip-rule="evenodd" d="M37.0321 24.7717H32.0867C31.8544 24.7717 31.664 24.9643 31.664 25.1991V30.7091C31.664 30.944 31.8544 31.1365 32.0867 31.1365H37.0321C37.2644 31.1365 37.4548 30.944 37.4548 30.7091V25.1991C37.4529 24.9643 37.2625 24.7717 37.0321 24.7717Z" fill="#B8D3EE"/>
<path fill-rule="evenodd" clip-rule="evenodd" d="M37.9766 28.5317H36.5179C36.4494 28.5317 36.3942 28.5875 36.3942 28.6568V31.0075C36.3942 31.0768 36.4494 31.1326 36.5179 31.1326H37.9766C38.0452 31.1326 38.1004 31.0768 38.1004 31.0075V28.6568C38.1004 28.5894 38.0452 28.5317 37.9766 28.5317Z" fill="#DCE9F7"/>
<path fill-rule="evenodd" clip-rule="evenodd" d="M14.9218 27.1301H19.0693C19.2273 27.1301 19.3587 27.261 19.3587 27.4228V30.8439C19.3587 31.0037 19.2292 31.1365 19.0693 31.1365H18.4237C17.5097 29.9583 16.1634 29.1362 14.6342 28.9187V27.4208C14.6323 27.261 14.7618 27.1301 14.9218 27.1301Z" fill="#B3CEEB"/>
<path fill-rule="evenodd" clip-rule="evenodd" d="M16.9136 28.4066H19.7377C19.8462 28.4066 19.9338 28.4951 19.9338 28.6049V30.9363C19.9338 31.046 19.8462 31.1346 19.7377 31.1346H18.4237C17.9572 30.532 17.3764 30.0237 16.7175 29.6406V28.6049C16.7156 28.497 16.8051 28.4066 16.9136 28.4066Z" fill="#B8D3EE"/>
<path fill-rule="evenodd" clip-rule="evenodd" d="M16.1424 29.2151H17.0812C17.125 29.2151 17.1612 29.2517 17.1612 29.296V29.9275C16.8203 29.6849 16.4509 29.4789 16.0624 29.3153V29.2979C16.0624 29.2517 16.0986 29.2151 16.1424 29.2151Z" fill="#F0F1EE"/>
<path fill-rule="evenodd" clip-rule="evenodd" d="M10.0335 25.5669H7.74841C8.32159 26.6642 9.21469 27.5691 10.2982 28.1486V25.8364C10.3001 25.6882 10.1801 25.5669 10.0335 25.5669Z" fill="#EAEAE6"/>
<path fill-rule="evenodd" clip-rule="evenodd" d="M9.42604 26.8144H8.61102C8.90809 27.1494 9.24323 27.4516 9.60504 27.7154V26.9954C9.60504 26.8972 9.52506 26.8144 9.42604 26.8144Z" fill="#E3E2DC"/>
<path fill-rule="evenodd" clip-rule="evenodd" d="M11.873 42.0467H11.6217V41.5731H11.7074C11.8635 41.5731 11.9911 41.421 11.9911 41.2323C11.9911 41.0456 11.8635 40.8935 11.7074 40.8935H11.416C11.0199 40.9647 10.6296 41.0533 10.2449 41.1592C10.2411 41.1842 10.2373 41.2092 10.2373 41.2343C10.2373 41.421 10.3649 41.575 10.521 41.575H10.6067V42.0486H10.3554C10.1821 42.0486 10.0392 42.22 10.0392 42.4279V48.7253C10.0392 48.9332 10.1821 49.1045 10.3554 49.1045H11.8711C12.0444 49.1045 12.1872 48.9332 12.1872 48.7253V42.4279C12.1891 42.218 12.0463 42.0467 11.873 42.0467Z" fill="#B3CEEB"/>
<path fill-rule="evenodd" clip-rule="evenodd" d="M14.3219 42.7879H14.0972V42.3643H14.1734C14.3124 42.3643 14.4266 42.2277 14.4266 42.0602C14.4266 41.8927 14.3124 41.756 14.1734 41.756H13.8953V40.6798C13.8706 40.6798 13.8458 40.6798 13.8211 40.6798C13.6764 40.6798 13.5335 40.6836 13.3888 40.6875V41.756H13.1108C12.9718 41.756 12.8575 41.8927 12.8575 42.0602C12.8575 42.2277 12.9718 42.3643 13.1108 42.3643H13.187V42.7879H12.9623C12.8061 42.7879 12.6785 42.94 12.6785 43.1267V48.7638C12.6785 48.9505 12.8061 49.1026 12.9623 49.1026H14.3181C14.4742 49.1026 14.6018 48.9505 14.6018 48.7638V43.1267C14.6056 42.94 14.478 42.7879 14.3219 42.7879Z" fill="#DEDED7"/>
<path fill-rule="evenodd" clip-rule="evenodd" d="M18.5113 42.4356H14.7751C14.5999 42.4356 14.4571 42.58 14.4571 42.7571V48.7811C14.4571 48.9582 14.5999 49.1026 14.7751 49.1026H18.5113C18.6864 49.1026 18.8312 48.9582 18.8312 48.7811V42.7571C18.8312 42.58 18.6864 42.4356 18.5113 42.4356Z" fill="#F9F9FA"/>
<path fill-rule="evenodd" clip-rule="evenodd" d="M17.7838 43.9295H15.5025C15.3845 43.9295 15.2892 44.0277 15.2892 44.1471V45.41C15.2892 45.5294 15.3864 45.6276 15.5025 45.6276H17.7838C17.9019 45.6276 17.9971 45.5294 17.9971 45.41V44.1471C17.9971 44.0258 17.9019 43.9295 17.7838 43.9295Z" fill="#F5F6F5"/>
<path fill-rule="evenodd" clip-rule="evenodd" d="M17.8181 46.0145H15.4683C15.3692 46.0145 15.2874 46.0973 15.2874 46.1974V46.3726C15.2874 46.4727 15.3673 46.5555 15.4683 46.5555H17.8162C17.9152 46.5555 17.9971 46.4727 17.9971 46.3726V46.1974C17.9971 46.0973 17.9171 46.0145 17.8181 46.0145Z" fill="#F5F6F5"/>
<path fill-rule="evenodd" clip-rule="evenodd" d="M17.8181 47.0599H15.4683C15.3692 47.0599 15.2874 47.1408 15.2874 47.2428V47.418C15.2874 47.5181 15.3673 47.6009 15.4683 47.6009H17.8162C17.9152 47.6009 17.9971 47.5181 17.9971 47.418V47.2428C17.9971 47.1427 17.9171 47.0599 17.8181 47.0599Z" fill="#F5F6F5"/>
<path fill-rule="evenodd" clip-rule="evenodd" d="M13.8915 45.0057H11.5969C11.4884 45.0057 11.4008 45.0943 11.4008 45.204V48.9062C11.4008 49.016 11.4884 49.1045 11.5969 49.1045H13.8934C14.002 49.1045 14.0896 49.016 14.0896 48.9062V45.204C14.0877 45.0962 14.0001 45.0057 13.8915 45.0057Z" fill="#EAEAE6"/>
<path fill-rule="evenodd" clip-rule="evenodd" d="M1.14825 49.0987C1.17682 49.1026 1.20538 49.1045 1.23395 49.1045H9.02045C9.38607 49.1045 9.68503 48.8022 9.68503 48.4326V41.3247C5.85748 42.5472 2.73831 45.4158 1.14825 49.0987Z" fill="#C1DBF2"/>
<path fill-rule="evenodd" clip-rule="evenodd" d="M10.5058 45.0057H8.20926C8.10072 45.0057 8.01312 45.0943 8.01312 45.204V48.9062C8.01312 49.016 8.10072 49.1045 8.20926 49.1045H10.5058C10.6143 49.1045 10.7019 49.016 10.7019 48.9062V45.204C10.7019 45.0962 10.6143 45.0057 10.5058 45.0057Z" fill="#C1DBF2"/>
<path fill-rule="evenodd" clip-rule="evenodd" d="M20.1604 64.8528H22.3503C22.5045 64.8528 22.6302 64.9798 22.6302 65.1358V66.7896C22.6302 66.9455 22.5045 67.0726 22.3503 67.0726H20.1604C20.0061 67.0726 19.8804 66.9455 19.8804 66.7896V65.1358C19.8804 64.9798 20.0061 64.8528 20.1604 64.8528Z" fill="#EAEAE6"/>
<path fill-rule="evenodd" clip-rule="evenodd" d="M23.6699 61.2642H29.6817C29.9121 61.2642 30.1006 61.4548 30.1006 61.6877V66.649C30.1006 66.882 29.9121 67.0726 29.6817 67.0726H23.6699C23.4395 67.0726 23.251 66.882 23.251 66.649V61.6877C23.251 61.4548 23.4395 61.2642 23.6699 61.2642Z" fill="#EAEAE6"/>
<path fill-rule="evenodd" clip-rule="evenodd" d="M26.5568 63.1162H30.6528C30.809 63.1162 30.9384 63.2452 30.9384 63.405V66.7838C30.9384 66.9417 30.8109 67.0726 30.6528 67.0726H26.5568C26.4006 67.0726 26.2711 66.9436 26.2711 66.7838V63.405C26.273 63.2472 26.4006 63.1162 26.5568 63.1162Z" fill="#E1E1D9"/>
<path fill-rule="evenodd" clip-rule="evenodd" d="M29.4074 57.7064H32.955C33.1207 57.7064 33.2578 57.845 33.2578 58.0125V66.7665C33.2578 66.9359 33.1207 67.0726 32.955 67.0726H29.4074C29.2398 67.0726 29.1046 66.9359 29.1046 66.7665V58.0125C29.1046 57.8431 29.2398 57.7064 29.4074 57.7064Z" fill="#B8D3EE"/>
<path fill-rule="evenodd" clip-rule="evenodd" d="M7.16952 60.573H7.39994V60.136H7.32186C7.17904 60.136 7.06098 59.9955 7.06098 59.8241C7.06098 59.6528 7.17904 59.5103 7.32186 59.5103H7.6075V57.6698C7.6075 57.4985 7.72556 57.356 7.86838 57.356C8.0112 57.356 8.12926 57.4966 8.12926 57.6698V59.5103H8.4149C8.55772 59.5103 8.67579 59.6509 8.67579 59.8241C8.67579 59.9955 8.55772 60.136 8.4149 60.136H8.33683V60.573H8.56724C8.7272 60.573 8.8586 60.7309 8.8586 60.9215V66.7222C8.8586 66.9147 8.7272 67.0726 8.56724 67.0726H7.50467C7.2933 66.9628 7.08573 66.8454 6.88198 66.7241V66.7222V60.9215C6.87817 60.7309 7.00956 60.573 7.16952 60.573Z" fill="#DEDED7"/>
<path fill-rule="evenodd" clip-rule="evenodd" d="M4.91298 61.2546H5.11864V60.8638H5.04818C4.9206 60.8638 4.81396 60.7367 4.81396 60.5827C4.81396 60.4287 4.9187 60.3016 5.04818 60.3016H5.30335V58.6536C5.30335 58.4996 5.40809 58.3745 5.53758 58.3745C5.66516 58.3745 5.7718 58.4996 5.7718 58.6536V60.3016H6.02697C6.15456 60.3016 6.2612 60.4267 6.2612 60.5827C6.2612 60.7367 6.15646 60.8638 6.02697 60.8638H5.95651V61.2546H6.16217C6.30499 61.2546 6.42306 61.3951 6.42306 61.5665V66.4411C5.79656 66.0368 5.20624 65.5825 4.6521 65.0857V61.5684C4.6521 61.3951 4.77016 61.2546 4.91298 61.2546Z" fill="#DEDED7"/>
<path fill-rule="evenodd" clip-rule="evenodd" d="M1.48151 60.9311H4.49594C4.6578 60.9311 4.7892 61.064 4.7892 61.2276V65.2128C3.43146 64.0211 2.30224 62.5656 1.48151 60.9311Z" fill="#F9F9FA"/>
<path fill-rule="evenodd" clip-rule="evenodd" d="M2.27179 62.3057H3.82566C3.9342 62.3057 4.0237 62.3962 4.0237 62.506V63.6688C4.0237 63.7785 3.9342 63.869 3.82566 63.869H3.45243C3.02397 63.3781 2.62979 62.8544 2.27179 62.3057Z" fill="#F5F6F5"/>
<path fill-rule="evenodd" clip-rule="evenodd" d="M3.77612 64.2271H3.8561C3.94751 64.2271 4.02177 64.3022 4.02177 64.3946V64.4851C3.93989 64.4023 3.85801 64.3156 3.77612 64.2271Z" fill="#F5F6F5"/>
<path fill-rule="evenodd" clip-rule="evenodd" d="M5.30908 63.2991H7.4228C7.52182 63.2991 7.60371 63.3819 7.60371 63.482V66.8916C7.60371 66.9705 7.55229 67.0398 7.48183 67.063C6.64396 66.6221 5.8556 66.0965 5.12817 65.4997V63.482C5.13008 63.38 5.21006 63.2991 5.30908 63.2991Z" fill="#EAEAE6"/>
<path fill-rule="evenodd" clip-rule="evenodd" d="M9.79742 57.845H16.9669C17.304 57.845 17.5782 58.1242 17.5782 58.463V66.4526C17.5782 66.7934 17.3021 67.0706 16.9669 67.0706H9.79742C9.46037 67.0706 9.18616 66.7915 9.18616 66.4526V58.463C9.18616 58.1242 9.46037 57.845 9.79742 57.845Z" fill="#EAEAE6"/>
<path fill-rule="evenodd" clip-rule="evenodd" d="M8.42822 63.2991H10.5419C10.641 63.2991 10.7228 63.3819 10.7228 63.482V66.8916C10.7228 66.9917 10.641 67.0745 10.5419 67.0745H8.42822C8.3292 67.0745 8.24731 66.9917 8.24731 66.8916V63.482C8.24731 63.38 8.3292 63.2991 8.42822 63.2991Z" fill="#F9F9FA"/>
<path fill-rule="evenodd" clip-rule="evenodd" d="M45.3613 64.8528H43.1714C43.0172 64.8528 42.8915 64.9798 42.8915 65.1358V66.7896C42.8915 66.9455 43.0172 67.0726 43.1714 67.0726H45.3613C45.5155 67.0726 45.6412 66.9455 45.6412 66.7896V65.1358C45.6412 64.9798 45.5155 64.8528 45.3613 64.8528Z" fill="#EAEAE6"/>
<path fill-rule="evenodd" clip-rule="evenodd" d="M41.8517 61.2642H35.84C35.6095 61.2642 35.421 61.4548 35.421 61.6877V66.649C35.421 66.882 35.6095 67.0726 35.84 67.0726H41.8517C42.0821 67.0726 42.2706 66.882 42.2706 66.649V61.6877C42.2706 61.4548 42.0821 61.2642 41.8517 61.2642Z" fill="#EAEAE6"/>
<path fill-rule="evenodd" clip-rule="evenodd" d="M38.9649 63.1162H34.8707C34.7146 63.1162 34.5851 63.2452 34.5851 63.405V66.7838C34.5851 66.9417 34.7127 67.0726 34.8707 67.0726H38.9649C39.1229 67.0726 39.2505 66.9436 39.2505 66.7838V63.405C39.2505 63.2472 39.1229 63.1162 38.9649 63.1162Z" fill="#E1E1D9"/>
<path fill-rule="evenodd" clip-rule="evenodd" d="M40.0827 64.2887H38.7211C38.6564 64.2887 38.605 64.3407 38.605 64.4061V66.9551C38.605 67.0206 38.6564 67.0726 38.7211 67.0726H40.0827C40.1474 67.0726 40.1988 67.0206 40.1988 66.9551V64.4061C40.1988 64.3426 40.1474 64.2887 40.0827 64.2887Z" fill="#F0F1EE"/>
<path fill-rule="evenodd" clip-rule="evenodd" d="M15.3426 41.3459L16.9726 41.1957C17.0792 41.1861 17.1668 41.267 17.1668 41.3748V41.9061C17.1668 42.0139 17.0792 42.1102 16.9726 42.1218L15.3426 42.27C15.2359 42.2796 15.1502 42.1988 15.1502 42.0909V41.5596C15.1483 41.4537 15.2359 41.3555 15.3426 41.3459Z" fill="white"/>
<g opacity="0.6">
<path opacity="0.6" d="M39.8161 61.4047C37.6224 61.4124 35.4287 61.474 33.2388 61.757C32.4124 61.8649 31.605 62.0997 30.7766 62.1941C29.1237 62.3847 27.4994 62.737 25.8408 62.9006C24.504 63.0315 23.1634 63.1105 21.8304 63.276C20.5812 63.432 19.1987 63.3954 17.9591 63.1374C17.0412 62.9468 16.1195 62.839 15.2169 62.531C14.2077 62.1864 13.1108 61.9419 12.0597 61.9496C10.561 61.963 9.10046 61.963 7.66465 62.5714C7.16193 62.7851 6.54495 63.1355 6.1622 63.5822C5.28624 64.6064 5.16817 67.1592 6.04223 68.22C7.51422 70.0066 10.6581 70.7074 12.7205 70.7401C14.9827 70.7767 17.1802 70.5803 19.4444 70.4648C21.5486 70.357 23.649 70.2049 25.757 70.2107C30.0625 70.2222 34.368 70.2107 38.6678 69.8757C42.7068 69.5599 46.7533 69.6697 50.8018 69.6697C54.9511 69.6697 59.0738 69.7082 63.1927 70.3512C64.9885 70.6304 66.8165 70.7285 68.6199 70.9249C70.2347 71.1001 71.7886 70.9211 73.3976 70.7593C74.7497 70.6227 76.0922 70.2184 77.3185 69.5349C78.2897 68.9939 80.0225 67.3113 80.3215 66.0195C81.1575 62.3962 68.5475 62.4848 66.6109 62.4925C64.4457 62.5021 62.2616 62.5849 60.0983 62.4886C59.1881 62.4482 58.2912 62.2403 57.4019 62.0131C56.5164 61.7859 55.6252 61.8437 54.7283 61.7493C50.9865 61.3528 47.2351 61.4105 43.4799 61.4105C42.2612 61.4124 41.0386 61.4009 39.8161 61.4047Z" fill="#F1F2F2"/>
</g>
<path d="M27.7755 65.9116C27.4841 65.9213 27.2042 65.8558 26.9185 65.8289C26.7719 62.9661 27.0385 59.9647 27.1547 57.0865C27.8821 57.125 28.6095 57.1654 29.337 57.2039C28.8304 58.7422 28.4686 60.3285 28.2572 61.9342C28.2249 62.1902 27.8174 65.9116 27.7755 65.9116Z" fill="#BF7D6D"/>
<path d="M25.5227 58.8153C27.0061 58.7864 28.4915 58.7575 29.9749 58.7287C31.1745 52.9511 32.2314 47.1447 33.1455 41.3132C33.2159 40.8607 33.2845 40.391 33.1569 39.952C32.9131 39.1223 32.0334 38.6487 31.1917 38.4889C29.8835 38.2425 27.4803 38.5851 26.81 39.9617C26.1016 41.4152 26.2197 44.0104 26.0483 45.616C25.5779 49.9959 25.4027 54.4085 25.5227 58.8153Z" fill="#292949"/>
<path d="M36.2608 65.9116C36.5522 65.9213 36.8321 65.8558 37.1177 65.8289C37.2644 62.9661 36.9978 59.9647 36.8816 57.0865C36.1542 57.125 35.4268 57.1654 34.6993 57.2039C35.2059 58.7422 35.5677 60.3285 35.7791 61.9342C35.8114 62.1902 36.2189 65.9116 36.2608 65.9116Z" fill="#BF7D6D"/>
<path d="M38.5117 58.8153C37.0282 58.7864 35.5448 58.7575 34.0595 58.7287C32.8598 52.9511 31.803 47.1447 30.8889 41.3132C30.8185 40.8607 30.7499 40.391 30.8775 39.952C31.1212 39.1223 32.001 38.6487 32.8427 38.4889C34.1509 38.2425 36.5541 38.5851 37.2244 39.9617C37.9328 41.4152 37.8147 44.0104 37.9861 45.616C38.4564 49.9959 38.6335 54.4085 38.5117 58.8153Z" fill="#292949"/>
<path d="M20.1127 21.9013C20.1413 21.909 20.1699 21.9186 20.1927 21.934C20.4117 22.0803 20.4403 22.2901 20.6098 22.4904C20.6859 22.5809 20.983 22.5385 20.9144 22.7753C20.8897 22.8619 20.7964 23.0679 20.7412 23.2528C20.6593 23.5242 20.7183 23.917 20.8211 24.2192C21.2267 25.4109 21.9427 26.4582 22.6816 27.4728C22.7235 27.5306 22.7692 27.5903 22.832 27.6211C22.9463 27.6769 23.0815 27.6288 23.1995 27.5826C23.7499 27.365 24.3193 27.2014 24.8981 27.0897C25.4161 26.9915 25.955 26.9376 26.4634 27.0743C26.9719 27.211 27.4479 27.5691 27.606 28.0773C27.7241 28.4566 27.6479 28.8936 27.408 29.2094C26.81 29.991 25.4313 29.6214 24.5954 29.5636C23.8051 29.5078 23.0186 29.3961 22.2436 29.2286C22.1484 29.2074 22.0494 29.1863 21.9694 29.1285C21.8837 29.0669 21.8285 28.9745 21.7752 28.884C21.0934 27.7135 20.5164 26.491 19.9623 25.2492C19.81 24.9084 19.8538 24.5292 19.7109 24.2154C19.6195 24.0151 19.4044 23.9247 19.2768 23.7533C19.1511 23.5858 19.0254 23.3317 18.9702 23.1295C18.8597 22.7291 19.1206 22.3903 19.3206 22.0707C19.3701 21.9917 19.4044 21.9378 19.4786 21.8936C19.6024 21.8223 19.7376 21.8416 19.8747 21.855C19.9566 21.8627 20.0366 21.8781 20.1127 21.9013Z" fill="#BF7D6D"/>
<path d="M24.9114 29.3518C24.7229 28.576 24.5344 27.8001 24.3478 27.0243C24.3592 27.0743 27.7793 25.9461 27.9849 25.8865C28.7695 25.6574 29.5864 25.4244 30.3938 25.5476C32.1191 25.8114 32.6675 28.0677 31.1212 29.0092C29.4417 30.0314 27.2346 30.4896 25.2904 30.2779C25.2485 30.274 25.2047 30.2682 25.1685 30.2432C25.1209 30.2086 25.1038 30.147 25.0904 30.0892C25.0295 29.8408 24.9705 29.5963 24.9114 29.3518Z" fill="#BABCBE"/>
<path d="M34.707 27.1359C35.8971 28.2814 36.7883 29.7503 37.3253 31.2751C38.2756 33.9723 38.2946 36.8525 38.3022 39.6748C38.306 40.6143 38.3079 41.5538 38.3117 42.4933C38.3156 43.4174 38.2337 43.6157 37.2396 43.4945C35.3982 43.2692 33.4845 42.8842 31.8163 42.0582C31.0223 41.6655 30.2815 41.1669 29.4493 40.8569C28.2382 40.4064 26.9986 40.6105 25.8008 40.3179C26.1055 39.3899 26.5587 38.5409 26.77 37.5686C26.9814 36.5945 27.0804 35.5972 27.1471 34.6019C27.2632 32.8615 27.4784 31.1327 27.606 29.4C27.6993 28.1582 27.5375 27.1417 28.8419 26.3273C29.5522 25.8845 30.8471 25.126 31.8487 25.3301C32.917 25.5438 34.0424 26.4948 34.707 27.1359Z" fill="#BABCBE"/>
<path d="M30.4148 23.1777C30.6395 23.6744 31.007 24.0883 31.306 24.5426C31.5973 24.9854 31.7021 25.384 31.7801 25.8961C31.8354 26.2657 31.9668 26.5545 32.4086 26.618C33.2407 26.7374 33.0027 26.0424 33.1912 25.538C33.4064 24.9604 33.8672 24.5041 34.189 23.9882C35.1183 22.4981 34.8536 19.5544 32.9208 18.9268C30.8071 18.2395 29.7331 21.6721 30.4148 23.1777Z" fill="#BF7D6D"/>
<path d="M33.7834 21.7376C34.0233 21.7472 34.2861 21.7665 34.4651 21.9301C34.6422 22.0938 34.6232 22.448 34.389 22.4865C34.1757 22.5212 33.8996 22.2959 33.7701 22.4615C33.6939 22.5578 33.7606 22.6983 33.8177 22.81C34.0386 23.2393 34.1052 23.7379 34.0024 24.1961C34.09 24.2789 34.2271 24.1923 34.3033 24.1076C34.686 23.684 34.9831 23.1873 35.1792 22.654C35.2554 22.783 35.3677 22.8927 35.501 22.9697C35.4211 22.7695 35.4725 22.5481 35.5201 22.3441C35.701 21.5913 35.8229 20.7076 35.303 20.0916C35.025 19.7623 34.6003 19.5717 34.1757 19.4928C33.7491 19.4139 33.315 19.4331 32.8865 19.4524C32.7037 19.4601 32.4771 19.5005 32.4333 19.6719C32.8351 19.8355 33.2521 20.1532 33.454 20.5382C33.5168 20.6537 33.7587 21.7357 33.7834 21.7376Z" fill="#292949"/>
<path d="M32.9322 19.926C32.9475 19.9375 32.9608 19.9471 32.976 19.9587C33.1588 20.0992 33.3302 20.2706 33.5511 20.3322C33.8691 20.4227 34.2119 20.2667 34.5242 20.3765C34.8746 20.4997 35.105 20.9232 35.3601 21.1735C35.7791 21.5855 36.2989 21.8878 36.8588 22.0591C37.1444 22.1477 37.4396 22.2016 37.7367 22.217C37.8719 22.2247 38.0528 22.2497 38.1842 22.2151C38.3613 22.1669 38.3555 22.0861 38.167 22.0245C37.5767 21.8339 37.392 20.9964 37.4377 20.44C37.472 20.0011 37.6224 19.5429 37.4567 19.1366C37.3311 18.8267 37.0587 18.665 36.7979 18.4878C36.5084 18.2915 36.1961 18.3454 35.8667 18.251C35.5239 18.1528 35.2459 17.8795 34.8955 17.8102C34.5261 17.737 34.1586 17.9026 33.7891 17.9738C33.4845 18.0335 33.1664 18.0296 32.8637 17.9623C32.5914 17.9026 32.3267 17.7909 32.0486 17.7928C31.6373 17.7967 31.2603 18.0566 31.0203 18.3935C30.6814 18.871 30.4624 19.6853 30.5824 20.3149C30.5633 20.2167 30.889 19.8644 30.9556 19.7893C31.0965 19.6295 31.266 19.4793 31.4812 19.4524C31.963 19.3946 32.5399 19.6391 32.9322 19.926Z" fill="#292949"/>
<path d="M35.2135 32.5785L39.4257 36.0651C40.8006 37.2029 41.0082 39.2417 39.8923 40.6201C38.7764 41.9986 36.756 42.195 35.383 41.0572L31.1708 37.5706L35.2135 32.5785Z" fill="white"/>
<path d="M35.3335 32.6786L31.1213 29.1921C29.7464 28.0542 27.7279 28.2506 26.612 29.6291C25.4961 31.0075 25.7037 33.0483 27.0785 34.1841L31.2907 37.6707L35.3335 32.6786Z" fill="#00BA88"/>
<path opacity="0.66" d="M28.5353 29.5983C29.3084 29.3826 30.1349 29.6233 30.7061 30.1893C30.9918 30.4704 31.3917 29.9987 31.106 29.7176C30.3748 28.9957 29.3046 28.7377 28.3315 29.0091C27.9488 29.1131 28.1544 29.7041 28.5353 29.5983Z" fill="white"/>
<path opacity="0.66" d="M27.3604 29.554C27.3756 29.631 27.4118 29.6984 27.4765 29.7465L27.4899 29.7561C27.5508 29.8004 27.6327 29.8216 27.705 29.81C27.7755 29.8004 27.8536 29.7561 27.8935 29.6945C27.9354 29.631 27.9602 29.554 27.945 29.477C27.9297 29.4 27.8936 29.3326 27.8288 29.2844L27.8155 29.2748C27.7545 29.2305 27.6727 29.2094 27.6003 29.2209C27.5298 29.2305 27.4518 29.2748 27.4118 29.3364C27.3718 29.4 27.3451 29.477 27.3604 29.554Z" fill="white"/>
<g opacity="0.18">
<path opacity="0.66" d="M27.9088 33.5815L32.001 36.968L32.121 37.0681L36.2132 40.4545C37.1749 41.2516 38.4526 41.3921 39.5171 40.9339C38.365 41.9889 36.5846 42.0544 35.3373 41.0225L31.245 37.636L31.1251 37.5359L27.0328 34.1495C25.6579 33.0117 25.4504 30.9729 26.5663 29.5944C26.9014 29.1805 27.3165 28.8744 27.7717 28.678C27.6555 28.7839 27.5451 28.9013 27.4422 29.0265C26.3263 30.403 26.5339 32.4437 27.9088 33.5815Z" fill="white"/>
</g>
<path d="M33.3683 39.2802C33.3645 39.2513 33.3607 39.2205 33.3645 39.1935C33.4026 38.9298 33.5778 38.8162 33.6863 38.5755C33.7339 38.4677 33.5721 38.2117 33.812 38.1751C33.9015 38.1616 34.1243 38.1597 34.3147 38.1327C34.5927 38.0923 34.9203 37.8728 35.1469 37.6495C35.4535 37.3492 35.7715 37.0257 36.0285 36.685C36.5674 35.9707 37.0911 35.1159 37.4872 34.3093C36.1999 33.5892 35.3754 32.0972 35.4439 30.6109C35.4516 30.455 35.4687 30.2952 35.5487 30.1623C35.6153 30.0488 35.722 29.966 35.8324 29.8967C37.0073 29.1728 37.6338 30.3279 38.1785 31.2385C38.5174 31.8065 38.8278 32.4052 39.0811 33.0174C39.4353 33.8761 39.1553 34.625 38.664 35.3835C38.1442 36.1863 37.6015 36.9911 36.9216 37.6668C36.5903 37.996 36.2228 38.2367 35.8572 38.5159C35.4954 38.7912 35.6363 38.9394 35.3811 39.2628C35.2383 39.4438 35.1259 39.6556 34.9526 39.8058C34.6403 40.0772 34.2252 39.9809 33.8558 39.9309C33.7644 39.9193 33.7015 39.9116 33.6292 39.8597C33.513 39.7769 33.473 39.644 33.4273 39.515C33.4007 39.44 33.3797 39.361 33.3683 39.2802Z" fill="#BF7D6D"/>
<path d="M38.0147 31.7314C37.3996 32.2319 36.7826 32.7325 36.1675 33.2331C36.2075 33.2003 33.7491 30.5474 33.6082 30.3837C33.0693 29.7619 32.5171 29.1131 32.2848 28.3199C31.7897 26.6276 33.5797 25.1703 35.0783 26.1887C36.7045 27.2957 38.0508 29.1227 38.6831 30.994C38.6964 31.0345 38.7097 31.0768 38.7021 31.1192C38.6907 31.1769 38.6431 31.2193 38.5974 31.2559C38.405 31.4157 38.2089 31.5735 38.0147 31.7314Z" fill="#BABCBE"/>
<path d="M50.7675 25.5611C51.3445 25.203 52.0795 25.2511 52.6051 25.6804C53.5667 26.464 54.5284 27.2476 55.49 28.0311C56.385 28.7608 57.1048 29.6676 58.3235 29.6907C59.1424 29.7061 60.999 30.2759 61.258 31.2058C61.3132 31.4041 61.2866 31.6139 61.258 31.818C61.2275 32.0375 61.119 32.3244 60.9019 32.2916C60.7972 32.2762 60.721 32.1857 60.6563 32.103C60.4639 31.8604 60.2392 31.6024 59.9345 31.5543C59.4318 31.4753 58.7653 31.8199 58.2283 31.845C57.4457 31.8816 56.663 31.9663 55.8823 32.0279L50.6703 28.2525C49.7411 27.5787 49.7925 26.1656 50.7675 25.5611Z" fill="#BF7D6D"/>
<path d="M49.5354 24.997C50.1162 24.3001 51.0189 23.9497 51.9938 24.3578C52.3785 24.5176 52.7555 24.6928 53.1269 24.8815C53.4658 25.0528 56.0233 27.648 55.9357 27.7577C55.0121 28.9071 54.0904 30.0565 53.1669 31.2058C52.1938 30.6456 51.2131 30.0757 50.3924 29.3056C49.4916 28.4585 48.6138 27.2687 48.9984 26C49.1108 25.6285 49.2955 25.2838 49.5354 24.997Z" fill="#006837"/>
<path d="M51.554 54.2911L51.6225 58.5323C51.5939 59.7086 51.6987 60.883 51.7691 62.0555C51.8358 63.1451 51.6168 64.2675 52.129 65.2783C52.289 65.594 52.6299 65.8154 52.8907 65.4496C53.0907 65.1685 52.9993 64.6795 53.0488 64.3523C53.4201 61.8938 54.1114 59.4949 54.456 57.0326C54.8159 54.4528 53.8295 54.5202 51.554 54.2911Z" fill="#BF7D6D"/>
<path d="M51.792 64.5544L51.5215 65.261L52.8488 66.443L54.0656 66.4931L54.4579 65.8443L52.8221 64.4062L51.792 64.5544Z" fill="#131321"/>
<path d="M48.5814 54.3334L47.8159 58.5054C47.5512 60.3709 46.9475 62.1883 46.6828 64.0538C46.6219 64.4832 46.6524 64.9529 46.4753 65.3572C46.302 65.7538 45.963 65.7692 45.6622 65.4997C45.2604 65.1397 45.4451 64.4966 45.4527 64.0057C45.5022 60.7309 45.247 57.5023 45.1861 54.2237C45.1861 54.1813 45.188 54.1313 45.2204 54.1043C45.247 54.0812 45.2851 54.0832 45.3194 54.0851C45.6336 54.1043 48.5642 54.4239 48.5814 54.3334Z" fill="#BF7D6D"/>
<path d="M45.4432 64.7277L45.0223 65.3553L46.0525 66.8088L47.2256 67.1361L47.7531 66.5932L46.481 64.8201L45.4432 64.7277Z" fill="#131321"/>
<path d="M55.8766 56.9902L55.3053 50.9258L55.0292 46.9868L54.0999 43.7678L49.0898 42.9824L42.8934 44.0547L42.5963 45.2734L43.7884 56.5378L49.7639 56.9902L49.6839 49.9786L50.6056 54.3257L50.5656 56.9902H55.8766Z" fill="#534741"/>
<path d="M43.9807 30.8728C43.9731 31.0768 43.9674 31.2828 43.9636 31.4869C43.8912 35.6473 44.1178 39.8597 44.1445 44.0528C46.2696 43.7159 48.4176 43.531 50.5675 43.4983C51.0646 43.4906 53.3287 43.8448 53.6429 43.5426C54.0714 43.1344 53.601 43.2115 53.6315 42.6801C53.6715 41.9928 53.3459 41.4306 53.4696 40.6163C53.6144 39.6594 53.9038 38.7122 54.0695 37.7554C54.5265 35.1371 54.416 32.6959 54.0809 30.0642C53.8848 28.5336 53.622 26.8722 52.7955 25.5418C52.2033 24.5908 50.9941 24.1846 49.9163 24.069C47.715 23.8322 45.5194 24.997 44.6758 27.109C44.1978 28.2987 44.0341 29.5867 43.9807 30.8728Z" fill="white"/>
<path d="M50.5714 25.4744L48.9851 28.3969C49.0689 31.3483 49.1508 34.3015 49.2346 37.2548C49.2726 38.616 49.3107 39.9752 49.3488 41.3363C49.3622 41.808 49.3736 42.2816 49.3888 42.7532C49.3964 42.965 49.3374 43.3231 49.4574 43.4945C49.7163 43.8699 50.6666 43.7524 51.0798 43.7852C51.7253 43.8371 52.3804 43.8891 52.9897 44.1144C53.3954 44.2645 53.7781 44.4898 54.2066 44.5514C54.3018 44.5649 54.4103 44.5668 54.4846 44.5052C54.5684 44.4359 54.5836 44.3146 54.5912 44.2049C54.7874 41.5269 54.6084 38.8181 54.6655 36.1267C54.7245 33.3505 54.7359 30.5301 54.0066 27.8309C53.7305 26.8125 53.3344 25.794 52.6927 24.9508C51.9196 23.9343 51.3292 23.8014 50.1124 23.7552C49.7582 23.7417 49.385 23.6821 49.524 24.1999C49.6345 24.6196 50.2933 25.1395 50.5714 25.4744Z" fill="#006837"/>
<path d="M47.1208 25.7497L48.7071 28.6722C48.6747 28.6722 48.5052 35.8359 48.4919 36.3192C48.4405 38.1578 48.3891 39.9963 48.3377 41.8368C48.3224 42.347 48.391 42.9458 48.292 43.4482C48.1529 44.149 47.4236 44.0123 46.8009 44.0682C45.4394 44.1914 44.0055 44.4282 42.6401 44.3569C42.2459 44.3377 42.7639 36.0285 42.7639 35.2526C42.762 32.4649 42.1926 29.3711 43.5942 26.8413C44.0017 26.1059 44.7196 24.9258 45.5136 24.5619C46.2525 24.2231 47.3113 24.1653 48.113 23.9766L48.1548 24.5022L47.1208 25.7497Z" fill="#006837"/>
<path d="M49.1603 18.7651C49.4878 19.1521 49.6992 19.6314 49.8135 20.1262C49.8439 20.2571 49.882 20.4092 50.002 20.4689C50.1315 20.5305 50.0667 20.7346 50.1315 20.6056C50.1962 20.4766 50.4171 20.03 50.4038 19.8856C50.3733 19.5467 50.3086 19.2117 50.2153 18.8864C50.1334 18.6034 50.0191 18.3127 49.7906 18.1278C49.6554 18.0181 49.4897 17.9546 49.3279 17.893C49.0917 17.8044 48.8499 17.7159 48.5985 17.7159C48.1663 17.7178 47.9378 17.918 48.3624 18.1413C48.669 18.303 48.9375 18.4994 49.1603 18.7651Z" fill="#292949"/>
<path d="M47.6083 24.9373C47.6502 25.1414 47.6483 25.3609 47.8559 25.486C47.9568 25.5457 48.0787 25.5534 48.1948 25.5515C48.4957 25.5419 48.7928 25.4629 49.0593 25.3205C49.1679 25.2627 49.2745 25.1915 49.3469 25.0894C49.4326 24.9681 49.4193 24.8719 49.4002 24.741C49.3774 24.585 49.3793 24.4233 49.3697 24.2635C49.3488 23.9131 49.305 23.5647 49.2498 23.2181C49.7354 23.0352 50.2933 22.758 50.3657 22.1958C50.3885 22.0187 50.3561 21.8358 50.3238 21.6587C50.1924 20.9213 50.0591 20.1859 49.9277 19.4486C49.882 19.1944 49.8344 18.9307 49.703 18.7112C49.4745 18.3262 49.0441 18.1529 48.6385 18.0682C47.6026 17.8564 46.4848 18.0855 45.704 18.819C45.4965 19.0135 45.3099 19.2503 45.2223 19.5371C45.089 19.9818 45.207 20.4747 45.327 20.9348C45.4375 21.3603 45.5479 21.7838 45.6583 22.2093C45.7859 22.6983 45.9649 23.2528 46.3953 23.4415C46.6238 23.5416 46.8885 23.5165 47.0961 23.6629C47.4579 23.9189 47.4007 24.4137 47.5626 24.7776C47.5816 24.8276 47.5969 24.8815 47.6083 24.9373Z" fill="#BF7D6D"/>
<path d="M50.4438 21.3275C50.4095 21.1928 50.2762 20.8039 50.1201 21.0946C50.0801 21.1697 50.0839 21.2659 50.0972 21.3545C50.1105 21.4431 50.1315 21.5316 50.1201 21.6202C50.0934 21.8204 49.903 21.9475 49.7164 21.9783C49.6421 21.9917 49.5659 21.9937 49.4936 21.9686C49.4231 21.9436 49.3641 21.8955 49.3031 21.8493C49.1584 21.7338 49.0156 21.6202 48.8709 21.5047C48.6233 21.3083 48.2387 21.4873 47.9721 21.5759C47.6636 21.6779 47.3665 21.8339 47.1475 22.0938C47.1247 22.1207 47.1037 22.1477 47.0828 22.1746C47.0314 22.2401 46.978 22.3056 46.9133 22.3556C46.6924 22.5231 46.3668 22.4557 46.1535 22.2632C46.0564 22.1746 45.9574 22.0572 45.8336 22.063C45.7365 22.0668 45.6565 22.1535 45.6241 22.2536C45.5041 22.629 45.6831 23.3818 45.9707 23.632C46.1935 23.8265 46.4772 23.9574 46.6467 24.2C46.761 24.3636 46.82 24.5754 46.9818 24.6909C47.1704 24.8257 47.4236 24.7814 47.6541 24.7852C47.8845 24.7891 48.1644 24.9007 48.1758 25.1337L48.551 25.2973C48.5757 25.3089 48.6024 25.3204 48.6309 25.3204C48.7052 25.3204 48.7547 25.2377 48.7623 25.1626C48.7699 25.0875 48.749 25.0124 48.7566 24.9373C48.7795 24.7236 49.008 24.61 49.1946 24.5061C49.5697 24.3001 49.8858 23.9882 50.0991 23.6147C50.1772 23.478 50.101 23.3798 50.1391 23.2585C50.1753 23.1469 50.2667 23.0795 50.3257 22.9736C50.4762 22.7041 50.5276 22.3614 50.5295 22.0572C50.5352 21.8108 50.5028 21.5643 50.4438 21.3275ZM48.5586 22.9081C48.3567 22.9659 48.1263 22.9986 47.9549 23.1276C47.8407 23.2123 47.7321 23.0198 47.8445 22.937C48.0311 22.7965 48.2806 22.7561 48.4995 22.6944C48.6366 22.6559 48.6938 22.8696 48.5586 22.9081Z" fill="#292949"/>
<path d="M49.5469 17.2788C49.5297 17.1306 49.5088 16.9862 49.4041 16.8918C49.3069 16.8052 49.1565 16.784 49.0803 16.6781C49.0441 16.6281 49.0289 16.5646 48.9889 16.5184C48.9185 16.4375 48.7985 16.4336 48.6919 16.4413C48.4557 16.4567 48.2139 16.501 47.9816 16.5415C47.795 16.5742 47.6388 16.6993 47.4484 16.7263C47.2065 16.7609 46.9647 16.7937 46.7267 16.8533C46.262 16.9708 45.8279 17.1729 45.466 17.4964C44.8529 18.0431 44.5253 18.7478 44.5691 19.5756C44.611 20.3649 45.049 21.3237 45.6108 21.8801C45.5708 21.676 45.3632 21.214 45.3746 21.0099C45.367 20.8097 45.3994 20.6075 45.4584 20.4169C45.5765 20.0338 45.8069 19.6873 46.0983 19.4158C46.561 18.9826 47.138 18.69 47.7321 18.4878C48.2234 18.3204 48.7376 18.1509 49.2612 18.1394C49.6668 18.1298 50.042 18.1413 49.6668 17.6754C49.5773 17.5676 49.564 17.4213 49.5469 17.2788Z" fill="#292949"/>
<path d="M62.6805 46.6846C63.1775 45.7104 63.2422 44.5688 62.8557 43.5445L61.2808 39.3611L58.0741 37.6842L54.5607 35.8495L51.354 34.1726L47.0675 35.2931C46.0182 35.5684 45.1328 36.2807 44.6357 37.2549L36.4589 53.2515C36.4589 53.2515 36.4608 53.2534 36.4665 53.2553C36.4455 53.2881 36.4246 53.3208 36.4075 53.3535C35.4763 55.1767 38.7592 58.7653 43.7427 61.3701C48.7261 63.9749 53.521 64.6064 54.4541 62.7832C54.4712 62.7486 54.4846 62.712 54.4998 62.6773C54.5036 62.6793 54.5074 62.6812 54.5074 62.6812L62.6805 46.6846Z" fill="#00BA88"/>
<g opacity="0.2">
<path opacity="0.2" d="M43.1447 41.8754L45.2908 37.6746C46.0239 36.2422 47.7663 35.68 49.1831 36.4212L51.7691 37.7727C51.7691 37.7727 47.3645 35.9938 43.1447 41.8754Z" fill="white"/>
</g>
<path d="M67.2412 35.2931L51.1864 26.9049C51.0169 26.8163 50.8094 26.8837 50.7218 27.0551L47.1932 33.957C47.1056 34.1283 47.1722 34.3382 47.3417 34.4267L63.3965 42.8149C63.566 42.9034 63.7735 42.8361 63.8611 42.6647L67.3897 35.7628C67.4773 35.5915 67.4107 35.3816 67.2412 35.2931Z" fill="#292949"/>
<path d="M51.1274 27.9525L50.4457 27.5963L47.4733 33.4116L48.155 33.7678L51.1274 27.9525Z" fill="#BABCBE"/>
<path d="M52.5859 28.7151L51.9041 28.3589L48.9317 34.1741L49.6135 34.5303L52.5859 28.7151Z" fill="#BABCBE"/>
<path d="M54.0316 29.4697L53.3498 29.1135L50.3774 34.9287L51.0591 35.2849L54.0316 29.4697Z" fill="#BABCBE"/>
<path d="M55.49 30.2323L54.8082 29.8761L51.8358 35.6913L52.5176 36.0475L55.49 30.2323Z" fill="#BABCBE"/>
<path d="M56.9467 30.9939L56.265 30.6377L53.2925 36.4529L53.9743 36.8091L56.9467 30.9939Z" fill="#BABCBE"/>
<path d="M58.4051 31.7565L57.7233 31.4003L54.7509 37.2155L55.4327 37.5717L58.4051 31.7565Z" fill="#BABCBE"/>
<path d="M59.8225 32.4958L59.1407 32.1396L56.1683 37.9548L56.85 38.311L59.8225 32.4958Z" fill="#BABCBE"/>
<path d="M61.2808 33.2584L60.5991 32.9022L57.6266 38.7174L58.3084 39.0736L61.2808 33.2584Z" fill="#BABCBE"/>
<path d="M62.7393 34.0209L62.0575 33.6647L59.0851 39.48L59.7668 39.8362L62.7393 34.0209Z" fill="#BABCBE"/>
<path d="M64.1968 34.7809L63.5151 34.4247L60.5426 40.2399L61.2244 40.5961L64.1968 34.7809Z" fill="#BABCBE"/>
<path d="M65.6553 35.5435L64.9735 35.1873L62.0011 41.0025L62.6828 41.3587L65.6553 35.5435Z" fill="#BABCBE"/>
<path d="M67.1137 36.306L66.4319 35.9498L63.4595 41.765L64.1412 42.1212L67.1137 36.306Z" fill="#BABCBE"/>
<g opacity="0.1">
<path opacity="0.1" d="M48.3567 34.9561L62.8557 43.5445L62.3815 42.2835L48.3567 34.9561Z" fill="#272525"/>
</g>
<path d="M44.0384 38.4179L37.5795 51.054L55.627 60.4831L62.0859 47.847L44.0384 38.4179Z" fill="white"/>
<g opacity="0.05">
<path opacity="0.05" d="M36.6912 55.5021C37.6947 57.3291 40.3169 59.5816 43.7388 61.3701C48.7223 63.973 53.5172 64.6064 54.4503 62.7832C54.4674 62.7486 54.4807 62.712 54.496 62.6773C54.4998 62.6793 54.5036 62.6812 54.5036 62.6812L61.5322 48.9332C61.5303 48.9332 52.207 63.6091 36.6912 55.5021Z" fill="#272525"/>
</g>
<path d="M46.0145 27.6769C46.6334 27.9522 47.0142 28.5914 46.9647 29.2729C46.8752 30.5185 46.7857 31.7641 46.6962 33.0078C46.6467 33.7067 46.4201 34.5865 46.601 35.2507C46.919 36.4232 47.7055 37.6341 48.2672 38.7065C48.551 39.2513 48.829 40.058 49.2727 40.4834C49.3565 40.5624 50.3143 41.0437 50.3067 41.0725C50.3067 41.0745 50.2553 41.3382 50.2553 41.3382L49.9944 41.2824L49.8382 41.3883L50.5352 41.7676L50.0706 42.5434L49.027 42.5511C48.728 41.9581 48.5719 41.2747 48.1377 40.7626C47.9549 40.545 47.7378 40.3602 47.536 40.16C47.1913 39.8154 46.8923 39.4284 46.582 39.0549C46.2811 38.693 45.9078 38.3888 45.6165 38.0288C44.9652 37.224 44.3178 36.4174 43.6703 35.6107L43.7732 29.1285C43.7884 27.9734 44.9671 27.211 46.0145 27.6769Z" fill="#BF7D6D"/>
<path d="M45.7707 26.3312C46.6676 26.4178 47.4674 26.9684 47.6902 28.01C47.7778 28.42 47.8521 28.8339 47.9092 29.2498C47.9625 29.6291 47.3094 33.2331 47.1704 33.2215C45.7098 33.1098 44.2492 32.9963 42.7906 32.8846C42.6935 31.7564 42.5964 30.6167 42.7563 29.4962C42.9315 28.266 43.3999 26.8587 44.6491 26.4544C45.0167 26.3389 45.4013 26.2965 45.7707 26.3312Z" fill="#006837"/>
<path d="M60.0831 31.9239C60.085 31.9875 60.0717 32.0664 60.0546 32.1203C59.9879 32.3552 59.9098 32.5843 59.8203 32.8115C60.0584 32.8654 60.2907 32.9385 60.5173 33.0309C60.7667 32.8057 60.9934 32.5554 61.1933 32.2839C61.2504 32.2089 61.3037 32.128 61.3304 32.0375C61.4237 31.7025 61.2828 31.1962 60.9534 31.1019C60.7686 31.048 60.5782 31.021 60.3935 30.9536C60.245 30.8997 60.0584 30.7746 59.8927 30.8092C59.6185 30.867 59.5671 31.254 59.5366 31.4811C59.5176 31.6178 59.39 32.4437 59.7194 32.1299C59.7899 32.0625 59.826 31.9663 59.8965 31.8989C60.0374 31.7603 60.0812 31.8219 60.0831 31.9239Z" fill="#EACDB0"/>
<path d="M22.7102 62.0959C22.6874 62.0401 22.6588 61.9842 22.6188 61.9265C22.4131 61.6223 22.0761 61.4182 21.7486 61.2276C20.9259 60.7482 20.0823 60.2746 19.1473 60.034C17.7439 59.674 16.2738 59.88 14.8951 60.2342C13.646 60.5557 12.1854 60.8618 11.02 61.3836C10.5896 61.5761 10.1402 61.9323 10.2164 62.3712C10.2449 62.5368 10.3478 62.6831 10.4544 62.8198C10.7629 63.2164 11.119 63.5802 11.5132 63.9018C11.7703 64.1116 12.0483 64.3061 12.3644 64.4273C12.73 64.5679 13.1318 64.6064 13.5279 64.6353C15.3503 64.7623 17.2088 64.6872 18.9874 64.2752C19.8576 64.0731 23.1863 63.303 22.7102 62.0959Z" fill="#292949"/>
<path d="M14.8684 46.5498C15.335 46.4978 15.8091 46.4901 16.2661 46.4593C16.767 46.4266 17.3192 46.0531 17.7724 46.2052C18.0714 46.3053 18.3113 46.5286 18.5341 46.7519C22.1598 50.3675 24.0812 55.658 23.6318 60.7868C23.5804 61.3682 23.4814 62.0016 23.1576 62.4983C22.5635 63.4127 21.2039 62.3654 20.425 62.144C19.869 61.9862 19.3149 61.8302 18.7588 61.6724C18.2104 61.5164 17.6601 61.3605 17.0983 61.2681C15.1731 60.9504 13.2289 61.3855 11.3932 61.9611C10.9685 62.094 10.4182 62.4059 9.97829 62.4309C9.59173 62.4521 9.5765 62.4963 9.57459 62.0747C9.57269 61.5241 9.98972 60.9273 10.1763 60.4229C10.8428 58.6305 11.3113 56.765 11.5703 54.8686C11.854 52.7875 11.8902 50.6505 12.4976 48.6271C12.7071 47.9302 12.8861 47.2024 13.5735 46.879C13.9848 46.6923 14.4228 46.5998 14.8684 46.5498Z" fill="#8CABEF"/>
<path d="M13.7374 43.635C14.9123 44.047 16.31 43.4559 17.4221 44.0046C18.1457 44.3608 18.5589 45.1501 18.578 45.9144C18.5932 46.5517 18.5342 47.3949 17.921 47.7973C17.5021 48.0726 16.9746 48.1669 16.4643 48.2536C15.9977 48.3325 15.4988 48.4057 15.0608 48.2362C14.6743 48.088 14.3981 47.7723 14.1715 47.4527C13.7183 46.8097 13.3375 45.7354 13.3889 44.9749C13.4193 44.5129 13.5774 44.0701 13.7374 43.635Z" fill="#BF7D6D"/>
<path d="M16.6489 44.022C16.6032 44.0143 16.5556 44.0085 16.5099 44.0027C15.8415 43.9199 15.1541 43.9931 14.5124 44.1991C14.0725 44.3396 13.6002 44.613 13.5393 45.127C13.5107 45.3581 13.5583 45.591 13.6059 45.8201C13.665 46.107 13.724 46.3919 13.783 46.6788C13.7945 46.7307 13.804 46.7846 13.7887 46.8347C13.7411 46.9868 13.5107 46.9695 13.3927 46.8636C12.9661 46.4747 12.4043 45.8336 12.1873 45.3003C12.0102 44.8633 12.0692 44.3011 11.7988 43.9103C11.6198 43.6523 11.4808 43.2499 11.2104 43.0979C10.841 42.888 10.462 42.6647 10.2125 42.3201C9.96309 41.9755 9.88121 41.4691 10.1288 41.1226C10.3649 40.7934 10.8143 40.7067 11.218 40.7106C11.6217 40.7144 12.0368 40.7799 12.4196 40.6548C12.5853 40.6009 12.7414 40.5104 12.9147 40.4853C13.4822 40.4064 14.341 40.6259 14.8361 40.9185C15.2988 41.1919 15.7368 41.5365 16.2605 41.6539C16.6813 41.7464 17.1193 41.6828 17.5458 41.7425C18.2561 41.8445 18.8979 42.3085 19.2578 42.9342C19.6615 43.6369 19.7852 44.5957 19.3454 45.2965C19.1245 45.6468 18.9645 46.0242 18.7988 46.4034C18.7417 46.5344 18.3647 47.0522 18.3133 46.5979C18.2733 46.2456 18.3456 45.8856 18.3018 45.5313C18.199 44.6669 17.443 44.1529 16.6489 44.022Z" fill="#292949"/>
<path d="M21.1087 34.238C19.8138 33.5449 18.138 33.0155 16.2719 32.7787C14.4057 32.54 12.6519 32.6324 11.2275 32.9789L8.1826 32.59L7.79413 35.988C7.92362 38.0018 11.1456 39.9771 15.3064 40.5065C19.4653 41.0379 23.0739 39.9328 23.6928 38.0153L24.1517 34.625L21.1087 34.238Z" fill="#D6D6D8"/>
<g opacity="0.1">
<path opacity="0.1" d="M21.1982 37.149C21.1982 37.149 18.6218 40.932 13.0899 40.0695C13.7869 40.2601 14.5314 40.4103 15.3103 40.5084C19.4692 41.0398 23.0777 39.9347 23.6966 38.0172L24.1555 34.6269C24.0127 35.757 22.8835 36.6445 21.1982 37.149Z" fill="#272525"/>
</g>
<path d="M16.6508 29.7446C12.2406 29.1824 8.44921 30.4569 8.18452 32.59C7.98647 34.1822 9.80504 35.8032 12.5719 36.7562L18.4275 30.068C17.86 29.9313 17.2659 29.8216 16.6508 29.7446Z" fill="white"/>
<path d="M19.5434 30.3837L13.6726 37.0873C14.3105 37.2529 14.9846 37.3838 15.6873 37.4724C20.0976 38.0345 23.8889 36.76 24.1536 34.6269C24.3593 32.9924 22.436 31.3271 19.5434 30.3837Z" fill="white"/>
<path d="M18.4408 30.0738L12.5852 36.762C12.9299 36.8794 13.2879 36.9872 13.6592 37.0835L19.5281 30.3799C19.1796 30.2682 18.8159 30.1643 18.4408 30.0738Z" fill="#D6D6D8"/>
<path d="M10.9438 52.6623C10.2221 54.5125 10.064 56.6418 10.2202 58.6921C10.304 59.801 10.4773 60.9023 10.6905 61.9939C10.8867 63.0027 11.2409 64.0346 11.3361 65.0473C11.9531 65.0357 12.5719 65.234 13.1794 65.1281C13.2137 65.1223 13.2499 65.1146 13.2765 65.0935C13.3108 65.0665 13.326 65.0222 13.3413 64.9818C13.4765 64.591 13.6288 64.2675 13.7145 63.8536C13.8135 63.3819 13.903 62.9064 13.9849 62.4309C14.1487 61.476 14.2801 60.5134 14.3753 59.5488C14.5695 57.6101 14.6266 55.658 14.5486 53.7116C14.541 53.5364 14.5333 53.3612 14.5238 53.186C14.3639 50.1596 11.8959 50.2212 10.9438 52.6623Z" fill="#292949"/>
<path d="M11.2752 66.3372C11.2885 66.368 11.3075 66.3968 11.3304 66.4219C11.5913 66.7029 12.1644 66.9975 12.5072 67.1708C12.61 67.2362 12.7129 67.3017 12.8252 67.346C13.0937 67.4499 13.3927 67.421 13.6802 67.3864C13.9525 67.3537 14.2877 67.2555 14.3296 66.9821C14.3543 66.8204 14.2572 66.6664 14.1639 66.5316C14.1068 66.4488 14.0477 66.3641 13.9621 66.3141C13.9068 66.2813 13.844 66.2678 13.7831 66.2505C13.5641 66.1889 13.3546 66.0946 13.1642 65.9694C13.1794 65.5459 13.1661 65.1223 13.1223 64.7007C13.128 64.7623 12.0902 64.7123 11.9969 64.7007C11.5741 64.6449 11.5665 64.8932 11.4656 65.286C11.3875 65.5786 11.1495 66.058 11.2752 66.3372Z" fill="#131321"/>
<path d="M14.8361 52.6912C14.3429 54.6145 14.4419 56.7496 14.8437 58.7653C15.276 60.9369 16.0396 63.0181 16.8242 65.0761C17.4811 64.9779 18.1381 64.8797 18.7951 64.7816C19.1074 62.9545 19.1093 61.0024 19.0731 59.1503C19.035 57.1885 18.8579 55.2286 18.5418 53.2919C18.5132 53.1167 18.4847 52.9434 18.4542 52.7701C17.9286 49.7861 15.4874 50.1499 14.8361 52.6912Z" fill="#292949"/>
<path d="M18.934 66.1562C18.5094 66.4276 18.0828 66.6991 17.6582 66.9705C17.5554 67.036 17.4525 67.1014 17.3402 67.1457C17.0717 67.2497 16.7727 67.2208 16.4852 67.1862C16.2129 67.1534 15.8777 67.0552 15.8358 66.7819C15.8111 66.6201 15.9082 66.4661 16.0015 66.3314C16.0586 66.2486 16.1177 66.1639 16.2033 66.1138C16.2586 66.0811 16.3214 66.0676 16.3823 66.0503C16.6013 65.9887 16.8108 65.8943 17.0012 65.7692C16.986 65.3456 16.9993 64.9221 17.0431 64.5005C17.504 64.5621 17.9743 64.5467 18.4313 64.4562C18.5475 65.0742 18.7589 65.6152 18.934 66.1562Z" fill="#131321"/>
<path d="M9.1481 38.385C9.18999 38.3253 9.25474 38.2829 9.36899 38.2521C9.61655 38.1905 9.85458 38.0981 10.0793 37.9768C10.1383 37.946 10.1992 37.9113 10.2678 37.9075C10.4658 37.8998 10.6353 38.1077 10.5877 38.2829C10.5382 38.4697 10.2945 38.5852 10.1745 38.7142C10.0488 38.8489 10.1878 39.0684 10.3592 39.0472C10.4506 39.0357 10.5268 38.9683 10.5782 38.8894C10.603 38.8528 10.6239 38.8085 10.6658 38.7931C10.961 38.6795 10.6467 39.4592 10.5382 39.5439C10.3611 39.6787 10.2316 39.8654 10.125 40.0599C10.026 40.2409 9.84696 40.5566 9.86981 40.7568C9.80316 40.8184 9.82982 40.9089 9.79364 41.0071C9.52705 40.8511 9.22237 40.7607 8.91578 40.7433C8.86246 40.0503 8.91007 39.3476 9.0586 38.668C9.08526 38.5467 9.10049 38.4543 9.1481 38.385Z" fill="#BF7D6D"/>
<path d="M8.69107 40.8589C8.55015 41.6713 8.31784 42.4876 8.18835 43.3039C8.02458 44.3319 7.8989 45.3658 7.79607 46.4015C7.76751 46.6942 7.74085 46.9887 7.78464 47.2794C7.86462 47.7896 8.25119 48.2497 8.64537 48.5559C9.78602 49.4434 11.0105 50.2192 12.2977 50.8719C12.3663 50.9065 13.008 49.2547 13.0575 49.1026C13.2613 48.4788 13.3508 47.8647 13.4517 47.2198C13.4574 47.1832 13.4631 47.1408 13.4441 47.11C13.4193 47.0657 13.3622 47.0561 13.3108 47.0503C12.4748 46.9502 11.6408 46.8212 10.8143 46.6634C10.4696 46.5979 10.0317 46.6133 9.85076 46.2649C9.71366 46.0011 9.75555 45.6854 9.79173 45.4043C9.85457 44.9134 9.90599 44.4205 9.94788 43.9257C10.0336 42.9188 10.0793 41.9081 10.0831 40.8974C10.0831 40.7433 8.90054 40.4372 8.75581 40.4315C8.73868 40.5701 8.71583 40.7145 8.69107 40.8589Z" fill="#8CABEF"/>
<path d="M22.872 39.1935C22.8282 39.13 22.7615 39.0857 22.6397 39.0549C22.3807 38.9894 22.1312 38.8932 21.8951 38.768C21.8323 38.7353 21.7694 38.6987 21.699 38.6949C21.4914 38.6853 21.3143 38.9047 21.3638 39.0896C21.4171 39.284 21.6723 39.4072 21.798 39.5401C21.9294 39.6806 21.7846 39.9116 21.6056 39.8885C21.5104 39.877 21.4286 39.8057 21.3771 39.7249C21.3524 39.6864 21.3295 39.6402 21.2857 39.6248C20.9772 39.5054 21.3048 40.3236 21.4209 40.4103C21.6076 40.5527 21.7409 40.7472 21.8532 40.9512C21.956 41.1399 22.1446 41.471 22.1198 41.6809C22.1903 41.7464 22.1617 41.8407 22.1998 41.9427C22.4797 41.7791 22.7977 41.6847 23.1195 41.6655C23.1767 40.9397 23.1252 40.2043 22.9691 39.4938C22.9386 39.3629 22.9215 39.2667 22.872 39.1935Z" fill="#BF7D6D"/>
<path d="M23.0186 41.6308C23.1462 42.3701 23.3576 43.1133 23.4776 43.8545C23.628 44.7882 23.7403 45.7296 23.8337 46.6711C23.8603 46.9367 23.8851 47.2063 23.8432 47.47C23.7708 47.934 23.4185 48.3518 23.0605 48.6309C22.0227 49.4376 20.9087 50.1441 19.7395 50.7371C19.6767 50.7679 19.094 49.2662 19.0483 49.1276C18.9569 48.8446 18.8445 48.5674 18.7588 48.2921C18.6769 48.0264 18.7626 47.7261 18.595 47.4854C18.4884 47.3333 18.3075 47.2525 18.1818 47.1158C18.1152 47.0445 18.0714 46.9194 18.1456 46.8578C18.1761 46.8328 18.2161 46.8289 18.2542 46.8251C18.5341 46.802 18.8197 46.8443 19.0787 46.9502C19.4177 47.0888 19.6195 47.1562 19.9852 47.0985C20.3546 47.0407 20.7221 46.9772 21.0896 46.9059C21.4038 46.8463 21.8018 46.8617 21.9656 46.544C22.0894 46.3053 22.0513 46.0184 22.0189 45.7604C21.9618 45.3138 21.9142 44.8652 21.8761 44.4166C21.798 43.5002 21.7561 42.5819 21.7523 41.6616C21.7523 41.5211 22.8282 41.2439 22.9596 41.2381C22.9767 41.369 22.9958 41.4999 23.0186 41.6308Z" fill="#8CABEF"/>
<path d="M67.8963 64.8394C67.6202 64.8586 67.3688 64.7604 67.1022 64.7296C67.1156 63.7766 67.2165 62.8622 67.4202 61.9188C67.8354 62.3847 68.1857 62.1132 68.1705 62.9892C68.1648 63.2741 67.8411 64.4062 67.8963 64.8394Z" fill="#BF7D6D"/>
<path d="M67.0413 64.2541C66.7271 64.1405 66.6566 64.8971 66.6547 65.0762C66.6528 65.184 66.6661 65.2918 66.6395 65.3957C66.609 65.5093 66.5347 65.6056 66.4624 65.698C66.31 65.8905 66.1596 66.0831 66.0073 66.2756C65.9387 66.3622 65.8702 66.4508 65.834 66.5547C65.7426 66.8127 65.893 67.1207 66.1348 67.244C66.9765 67.6733 67.7439 66.6337 67.9267 65.9464C67.9553 65.8405 67.9744 65.7346 67.9953 65.6268C68.0372 65.4054 68.2029 64.9221 68.1153 64.7065C68.0143 64.4543 67.7059 64.6372 67.5059 64.541C67.3193 64.4543 67.1669 64.3003 67.0413 64.2541Z" fill="#131321"/>
<path d="M73.0149 49.1219C72.2304 51.28 71.3258 53.392 70.8098 55.6503C70.1719 58.4418 69.1455 61.1622 68.618 63.9595C68.2771 63.9711 67.9363 63.9557 67.5973 63.9152C67.2088 63.869 66.5937 63.7631 66.4528 63.3338C66.3805 63.1143 66.4566 62.7582 66.4681 62.531C66.5023 61.8013 66.5538 61.0736 66.6071 60.3459C66.7575 58.2878 66.8603 56.2028 67.2336 54.1736C67.6278 52.0386 68.0048 49.8958 68.3514 47.7608C68.5304 46.6576 68.7513 45.5602 69.0236 44.4763C69.094 44.1972 69.8215 41.3171 69.9643 41.3402C71.661 41.6135 73.2491 42.1815 74.7268 43.0671C74.8697 43.1537 75.0087 43.2558 75.0582 43.4098C75.1077 43.5638 75.062 43.6947 75.0163 43.8352C74.5745 45.1617 73.9861 46.4073 73.5138 47.728C73.3539 48.1901 73.1863 48.6502 73.0149 49.1219Z" fill="#DDDAE8"/>
<path d="M74.1746 64.4735C74.4373 64.5563 74.7058 64.5197 74.9724 64.5544C75.18 63.6245 75.2905 62.71 75.3114 61.7474C74.7992 62.1036 74.523 61.7571 74.3345 62.6119C74.2717 62.8872 74.325 64.0673 74.1746 64.4735Z" fill="#BF7D6D"/>
<path d="M75.2238 64.2598C75.2581 64.7758 75.698 65.3033 75.9493 65.7538C75.9798 65.8058 76.0103 65.8616 76.0141 65.9213C76.0217 66.0118 75.9722 66.0946 75.9246 66.1716C75.8579 66.2775 75.7875 66.3891 75.6751 66.443C75.5647 66.495 75.4371 66.4815 75.3152 66.4642C75.1134 66.4334 74.9134 66.393 74.7154 66.3448C74.6659 66.3333 74.6164 66.3198 74.5745 66.289C74.525 66.2544 74.4926 66.2004 74.464 66.1465C74.3079 65.877 74.1784 65.6864 74.1651 65.3745C74.1517 65.053 74.1689 64.718 74.0908 64.4042C74.0527 64.2521 74.0013 64.0577 74.1251 63.9633C74.2222 63.8902 74.4126 63.9691 74.525 63.9787C74.7211 63.998 74.9001 63.973 75.0848 64.0635C75.1229 64.0827 75.1591 64.1058 75.1838 64.1385C75.2105 64.177 75.22 64.2175 75.2238 64.2598Z" fill="#131321"/>
<path d="M72.8149 47.9841C73.0796 50.2674 73.4738 52.5333 73.4548 54.8513C73.4319 57.716 73.8033 60.6038 73.6719 63.4493C74.0013 63.5398 74.3364 63.6072 74.6754 63.6476C75.0639 63.6938 75.6866 63.7362 75.9227 63.353C76.0427 63.1567 76.0503 62.7928 76.0922 62.5695C76.2255 61.8533 76.3435 61.1313 76.4597 60.4113C76.7891 58.3744 77.1681 56.3222 77.2728 54.2603C77.3814 52.0905 77.5089 49.9189 77.6632 47.7607C77.7432 46.646 77.7813 45.5275 77.7679 44.4089C77.7641 44.1201 77.7184 41.1495 77.5756 41.138C75.8618 41.0032 74.1879 41.1823 72.5464 41.6963C72.3865 41.7464 72.2284 41.8137 72.1446 41.9504C72.0609 42.0871 72.0742 42.2277 72.0875 42.374C72.2113 43.7678 72.4969 45.1174 72.6512 46.5132C72.7026 46.9983 72.7578 47.4835 72.8149 47.9841Z" fill="#DDDAE8"/>
<path d="M72.2513 29.3769C72.2227 29.3865 72.1961 29.3961 72.1694 29.4077C71.7124 29.5829 71.3239 29.8986 70.945 30.2086C70.3737 30.6745 70.0938 30.8785 69.8729 31.5697C69.6672 32.2127 69.5377 32.8923 69.4121 33.5565C68.7665 36.9622 68.6408 40.3525 68.1781 43.7833C68.0524 44.717 67.9553 45.8144 68.637 46.4555C69.8481 45.5025 71.3734 45.4466 72.8435 45.4447C73.8756 45.4447 74.8849 45.1059 75.9208 45.2214C76.9091 45.3331 77.7736 45.0828 78.7772 45.1482C79.019 45.1636 79.3275 45.1617 79.4227 44.9365C79.4703 44.8229 79.2552 44.3088 79.2285 44.1664C79.1771 43.8872 79.1409 43.6061 79.1142 43.3251C79.0171 42.3105 78.8781 41.3228 78.7353 40.3121C78.6858 39.9579 78.6344 39.6017 78.642 39.2436C78.6477 38.924 78.6991 38.6083 78.7372 38.2906C78.96 36.4674 78.7601 34.6038 78.2535 32.8403C78.1469 32.4726 78.105 32.0452 77.9622 31.7006C77.8308 31.3849 77.6175 31.0672 77.4214 30.7881C77.0062 30.197 76.4654 29.6888 75.7837 29.4327C74.8792 29.0958 73.8166 29.0919 72.8721 29.2344C72.6607 29.2671 72.4513 29.3095 72.2513 29.3769Z" fill="#8CABEF"/>
<path d="M65.8739 22.2266C65.973 22.2208 66.0853 22.2959 66.1196 22.396C66.1672 22.5385 66.1139 22.6925 66.0606 22.8331C65.8492 23.3971 65.5845 23.9381 65.5293 24.5369C65.4988 24.8622 65.5826 25.4379 65.1465 25.5284C65.0399 25.5495 64.9313 25.5726 64.8247 25.5553C64.7371 25.5418 64.6552 25.5033 64.5791 25.461C64.5181 25.4283 64.4153 25.3897 64.3943 25.3262C64.2858 24.9604 64.4191 24.3193 64.3848 23.917C64.3639 23.6725 64.1582 20.7326 64.2896 20.7307C64.4896 20.7249 64.6895 20.7192 64.8894 20.7153C64.9275 20.7134 64.9694 20.7134 65.0037 20.7326C65.0456 20.7558 65.0646 20.8039 65.0818 20.8501C65.2303 21.2505 65.3065 21.6779 65.3065 22.1073C65.3065 22.2208 65.3027 22.3402 65.3579 22.4384C65.4131 22.5366 65.5559 22.5943 65.6416 22.5192C65.7102 22.4596 65.7083 22.346 65.7692 22.2767C65.7978 22.2439 65.834 22.2285 65.8739 22.2266Z" fill="#BF7D6D"/>
<path d="M63.8916 29.7638C63.9125 27.8636 64.0039 24.5446 64.3867 24.5215C64.9903 24.4868 65.5997 24.5715 66.1691 24.7737C66.1443 26.1117 65.9901 27.5537 66.3976 28.8513C66.7308 29.9121 67.8353 29.8947 68.7474 29.8293C70.0233 29.7369 71.2287 29.6483 72.5064 29.4442C72.5921 29.4308 72.6835 29.4173 72.7597 29.4596C72.8416 29.5058 72.8797 29.604 72.9063 29.6945C72.9616 29.889 72.9958 30.0873 73.0187 30.2875C73.1044 31.0383 73.0453 31.8238 72.7159 32.5015C72.3865 33.1791 71.7543 33.7298 71.0135 33.8337C70.5889 33.8934 70.1566 33.8068 69.7357 33.7182C68.8236 33.5295 68.0124 33.1252 67.1345 32.8076C66.1043 32.4341 65.1122 31.9759 64.1487 31.4522C64.063 31.406 63.9735 31.3521 63.9297 31.2655C63.8935 31.1962 63.8916 31.1134 63.8897 31.0345C63.8859 30.9228 63.884 30.4299 63.8916 29.7638Z" fill="#8CABEF"/>
<path d="M73.0187 29.3307C73.0358 29.3634 73.0587 29.3961 73.0892 29.4269C73.2091 29.5463 73.3767 29.6156 73.5405 29.6387C73.7576 29.6695 73.9804 29.6329 74.1955 29.5925C74.4869 29.5367 74.4774 29.3634 74.5193 29.0958C74.5421 28.9495 74.5573 28.8012 74.5669 28.6549C74.5726 28.5741 74.5421 28.2833 74.5935 28.2275C74.6278 28.189 74.7687 28.2025 74.8316 28.1698C74.9287 28.1178 75.0106 28.0234 75.0696 27.931C75.1648 27.7809 75.2162 27.6095 75.2676 27.4401C75.3571 27.1455 75.4447 26.8491 75.5342 26.5545C75.6256 26.2522 75.717 25.9481 75.7456 25.6343C75.7894 25.1606 75.7132 24.4926 75.3609 24.1461C75.0391 23.8303 74.5688 23.7206 74.1365 23.6648C73.5652 23.5916 72.973 23.6975 72.4798 24.0036C72.2799 24.1268 72.0913 24.2885 71.9733 24.508C71.7924 24.8488 71.8057 25.2723 71.8247 25.6708C71.8419 26.0366 71.8609 26.4043 71.8781 26.7701C71.899 27.1917 71.9504 27.6769 72.2627 27.906C72.4284 28.0273 72.6455 28.0542 72.7883 28.2083C72.9654 28.4027 72.954 28.6953 72.9616 28.9437C72.9692 29.0785 72.9597 29.2132 73.0187 29.3307Z" fill="#BF7D6D"/>
<path d="M74.8277 24.5908C74.8468 24.6254 74.8639 24.6601 74.8773 24.6986C74.9439 24.893 74.8982 25.1125 74.9629 25.307C75.0658 25.6169 75.4219 25.8017 75.4771 26.1233C75.5209 26.387 75.3438 26.6354 75.3286 26.903C75.3114 27.1937 75.4961 27.469 75.4676 27.7558C75.4428 28.0061 75.2867 28.3565 75.1381 28.5548C75.1838 28.4932 75.5971 28.5144 75.7037 28.4489C75.8675 28.3469 75.8865 28.2833 75.936 28.1101C75.9836 27.9387 75.9475 27.7693 76.0217 27.5941C76.115 27.3785 76.3055 27.2206 76.3721 26.9896C76.4635 26.6758 76.2978 26.3447 76.3112 26.0174C76.3302 25.5226 76.753 25.0567 76.6006 24.585C76.5111 24.3097 76.2464 24.1326 76.096 23.8842C75.9836 23.6956 75.9417 23.4742 75.8618 23.2682C75.7837 23.0622 75.6485 22.8562 75.439 22.7946C75.3229 22.7599 75.1972 22.7734 75.0791 22.7522C74.8734 22.7137 74.7021 22.5693 74.504 22.5019C74.2203 22.4057 73.7195 22.6945 73.5538 22.939C73.39 23.1796 73.4719 23.3856 73.6414 23.5993C73.9194 23.9535 74.5954 24.1865 74.8277 24.5908Z" fill="#292949"/>
<path d="M70.6155 22.4576C70.4765 22.5385 70.3432 22.6271 70.2157 22.7272C69.7091 23.1238 69.3226 23.7225 69.3168 24.3713C69.3149 24.7718 69.4501 25.2011 69.2673 25.5553C69.0388 25.9981 68.4257 26.1021 68.1495 26.516C67.5821 27.3708 68.8751 28.6126 68.3209 29.477C68.0239 29.941 67.2831 30.0815 67.1936 30.6263C67.1479 30.9132 67.3193 31.1923 67.5326 31.3868C67.9439 31.7641 68.5342 31.9278 69.0769 31.8161C69.3416 31.7622 69.9205 31.5293 70.1281 31.8007C70.1947 31.8893 70.2214 31.999 70.2576 32.103C70.4118 32.5496 70.8383 32.9443 71.3011 32.8731C71.4706 32.8461 71.6248 32.7614 71.7867 32.7036C71.9752 32.6363 72.177 32.6055 72.3503 32.5053C72.5236 32.4052 72.6645 32.2069 72.615 32.0106C72.6017 31.9605 72.5788 31.9162 72.5655 31.8662C72.497 31.6159 72.7045 31.3791 72.7655 31.125C72.8645 30.7072 72.4474 30.2586 72.3827 29.8389C72.3008 29.3172 72.5903 28.7955 72.356 28.291C72.2742 28.1139 72.0323 27.7866 72.2189 27.5941C72.3351 27.4343 72.6112 27.3823 72.6188 27.184C72.6226 27.0916 72.5579 27.0108 72.5065 26.9338C72.3103 26.6315 72.2894 26.2291 72.4227 25.8942C72.556 25.5592 72.8302 25.2916 73.152 25.1337C73.5291 24.9489 73.4681 24.8565 73.5786 24.4907C73.6795 24.1557 73.868 24.0767 74.167 23.9535C74.4355 23.8438 74.5212 23.7745 74.6202 23.5204C74.6926 23.3336 74.7821 23.1122 74.6773 22.9043C74.4488 22.4557 73.7176 21.7838 73.2225 21.7126C72.7921 21.651 72.3599 21.7723 71.9466 21.9032C71.4877 22.0553 71.0288 22.2189 70.6155 22.4576Z" fill="#292949"/>
<path opacity="0.04" d="M75.0391 26C75.0429 26.0193 75.0429 26.0405 75.0353 26.0597C74.9649 26.2619 74.5688 26.3832 74.3917 26.2831C74.2946 26.2292 74.2431 26.1021 74.365 26.0347C74.4202 26.0039 74.5535 26.0366 74.6202 26.0289C74.7173 26.0174 74.8125 25.9923 74.902 25.9538C74.9268 25.9423 74.9534 25.9307 74.9801 25.9346C75.0106 25.9404 75.0315 25.9692 75.0391 26Z" fill="black"/>
<path opacity="0.04" d="M73.2605 26.1733C73.2624 26.1926 73.2567 26.2137 73.2472 26.2311C73.1425 26.4178 72.7311 26.466 72.575 26.337C72.4893 26.2657 72.4607 26.1329 72.5902 26.0886C72.6493 26.0674 72.7768 26.1233 72.8416 26.129C72.9387 26.1348 73.0377 26.1271 73.1329 26.104C73.1596 26.0982 73.1882 26.0905 73.2129 26.1002C73.2434 26.1098 73.2586 26.1406 73.2605 26.1733Z" fill="black"/>
<path d="M78.8322 42.3891C81.3391 39.8546 81.3391 35.7455 78.8322 33.2111C76.3254 30.6766 72.261 30.6766 69.7541 33.2111C67.2473 35.7455 67.2473 39.8546 69.7541 42.3891C72.261 44.9235 76.3254 44.9235 78.8322 42.3891Z" fill="white"/>
<path d="M69.7377 33.2273C69.5987 33.3678 69.4692 33.5161 69.3454 33.6662L78.4192 42.7725C78.5677 42.6474 78.7105 42.5145 78.8495 42.374C78.9885 42.2334 79.118 42.0852 79.2418 41.935L70.168 32.8288C70.0214 32.9539 69.8767 33.0867 69.7377 33.2273Z" fill="#DDDAE8"/>
<path opacity="0.05" d="M77.4671 32.1588C77.9089 33.2023 78.1545 34.3497 78.1583 35.5549C78.1717 39.4727 75.6295 42.7956 72.118 43.9103C72.8036 44.1587 73.5424 44.2954 74.3136 44.2915C77.8594 44.278 80.7234 41.3613 80.71 37.7766C80.7005 35.3681 79.3961 33.2716 77.4671 32.1588Z" fill="#272525"/>
<path d="M73.6281 37.1124C73.6262 37.0123 73.7004 36.9025 73.7956 36.8736C73.9289 36.8313 74.0679 36.8929 74.1936 36.9545C74.7002 37.1971 75.1838 37.4897 75.7304 37.5763C76.0274 37.6225 76.5587 37.5667 76.6215 38.0114C76.6368 38.1193 76.652 38.2309 76.6311 38.3368C76.6139 38.4234 76.5739 38.5043 76.532 38.5813C76.4997 38.641 76.4597 38.7449 76.3988 38.7604C76.0579 38.8508 75.4771 38.6833 75.1058 38.6987C74.5154 38.7218 73.7785 38.8816 73.2624 38.5139C73.1939 38.4658 73.1291 38.408 73.0911 38.3291C73.0168 38.1789 73.0606 37.996 73.1063 37.8324C73.1158 37.8016 73.1253 37.7669 73.1463 37.7458C73.1634 37.7284 73.1844 37.7207 73.2072 37.713C73.3976 37.6457 73.6281 37.7381 73.7994 37.6437C73.8927 37.5917 73.9518 37.4512 73.887 37.3626C73.8356 37.2895 73.7309 37.2856 73.6719 37.2202C73.6414 37.1913 73.6281 37.1528 73.6281 37.1124Z" fill="#BF7D6D"/>
<path d="M79.8397 39.671C78.0992 39.5555 75.06 39.2956 75.0581 38.9086C75.0543 38.2983 75.161 37.6861 75.3723 37.1201C75.3952 37.0585 76.4959 37.2221 76.612 37.2317C77.0614 37.2683 77.5127 37.2933 77.964 37.2722C78.8286 37.2317 79.6836 36.8332 80.5443 37.1143C80.9937 37.2625 81.4088 37.6129 81.5574 38.0981C81.6811 38.5024 81.6412 39.4958 81.2184 39.7076C81.1537 39.7403 81.0775 39.7384 81.0051 39.7364C80.9023 39.7345 80.451 39.7114 79.8397 39.671Z" fill="#8CABEF"/>
<path d="M18.2808 13.4592L23.9555 8.41899C25.8064 6.77485 28.6019 6.9308 30.1958 8.76553C31.7915 10.6022 31.584 13.4226 29.7311 15.0668L24.0564 20.107L18.2808 13.4592Z" fill="#00BA88"/>
<path d="M18.4427 13.3148L12.768 18.355C10.9171 19.9992 10.7095 22.8215 12.3034 24.6563C13.8992 26.4929 16.6927 26.6469 18.5436 25.0028L24.2183 19.9626L18.4427 13.3148Z" fill="white"/>
<path d="M12.709 22.0014C12.6004 20.8905 13.1165 19.8066 14.0115 19.1424C14.4571 18.8113 13.9144 18.1587 13.4688 18.4898C12.3262 19.3388 11.7283 20.7558 11.8673 22.1554C11.9206 22.7041 12.7623 22.5501 12.709 22.0014Z" fill="#DDDAE8"/>
<path d="M12.3757 23.6109C12.4824 23.607 12.5833 23.5704 12.6614 23.4934L12.6766 23.478C12.7509 23.4049 12.7985 23.2971 12.8004 23.1931C12.8023 23.0949 12.7623 22.9755 12.6899 22.9082C12.6157 22.8369 12.5166 22.785 12.41 22.7888C12.3034 22.7927 12.2024 22.8292 12.1244 22.9062L12.1091 22.9216C12.0349 22.9948 11.9873 23.1026 11.9854 23.2066C11.9835 23.3048 12.0234 23.4241 12.0958 23.4915C12.1701 23.5627 12.2691 23.6147 12.3757 23.6109Z" fill="#DDDAE8"/>
<g opacity="0.18">
<path opacity="0.66" d="M17.9743 23.686L23.4871 18.7901L23.649 18.6457L29.1618 13.7499C30.4586 12.5986 30.948 10.8698 30.5766 9.30652C31.7268 11.122 31.4012 13.5863 29.7197 15.0802L24.2069 19.9761L24.045 20.1205L18.5322 25.0163C16.6813 26.6604 13.8858 26.5045 12.292 24.6697C11.814 24.1191 11.4979 23.48 11.3398 22.8119C11.456 22.9948 11.5874 23.1719 11.7321 23.3394C13.3279 25.1741 16.1233 25.3301 17.9743 23.686Z" fill="white"/>
</g>
<path d="M59.2072 25.203L49.8801 10.812C49.4117 10.0901 49.6116 9.12167 50.3257 8.64807L59.2757 2.71841C59.9898 2.24481 60.9477 2.44695 61.4161 3.16891L70.7432 17.5599C71.2116 18.2818 71.0117 19.2502 70.2976 19.7238L61.3476 25.6535C60.6335 26.1271 59.6756 25.9249 59.2072 25.203Z" fill="#A3AAB0"/>
<path d="M59.0282 25.3223L49.7011 10.9314C49.2327 10.2094 49.4326 9.24103 50.1467 8.76743L59.0967 2.83776C59.8108 2.36416 60.7687 2.56631 61.2371 3.28826L70.5642 17.6792C71.0326 18.4012 70.8327 19.3696 70.1186 19.8432L61.1686 25.7728C60.4545 26.2465 59.4966 26.0443 59.0282 25.3223Z" fill="#DDDAE8"/>
<path opacity="0.03" d="M59.9708 25.9865C60.3688 26.0809 60.801 26.0154 61.1685 25.7728L70.1186 19.8432C70.8327 19.3696 71.0326 18.4012 70.5642 17.6792L61.2371 3.28827C61.0219 2.9552 60.7001 2.7338 60.3478 2.63754L59.9708 25.9865Z" fill="#272525"/>
<path opacity="0.1" d="M56.3635 11.4315C56.5679 10.4384 55.9374 9.46579 54.9552 9.25906C53.973 9.05234 53.0109 9.68978 52.8065 10.6828C52.602 11.6759 53.2325 12.6485 54.2147 12.8552C55.197 13.062 56.159 12.4245 56.3635 11.4315Z" fill="#272525"/>
<path d="M56.0399 11.3623C56.2443 10.3692 55.6138 9.39658 54.6316 9.18985C53.6493 8.98313 52.6873 9.62058 52.4828 10.6136C52.2784 11.6067 52.9089 12.5793 53.8911 12.786C54.8734 12.9927 55.8354 12.3553 56.0399 11.3623Z" fill="#00BA88"/>
<path d="M52.4852 10.6137C52.4737 10.6695 52.4661 10.7235 52.4585 10.7793L55.9985 11.5243C56.0137 11.4724 56.029 11.4185 56.0404 11.3626C56.0518 11.3068 56.0594 11.2529 56.0671 11.1971L52.527 10.452C52.5099 10.5059 52.4966 10.5598 52.4852 10.6137Z" fill="#219653"/>
<path opacity="0.1" d="M59.7613 9.46628C60.7646 9.46628 61.578 8.64398 61.578 7.62962C61.578 6.61527 60.7646 5.79297 59.7613 5.79297C58.758 5.79297 57.9446 6.61527 57.9446 7.62962C57.9446 8.64398 58.758 9.46628 59.7613 9.46628Z" fill="#272525"/>
<path opacity="0.1" d="M59.7495 16.2924C59.7895 15.2789 59.0091 14.4245 58.0066 14.3841C57.0041 14.3437 56.159 15.1327 56.1191 16.1462C56.0792 17.1597 56.8595 18.0141 57.862 18.0545C58.8645 18.0949 59.7096 17.3059 59.7495 16.2924Z" fill="#272525"/>
<path opacity="0.1" d="M64.4425 14.0397C65.1234 13.2947 65.0781 12.1327 64.3413 11.4443C63.6045 10.7559 62.4551 10.8017 61.7742 11.5466C61.0932 12.2915 61.1385 13.4535 61.8754 14.142C62.6122 14.8304 63.7615 14.7846 64.4425 14.0397Z" fill="#272525"/>
<path opacity="0.1" d="M61.1495 23.0179C62.1528 23.0179 62.9662 22.1956 62.9662 21.1812C62.9662 20.1669 62.1528 19.3446 61.1495 19.3446C60.1462 19.3446 59.3328 20.1669 59.3328 21.1812C59.3328 22.1956 60.1462 23.0179 61.1495 23.0179Z" fill="#272525"/>
<path opacity="0.1" d="M68.129 17.9577C68.2417 16.9498 67.5249 16.0402 66.5279 15.9262C65.5309 15.8122 64.6313 16.5369 64.5185 17.5448C64.4058 18.5528 65.1226 19.4624 66.1195 19.5764C67.1165 19.6904 68.0162 18.9657 68.129 17.9577Z" fill="#272525"/>
<path d="M60.7719 8.80848C61.4528 8.06354 61.4075 6.90155 60.6707 6.2131C59.9339 5.52466 58.7845 5.57046 58.1036 6.31541C57.4226 7.06035 57.4679 8.22234 58.2048 8.91078C58.9416 9.59923 60.0909 9.55342 60.7719 8.80848Z" fill="#00BA88"/>
<path d="M57.659 7.18683C57.6476 7.24267 57.6399 7.29657 57.6323 7.3524L61.1723 8.09746C61.1876 8.04548 61.2028 7.99158 61.2142 7.93574C61.2256 7.87991 61.2333 7.82601 61.2409 7.77017L57.7009 7.02512C57.6837 7.0771 57.6704 7.131 57.659 7.18683Z" fill="#219653"/>
<path d="M57.6095 17.9873C58.6128 17.9873 59.4262 17.165 59.4262 16.1507C59.4262 15.1363 58.6128 14.314 57.6095 14.314C56.6062 14.314 55.7928 15.1363 55.7928 16.1507C55.7928 17.165 56.6062 17.9873 57.6095 17.9873Z" fill="#00BA88"/>
<path d="M55.8309 15.7752C55.8195 15.8311 55.8119 15.885 55.8043 15.9408L59.3443 16.6859C59.3595 16.6339 59.3748 16.58 59.3862 16.5242C59.3976 16.4683 59.4052 16.4144 59.4128 16.3586L55.8728 15.6135C55.8557 15.6674 55.8423 15.7213 55.8309 15.7752Z" fill="#219653"/>
<path d="M64.5776 12.9867C64.7219 11.9829 64.034 11.0509 63.0411 10.905C62.0482 10.7591 61.1264 11.4546 60.9821 12.4584C60.8378 13.4623 61.5258 14.3942 62.5186 14.5401C63.5115 14.686 64.4334 13.9905 64.5776 12.9867Z" fill="#00BA88"/>
<path d="M61.0047 12.3483C60.9933 12.4042 60.9857 12.4581 60.9781 12.5139L64.5181 13.259C64.5333 13.207 64.5486 13.1531 64.56 13.0972C64.5714 13.0414 64.579 12.9875 64.5867 12.9317L61.0466 12.1866C61.0295 12.2386 61.0162 12.2925 61.0047 12.3483Z" fill="#219653"/>
<path d="M62.6305 21.3165C62.7433 20.3085 62.0265 19.399 61.0295 19.2849C60.0325 19.1709 59.1329 19.8956 59.0201 20.9036C58.9073 21.9115 59.6241 22.8211 60.6211 22.9351C61.6181 23.0491 62.5178 22.3244 62.6305 21.3165Z" fill="#00BA88"/>
<path d="M59.0472 20.7384C59.0358 20.7943 59.0282 20.8482 59.0206 20.904L62.5606 21.6491C62.5758 21.5971 62.591 21.5432 62.6025 21.4873C62.6139 21.4315 62.6215 21.3776 62.6291 21.3218L59.0891 20.5767C59.0739 20.6287 59.0587 20.6826 59.0472 20.7384Z" fill="#219653"/>
<path d="M67.7754 18.0584C67.9799 17.0654 67.3494 16.0927 66.3671 15.886C65.3849 15.6793 64.4229 16.3167 64.2184 17.3098C64.0139 18.3028 64.6444 19.2755 65.6267 19.4822C66.6089 19.6889 67.5709 19.0515 67.7754 18.0584Z" fill="#00BA88"/>
<path d="M64.2211 17.3096C64.2096 17.3654 64.202 17.4193 64.1944 17.4752L67.7344 18.2202C67.7496 18.1683 67.7649 18.1143 67.7763 18.0585C67.7877 18.0027 67.7953 17.9488 67.803 17.8929L64.263 17.1479C64.2458 17.2018 64.2325 17.2557 64.2211 17.3096Z" fill="#219653"/>
<path opacity="0.3" d="M55.8004 10.6156C55.7566 10.4424 55.6843 10.2729 55.5814 10.1151C55.0863 9.35076 54.0771 9.13129 53.3154 9.61644C54.2408 9.40274 55.2406 9.77239 55.8004 10.6156Z" fill="white"/>
<path opacity="0.3" d="M61.0143 7.15988C60.9705 6.98661 60.8981 6.81719 60.7953 6.65932C60.3002 5.89501 59.2909 5.67554 58.5292 6.16069C59.4566 5.94699 60.4563 6.31664 61.0143 7.15988Z" fill="white"/>
<path opacity="0.3" d="M59.1843 15.8368C59.1405 15.6635 59.0681 15.4941 58.9653 15.3363C58.4702 14.572 57.4609 14.3525 56.6992 14.8376C57.6266 14.6259 58.6263 14.9936 59.1843 15.8368Z" fill="white"/>
<path opacity="0.3" d="M64.4001 12.3811C64.3563 12.2078 64.2839 12.0384 64.1811 11.8805C63.686 11.1162 62.6767 10.8967 61.915 11.3819C62.8424 11.1701 63.8421 11.5398 64.4001 12.3811Z" fill="white"/>
<path opacity="0.3" d="M62.4025 20.8C62.3587 20.6268 62.2864 20.4574 62.1835 20.2995C61.6884 19.5352 60.6792 19.3157 59.9175 19.8009C60.8429 19.5891 61.8427 19.9568 62.4025 20.8Z" fill="white"/>
<path opacity="0.3" d="M67.6163 17.3443C67.5725 17.171 67.5002 17.0016 67.3973 16.8437C66.9022 16.0794 65.893 15.8599 65.1313 16.3451C66.0587 16.1333 67.0584 16.501 67.6163 17.3443Z" fill="white"/>
<path fill-rule="evenodd" clip-rule="evenodd" d="M20.764 10.7908C20.764 10.7119 20.7012 10.6483 20.6231 10.6483C20.545 10.6483 20.4822 10.7119 20.4822 10.7908V11.1239H20.1528C20.0747 11.1239 20.0118 11.1874 20.0118 11.2663C20.0118 11.3453 20.0747 11.4088 20.1528 11.4088H20.4822V11.7419C20.4822 11.8208 20.545 11.8843 20.6231 11.8843C20.7012 11.8843 20.764 11.8208 20.764 11.7419V11.4088H21.0935C21.1715 11.4088 21.2344 11.3453 21.2344 11.2663C21.2344 11.1874 21.1715 11.1239 21.0935 11.1239H20.764V10.7908Z" fill="white"/>
<path fill-rule="evenodd" clip-rule="evenodd" d="M58.0037 27.2052C58.0037 27.1263 57.9408 27.0627 57.8627 27.0627C57.7847 27.0627 57.7218 27.1263 57.7218 27.2052V27.5383H57.3924C57.3143 27.5383 57.2515 27.6018 57.2515 27.6807C57.2515 27.7597 57.3143 27.8232 57.3924 27.8232H57.7218V28.1563C57.7218 28.2352 57.7847 28.2987 57.8627 28.2987C57.9408 28.2987 58.0037 28.2352 58.0037 28.1563V27.8232H58.3331C58.4112 27.8232 58.474 27.7597 58.474 27.6807C58.474 27.6018 58.4112 27.5383 58.3331 27.5383H58.0037V27.2052Z" fill="white"/>
<path fill-rule="evenodd" clip-rule="evenodd" d="M53.9952 2.58363C53.9952 2.50469 53.9323 2.44116 53.8542 2.44116C53.7762 2.44116 53.7133 2.50469 53.7133 2.58363V2.91669H53.3839C53.3058 2.91669 53.243 2.98022 53.243 3.05916C53.243 3.13809 53.3058 3.20162 53.3839 3.20162H53.7133V3.53468C53.7133 3.61362 53.7762 3.67715 53.8542 3.67715C53.9323 3.67715 53.9952 3.61362 53.9952 3.53468V3.20162H54.3246C54.4027 3.20162 54.4655 3.13809 54.4655 3.05916C54.4655 2.98022 54.4027 2.91669 54.3246 2.91669H53.9952V2.58363Z" fill="white"/>
<path fill-rule="evenodd" clip-rule="evenodd" d="M35.2935 5.38868C35.2935 5.30975 35.2307 5.24622 35.1526 5.24622C35.0745 5.24622 35.0117 5.30975 35.0117 5.38868V5.72174H34.6822C34.6042 5.72174 34.5413 5.78528 34.5413 5.86421C34.5413 5.94314 34.6042 6.00668 34.6822 6.00668H35.0117V6.33974C35.0117 6.41867 35.0745 6.4822 35.1526 6.4822C35.2307 6.4822 35.2935 6.41867 35.2935 6.33974V6.00668H35.6229C35.701 6.00668 35.7639 5.94314 35.7639 5.86421C35.7639 5.78528 35.701 5.72174 35.6229 5.72174H35.2935V5.38868Z" fill="white"/>
<path fill-rule="evenodd" clip-rule="evenodd" d="M78.5544 29.1805C78.5544 29.1016 78.4915 29.038 78.4134 29.038C78.3354 29.038 78.2725 29.1016 78.2725 29.1805V29.5136H77.9431C77.865 29.5136 77.8022 29.5771 77.8022 29.656C77.8022 29.7349 77.865 29.7985 77.9431 29.7985H78.2725V30.1315C78.2725 30.2105 78.3354 30.274 78.4134 30.274C78.4915 30.274 78.5544 30.2105 78.5544 30.1315V29.7985H78.8838C78.9619 29.7985 79.0247 29.7349 79.0247 29.656C79.0247 29.5771 78.9619 29.5136 78.8838 29.5136H78.5544V29.1805Z" fill="white"/>
<path fill-rule="evenodd" clip-rule="evenodd" d="M26.5586 36.1786C26.5586 36.0997 26.4958 36.0362 26.4177 36.0362C26.3397 36.0362 26.2768 36.0997 26.2768 36.1786V36.5117H25.9474C25.8693 36.5117 25.8065 36.5752 25.8065 36.6542C25.8065 36.7331 25.8693 36.7966 25.9474 36.7966H26.2787V37.1297C26.2787 37.2086 26.3416 37.2722 26.4196 37.2722C26.4977 37.2722 26.5605 37.2086 26.5605 37.1297V36.7966H26.89C26.9681 36.7966 27.0309 36.7331 27.0309 36.6542C27.0309 36.5752 26.9681 36.5117 26.89 36.5117H26.5605V36.1786H26.5586Z" fill="white"/>
<path fill-rule="evenodd" clip-rule="evenodd" d="M40.8425 9.20445C40.8425 9.12551 40.7797 9.06198 40.7016 9.06198C40.6235 9.06198 40.5607 9.12551 40.5607 9.20445V9.53751H40.2312C40.1532 9.53751 40.0903 9.60104 40.0903 9.67998C40.0903 9.75891 40.1532 9.82244 40.2312 9.82244H40.5607V10.1555C40.5607 10.2344 40.6235 10.298 40.7016 10.298C40.7797 10.298 40.8425 10.2344 40.8425 10.1555V9.82244H41.1719C41.25 9.82244 41.3129 9.75891 41.3129 9.67998C41.3129 9.60104 41.25 9.53751 41.1719 9.53751H40.8425V9.20445Z" fill="#719FD4"/>
<path fill-rule="evenodd" clip-rule="evenodd" d="M54.6122 23.5415C54.6122 23.4626 54.5493 23.399 54.4712 23.399C54.3932 23.399 54.3303 23.4626 54.3303 23.5415V23.8746H54.0009C53.9228 23.8746 53.86 23.9381 53.86 24.017C53.86 24.096 53.9228 24.1595 54.0009 24.1595H54.3303V24.4926C54.3303 24.5715 54.3932 24.635 54.4712 24.635C54.5493 24.635 54.6122 24.5715 54.6122 24.4926V24.1595H54.9416C55.0197 24.1595 55.0825 24.096 55.0825 24.017C55.0825 23.9381 55.0197 23.8746 54.9416 23.8746H54.6122V23.5415Z" fill="#719FD4"/>
<path fill-rule="evenodd" clip-rule="evenodd" d="M26.353 26.7951C26.353 26.7162 26.2902 26.6527 26.2121 26.6527C26.134 26.6527 26.0712 26.7162 26.0712 26.7951V27.1282H25.7417C25.6637 27.1282 25.6008 27.1917 25.6008 27.2707C25.6008 27.3496 25.6637 27.4131 25.7417 27.4131H26.0712V27.7462C26.0712 27.8251 26.134 27.8887 26.2121 27.8887C26.2902 27.8887 26.353 27.8251 26.353 27.7462V27.4131H26.6824C26.7605 27.4131 26.8234 27.3496 26.8234 27.2707C26.8234 27.1917 26.7605 27.1282 26.6824 27.1282H26.353V26.7951Z" fill="#719FD4"/>
<path fill-rule="evenodd" clip-rule="evenodd" d="M31.8829 45.7739C31.8829 45.695 31.8201 45.6314 31.742 45.6314C31.6639 45.6314 31.6011 45.695 31.6011 45.7739V46.107H31.2717C31.1936 46.107 31.1307 46.1705 31.1307 46.2494C31.1307 46.3284 31.1936 46.3919 31.2717 46.3919H31.6011V46.725C31.6011 46.8039 31.6639 46.8674 31.742 46.8674C31.8201 46.8674 31.8829 46.8039 31.8829 46.725V46.3919H32.2124C32.2904 46.3919 32.3533 46.3284 32.3533 46.2494C32.3533 46.1705 32.2904 46.107 32.2124 46.107H31.8829V45.7739Z" fill="#719FD4"/>
</svg>
