<svg width="179" height="131" viewBox="0 0 179 131" fill="none" xmlns="http://www.w3.org/2000/svg">
<g clip-path="url(#clip0_9731_62303)">
<path fill-rule="evenodd" clip-rule="evenodd" d="M28.7711 141C12.9488 141 0 128.078 0 112.288C0 96.4945 12.9488 83.5764 28.7711 83.5764C35.4615 83.5764 40.9351 78.114 40.9351 71.4374C40.9351 64.7608 35.4615 59.2985 28.7711 59.2985H27.3244C20.3685 59.2985 14.6769 53.6186 14.6769 46.677C14.6769 39.7354 20.3685 34.0555 27.3244 34.0555H31.7636C34.4706 34.0555 36.6862 31.8445 36.6862 29.143C36.6862 26.4415 34.4706 24.2304 31.7636 24.2304H28.5016C26.6308 24.2304 25.1049 22.7037 25.1049 20.8407C25.1049 18.9738 26.6348 17.451 28.5016 17.451H50.4396C53.3766 17.451 55.7785 15.054 55.7785 12.1231C55.7785 9.19221 53.3766 6.79528 50.4396 6.79528H43.88C42.0092 6.79528 40.4833 5.26851 40.4833 3.40555C40.4833 1.53863 42.0132 0.0158214 43.88 0.0158214H137.177C139.615 0.0158214 141.612 2.00931 141.612 4.44185C141.612 6.87438 139.615 8.86788 137.177 8.86788H130.451C126.618 8.86788 123.483 11.9965 123.483 15.8214C123.483 19.6462 126.618 22.7749 130.451 22.7749H159.258C161.695 22.7749 163.693 24.7683 163.693 27.2009C163.693 29.6334 161.699 31.6269 159.258 31.6269H155.001C151.465 31.6269 148.576 34.5143 148.576 38.0385C148.576 41.5667 151.469 44.4501 155.001 44.4501H160.796C169.872 44.4501 177.3 51.8624 177.3 60.9202C177.3 69.9779 169.872 77.3902 160.796 77.3902H158.905C150.173 77.3902 143.031 84.5177 143.031 93.2314C143.031 101.945 150.173 109.072 158.905 109.072H162.995C171.798 109.072 179 116.259 179 125.044C179 133.829 171.798 141.016 162.995 141.016C117.451 141 74.3158 141 28.7711 141ZM148.521 8.85205C150.97 8.85205 152.956 6.87043 152.956 4.42603C152.956 1.98163 150.97 0 148.521 0C146.071 0 144.085 1.98163 144.085 4.42603C144.085 6.87043 146.071 8.85205 148.521 8.85205ZM18.9654 24.2225C20.8441 24.2225 22.3621 22.7037 22.3621 20.8328C22.3621 18.958 20.8401 17.4431 18.9654 17.4431C17.0867 17.4431 15.5687 18.9619 15.5687 20.8328C15.5647 22.7037 17.0867 24.2225 18.9654 24.2225Z" fill="#C1DBF2"/>
<path fill-rule="evenodd" clip-rule="evenodd" d="M90.1221 27.8693H36.5197C36.6267 28.2728 36.6861 28.6999 36.6861 29.139C36.6861 31.8405 34.4705 34.0515 31.7634 34.0515H27.3243C20.3684 34.0515 14.6768 39.7314 14.6768 46.673C14.6768 46.7086 14.6768 46.7482 14.6768 46.7838H90.1221C95.3342 46.7838 99.5989 42.5278 99.5989 37.3265C99.5989 32.1253 95.3342 27.8693 90.1221 27.8693Z" fill="#DCE9F7"/>
<path fill-rule="evenodd" clip-rule="evenodd" d="M15.8382 41.4045H99.599V141H28.7711C12.9488 141 0 128.078 0 112.288C0 96.4945 12.9488 83.5763 28.7711 83.5763C35.4615 83.5763 40.9351 78.114 40.9351 71.4374C40.9351 64.7608 35.4615 59.2985 28.7711 59.2985H27.3244C20.3685 59.2985 14.6769 53.6186 14.6769 46.677C14.6769 44.7942 15.093 43.0104 15.8382 41.4045Z" fill="#CDE0F3"/>
<path fill-rule="evenodd" clip-rule="evenodd" d="M14.994 49.4734H92.7778C95.0053 49.4734 96.8285 51.6291 96.8285 54.2673V141H28.7711C12.9488 141 0 128.078 0 112.288C0 96.4945 12.9488 83.5764 28.7711 83.5764C35.4615 83.5764 40.9351 78.114 40.9351 71.4374C40.9351 64.7608 35.4615 59.2985 28.7711 59.2985H27.3244C21.3316 59.2945 16.2781 55.0781 14.994 49.4734Z" fill="#C1DBF2"/>
<path fill-rule="evenodd" clip-rule="evenodd" d="M40.2533 67.4386H96.8245V75.5984H40.1938C40.6734 74.2971 40.935 72.8969 40.935 71.4374C40.935 70.0372 40.6972 68.6924 40.2533 67.4386Z" fill="#CDE0F3"/>
<path fill-rule="evenodd" clip-rule="evenodd" d="M100.796 63.9658H38.3469C39.968 66.0304 40.9391 68.6251 40.9391 71.4334C40.9391 71.6668 40.9311 71.8962 40.9192 72.1256H100.8C102.27 72.1256 103.467 70.9272 103.467 69.4637V66.6317C103.463 65.1642 102.266 63.9658 100.796 63.9658Z" fill="#DCE9F7"/>
<path fill-rule="evenodd" clip-rule="evenodd" d="M1.12564 104.354H96.8285V112.514H0.00396351C0.00396351 112.438 0 112.363 0 112.288C0 109.539 0.392387 106.877 1.12564 104.354Z" fill="#CDE0F3"/>
<path fill-rule="evenodd" clip-rule="evenodd" d="M100.796 100.885H2.38206C1.26832 103.436 0.515251 106.177 0.186279 109.045H100.796C102.266 109.045 103.463 107.846 103.463 106.383V103.551C103.463 102.083 102.266 100.885 100.796 100.885Z" fill="#DCE9F7"/>
<path fill-rule="evenodd" clip-rule="evenodd" d="M100.796 37.3266H18.8465C16.5675 39.3912 15.0376 42.2668 14.7324 45.4864H100.796C102.267 45.4864 103.464 44.288 103.464 42.8245V39.9925C103.464 38.525 102.267 37.3266 100.796 37.3266Z" fill="#DCE9F7"/>
<path fill-rule="evenodd" clip-rule="evenodd" d="M22.1441 35.2777H92.1397C94.0342 35.2777 95.584 33.5373 95.584 31.4133C95.584 30.5906 95.3501 29.8233 94.9538 29.1944C97.6925 30.6183 99.603 33.7351 99.603 37.3266H18.8464C19.8215 36.492 20.9312 35.7958 22.1441 35.2777Z" fill="#CDE0F3"/>
<path fill-rule="evenodd" clip-rule="evenodd" d="M93.4873 80.2736H81.791C81.2401 80.2736 80.7922 80.7206 80.7922 81.2704V99.8882C80.7922 100.438 81.2401 100.885 81.791 100.885H93.4873C94.0383 100.885 94.4862 100.438 94.4862 99.8882V81.2704C94.4862 80.7206 94.0383 80.2736 93.4873 80.2736Z" fill="#EAEAE6"/>
<path fill-rule="evenodd" clip-rule="evenodd" d="M79.2147 80.2736H73.2734C72.996 80.2736 72.7661 80.4991 72.7661 80.7799V100.379C72.7661 100.655 72.996 100.885 73.2734 100.885H79.2147C79.4922 100.885 79.7221 100.655 79.7221 100.379V80.7799C79.7221 80.4991 79.4922 80.2736 79.2147 80.2736Z" fill="#E7E9E3"/>
<path fill-rule="evenodd" clip-rule="evenodd" d="M74.2088 76.3895H67.2925C66.9675 76.3895 66.7019 76.6545 66.7019 76.9788V100.296C66.7019 100.62 66.9675 100.885 67.2925 100.885H74.2088C74.5338 100.885 74.7994 100.62 74.7994 100.296V76.9788C74.7994 76.6545 74.5338 76.3895 74.2088 76.3895Z" fill="#B3CEEB"/>
<path fill-rule="evenodd" clip-rule="evenodd" d="M76.7415 91.3407H64.7637C64.3793 91.3407 64.0662 91.6532 64.0662 92.0368V100.189C64.0662 100.572 64.3793 100.885 64.7637 100.885H76.7415C77.1259 100.885 77.439 100.572 77.439 100.189V92.0368C77.439 91.6532 77.1259 91.3407 76.7415 91.3407Z" fill="#B8D3EE"/>
<path fill-rule="evenodd" clip-rule="evenodd" d="M62.025 83.3984H56.0837C55.8063 83.3984 55.5764 83.6278 55.5764 83.9046V100.379C55.5764 100.656 55.8063 100.885 56.0837 100.885H62.025C62.3025 100.885 62.5324 100.656 62.5324 100.379V83.9046C62.5324 83.6278 62.3025 83.3984 62.025 83.3984Z" fill="#B8D3EE"/>
<path fill-rule="evenodd" clip-rule="evenodd" d="M91.2083 84.8935H84.0661C83.6975 84.8935 83.3962 85.1941 83.3962 85.5619V89.4659C83.3962 89.8337 83.6975 90.1343 84.0661 90.1343H91.2083C91.5769 90.1343 91.8782 89.8337 91.8782 89.4659V85.5619C91.8782 85.1941 91.5769 84.8935 91.2083 84.8935Z" fill="#E3E2DC"/>
<path fill-rule="evenodd" clip-rule="evenodd" d="M91.3153 91.3367H83.963C83.6539 91.3367 83.3962 91.5899 83.3962 91.8984V92.4403C83.3962 92.7488 83.6499 93.0059 83.963 93.0059H91.3153C91.6284 93.0059 91.8821 92.7528 91.8821 92.4403V91.8984C91.8781 91.5899 91.6245 91.3367 91.3153 91.3367Z" fill="#E3E2DC"/>
<path fill-rule="evenodd" clip-rule="evenodd" d="M91.3153 94.5683H83.963C83.6539 94.5683 83.3962 94.8214 83.3962 95.1299V95.6718C83.3962 95.9803 83.6499 96.2374 83.963 96.2374H91.3153C91.6284 96.2374 91.8821 95.9843 91.8821 95.6718V95.1299C91.8781 94.8214 91.6245 94.5683 91.3153 94.5683Z" fill="#E3E2DC"/>
<path fill-rule="evenodd" clip-rule="evenodd" d="M59.0524 90.4112C58.2438 90.4112 57.5898 91.1864 57.5898 92.1436C57.5898 93.1008 58.2438 93.876 59.0524 93.876C59.8609 93.876 60.5149 93.1008 60.5149 92.1436C60.5149 91.1864 59.8609 90.4112 59.0524 90.4112Z" fill="#B3CEEB"/>
<path fill-rule="evenodd" clip-rule="evenodd" d="M62.1994 60.8213H59.0564C58.8344 60.8213 58.6521 61.0032 58.6521 61.2247V63.5702C58.6521 63.7917 58.8344 63.9697 59.0564 63.9697H62.1994C62.4214 63.9697 62.5998 63.7878 62.5998 63.5702V61.2247C62.5998 61.0032 62.4214 60.8213 62.1994 60.8213Z" fill="#DCE9F7"/>
<path fill-rule="evenodd" clip-rule="evenodd" d="M57.1617 55.7386H48.5292C48.2002 55.7386 47.9268 56.0076 47.9268 56.3399V63.3685C47.9268 63.6968 48.1963 63.9697 48.5292 63.9697H57.1617C57.4907 63.9697 57.7642 63.7007 57.7642 63.3685V56.3399C57.7602 56.0076 57.4907 55.7386 57.1617 55.7386Z" fill="#B8D3EE"/>
<path fill-rule="evenodd" clip-rule="evenodd" d="M53.0159 58.3611H47.138C46.9121 58.3611 46.7297 58.543 46.7297 58.7685V63.5584C46.7297 63.7838 46.9121 63.9658 47.138 63.9658H53.0159C53.2418 63.9658 53.4241 63.7838 53.4241 63.5584V58.7685C53.4241 58.547 53.2418 58.3611 53.0159 58.3611Z" fill="#B3CEEB"/>
<path fill-rule="evenodd" clip-rule="evenodd" d="M48.9256 50.6917H43.8325C43.5947 50.6917 43.3965 50.8855 43.3965 51.1267V63.5346C43.3965 63.772 43.5907 63.9697 43.8325 63.9697H48.9256C49.1634 63.9697 49.3616 63.7759 49.3616 63.5346V51.1267C49.3616 50.8894 49.1634 50.6917 48.9256 50.6917Z" fill="#DCE9F7"/>
<path fill-rule="evenodd" clip-rule="evenodd" d="M80.8518 54.7577H80.5228V54.1407H80.6338C80.8399 54.1407 81.0063 53.9429 81.0063 53.6977C81.0063 53.4525 80.8399 53.2547 80.6338 53.2547H80.2255V50.6442C80.2255 50.3989 80.0551 50.2012 79.853 50.2012C79.6469 50.2012 79.4804 50.3989 79.4804 50.6442V53.2547H79.0722C78.866 53.2547 78.6956 53.4525 78.6956 53.6977C78.6956 53.9429 78.866 54.1407 79.0722 54.1407H79.1871V54.7577H78.8542C78.6243 54.7577 78.438 54.9792 78.438 55.2521V63.4713C78.438 63.7443 78.6243 63.9658 78.8542 63.9658H80.8557C81.0856 63.9658 81.2759 63.7443 81.2759 63.4713V55.2521C81.2679 54.9792 81.0817 54.7577 80.8518 54.7577Z" fill="#B3CEEB"/>
<path fill-rule="evenodd" clip-rule="evenodd" d="M84.09 55.7228H83.7927V55.1691H83.8958C84.0781 55.1691 84.2327 54.9911 84.2327 54.7736C84.2327 54.556 84.082 54.378 83.8958 54.378H83.5311V52.0444C83.5311 51.8268 83.3805 51.6488 83.1942 51.6488C83.0079 51.6488 82.8573 51.8268 82.8573 52.0444V54.378H82.4927C82.3064 54.378 82.1558 54.556 82.1558 54.7736C82.1558 54.9911 82.3064 55.1691 82.4927 55.1691H82.5918V55.7228H82.2945C82.0884 55.7228 81.918 55.9206 81.918 56.1658V63.5228C81.918 63.768 82.0884 63.9658 82.2945 63.9658H84.086C84.2921 63.9658 84.4586 63.768 84.4586 63.5228V56.1658C84.4625 55.9246 84.2961 55.7228 84.09 55.7228Z" fill="#B3CEEB"/>
<path fill-rule="evenodd" clip-rule="evenodd" d="M89.6268 55.264H84.6883C84.4544 55.264 84.2642 55.4539 84.2642 55.6872V63.5505C84.2642 63.7838 84.4544 63.9697 84.6883 63.9697H89.6268C89.8606 63.9697 90.0469 63.7799 90.0469 63.5505V55.6872C90.0469 55.4539 89.8606 55.264 89.6268 55.264Z" fill="#DCE9F7"/>
<path fill-rule="evenodd" clip-rule="evenodd" d="M88.6637 57.214H85.6474C85.4929 57.214 85.3621 57.3406 85.3621 57.4948V59.1442C85.3621 59.2985 85.4889 59.429 85.6474 59.429H88.6637C88.8182 59.429 88.949 59.3024 88.949 59.1442V57.4948C88.949 57.3406 88.8222 57.214 88.6637 57.214Z" fill="#F5F6F5"/>
<path fill-rule="evenodd" clip-rule="evenodd" d="M88.7114 59.9353H85.6079C85.4771 59.9353 85.3701 60.0421 85.3701 60.1726V60.402C85.3701 60.5325 85.4771 60.6393 85.6079 60.6393H88.7114C88.8422 60.6393 88.9492 60.5325 88.9492 60.402V60.1726C88.9492 60.0421 88.8422 59.9353 88.7114 59.9353Z" fill="#F5F6F5"/>
<path fill-rule="evenodd" clip-rule="evenodd" d="M88.7114 61.2999H85.6079C85.4771 61.2999 85.3701 61.4067 85.3701 61.5372V61.7666C85.3701 61.8971 85.4771 62.0039 85.6079 62.0039H88.7114C88.8422 62.0039 88.9492 61.8971 88.9492 61.7666V61.5372C88.9492 61.4067 88.8422 61.2999 88.7114 61.2999Z" fill="#F5F6F5"/>
<path fill-rule="evenodd" clip-rule="evenodd" d="M83.519 58.6181H80.483C80.3403 58.6181 80.2253 58.7328 80.2253 58.8752V63.7047C80.2253 63.8471 80.3403 63.9618 80.483 63.9618H83.519C83.6617 63.9618 83.7766 63.8471 83.7766 63.7047V58.8752C83.7766 58.7368 83.6617 58.6181 83.519 58.6181Z" fill="#B8D3EE"/>
<path fill-rule="evenodd" clip-rule="evenodd" d="M77.0784 50.8934H66.7852C66.3016 50.8934 65.9053 51.2889 65.9053 51.7714V63.0916C65.9053 63.5742 66.3016 63.9697 66.7852 63.9697H77.0784C77.562 63.9697 77.9583 63.5742 77.9583 63.0916V51.7714C77.9543 51.2889 77.558 50.8934 77.0784 50.8934Z" fill="#B8D3EE"/>
<path fill-rule="evenodd" clip-rule="evenodd" d="M79.0444 58.6181H76.0084C75.8657 58.6181 75.7507 58.7328 75.7507 58.8752V63.7047C75.7507 63.8471 75.8657 63.9618 76.0084 63.9618H79.0444C79.1871 63.9618 79.302 63.8471 79.302 63.7047V58.8752C79.302 58.7368 79.1871 58.6181 79.0444 58.6181Z" fill="#DCE9F7"/>
<path fill-rule="evenodd" clip-rule="evenodd" d="M31.058 55.7386H39.6905C40.0195 55.7386 40.293 56.0076 40.293 56.3399V63.3685C40.293 63.6968 40.0235 63.9697 39.6905 63.9697H38.3469C36.4444 61.549 33.6422 59.8601 30.4595 59.4132V56.3359C30.4556 56.0076 30.7251 55.7386 31.058 55.7386Z" fill="#B3CEEB"/>
<path fill-rule="evenodd" clip-rule="evenodd" d="M35.2037 58.3611H41.0816C41.3075 58.3611 41.4898 58.543 41.4898 58.7685V63.5584C41.4898 63.7838 41.3075 63.9658 41.0816 63.9658H38.3468C37.3757 62.7277 36.1668 61.6835 34.7955 60.8964V58.7685C34.7915 58.547 34.9778 58.3611 35.2037 58.3611Z" fill="#B8D3EE"/>
<path fill-rule="evenodd" clip-rule="evenodd" d="M33.5986 60.0223H35.5526C35.6438 60.0223 35.7191 60.0974 35.7191 60.1884V61.4858C35.0096 60.9874 34.2407 60.5642 33.4321 60.228V60.1924C33.4321 60.0974 33.5074 60.0223 33.5986 60.0223Z" fill="#F0F1EE"/>
<path fill-rule="evenodd" clip-rule="evenodd" d="M20.8837 52.5269H16.1274C17.3205 54.7815 19.1793 56.6405 21.4346 57.831V53.0807C21.4385 52.7761 21.1888 52.5269 20.8837 52.5269Z" fill="#EAEAE6"/>
<path fill-rule="evenodd" clip-rule="evenodd" d="M19.6192 55.09H17.9229C18.5412 55.7782 19.2387 56.3992 19.9918 56.9411V55.4618C19.9918 55.2601 19.8253 55.09 19.6192 55.09Z" fill="#E3E2DC"/>
<path fill-rule="evenodd" clip-rule="evenodd" d="M24.7124 86.3846H24.1892V85.4116H24.3675C24.6926 85.4116 24.9581 85.0992 24.9581 84.7115C24.9581 84.3279 24.6926 84.0154 24.3675 84.0154H23.7611C22.9367 84.1617 22.1242 84.3437 21.3236 84.5612C21.3156 84.6126 21.3077 84.6641 21.3077 84.7155C21.3077 85.0992 21.5733 85.4156 21.8983 85.4156H22.0766V86.3886H21.5535C21.1928 86.3886 20.8955 86.7406 20.8955 87.1678V100.106C20.8955 100.533 21.1928 100.885 21.5535 100.885H24.7084C25.0691 100.885 25.3663 100.533 25.3663 100.106V87.1678C25.3703 86.7367 25.073 86.3846 24.7124 86.3846Z" fill="#B3CEEB"/>
<path fill-rule="evenodd" clip-rule="evenodd" d="M29.8094 87.9074H29.3417V87.0373H29.5003C29.7896 87.0373 30.0274 86.7564 30.0274 86.4123C30.0274 86.0682 29.7896 85.7874 29.5003 85.7874H28.9216V83.5763C28.8701 83.5763 28.8185 83.5763 28.767 83.5763C28.4658 83.5763 28.1685 83.5842 27.8673 83.5922V85.7874H27.2886C26.9993 85.7874 26.7615 86.0682 26.7615 86.4123C26.7615 86.7564 26.9993 87.0373 27.2886 87.0373H27.4472V87.9074H26.9795C26.6545 87.9074 26.3889 88.2199 26.3889 88.6036V100.185C26.3889 100.568 26.6545 100.881 26.9795 100.881H29.8015C30.1265 100.881 30.3921 100.568 30.3921 100.185V88.6036C30.4 88.2199 30.1344 87.9074 29.8094 87.9074Z" fill="#DEDED7"/>
<path fill-rule="evenodd" clip-rule="evenodd" d="M38.5291 87.1836H30.7527C30.3881 87.1836 30.0908 87.4803 30.0908 87.8442V100.22C30.0908 100.584 30.3881 100.881 30.7527 100.881H38.5291C38.8938 100.881 39.195 100.584 39.195 100.22V87.8442C39.195 87.4803 38.8938 87.1836 38.5291 87.1836Z" fill="#F9F9FA"/>
<path fill-rule="evenodd" clip-rule="evenodd" d="M37.0152 90.2529H32.2669C32.0212 90.2529 31.823 90.4547 31.823 90.6999V93.2946C31.823 93.5398 32.0251 93.7416 32.2669 93.7416H37.0152C37.2609 93.7416 37.4591 93.5398 37.4591 93.2946V90.6999C37.4591 90.4507 37.2609 90.2529 37.0152 90.2529Z" fill="#F5F6F5"/>
<path fill-rule="evenodd" clip-rule="evenodd" d="M37.0864 94.5366H32.1954C31.9893 94.5366 31.8188 94.7067 31.8188 94.9124V95.2723C31.8188 95.478 31.9853 95.648 32.1954 95.648H37.0824C37.2885 95.648 37.4589 95.478 37.4589 95.2723V94.9124C37.4589 94.7067 37.2925 94.5366 37.0864 94.5366Z" fill="#F5F6F5"/>
<path fill-rule="evenodd" clip-rule="evenodd" d="M37.0864 96.6843H32.1954C31.9893 96.6843 31.8188 96.8505 31.8188 97.0601V97.42C31.8188 97.6257 31.9853 97.7958 32.1954 97.7958H37.0824C37.2885 97.7958 37.4589 97.6257 37.4589 97.42V97.0601C37.4589 96.8544 37.2925 96.6843 37.0864 96.6843Z" fill="#F5F6F5"/>
<path fill-rule="evenodd" clip-rule="evenodd" d="M28.9138 92.464H24.1377C23.9118 92.464 23.7295 92.6459 23.7295 92.8714V100.478C23.7295 100.703 23.9118 100.885 24.1377 100.885H28.9177C29.1436 100.885 29.326 100.703 29.326 100.478V92.8714C29.322 92.6499 29.1397 92.464 28.9138 92.464Z" fill="#EAEAE6"/>
<path fill-rule="evenodd" clip-rule="evenodd" d="M2.38989 100.873C2.44935 100.881 2.5088 100.885 2.56825 100.885H18.775C19.536 100.885 20.1583 100.264 20.1583 99.5045V84.9014C12.1917 87.413 5.69942 93.3065 2.38989 100.873Z" fill="#C1DBF2"/>
<path fill-rule="evenodd" clip-rule="evenodd" d="M21.8665 92.464H17.0865C16.8605 92.464 16.6782 92.6459 16.6782 92.8714V100.478C16.6782 100.703 16.8605 100.885 17.0865 100.885H21.8665C22.0924 100.885 22.2747 100.703 22.2747 100.478V92.8714C22.2747 92.6499 22.0924 92.464 21.8665 92.464Z" fill="#C1DBF2"/>
<path fill-rule="evenodd" clip-rule="evenodd" d="M49.2665 125.867H61.7793C62.2589 125.867 62.6513 126.258 62.6513 126.737V136.93C62.6513 137.409 62.2589 137.8 61.7793 137.8H49.2665C48.7869 137.8 48.3945 137.409 48.3945 136.93V126.737C48.3945 126.258 48.7869 125.867 49.2665 125.867Z" fill="#EAEAE6"/>
<path fill-rule="evenodd" clip-rule="evenodd" d="M55.2752 129.672H63.8007C64.1257 129.672 64.3952 129.937 64.3952 130.265V137.207C64.3952 137.531 64.1297 137.8 63.8007 137.8H55.2752C54.9502 137.8 54.6807 137.535 54.6807 137.207V130.265C54.6846 129.941 54.9502 129.672 55.2752 129.672Z" fill="#E1E1D9"/>
<path fill-rule="evenodd" clip-rule="evenodd" d="M61.2086 118.557H68.5926C68.9374 118.557 69.2228 118.842 69.2228 119.186V137.171C69.2228 137.519 68.9374 137.8 68.5926 137.8H61.2086C60.8598 137.8 60.5784 137.519 60.5784 137.171V119.186C60.5784 118.838 60.8598 118.557 61.2086 118.557Z" fill="#B8D3EE"/>
<path fill-rule="evenodd" clip-rule="evenodd" d="M14.9224 124.447H15.402V123.549H15.2395C14.9422 123.549 14.6965 123.26 14.6965 122.908C14.6965 122.556 14.9422 122.264 15.2395 122.264H15.834V118.482C15.834 118.13 16.0797 117.838 16.377 117.838C16.6743 117.838 16.92 118.126 16.92 118.482V122.264H17.5145C17.8118 122.264 18.0575 122.552 18.0575 122.908C18.0575 123.26 17.8118 123.549 17.5145 123.549H17.352V124.447H17.8316C18.1645 124.447 18.438 124.771 18.438 125.163V137.08C18.438 137.476 18.1645 137.8 17.8316 137.8H15.62C15.18 137.575 14.748 137.333 14.3239 137.084V137.08V125.163C14.316 124.771 14.5895 124.447 14.9224 124.447Z" fill="#DEDED7"/>
<path fill-rule="evenodd" clip-rule="evenodd" d="M10.2256 125.847H10.6537V125.044H10.507C10.2415 125.044 10.0195 124.783 10.0195 124.467C10.0195 124.15 10.2375 123.889 10.507 123.889H11.0381V120.503C11.0381 120.187 11.2561 119.93 11.5256 119.93C11.7912 119.93 12.0132 120.187 12.0132 120.503V123.889H12.5443C12.8098 123.889 13.0318 124.146 13.0318 124.467C13.0318 124.783 12.8138 125.044 12.5443 125.044H12.3976V125.847H12.8257C13.1229 125.847 13.3687 126.136 13.3687 126.488V136.503C12.0647 135.672 10.836 134.739 9.68262 133.718V126.492C9.68262 126.136 9.92835 125.847 10.2256 125.847Z" fill="#DEDED7"/>
<path fill-rule="evenodd" clip-rule="evenodd" d="M3.0835 125.183H9.35773C9.69463 125.183 9.96811 125.455 9.96811 125.792V133.979C7.14213 131.531 4.79177 128.541 3.0835 125.183Z" fill="#F9F9FA"/>
<path fill-rule="evenodd" clip-rule="evenodd" d="M4.72827 128.007H7.96249C8.18841 128.007 8.3747 128.193 8.3747 128.418V130.807C8.3747 131.033 8.18841 131.218 7.96249 131.218H7.18565C6.29386 130.21 5.47341 129.134 4.72827 128.007Z" fill="#F5F6F5"/>
<path fill-rule="evenodd" clip-rule="evenodd" d="M11.0501 130.048H15.4496C15.6557 130.048 15.8261 130.218 15.8261 130.423V137.428C15.8261 137.59 15.7191 137.733 15.5725 137.78C13.8285 136.875 12.1876 135.795 10.6736 134.569V130.423C10.6775 130.214 10.844 130.048 11.0501 130.048Z" fill="#EAEAE6"/>
<path fill-rule="evenodd" clip-rule="evenodd" d="M20.3922 118.842H35.3148C36.0163 118.842 36.5871 119.416 36.5871 120.112V136.526C36.5871 137.227 36.0123 137.796 35.3148 137.796H20.3922C19.6906 137.796 19.1199 137.223 19.1199 136.526V120.112C19.1199 119.416 19.6906 118.842 20.3922 118.842Z" fill="#EAEAE6"/>
<path fill-rule="evenodd" clip-rule="evenodd" d="M17.5423 130.048H21.9418C22.1479 130.048 22.3183 130.218 22.3183 130.423V137.428C22.3183 137.634 22.1479 137.804 21.9418 137.804H17.5423C17.3362 137.804 17.1658 137.634 17.1658 137.428V130.423C17.1658 130.214 17.3362 130.048 17.5423 130.048Z" fill="#F9F9FA"/>
<path fill-rule="evenodd" clip-rule="evenodd" d="M87.1101 125.867H74.5973C74.1177 125.867 73.7253 126.258 73.7253 126.737V136.93C73.7253 137.409 74.1177 137.8 74.5973 137.8H87.1101C87.5897 137.8 87.9821 137.409 87.9821 136.93V126.737C87.9821 126.258 87.5897 125.867 87.1101 125.867Z" fill="#EAEAE6"/>
<path fill-rule="evenodd" clip-rule="evenodd" d="M81.1014 129.672H72.5799C72.2549 129.672 71.9854 129.937 71.9854 130.265V137.207C71.9854 137.531 72.2509 137.8 72.5799 137.8H81.1014C81.4304 137.8 81.696 137.535 81.696 137.207V130.265C81.696 129.941 81.4304 129.672 81.1014 129.672Z" fill="#E1E1D9"/>
<path fill-rule="evenodd" clip-rule="evenodd" d="M31.9341 84.9449L35.3268 84.6364C35.5488 84.6166 35.7311 84.7827 35.7311 85.0042V86.0959C35.7311 86.3174 35.5488 86.5152 35.3268 86.5389L31.9341 86.8434C31.7121 86.8632 31.5338 86.6971 31.5338 86.4756V85.3839C31.5298 85.1664 31.7121 84.9647 31.9341 84.9449Z" fill="white"/>
<path d="M153.4 113.815L22.0212 112.735V115.927C22.0212 116.793 22.5959 117.529 23.3688 117.663L60.5188 123.952C60.9588 124.028 61.4066 124.047 61.8505 124.012L151.969 116.845C152.773 116.781 153.396 116.042 153.396 115.152V113.815H153.4Z" fill="url(#paint0_linear_9731_62303)"/>
<path d="M105.723 108.642L23.3806 114.484C21.9062 114.587 20.7092 113.48 20.7092 112.004V52.9156C20.7092 51.4403 21.9062 50.2458 23.3806 50.2458H105.723C106.935 50.2458 107.918 51.3256 107.918 52.6585V106.071C107.918 107.404 106.939 108.555 105.723 108.642Z" fill="url(#paint1_linear_9731_62303)"/>
<path d="M107.038 108.641L24.6966 114.483C23.2221 114.586 22.0251 113.479 22.0251 112.003V52.9145C22.0251 51.4392 23.2221 50.2447 24.6966 50.2447H107.038C108.251 50.2447 109.234 51.3245 109.234 52.6574V106.07C109.234 107.403 108.251 108.554 107.038 108.641Z" fill="url(#paint2_linear_9731_62303)"/>
<path d="M106.285 55.6516V102.772C106.285 103.867 105.477 104.809 104.474 104.876L89.1314 105.888L33.6026 109.563L27.7763 109.947C26.5793 110.026 25.6042 109.112 25.6042 107.91V56.1816C25.6042 54.9792 26.5793 53.9983 27.7763 53.9943L56.8407 53.8757L66.694 53.8322L74.5417 53.8005L81.4422 53.7728L104.47 53.6779C105.473 53.67 106.285 54.556 106.285 55.6516Z" fill="url(#paint3_linear_9731_62303)"/>
<g opacity="0.3">
<path opacity="0.3" d="M98.624 86.5705C99.9874 86.3411 100.994 85.0438 100.875 83.6752L100.459 79.004C100.336 77.6354 99.1313 76.7059 97.7678 76.9314L95.1361 77.3665C94.5693 75.2424 93.7845 73.2371 92.8016 71.3623L95.0449 69.61C96.1666 68.732 96.4401 67.1459 95.6513 66.07L92.9601 62.3994C92.1714 61.3196 90.6177 61.1575 89.492 62.0356L87.1298 63.8748C85.6078 62.439 83.9312 61.1772 82.1239 60.1054L83.3724 57.3129C83.955 56.0116 83.412 54.552 82.1556 54.0537L81.4421 53.7689L74.5417 53.7966L73.2575 56.6563C71.2084 56.2252 69.076 56.0037 66.8881 56.0076L66.6939 53.8282L56.8406 53.8717C56.8089 54.0734 56.801 54.2791 56.8208 54.4888L57.0943 57.5581C54.95 58.2384 52.9009 59.1244 50.9588 60.1924L49.1871 57.7954C48.3785 56.7038 46.7852 56.5337 45.6318 57.4197L41.6842 60.4455C40.5229 61.3355 40.2415 62.9453 41.054 64.037L42.794 66.3825C41.1887 68.016 39.7421 69.8038 38.4777 71.7064L35.7865 70.6582C34.4983 70.1559 32.9684 70.8243 32.366 72.1454L30.3168 76.6585C29.7144 77.9835 30.2732 79.4628 31.5653 79.9612L34.1377 80.954C33.4876 83.1294 33.0556 85.376 32.8693 87.6622L30.1385 88.1131C28.7195 88.3465 27.6653 89.6715 27.7921 91.0717L28.2162 95.8419C28.343 97.2421 29.5955 98.1795 31.0144 97.9421L33.5947 97.5071C34.1218 99.7339 34.8868 101.842 35.8618 103.804L33.8325 105.386C32.6672 106.292 32.3818 107.914 33.2023 109.001L33.6145 109.555L89.1393 105.881C89.8567 104.939 90.5265 103.962 91.1408 102.954L93.2058 103.749C94.4543 104.227 95.9327 103.559 96.5114 102.253L98.4813 97.8037C99.0599 96.4985 98.5169 95.0508 97.2724 94.5682L95.1044 93.7218C95.683 91.5305 96.0397 89.272 96.1507 86.9819L98.624 86.5705ZM66.4363 106.707C55.9171 108.523 46.587 101.498 45.6517 91.0045C44.7202 80.5149 52.5482 70.6226 63.0752 68.9218C73.5429 67.2329 82.7263 74.2813 83.6498 84.6601C84.5733 95.035 76.892 104.904 66.4363 106.707Z" fill="url(#paint4_linear_9731_62303)"/>
</g>
<path d="M68.7747 51.8585C68.7747 52.4082 68.3506 52.8552 67.8274 52.8552C67.3042 52.8552 66.8801 52.4122 66.8801 51.8624C66.8801 51.3126 67.3042 50.8657 67.8274 50.8657C68.3506 50.8657 68.7747 51.3087 68.7747 51.8585Z" fill="white"/>
<path opacity="0.48" d="M87.1971 92.4363C80.8476 89.007 75.8575 93.3539 71.0419 89.0663C68.1208 86.4677 69.5555 84.5296 65.9606 80.6454C61.9813 76.346 59.3891 77.7897 55.39 73.9174C50.3325 69.0246 52.8612 65.2156 48.5054 61.6993C43.222 57.4355 37.5225 61.3829 32.4888 57.2931C30.3208 55.529 29.1278 52.966 28.5055 50.2407H23.5868C22.7227 50.2407 22.0251 50.9408 22.0251 51.807V113.055C22.0251 113.922 22.7267 114.574 23.5868 114.511L107.506 108.531C107.918 108.503 108.283 108.262 108.517 107.91C102.373 107.684 98.6001 105.619 96.1864 103.48C91.4698 99.3067 92.2863 95.1813 87.1971 92.4363Z" fill="white"/>
<path d="M110.32 108.376L22.0251 114.523L60.5227 121.037C60.9627 121.113 61.4105 121.132 61.8545 121.097L153.4 113.815L111.723 108.416C111.256 108.357 110.788 108.345 110.32 108.376Z" fill="url(#paint5_linear_9731_62303)"/>
<path opacity="0.3" d="M34.9065 114.677L108.418 109.484L131.164 112.407L58.2912 117.96L34.9065 114.677Z" fill="url(#paint6_linear_9731_62303)"/>
<path d="M127.823 12.8153L62.6314 10.6003C60.4514 10.5252 58.6758 12.2418 58.6758 14.4291V61.909C58.6758 64.1003 60.4514 65.8327 62.6314 65.7813L127.823 64.2862C129.714 64.2426 131.24 62.5656 131.24 60.5365V16.6006C131.24 14.5754 129.71 12.8786 127.823 12.8153Z" fill="url(#paint7_linear_9731_62303)"/>
<path opacity="0.74" d="M59.9402 60.9122V15.4416C59.9402 13.4165 61.5811 11.8265 63.5985 11.8937L126.975 13.9623C128.731 14.0177 130.146 15.5919 130.146 17.4707V59.6584C130.146 61.5372 128.727 63.0916 126.975 63.1312L63.5985 64.5037C61.585 64.5472 59.9402 62.9374 59.9402 60.9122Z" fill="white"/>
<path d="M127.823 12.8153L62.6314 10.6003C60.4514 10.5252 58.6758 12.2418 58.6758 14.4291V17.273L131.24 19.2309V16.6006C131.24 14.5754 129.714 12.8786 127.823 12.8153Z" fill="url(#paint8_linear_9731_62303)"/>
<path d="M65.711 14.259C65.711 14.971 65.1363 15.5287 64.4268 15.5089C63.7173 15.4891 63.1387 14.8919 63.1387 14.1799C63.1387 13.4679 63.7134 12.9063 64.4268 12.93C65.1363 12.9537 65.711 13.547 65.711 14.259Z" fill="white"/>
<path d="M70.1899 14.3974C70.1899 15.1054 69.6191 15.6631 68.9176 15.6434C68.2121 15.6236 67.6414 15.0303 67.6414 14.3223C67.6414 13.6143 68.2121 13.0566 68.9176 13.0764C69.6231 13.0961 70.1899 13.6855 70.1899 14.3974Z" fill="white"/>
<path d="M74.629 14.5319C74.629 15.236 74.0662 15.7937 73.3686 15.7699C72.671 15.7502 72.1042 15.1608 72.1042 14.4528C72.1042 13.7448 72.671 13.1911 73.3686 13.2148C74.0662 13.2346 74.629 13.8239 74.629 14.5319Z" fill="white"/>
<path d="M127.252 47.7963L63.2854 48.097V29.3209L127.252 30.2623V47.7963Z" fill="url(#paint9_linear_9731_62303)"/>
<path d="M127.252 52.2224L63.2854 52.8354V50.8222L127.252 50.3396V52.2224Z" fill="white"/>
<path d="M127.252 56.8422L63.2854 57.7836V55.7663L127.252 54.9595V56.8422Z" fill="white"/>
<path d="M97.6887 25.2548L63.2854 24.5824V26.5957L97.6887 27.1969V25.2548Z" fill="white"/>
<path d="M123.602 25.7611V27.6518L127.252 27.7151V25.8323L123.602 25.7611Z" fill="white"/>
<g opacity="0.5">
<path opacity="0.5" d="M102.449 37.1378C94.8349 26.0786 81.6602 29.5672 73.3328 17.3611C71.8307 15.1619 70.812 12.9232 70.1145 10.8585L62.6314 10.6053C60.4514 10.5302 58.6758 12.2468 58.6758 14.4341V61.914C58.6758 64.1053 60.4514 65.8377 62.6314 65.7863L112.211 64.6472C110.729 62.5192 109.357 60.142 108.2 57.484C103.757 47.2951 107.046 43.8104 102.449 37.1378Z" fill="white"/>
</g>
<path d="M72.219 34.0318L64.4268 33.9487V31.7218L72.219 31.8207V34.0318Z" fill="white"/>
<path d="M113.84 34.4748L77.1934 34.0871V31.884L113.84 32.3547V34.4748Z" fill="white"/>
<path d="M84.7874 37.9001L77.1934 37.8487V35.6455L84.7874 35.7128V37.9001Z" fill="white"/>
<path d="M125.393 38.1769L89.6387 37.9317V35.7563L125.393 36.0806V38.1769Z" fill="white"/>
<path d="M84.7874 41.63L77.1934 41.6062V39.4071L84.7874 39.4466V41.63Z" fill="white"/>
<path d="M125.393 41.7565L89.6387 41.6458V39.4703L125.393 39.6602V41.7565Z" fill="white"/>
<path d="M72.219 45.3717L64.4268 45.3757V43.1488L72.219 43.1607V45.3717Z" fill="white"/>
<path d="M113.84 45.344L77.1934 45.3678V43.1686L113.84 43.22V45.344Z" fill="white"/>
<path d="M148.35 24.088L106.495 23.649C104.518 23.6292 102.905 25.3023 102.905 27.3868V93.3223C102.905 95.4068 104.514 96.9889 106.495 96.8505L148.35 93.9749C150.146 93.8523 151.596 92.1515 151.596 90.1738V27.6992C151.596 25.7216 150.146 24.1038 148.35 24.088Z" fill="url(#paint10_linear_9731_62303)"/>
<path opacity="0.74" d="M104.054 92.3176V28.3202C104.054 26.39 105.544 24.8395 107.371 24.8554L147.542 25.2272C149.21 25.243 150.558 26.7421 150.558 28.5734V89.3551C150.558 91.1864 149.21 92.7646 147.542 92.8793L107.371 95.5887C105.544 95.7113 104.054 94.2478 104.054 92.3176Z" fill="white"/>
<path d="M148.35 24.088L106.495 23.649C104.518 23.6292 102.905 25.3023 102.905 27.3868V30.0962L151.596 30.2663V27.6992C151.596 25.7216 150.146 24.1038 148.35 24.088Z" fill="url(#paint11_linear_9731_62303)"/>
<path d="M148.362 27.1178C148.362 27.7902 147.851 28.3321 147.216 28.3281C146.582 28.3242 146.071 27.7744 146.071 27.102C146.071 26.4296 146.586 25.8877 147.216 25.8917C147.851 25.8956 148.362 26.4454 148.362 27.1178Z" fill="white"/>
<path d="M147.807 77.9163L107.09 79.9691V41.4638L147.807 41.1078V77.9163Z" fill="url(#paint12_linear_9731_62303)"/>
<path d="M147.807 82.2315L107.09 84.4861V82.5677L147.807 80.3962V82.2315Z" fill="white"/>
<path d="M147.807 86.7327L107.09 89.1969V87.2786L147.807 84.8974V86.7327Z" fill="white"/>
<path d="M138.362 36.8283L107.09 36.951V38.8693L138.362 38.6834V36.8283Z" fill="white"/>
<path d="M144.335 36.8044V38.6476L147.807 38.6279V36.7926L144.335 36.8044Z" fill="white"/>
<g opacity="0.15">
<path opacity="0.15" d="M137.351 63.4951C130.621 54.6549 122.179 54.4018 117.478 44.9406C114.074 38.0899 114.557 30.2939 116.067 23.7479L106.495 23.649C104.518 23.6292 102.905 25.3023 102.905 27.3868V93.3223C102.905 95.4068 104.514 96.9889 106.495 96.8505L144.125 94.2637C145.282 77.5642 141.259 68.6252 137.351 63.4951Z" fill="white"/>
</g>
<path d="M114.094 45.3163L109.77 45.3757L109.777 43.4573L114.102 43.4099L114.094 45.3163Z" fill="white"/>
<path d="M137.344 45.0078L116.86 45.2807L116.868 43.3822L137.351 43.1686L137.344 45.0078Z" fill="white"/>
<path d="M121.077 48.445L116.848 48.5241L116.856 46.6255L121.085 46.5583L121.077 48.445Z" fill="white"/>
<path d="M143.82 48.0218L123.781 48.3936L123.788 46.5188L143.828 46.2063L143.82 48.0218Z" fill="white"/>
<path d="M121.066 51.6646L116.836 51.7635L116.844 49.8689L121.073 49.778L121.066 51.6646Z" fill="white"/>
<path d="M143.804 51.1267L123.769 51.6014L123.776 49.7226L143.812 49.3112L143.804 51.1267Z" fill="white"/>
<path d="M114.058 55.086L109.734 55.2086L109.742 53.2903L114.066 53.1796L114.058 55.086Z" fill="white"/>
<path d="M137.296 54.4176L116.821 55.0069L116.828 53.1084L137.308 52.5783L137.296 54.4176Z" fill="white"/>
<path d="M121.038 58.1L116.809 58.2463L116.817 56.3478L121.046 56.2173L121.038 58.1Z" fill="white"/>
<path d="M143.776 57.3287L123.741 58.009L123.749 56.1342L143.784 55.5132L143.776 57.3287Z" fill="white"/>
<path d="M121.026 61.3196L116.797 61.4858L116.805 59.5872L121.034 59.4369L121.026 61.3196Z" fill="white"/>
<path d="M143.761 60.4297L123.729 61.2129L123.737 59.338L143.769 58.6142L143.761 60.4297Z" fill="white"/>
<path d="M121.014 64.5353L116.785 64.7212L116.793 62.8266L121.018 62.6526L121.014 64.5353Z" fill="white"/>
<path d="M143.745 63.5307L123.717 64.4167L123.725 62.5418L143.753 61.7152L143.745 63.5307Z" fill="white"/>
<path d="M127.903 67.4109L123.769 67.6165L123.776 65.7417L127.91 65.5479L127.903 67.4109Z" fill="white"/>
<path d="M146.852 66.4774L130.546 67.2803L130.554 65.4253L146.86 64.6698L146.852 66.4774Z" fill="white"/>
<path d="M113.999 71.3464L109.674 71.5838L109.682 69.6654L114.002 69.4439L113.999 71.3464Z" fill="white"/>
<path d="M137.225 70.0807L116.761 71.1961L116.769 69.3015L137.233 68.2494L137.225 70.0807Z" fill="white"/>
<path d="M120.974 74.1824L116.749 74.4316L116.753 72.537L120.982 72.2997L120.974 74.1824Z" fill="white"/>
<path d="M143.697 72.8257L123.677 74.0202L123.681 72.1454L143.709 71.0142L143.697 72.8257Z" fill="white"/>
<path d="M120.959 77.3941L116.733 77.6671L116.741 75.7724L120.966 75.5114L120.959 77.3941Z" fill="white"/>
<path d="M143.681 75.9228L123.662 77.2201L123.67 75.3453L143.693 74.1112L143.681 75.9228Z" fill="white"/>
<path d="M132.246 128.525C130.705 128.402 128.731 127.975 126.836 126.737C124.787 125.4 122.116 122.651 122.813 120.919C123.075 120.274 123.824 119.72 124.482 119.772C125.453 119.851 125.568 121.2 127.256 122.663C127.569 122.936 129.183 124.336 129.983 123.862C130.383 123.628 130.498 122.976 130.435 122.481C130.245 121.033 128.477 120.812 126.773 119.246C125.049 117.66 123.61 114.891 124.434 113.016C124.906 111.94 126.154 111.09 126.975 111.331C127.328 111.434 127.55 111.719 128.612 114.017C129.488 115.903 129.682 116.453 130.245 116.631C130.823 116.817 131.727 116.584 132.072 116.014C132.964 114.527 129.103 112.336 128.754 108.175C128.596 106.312 129.103 103.551 130.792 102.958C131.933 102.558 133.562 103.167 134.153 104.215C134.684 105.161 134.038 105.869 134.442 107.989C134.565 108.633 134.819 109.955 135.35 110.026C135.976 110.109 136.678 108.42 136.84 108.008C138.061 104.915 136.662 103.321 137.811 101.822C138.707 100.652 140.661 100.181 142.207 100.774C143.558 101.292 144.64 102.637 144.716 104.033C144.791 105.453 143.594 106.865 141.2 109.693C140.066 111.034 139.163 111.94 139.214 113.273C139.238 113.922 139.496 114.835 139.963 114.918C140.994 115.104 141.497 110.967 143.935 110.33C145.183 110.002 146.733 110.647 147.415 111.77C148.251 113.146 147.692 115.096 146.642 116.121C145.274 117.458 143.871 116.441 141.295 117.877C140.154 118.514 138.358 119.871 138.62 120.99C138.735 121.476 139.246 121.955 139.809 122.018C141.069 122.161 141.485 120.1 143.515 119.19C144.977 118.538 146.995 118.609 147.474 119.432C148.152 120.59 145.746 123.229 144.466 124.392C142.924 125.8 139.278 128.469 132.246 128.525Z" fill="url(#paint13_linear_9731_62303)"/>
<g opacity="0.5">
<path opacity="0.5" d="M132.94 127.864C132.738 124.415 135.025 117.387 136.693 114.064C138.322 110.813 139.884 105.671 139.9 105.619L140.003 105.651C139.987 105.703 138.426 110.852 136.793 114.112C135.132 117.422 132.849 124.423 133.051 127.856L132.94 127.864Z" fill="white"/>
</g>
<path d="M128.612 128.976C127.45 127.366 125.746 124.463 125.441 120.575C125.314 118.973 125.068 115.848 126.987 113.146C127.942 111.802 129.967 109.812 131.339 110.386C132.219 110.753 132.765 112.158 132.52 113.226C132.27 114.301 131.358 114.4 130.364 116.228C129.995 116.904 129.575 117.699 129.9 118.146C130.169 118.522 130.911 118.589 131.465 118.364C132.611 117.901 132.254 116.477 133.491 115.456C134.371 114.729 135.841 114.388 136.475 114.982C137.026 115.5 136.931 116.706 136.444 117.509C135.667 118.799 134.268 118.419 133.36 119.827C132.956 120.452 132.67 121.393 133.023 121.769C133.427 122.192 134.612 121.828 135.37 121.358C136.372 120.737 136.408 120.076 137.07 119.993C137.807 119.902 138.727 120.602 138.869 121.374C139.071 122.457 137.736 123.628 136.681 124.134C135.33 124.783 134.327 124.403 133.665 125.293C133.423 125.618 133.201 126.152 133.4 126.476C133.685 126.939 134.708 126.784 135.389 126.686C137.046 126.44 137.502 125.839 138.092 126.132C138.695 126.428 139.004 127.421 138.742 128.121C138.6 128.509 138.164 129.11 136.016 129.486C134.505 129.751 131.977 129.937 128.612 128.976Z" fill="url(#paint14_linear_9731_62303)"/>
<path d="M42.9246 85.2732C42.9246 85.2732 21.8229 54.7577 42.4371 30.5075L37.1577 29.5622L53.527 24.7288L48.6281 37.8447L46.5234 33.7311C46.5234 33.7311 31.0459 48.7614 42.9246 85.2732Z" fill="url(#paint15_linear_9731_62303)"/>
<path d="M59.8884 99.7339C59.8884 99.7339 92.3218 110.73 108.687 86.3807L110.859 90.8146L111.034 75.108L100.61 82.7457L104.795 83.5724C104.795 83.5724 95.3301 101.055 59.8884 99.7339Z" fill="url(#paint16_linear_9731_62303)"/>
<path d="M34.0543 86.175L34.3159 89.098C34.3912 89.9563 35.1602 90.5338 36.0321 90.3874L37.6136 90.1224C37.9346 91.487 38.4063 92.7804 39.0048 93.9868L37.7602 94.9559C37.0468 95.5136 36.8724 96.5064 37.3718 97.1748L39.0801 99.4491C39.5795 100.118 40.5624 100.205 41.2759 99.6469L42.453 98.7253C43.436 99.6825 44.5259 100.521 45.711 101.221L45.1244 102.526C44.7598 103.341 45.1006 104.243 45.8854 104.54L48.5608 105.544C49.3456 105.841 50.273 105.418 50.6377 104.603L51.1965 103.349C52.556 103.634 53.971 103.764 55.4216 103.737L55.5366 105.034C55.6119 105.884 56.3649 106.45 57.221 106.3L60.1303 105.786C60.9824 105.635 61.6087 104.824 61.5333 103.978L61.4184 102.685C62.8215 102.214 64.1572 101.597 65.4057 100.857L66.1588 101.87C66.6463 102.526 67.6054 102.613 68.303 102.06L70.6692 100.181C71.3629 99.6311 71.5293 98.6541 71.0418 97.9936L70.265 96.9414C71.2638 95.8695 72.1516 94.7027 72.9126 93.4607L74.1769 93.9512C74.9419 94.2479 75.8495 93.8365 76.2023 93.0336L77.4112 90.3044C77.7639 89.5054 77.4349 88.6154 76.67 88.3188L75.3382 87.8006C75.691 86.4558 75.913 85.0715 75.9803 83.6673L77.5063 83.4102C78.3426 83.2678 78.9609 82.4728 78.8856 81.6343L78.6319 78.7706C78.5566 77.9321 77.8194 77.3625 76.9831 77.5009L75.37 77.7699C75.0212 76.4686 74.5376 75.2385 73.9391 74.0875L75.3145 73.0116C76.0041 72.4737 76.1706 71.5007 75.687 70.8401L74.0382 68.5856C73.5547 67.9251 72.5995 67.8222 71.9098 68.3601L70.4631 69.4874C69.5317 68.6093 68.5012 67.8341 67.3954 67.1735L68.1603 65.4609C68.5171 64.6619 68.1841 63.768 67.4152 63.4634L64.7914 62.4192C64.0185 62.1107 63.1029 62.5102 62.7462 63.3092L61.9574 65.0653C60.701 64.8003 59.3931 64.6619 58.0534 64.6659L57.8869 62.7871C57.8116 61.9406 57.0585 61.3592 56.2064 61.4937L53.2932 61.9485C52.4371 62.083 51.8029 62.878 51.8782 63.7284L52.0447 65.6112C50.7288 66.0265 49.4724 66.5723 48.2833 67.225L47.1973 65.7536C46.7019 65.0851 45.7229 64.9783 45.0174 65.5242L42.5957 67.3792C41.8862 67.9251 41.7118 68.9099 42.2112 69.5823L43.2774 71.0221C42.2905 72.0228 41.4027 73.1184 40.6298 74.2852L38.977 73.6445C38.1883 73.336 37.2489 73.7473 36.8803 74.5582L35.6239 77.3269C35.2553 78.1417 35.5961 79.0475 36.3888 79.352L37.9663 79.9612C37.57 81.2941 37.3044 82.6745 37.1895 84.0747L35.5129 84.3516C34.6211 84.5019 33.979 85.3167 34.0543 86.175ZM45.0134 86.1275C44.4427 79.6922 49.2425 73.6247 55.6991 72.5844C62.1199 71.5481 67.7521 75.8713 68.3189 82.2355C68.8857 88.5996 64.173 94.6513 57.7601 95.7588C51.3075 96.8702 45.5842 92.5629 45.0134 86.1275Z" fill="white"/>
</g>
<defs>
<linearGradient id="paint0_linear_9731_62303" x1="77.5326" y1="118.796" x2="68.3143" y2="122.675" gradientUnits="userSpaceOnUse">
<stop stop-color="#40447E"/>
<stop offset="0.9964" stop-color="#3C3B6B"/>
</linearGradient>
<linearGradient id="paint1_linear_9731_62303" x1="62.577" y1="80.2172" x2="53.1598" y2="84.1806" gradientUnits="userSpaceOnUse">
<stop stop-color="#40447E"/>
<stop offset="0.9964" stop-color="#3C3B6B"/>
</linearGradient>
<linearGradient id="paint2_linear_9731_62303" x1="22.0235" y1="82.3652" x2="109.233" y2="82.3652" gradientUnits="userSpaceOnUse">
<stop stop-color="#40447E"/>
<stop offset="0.9964" stop-color="#3C3B6B"/>
</linearGradient>
<linearGradient id="paint3_linear_9731_62303" x1="77.1479" y1="61.2018" x2="10.3022" y2="170.706" gradientUnits="userSpaceOnUse">
<stop stop-color="#FFC444"/>
<stop offset="0.9964" stop-color="#F36F56"/>
</linearGradient>
<linearGradient id="paint4_linear_9731_62303" x1="26.9345" y1="85.5384" x2="100.153" y2="76.5049" gradientUnits="userSpaceOnUse">
<stop stop-color="#FFC444"/>
<stop offset="0.9964" stop-color="#F36F56"/>
</linearGradient>
<linearGradient id="paint5_linear_9731_62303" x1="22.0235" y1="114.737" x2="153.4" y2="114.737" gradientUnits="userSpaceOnUse">
<stop stop-color="#40447E"/>
<stop offset="0.9964" stop-color="#3C3B6B"/>
</linearGradient>
<linearGradient id="paint6_linear_9731_62303" x1="34.9071" y1="113.722" x2="131.166" y2="113.722" gradientUnits="userSpaceOnUse">
<stop stop-color="#40447E"/>
<stop offset="0.9964" stop-color="#3C3B6B"/>
</linearGradient>
<linearGradient id="paint7_linear_9731_62303" x1="115.591" y1="-3.69196" x2="56.175" y2="115.384" gradientUnits="userSpaceOnUse">
<stop stop-color="#FF9085"/>
<stop offset="1" stop-color="#FB6FBB"/>
</linearGradient>
<linearGradient id="paint8_linear_9731_62303" x1="88.7118" y1="-8.23613" x2="100.98" y2="40.9364" gradientUnits="userSpaceOnUse">
<stop stop-color="#AB316D"/>
<stop offset="1" stop-color="#792D3D"/>
</linearGradient>
<linearGradient id="paint9_linear_9731_62303" x1="63.2873" y1="38.709" x2="127.251" y2="38.709" gradientUnits="userSpaceOnUse">
<stop stop-color="#FF9085"/>
<stop offset="1" stop-color="#FB6FBB"/>
</linearGradient>
<linearGradient id="paint10_linear_9731_62303" x1="102.906" y1="60.2505" x2="151.596" y2="60.2505" gradientUnits="userSpaceOnUse">
<stop offset="0.00359712" stop-color="#E38DDD"/>
<stop offset="1" stop-color="#9571F6"/>
</linearGradient>
<linearGradient id="paint11_linear_9731_62303" x1="127.55" y1="26.0204" x2="122.731" y2="69.6613" gradientUnits="userSpaceOnUse">
<stop stop-color="#40447E"/>
<stop offset="0.9964" stop-color="#3C3B6B"/>
</linearGradient>
<linearGradient id="paint12_linear_9731_62303" x1="107.091" y1="60.5393" x2="147.806" y2="60.5393" gradientUnits="userSpaceOnUse">
<stop offset="0.00359712" stop-color="#E38DDD"/>
<stop offset="1" stop-color="#9571F6"/>
</linearGradient>
<linearGradient id="paint13_linear_9731_62303" x1="146.897" y1="95.9763" x2="133.708" y2="121.195" gradientUnits="userSpaceOnUse">
<stop stop-color="#AA80F9"/>
<stop offset="0.9964" stop-color="#6165D7"/>
</linearGradient>
<linearGradient id="paint14_linear_9731_62303" x1="137.65" y1="114.934" x2="122.499" y2="133.134" gradientUnits="userSpaceOnUse">
<stop offset="0.00359712" stop-color="#E38DDD"/>
<stop offset="1" stop-color="#9571F6"/>
</linearGradient>
<linearGradient id="paint15_linear_9731_62303" x1="54.2464" y1="17.4839" x2="19.3798" y2="115.897" gradientUnits="userSpaceOnUse">
<stop stop-color="#FB6FBB"/>
<stop offset="1" stop-color="#FF9085"/>
</linearGradient>
<linearGradient id="paint16_linear_9731_62303" x1="59.888" y1="88.6597" x2="111.032" y2="88.6597" gradientUnits="userSpaceOnUse">
<stop offset="0.00359712" stop-color="#E38DDD"/>
<stop offset="1" stop-color="#9571F6"/>
</linearGradient>
<clipPath id="clip0_9731_62303">
<rect width="179" height="141" fill="white"/>
</clipPath>
</defs>
</svg>
