<svg width="87" height="65" viewBox="0 0 87 65" fill="none" xmlns="http://www.w3.org/2000/svg">
<path fill-rule="evenodd" clip-rule="evenodd" d="M13.9824 68.9926C6.2919 68.9926 0 62.6683 0 54.9418C0 47.2154 6.2919 40.8911 13.9824 40.8911C17.2348 40.8911 19.8962 38.2167 19.8962 34.9525C19.8962 31.6847 17.2348 29.014 13.9824 29.014H13.2776C9.89671 29.014 7.12886 26.2357 7.12886 22.838C7.12886 19.4403 9.89671 16.6621 13.2776 16.6621H15.4361C16.7503 16.6621 17.8295 15.579 17.8295 14.2585C17.8295 12.938 16.7539 11.8549 15.4361 11.8549H13.8503C12.9399 11.8549 12.1984 11.1093 12.1984 10.1968C12.1984 9.28432 12.9435 8.53876 13.8503 8.53876H24.5142C25.9422 8.53876 27.1095 7.36663 27.1095 5.93114C27.1095 4.49565 25.9422 3.32351 24.5142 3.32351H21.3278C20.4175 3.32351 19.6759 2.57795 19.6759 1.66547C19.6759 0.752983 20.4211 0.00741856 21.3278 0.00741856H66.6743C67.86 0.00741856 68.8291 0.982959 68.8291 2.17364C68.8291 3.36432 67.8563 4.33986 66.6743 4.33986H63.4072C61.5461 4.33986 60.019 5.87179 60.019 7.74126C60.019 9.61074 61.5424 11.1427 63.4072 11.1427H77.408C78.5937 11.1427 79.5628 12.1182 79.5628 13.3089C79.5628 14.4996 78.5937 15.4751 77.408 15.4751H75.3376C73.6196 15.4751 72.2137 16.8883 72.2137 18.6132C72.2137 20.338 73.6196 21.7512 75.3376 21.7512H78.1532C82.5656 21.7512 86.174 25.3789 86.174 29.8115C86.174 34.2441 82.5656 37.8717 78.1532 37.8717H77.2354C72.9919 37.8717 69.5192 41.3585 69.5192 45.6241C69.5192 49.8898 72.9919 53.3765 77.2354 53.3765H79.2251C83.5053 53.3765 87.0037 56.8929 87.0037 61.192C87.0037 65.491 83.5016 69.0074 79.2251 69.0074C57.086 68.9926 36.1215 68.9926 13.9824 68.9926ZM72.188 4.33244C73.3773 4.33244 74.3428 3.36432 74.3428 2.16622C74.3428 0.968122 73.3773 0 72.188 0C70.9986 0 70.0332 0.968122 70.0332 2.16622C70.0332 3.36432 70.9949 4.33244 72.188 4.33244ZM9.2176 11.8511C10.1316 11.8511 10.8695 11.1093 10.8695 10.1931C10.8695 9.27691 10.128 8.53505 9.2176 8.53505C8.30354 8.53505 7.5657 9.27691 7.5657 10.1931C7.5657 11.1093 8.30354 11.8511 9.2176 11.8511Z" fill="#C1DBF2"/>
<path fill-rule="evenodd" clip-rule="evenodd" d="M43.801 13.6353H17.7487C17.8001 13.8319 17.8295 14.0433 17.8295 14.2548C17.8295 15.5753 16.7539 16.6584 15.4361 16.6584H13.2776C9.8967 16.6584 7.12886 19.4366 7.12886 22.8343C7.12886 22.8529 7.12886 22.8714 7.12886 22.89H43.7973C46.3302 22.89 48.4043 20.8091 48.4043 18.2608C48.408 15.7199 46.3339 13.6353 43.801 13.6353Z" fill="#DCE9F7"/>
<path fill-rule="evenodd" clip-rule="evenodd" d="M7.69785 20.2601H48.408V68.9926H13.9824C6.2919 68.9926 0 62.6682 0 54.9418C0 47.2154 6.2919 40.8911 13.9824 40.8911C17.2348 40.8911 19.8962 38.2167 19.8962 34.9525C19.8962 31.6846 17.2348 29.014 13.9824 29.014H13.2776C9.89671 29.014 7.12886 26.2357 7.12886 22.838C7.13253 21.9181 7.33443 21.0464 7.69785 20.2601Z" fill="#CDE0F3"/>
<path fill-rule="evenodd" clip-rule="evenodd" d="M7.28671 24.2068H45.0932C46.1761 24.2068 47.0608 25.2602 47.0608 26.551V68.9926H13.9824C6.2919 68.9926 0 62.6683 0 54.9418C0 47.2154 6.2919 40.8911 13.9824 40.8911C17.2348 40.8911 19.8962 38.2167 19.8962 34.9525C19.8962 31.6847 17.2348 29.014 13.9824 29.014H13.2776C10.3666 29.014 7.91076 26.9516 7.28671 24.2068Z" fill="#C1DBF2"/>
<path fill-rule="evenodd" clip-rule="evenodd" d="M19.5658 32.9977H47.0608V36.9889H19.5365C19.7677 36.3509 19.8962 35.6684 19.8962 34.9525C19.8962 34.27 19.7787 33.6135 19.5658 32.9977Z" fill="#CDE0F3"/>
<path fill-rule="evenodd" clip-rule="evenodd" d="M48.9916 31.2989H18.6371C19.4263 32.3078 19.8962 33.5801 19.8962 34.9525C19.8962 35.0675 19.8925 35.1788 19.8852 35.2901H48.988C49.7038 35.2901 50.2838 34.704 50.2838 33.9881V32.6046C50.2875 31.885 49.7038 31.2989 48.9916 31.2989Z" fill="#DCE9F7"/>
<path fill-rule="evenodd" clip-rule="evenodd" d="M0.546962 51.0619H47.0608V55.0531H0.00367089C0.00367089 55.016 0 54.9789 0 54.9418C0 53.5991 0.190886 52.2971 0.546962 51.0619Z" fill="#CDE0F3"/>
<path fill-rule="evenodd" clip-rule="evenodd" d="M48.9916 49.3631H1.15633C0.616712 50.6131 0.249623 51.9521 0.0881042 53.3542H48.988C49.7038 53.3542 50.2838 52.7682 50.2838 52.0523V50.665C50.2875 49.9491 49.7038 49.3631 48.9916 49.3631Z" fill="#DCE9F7"/>
<path fill-rule="evenodd" clip-rule="evenodd" d="M48.9916 18.2645H9.15886C8.05025 19.2734 7.30873 20.6829 7.15823 22.2557H48.988C49.7038 22.2557 50.2838 21.6696 50.2838 20.9537V19.5665C50.2875 18.8506 49.7038 18.2645 48.9916 18.2645Z" fill="#DCE9F7"/>
<path fill-rule="evenodd" clip-rule="evenodd" d="M10.763 17.263H44.7848C45.7062 17.263 46.4587 16.4098 46.4587 15.3712C46.4587 14.9669 46.3449 14.5923 46.1541 14.2844C47.4866 14.9818 48.4153 16.5063 48.4153 18.2645H9.15887C9.63241 17.8565 10.172 17.5152 10.763 17.263Z" fill="#CDE0F3"/>
<path fill-rule="evenodd" clip-rule="evenodd" d="M45.4382 39.2776H39.752C39.4841 39.2776 39.2675 39.4964 39.2675 39.7672V48.8772C39.2675 49.148 39.4841 49.3668 39.752 49.3668H45.4382C45.7062 49.3668 45.9228 49.148 45.9228 48.8772V39.7672C45.9228 39.4964 45.7062 39.2776 45.4382 39.2776Z" fill="#EAEAE6"/>
<path fill-rule="evenodd" clip-rule="evenodd" d="M38.5003 39.2776H35.6113C35.4754 39.2776 35.3653 39.3888 35.3653 39.5261V49.1146C35.3653 49.2518 35.4754 49.3631 35.6113 49.3631H38.5003C38.6361 49.3631 38.7462 49.2518 38.7462 49.1146V39.5261C38.7462 39.3888 38.6361 39.2776 38.5003 39.2776Z" fill="#E7E9E3"/>
<path fill-rule="evenodd" clip-rule="evenodd" d="M36.0665 37.3784H32.7076C32.5498 37.3784 32.4213 37.5082 32.4213 37.6677V49.0775C32.4213 49.237 32.5498 49.3668 32.7076 49.3668H36.0701C36.228 49.3668 36.3565 49.237 36.3565 49.0775V37.6677C36.3565 37.5082 36.2243 37.3784 36.0665 37.3784Z" fill="#B3CEEB"/>
<path fill-rule="evenodd" clip-rule="evenodd" d="M37.2999 44.6931H31.4779C31.2906 44.6931 31.1401 44.8452 31.1401 45.0344V49.0218C31.1401 49.211 31.2906 49.3631 31.4779 49.3631H37.2999C37.4871 49.3631 37.6376 49.211 37.6376 49.0218V45.0344C37.6376 44.8452 37.4871 44.6931 37.2999 44.6931Z" fill="#B8D3EE"/>
<path fill-rule="evenodd" clip-rule="evenodd" d="M30.1453 40.8058H27.2563C27.1205 40.8058 27.0104 40.9171 27.0104 41.0543V49.1146C27.0104 49.2518 27.1205 49.3631 27.2563 49.3631H30.1453C30.2811 49.3631 30.3913 49.2518 30.3913 49.1146V41.0543C30.3913 40.9208 30.2811 40.8058 30.1453 40.8058Z" fill="#B8D3EE"/>
<path fill-rule="evenodd" clip-rule="evenodd" d="M44.3296 41.5402H40.857C40.6771 41.5402 40.5303 41.6886 40.5303 41.8666V43.7769C40.5303 43.9587 40.6771 44.1033 40.857 44.1033H44.3296C44.5095 44.1033 44.6563 43.955 44.6563 43.7769V41.8666C44.6563 41.6849 44.5095 41.5402 44.3296 41.5402Z" fill="#E3E2DC"/>
<path fill-rule="evenodd" clip-rule="evenodd" d="M44.381 44.6931H40.8056C40.6551 44.6931 40.5303 44.8155 40.5303 44.9676V45.2347C40.5303 45.3867 40.6514 45.5129 40.8056 45.5129H44.381C44.5315 45.5129 44.6563 45.3905 44.6563 45.2347V44.9676C44.6563 44.8155 44.5315 44.6931 44.381 44.6931Z" fill="#E3E2DC"/>
<path fill-rule="evenodd" clip-rule="evenodd" d="M44.381 46.2733H40.8056C40.6551 46.2733 40.5303 46.3957 40.5303 46.5477V46.8111C40.5303 46.9632 40.6514 47.0893 40.8056 47.0893H44.381C44.5315 47.0893 44.6563 46.9669 44.6563 46.8111V46.5477C44.6563 46.3957 44.5315 46.2733 44.381 46.2733Z" fill="#E3E2DC"/>
<path fill-rule="evenodd" clip-rule="evenodd" d="M28.7027 44.2406C28.3099 44.2406 27.9905 44.6189 27.9905 45.09C27.9905 45.5574 28.3099 45.9394 28.7027 45.9394C29.0954 45.9394 29.4148 45.5611 29.4148 45.09C29.4111 44.6189 29.0954 44.2406 28.7027 44.2406Z" fill="#B3CEEB"/>
<path fill-rule="evenodd" clip-rule="evenodd" d="M30.2297 29.7596H28.7027C28.5962 29.7596 28.5044 29.8486 28.5044 29.9561V31.1023C28.5044 31.2099 28.5925 31.2989 28.7027 31.2989H30.2297C30.3362 31.2989 30.4243 31.2099 30.4243 31.1023V29.9561C30.4243 29.8486 30.3399 29.7596 30.2297 29.7596Z" fill="#DCE9F7"/>
<path fill-rule="evenodd" clip-rule="evenodd" d="M27.7813 27.2743H23.5854C23.4239 27.2743 23.2918 27.4041 23.2918 27.5674V31.0059C23.2918 31.1654 23.4239 31.2989 23.5854 31.2989H27.7813C27.9428 31.2989 28.0749 31.1691 28.0749 31.0059V27.5674C28.0749 27.4041 27.9428 27.2743 27.7813 27.2743Z" fill="#B8D3EE"/>
<path fill-rule="evenodd" clip-rule="evenodd" d="M25.766 28.5577H22.91C22.7999 28.5577 22.7118 28.6468 22.7118 28.758V31.1023C22.7118 31.2136 22.7999 31.3026 22.91 31.3026H25.766C25.8761 31.3026 25.9642 31.2136 25.9642 31.1023V28.758C25.9679 28.6468 25.8761 28.5577 25.766 28.5577Z" fill="#B3CEEB"/>
<path fill-rule="evenodd" clip-rule="evenodd" d="M23.78 24.804H21.3058C21.192 24.804 21.0929 24.9004 21.0929 25.0154V31.0875C21.0929 31.2025 21.1884 31.2989 21.3058 31.2989H23.78C23.8938 31.2989 23.9929 31.2025 23.9929 31.0875V25.0154C23.9929 24.9004 23.8938 24.804 23.78 24.804Z" fill="#DCE9F7"/>
<path fill-rule="evenodd" clip-rule="evenodd" d="M39.2968 26.7921H39.1353V26.4917H39.1904C39.2895 26.4917 39.3703 26.3952 39.3703 26.2765C39.3703 26.1578 39.2895 26.0614 39.1904 26.0614H38.9922V24.7854C38.9922 24.6667 38.9077 24.5703 38.8123 24.5703C38.7132 24.5703 38.6324 24.6667 38.6324 24.7854V26.0614H38.4342C38.3351 26.0614 38.2506 26.1578 38.2506 26.2765C38.2506 26.3952 38.3351 26.4917 38.4342 26.4917H38.4892V26.7921H38.3277C38.2176 26.7921 38.1258 26.8997 38.1258 27.0332V31.0541C38.1258 31.1876 38.2176 31.2952 38.3277 31.2952H39.3005C39.4143 31.2952 39.5061 31.1876 39.5061 31.0541V27.0369C39.4987 26.9034 39.407 26.7921 39.2968 26.7921Z" fill="#B3CEEB"/>
<path fill-rule="evenodd" clip-rule="evenodd" d="M40.8716 27.2669H40.7285V26.9961H40.7799C40.868 26.9961 40.9451 26.9108 40.9451 26.8032C40.9451 26.6957 40.8716 26.6104 40.7799 26.6104H40.6037V25.4679C40.6037 25.3603 40.5303 25.275 40.4385 25.275C40.3467 25.275 40.2733 25.3603 40.2733 25.4679V26.6104H40.0971C40.0053 26.6104 39.9319 26.6957 39.9319 26.8032C39.9319 26.9108 40.0053 26.9961 40.0971 26.9961H40.1448V27.2669H40.0016C39.9025 27.2669 39.8181 27.3633 39.8181 27.482V31.08C39.8181 31.1987 39.9025 31.2952 40.0016 31.2952H40.8716C40.9708 31.2952 41.0515 31.1987 41.0515 31.08V27.482C41.0515 27.3633 40.9708 27.2669 40.8716 27.2669Z" fill="#B3CEEB"/>
<path fill-rule="evenodd" clip-rule="evenodd" d="M43.5624 27.0406H41.1617C41.0479 27.0406 40.9561 27.1334 40.9561 27.2484V31.0949C40.9561 31.2099 41.0479 31.2989 41.1617 31.2989H43.5624C43.6762 31.2989 43.768 31.2062 43.768 31.0949V27.2484C43.7643 27.1334 43.6762 27.0406 43.5624 27.0406Z" fill="#DCE9F7"/>
<path fill-rule="evenodd" clip-rule="evenodd" d="M43.0925 27.9939H41.6278C41.5544 27.9939 41.4883 28.057 41.4883 28.1312V28.9398C41.4883 29.014 41.5508 29.0807 41.6278 29.0807H43.0925C43.1659 29.0807 43.232 29.0177 43.232 28.9398V28.1312C43.232 28.057 43.1696 27.9939 43.0925 27.9939Z" fill="#F5F6F5"/>
<path fill-rule="evenodd" clip-rule="evenodd" d="M43.1182 29.3256H41.6095C41.5471 29.3256 41.492 29.3775 41.492 29.4406V29.5518C41.492 29.6149 41.5434 29.6668 41.6095 29.6668H43.1182C43.1806 29.6668 43.232 29.6149 43.232 29.5518V29.4406C43.232 29.3775 43.1806 29.3256 43.1182 29.3256Z" fill="#F5F6F5"/>
<path fill-rule="evenodd" clip-rule="evenodd" d="M43.1182 29.9932H41.6095C41.5471 29.9932 41.492 30.0452 41.492 30.1082V30.2195C41.492 30.2825 41.5434 30.3345 41.6095 30.3345H43.1182C43.1806 30.3345 43.232 30.2825 43.232 30.2195V30.1082C43.232 30.0452 43.1806 29.9932 43.1182 29.9932Z" fill="#F5F6F5"/>
<path fill-rule="evenodd" clip-rule="evenodd" d="M40.5927 28.6838H39.117C39.0472 28.6838 38.9922 28.7395 38.9922 28.81V31.1728C38.9922 31.2432 39.0472 31.2989 39.117 31.2989H40.5927C40.6624 31.2989 40.7175 31.2432 40.7175 31.1728V28.81C40.7175 28.7395 40.6624 28.6838 40.5927 28.6838Z" fill="#B8D3EE"/>
<path fill-rule="evenodd" clip-rule="evenodd" d="M37.4614 24.9041H32.458C32.223 24.9041 32.0322 25.097 32.0322 25.3344V30.8723C32.0322 31.1097 32.223 31.3026 32.458 31.3026H37.4614C37.6963 31.3026 37.8909 31.1097 37.8909 30.8723V25.3307C37.8872 25.097 37.6963 24.9041 37.4614 24.9041Z" fill="#B8D3EE"/>
<path fill-rule="evenodd" clip-rule="evenodd" d="M38.4195 28.6838H36.9438C36.874 28.6838 36.819 28.7395 36.819 28.81V31.1728C36.819 31.2432 36.874 31.2989 36.9438 31.2989H38.4195C38.4892 31.2989 38.5443 31.2432 38.5443 31.1728V28.81C38.5443 28.7395 38.4892 28.6838 38.4195 28.6838Z" fill="#DCE9F7"/>
<path fill-rule="evenodd" clip-rule="evenodd" d="M15.0947 27.2743H19.2905C19.452 27.2743 19.5842 27.4041 19.5842 27.5674V31.0059C19.5842 31.1654 19.452 31.2989 19.2905 31.2989H18.6371C17.712 30.1156 16.3501 29.2885 14.8047 29.0696V27.5636C14.801 27.4041 14.9332 27.2743 15.0947 27.2743Z" fill="#B3CEEB"/>
<path fill-rule="evenodd" clip-rule="evenodd" d="M17.11 28.5577H19.966C20.0761 28.5577 20.1642 28.6468 20.1642 28.758V31.1023C20.1642 31.2136 20.0761 31.3026 19.966 31.3026H18.6371C18.1636 30.698 17.5762 30.1861 16.9118 29.8003V28.758C16.9118 28.6468 16.9999 28.5577 17.11 28.5577Z" fill="#B8D3EE"/>
<path fill-rule="evenodd" clip-rule="evenodd" d="M16.3318 29.3701H17.2825C17.3266 29.3701 17.3633 29.4071 17.3633 29.4517V30.0859C17.0182 29.8411 16.6438 29.6334 16.251 29.4702V29.4517C16.251 29.4071 16.2877 29.3701 16.3318 29.3701Z" fill="#F0F1EE"/>
<path fill-rule="evenodd" clip-rule="evenodd" d="M10.15 25.7016H7.83735C8.41735 26.8033 9.32038 27.7157 10.418 28.2981V25.9724C10.4216 25.824 10.2968 25.7016 10.15 25.7016Z" fill="#EAEAE6"/>
<path fill-rule="evenodd" clip-rule="evenodd" d="M9.53696 26.9553H8.71101C9.01203 27.2929 9.34975 27.597 9.71684 27.8604V27.1371C9.71684 27.0406 9.63608 26.9553 9.53696 26.9553Z" fill="#E3E2DC"/>
<path fill-rule="evenodd" clip-rule="evenodd" d="M12.0111 42.2672H11.7578V41.7924H11.8459C12.0038 41.7924 12.1323 41.6404 12.1323 41.4512C12.1323 41.262 12.0038 41.1099 11.8459 41.1099H11.5523C11.1521 41.1804 10.7557 41.2694 10.3666 41.377C10.3629 41.403 10.3592 41.4289 10.3592 41.4512C10.3592 41.6404 10.4877 41.7924 10.6456 41.7924H10.7337V42.2672H10.4804C10.3042 42.2672 10.161 42.4378 10.161 42.6493V48.981C10.161 49.1887 10.3042 49.3631 10.4804 49.3631H12.0148C12.191 49.3631 12.3342 49.1924 12.3342 48.981V42.6493C12.3305 42.4416 12.1873 42.2672 12.0111 42.2672Z" fill="#B3CEEB"/>
<path fill-rule="evenodd" clip-rule="evenodd" d="M14.489 43.0128H14.2614V42.5862H14.3385C14.478 42.5862 14.5955 42.449 14.5955 42.2821C14.5955 42.1152 14.4817 41.9779 14.3385 41.9779H14.0558V40.8948C14.0301 40.8948 14.0044 40.8948 13.9824 40.8948C13.8356 40.8948 13.6924 40.8985 13.5456 40.9022V41.9779H13.2629C13.1234 41.9779 13.006 42.1152 13.006 42.2821C13.006 42.449 13.1198 42.5862 13.2629 42.5862H13.34V43.0128H13.1124C12.9546 43.0128 12.8261 43.1649 12.8261 43.3541V49.0218C12.8261 49.211 12.9546 49.3631 13.1124 49.3631H14.4853C14.6432 49.3631 14.7717 49.211 14.7717 49.0218V43.3541C14.7753 43.1686 14.6468 43.0128 14.489 43.0128Z" fill="#DEDED7"/>
<path fill-rule="evenodd" clip-rule="evenodd" d="M18.7252 42.6604H14.9442C14.768 42.6604 14.6211 42.8051 14.6211 42.9831V49.0404C14.6211 49.2184 14.7643 49.3631 14.9442 49.3631H18.7252C18.9014 49.3631 19.0482 49.2184 19.0482 49.0404V42.9831C19.0519 42.8051 18.9051 42.6604 18.7252 42.6604Z" fill="#F9F9FA"/>
<path fill-rule="evenodd" clip-rule="evenodd" d="M17.991 44.1627H15.682C15.5609 44.1627 15.4654 44.2628 15.4654 44.3815V45.6501C15.4654 45.7688 15.5646 45.8689 15.682 45.8689H17.991C18.1122 45.8689 18.2076 45.7688 18.2076 45.6501V44.3815C18.2076 44.2591 18.1085 44.1627 17.991 44.1627Z" fill="#F5F6F5"/>
<path fill-rule="evenodd" clip-rule="evenodd" d="M18.024 46.2584H15.6453C15.5462 46.2584 15.4618 46.34 15.4618 46.4439V46.6182C15.4618 46.7184 15.5425 46.8037 15.6453 46.8037H18.0204C18.1195 46.8037 18.2039 46.7221 18.2039 46.6182V46.4439C18.2076 46.34 18.1268 46.2584 18.024 46.2584Z" fill="#F5F6F5"/>
<path fill-rule="evenodd" clip-rule="evenodd" d="M18.024 47.3081H15.6453C15.5462 47.3081 15.4618 47.3897 15.4618 47.4936V47.6679C15.4618 47.7681 15.5425 47.8534 15.6453 47.8534H18.0204C18.1195 47.8534 18.2039 47.7718 18.2039 47.6679V47.4936C18.2076 47.3934 18.1268 47.3081 18.024 47.3081Z" fill="#F5F6F5"/>
<path fill-rule="evenodd" clip-rule="evenodd" d="M14.0521 45.2421H11.7321C11.622 45.2421 11.5339 45.3311 11.5339 45.4424V49.1628C11.5339 49.2741 11.622 49.3631 11.7321 49.3631H14.0558C14.1659 49.3631 14.254 49.2741 14.254 49.1628V45.4424C14.2504 45.3348 14.1623 45.2421 14.0521 45.2421Z" fill="#EAEAE6"/>
<path fill-rule="evenodd" clip-rule="evenodd" d="M1.16 49.3594C1.18936 49.3631 1.21873 49.3668 1.2481 49.3668H9.12582C9.49658 49.3668 9.79759 49.0626 9.79759 48.6917V41.5439C5.92481 42.7717 2.77152 45.6538 1.16 49.3594Z" fill="#C1DBF2"/>
<path fill-rule="evenodd" clip-rule="evenodd" d="M10.6272 45.2421H8.30355C8.19343 45.2421 8.10532 45.3311 8.10532 45.4424V49.1628C8.10532 49.2741 8.19343 49.3631 8.30355 49.3631H10.6272C10.7373 49.3631 10.8254 49.2741 10.8254 49.1628V45.4424C10.8254 45.3348 10.7373 45.2421 10.6272 45.2421Z" fill="#C1DBF2"/>
<path fill-rule="evenodd" clip-rule="evenodd" d="M23.9452 61.5889H30.0279C30.2591 61.5889 30.45 61.7818 30.45 62.0154V67.0044C30.45 67.2381 30.2591 67.431 30.0279 67.431H23.9452C23.7139 67.431 23.523 67.2381 23.523 67.0044V62.0154C23.523 61.778 23.7139 61.5889 23.9452 61.5889Z" fill="#EAEAE6"/>
<path fill-rule="evenodd" clip-rule="evenodd" d="M26.8672 63.4509H31.0116C31.1695 63.4509 31.3016 63.5807 31.3016 63.7402V67.1379C31.3016 67.2974 31.1732 67.4273 31.0116 67.4273H26.8672C26.7094 67.4273 26.5772 67.2974 26.5772 67.1379V63.7402C26.5772 63.5807 26.7094 63.4509 26.8672 63.4509Z" fill="#E1E1D9"/>
<path fill-rule="evenodd" clip-rule="evenodd" d="M29.7489 58.0131H33.339C33.5079 58.0131 33.6437 58.1541 33.6437 58.321V67.1194C33.6437 67.29 33.5042 67.4273 33.339 67.4273H29.7489C29.58 67.4273 29.4442 67.29 29.4442 67.1194V58.321C29.4442 58.1467 29.58 58.0131 29.7489 58.0131Z" fill="#B8D3EE"/>
<path fill-rule="evenodd" clip-rule="evenodd" d="M7.25367 60.8915H7.48861V60.4538H7.40785C7.26468 60.4538 7.14354 60.3129 7.14354 60.1385C7.14354 59.9679 7.26468 59.8232 7.40785 59.8232H7.69785V57.9723C7.69785 57.8017 7.81899 57.657 7.96215 57.657C8.10532 57.657 8.22646 57.798 8.22646 57.9723V59.8232H8.51646C8.65962 59.8232 8.78076 59.9642 8.78076 60.1385C8.78076 60.3092 8.65962 60.4538 8.51646 60.4538H8.4357V60.8915H8.67063C8.83215 60.8915 8.9643 61.051 8.9643 61.2402V67.0712C8.9643 67.2641 8.83215 67.4236 8.67063 67.4236H7.59506C7.38215 67.3123 7.17291 67.1936 6.96367 67.0749V67.0712V61.2402C6.95633 61.051 7.09215 60.8915 7.25367 60.8915Z" fill="#DEDED7"/>
<path fill-rule="evenodd" clip-rule="evenodd" d="M4.97038 61.5777H5.17962V61.1846H5.10988C4.9814 61.1846 4.87127 61.0584 4.87127 60.9026C4.87127 60.7469 4.97773 60.6207 5.10988 60.6207H5.36684V58.9627C5.36684 58.8069 5.4733 58.6808 5.60545 58.6808C5.73393 58.6808 5.84405 58.8069 5.84405 58.9627V60.6207H6.10102C6.2295 60.6207 6.33963 60.7469 6.33963 60.9026C6.33963 61.0584 6.23317 61.1846 6.10102 61.1846H6.03127V61.5777H6.24051C6.38368 61.5777 6.50481 61.7187 6.50481 61.893V66.793C5.86975 66.385 5.27507 65.9287 4.71342 65.4317V61.8967C4.70608 61.7187 4.82722 61.5777 4.97038 61.5777Z" fill="#DEDED7"/>
<path fill-rule="evenodd" clip-rule="evenodd" d="M1.49773 61.2513H4.54823C4.71342 61.2513 4.84557 61.3848 4.84557 61.5481V65.5541C3.47266 64.3597 2.32735 62.8982 1.49773 61.2513Z" fill="#F9F9FA"/>
<path fill-rule="evenodd" clip-rule="evenodd" d="M2.29797 62.6349H3.86911C3.97924 62.6349 4.07101 62.7276 4.07101 62.8352V64.0036C4.07101 64.1149 3.97924 64.2039 3.86911 64.2039H3.49101C3.05785 63.7143 2.66139 63.1876 2.29797 62.6349Z" fill="#F5F6F5"/>
<path fill-rule="evenodd" clip-rule="evenodd" d="M3.82139 64.5674H3.90215C3.99392 64.5674 4.07101 64.6416 4.07101 64.7343V64.8233C3.98658 64.7417 3.90215 64.6564 3.82139 64.5674Z" fill="#F5F6F5"/>
<path fill-rule="evenodd" clip-rule="evenodd" d="M5.37051 63.6327H7.51063C7.60975 63.6327 7.69418 63.7143 7.69418 63.8181V67.2455C7.69418 67.3234 7.64279 67.3939 7.56937 67.4161C6.72139 66.971 5.92481 66.4443 5.18696 65.8434V63.8144C5.19063 63.7143 5.27139 63.6327 5.37051 63.6327Z" fill="#EAEAE6"/>
<path fill-rule="evenodd" clip-rule="evenodd" d="M9.9114 58.1504H17.1651C17.5065 58.1504 17.7818 58.4323 17.7818 58.7735V66.8041C17.7818 67.1454 17.5028 67.4273 17.1651 67.4273H9.9114C9.57001 67.4273 9.29469 67.1454 9.29469 66.8041V58.7735C9.29469 58.4323 9.57001 58.1504 9.9114 58.1504Z" fill="#EAEAE6"/>
<path fill-rule="evenodd" clip-rule="evenodd" d="M8.52747 63.6327H10.6639C10.763 63.6327 10.8475 63.7143 10.8475 63.8181V67.2455C10.8475 67.3457 10.763 67.4273 10.6639 67.4273H8.52747C8.42836 67.4273 8.34393 67.3457 8.34393 67.2455V63.8181C8.34393 63.7143 8.42468 63.6327 8.52747 63.6327Z" fill="#F9F9FA"/>
<path fill-rule="evenodd" clip-rule="evenodd" d="M42.34 61.5889H36.2573C36.0224 61.5889 35.8352 61.7818 35.8352 62.0154V67.0044C35.8352 67.2381 36.0261 67.431 36.2573 67.431H42.34C42.5749 67.431 42.7621 67.2381 42.7621 67.0044V62.0154C42.7621 61.778 42.5713 61.5889 42.34 61.5889Z" fill="#EAEAE6"/>
<path fill-rule="evenodd" clip-rule="evenodd" d="M39.418 63.4509H35.2772C35.1194 63.4509 34.9872 63.5807 34.9872 63.7402V67.1379C34.9872 67.2974 35.1157 67.4273 35.2772 67.4273H39.418C39.5795 67.4273 39.708 67.2974 39.708 67.1379V63.7402C39.708 63.5807 39.5795 63.4509 39.418 63.4509Z" fill="#E1E1D9"/>
<path fill-rule="evenodd" clip-rule="evenodd" d="M40.5486 64.6268H39.172C39.1059 64.6268 39.0546 64.6787 39.0546 64.7455V67.3086C39.0546 67.3753 39.1059 67.4273 39.172 67.4273H40.5486C40.6147 67.4273 40.6661 67.3753 40.6661 67.3086V64.7455C40.6661 64.6824 40.6147 64.6268 40.5486 64.6268Z" fill="#F0F1EE"/>
<path fill-rule="evenodd" clip-rule="evenodd" d="M15.5205 41.5662L17.1687 41.4141C17.2752 41.403 17.367 41.4846 17.367 41.5959V42.13C17.367 42.2376 17.2789 42.334 17.1687 42.3451L15.5205 42.4935C15.4141 42.5046 15.326 42.423 15.326 42.3117V41.7776C15.326 41.6738 15.4141 41.5736 15.5205 41.5662Z" fill="white"/>
<path d="M57.7944 37.6974C57.2144 35.5683 56.8804 33.9955 56.5427 30.264H32.0028C31.8009 34.003 31.3567 35.572 30.7253 37.6974C39.6786 40.3161 48.7053 40.2753 57.7944 37.6974Z" fill="url(#paint0_radial_14559_24893)"/>
<path d="M40.1375 56.1696C39.9135 56.1325 39.697 56.2438 39.5868 56.4441C39.4106 56.7705 39.3152 57.1377 39.3152 57.505C39.3152 59.3151 41.5875 60.7691 44.392 60.7691C47.1966 60.7691 49.4689 59.3225 49.4689 57.5124C49.4689 57.134 49.3661 56.7557 49.1825 56.4181C49.0724 56.2178 48.8522 56.1103 48.6282 56.1511C45.8677 56.6481 43.0338 56.6518 40.1375 56.1696Z" fill="url(#paint1_radial_14559_24893)"/>
<path d="M65.3968 47.8237C65.3748 47.0262 64.0716 46.2695 63.4513 45.7577C62.0416 44.6004 59.5564 42.1893 58.8002 39.6151C58.6351 39.0476 58.4846 38.5394 58.3451 38.0609C58.1946 37.5416 57.7247 37.1855 57.1924 37.1855C48.5218 39.144 39.9576 39.1959 31.4962 37.1855C30.9713 37.1855 30.5051 37.5305 30.3472 38.0387C30.1967 38.5246 30.0352 39.0402 29.8663 39.6151C29.1248 42.1411 26.8195 44.515 25.52 45.6983C24.94 46.225 23.9452 46.9669 23.9415 47.7458C23.9415 48.8141 23.9379 50.3535 23.9379 51.507C23.9379 52.3861 24.606 52.7979 25.5457 53.1057C30.5271 54.2445 35.5048 54.9418 40.4715 55.1978C43.5294 55.3573 45.4492 55.3499 48.5034 55.1718C53.2792 54.8936 58.0514 54.2074 62.8162 53.102C64.5305 52.7163 65.3932 51.9559 65.3932 50.5426C65.4005 50.55 65.3968 47.8497 65.3968 47.8237Z" fill="url(#paint2_radial_14559_24893)"/>
<path d="M55.8672 30.7722C56.5574 30.7722 57.097 30.1787 57.0382 29.4851C57.0162 29.2439 56.9979 28.9954 56.9758 28.7395C55.8856 15.2971 47.6371 15.2637 47.259 15.1969C47.1929 15.1858 47.1452 15.1264 47.1489 15.056C47.1966 14.1732 47.0791 13.4202 46.5909 12.6412C46.1651 11.9661 45.5117 11.4951 44.7187 11.3541C44.649 11.343 44.1828 11.3318 44.113 11.3318C42.7732 11.3318 42.0023 12.504 41.9179 12.6412C41.4296 13.4202 41.3158 14.1732 41.3636 15.056C41.3672 15.1227 41.3232 15.1821 41.2608 15.1932C40.1962 15.3787 31.9 17.1962 31.5623 28.7395C31.555 29.014 31.5439 29.281 31.5366 29.537C31.5109 30.2121 32.0432 30.7722 32.7113 30.7722C40.3761 31.8256 48.0996 31.8108 55.8672 30.7722ZM42.4612 13.9654C42.5052 13.116 43.0962 12.3037 44.2415 12.3037C45.4346 12.3037 45.9779 13.1717 46.0219 13.9654C46.0329 14.2065 46.0036 14.4476 45.9301 14.6739C45.9118 14.7295 45.8641 14.7963 45.7943 14.8C45.6218 14.7295 42.8576 14.7629 42.7034 14.8C42.63 14.8186 42.5823 14.7703 42.5639 14.7147C42.4832 14.4736 42.4501 14.2177 42.4612 13.9654Z" fill="url(#paint3_radial_14559_24893)"/>
<path d="M9.8857 40.2679C9.52962 40.2679 9.18823 40.0639 9.02671 39.7189C7.73456 36.9704 7.11785 34.092 7.17291 31.3286C7.22798 28.5651 7.95481 25.9204 9.34975 23.6355C9.62507 23.183 10.2087 23.0457 10.6566 23.3239C11.1044 23.6021 11.2403 24.1919 10.9649 24.6444C9.73886 26.6512 9.10747 28.988 9.06709 31.4361C9.02671 33.8842 9.58469 36.4437 10.7373 38.8992C10.9613 39.3777 10.7594 39.9489 10.2858 40.1752C10.161 40.2382 10.0215 40.2679 9.8857 40.2679Z" fill="url(#paint4_radial_14559_24893)"/>
<path d="M15.2268 41.1841C14.2614 39.756 13.5125 38.2352 13.0427 36.6254C12.5618 34.9637 12.3525 33.224 12.4223 31.4473C12.5104 29.281 12.9986 27.2261 13.7181 25.4642C14.1953 24.2921 14.7643 23.2609 15.3553 22.4411C15.5352 22.1926 15.7518 22.0034 15.9647 21.8736C16.229 21.7141 16.5594 21.6993 16.842 21.8439C16.9485 21.8996 17.0476 21.9738 17.1284 22.0665C17.4294 22.4189 17.433 22.9419 17.132 23.3017C16.5116 24.0435 15.8692 25.1675 15.3553 26.5213C14.8267 27.9123 14.4596 29.5073 14.3495 31.1876C14.3348 31.3953 14.3275 31.6068 14.3238 31.8145C14.2834 33.3872 14.4853 34.9043 14.9258 36.3546C15.3076 37.601 15.8656 38.7916 16.6071 39.9155C16.6989 40.0565 16.7759 40.1974 16.8384 40.3384C17.0109 40.7167 16.9008 41.1952 16.5337 41.4512C16.4125 41.5328 16.2804 41.581 16.1446 41.6033C16.0565 41.6144 15.9684 41.6144 15.8803 41.6033C15.6233 41.5625 15.3847 41.4178 15.2268 41.1841Z" fill="url(#paint5_radial_14559_24893)"/>
<path d="M22.1354 42.9683C21.8748 42.9683 21.6178 42.8607 21.4306 42.6493C20.0871 41.1433 19.0923 39.4333 18.4609 37.5676C17.8295 35.7018 17.5615 33.6839 17.6753 31.5622C17.8111 28.988 18.4902 26.5992 19.3382 24.6704C20.1862 22.7416 21.2067 21.2653 22.029 20.5234C22.4181 20.171 23.0201 20.2044 23.3689 20.5976C23.7176 20.9908 23.6846 21.5991 23.2954 21.9515C22.6163 22.5672 21.7463 23.8581 21.0158 25.5643C20.2853 27.2706 19.6943 29.3923 19.5732 31.6661C19.474 33.5541 19.698 35.3123 20.2449 36.9333C20.7919 38.5542 21.6582 40.0342 22.8439 41.3659C23.1963 41.759 23.1633 42.3674 22.7742 42.7197C22.587 42.8867 22.3594 42.9683 22.1354 42.9683Z" fill="url(#paint6_radial_14559_24893)"/>
<path d="M79.2324 23.1236C79.5885 23.1236 79.9299 23.3276 80.0914 23.6726C81.3836 26.4212 82.0003 29.2996 81.9452 32.063C81.8901 34.8264 81.1633 37.4711 79.7684 39.756C79.4931 40.2086 78.9094 40.3458 78.4615 40.0676C78.0137 39.7894 77.8779 39.1996 78.1532 38.7471C79.3793 36.7404 80.0106 34.4035 80.051 31.9554C80.0914 29.5073 79.5334 26.9479 78.3808 24.4923C78.1569 24.0139 78.3587 23.4426 78.8323 23.2164C78.9608 23.1533 79.0966 23.1236 79.2324 23.1236Z" fill="url(#paint7_radial_14559_24893)"/>
<path d="M73.8913 22.2037C74.8567 23.6318 75.6056 25.1526 76.0754 26.7624C76.5563 28.4242 76.7656 30.1638 76.6958 31.9406C76.6077 34.1068 76.1195 36.1617 75.4 37.9236C74.9228 39.0958 74.3538 40.1269 73.7628 40.9467C73.5829 41.1952 73.3663 41.3844 73.1534 41.5142C72.8891 41.6737 72.5587 41.6885 72.2761 41.5439C72.1696 41.4882 72.0705 41.4141 71.9897 41.3213C71.6887 40.9689 71.6851 40.4459 71.9861 40.0861C72.6065 39.3443 73.2489 38.2204 73.7628 36.8665C74.2914 35.4755 74.6585 33.8805 74.7686 32.2002C74.7833 31.9925 74.7906 31.7811 74.7943 31.5733C74.8347 30.0006 74.6328 28.4835 74.1923 27.0332C73.8105 25.7869 73.2525 24.5962 72.511 23.4723C72.4192 23.3313 72.3421 23.1904 72.2797 23.0494C72.1072 22.6711 72.2173 22.1926 72.5844 21.9366C72.7056 21.855 72.8377 21.8068 72.9735 21.7846C73.0616 21.7734 73.1497 21.7734 73.2378 21.7846C73.4985 21.8291 73.7334 21.97 73.8913 22.2037Z" fill="url(#paint8_radial_14559_24893)"/>
<path d="M66.9863 20.4196C67.247 20.4196 67.5039 20.5271 67.6911 20.7386C69.0347 22.2445 70.0295 23.9545 70.6609 25.8203C71.2923 27.686 71.5603 29.7039 71.4465 31.8256C71.3106 34.3998 70.6315 36.7886 69.7836 38.7174C68.9356 40.6462 67.9151 42.1225 67.0928 42.8644C66.7037 43.2168 66.1016 43.1834 65.7529 42.7902C65.4042 42.397 65.4372 41.7887 65.8263 41.4363C66.5054 40.8206 67.3754 39.5298 68.1059 37.8235C68.8365 36.1172 69.4275 33.9955 69.5486 31.7217C69.6477 29.8337 69.4238 28.0755 68.8768 26.4546C68.3299 24.8336 67.4635 23.3536 66.2778 22.022C65.9254 21.6288 65.9585 21.0205 66.3476 20.6681C66.5348 20.5012 66.7587 20.4196 66.9863 20.4196Z" fill="url(#paint9_radial_14559_24893)"/>
<defs>
<radialGradient id="paint0_radial_14559_24893" cx="0" cy="0" r="1" gradientUnits="userSpaceOnUse" gradientTransform="translate(44.2606 34.9561) scale(10.1177 10.2235)">
<stop stop-color="#FF9B27"/>
<stop offset="0.998" stop-color="#E08447"/>
</radialGradient>
<radialGradient id="paint1_radial_14559_24893" cx="0" cy="0" r="1" gradientUnits="userSpaceOnUse" gradientTransform="translate(44.3939 58.4559) scale(3.93765 3.97883)">
<stop stop-color="#FF9B27"/>
<stop offset="0.998" stop-color="#E08447"/>
</radialGradient>
<radialGradient id="paint2_radial_14559_24893" cx="0" cy="0" r="1" gradientUnits="userSpaceOnUse" gradientTransform="translate(44.6735 46.2517) scale(15.97 16.137)">
<stop stop-color="#FFBF00"/>
<stop offset="1" stop-color="#FFA700"/>
</radialGradient>
<radialGradient id="paint3_radial_14559_24893" cx="0" cy="0" r="1" gradientUnits="userSpaceOnUse" gradientTransform="translate(44.2889 21.4447) scale(11.4642 11.5841)">
<stop stop-color="#FFBF00"/>
<stop offset="1" stop-color="#FFA700"/>
</radialGradient>
<radialGradient id="paint4_radial_14559_24893" cx="0" cy="0" r="1" gradientUnits="userSpaceOnUse" gradientTransform="translate(9.14194 31.7241) scale(6.13879 6.20299)">
<stop stop-color="#FF9B27"/>
<stop offset="0.998" stop-color="#E08447"/>
</radialGradient>
<radialGradient id="paint5_radial_14559_24893" cx="0" cy="0" r="1" gradientUnits="userSpaceOnUse" gradientTransform="translate(14.8834 31.6758) scale(7.16744 7.2424)">
<stop stop-color="#FF9B27"/>
<stop offset="0.998" stop-color="#E08447"/>
</radialGradient>
<radialGradient id="paint6_radial_14559_24893" cx="0" cy="0" r="1" gradientUnits="userSpaceOnUse" gradientTransform="translate(20.6278 31.6264) scale(8.21233 8.29821)">
<stop stop-color="#FF9B27"/>
<stop offset="0.998" stop-color="#E08447"/>
</radialGradient>
<radialGradient id="paint7_radial_14559_24893" cx="0" cy="0" r="1" gradientUnits="userSpaceOnUse" gradientTransform="translate(79.9785 31.6657) scale(6.13878 6.20299)">
<stop stop-color="#FF9B27"/>
<stop offset="0.998" stop-color="#E08447"/>
</radialGradient>
<radialGradient id="paint8_radial_14559_24893" cx="0" cy="0" r="1" gradientUnits="userSpaceOnUse" gradientTransform="translate(74.237 31.714) scale(7.16742 7.2424)">
<stop stop-color="#FF9B27"/>
<stop offset="0.998" stop-color="#E08447"/>
</radialGradient>
<radialGradient id="paint9_radial_14559_24893" cx="0" cy="0" r="1" gradientUnits="userSpaceOnUse" gradientTransform="translate(68.4926 31.7634) scale(8.21235 8.29821)">
<stop stop-color="#FF9B27"/>
<stop offset="0.998" stop-color="#E08447"/>
</radialGradient>
</defs>
</svg>
