<svg width="97" height="65" viewBox="0 0 97 65" fill="none" xmlns="http://www.w3.org/2000/svg">
<path fill-rule="evenodd" clip-rule="evenodd" d="M15.322 71.48C7.41353 71.48 0.944916 64.9292 0.944916 56.9245C0.944916 48.9179 7.41551 42.3691 15.322 42.3691C18.6653 42.3691 21.4005 39.5999 21.4005 36.2152C21.4005 32.8305 18.6653 30.0614 15.322 30.0614H14.5991C11.1232 30.0594 8.27905 27.18 8.27905 23.6609C8.27905 20.1419 11.1232 17.2624 14.5991 17.2624H16.8194C18.1721 17.2624 19.2793 16.1416 19.2793 14.772C19.2793 13.4025 18.1721 12.2816 16.8194 12.2816H15.1893C14.2545 12.2816 13.492 11.5076 13.492 10.5632C13.492 9.61676 14.2565 8.84477 15.1893 8.84477H26.1519C27.6195 8.84477 28.8198 7.62964 28.8198 6.14382C28.8198 4.65799 27.6195 3.44286 26.1519 3.44286H22.874C21.9392 3.44286 21.1767 2.66887 21.1767 1.72444C21.1767 0.778003 21.9412 0.00601549 22.874 0.00601549H69.4932C70.7113 0.00601549 71.7095 1.01662 71.7095 2.24979C71.7095 3.48297 70.7113 4.49357 69.4932 4.49357H66.1322C64.2169 4.49357 62.6503 6.07965 62.6503 8.01864C62.6503 9.95763 64.2169 11.5437 66.1322 11.5437H80.5271C81.7452 11.5437 82.7434 12.5543 82.7434 13.7875C82.7434 15.0207 81.7472 16.0313 80.5271 16.0313H78.4C76.6333 16.0313 75.1894 17.495 75.1894 19.2816C75.1894 21.0702 76.6353 22.532 78.4 22.532H81.2956C85.8312 22.532 89.5428 26.2897 89.5428 30.8815C89.5428 35.4733 85.8312 39.231 81.2956 39.231H80.3509C75.9876 39.231 72.4186 42.8443 72.4186 47.2617C72.4186 51.679 75.9876 55.2923 80.3509 55.2923H82.3948C86.7937 55.2923 90.3925 58.9357 90.3925 63.3892C90.3925 67.8427 86.7937 71.486 82.3948 71.486C59.6358 71.48 38.081 71.48 15.322 71.48ZM75.1637 4.48755C76.3877 4.48755 77.38 3.48297 77.38 2.24378C77.378 1.00459 76.3857 0 75.1637 0C73.9397 0 72.9474 1.00459 72.9474 2.24378C72.9474 3.48297 73.9397 4.48755 75.1637 4.48755ZM10.4221 12.2796C11.3609 12.2796 12.1194 11.5096 12.1194 10.5612C12.1194 9.61074 11.3589 8.84276 10.4221 8.84276C9.48325 8.84276 8.72469 9.61275 8.72469 10.5612C8.72469 11.5096 9.48325 12.2796 10.4221 12.2796Z" fill="#CDE5FB"/>
<path fill-rule="evenodd" clip-rule="evenodd" d="M45.9816 14.1284H19.1961C19.2496 14.3329 19.2793 14.5495 19.2793 14.772C19.2793 16.1416 18.1721 17.2625 16.8194 17.2625H14.5991C11.1232 17.2625 8.27905 20.1419 8.27905 23.6609C8.27905 23.679 8.27905 23.699 8.27905 23.7171H45.9796C48.5841 23.7171 50.7152 21.5595 50.7152 18.9227C50.7152 16.2859 48.5841 14.1284 45.9816 14.1284Z" fill="#DCE9F7"/>
<path fill-rule="evenodd" clip-rule="evenodd" d="M8.85936 20.9901H50.7152V71.48H15.322C7.41353 71.48 0.944916 64.9292 0.944916 56.9245C0.944916 48.9179 7.41551 42.3691 15.322 42.3691C18.6653 42.3691 21.4005 39.6 21.4005 36.2152C21.4005 32.8305 18.6653 30.0614 15.322 30.0614H14.5991C11.1232 30.0594 8.27905 27.18 8.27905 23.6609C8.27905 22.7085 8.48701 21.8041 8.85936 20.9901Z" fill="#CDE0F3"/>
<path fill-rule="evenodd" clip-rule="evenodd" d="M8.4375 25.0806H47.3066C48.4197 25.0806 49.3308 26.1734 49.3308 27.5109V71.4801H15.322C7.41353 71.4801 0.944916 64.9292 0.944916 56.9246C0.944916 48.918 7.41551 42.3691 15.322 42.3691C18.6653 42.3691 21.4005 39.6 21.4005 36.2153C21.4005 32.8305 18.6653 30.0614 15.322 30.0614H14.5991C11.6045 30.0594 9.07921 27.9219 8.4375 25.0806Z" fill="#C1DBF2"/>
<path fill-rule="evenodd" clip-rule="evenodd" d="M21.0618 34.188H49.3308V38.3247H21.0321C21.2717 37.665 21.4024 36.9552 21.4024 36.2153C21.4024 35.5054 21.2816 34.8237 21.0618 34.188Z" fill="#CDE0F3"/>
<path fill-rule="evenodd" clip-rule="evenodd" d="M51.3134 32.4275H20.1072C20.9172 33.4742 21.4025 34.7896 21.4025 36.2132C21.4025 36.3315 21.3985 36.4478 21.3926 36.5641H51.3154C52.0502 36.5641 52.6483 35.9566 52.6483 35.2147V33.779C52.6483 33.0351 52.0482 32.4275 51.3134 32.4275Z" fill="#DCE9F7"/>
<path fill-rule="evenodd" clip-rule="evenodd" d="M1.5074 52.9022H49.3308V57.0389H0.946896C0.946896 57.0008 0.944916 56.9627 0.944916 56.9246C0.944916 55.531 1.14099 54.1815 1.5074 52.9022Z" fill="#CDE0F3"/>
<path fill-rule="evenodd" clip-rule="evenodd" d="M51.3134 51.1437H2.13524C1.5787 52.437 1.20238 53.8266 1.03799 55.2803H51.3134C52.0482 55.2803 52.6463 54.6728 52.6463 53.9309V52.4952C52.6483 51.7512 52.0482 51.1437 51.3134 51.1437Z" fill="#DCE9F7"/>
<path fill-rule="evenodd" clip-rule="evenodd" d="M51.3133 18.9227H10.3626C9.22378 19.9694 8.45927 21.4272 8.30676 23.0594H51.3133C52.0481 23.0594 52.6463 22.4518 52.6463 21.7099V20.2742C52.6483 19.5303 52.0481 18.9227 51.3133 18.9227Z" fill="#DCE9F7"/>
<path fill-rule="evenodd" clip-rule="evenodd" d="M12.0105 17.8841H46.9878C47.9345 17.8841 48.7089 17.0018 48.7089 15.925C48.7089 15.5079 48.592 15.1189 48.394 14.8001C49.7626 15.522 50.7172 17.102 50.7172 18.9227H10.3626C10.8499 18.4996 11.4044 18.1467 12.0105 17.8841Z" fill="#CDE0F3"/>
<path fill-rule="evenodd" clip-rule="evenodd" d="M47.6612 40.6948H41.8164C41.5411 40.6948 41.3173 40.9214 41.3173 41.2001V50.6384C41.3173 50.9171 41.5411 51.1437 41.8164 51.1437H47.6612C47.9365 51.1437 48.1603 50.9171 48.1603 50.6384V41.2001C48.1603 40.9214 47.9365 40.6948 47.6612 40.6948Z" fill="#EAEAE6"/>
<path fill-rule="evenodd" clip-rule="evenodd" d="M40.5291 40.6948H37.5601C37.4215 40.6948 37.3066 40.8091 37.3066 40.9515V50.887C37.3066 51.0274 37.4215 51.1437 37.5601 51.1437H40.5291C40.6677 51.1437 40.7826 51.0274 40.7826 50.887V40.9515C40.7826 40.8091 40.6677 40.6948 40.5291 40.6948Z" fill="#E7E9E3"/>
<path fill-rule="evenodd" clip-rule="evenodd" d="M38.0276 38.7257H34.5714C34.409 38.7257 34.2763 38.8601 34.2763 39.0245V50.8449C34.2763 51.0093 34.409 51.1437 34.5714 51.1437H38.0276C38.19 51.1437 38.3227 51.0093 38.3227 50.8449V39.0245C38.3227 38.8601 38.19 38.7257 38.0276 38.7257Z" fill="#B3CEEB"/>
<path fill-rule="evenodd" clip-rule="evenodd" d="M39.2932 46.3052H33.3078C33.1157 46.3052 32.9592 46.4636 32.9592 46.6581V50.7908C32.9592 50.9853 33.1157 51.1437 33.3078 51.1437H39.2932C39.4853 51.1437 39.6418 50.9853 39.6418 50.7908V46.6581C39.6418 46.4636 39.4853 46.3052 39.2932 46.3052Z" fill="#B8D3EE"/>
<path fill-rule="evenodd" clip-rule="evenodd" d="M31.9392 42.2789H28.9703C28.8317 42.2789 28.7168 42.3952 28.7168 42.5355V50.887C28.7168 51.0274 28.8317 51.1437 28.9703 51.1437H31.9392C32.0779 51.1437 32.1927 51.0274 32.1927 50.887V42.5355C32.1927 42.3952 32.0779 42.2789 31.9392 42.2789Z" fill="#B8D3EE"/>
<path fill-rule="evenodd" clip-rule="evenodd" d="M46.5223 43.0368H42.9533C42.7691 43.0368 42.6186 43.1892 42.6186 43.3757V45.3548C42.6186 45.5413 42.7691 45.6936 42.9533 45.6936H46.5223C46.7065 45.6936 46.857 45.5413 46.857 45.3548V43.3757C46.859 43.1892 46.7065 43.0368 46.5223 43.0368Z" fill="#E3E2DC"/>
<path fill-rule="evenodd" clip-rule="evenodd" d="M46.5758 46.3032H42.9018C42.7473 46.3032 42.6186 46.4316 42.6186 46.588V46.8627C42.6186 47.0191 42.7453 47.1494 42.9018 47.1494H46.5758C46.7323 47.1494 46.859 47.0211 46.859 46.8627V46.588C46.859 46.4316 46.7323 46.3032 46.5758 46.3032Z" fill="#E3E2DC"/>
<path fill-rule="evenodd" clip-rule="evenodd" d="M46.5758 47.9414H42.9018C42.7473 47.9414 42.6186 48.0698 42.6186 48.2262V48.5009C42.6186 48.6573 42.7453 48.7876 42.9018 48.7876H46.5758C46.7323 48.7876 46.859 48.6593 46.859 48.5009V48.2262C46.859 48.0698 46.7323 47.9414 46.5758 47.9414Z" fill="#E3E2DC"/>
<path fill-rule="evenodd" clip-rule="evenodd" d="M30.4538 45.834C30.0497 45.834 29.7229 46.227 29.7229 46.7123C29.7229 47.1975 30.0497 47.5905 30.4538 47.5905C30.8578 47.5905 31.1846 47.1975 31.1846 46.7123C31.1846 46.227 30.8578 45.834 30.4538 45.834Z" fill="#B3CEEB"/>
<path fill-rule="evenodd" clip-rule="evenodd" d="M32.0264 30.8334H30.4558C30.3448 30.8334 30.2537 30.9256 30.2537 31.0379V32.227C30.2537 32.3393 30.3448 32.4295 30.4558 32.4295H32.0264C32.1373 32.4295 32.2264 32.3373 32.2264 32.227V31.0379C32.2284 30.9256 32.1373 30.8334 32.0264 30.8334Z" fill="#DCE9F7"/>
<path fill-rule="evenodd" clip-rule="evenodd" d="M29.509 28.2568H25.1953C25.0309 28.2568 24.8942 28.3931 24.8942 28.5616V32.1247C24.8942 32.2912 25.0289 32.4295 25.1953 32.4295H29.509C29.6734 32.4295 29.8101 32.2932 29.8101 32.1247V28.5616C29.8081 28.3931 29.6734 28.2568 29.509 28.2568Z" fill="#B8D3EE"/>
<path fill-rule="evenodd" clip-rule="evenodd" d="M27.4373 29.5862H24.5001C24.3872 29.5862 24.2961 29.6784 24.2961 29.7927V32.221C24.2961 32.3353 24.3872 32.4275 24.5001 32.4275H27.4373C27.5502 32.4275 27.6413 32.3353 27.6413 32.221V29.7927C27.6413 29.6804 27.5502 29.5862 27.4373 29.5862Z" fill="#B3CEEB"/>
<path fill-rule="evenodd" clip-rule="evenodd" d="M25.3934 25.6982H22.8483C22.7295 25.6982 22.6304 25.7964 22.6304 25.9187V32.2089C22.6304 32.3293 22.7275 32.4295 22.8483 32.4295H25.3934C25.5122 32.4295 25.6112 32.3313 25.6112 32.2089V25.9187C25.6112 25.7984 25.5122 25.6982 25.3934 25.6982Z" fill="#DCE9F7"/>
<path fill-rule="evenodd" clip-rule="evenodd" d="M41.347 27.7595H41.1826V27.4467H41.2381C41.3411 27.4467 41.4243 27.3464 41.4243 27.2221C41.4243 27.0978 41.3411 26.9975 41.2381 26.9975H41.0341V25.6741C41.0341 25.5498 40.9489 25.4495 40.8479 25.4495C40.7449 25.4495 40.6617 25.5498 40.6617 25.6741V26.9975H40.4577C40.3547 26.9975 40.2696 27.0978 40.2696 27.2221C40.2696 27.3464 40.3547 27.4467 40.4577 27.4467H40.5152V27.7595H40.3488C40.2339 27.7595 40.1408 27.8718 40.1408 28.0101V32.1768C40.1408 32.3152 40.2339 32.4275 40.3488 32.4275H41.349C41.4639 32.4275 41.5589 32.3152 41.5589 32.1768V28.0101C41.555 27.8718 41.4619 27.7595 41.347 27.7595Z" fill="#B3CEEB"/>
<path fill-rule="evenodd" clip-rule="evenodd" d="M42.9652 28.2487H42.8166V27.968H42.8681C42.9592 27.968 43.0365 27.8778 43.0365 27.7675C43.0365 27.6572 42.9612 27.567 42.8681 27.567H42.6859V26.3839C42.6859 26.2736 42.6106 26.1834 42.5175 26.1834C42.4245 26.1834 42.3492 26.2736 42.3492 26.3839V27.567H42.167C42.0739 27.567 41.9986 27.6572 41.9986 27.7675C41.9986 27.8778 42.0739 27.968 42.167 27.968H42.2165V28.2487H42.068C41.965 28.2487 41.8798 28.349 41.8798 28.4733V32.2029C41.8798 32.3272 41.965 32.4275 42.068 32.4275H42.9632C43.0662 32.4275 43.1494 32.3272 43.1494 32.2029V28.4733C43.1513 28.351 43.0682 28.2487 42.9652 28.2487Z" fill="#B3CEEB"/>
<path fill-rule="evenodd" clip-rule="evenodd" d="M45.732 28.0161H43.2642C43.1474 28.0161 43.0523 28.1124 43.0523 28.2307V32.217C43.0523 32.3353 43.1474 32.4295 43.2642 32.4295H45.732C45.8489 32.4295 45.942 32.3333 45.942 32.217V28.2307C45.944 28.1124 45.8489 28.0161 45.732 28.0161Z" fill="#DCE9F7"/>
<path fill-rule="evenodd" clip-rule="evenodd" d="M45.2508 29.0047H43.7435C43.6663 29.0047 43.6009 29.0688 43.6009 29.147V29.9832C43.6009 30.0614 43.6643 30.1276 43.7435 30.1276H45.2508C45.328 30.1276 45.3934 30.0634 45.3934 29.9832V29.147C45.3934 29.0688 45.33 29.0047 45.2508 29.0047Z" fill="#F5F6F5"/>
<path fill-rule="evenodd" clip-rule="evenodd" d="M45.2746 30.3842H43.7237C43.6584 30.3842 43.6049 30.4384 43.6049 30.5046V30.6209C43.6049 30.687 43.6584 30.7412 43.7237 30.7412H45.2746C45.3399 30.7412 45.3934 30.687 45.3934 30.6209V30.5046C45.3934 30.4384 45.3399 30.3842 45.2746 30.3842Z" fill="#F5F6F5"/>
<path fill-rule="evenodd" clip-rule="evenodd" d="M45.2746 31.076H43.7237C43.6584 31.076 43.6049 31.1302 43.6049 31.1963V31.3126C43.6049 31.3788 43.6584 31.4329 43.7237 31.4329H45.2746C45.3399 31.4329 45.3934 31.3788 45.3934 31.3126V31.1963C45.3934 31.1302 45.3399 31.076 45.2746 31.076Z" fill="#F5F6F5"/>
<path fill-rule="evenodd" clip-rule="evenodd" d="M42.68 29.7165H41.1628C41.0915 29.7165 41.0341 29.7747 41.0341 29.8469V32.2952C41.0341 32.3673 41.0915 32.4255 41.1628 32.4255H42.68C42.7513 32.4255 42.8087 32.3673 42.8087 32.2952V29.8469C42.8107 29.7767 42.7513 29.7165 42.68 29.7165Z" fill="#B8D3EE"/>
<path fill-rule="evenodd" clip-rule="evenodd" d="M39.4615 25.8004H34.3179C34.0763 25.8004 33.8782 26.0009 33.8782 26.2456V31.9843C33.8782 32.229 34.0763 32.4295 34.3179 32.4295H39.4615C39.7031 32.4295 39.9012 32.229 39.9012 31.9843V26.2456C39.8992 26.0009 39.7031 25.8004 39.4615 25.8004Z" fill="#B8D3EE"/>
<path fill-rule="evenodd" clip-rule="evenodd" d="M40.4439 29.7165H38.9268C38.8555 29.7165 38.798 29.7747 38.798 29.8469V32.2952C38.798 32.3673 38.8555 32.4255 38.9268 32.4255H40.4439C40.5152 32.4255 40.5726 32.3673 40.5726 32.2952V29.8469C40.5726 29.7767 40.5152 29.7165 40.4439 29.7165Z" fill="#DCE9F7"/>
<path fill-rule="evenodd" clip-rule="evenodd" d="M16.4648 28.2568H20.7786C20.943 28.2568 21.0796 28.3931 21.0796 28.5616V32.1247C21.0796 32.2912 20.9449 32.4295 20.7786 32.4295H20.1071C19.1565 31.2024 17.7562 30.3462 16.1658 30.1196V28.5596C16.1658 28.3931 16.3004 28.2568 16.4648 28.2568Z" fill="#B3CEEB"/>
<path fill-rule="evenodd" clip-rule="evenodd" d="M18.5365 29.5862H21.4737C21.5866 29.5862 21.6777 29.6784 21.6777 29.7927V32.221C21.6777 32.3353 21.5866 32.4275 21.4737 32.4275H20.1071C19.6219 31.7999 19.0178 31.2705 18.3325 30.8715V29.7927C18.3325 29.6804 18.4236 29.5862 18.5365 29.5862Z" fill="#B8D3EE"/>
<path fill-rule="evenodd" clip-rule="evenodd" d="M17.7344 30.4283H18.7108C18.7564 30.4283 18.794 30.4664 18.794 30.5126V31.1703C18.4395 30.9176 18.0552 30.7031 17.6512 30.5326V30.5146C17.6512 30.4664 17.6888 30.4283 17.7344 30.4283Z" fill="#F0F1EE"/>
<path fill-rule="evenodd" clip-rule="evenodd" d="M11.3807 26.6286H9.00395C9.60011 27.7715 10.529 28.7139 11.656 29.3175V26.9093C11.6579 26.7549 11.5332 26.6286 11.3807 26.6286Z" fill="#EAEAE6"/>
<path fill-rule="evenodd" clip-rule="evenodd" d="M10.7489 27.9279H9.90116C10.2101 28.2768 10.5587 28.5916 10.935 28.8663V28.1164C10.935 28.0141 10.8518 27.9279 10.7489 27.9279Z" fill="#E3E2DC"/>
<path fill-rule="evenodd" clip-rule="evenodd" d="M13.2939 43.7927H13.0325V43.2995H13.1216C13.284 43.2995 13.4167 43.1411 13.4167 42.9446C13.4167 42.7501 13.284 42.5916 13.1216 42.5916H12.8186C12.4066 42.6658 12.0006 42.7581 11.6025 42.8684C11.5985 42.8944 11.5946 42.9205 11.5946 42.9466C11.5946 43.1411 11.7273 43.3015 11.8897 43.3015H11.9788V43.7947H11.7174C11.5371 43.7947 11.3886 43.9732 11.3886 44.1898V50.7486C11.3886 50.9652 11.5371 51.1437 11.7174 51.1437H13.2939C13.4742 51.1437 13.6227 50.9652 13.6227 50.7486V44.1898C13.6227 43.9712 13.4742 43.7927 13.2939 43.7927Z" fill="#B3CEEB"/>
<path fill-rule="evenodd" clip-rule="evenodd" d="M15.8429 44.5647H15.6092V44.1236H15.6885C15.833 44.1236 15.9519 43.9812 15.9519 43.8068C15.9519 43.6323 15.833 43.49 15.6885 43.49H15.3993V42.3691C15.3735 42.3691 15.3478 42.3691 15.3221 42.3691C15.1715 42.3691 15.023 42.3731 14.8725 42.3771V43.49H14.5833C14.4387 43.49 14.3199 43.6323 14.3199 43.8068C14.3199 43.9812 14.4387 44.1236 14.5833 44.1236H14.6625V44.5647H14.4288C14.2664 44.5647 14.1337 44.7231 14.1337 44.9176V50.7887C14.1337 50.9832 14.2664 51.1417 14.4288 51.1417H15.839C16.0014 51.1417 16.1341 50.9832 16.1341 50.7887V44.9176C16.1361 44.7231 16.0034 44.5647 15.8429 44.5647Z" fill="#DEDED7"/>
<path fill-rule="evenodd" clip-rule="evenodd" d="M20.1983 44.1978H16.3123C16.1301 44.1978 15.9816 44.3482 15.9816 44.5326V50.8068C15.9816 50.9913 16.1301 51.1417 16.3123 51.1417H20.1983C20.3805 51.1417 20.531 50.9913 20.531 50.8068V44.5326C20.531 44.3482 20.3805 44.1978 20.1983 44.1978Z" fill="#F9F9FA"/>
<path fill-rule="evenodd" clip-rule="evenodd" d="M19.4417 45.7538H17.0689C16.9461 45.7538 16.8471 45.856 16.8471 45.9804V47.2958C16.8471 47.4201 16.9481 47.5223 17.0689 47.5223H19.4417C19.5645 47.5223 19.6635 47.4201 19.6635 47.2958V45.9804C19.6635 45.854 19.5645 45.7538 19.4417 45.7538Z" fill="#F5F6F5"/>
<path fill-rule="evenodd" clip-rule="evenodd" d="M19.4773 47.9254H17.0353C16.9323 47.9254 16.8471 48.0116 16.8471 48.1159V48.2983C16.8471 48.4026 16.9303 48.4888 17.0353 48.4888H19.4773C19.5803 48.4888 19.6655 48.4026 19.6655 48.2983V48.1159C19.6635 48.0116 19.5803 47.9254 19.4773 47.9254Z" fill="#F5F6F5"/>
<path fill-rule="evenodd" clip-rule="evenodd" d="M19.4773 49.0142H17.0353C16.9323 49.0142 16.8471 49.0984 16.8471 49.2047V49.3872C16.8471 49.4914 16.9303 49.5777 17.0353 49.5777H19.4773C19.5803 49.5777 19.6655 49.4914 19.6655 49.3872V49.2047C19.6635 49.1004 19.5803 49.0142 19.4773 49.0142Z" fill="#F5F6F5"/>
<path fill-rule="evenodd" clip-rule="evenodd" d="M15.3933 46.8747H13.0067C12.8938 46.8747 12.8027 46.9669 12.8027 47.0812V50.9372C12.8027 51.0515 12.8938 51.1437 13.0067 51.1437H15.3953C15.5082 51.1437 15.5993 51.0515 15.5993 50.9372V47.0812C15.5974 46.9689 15.5062 46.8747 15.3933 46.8747Z" fill="#EAEAE6"/>
<path fill-rule="evenodd" clip-rule="evenodd" d="M2.13922 51.1377C2.16893 51.1417 2.19864 51.1437 2.22835 51.1437H10.327C10.7073 51.1437 11.0182 50.8289 11.0182 50.4439V43.0408C7.03921 44.3141 3.79302 47.3018 2.13922 51.1377Z" fill="#C1DBF2"/>
<path fill-rule="evenodd" clip-rule="evenodd" d="M11.8719 46.8747H9.48524C9.37235 46.8747 9.28124 46.9669 9.28124 47.0812V50.9372C9.28124 51.0515 9.37235 51.1437 9.48524 51.1437H11.8738C11.9867 51.1437 12.0778 51.0515 12.0778 50.9372V47.0812C12.0759 46.9689 11.9848 46.8747 11.8719 46.8747Z" fill="#C1DBF2"/>
<path fill-rule="evenodd" clip-rule="evenodd" d="M25.5657 63.8083H31.8184C32.058 63.8083 32.2541 64.0068 32.2541 64.2494V69.4167C32.2541 69.6594 32.058 69.8579 31.8184 69.8579H25.5657C25.326 69.8579 25.1299 69.6594 25.1299 69.4167V64.2494C25.1299 64.0068 25.326 63.8083 25.5657 63.8083Z" fill="#EAEAE6"/>
<path fill-rule="evenodd" clip-rule="evenodd" d="M31.5312 60.1028H35.221C35.3934 60.1028 35.536 60.2471 35.536 60.4216V69.539C35.536 69.7155 35.3934 69.8579 35.221 69.8579H31.5312C31.3569 69.8579 31.2163 69.7155 31.2163 69.539V60.4216C31.2163 60.2451 31.3569 60.1028 31.5312 60.1028Z" fill="#B8D3EE"/>
<path fill-rule="evenodd" clip-rule="evenodd" d="M8.40184 63.0884H8.64149V62.6332H8.56028C8.41174 62.6332 8.28894 62.4869 8.28894 62.3084C8.28894 62.1299 8.41174 61.9816 8.56028 61.9816H8.85737V60.0646C8.85737 59.8862 8.98017 59.7378 9.12871 59.7378C9.27726 59.7378 9.40006 59.8842 9.40006 60.0646V61.9816H9.69714C9.84569 61.9816 9.96849 62.1279 9.96849 62.3084C9.96849 62.4869 9.84569 62.6332 9.69714 62.6332H9.61594V63.0884H9.85559C10.022 63.0884 10.1586 63.2528 10.1586 63.4514V69.4929C10.1586 69.6934 10.022 69.8578 9.85559 69.8578H8.75042C8.53058 69.7436 8.31469 69.6212 8.10277 69.4949V69.4929V63.4514C8.09881 63.2528 8.23547 63.0884 8.40184 63.0884Z" fill="#DEDED7"/>
<path fill-rule="evenodd" clip-rule="evenodd" d="M6.05483 63.7982H6.26874V63.3912H6.19546C6.06276 63.3912 5.95184 63.2589 5.95184 63.0984C5.95184 62.938 6.06078 62.8057 6.19546 62.8057H6.46086V61.0893C6.46086 60.9289 6.56979 60.7985 6.70447 60.7985C6.83717 60.7985 6.94808 60.9289 6.94808 61.0893V62.8057H7.21348C7.34618 62.8057 7.45709 62.936 7.45709 63.0984C7.45709 63.2589 7.34816 63.3912 7.21348 63.3912H7.1402V63.7982H7.3541C7.50265 63.7982 7.62545 63.9446 7.62545 64.1231V69.2001C6.97383 68.7791 6.35985 68.3058 5.78349 67.7885V64.1251C5.78349 63.9446 5.90629 63.7982 6.05483 63.7982Z" fill="#DEDED7"/>
<path fill-rule="evenodd" clip-rule="evenodd" d="M2.48779 63.4614H5.62307C5.79142 63.4614 5.92808 63.5998 5.92808 63.7702V67.9209C4.51394 66.6797 3.33945 65.1638 2.48779 63.4614Z" fill="#F9F9FA"/>
<path fill-rule="evenodd" clip-rule="evenodd" d="M3.30974 64.8931H4.9259C5.0388 64.8931 5.13188 64.9873 5.13188 65.1016V66.3127C5.13188 66.427 5.0388 66.5213 4.9259 66.5213H4.53572C4.09207 66.0099 3.68011 65.4645 3.30974 64.8931Z" fill="#F5F6F5"/>
<path fill-rule="evenodd" clip-rule="evenodd" d="M11.1351 60.2471H18.592C18.9426 60.2471 19.2278 60.5379 19.2278 60.8908V69.2122C19.2278 69.5671 18.9406 69.8558 18.592 69.8558H11.1351C10.7845 69.8558 10.4993 69.5651 10.4993 69.2122V60.8908C10.4993 60.5379 10.7845 60.2471 11.1351 60.2471Z" fill="#EAEAE6"/>
<path fill-rule="evenodd" clip-rule="evenodd" d="M44.4744 63.8083H38.2217C37.982 63.8083 37.7859 64.0068 37.7859 64.2494V69.4167C37.7859 69.6594 37.982 69.8579 38.2217 69.8579H44.4744C44.714 69.8579 44.9101 69.6594 44.9101 69.4167V64.2494C44.9101 64.0068 44.714 63.8083 44.4744 63.8083Z" fill="#EAEAE6"/>
<path fill-rule="evenodd" clip-rule="evenodd" d="M16.9025 43.0629L18.5979 42.9064C18.7088 42.8964 18.8 42.9806 18.8 43.0929V43.6464C18.8 43.7586 18.7088 43.8589 18.5979 43.8709L16.9025 44.0253C16.7916 44.0354 16.7025 43.9511 16.7025 43.8389V43.2854C16.7005 43.1751 16.7916 43.0729 16.9025 43.0629Z" fill="white"/>
<path fill-rule="evenodd" clip-rule="evenodd" d="M22.5413 11.2389C22.5413 11.1567 22.4759 11.0905 22.3947 11.0905C22.3135 11.0905 22.2482 11.1567 22.2482 11.2389V11.5858H21.9055C21.8243 11.5858 21.759 11.652 21.759 11.7342C21.759 11.8164 21.8243 11.8826 21.9055 11.8826H22.2482V12.2295C22.2482 12.3117 22.3135 12.3779 22.3947 12.3779C22.4759 12.3779 22.5413 12.3117 22.5413 12.2295V11.8826H22.8839C22.9651 11.8826 23.0305 11.8164 23.0305 11.7342C23.0305 11.652 22.9651 11.5858 22.8839 11.5858H22.5413V11.2389Z" fill="white"/>
<path fill-rule="evenodd" clip-rule="evenodd" d="M61.2738 28.3349C61.2738 28.2527 61.2084 28.1866 61.1272 28.1866C61.046 28.1866 60.9806 28.2527 60.9806 28.3349V28.6818H60.638C60.5568 28.6818 60.4914 28.748 60.4914 28.8302C60.4914 28.9124 60.5568 28.9786 60.638 28.9786H60.9806V29.3255C60.9806 29.4077 61.046 29.4739 61.1272 29.4739C61.2084 29.4739 61.2738 29.4077 61.2738 29.3255V28.9786H61.6164C61.6976 28.9786 61.763 28.9124 61.763 28.8302C61.763 28.748 61.6976 28.6818 61.6164 28.6818H61.2738V28.3349Z" fill="white"/>
<path fill-rule="evenodd" clip-rule="evenodd" d="M57.1046 2.69092C57.1046 2.60871 57.0393 2.54254 56.9581 2.54254C56.8769 2.54254 56.8115 2.60871 56.8115 2.69092V3.03782H56.4689C56.3876 3.03782 56.3223 3.10399 56.3223 3.1862C56.3223 3.26841 56.3876 3.33458 56.4689 3.33458H56.8115V3.68147C56.8115 3.76369 56.8769 3.82986 56.9581 3.82986C57.0393 3.82986 57.1046 3.76369 57.1046 3.68147V3.33458H57.4473C57.5285 3.33458 57.5938 3.26841 57.5938 3.1862C57.5938 3.10399 57.5285 3.03782 57.4473 3.03782H57.1046V2.69092Z" fill="white"/>
<path fill-rule="evenodd" clip-rule="evenodd" d="M37.6532 5.61246C37.6532 5.53025 37.5879 5.46408 37.5067 5.46408C37.4255 5.46408 37.3601 5.53025 37.3601 5.61246V5.95936H37.0175C36.9363 5.95936 36.8709 6.02553 36.8709 6.10774C36.8709 6.18995 36.9363 6.25612 37.0175 6.25612H37.3601V6.60301C37.3601 6.68522 37.4255 6.75139 37.5067 6.75139C37.5879 6.75139 37.6532 6.68522 37.6532 6.60301V6.25612H37.9959C38.0771 6.25612 38.1424 6.18995 38.1424 6.10774C38.1424 6.02553 38.0771 5.95936 37.9959 5.95936H37.6532V5.61246Z" fill="white"/>
<path fill-rule="evenodd" clip-rule="evenodd" d="M82.6503 30.3922C82.6503 30.31 82.585 30.2439 82.5038 30.2439C82.4226 30.2439 82.3572 30.31 82.3572 30.3922V30.7391H82.0146C81.9333 30.7391 81.868 30.8053 81.868 30.8875C81.868 30.9697 81.9333 31.0359 82.0146 31.0359H82.3572V31.3828C82.3572 31.465 82.4226 31.5312 82.5038 31.5312C82.585 31.5312 82.6503 31.465 82.6503 31.3828V31.0359H82.993C83.0742 31.0359 83.1395 30.9697 83.1395 30.8875C83.1395 30.8053 83.0742 30.7391 82.993 30.7391H82.6503V30.3922Z" fill="white"/>
<path fill-rule="evenodd" clip-rule="evenodd" d="M28.5683 37.681C28.5683 37.5988 28.5029 37.5326 28.4217 37.5326C28.3405 37.5326 28.2751 37.5988 28.2751 37.681V38.0279H27.9325C27.8513 38.0279 27.7859 38.0941 27.7859 38.1763C27.7859 38.2585 27.8513 38.3247 27.9325 38.3247H28.2751V38.6716C28.2751 38.7538 28.3405 38.8199 28.4217 38.8199C28.5029 38.8199 28.5683 38.7538 28.5683 38.6716V38.3247H28.9109C28.9921 38.3247 29.0575 38.2585 29.0575 38.1763C29.0575 38.0941 28.9921 38.0279 28.9109 38.0279H28.5683V37.681Z" fill="white"/>
<path fill-rule="evenodd" clip-rule="evenodd" d="M43.4247 9.58668C43.4247 9.50446 43.3593 9.43829 43.2781 9.43829C43.1969 9.43829 43.1315 9.50446 43.1315 9.58668V9.93357H42.7889C42.7077 9.93357 42.6423 9.99974 42.6423 10.082C42.6423 10.1642 42.7077 10.2303 42.7889 10.2303H43.1315V10.5772C43.1315 10.6594 43.1969 10.7256 43.2781 10.7256C43.3593 10.7256 43.4247 10.6594 43.4247 10.5772V10.2303H43.7673C43.8485 10.2303 43.9139 10.1642 43.9139 10.082C43.9139 9.99974 43.8485 9.93357 43.7673 9.93357H43.4247V9.58668Z" fill="#719FD4"/>
<path fill-rule="evenodd" clip-rule="evenodd" d="M57.7463 24.5191C57.7463 24.4369 57.681 24.3707 57.5998 24.3707C57.5186 24.3707 57.4532 24.4369 57.4532 24.5191V24.866H57.1106C57.0294 24.866 56.964 24.9322 56.964 25.0144C56.964 25.0966 57.0294 25.1628 57.1106 25.1628H57.4532V25.5097C57.4532 25.5919 57.5186 25.658 57.5998 25.658C57.681 25.658 57.7463 25.5919 57.7463 25.5097V25.1628H58.089C58.1702 25.1628 58.2355 25.0966 58.2355 25.0144C58.2355 24.9322 58.1702 24.866 58.089 24.866H57.7463V24.5191Z" fill="#719FD4"/>
<path fill-rule="evenodd" clip-rule="evenodd" d="M28.3543 27.9078C28.3543 27.8256 28.289 27.7595 28.2078 27.7595C28.1266 27.7595 28.0612 27.8256 28.0612 27.9078V28.2547H27.7186C27.6374 28.2547 27.572 28.3209 27.572 28.4031C27.572 28.4853 27.6374 28.5515 27.7186 28.5515H28.0612V28.8984C28.0612 28.9806 28.1266 29.0468 28.2078 29.0468C28.289 29.0468 28.3543 28.9806 28.3543 28.8984V28.5515H28.697C28.7782 28.5515 28.8435 28.4853 28.8435 28.4031C28.8435 28.3209 28.7782 28.2547 28.697 28.2547H28.3543V27.9078Z" fill="#719FD4"/>
<path fill-rule="evenodd" clip-rule="evenodd" d="M34.106 47.6747C34.106 47.5925 34.0406 47.5264 33.9594 47.5264C33.8782 47.5264 33.8128 47.5925 33.8128 47.6747V48.0216H33.4702C33.389 48.0216 33.3236 48.0878 33.3236 48.17C33.3236 48.2522 33.389 48.3184 33.4702 48.3184H33.8128V48.6653C33.8128 48.7475 33.8782 48.8137 33.9594 48.8137C34.0406 48.8137 34.106 48.7475 34.106 48.6653V48.3184H34.4486C34.5298 48.3184 34.5952 48.2522 34.5952 48.17C34.5952 48.0878 34.5298 48.0216 34.4486 48.0216H34.106V47.6747Z" fill="#719FD4"/>
<path d="M67.3225 29.4238L64.7656 26.6847C64.7656 26.6847 62.0284 28.2126 58.8396 29.6724C57.9622 28.1224 56.5322 23.0233 56.455 22.7807C56.3778 22.536 58.1306 19.4741 57.7384 19.3979C57.3463 19.3217 56.8373 21.0342 56.4213 20.8597C56.0074 20.6853 54.9398 16.713 54.6903 16.9296C54.2229 17.3346 55.2508 19.4 55.0052 19.5503C54.7596 19.7007 54.1357 17.2604 53.6584 17.3647C53.1831 17.469 54.4605 19.5864 54.3199 19.789C54.1793 19.9935 52.8444 18.0064 52.5671 18.4655C52.4166 18.7162 53.799 20.194 53.5158 20.3604C53.2306 20.5269 51.9868 19.5945 51.8382 19.8952C51.6897 20.198 53.0009 20.5108 53.3653 21.2748C53.7297 22.0387 54.3912 22.3355 54.6111 23.7812C54.8309 25.2249 55.431 32.9448 56.9818 33.5664C58.3346 34.1118 67.3225 29.4238 67.3225 29.4238Z" fill="#F7A491"/>
<path d="M65.6707 44.1978L67.7444 45.3728L71.9591 51.9157L64.4229 69.928C64.4229 69.928 65.2726 72.637 65.5479 73.9905C65.8371 75.4061 66.5461 87.5594 66.5461 87.5594L63.3316 87.6136C63.3316 87.6136 60.2776 74.6762 59.7606 70.4754C59.1328 65.3763 62.9573 53.231 62.9573 53.231C63.6703 50.7527 65.2073 45.6555 65.2073 45.6555C65.2073 45.6555 65.5816 44.4143 65.6707 44.1978Z" fill="#355389"/>
<path d="M72.888 41.7394C72.888 41.7394 72.6741 43.2794 73.5317 45.0339C74.0545 46.1047 74.9577 46.9428 75.6034 48.2542C76.8274 50.7346 77.4909 54.2597 77.0314 56.5255C77.0314 56.5255 74.5022 66.3348 74.6012 69.92C74.6388 71.2414 75.0844 73.6235 75.3697 75.2337C75.6232 76.6573 75.7083 87.393 75.7083 87.393L72.1175 87.2827L69.3685 69.9621L68.2059 54.5665L65.6707 44.1958L72.888 41.7394Z" fill="#466EB6"/>
<path d="M64.9042 18.8565C65.2349 17.2665 65.5776 15.6703 67.1343 14.5254C68.394 13.599 69.7467 13.3343 71.1807 13.8617C75.2449 15.3575 73.0583 18.634 78.1029 22.125C79.6695 23.2098 80.2657 23.5887 81.3887 25.0324C82.9632 27.0557 83.8228 29.7706 83.0326 32.0044C81.3966 36.6263 76.3243 37.9617 73.6723 36.9812C68.7347 35.1565 64.621 28.7981 64.3476 27.0637C64.0565 25.2089 64.6923 19.8812 64.9042 18.8565Z" fill="#B75742"/>
<path d="M64.5279 31.1442C63.3831 31.6816 61.3114 32.4876 61.3114 32.4876L60.133 28.7019C66.7957 24.854 66.2728 25.4736 71.2738 25.5498C75.2687 25.6079 76.9442 24.8339 80.3845 34.2642C80.3845 34.2642 77.7662 35.4593 76.8274 35.8423C76.4234 34.6773 75.6945 32.3513 75.2706 33.6767C74.6289 35.6799 74.1576 37.7011 73.8426 39.7824C73.6426 41.0156 73.2069 42.5957 73.4366 43.8529C73.4366 43.8529 70.7153 44.4224 68.6376 44.5146C68.6317 44.5146 68.6258 44.5146 68.6198 44.5146C67.6157 44.4885 66.5877 44.3983 65.6707 44.1978C65.6707 44.1978 65.2627 35.4493 65.0448 35.0843C64.8032 34.6793 63.7852 33.3739 64.6527 31.4209C64.8052 31.074 64.7636 31.0339 64.5279 31.1442Z" fill="#F7CC7F"/>
<path d="M70.6479 21.6557C70.6479 21.6557 70.9668 24.2645 71.153 25.1708C71.349 26.1192 71.6441 29.1029 69.7091 29.5882C67.7741 30.0734 68.3722 26.3398 68.3405 25.3773C68.3088 24.4128 67.7602 21.0542 67.7602 21.0542L70.6479 21.6557Z" fill="#F7A491"/>
<path d="M70.7549 22.4879C70.7351 22.4999 70.7173 22.5119 70.6975 22.524C69.6279 23.1476 68.697 23.0493 67.9979 22.5641C67.8731 21.7299 67.7622 21.0522 67.7622 21.0522L70.6479 21.6557C70.6479 21.6557 70.6915 22.0046 70.7549 22.4879Z" fill="#F47458"/>
<path d="M70.0676 14.8623C70.0676 14.8623 71.2025 15.1851 71.8561 16.33C72.5097 17.473 72.8365 20.7574 70.4281 22.159C68.0217 23.5607 66.3124 21.3149 66.3857 19.2135C66.457 17.1141 67.0334 14.3349 70.0676 14.8623Z" fill="#F7A491"/>
<path d="M65.8529 18.3131C65.8252 18.8585 66.0569 19.3157 66.3659 19.3298C66.6768 19.3458 66.9502 18.9167 66.9759 18.3693C67.0016 17.8239 66.7719 17.3667 66.4629 17.3527C66.152 17.3366 65.8787 17.7677 65.8529 18.3131Z" fill="#F7A491"/>
<path d="M69.725 14.776C69.725 14.776 71.0223 18.2109 72.2938 18.5778C73.5634 18.9448 73.4623 20.6331 73.4623 20.6331C73.4623 20.6331 73.6248 16.7271 72.4641 15.7706C71.3055 14.8121 69.725 14.776 69.725 14.776Z" fill="#B75742"/>
<path d="M71.7491 19.2496C71.5531 19.787 71.6818 20.3324 72.0363 20.4667C72.3909 20.6031 72.8365 20.2762 73.0326 19.7408C73.2286 19.2035 73.0999 18.6581 72.7454 18.5237C72.3908 18.3874 71.9452 18.7122 71.7491 19.2496Z" fill="#F7A491"/>
<path d="M69.5309 46.3293C69.4833 46.3353 69.2714 46.3072 69.0971 46.3112C68.8575 46.3152 68.6475 46.3533 68.6475 46.3533C68.6475 46.3533 68.5525 46.2711 68.3722 46.1849C68.297 46.1508 68.1742 46.1368 68.091 46.0987C68.0058 46.0566 67.9325 45.9824 67.8513 45.9463C67.6394 45.8521 67.4433 45.83 67.3799 45.9443C67.3265 46.0385 68.5069 46.7724 68.5069 46.7724C69.6002 46.7784 70.745 47.3439 73.2781 45.6676C74.726 45.0259 81.7511 41.5008 81.8937 40.7329C81.9729 40.3018 80.8955 36.9652 80.0141 34.4326C79.3348 34.7414 77.889 35.3951 77.0829 35.738C77.8236 37.3341 78.699 39.4496 78.6059 39.7082C78.5822 39.7764 78.495 39.8967 73.7436 43.0569C73.6228 43.1351 73.502 43.2173 73.3772 43.3015C73.0425 43.5241 72.684 43.7607 72.3057 44.0113L70.951 43.8669C70.951 43.8669 68.806 44.0173 68.7406 44.266C68.7129 44.3783 68.8911 44.4364 69.109 44.4685H69.1149C69.1466 44.4725 69.1783 44.4765 69.212 44.4825C69.214 44.4825 69.216 44.4825 69.216 44.4825C69.4516 44.5106 69.7012 44.5146 69.7606 44.5367C69.8299 44.5607 69.9666 44.6149 70.0835 44.6971C68.7466 45.2525 68.8495 45.054 68.4059 45.0259C68.295 45.0179 68.1761 45.05 68.0712 45.042C67.8909 45.0259 67.7483 44.9176 67.6077 44.9096C67.4037 44.8996 67.2393 44.9938 67.2017 45.0339C67.1542 45.0821 67.2433 45.1523 67.4136 45.2305C68.4475 45.6856 69.3011 45.5112 69.5764 45.5793C69.7606 45.6255 69.4239 45.6957 68.8991 45.6375C68.7683 45.6255 68.596 45.6716 68.4237 45.6315C68.3088 45.6054 68.2039 45.5292 68.089 45.5011C67.984 45.4751 67.8771 45.4771 67.7879 45.459C67.6731 45.437 67.5107 45.3488 67.4196 45.3367C67.0769 45.2966 66.9086 45.3588 66.8709 45.3909C66.7917 45.463 68.3504 46.0706 68.3504 46.0706C68.3504 46.0706 69.4239 46.227 69.6636 46.227C69.6675 46.221 69.8101 46.2872 69.5309 46.3293Z" fill="#F7A491"/>
<path d="M70.3985 30.761L70.2623 32.5463L73.8858 32.8296L74.022 31.0443L70.3985 30.761Z" fill="white"/>
<path d="M65.9915 93.6692H30.0517L20.7687 53.1228H65.9915V93.6692Z" fill="#355389"/>
<path d="M92.0343 53.1228H65.9004V93.6692H92.0343V53.1228Z" fill="#466EB6"/>
<path d="M96.3778 51.655H15.6369V53.1228H96.3778V51.655Z" fill="#9BC1F9"/>
<path d="M39.8061 43.2233L40.1468 51.655H44.0545L40.9568 43.6805L39.8061 43.2233Z" fill="#184655"/>
<path d="M50.7231 34.9921H33.1394C32.9513 34.9921 32.7988 35.1465 32.7988 35.337V48.9901C32.7988 49.1806 32.9513 49.335 33.1394 49.335H50.7231C50.9113 49.335 51.0638 49.1806 51.0638 48.9901V35.337C51.0618 35.1445 50.9093 34.9921 50.7231 34.9921Z" fill="#184655"/>
<path d="M38.3147 34.4307H32.3096C32.2165 34.4307 32.1392 34.3545 32.1392 34.2582V31.5633C32.1392 31.469 32.2145 31.3908 32.3096 31.3908H38.3147C38.4078 31.3908 38.4851 31.467 38.4851 31.5633V34.2582C38.4851 34.3545 38.4098 34.4307 38.3147 34.4307Z" fill="#184655"/>
<path d="M35.6944 33.5063H35.1854V35.3992H35.6944V33.5063Z" fill="#184655"/>
<path d="M43.3989 33.5704L41.8699 34.0036C41.5589 34.0918 41.2361 33.9073 41.149 33.5925L40.2498 30.3361C40.1626 30.0213 40.3448 29.6945 40.6558 29.6062L42.1848 29.1731C42.4958 29.0849 42.8186 29.2694 42.9057 29.5842L43.8049 32.8406C43.8921 33.1554 43.7099 33.4822 43.3989 33.5704Z" fill="#F2C94C"/>
<path d="M19.9824 56.4032C19.9824 56.4032 19.8021 55.9601 19.7546 55.8097C19.6972 55.6312 19.5704 55.0858 19.5704 55.0858C19.5704 55.0858 19.2179 53.1649 19.3644 53.1508C19.511 53.1368 19.7586 53.4336 19.8239 53.5439C19.8873 53.6541 19.9744 53.7785 20.0378 53.8887C20.1012 53.999 20.2398 54.0451 20.3864 53.977C20.533 53.9088 20.3745 53.4115 20.2854 53.2511C20.0061 52.7498 18.9861 51.5547 18.8831 51.4224C18.7623 51.268 18.7762 47.8271 18.6851 46.6481C18.594 44.7131 18.5999 42.72 18.592 42.5155L20.6577 34.4728L17.9463 32.5839C17.9463 32.5839 15.5241 41.4788 15.4547 41.936C15.4211 42.1545 15.9855 46.622 15.9875 46.622C16.4054 48.8057 16.7817 50.7266 16.8431 51.0996C16.8431 51.0996 16.7223 52.2585 16.6015 52.9924C16.4807 53.7263 16.6688 54.4482 16.6669 54.6607C16.6669 54.6928 16.6193 55.4187 16.8986 56.2689C17.1402 57.0028 17.2551 56.1947 17.2551 56.1947C17.2551 56.1947 17.059 54.753 17.1778 54.757C17.269 54.759 17.3284 55.553 17.5878 56.3671C17.6532 56.5757 17.7205 56.7822 17.7819 56.9727C17.9463 57.47 18.3048 57.5081 18.2196 56.9607C18.1899 56.7682 18.1305 56.4473 18.0553 56.2268C17.974 55.9882 17.98 55.7415 17.9424 55.529C17.8691 55.1079 17.8116 54.8031 17.8314 54.8091C17.8572 54.8171 17.9027 54.7229 17.98 54.9435C18.0731 55.2081 18.1444 55.8137 18.3107 56.1927C18.4058 56.4072 18.5761 56.8684 18.5761 56.8684C18.5761 56.8684 18.9366 57.5843 18.9841 57.5742C19.2377 57.5181 19.1287 56.9326 18.9604 56.6579C18.9445 56.4273 18.7524 55.948 18.7524 55.948C18.7524 55.948 18.5841 54.8893 18.7366 54.8613C18.8614 54.8392 19.7665 57.2895 20.016 57.2173C20.222 57.1511 19.9824 56.4032 19.9824 56.4032Z" fill="#F7A491"/>
<path d="M20.0537 39.0265C20.0537 39.0265 18.5861 39.0365 17.78 38.8941C16.7065 38.7037 15.9836 38.4991 15.9836 38.4991C15.9836 38.4991 16.2371 33.6627 17.1006 30.6008C17.4571 29.3355 17.9305 28.6718 18.7108 28.3951C18.7148 28.3931 20.6063 29.1872 21.0222 31.83C21.1192 32.4516 20.0537 39.0265 20.0537 39.0265Z" fill="#B75742"/>
<path d="M24.001 54.4442L25.8766 71.3637C25.8766 71.3637 24.9596 74.9409 25.0705 75.9576C25.1814 76.9742 27.1086 90.3085 27.1086 90.3085L27.0273 91.0564L27.0254 93.2641H34.1793C34.1793 93.2641 32.6601 92.5763 30.537 91.2209C30.3805 91.1206 30.018 90.7998 29.9289 90.1621C29.3625 86.0515 30.4835 72.3443 30.4835 72.3443L31.3668 54.5003L24.001 54.4442Z" fill="#F7A491"/>
<path d="M18.2494 58.0033C17.8453 58.1056 17.2234 72.653 16.8887 73.2987C14.7675 77.3872 14.2624 89.8132 14.2624 89.8132L13.6306 91.6219L13.2068 93.5609C13.2068 93.5609 14.9913 94.0982 16.1024 93.4787L16.0925 91.5617L15.9796 89.6047L21.3312 74.1228L24.2605 58.3302L18.2494 58.0033Z" fill="#F7A491"/>
<path d="M28.8951 29.8248C28.0315 28.6337 24.4684 25.1828 24.0743 25.1889C22.9216 25.2089 19.1347 25.2109 18.394 25.5899L18.4296 32.1608C18.5504 32.7122 21.1648 41.3023 21.0123 43.1832L21.0301 43.2012C23.2207 45.3367 26.6768 45.1703 28.6811 42.8303C28.6811 42.8303 28.6732 40.2236 28.9802 37.8474C29.4635 34.1218 31.04 32.7844 28.8951 29.8248Z" fill="#F47458"/>
<path d="M32.0362 65.4505L32.2898 55.4126C32.3333 52.5753 31.7609 49.7641 30.6142 47.1815L28.6791 42.8282C27.8968 43.0789 27.16 43.2934 26.3361 43.3857C24.5476 43.5882 22.7889 43.3877 21.0103 43.1812C21.0043 43.2493 20.9964 43.3095 20.9865 43.3576C20.6637 44.8354 18.8653 48.1319 18.1087 52.6355C17.2491 57.7487 17.0253 64.8369 17.1323 65.4364C22.1115 66.6155 27.2135 66.6556 32.0362 65.4505Z" fill="#184655"/>
<path d="M22.9136 21.4893C22.9136 21.4893 23.0127 23.9136 22.7988 24.8319C22.5829 25.7503 22.2957 25.8205 24.1476 26.0992C24.8744 26.2095 25.5756 26.3739 25.5756 26.3739C25.5756 26.3739 25.3854 25.0244 25.3577 24.455C25.3102 23.5165 25.5716 20.6191 25.5716 20.6191L22.9136 21.4893Z" fill="#F7A491"/>
<path d="M24.3219 22.6964C24.7021 22.905 25.0586 23.0273 25.3874 23.0774C25.4508 21.9325 25.5696 20.6191 25.5696 20.6191L23.0365 21.4492C23.3296 21.9445 23.7475 22.3816 24.3219 22.6964Z" fill="#F47458"/>
<path d="M23.9336 52.0841V55.2422C23.9336 56.8844 25.2904 58.2158 26.9659 58.2158H30.0854V50.8529H25.1893C24.8546 50.8529 24.5496 50.9812 24.3258 51.1918C24.0842 51.4144 23.9336 51.7312 23.9336 52.0841Z" fill="#B75742"/>
<path d="M23.9475 52.2004L24.8745 52.1824L24.3516 27.4788C25.3221 27.6552 26.1341 28.361 26.4114 29.3135L32.8562 51.6209L33.7475 51.3723L27.3027 29.0648C26.8709 27.569 25.4627 26.5263 23.8782 26.5263H23.4049L23.9475 52.2004Z" fill="#B75742"/>
<path d="M28.9604 33.0692L31.3965 38.5773C32.9434 37.0695 37.1838 34.156 38.2058 33.3619C39.5586 31.8881 40.1329 31.6214 40.6558 31.4971C40.937 31.4289 42.1274 31.2124 42.1274 31.2124C42.1274 31.2124 43.5118 31.5893 43.4881 31.6876C43.4049 32.0184 42.1096 31.6355 42.1096 31.6355C42.1096 31.6355 41.347 31.842 41.2401 31.8861C40.9747 31.9984 41.1351 32.0205 41.1351 32.0205C41.3728 31.9583 42.4601 31.86 42.4601 31.86C42.4601 31.86 44.207 31.9904 44.1496 32.0766C44.1159 32.1287 43.8208 32.233 43.2583 32.2791C42.9157 32.3072 42.3492 32.2671 42.0442 32.3132C41.5075 32.3974 41.2163 32.606 41.4124 32.5999C41.555 32.5959 41.7233 32.4636 42.0462 32.4135C42.8305 32.2891 44.005 32.3613 43.9297 32.4937C43.8624 32.61 43.0028 32.6902 42.2878 32.8706C41.9769 32.9488 41.4797 33.3158 41.1688 33.5464C41.3094 33.5945 41.4619 33.6105 41.5372 33.6146C41.6758 33.6226 42.6186 33.3559 42.6265 33.6005C42.6364 33.8472 40.5489 34.5409 40.5489 34.5409L39.4239 34.7254L39.3704 34.7595V34.7615C39.3704 34.7615 33.2266 42.9085 30.226 42.5095C27.6671 42.1686 24.9913 33.7389 25.0388 33.7629L28.9604 33.0692Z" fill="#F8A492"/>
<path d="M22.5017 28.4011C21.9669 30.6269 24.823 35.5916 24.823 35.5916C24.823 35.5916 28.8931 33.6526 29.6081 32.8185C29.6081 32.8185 26.8432 28.0021 26.6609 27.7073C25.841 26.3819 24.7259 26.3799 24.001 26.4661C23.4187 26.5363 22.5017 28.4011 22.5017 28.4011Z" fill="#B75742"/>
<path d="M22.4363 29.0829C24.3199 27.4226 25.0309 23.7632 23.801 21.5836C24.6546 20.4627 25.2012 20.6632 25.0111 19.2676C24.6348 16.5165 28.4276 14.8603 25.5954 14.1284C22.7314 13.5489 20.3508 15.3235 19.0416 17.088C18.4514 17.882 17.7166 18.5698 16.8451 19.0531C15.1161 20.0095 14.203 22.3074 15.122 24.7016C13.7376 25.4856 12.5274 27.7535 13.4444 29.6363C13.6643 30.0875 14.1099 30.6168 14.1218 30.7472C14.0961 30.5867 12.8324 34.7876 17.5522 36.2172C22.367 37.679 23.3593 33.011 22.4363 29.0829Z" fill="#184655"/>
<path d="M25.2171 19.1653C25.2171 19.7709 24.9933 20.2602 24.718 20.2602C24.4427 20.2602 24.2189 19.7689 24.2189 19.1653C24.2189 18.5598 24.4427 18.0705 24.718 18.0705C24.9933 18.0705 25.2171 18.5598 25.2171 19.1653Z" fill="#F7A491"/>
<path d="M24.3258 51.1898H24.3456C24.9893 51.1898 25.5102 51.7011 25.5102 52.3327V54.6567C25.5102 56.6217 27.1343 58.2159 29.1387 58.2159H31.038C33.0424 58.2159 34.6665 56.6217 34.6665 54.6567V52.3447C34.6665 51.5206 33.9852 50.8509 33.1434 50.8509H25.1894C24.8546 50.8529 24.5496 50.9812 24.3258 51.1898Z" fill="#F47458"/>
<path d="M21.0578 17.0175C20.4993 19.3395 23.5177 21.0238 25.9083 21.086C27.4611 21.1261 28.1741 20.9657 28.4256 19.3134C28.8336 16.6345 27.7384 15.0003 26.2074 14.3246C24.2307 13.4523 21.5193 15.1026 21.0578 17.0175Z" fill="#184655"/>
<path d="M24.5674 15.4558C24.5674 15.4558 23.5177 15.8127 22.9572 16.8835C22.3967 17.9542 22.676 21.3831 25.0051 22.514C27.3343 23.6449 28.4058 21.0763 28.2375 19.1814C28.0671 17.2885 27.3937 14.8081 24.5674 15.4558Z" fill="#F7A491"/>
<path d="M22.1293 19.4802C21.7847 17.7076 21.9194 16.3641 23.1672 15.7165C24.4149 15.0688 25.4805 14.4251 26.5956 15.5901L26.8471 15.7345C26.8471 15.7345 24.7417 16.322 24.6229 17.4509C24.506 18.5798 23.385 19.9213 23.5573 20.4767C23.7297 21.0321 23.9277 22.137 23.9277 22.137L23.4662 21.754C23.4702 21.754 22.474 21.2507 22.1293 19.4802Z" fill="#184655"/>
<path d="M24.3001 18.8004C24.4744 19.2897 24.3417 19.7809 24.007 19.8972C23.6703 20.0135 23.2563 19.7108 23.084 19.2215C22.9097 18.7322 23.0424 18.241 23.3771 18.1247C23.7118 18.0104 24.1258 18.3111 24.3001 18.8004Z" fill="#F7A491"/>
<path fill-rule="evenodd" clip-rule="evenodd" d="M39.0079 3.50702H48.6257C49.4278 3.50702 50.0854 4.17273 50.0854 4.98482V11.0765V11.5277V15.4057C50.0854 15.4738 50.0478 15.532 49.9844 15.558C49.923 15.5841 49.8556 15.5701 49.8061 15.522L47.3205 13.0055H39.0079C38.2058 13.0055 37.5482 12.3398 37.5482 11.5277V4.98482C37.5482 4.17273 38.2058 3.50702 39.0079 3.50702Z" fill="white"/>
<path d="M45.1715 10.3206C44.8982 10.5933 44.5318 10.7657 44.0703 10.8359V11.3051C44.0703 11.4194 44.0367 11.5116 43.9673 11.5838C43.898 11.656 43.8069 11.6921 43.694 11.6921C43.5811 11.6921 43.49 11.656 43.4207 11.5838C43.3514 11.5116 43.3177 11.4194 43.3177 11.3051V10.8499C43.0384 10.8259 42.7651 10.7657 42.4997 10.6715C42.2343 10.5772 42.0066 10.4529 41.8144 10.2985C41.7511 10.2544 41.7055 10.2043 41.6817 10.1501C41.658 10.096 41.6441 10.0278 41.6441 9.94962C41.6441 9.84535 41.6738 9.75311 41.7352 9.67291C41.7966 9.5927 41.8659 9.5546 41.9452 9.5546C41.9947 9.5546 42.0402 9.56262 42.0818 9.58067C42.1234 9.59871 42.1789 9.62679 42.2482 9.66689C42.474 9.81527 42.6958 9.92556 42.9156 9.99574C43.1335 10.0659 43.3633 10.1 43.6049 10.1C43.9337 10.1 44.1872 10.0358 44.3674 9.9055C44.5457 9.77717 44.6368 9.59069 44.6368 9.34606C44.6368 9.20169 44.5873 9.08539 44.4902 8.99516C44.3912 8.90493 44.2684 8.83475 44.1218 8.78261C43.9753 8.73048 43.7693 8.67032 43.5039 8.60014C43.1355 8.5059 42.8364 8.40965 42.6047 8.31341C42.373 8.21716 42.1749 8.06878 42.0085 7.87027C41.8422 7.67175 41.759 7.40306 41.759 7.06419C41.759 6.66115 41.9016 6.31827 42.1868 6.03554C42.472 5.75281 42.8443 5.57636 43.3058 5.50618V5.03296C43.3058 4.91867 43.3395 4.82442 43.4088 4.75424C43.4781 4.68206 43.5692 4.64597 43.6821 4.64597C43.795 4.64597 43.8861 4.68206 43.9555 4.75424C44.0248 4.82643 44.0584 4.91867 44.0584 5.03296V5.49615C44.5536 5.56032 44.9814 5.74279 45.3399 6.03955C45.4587 6.12979 45.5162 6.24608 45.5162 6.39046C45.5162 6.49472 45.4845 6.58696 45.4251 6.66717C45.3637 6.74738 45.2904 6.78748 45.2072 6.78748C45.1636 6.78748 45.12 6.77946 45.0785 6.76542C45.0369 6.75139 44.9814 6.72131 44.9121 6.67519C44.7101 6.53082 44.5199 6.42254 44.3417 6.35035C44.1614 6.27817 43.9495 6.24207 43.7039 6.24207C43.3989 6.24207 43.1573 6.31025 42.9751 6.4466C42.7928 6.58295 42.7017 6.77144 42.7017 7.01005C42.7017 7.17447 42.7532 7.30682 42.8562 7.40908C42.9592 7.51134 43.0899 7.58954 43.2464 7.64368C43.4029 7.69782 43.6168 7.75998 43.8881 7.83016C44.2466 7.92039 44.5377 8.01263 44.7655 8.10687C44.9913 8.20112 45.1834 8.34348 45.3439 8.53598C45.5043 8.72647 45.5835 8.98714 45.5835 9.31599C45.5795 9.711 45.4429 10.0459 45.1715 10.3206Z" fill="#F2C94C"/>
</svg>
