<svg width="88" height="65" viewBox="0 0 88 65" fill="none" xmlns="http://www.w3.org/2000/svg">
<path fill-rule="evenodd" clip-rule="evenodd" d="M14.1445 70C6.36588 70 0 63.5848 0 55.7459C0 47.9051 6.36588 41.4918 14.1445 41.4918C17.4336 41.4918 20.1245 38.78 20.1245 35.4654C20.1245 32.1508 17.4336 29.439 14.1445 29.439H13.4332C10.0136 29.439 7.21545 26.6192 7.21545 23.173C7.21545 19.7268 10.0136 16.907 13.4332 16.907H15.6156C16.9465 16.907 18.0357 15.8093 18.0357 14.4681C18.0357 13.127 16.9465 12.0293 15.6156 12.0293H14.012C13.0922 12.0293 12.3421 11.2713 12.3421 10.3464C12.3421 9.4196 13.0942 8.6636 14.012 8.6636H24.7971C26.241 8.6636 27.4218 7.47363 27.4218 6.01857C27.4218 4.56351 26.241 3.37354 24.7971 3.37354H21.5723C20.6526 3.37354 19.9024 2.61557 19.9024 1.6907C19.9024 0.763858 20.6545 0.00785458 21.5723 0.00785458H67.439C68.6374 0.00785458 69.6194 0.997531 69.6194 2.20517C69.6194 3.41281 68.6374 4.40249 67.439 4.40249H64.1323C62.2481 4.40249 60.7068 5.95573 60.7068 7.85458C60.7068 9.75342 62.2481 11.3067 64.1323 11.3067H78.2943C79.4927 11.3067 80.4747 12.2963 80.4747 13.504C80.4747 14.7116 79.4946 15.7013 78.2943 15.7013H76.2016C74.4635 15.7013 73.043 17.1348 73.043 18.8844C73.043 20.6359 74.4654 22.0674 76.2016 22.0674H79.0504C83.5125 22.0674 87.1641 25.7473 87.1641 30.2441C87.1641 34.7408 83.5125 38.4207 79.0504 38.4207H78.1209C73.8283 38.4207 70.317 41.9592 70.317 46.2851C70.317 50.611 73.8283 54.1495 78.1209 54.1495H80.1318C84.4595 54.1495 88 57.7174 88 62.0787C88 66.4399 84.4595 70.0079 80.1318 70.0079C57.7411 70 36.5351 70 14.1445 70ZM73.0157 4.39464C74.2199 4.39464 75.1961 3.41085 75.1961 2.19732C75.1961 0.983786 74.2199 0 73.0157 0C71.8115 0 70.8353 0.983786 70.8353 2.19732C70.8353 3.41085 71.8115 4.39464 73.0157 4.39464ZM9.32377 12.0254C10.2474 12.0254 10.9937 11.2713 10.9937 10.3425C10.9937 9.41175 10.2454 8.65967 9.32377 8.65967C8.40016 8.65967 7.65387 9.41371 7.65387 10.3425C7.65192 11.2713 8.40016 12.0254 9.32377 12.0254Z" fill="#CDE5FB"/>
<path fill-rule="evenodd" clip-rule="evenodd" d="M44.3059 13.8358H17.9539C18.0065 14.0361 18.0357 14.2482 18.0357 14.4662C18.0357 15.8073 16.9465 16.905 15.6156 16.905H13.4332C10.0136 16.905 7.21545 19.7248 7.21545 23.171C7.21545 23.1887 7.21545 23.2083 7.21545 23.226H44.3059C46.8683 23.226 48.9649 21.1131 48.9649 18.5309C48.9649 15.9487 46.8683 13.8358 44.3059 13.8358Z" fill="#DCE9F7"/>
<path fill-rule="evenodd" clip-rule="evenodd" d="M7.78637 20.5555H48.9649V70H14.1445C6.36588 70 0 63.5848 0 55.7459C0 47.9051 6.36588 41.4918 14.1445 41.4918C17.4336 41.4918 20.1245 38.78 20.1245 35.4654C20.1245 32.1508 17.4336 29.439 14.1445 29.439H13.4332C10.0136 29.439 7.21545 26.6192 7.21545 23.173C7.21545 22.2383 7.42004 21.3527 7.78637 20.5555Z" fill="#CDE0F3"/>
<path fill-rule="evenodd" clip-rule="evenodd" d="M7.37133 24.5613H45.6114C46.7065 24.5613 47.6029 25.6315 47.6029 26.9412V70H14.1445C6.36588 70 0 63.5848 0 55.7459C0 47.9051 6.36588 41.4918 14.1445 41.4918C17.4336 41.4918 20.1245 38.78 20.1245 35.4654C20.1245 32.1508 17.4336 29.439 14.1445 29.439H13.4332C10.487 29.437 8.00266 27.3438 7.37133 24.5613Z" fill="#C1DBF2"/>
<path fill-rule="evenodd" clip-rule="evenodd" d="M19.7894 33.4801H47.6009V37.5311H19.7602C19.9959 36.8851 20.1245 36.19 20.1245 35.4654C20.1245 34.7702 20.0076 34.1026 19.7894 33.4801Z" fill="#CDE0F3"/>
<path fill-rule="evenodd" clip-rule="evenodd" d="M49.5533 31.7561H18.8521C19.6491 32.7811 20.1265 34.0692 20.1265 35.4634C20.1265 35.5793 20.1226 35.6932 20.1167 35.8071H49.5553C50.2782 35.8071 50.8667 35.2121 50.8667 34.4855V33.0796C50.8647 32.3511 50.2763 31.7561 49.5533 31.7561Z" fill="#DCE9F7"/>
<path fill-rule="evenodd" clip-rule="evenodd" d="M0.553386 51.8069H47.6029V55.8579H0.00194854C0.00194854 55.8205 0 55.7832 0 55.7459C0 54.3812 0.192906 53.0597 0.553386 51.8069Z" fill="#CDE0F3"/>
<path fill-rule="evenodd" clip-rule="evenodd" d="M49.5533 50.0847H1.17108C0.623535 51.3513 0.253312 52.7121 0.0915833 54.1357H49.5533C50.2763 54.1357 50.8647 53.5407 50.8647 52.8142V51.4082C50.8647 50.6797 50.2763 50.0847 49.5533 50.0847Z" fill="#DCE9F7"/>
<path fill-rule="evenodd" clip-rule="evenodd" d="M49.5533 18.5309H9.26532C8.14491 19.5559 7.39277 20.9835 7.24274 22.5819H49.5533C50.2762 22.5819 50.8647 21.9869 50.8647 21.2604V19.8544C50.8647 19.1259 50.2762 18.5309 49.5533 18.5309Z" fill="#DCE9F7"/>
<path fill-rule="evenodd" clip-rule="evenodd" d="M10.8865 17.5137H45.2977C46.2291 17.5137 46.991 16.6497 46.991 15.5953C46.991 15.1868 46.876 14.8059 46.6812 14.4937C48.0276 15.2006 48.9668 16.7479 48.9668 18.5309H9.26529C9.74463 18.1166 10.2902 17.771 10.8865 17.5137Z" fill="#CDE0F3"/>
<path fill-rule="evenodd" clip-rule="evenodd" d="M45.9602 39.8522H40.2101C39.9392 39.8522 39.7191 40.0741 39.7191 40.347V49.5899C39.7191 49.8628 39.9392 50.0847 40.2101 50.0847H45.9602C46.2311 50.0847 46.4513 49.8628 46.4513 49.5899V40.347C46.4513 40.0741 46.2311 39.8522 45.9602 39.8522Z" fill="#EAEAE6"/>
<path fill-rule="evenodd" clip-rule="evenodd" d="M38.9435 39.8522H36.0227C35.8863 39.8522 35.7733 39.9641 35.7733 40.1035V49.8334C35.7733 49.9708 35.8863 50.0847 36.0227 50.0847H38.9435C39.0799 50.0847 39.1929 49.9708 39.1929 49.8334V40.1035C39.1929 39.9641 39.0799 39.8522 38.9435 39.8522Z" fill="#E7E9E3"/>
<path fill-rule="evenodd" clip-rule="evenodd" d="M36.4825 37.9239H33.0823C32.9225 37.9239 32.792 38.0555 32.792 38.2165V49.7922C32.792 49.9532 32.9225 50.0847 33.0823 50.0847H36.4825C36.6423 50.0847 36.7729 49.9532 36.7729 49.7922V38.2165C36.7729 38.0555 36.6423 37.9239 36.4825 37.9239Z" fill="#B3CEEB"/>
<path fill-rule="evenodd" clip-rule="evenodd" d="M37.7276 45.3465H31.8392C31.6501 45.3465 31.4962 45.5016 31.4962 45.6921V49.7391C31.4962 49.9296 31.6501 50.0847 31.8392 50.0847H37.7276C37.9167 50.0847 38.0706 49.9296 38.0706 49.7391V45.6921C38.0706 45.5016 37.9167 45.3465 37.7276 45.3465Z" fill="#B8D3EE"/>
<path fill-rule="evenodd" clip-rule="evenodd" d="M30.4927 41.4035H27.5719C27.4355 41.4035 27.3224 41.5174 27.3224 41.6548V49.8334C27.3224 49.9709 27.4355 50.0847 27.5719 50.0847H30.4927C30.6291 50.0847 30.7421 49.9709 30.7421 49.8334V41.6548C30.7421 41.5174 30.6291 41.4035 30.4927 41.4035Z" fill="#B8D3EE"/>
<path fill-rule="evenodd" clip-rule="evenodd" d="M44.8398 42.1457H41.3286C41.1474 42.1457 40.9993 42.295 40.9993 42.4776V44.4157C40.9993 44.5983 41.1474 44.7476 41.3286 44.7476H44.8398C45.0211 44.7476 45.1691 44.5983 45.1691 44.4157V42.4776C45.1691 42.295 45.0211 42.1457 44.8398 42.1457Z" fill="#E3E2DC"/>
<path fill-rule="evenodd" clip-rule="evenodd" d="M44.8924 45.3445H41.2779C41.1259 45.3445 40.9993 45.4702 40.9993 45.6233V45.8924C40.9993 46.0455 41.124 46.1732 41.2779 46.1732H44.8924C45.0464 46.1732 45.1711 46.0475 45.1711 45.8924V45.6233C45.1691 45.4702 45.0444 45.3445 44.8924 45.3445Z" fill="#E3E2DC"/>
<path fill-rule="evenodd" clip-rule="evenodd" d="M44.8924 46.9488H41.2779C41.1259 46.9488 40.9993 47.0745 40.9993 47.2276V47.4966C40.9993 47.6498 41.124 47.7774 41.2779 47.7774H44.8924C45.0464 47.7774 45.1711 47.6518 45.1711 47.4966V47.2276C45.1691 47.0745 45.0444 46.9488 44.8924 46.9488Z" fill="#E3E2DC"/>
<path fill-rule="evenodd" clip-rule="evenodd" d="M29.0313 44.885C28.6338 44.885 28.3123 45.2699 28.3123 45.7451C28.3123 46.2203 28.6338 46.6052 29.0313 46.6052C29.4288 46.6052 29.7503 46.2203 29.7503 45.7451C29.7503 45.2699 29.4288 44.885 29.0313 44.885Z" fill="#B3CEEB"/>
<path fill-rule="evenodd" clip-rule="evenodd" d="M30.5784 30.195H29.0333C28.9241 30.195 28.8345 30.2853 28.8345 30.3953V31.5597C28.8345 31.6697 28.9241 31.758 29.0333 31.758H30.5784C30.6876 31.758 30.7753 31.6677 30.7753 31.5597V30.3953C30.7753 30.2853 30.6876 30.195 30.5784 30.195Z" fill="#DCE9F7"/>
<path fill-rule="evenodd" clip-rule="evenodd" d="M28.1019 27.6717H23.8579C23.6962 27.6717 23.5618 27.8052 23.5618 27.9702V31.4596C23.5618 31.6225 23.6943 31.758 23.8579 31.758H28.1019C28.2636 31.758 28.398 31.6245 28.398 31.4596V27.9702C28.3961 27.8052 28.2636 27.6717 28.1019 27.6717Z" fill="#B8D3EE"/>
<path fill-rule="evenodd" clip-rule="evenodd" d="M26.0637 28.9736H23.174C23.0629 28.9736 22.9733 29.0639 22.9733 29.1758V31.5538C22.9733 31.6657 23.0629 31.7561 23.174 31.7561H26.0637C26.1747 31.7561 26.2644 31.6657 26.2644 31.5538V29.1758C26.2644 29.0659 26.1747 28.9736 26.0637 28.9736Z" fill="#B3CEEB"/>
<path fill-rule="evenodd" clip-rule="evenodd" d="M24.0528 25.1661H21.5489C21.432 25.1661 21.3346 25.2623 21.3346 25.3821V31.542C21.3346 31.6599 21.43 31.758 21.5489 31.758H24.0528C24.1697 31.758 24.2671 31.6618 24.2671 31.542V25.3821C24.2671 25.2643 24.1697 25.1661 24.0528 25.1661Z" fill="#DCE9F7"/>
<path fill-rule="evenodd" clip-rule="evenodd" d="M39.7483 27.1847H39.5865V26.8784H39.6411C39.7424 26.8784 39.8243 26.7802 39.8243 26.6584C39.8243 26.5367 39.7424 26.4385 39.6411 26.4385H39.4404V25.1425C39.4404 25.0208 39.3566 24.9226 39.2572 24.9226C39.1559 24.9226 39.0741 25.0208 39.0741 25.1425V26.4385H38.8734C38.7721 26.4385 38.6883 26.5367 38.6883 26.6584C38.6883 26.7802 38.7721 26.8784 38.8734 26.8784H38.9299V27.1847H38.7662C38.6532 27.1847 38.5616 27.2947 38.5616 27.4302V31.5106C38.5616 31.6461 38.6532 31.7561 38.7662 31.7561H39.7502C39.8632 31.7561 39.9568 31.6461 39.9568 31.5106V27.4302C39.9529 27.2947 39.8613 27.1847 39.7483 27.1847Z" fill="#B3CEEB"/>
<path fill-rule="evenodd" clip-rule="evenodd" d="M41.3402 27.6638H41.1941V27.3889H41.2448C41.3344 27.3889 41.4104 27.3005 41.4104 27.1925C41.4104 27.0845 41.3363 26.9962 41.2448 26.9962H41.0655V25.8376C41.0655 25.7296 40.9914 25.6413 40.8999 25.6413C40.8083 25.6413 40.7342 25.7296 40.7342 25.8376V26.9962H40.555C40.4634 26.9962 40.3893 27.0845 40.3893 27.1925C40.3893 27.3005 40.4634 27.3889 40.555 27.3889H40.6037V27.6638H40.4575C40.3562 27.6638 40.2724 27.762 40.2724 27.8837V31.5361C40.2724 31.6579 40.3562 31.7561 40.4575 31.7561H41.3383C41.4396 31.7561 41.5215 31.6579 41.5215 31.5361V27.8837C41.5234 27.764 41.4416 27.6638 41.3402 27.6638Z" fill="#B3CEEB"/>
<path fill-rule="evenodd" clip-rule="evenodd" d="M44.0623 27.436H41.6345C41.5195 27.436 41.426 27.5303 41.426 27.6461V31.5499C41.426 31.6657 41.5195 31.758 41.6345 31.758H44.0623C44.1773 31.758 44.2689 31.6638 44.2689 31.5499V27.6461C44.2689 27.5303 44.1773 27.436 44.0623 27.436Z" fill="#DCE9F7"/>
<path fill-rule="evenodd" clip-rule="evenodd" d="M43.5889 28.4041H42.106C42.03 28.4041 41.9657 28.467 41.9657 28.5435V29.3624C41.9657 29.439 42.0281 29.5038 42.106 29.5038H43.5889C43.6649 29.5038 43.7292 29.4409 43.7292 29.3624V28.5435C43.7292 28.467 43.6668 28.4041 43.5889 28.4041Z" fill="#F5F6F5"/>
<path fill-rule="evenodd" clip-rule="evenodd" d="M43.6122 29.7551H42.0865C42.0222 29.7551 41.9696 29.8081 41.9696 29.8729V29.9868C41.9696 30.0516 42.0222 30.1046 42.0865 30.1046H43.6122C43.6765 30.1046 43.7291 30.0516 43.7291 29.9868V29.8729C43.7291 29.8081 43.6765 29.7551 43.6122 29.7551Z" fill="#F5F6F5"/>
<path fill-rule="evenodd" clip-rule="evenodd" d="M43.6122 30.4326H42.0865C42.0222 30.4326 41.9696 30.4856 41.9696 30.5504V30.6643C41.9696 30.7291 42.0222 30.7821 42.0865 30.7821H43.6122C43.6765 30.7821 43.7291 30.7291 43.7291 30.6643V30.5504C43.7291 30.4856 43.6765 30.4326 43.6122 30.4326Z" fill="#F5F6F5"/>
<path fill-rule="evenodd" clip-rule="evenodd" d="M41.0597 29.1012H39.5671C39.4969 29.1012 39.4404 29.1582 39.4404 29.2289V31.6265C39.4404 31.6972 39.4969 31.7541 39.5671 31.7541H41.0597C41.1298 31.7541 41.1863 31.6972 41.1863 31.6265V29.2289C41.1863 29.1601 41.1298 29.1012 41.0597 29.1012Z" fill="#B8D3EE"/>
<path fill-rule="evenodd" clip-rule="evenodd" d="M37.8933 25.2662H32.8329C32.5952 25.2662 32.4003 25.4626 32.4003 25.7021V31.3221C32.4003 31.5616 32.5952 31.758 32.8329 31.758H37.8933C38.131 31.758 38.3258 31.5616 38.3258 31.3221V25.7021C38.3239 25.4626 38.129 25.2662 37.8933 25.2662Z" fill="#B8D3EE"/>
<path fill-rule="evenodd" clip-rule="evenodd" d="M38.8597 29.1012H37.3672C37.297 29.1012 37.2405 29.1582 37.2405 29.2289V31.6265C37.2405 31.6972 37.297 31.7541 37.3672 31.7541H38.8597C38.9299 31.7541 38.9864 31.6972 38.9864 31.6265V29.2289C38.9864 29.1601 38.9299 29.1012 38.8597 29.1012Z" fill="#DCE9F7"/>
<path fill-rule="evenodd" clip-rule="evenodd" d="M15.2688 27.6717H19.5127C19.6744 27.6717 19.8089 27.8052 19.8089 27.9702V31.4596C19.8089 31.6225 19.6764 31.758 19.5127 31.758H18.8521C17.9168 30.5563 16.5392 29.7178 14.9745 29.4959V27.9682C14.9726 27.8052 15.1051 27.6717 15.2688 27.6717Z" fill="#B3CEEB"/>
<path fill-rule="evenodd" clip-rule="evenodd" d="M17.307 28.9736H20.1966C20.3077 28.9736 20.3973 29.0639 20.3973 29.1758V31.5538C20.3973 31.6657 20.3077 31.7561 20.1966 31.7561H18.8522C18.3748 31.1414 17.7805 30.623 17.1063 30.2323V29.1758C17.1043 29.0659 17.1959 28.9736 17.307 28.9736Z" fill="#B8D3EE"/>
<path fill-rule="evenodd" clip-rule="evenodd" d="M16.5178 29.7983H17.4784C17.5232 29.7983 17.5603 29.8356 17.5603 29.8808V30.5249C17.2115 30.2774 16.8334 30.0673 16.4359 29.9004V29.8827C16.4359 29.8356 16.473 29.7983 16.5178 29.7983Z" fill="#F0F1EE"/>
<path fill-rule="evenodd" clip-rule="evenodd" d="M10.2669 26.0772H7.92862C8.51513 27.1965 9.429 28.1194 10.5377 28.7105V26.3521C10.5397 26.2009 10.4169 26.0772 10.2669 26.0772Z" fill="#EAEAE6"/>
<path fill-rule="evenodd" clip-rule="evenodd" d="M9.64528 27.3496H8.81131C9.11528 27.6913 9.45822 27.9996 9.82845 28.2686V27.5342C9.82845 27.4341 9.74661 27.3496 9.64528 27.3496Z" fill="#E3E2DC"/>
<path fill-rule="evenodd" clip-rule="evenodd" d="M12.1492 42.886H11.8919V42.4029H11.9796C12.1394 42.4029 12.27 42.2478 12.27 42.0554C12.27 41.8649 12.1394 41.7098 11.9796 41.7098H11.6815C11.2762 41.7824 10.8768 41.8728 10.4831 41.9808C10.4793 42.0063 10.4754 42.0318 10.4754 42.0573C10.4754 42.2478 10.6059 42.4049 10.7657 42.4049H10.8534V42.888H10.5962C10.4188 42.888 10.2727 43.0627 10.2727 43.2748V49.6979C10.2727 49.91 10.4188 50.0847 10.5962 50.0847H12.1472C12.3245 50.0847 12.4707 49.91 12.4707 49.6979V43.2748C12.4726 43.0608 12.3265 42.886 12.1492 42.886Z" fill="#B3CEEB"/>
<path fill-rule="evenodd" clip-rule="evenodd" d="M14.655 43.642H14.4251V43.21H14.503C14.6452 43.21 14.7622 43.0706 14.7622 42.8997C14.7622 42.7289 14.6452 42.5895 14.503 42.5895H14.2185V41.4918C14.1932 41.4918 14.1678 41.4918 14.1425 41.4918C13.9944 41.4918 13.8483 41.4957 13.7002 41.4996V42.5895H13.4157C13.2735 42.5895 13.1566 42.7289 13.1566 42.8997C13.1566 43.0706 13.2735 43.21 13.4157 43.21H13.4936V43.642H13.2637C13.1039 43.642 12.9734 43.7971 12.9734 43.9876V49.7371C12.9734 49.9276 13.1039 50.0827 13.2637 50.0827H14.6511C14.8109 50.0827 14.9414 49.9276 14.9414 49.7371V43.9876C14.9453 43.7971 14.8148 43.642 14.655 43.642Z" fill="#DEDED7"/>
<path fill-rule="evenodd" clip-rule="evenodd" d="M18.9418 43.2827H15.1187C14.9394 43.2827 14.7933 43.4299 14.7933 43.6106V49.7548C14.7933 49.9355 14.9394 50.0828 15.1187 50.0828H18.9418C19.121 50.0828 19.2691 49.9355 19.2691 49.7548V43.6106C19.2691 43.4299 19.121 43.2827 18.9418 43.2827Z" fill="#F9F9FA"/>
<path fill-rule="evenodd" clip-rule="evenodd" d="M18.1974 44.8064H15.8631C15.7423 44.8064 15.6448 44.9066 15.6448 45.0283V46.3165C15.6448 46.4382 15.7442 46.5384 15.8631 46.5384H18.1974C18.3182 46.5384 18.4157 46.4382 18.4157 46.3165V45.0283C18.4157 44.9046 18.3182 44.8064 18.1974 44.8064Z" fill="#F5F6F5"/>
<path fill-rule="evenodd" clip-rule="evenodd" d="M18.2325 46.933H15.828C15.7266 46.933 15.6429 47.0175 15.6429 47.1196V47.2983C15.6429 47.4004 15.7247 47.4848 15.828 47.4848H18.2305C18.3318 47.4848 18.4156 47.4004 18.4156 47.2983V47.1196C18.4156 47.0175 18.3338 46.933 18.2325 46.933Z" fill="#F5F6F5"/>
<path fill-rule="evenodd" clip-rule="evenodd" d="M18.2325 47.9993H15.828C15.7266 47.9993 15.6429 48.0818 15.6429 48.1859V48.3646C15.6429 48.4667 15.7247 48.5511 15.828 48.5511H18.2305C18.3318 48.5511 18.4156 48.4667 18.4156 48.3646V48.1859C18.4156 48.0838 18.3338 47.9993 18.2325 47.9993Z" fill="#F5F6F5"/>
<path fill-rule="evenodd" clip-rule="evenodd" d="M14.2146 45.9041H11.8666C11.7555 45.9041 11.6659 45.9944 11.6659 46.1064V49.8825C11.6659 49.9944 11.7555 50.0847 11.8666 50.0847H14.2165C14.3276 50.0847 14.4172 49.9944 14.4172 49.8825V46.1064C14.4153 45.9964 14.3256 45.9041 14.2146 45.9041Z" fill="#EAEAE6"/>
<path fill-rule="evenodd" clip-rule="evenodd" d="M1.17496 50.0788C1.20419 50.0827 1.23341 50.0847 1.26264 50.0847H9.23023C9.60435 50.0847 9.91027 49.7764 9.91027 49.3994V42.1496C5.9937 43.3965 2.80199 46.3224 1.17496 50.0788Z" fill="#C1DBF2"/>
<path fill-rule="evenodd" clip-rule="evenodd" d="M10.7501 45.9041H8.40013C8.28907 45.9041 8.19943 45.9944 8.19943 46.1064V49.8825C8.19943 49.9944 8.28907 50.0847 8.40013 50.0847H10.7501C10.8611 50.0847 10.9508 49.9944 10.9508 49.8825V46.1064C10.9508 45.9964 10.8611 45.9041 10.7501 45.9041Z" fill="#C1DBF2"/>
<path fill-rule="evenodd" clip-rule="evenodd" d="M24.2203 62.4871H30.3719C30.6076 62.4871 30.8006 62.6815 30.8006 62.9191V67.9794C30.8006 68.217 30.6076 68.4114 30.3719 68.4114H24.2203C23.9846 68.4114 23.7917 68.217 23.7917 67.9794V62.9191C23.7917 62.6815 23.9846 62.4871 24.2203 62.4871Z" fill="#EAEAE6"/>
<path fill-rule="evenodd" clip-rule="evenodd" d="M27.1743 64.3761H31.3656C31.5254 64.3761 31.6579 64.5077 31.6579 64.6707V68.1169C31.6579 68.2779 31.5274 68.4114 31.3656 68.4114H27.1743C27.0146 68.4114 26.882 68.2799 26.882 68.1169V64.6707C26.884 64.5097 27.0146 64.3761 27.1743 64.3761Z" fill="#E1E1D9"/>
<path fill-rule="evenodd" clip-rule="evenodd" d="M30.0913 58.8583H33.7214C33.8909 58.8583 34.0312 58.9997 34.0312 59.1705V68.0992C34.0312 68.272 33.8909 68.4114 33.7214 68.4114H30.0913C29.9198 68.4114 29.7815 68.272 29.7815 68.0992V59.1705C29.7815 58.9977 29.9198 58.8583 30.0913 58.8583Z" fill="#B8D3EE"/>
<path fill-rule="evenodd" clip-rule="evenodd" d="M7.33624 61.7822H7.57202V61.3364H7.49213C7.34599 61.3364 7.22518 61.1931 7.22518 61.0183C7.22518 60.8435 7.34599 60.6982 7.49213 60.6982H7.78441V58.821C7.78441 58.6462 7.90522 58.5009 8.05136 58.5009C8.1975 58.5009 8.31831 58.6442 8.31831 58.821V60.6982H8.61059C8.75673 60.6982 8.87754 60.8416 8.87754 61.0183C8.87754 61.1931 8.75673 61.3364 8.61059 61.3364H8.5307V61.7822H8.76647C8.93015 61.7822 9.0646 61.9432 9.0646 62.1376V68.054C9.0646 68.2504 8.93015 68.4114 8.76647 68.4114H7.67919C7.4629 68.2995 7.25051 68.1797 7.04201 68.056V68.054V62.1376C7.03812 61.9432 7.17257 61.7822 7.33624 61.7822Z" fill="#DEDED7"/>
<path fill-rule="evenodd" clip-rule="evenodd" d="M5.02723 62.4773H5.23768V62.0787H5.16558C5.03503 62.0787 4.92591 61.9491 4.92591 61.792C4.92591 61.6349 5.03308 61.5053 5.16558 61.5053H5.42669V59.8244C5.42669 59.6673 5.53386 59.5397 5.66636 59.5397C5.79691 59.5397 5.90603 59.6673 5.90603 59.8244V61.5053H6.16713C6.29768 61.5053 6.4068 61.6329 6.4068 61.792C6.4068 61.9491 6.29963 62.0787 6.16713 62.0787H6.09504V62.4773H6.30548C6.45162 62.4773 6.57243 62.6206 6.57243 62.7954V67.7673C5.93136 67.355 5.32731 66.8916 4.76028 66.3849V62.7974C4.76028 62.6206 4.88109 62.4773 5.02723 62.4773Z" fill="#DEDED7"/>
<path fill-rule="evenodd" clip-rule="evenodd" d="M1.51596 62.1474H4.6005C4.76613 62.1474 4.90058 62.2829 4.90058 62.4498V66.5145C3.51127 65.299 2.35578 63.8145 1.51596 62.1474Z" fill="#F9F9FA"/>
<path fill-rule="evenodd" clip-rule="evenodd" d="M2.32462 63.5494H3.91462C4.02569 63.5494 4.11727 63.6417 4.11727 63.7537V64.9397C4.11727 65.0516 4.02569 65.1439 3.91462 65.1439H3.53271C3.09429 64.6432 2.69094 64.1091 2.32462 63.5494Z" fill="#F5F6F5"/>
<path fill-rule="evenodd" clip-rule="evenodd" d="M5.43255 64.5627H7.59543C7.69675 64.5627 7.78054 64.6471 7.78054 64.7492V68.2268C7.78054 68.3073 7.72793 68.378 7.65583 68.4016C6.79848 67.9519 5.99178 67.4158 5.24744 66.8071V64.7492C5.24939 64.6452 5.33122 64.5627 5.43255 64.5627Z" fill="#EAEAE6"/>
<path fill-rule="evenodd" clip-rule="evenodd" d="M10.0253 58.9997H17.3615C17.7064 58.9997 17.987 59.2844 17.987 59.63V67.7791C17.987 68.1267 17.7045 68.4095 17.3615 68.4095H10.0253C9.68037 68.4095 9.39978 68.1247 9.39978 67.7791V59.63C9.39978 59.2844 9.68037 58.9997 10.0253 58.9997Z" fill="#EAEAE6"/>
<path fill-rule="evenodd" clip-rule="evenodd" d="M8.62423 64.5627H10.7871C10.8884 64.5627 10.9722 64.6471 10.9722 64.7492V68.2268C10.9722 68.329 10.8884 68.4134 10.7871 68.4134H8.62423C8.5229 68.4134 8.43912 68.329 8.43912 68.2268V64.7492C8.43912 64.6452 8.5229 64.5627 8.62423 64.5627Z" fill="#F9F9FA"/>
<path fill-rule="evenodd" clip-rule="evenodd" d="M42.825 62.4871H36.6735C36.4377 62.4871 36.2448 62.6815 36.2448 62.9191V67.9794C36.2448 68.217 36.4377 68.4114 36.6735 68.4114H42.825C43.0608 68.4114 43.2537 68.217 43.2537 67.9794V62.9191C43.2537 62.6815 43.0608 62.4871 42.825 62.4871Z" fill="#EAEAE6"/>
<path fill-rule="evenodd" clip-rule="evenodd" d="M39.871 64.3761H35.6817C35.5219 64.3761 35.3894 64.5077 35.3894 64.6707V68.1169C35.3894 68.2779 35.52 68.4114 35.6817 68.4114H39.871C40.0328 68.4114 40.1633 68.2799 40.1633 68.1169V64.6707C40.1633 64.5097 40.0328 64.3761 39.871 64.3761Z" fill="#E1E1D9"/>
<path fill-rule="evenodd" clip-rule="evenodd" d="M15.6994 42.1712L17.3674 42.0181C17.4765 42.0082 17.5661 42.0907 17.5661 42.2007V42.7427C17.5661 42.8526 17.4765 42.9508 17.3674 42.9626L15.6994 43.1138C15.5903 43.1236 15.5026 43.0411 15.5026 42.9312V42.3892C15.5006 42.2812 15.5903 42.181 15.6994 42.1712Z" fill="white"/>
<path fill-rule="evenodd" clip-rule="evenodd" d="M21.2469 11.0062C21.2469 10.9257 21.1826 10.8609 21.1027 10.8609C21.0228 10.8609 20.9585 10.9257 20.9585 11.0062V11.346H20.6214C20.5415 11.346 20.4772 11.4108 20.4772 11.4913C20.4772 11.5718 20.5415 11.6366 20.6214 11.6366H20.9585V11.9763C20.9585 12.0568 21.0228 12.1216 21.1027 12.1216C21.1826 12.1216 21.2469 12.0568 21.2469 11.9763V11.6366H21.584C21.6639 11.6366 21.7282 11.5718 21.7282 11.4913C21.7282 11.4108 21.6639 11.346 21.584 11.346H21.2469V11.0062Z" fill="white"/>
<path fill-rule="evenodd" clip-rule="evenodd" d="M59.3526 27.7483C59.3526 27.6678 59.2883 27.603 59.2084 27.603C59.1285 27.603 59.0642 27.6678 59.0642 27.7483V28.088H58.7271C58.6472 28.088 58.5829 28.1528 58.5829 28.2333C58.5829 28.3138 58.6472 28.3786 58.7271 28.3786H59.0642V28.7183C59.0642 28.7988 59.1285 28.8636 59.2084 28.8636C59.2883 28.8636 59.3526 28.7988 59.3526 28.7183V28.3786H59.6897C59.7695 28.3786 59.8339 28.3138 59.8339 28.2333C59.8339 28.1528 59.7695 28.088 59.6897 28.088H59.3526V27.7483Z" fill="white"/>
<path fill-rule="evenodd" clip-rule="evenodd" d="M55.2509 2.63521C55.2509 2.5547 55.1866 2.4899 55.1067 2.4899C55.0268 2.4899 54.9625 2.5547 54.9625 2.63521V2.97492H54.6254C54.5455 2.97492 54.4812 3.03972 54.4812 3.12023C54.4812 3.20074 54.5455 3.26554 54.6254 3.26554H54.9625V3.60525C54.9625 3.68576 55.0268 3.75056 55.1067 3.75056C55.1866 3.75056 55.2509 3.68576 55.2509 3.60525V3.26554H55.588C55.6679 3.26554 55.7322 3.20074 55.7322 3.12023C55.7322 3.03972 55.6679 2.97492 55.588 2.97492H55.2509V2.63521Z" fill="white"/>
<path fill-rule="evenodd" clip-rule="evenodd" d="M36.1142 5.49623C36.1142 5.41572 36.0499 5.35092 35.9701 5.35092C35.8902 5.35092 35.8259 5.41572 35.8259 5.49623V5.83594H35.4888C35.4089 5.83594 35.3446 5.90074 35.3446 5.98125C35.3446 6.06176 35.4089 6.12656 35.4888 6.12656H35.8259V6.46627C35.8259 6.54678 35.8902 6.61158 35.9701 6.61158C36.0499 6.61158 36.1142 6.54678 36.1142 6.46627V6.12656H36.4513C36.5312 6.12656 36.5955 6.06176 36.5955 5.98125C36.5955 5.90074 36.5312 5.83594 36.4513 5.83594H36.1142V5.49623Z" fill="white"/>
<path fill-rule="evenodd" clip-rule="evenodd" d="M80.3812 29.763C80.3812 29.6824 80.3169 29.6176 80.237 29.6176C80.1571 29.6176 80.0928 29.6824 80.0928 29.763V30.1027H79.7557C79.6758 30.1027 79.6115 30.1675 79.6115 30.248C79.6115 30.3285 79.6758 30.3933 79.7557 30.3933H80.0928V30.733C80.0928 30.8135 80.1571 30.8783 80.237 30.8783C80.3169 30.8783 80.3812 30.8135 80.3812 30.733V30.3933H80.7183C80.7982 30.3933 80.8625 30.3285 80.8625 30.248C80.8625 30.1675 80.7982 30.1027 80.7183 30.1027H80.3812V29.763Z" fill="white"/>
<path fill-rule="evenodd" clip-rule="evenodd" d="M27.1763 36.9008C27.1763 36.8203 27.112 36.7555 27.0321 36.7555C26.9522 36.7555 26.8879 36.8203 26.8879 36.9008V37.2405H26.5508C26.4709 37.2405 26.4066 37.3053 26.4066 37.3858C26.4066 37.4663 26.4709 37.5311 26.5508 37.5311H26.8899V37.8708C26.8899 37.9514 26.9542 38.0162 27.034 38.0162C27.1139 38.0162 27.1782 37.9514 27.1782 37.8708V37.5311H27.5153C27.5952 37.5311 27.6595 37.4663 27.6595 37.3858C27.6595 37.3053 27.5952 37.2405 27.5153 37.2405H27.1782V36.9008H27.1763Z" fill="white"/>
<path fill-rule="evenodd" clip-rule="evenodd" d="M41.7923 9.3882C41.7923 9.30769 41.728 9.24289 41.6481 9.24289C41.5682 9.24289 41.5039 9.30769 41.5039 9.3882V9.72791H41.1668C41.0869 9.72791 41.0226 9.79271 41.0226 9.87322C41.0226 9.95373 41.0869 10.0185 41.1668 10.0185H41.5039V10.3582C41.5039 10.4387 41.5682 10.5035 41.6481 10.5035C41.728 10.5035 41.7923 10.4387 41.7923 10.3582V10.0185H42.1294C42.2093 10.0185 42.2736 9.95373 42.2736 9.87322C42.2736 9.79271 42.2093 9.72791 42.1294 9.72791H41.7923V9.3882Z" fill="#719FD4"/>
<path fill-rule="evenodd" clip-rule="evenodd" d="M55.8822 24.0115C55.8822 23.9309 55.8179 23.8661 55.738 23.8661C55.6581 23.8661 55.5938 23.9309 55.5938 24.0115V24.3512H55.2567C55.1768 24.3512 55.1125 24.416 55.1125 24.4965C55.1125 24.577 55.1768 24.6418 55.2567 24.6418H55.5938V24.9815C55.5938 25.062 55.6581 25.1268 55.738 25.1268C55.8179 25.1268 55.8822 25.062 55.8822 24.9815V24.6418H56.2193C56.2992 24.6418 56.3635 24.577 56.3635 24.4965C56.3635 24.416 56.2992 24.3512 56.2193 24.3512H55.8822V24.0115Z" fill="#719FD4"/>
<path fill-rule="evenodd" clip-rule="evenodd" d="M26.9659 27.33C26.9659 27.2495 26.9016 27.1847 26.8217 27.1847C26.7418 27.1847 26.6775 27.2495 26.6775 27.33V27.6697H26.3404C26.2605 27.6697 26.1962 27.7345 26.1962 27.815C26.1962 27.8955 26.2605 27.9603 26.3404 27.9603H26.6775V28.3C26.6775 28.3806 26.7418 28.4454 26.8217 28.4454C26.9016 28.4454 26.9659 28.3806 26.9659 28.3V27.9603H27.303C27.3829 27.9603 27.4472 27.8955 27.4472 27.815C27.4472 27.7345 27.3829 27.6697 27.303 27.6697H26.9659V27.33Z" fill="#719FD4"/>
<path fill-rule="evenodd" clip-rule="evenodd" d="M32.6244 46.6876C32.6244 46.6071 32.5601 46.5423 32.4802 46.5423C32.4003 46.5423 32.336 46.6071 32.336 46.6876V47.0273H31.9989C31.919 47.0273 31.8547 47.0921 31.8547 47.1726C31.8547 47.2531 31.919 47.3179 31.9989 47.3179H32.336V47.6577C32.336 47.7382 32.4003 47.803 32.4802 47.803C32.5601 47.803 32.6244 47.7382 32.6244 47.6577V47.3179H32.9615C33.0414 47.3179 33.1057 47.2531 33.1057 47.1726C33.1057 47.0921 33.0414 47.0273 32.9615 47.0273H32.6244V46.6876Z" fill="#719FD4"/>
<path d="M71.3855 35.54L67.052 32.9087C66.6934 32.6868 66.4888 32.2804 66.522 31.8582C66.5668 31.3182 66.5882 30.7742 66.5882 30.2225C66.5882 29.1994 66.5161 28.1979 66.3622 27.224C66.2901 26.7684 66.4947 26.3168 66.8863 26.0831L71.4128 23.3281C71.898 23.0394 72.0812 22.415 71.8259 21.8986L69.6942 17.5255C69.4506 17.0307 68.8816 16.8029 68.3692 16.9855L63.792 18.6605C63.3497 18.8333 62.847 18.6821 62.5489 18.2933C61.2901 16.6517 59.7722 15.2163 58.0555 14.042C57.6405 13.7593 57.471 13.2134 57.6405 12.7401L58.6557 9.93604C58.8428 9.40193 58.6109 8.80105 58.1043 8.54578L53.7921 6.42112C53.7045 6.37595 53.6148 6.34257 53.5213 6.32686C53.079 6.23261 52.6113 6.4329 52.3736 6.83937L50.4192 10.099L49.9438 10.8943C49.0552 10.7667 48.1394 10.6999 47.2158 10.6999C45.9746 10.6999 44.7528 10.8158 43.5837 11.0396C43.1356 11.1221 42.6835 10.9277 42.4516 10.533L40.2576 6.85312C39.9536 6.35239 39.3242 6.16388 38.8059 6.42504L35.4875 8.06665L34.5386 8.53989C34.0203 8.79516 33.7709 9.40782 33.9696 9.95371L35.355 13.8083C35.5207 14.2541 35.3882 14.7548 35.0238 15.0435C33.9482 15.9271 32.9642 16.9246 32.1029 18.0145C32.0211 18.1028 31.9548 18.1932 31.8827 18.2874C31.8613 18.3208 31.8321 18.3483 31.8048 18.3758C31.5008 18.7037 31.0312 18.8097 30.6123 18.6546L26.0917 17.0032C26.041 16.9816 25.9864 16.9698 25.9377 16.958C25.4525 16.8579 24.944 17.1033 24.7179 17.5589L22.6096 21.8868C22.3563 22.4091 22.5375 23.0394 23.0344 23.3438L27.555 26.087C27.9408 26.3148 28.1396 26.7605 28.0675 27.2063C27.9194 28.1862 27.8415 29.1935 27.8415 30.2225C27.8415 30.7683 27.8629 31.3083 27.9077 31.8425C27.9408 32.2764 27.7304 32.6947 27.3602 32.9166L23.011 35.5616C22.5317 35.8503 22.3485 36.4688 22.596 36.9794L24.7102 41.3033C24.9635 41.8256 25.5656 42.077 26.1189 41.8767L29.7413 40.5532C30.2265 40.3745 30.7623 40.5532 31.0507 40.9813C32.1614 42.6778 33.5292 44.1859 35.0978 45.4603C35.4739 45.7549 35.6161 46.2674 35.4505 46.723L33.9716 50.8289C33.7728 51.3788 34.0203 51.9914 34.5405 52.2526L38.8195 54.3714C39.332 54.6266 39.9575 54.4381 40.2439 53.9492L40.3608 53.7607L42.6289 49.9728C42.8725 49.5663 43.3304 49.3601 43.7942 49.4446H43.8C44.9107 49.6449 46.0525 49.7509 47.2236 49.7509C47.8471 49.7509 48.4609 49.7175 49.0728 49.6625C49.4975 49.6174 49.9067 49.8236 50.1269 50.1908L52.358 53.9236C52.662 54.4361 53.3069 54.6247 53.8331 54.3635L58.1062 52.2447C58.227 52.1839 58.3322 52.0994 58.4219 52.0111C58.7025 51.7106 58.8077 51.259 58.6654 50.8545L57.5509 47.7774C57.4184 47.3984 57.4963 46.9763 57.7438 46.6758C57.81 46.5973 57.888 46.5266 57.9757 46.4638C60.1288 45.0165 61.9663 43.153 63.3965 40.9773C63.6342 40.6042 64.0746 40.4275 64.5013 40.4982C64.5617 40.51 64.6221 40.5257 64.6825 40.5493L68.3438 41.8904C68.8739 42.0848 69.4643 41.8453 69.7176 41.3347L69.7682 41.2346L71.8278 37.0167C72.0753 36.4806 71.8863 35.8463 71.3855 35.54ZM37.1711 27.222C37.3815 26.4699 37.668 25.708 38.044 24.9461C38.7611 23.495 40.5343 21.6963 41.9801 20.9796C42.134 20.901 42.2899 20.8303 42.4438 20.7577C51.9059 16.473 61.0329 25.8376 56.4441 35.379C55.842 36.6259 54.5111 38.0888 53.2134 38.996C52.9094 39.2022 52.6113 39.3848 52.3307 39.5183C51.0116 40.1644 49.6963 40.5414 48.4161 40.6867C41.1188 41.5036 35.1134 34.7447 37.1711 27.222Z" fill="#BB6BD9"/>
<path d="M74.7148 59.1312L73.4814 58.3831C73.3801 58.3202 73.3216 58.2044 73.3314 58.0846C73.3431 57.9314 73.3509 57.7763 73.3509 57.6192C73.3509 57.3286 73.3314 57.0419 73.2866 56.765C73.2671 56.6354 73.3236 56.5078 73.4366 56.441L74.7246 55.6575C74.8629 55.5751 74.9155 55.3983 74.8434 55.2511L74.2374 54.0061C74.1692 53.8647 74.0056 53.7999 73.8594 53.8529L72.5559 54.3301C72.4292 54.3792 72.287 54.336 72.2032 54.226C71.8446 53.7587 71.4121 53.3503 70.923 53.0164C70.8061 52.9359 70.7574 52.7808 70.8061 52.6453L71.0944 51.8481C71.1471 51.6969 71.0828 51.526 70.9366 51.4514L69.709 50.8466C69.6837 50.8348 69.6584 50.825 69.6311 50.8191C69.5064 50.7916 69.3719 50.8486 69.3037 50.9644L68.7484 51.8932L68.614 52.1191C68.3606 52.0817 68.0995 52.0641 67.8384 52.0641C67.4858 52.0641 67.137 52.0974 66.8038 52.1603C66.6771 52.1838 66.5485 52.1289 66.4823 52.0169L65.8568 50.9703C65.771 50.827 65.5918 50.774 65.4437 50.8486L64.4986 51.3159L64.2278 51.4514C64.0797 51.5241 64.0096 51.6988 64.0661 51.854L64.4597 52.9516C64.5064 53.0773 64.4694 53.2207 64.3661 53.3031C64.0602 53.5545 63.7796 53.8392 63.5341 54.1495C63.5107 54.175 63.4912 54.2005 63.4718 54.228C63.4659 54.2378 63.4581 54.2457 63.4503 54.2535C63.3646 54.3478 63.2301 54.3772 63.1113 54.3321L61.8252 53.8608C61.8116 53.8549 61.796 53.851 61.7804 53.849C61.6421 53.8215 61.4979 53.8903 61.4336 54.0199L60.8334 55.2511C60.7613 55.4003 60.814 55.579 60.9542 55.6654L62.2403 56.4469C62.3494 56.5117 62.4059 56.6394 62.3864 56.765C62.3436 57.0439 62.3221 57.3306 62.3221 57.6231C62.3221 57.7783 62.328 57.9314 62.3416 58.0846C62.3513 58.2083 62.2909 58.3261 62.1857 58.3909L60.9465 59.145C60.8101 59.2274 60.7574 59.4042 60.8295 59.5495L61.4316 60.7807C61.5037 60.9299 61.6752 61.0006 61.833 60.9437L62.8638 60.5666C63.0022 60.5156 63.1541 60.5666 63.236 60.6884C63.5516 61.1714 63.9414 61.6015 64.3876 61.9628C64.4947 62.0472 64.5357 62.1925 64.4889 62.3221L64.068 63.4905C64.0115 63.6476 64.0817 63.8224 64.2297 63.895L65.4476 64.4979C65.5937 64.5705 65.771 64.5175 65.8529 64.3781L65.886 64.3251L66.531 63.247C66.5992 63.1312 66.7297 63.0723 66.8622 63.0958H66.8642C67.1798 63.1528 67.5052 63.1822 67.8384 63.1822C68.0158 63.1822 68.1911 63.1724 68.3645 63.1567C68.4854 63.1449 68.6023 63.2019 68.6646 63.3079L69.2998 64.3702C69.3856 64.5155 69.5707 64.5705 69.7188 64.4959L70.9347 63.8931C70.9697 63.8754 70.999 63.8518 71.0243 63.8263C71.1042 63.7399 71.1334 63.6123 71.0944 63.4964L70.7768 62.6206C70.7398 62.5126 70.7613 62.3928 70.8314 62.3064C70.8509 62.2848 70.8723 62.2632 70.8976 62.2456C71.5114 61.8332 72.0336 61.303 72.4409 60.6845C72.5091 60.5784 72.6338 60.5274 72.7546 60.549C72.7721 60.5529 72.7897 60.5568 72.8072 60.5627L73.8497 60.9437C73.9997 60.9986 74.1692 60.9319 74.2413 60.7846L74.255 60.7552L74.8415 59.5554C74.9116 59.3983 74.8571 59.2176 74.7148 59.1312ZM64.976 56.7631C65.0364 56.549 65.1183 56.333 65.2235 56.1151C65.4281 55.7027 65.9328 55.1902 66.3439 54.986C66.3887 54.9644 66.4316 54.9428 66.4764 54.9231C69.1693 53.7037 71.7667 56.3684 70.4612 59.0841C70.2897 59.4395 69.9117 59.8558 69.5415 60.113C69.4557 60.172 69.37 60.223 69.2901 60.2623C68.914 60.4469 68.5399 60.5529 68.1755 60.5941C66.1003 60.8298 64.3915 58.9054 64.976 56.7631Z" fill="#27AE60"/>
<path d="M70.6814 10.3621L69.824 9.84178C69.7539 9.79858 69.7129 9.71807 69.7188 9.63364C69.7285 9.5276 69.7324 9.4196 69.7324 9.30964C69.7324 9.10738 69.7188 8.90905 69.6876 8.71662C69.674 8.62629 69.7129 8.53792 69.7909 8.4908L70.6872 7.9449C70.7827 7.88796 70.8197 7.76425 70.7691 7.66214L70.3462 6.79617C70.2975 6.69799 70.1864 6.65283 70.0832 6.69013L69.1771 7.02199C69.0894 7.05537 68.99 7.02592 68.9316 6.94934C68.6822 6.62337 68.3821 6.34061 68.0411 6.10693C67.9593 6.04999 67.9261 5.94199 67.9593 5.8497L68.16 5.29398C68.197 5.18795 68.1522 5.07013 68.0508 5.01907L67.1974 4.59885C67.1798 4.591 67.1623 4.58314 67.1428 4.57922C67.0551 4.55958 66.9616 4.60082 66.9148 4.68133L66.5271 5.32737L66.4335 5.48446C66.2582 5.45893 66.075 5.44518 65.8938 5.44518C65.6483 5.44518 65.4067 5.46875 65.1748 5.51195C65.0871 5.52766 64.9975 5.49035 64.9507 5.4118L64.5162 4.68329C64.4558 4.58511 64.3311 4.54583 64.2278 4.59885L63.5711 4.92482L63.3821 5.01907C63.2789 5.07013 63.2301 5.19187 63.2691 5.29987L63.5439 6.06373C63.577 6.1521 63.5497 6.25028 63.4776 6.30919C63.2652 6.48395 63.0704 6.68228 62.8989 6.89828C62.8833 6.91595 62.8697 6.93363 62.856 6.9513C62.8521 6.95719 62.8463 6.96308 62.8404 6.96897C62.78 7.03377 62.6865 7.05537 62.6047 7.02395L61.7083 6.69603C61.6986 6.6921 61.6869 6.69014 61.6772 6.68817C61.5817 6.66853 61.4804 6.71763 61.4355 6.80795L61.0224 7.65821C60.9718 7.76228 61.0088 7.88599 61.1062 7.94687L62.0026 8.4908C62.0786 8.53596 62.1175 8.62432 62.1039 8.71269C62.0747 8.90709 62.0591 9.10542 62.0591 9.30964C62.0591 9.41764 62.063 9.52367 62.0727 9.62971C62.0786 9.71611 62.0376 9.79858 61.9636 9.84178L61.1023 10.3661C61.0069 10.423 60.9718 10.5448 61.0205 10.6469L61.4394 11.503C61.4901 11.6071 61.609 11.6562 61.7181 11.6169L62.4351 11.3538C62.5306 11.3184 62.6378 11.3538 62.6943 11.4382C62.9145 11.774 63.1853 12.0725 63.4951 12.3258C63.5692 12.3847 63.5984 12.4848 63.5653 12.5752L63.273 13.3881C63.234 13.4981 63.2828 13.6179 63.386 13.6709L64.2336 14.0911C64.335 14.1422 64.4597 14.1049 64.5162 14.0067L64.5396 13.9694L64.9897 13.2193C65.0384 13.1387 65.128 13.0975 65.2196 13.1152H65.2216C65.4417 13.1545 65.6678 13.1761 65.8996 13.1761C66.0224 13.1761 66.1452 13.1702 66.266 13.1584C66.3498 13.1505 66.4316 13.1898 66.4745 13.2625L66.9168 14.0027C66.9772 14.1049 67.1058 14.1422 67.2091 14.0891L68.0547 13.6689C68.0781 13.6571 68.0995 13.6395 68.1171 13.6218C68.1736 13.5629 68.1931 13.4726 68.1658 13.3921L67.9456 12.7833C67.9203 12.7087 67.9339 12.6243 67.9846 12.5654C67.9982 12.5497 68.0138 12.5359 68.0314 12.5241C68.4581 12.2374 68.8225 11.8683 69.105 11.4382C69.1518 11.3636 69.2394 11.3283 69.3232 11.344C69.3349 11.3459 69.3466 11.3499 69.3603 11.3538L70.0851 11.6189C70.1903 11.6582 70.3072 11.611 70.3579 11.5089L70.3677 11.4893L70.7749 10.6547C70.8197 10.5487 70.7807 10.423 70.6814 10.3621ZM63.9063 8.71465C63.9472 8.56542 64.0057 8.41421 64.0797 8.26301C64.2219 7.97632 64.5727 7.61894 64.8591 7.47756C64.8903 7.46185 64.9195 7.4481 64.9507 7.43436C66.8252 6.58606 68.6315 8.43974 67.7235 10.3307C67.6046 10.5782 67.3416 10.8668 67.0844 11.0475C67.024 11.0887 66.9655 11.124 66.909 11.1515C66.6479 11.2792 66.3868 11.3538 66.1335 11.3832C64.6877 11.5443 63.499 10.2051 63.9063 8.71465Z" fill="#27AE60"/>
<path d="M23.6689 9.1329L22.5544 8.61057C22.4628 8.56541 22.4024 8.47312 22.3985 8.37101C22.3946 8.23944 22.3868 8.10788 22.3712 7.97435C22.3439 7.72693 22.3011 7.48737 22.2387 7.25566C22.2095 7.14766 22.2465 7.03377 22.3361 6.967L23.3591 6.18154C23.4682 6.09907 23.4975 5.94394 23.4215 5.82612L22.7921 4.82663C22.72 4.71274 22.5778 4.67347 22.4589 4.73041L21.3969 5.25667C21.2956 5.30969 21.169 5.28612 21.0871 5.20169C20.7403 4.83841 20.3369 4.53208 19.8907 4.29252C19.7835 4.23557 19.727 4.10794 19.7563 3.98815L19.9297 3.28321C19.9609 3.14968 19.8888 3.01026 19.7602 2.96117L18.6631 2.56058C18.6397 2.55273 18.6183 2.54684 18.5949 2.54488C18.4858 2.53309 18.3767 2.59397 18.3299 2.69804L17.9422 3.53652L17.8486 3.74073C17.6304 3.73288 17.4083 3.74073 17.1842 3.76626C16.8841 3.79964 16.5918 3.85855 16.3151 3.94495C16.2099 3.97637 16.095 3.94103 16.0287 3.85266L15.4032 3.02204C15.3175 2.90815 15.1597 2.88066 15.0408 2.95724L14.2828 3.44226L14.0665 3.58168C13.9477 3.6563 13.9028 3.81143 13.9652 3.93906L14.3997 4.83448C14.4504 4.93856 14.4328 5.06227 14.351 5.14081C14.1133 5.38234 13.9028 5.6494 13.7236 5.93609C13.706 5.95965 13.6924 5.98322 13.6768 6.00874C13.6729 6.0166 13.6671 6.02445 13.6612 6.03231C13.5969 6.11871 13.4859 6.15798 13.3806 6.13049L12.2446 5.84969C12.2329 5.84576 12.2193 5.8438 12.2057 5.8438C12.0849 5.83202 11.9699 5.90467 11.927 6.02053L11.5295 7.12213C11.4808 7.25566 11.5412 7.40293 11.6698 7.4638L12.8331 8.00773C12.9325 8.0529 12.9929 8.15501 12.987 8.26497C12.9773 8.50454 12.9831 8.74999 13.0104 8.99937C13.0241 9.13094 13.0435 9.26054 13.0689 9.38818C13.0884 9.49225 13.0474 9.59829 12.9656 9.66112L11.9835 10.4152C11.8744 10.4976 11.8471 10.6508 11.9212 10.7686L12.5447 11.7563C12.6188 11.8761 12.7707 11.9213 12.8993 11.8584L13.7392 11.4421C13.8522 11.3872 13.9866 11.4147 14.0665 11.5109C14.3783 11.8918 14.7485 12.2198 15.1597 12.4868C15.2571 12.5477 15.3058 12.6675 15.2785 12.7833L15.0272 13.8142C14.994 13.9517 15.07 14.0931 15.2006 14.1441L16.2898 14.5427C16.4204 14.5918 16.5665 14.529 16.623 14.4033L16.6464 14.3542L17.0965 13.3783C17.1452 13.2742 17.2504 13.2114 17.3635 13.2192H17.3654C17.6382 13.2389 17.9168 13.233 18.1994 13.2035C18.3494 13.1878 18.4975 13.1623 18.6436 13.1328C18.745 13.1112 18.8502 13.1505 18.9125 13.233L19.5478 14.0754C19.6335 14.1912 19.7952 14.2187 19.916 14.1422L20.8942 13.5177C20.9215 13.5 20.9449 13.4765 20.9644 13.4529C21.0248 13.3724 21.0384 13.2605 20.9936 13.1662L20.6448 12.4515C20.6039 12.3631 20.6097 12.259 20.6623 12.1805C20.676 12.1608 20.6935 12.1412 20.713 12.1235C21.1962 11.7171 21.5918 11.2183 21.8802 10.6547C21.9269 10.5585 22.0302 10.5035 22.1354 10.5094C22.151 10.5114 22.1647 10.5133 22.1802 10.5173L23.1 10.7451C23.2325 10.7784 23.3689 10.7038 23.4176 10.5742L23.4273 10.5487L23.8151 9.47458C23.8599 9.34301 23.7995 9.19377 23.6689 9.1329ZM15.1869 8.02737C15.2181 7.84082 15.2668 7.64839 15.3389 7.45399C15.4753 7.08482 15.8553 6.60373 16.1865 6.39165C16.2216 6.36809 16.2567 6.34649 16.2937 6.32489C18.4683 5.04067 20.9156 7.06126 20.0563 9.48832C19.9433 9.80447 19.6608 10.1933 19.3705 10.4466C19.3023 10.5035 19.236 10.5565 19.1698 10.5958C18.8677 10.7863 18.5599 10.912 18.2539 10.9807C16.5119 11.3734 14.8869 9.89872 15.1869 8.02737Z" fill="#27AE60"/>
<path d="M43.8663 59.8067C44.0221 59.9854 44.0416 60.1857 43.9637 60.3997C43.9637 60.3997 43.9637 60.4017 43.9617 60.4037C43.8195 60.7984 43.3499 61.2402 42.8043 61.682C42.7341 61.739 42.6718 61.79 42.6192 61.8371C42.6055 61.8489 42.59 61.8627 42.5783 61.8744C42.5666 61.8843 42.5568 61.8941 42.5471 61.9039C42.0385 62.3771 42.2295 62.4851 41.3176 63.4434C40.277 64.5352 39.56 64.5548 39.3554 64.4547C39.182 64.3702 39.5327 63.791 39.9224 63.139C39.9419 63.1076 39.9594 63.0762 39.9789 63.0448C40.0315 62.9584 40.0822 62.87 40.1328 62.7836C40.5888 62.0001 40.4719 61.6329 40.3628 60.4665C40.2751 59.52 38.8994 55.1745 38.8994 55.1745L40.8947 54.8289C40.8947 54.8289 41.4949 58.2888 42.1574 58.8229C42.512 59.1077 42.9076 59.1096 43.2486 59.3217C43.2719 59.3355 43.2953 59.3512 43.3187 59.3669C43.5136 59.4945 43.7104 59.628 43.8663 59.8067Z" fill="#FA9960"/>
<path d="M43.8663 59.8067C44.0221 59.9854 44.0416 60.1857 43.9637 60.3998C43.9637 60.3998 43.9637 60.4017 43.9617 60.4037C43.7883 60.7984 43.3304 61.2382 42.8024 61.6781C42.7342 61.735 42.6718 61.7881 42.6192 61.8371C42.6056 61.8489 42.59 61.8627 42.5783 61.8745C42.5666 61.8843 42.5568 61.8941 42.5471 61.9039C42.0385 62.3772 42.2295 62.4851 41.3176 63.4434C40.277 64.5352 39.56 64.5548 39.3554 64.4547C39.182 64.3702 39.5327 63.791 39.9224 63.139C40.1251 63.0644 41.0662 62.6795 41.7794 61.7606C42.4068 60.9535 42.8238 59.9187 43.2525 59.3178C43.2758 59.3315 43.2992 59.3473 43.3226 59.363C43.5136 59.4945 43.7104 59.6281 43.8663 59.8067Z" fill="#E25345"/>
<path d="M27.7732 58.55C27.6505 59.1705 26.7717 59.0664 25.7916 58.8249C24.8115 58.5834 25.0433 58.8701 23.6482 58.715C22.2511 58.5598 21.8283 58.0336 21.7854 57.8254C21.7464 57.6389 22.4381 57.5741 23.1766 57.4877C23.2702 57.4779 23.3637 57.4661 23.4572 57.4543C24.2932 57.3482 24.905 56.8063 25.663 56.3586C26.382 55.9364 27.4537 54.2143 27.4537 54.2143L29.3691 54.3674C29.3691 54.3674 28.3637 55.905 27.9759 56.5746C27.7479 56.9673 27.7596 57.4877 27.7888 57.8902C27.8025 58.1101 27.8161 58.332 27.7732 58.55Z" fill="#FA9960"/>
<path d="M25.7916 58.8269C24.8115 58.5854 25.0433 58.8721 23.6482 58.7169C22.2511 58.5618 21.8283 58.0355 21.7854 57.8274C21.7464 57.6408 22.4381 57.576 23.1766 57.4896L23.1844 57.5034C23.1844 57.5034 24.0223 58.1023 25.1836 58.1298C26.1306 58.1534 27.1341 57.8804 27.7888 57.8902C27.8044 58.1082 27.8181 58.3321 27.7732 58.55C27.6505 59.1725 26.7717 59.0684 25.7916 58.8269Z" fill="#E25345"/>
<path d="M32.0328 30.2087C32.0328 30.2087 31.5768 29.0816 31.0741 29.0364C30.5713 28.9913 28.9755 28.738 28.8605 28.9677C28.7456 29.1974 28.8605 30.0261 29.2035 30.3246C29.5464 30.6231 31.6664 31.1061 31.6664 31.1061L32.0328 30.2087Z" fill="#FA9960"/>
<path d="M35.1115 46.2124L39.2385 57.4052C39.2385 57.4052 39.8717 57.468 40.4797 57.2913C41.0389 57.1283 41.68 56.7022 41.68 56.7022C41.68 56.7022 40.657 45.9552 38.7786 43.7206C36.9022 41.484 35.1115 46.2124 35.1115 46.2124Z" fill="#C33F3B"/>
<path d="M51.4344 41.6843C51.4344 41.6843 39.5756 37.6431 36.9314 38.5032C34.2872 39.3632 26.3469 55.2825 26.3469 55.2825C26.3469 55.2825 26.5262 55.5221 27.0153 55.7066C27.4712 55.8794 28.5722 55.8677 28.5722 55.8677C28.5722 55.8677 35.7389 49.6783 36.5904 47.8717C37.4439 46.0671 37.7849 44.347 38.6383 44.5198C39.4918 44.6926 49.6437 48.7318 51.9469 46.3244C54.25 43.9169 53.6479 40.7888 53.6479 40.7888L51.4344 41.6843Z" fill="#E25345"/>
<path d="M44.1878 22.8863C43.9987 22.4916 43.7863 21.7925 43.6831 20.5456C43.6987 20.6693 43.913 22.2422 44.5132 23.1337C46.98 24.7655 51.7052 30.2126 51.6117 31.2455C51.6117 31.2455 53.2758 28.4002 53.305 28.3825C53.305 28.3825 56.3759 24.4474 52.736 22.1931C50.8868 21.0464 50.8946 19.5776 50.9726 18.2992C51.0505 17.0209 50.4679 11.5227 46.7618 12.962C46.7618 12.962 46.1675 12.695 45.9005 12.7362C45.9005 12.7362 46.1188 12.7774 46.2279 12.8933C45.7992 12.8678 45.1835 12.8992 44.671 13.1937C43.3148 13.9694 42.0989 20.9501 44.1878 22.8863Z" fill="#D04339"/>
<path d="M44.6573 23.2142C44.6457 23.2201 45.8479 23.8485 46.754 23.5991C47.6055 23.3654 48.1608 22.252 48.1491 22.2501C47.7887 22.1774 47.6854 21.6787 47.6932 19.5344L47.5295 19.5658L44.7898 20.1117C44.7898 20.1117 44.8522 20.9816 44.8541 21.7984C44.8561 22.4896 44.8152 23.1416 44.6573 23.2142Z" fill="#FA9960"/>
<path d="M44.7899 20.1136C44.7899 20.1136 44.8522 20.9835 44.8542 21.8004C46.3877 21.7572 47.1983 20.3473 47.5295 19.5658L44.7899 20.1136Z" fill="#EB8D5A"/>
<path d="M47.812 19.2673C47.812 19.2673 48.6148 17.987 48.8077 16.8932C48.9461 16.1117 48.5505 13.2173 45.6628 13.6336C45.6628 13.6336 44.8249 13.7161 44.0358 14.2541C43.4083 14.6802 42.5042 15.6012 43.5155 18.1284L43.7786 18.9826L47.812 19.2673Z" fill="#D04339"/>
<path d="M44.2774 20.8892C44.2774 20.8892 47.9056 20.9501 47.9075 18.6723C47.9095 16.3945 48.3791 14.8687 46.0642 14.7352C43.7474 14.5997 43.2973 15.4696 43.1122 16.2295C42.929 16.9875 43.3343 20.8146 44.2774 20.8892Z" fill="#FA9960"/>
<path d="M44.4118 14.6783C44.4118 14.6783 45.4056 17.3508 46.9294 17.7455C48.4531 18.1402 49.1156 17.7298 49.1156 17.7298C49.1156 17.7298 47.9465 16.7931 47.7029 15.1594C47.7029 15.1594 45.162 13.4078 44.4118 14.6783Z" fill="#D04339"/>
<path d="M44.6574 14.8962C44.6574 14.8962 43.915 15.4932 43.7357 16.0725C43.5545 16.6517 43.4726 17.8456 43.1278 17.8064C43.1278 17.8064 42.3795 15.99 43.2213 14.963C44.1118 13.8732 44.6574 14.8962 44.6574 14.8962Z" fill="#D04339"/>
<path d="M52.736 33.0501C53.0946 31.5381 51.8767 28.6044 50.6063 26.1754C49.4527 23.9742 48.2563 22.1872 48.1492 22.252C45.1094 24.0704 44.8347 22.5584 44.8347 22.5584C44.8347 22.5584 42.0736 22.9275 41.2903 24.2844C40.2089 26.1597 39.03 31.7895 37.8726 31.707C37.3406 31.6677 31.9957 29.6432 31.9957 29.6432C31.9957 29.6432 31.1053 30.4836 31.2748 31.5165C31.2748 31.5165 33.9151 33.2975 36.1461 34.4345C37.327 35.0354 38.3948 35.4556 38.8955 35.3378C39.9127 35.0962 41.5007 32.7202 42.36 31.3221C42.362 31.3182 42.3639 31.3162 42.3659 31.3123C43.461 37.5606 41.9723 38.9843 42.7264 39.644C43.5233 40.3392 44.6593 39.3122 47.1632 40.4059C48.8039 41.1227 51.0817 42.1614 52.6152 42.3421C53.42 42.4363 54.0201 42.2969 54.215 41.7491C54.7839 40.1566 52.054 35.9328 52.736 33.0501Z" fill="#469DF0"/>
<path d="M45.0841 19.5088C45.0841 19.5088 45.0159 19.7975 44.3027 19.7543C44.3027 19.7543 43.7026 19.717 43.7221 19.3988C43.7201 19.3988 44.3027 19.173 45.0841 19.5088Z" fill="white"/>
<path d="M54.2149 41.7471C54.0201 42.2949 53.4199 42.4363 52.6152 42.3401C51.5532 41.8747 46.9683 40.0839 47.0209 38.8704C47.0969 37.0756 47.9017 37.0167 47.3346 34.8017C46.8787 33.0226 51.1148 29.7139 51.789 28.9932C53.0595 31.4223 53.0945 31.5361 52.736 33.0482C52.054 35.9327 54.7839 40.1565 54.2149 41.7471Z" fill="#2776CE"/>
<path d="M42.36 31.3221C41.5007 32.7202 39.9127 35.0962 38.8955 35.3378C38.3947 35.4576 37.3269 35.0354 36.1461 34.4345C37.0074 34.6583 37.8452 34.6525 38.6578 34.5739C39.5385 34.4875 39.7957 33.3997 41.1889 31.7659C42.095 30.7055 42.3172 30.9726 42.36 31.3221Z" fill="#2776CE"/>
<path d="M46.6078 34.7605C46.6078 34.7605 45.8401 34.1596 45.1153 34.3029C44.3904 34.4463 44.0338 34.947 44.063 35.1767C44.0923 35.4065 44.4761 36.0506 45.0295 36.1075C45.5849 36.1645 47.1632 35.7639 47.1632 35.7639L46.6078 34.7605Z" fill="#FA9960"/>
<path d="M48.1491 22.252C48.1491 22.252 51.1051 22.4347 52.13 23.874C53.57 25.8985 56.0738 34.1674 55.3919 36.0584L46.3954 36.0211C46.3954 36.0211 46.1772 34.9941 46.4812 34.4973C46.7852 34.0005 51.713 33.1974 51.941 32.9696C52.169 32.7399 49.0981 28.4984 49.0981 27.8111C49.0961 27.1219 48.1491 22.252 48.1491 22.252Z" fill="#469DF0"/>
<path d="M43.8565 31.9073H32.9817L34.9458 38.8075H45.8362L43.8565 31.9073Z" fill="#00448C"/>
<path d="M49.2208 38.5385H34.9828V38.8075H49.2208V38.5385Z" fill="#003261"/>
<path d="M39.2755 35.2455C39.2073 35.002 38.9559 34.8056 38.7143 34.8056C38.4727 34.8056 38.3343 35.002 38.4025 35.2455C38.4707 35.489 38.7221 35.6853 38.9637 35.6853C39.2053 35.6853 39.3437 35.489 39.2755 35.2455Z" fill="#003261"/>
</svg>
