<svg width="88" height="65" viewBox="0 0 88 65" fill="none" xmlns="http://www.w3.org/2000/svg">
<path fill-rule="evenodd" clip-rule="evenodd" d="M14.1445 69.9784C6.36588 69.9784 0 63.5652 0 55.7287C0 47.8903 6.36588 41.479 14.1445 41.479C17.4336 41.479 20.1245 38.768 20.1245 35.4544C20.1245 32.1408 17.4336 29.4299 14.1445 29.4299H13.4332C10.0136 29.4299 7.21545 26.611 7.21545 23.1658C7.21545 19.7207 10.0136 16.9018 13.4332 16.9018H15.6156C16.9465 16.9018 18.0357 15.8044 18.0357 14.4637C18.0357 13.1229 16.9465 12.0256 15.6156 12.0256H14.012C13.0922 12.0256 12.3421 11.2678 12.3421 10.3433C12.3421 9.4167 13.0942 8.66093 14.012 8.66093H24.7971C26.241 8.66093 27.4218 7.47132 27.4218 6.01671C27.4218 4.5621 26.241 3.3725 24.7971 3.3725H21.5723C20.6526 3.3725 19.9024 2.61477 19.9024 1.69018C19.9024 0.763622 20.6545 0.00785215 21.5723 0.00785215H67.439C68.6374 0.00785215 69.6194 0.997223 69.6194 2.20449C69.6194 3.41176 68.6374 4.40113 67.439 4.40113H64.1323C62.2481 4.40113 60.7068 5.9539 60.7068 7.85215C60.7068 9.75041 62.2481 11.3032 64.1323 11.3032H78.2943C79.4927 11.3032 80.4747 12.2925 80.4747 13.4998C80.4747 14.7071 79.4946 15.6965 78.2943 15.6965H76.2016C74.4635 15.6965 73.043 17.1295 73.043 18.8785C73.043 20.6296 74.4654 22.0606 76.2016 22.0606H79.0504C83.5125 22.0606 87.1641 25.7394 87.1641 30.2347C87.1641 34.7301 83.5125 38.4088 79.0504 38.4088H78.1209C73.8283 38.4088 70.317 41.9462 70.317 46.2708C70.317 50.5954 73.8283 54.1328 78.1209 54.1328H80.1318C84.4595 54.1328 88 57.6996 88 62.0595C88 66.4194 84.4595 69.9863 80.1318 69.9863C57.7411 69.9784 36.5351 69.9784 14.1445 69.9784ZM73.0157 4.39328C74.2199 4.39328 75.1961 3.4098 75.1961 2.19664C75.1961 0.983482 74.2199 0 73.0157 0C71.8115 0 70.8353 0.983482 70.8353 2.19664C70.8353 3.4098 71.8115 4.39328 73.0157 4.39328ZM9.32377 12.0216C10.2474 12.0216 10.9937 11.2678 10.9937 10.3393C10.9937 9.40884 10.2454 8.657 9.32377 8.657C8.40016 8.657 7.65387 9.41081 7.65387 10.3393C7.65192 11.2678 8.40016 12.0216 9.32377 12.0216Z" fill="#CDE5FB"/>
<path fill-rule="evenodd" clip-rule="evenodd" d="M44.3059 13.8316H17.9539C18.0065 14.0318 18.0357 14.2438 18.0357 14.4617C18.0357 15.8025 16.9465 16.8998 15.6156 16.8998H13.4332C10.0136 16.8998 7.21545 19.7187 7.21545 23.1639C7.21545 23.1815 7.21545 23.2012 7.21545 23.2188H44.3059C46.8683 23.2188 48.9649 21.1066 48.9649 18.5252C48.9649 15.9438 46.8683 13.8316 44.3059 13.8316Z" fill="#DCE9F7"/>
<path fill-rule="evenodd" clip-rule="evenodd" d="M7.78637 20.5491H48.9649V69.9784H14.1445C6.36588 69.9784 0 63.5652 0 55.7287C0 47.8903 6.36588 41.479 14.1445 41.479C17.4336 41.479 20.1245 38.7681 20.1245 35.4545C20.1245 32.1408 17.4336 29.4299 14.1445 29.4299H13.4332C10.0136 29.4299 7.21545 26.611 7.21545 23.1658C7.21545 22.2314 7.42004 21.3461 7.78637 20.5491Z" fill="#CDE0F3"/>
<path fill-rule="evenodd" clip-rule="evenodd" d="M7.37133 24.5537H45.6114C46.7065 24.5537 47.6029 25.6236 47.6029 26.9329V69.9784H14.1445C6.36588 69.9784 0 63.5652 0 55.7287C0 47.8903 6.36588 41.479 14.1445 41.479C17.4336 41.479 20.1245 38.7681 20.1245 35.4545C20.1245 32.1409 17.4336 29.4299 14.1445 29.4299H13.4332C10.487 29.4279 8.00266 27.3353 7.37133 24.5537Z" fill="#C1DBF2"/>
<path fill-rule="evenodd" clip-rule="evenodd" d="M19.7894 33.4698H47.6009V37.5196H19.7602C19.9959 36.8737 20.1245 36.1788 20.1245 35.4545C20.1245 34.7595 20.0076 34.0921 19.7894 33.4698Z" fill="#CDE0F3"/>
<path fill-rule="evenodd" clip-rule="evenodd" d="M49.5534 31.7463H18.8521C19.6491 32.771 20.1265 34.0587 20.1265 35.4525C20.1265 35.5683 20.1226 35.6822 20.1167 35.796H49.5553C50.2782 35.796 50.8667 35.2012 50.8667 34.4749V33.0694C50.8647 32.3411 50.2763 31.7463 49.5534 31.7463Z" fill="#DCE9F7"/>
<path fill-rule="evenodd" clip-rule="evenodd" d="M0.553386 51.7909H47.6029V55.8406H0.00194854C0.00194854 55.8033 0 55.766 0 55.7287C0 54.3644 0.192906 53.0433 0.553386 51.7909Z" fill="#CDE0F3"/>
<path fill-rule="evenodd" clip-rule="evenodd" d="M49.5533 50.0693H1.17104C0.623505 51.3354 0.253282 52.6958 0.0915527 54.119H49.5533C50.2762 54.119 50.8647 53.5242 50.8647 52.7979V51.3924C50.8647 50.6641 50.2762 50.0693 49.5533 50.0693Z" fill="#DCE9F7"/>
<path fill-rule="evenodd" clip-rule="evenodd" d="M49.5533 18.5252H9.26532C8.14491 19.5499 7.39277 20.977 7.24274 22.575H49.5533C50.2763 22.575 50.8647 21.9802 50.8647 21.2538V19.8483C50.8647 19.12 50.2763 18.5252 49.5533 18.5252Z" fill="#DCE9F7"/>
<path fill-rule="evenodd" clip-rule="evenodd" d="M10.8865 17.5083H45.2977C46.2291 17.5083 46.991 16.6446 46.991 15.5905C46.991 15.1821 46.876 14.8013 46.6812 14.4892C48.0276 15.1959 48.9668 16.7428 48.9668 18.5252H9.26529C9.74463 18.111 10.2902 17.7655 10.8865 17.5083Z" fill="#CDE0F3"/>
<path fill-rule="evenodd" clip-rule="evenodd" d="M45.9602 39.8399H40.2101C39.9392 39.8399 39.7191 40.0617 39.7191 40.3346V49.5746C39.7191 49.8474 39.9392 50.0693 40.2101 50.0693H45.9602C46.2311 50.0693 46.4513 49.8474 46.4513 49.5746V40.3346C46.4513 40.0617 46.2311 39.8399 45.9602 39.8399Z" fill="#EAEAE6"/>
<path fill-rule="evenodd" clip-rule="evenodd" d="M38.9435 39.8399H36.0227C35.8863 39.8399 35.7733 39.9518 35.7733 40.0911V49.818C35.7733 49.9554 35.8863 50.0693 36.0227 50.0693H38.9435C39.0799 50.0693 39.1929 49.9554 39.1929 49.818V40.0911C39.1929 39.9518 39.0799 39.8399 38.9435 39.8399Z" fill="#E7E9E3"/>
<path fill-rule="evenodd" clip-rule="evenodd" d="M36.4825 37.9122H33.0823C32.9225 37.9122 32.792 38.0437 32.792 38.2047V49.7768C32.792 49.9377 32.9225 50.0693 33.0823 50.0693H36.4825C36.6423 50.0693 36.7729 49.9377 36.7729 49.7768V38.2047C36.7729 38.0437 36.6423 37.9122 36.4825 37.9122Z" fill="#B3CEEB"/>
<path fill-rule="evenodd" clip-rule="evenodd" d="M37.7277 45.3325H31.8392C31.6501 45.3325 31.4962 45.4875 31.4962 45.678V49.7238C31.4962 49.9142 31.6501 50.0693 31.8392 50.0693H37.7277C37.9167 50.0693 38.0706 49.9142 38.0706 49.7238V45.678C38.0706 45.4875 37.9167 45.3325 37.7277 45.3325Z" fill="#B8D3EE"/>
<path fill-rule="evenodd" clip-rule="evenodd" d="M30.4927 41.3907H27.5719C27.4355 41.3907 27.3224 41.5045 27.3224 41.642V49.818C27.3224 49.9554 27.4355 50.0693 27.5719 50.0693H30.4927C30.6291 50.0693 30.7421 49.9554 30.7421 49.818V41.642C30.7421 41.5045 30.6291 41.3907 30.4927 41.3907Z" fill="#B8D3EE"/>
<path fill-rule="evenodd" clip-rule="evenodd" d="M44.8398 42.1327H41.3286C41.1474 42.1327 40.9993 42.2819 40.9993 42.4644V44.402C40.9993 44.5845 41.1474 44.7337 41.3286 44.7337H44.8398C45.021 44.7337 45.1691 44.5845 45.1691 44.402V42.4644C45.1691 42.2819 45.021 42.1327 44.8398 42.1327Z" fill="#E3E2DC"/>
<path fill-rule="evenodd" clip-rule="evenodd" d="M44.8925 45.3305H41.2779C41.1259 45.3305 40.9993 45.4561 40.9993 45.6093V45.8782C40.9993 46.0313 41.124 46.1589 41.2779 46.1589H44.8925C45.0464 46.1589 45.1711 46.0333 45.1711 45.8782V45.6093C45.1691 45.4561 45.0444 45.3305 44.8925 45.3305Z" fill="#E3E2DC"/>
<path fill-rule="evenodd" clip-rule="evenodd" d="M44.8925 46.9343H41.2779C41.1259 46.9343 40.9993 47.0599 40.9993 47.213V47.482C40.9993 47.6351 41.124 47.7627 41.2779 47.7627H44.8925C45.0464 47.7627 45.1711 47.6371 45.1711 47.482V47.213C45.1691 47.0599 45.0444 46.9343 44.8925 46.9343Z" fill="#E3E2DC"/>
<path fill-rule="evenodd" clip-rule="evenodd" d="M29.0313 44.8712C28.6338 44.8712 28.3123 45.2559 28.3123 45.731C28.3123 46.206 28.6338 46.5908 29.0313 46.5908C29.4288 46.5908 29.7503 46.206 29.7503 45.731C29.7503 45.2559 29.4288 44.8712 29.0313 44.8712Z" fill="#B3CEEB"/>
<path fill-rule="evenodd" clip-rule="evenodd" d="M30.5784 30.1857H29.0333C28.9241 30.1857 28.8345 30.276 28.8345 30.3859V31.55C28.8345 31.6599 28.9241 31.7482 29.0333 31.7482H30.5784C30.6876 31.7482 30.7753 31.6579 30.7753 31.55V30.3859C30.7753 30.276 30.6876 30.1857 30.5784 30.1857Z" fill="#DCE9F7"/>
<path fill-rule="evenodd" clip-rule="evenodd" d="M28.1019 27.6631H23.8579C23.6962 27.6631 23.5618 27.7966 23.5618 27.9615V31.4499C23.5618 31.6128 23.6943 31.7482 23.8579 31.7482H28.1019C28.2636 31.7482 28.398 31.6147 28.398 31.4499V27.9615C28.3961 27.7966 28.2636 27.6631 28.1019 27.6631Z" fill="#B8D3EE"/>
<path fill-rule="evenodd" clip-rule="evenodd" d="M26.0637 28.9647H23.174C23.0629 28.9647 22.9733 29.055 22.9733 29.1669V31.5441C22.9733 31.656 23.0629 31.7463 23.174 31.7463H26.0637C26.1747 31.7463 26.2644 31.656 26.2644 31.5441V29.1669C26.2644 29.0569 26.1747 28.9647 26.0637 28.9647Z" fill="#B3CEEB"/>
<path fill-rule="evenodd" clip-rule="evenodd" d="M24.0528 25.1583H21.5489C21.432 25.1583 21.3346 25.2545 21.3346 25.3743V31.5323C21.3346 31.6501 21.43 31.7482 21.5489 31.7482H24.0528C24.1697 31.7482 24.2671 31.6521 24.2671 31.5323V25.3743C24.2671 25.2565 24.1697 25.1583 24.0528 25.1583Z" fill="#DCE9F7"/>
<path fill-rule="evenodd" clip-rule="evenodd" d="M39.7483 27.1763H39.5866V26.8701H39.6411C39.7424 26.8701 39.8243 26.7719 39.8243 26.6502C39.8243 26.5285 39.7424 26.4304 39.6411 26.4304H39.4404V25.1347C39.4404 25.013 39.3566 24.9149 39.2572 24.9149C39.1559 24.9149 39.0741 25.013 39.0741 25.1347V26.4304H38.8734C38.7721 26.4304 38.6883 26.5285 38.6883 26.6502C38.6883 26.7719 38.7721 26.8701 38.8734 26.8701H38.9299V27.1763H38.7662C38.6532 27.1763 38.5616 27.2862 38.5616 27.4217V31.5009C38.5616 31.6363 38.6532 31.7463 38.7662 31.7463H39.7502C39.8632 31.7463 39.9568 31.6363 39.9568 31.5009V27.4217C39.9529 27.2862 39.8613 27.1763 39.7483 27.1763Z" fill="#B3CEEB"/>
<path fill-rule="evenodd" clip-rule="evenodd" d="M41.3402 27.6553H41.1941V27.3805H41.2448C41.3344 27.3805 41.4104 27.2921 41.4104 27.1842C41.4104 27.0762 41.3363 26.9879 41.2448 26.9879H41.0655V25.8297C41.0655 25.7217 40.9914 25.6334 40.8999 25.6334C40.8083 25.6334 40.7342 25.7217 40.7342 25.8297V26.9879H40.555C40.4634 26.9879 40.3893 27.0762 40.3893 27.1842C40.3893 27.2921 40.4634 27.3805 40.555 27.3805H40.6037V27.6553H40.4575C40.3562 27.6553 40.2724 27.7534 40.2724 27.8752V31.5264C40.2724 31.6481 40.3562 31.7463 40.4575 31.7463H41.3383C41.4396 31.7463 41.5214 31.6481 41.5214 31.5264V27.8752C41.5234 27.7554 41.4416 27.6553 41.3402 27.6553Z" fill="#B3CEEB"/>
<path fill-rule="evenodd" clip-rule="evenodd" d="M44.0623 27.4276H41.6345C41.5195 27.4276 41.426 27.5218 41.426 27.6376V31.5401C41.426 31.656 41.5195 31.7482 41.6345 31.7482H44.0623C44.1773 31.7482 44.2689 31.654 44.2689 31.5401V27.6376C44.2689 27.5218 44.1773 27.4276 44.0623 27.4276Z" fill="#DCE9F7"/>
<path fill-rule="evenodd" clip-rule="evenodd" d="M43.5888 28.3954H42.106C42.03 28.3954 41.9657 28.4582 41.9657 28.5347V29.3533C41.9657 29.4299 42.0281 29.4947 42.106 29.4947H43.5888C43.6648 29.4947 43.7291 29.4318 43.7291 29.3533V28.5347C43.7291 28.4582 43.6668 28.3954 43.5888 28.3954Z" fill="#F5F6F5"/>
<path fill-rule="evenodd" clip-rule="evenodd" d="M43.6123 29.7459H42.0865C42.0222 29.7459 41.9696 29.7989 41.9696 29.8637V29.9775C41.9696 30.0423 42.0222 30.0953 42.0865 30.0953H43.6123C43.6766 30.0953 43.7292 30.0423 43.7292 29.9775V29.8637C43.7292 29.7989 43.6766 29.7459 43.6123 29.7459Z" fill="#F5F6F5"/>
<path fill-rule="evenodd" clip-rule="evenodd" d="M43.6123 30.4232H42.0865C42.0222 30.4232 41.9696 30.4762 41.9696 30.541V30.6548C41.9696 30.7196 42.0222 30.7726 42.0865 30.7726H43.6123C43.6766 30.7726 43.7292 30.7196 43.7292 30.6548V30.541C43.7292 30.4762 43.6766 30.4232 43.6123 30.4232Z" fill="#F5F6F5"/>
<path fill-rule="evenodd" clip-rule="evenodd" d="M41.0596 29.0922H39.5671C39.4969 29.0922 39.4404 29.1492 39.4404 29.2198V31.6167C39.4404 31.6874 39.4969 31.7443 39.5671 31.7443H41.0596C41.1298 31.7443 41.1863 31.6874 41.1863 31.6167V29.2198C41.1863 29.1511 41.1298 29.0922 41.0596 29.0922Z" fill="#B8D3EE"/>
<path fill-rule="evenodd" clip-rule="evenodd" d="M37.8933 25.2584H32.8329C32.5952 25.2584 32.4003 25.4547 32.4003 25.6942V31.3124C32.4003 31.5519 32.5952 31.7482 32.8329 31.7482H37.8933C38.131 31.7482 38.3258 31.5519 38.3258 31.3124V25.6942C38.3239 25.4547 38.129 25.2584 37.8933 25.2584Z" fill="#B8D3EE"/>
<path fill-rule="evenodd" clip-rule="evenodd" d="M38.8597 29.0922H37.3672C37.297 29.0922 37.2405 29.1492 37.2405 29.2198V31.6167C37.2405 31.6874 37.297 31.7443 37.3672 31.7443H38.8597C38.9299 31.7443 38.9864 31.6874 38.9864 31.6167V29.2198C38.9864 29.1511 38.9299 29.0922 38.8597 29.0922Z" fill="#DCE9F7"/>
<path fill-rule="evenodd" clip-rule="evenodd" d="M15.2688 27.6631H19.5127C19.6744 27.6631 19.8089 27.7966 19.8089 27.9615V31.4499C19.8089 31.6128 19.6764 31.7482 19.5127 31.7482H18.8521C17.9168 30.5469 16.5392 29.7086 14.9745 29.4868V27.9596C14.9726 27.7966 15.1051 27.6631 15.2688 27.6631Z" fill="#B3CEEB"/>
<path fill-rule="evenodd" clip-rule="evenodd" d="M17.3069 28.9647H20.1966C20.3077 28.9647 20.3973 29.055 20.3973 29.1669V31.5441C20.3973 31.656 20.3077 31.7463 20.1966 31.7463H18.8521C18.3747 31.1319 17.7804 30.6136 17.1062 30.223V29.1669C17.1043 29.0569 17.1959 28.9647 17.3069 28.9647Z" fill="#B8D3EE"/>
<path fill-rule="evenodd" clip-rule="evenodd" d="M16.5178 29.7891H17.4784C17.5232 29.7891 17.5603 29.8264 17.5603 29.8716V30.5154C17.2115 30.2681 16.8334 30.0581 16.4359 29.8912V29.8735C16.4359 29.8264 16.473 29.7891 16.5178 29.7891Z" fill="#F0F1EE"/>
<path fill-rule="evenodd" clip-rule="evenodd" d="M10.2668 26.0692H7.92859C8.5151 27.1881 9.42897 28.1107 10.5377 28.7016V26.344C10.5396 26.1928 10.4169 26.0692 10.2668 26.0692Z" fill="#EAEAE6"/>
<path fill-rule="evenodd" clip-rule="evenodd" d="M9.64525 27.3412H8.81128C9.11525 27.6828 9.45819 27.991 9.82842 28.2599V27.5257C9.82842 27.4256 9.74658 27.3412 9.64525 27.3412Z" fill="#E3E2DC"/>
<path fill-rule="evenodd" clip-rule="evenodd" d="M12.1491 42.8728H11.8919V42.3899H11.9796C12.1394 42.3899 12.2699 42.2348 12.2699 42.0424C12.2699 41.852 12.1394 41.6969 11.9796 41.6969H11.6815C11.2762 41.7695 10.8767 41.8598 10.4831 41.9678C10.4792 41.9933 10.4753 42.0188 10.4753 42.0444C10.4753 42.2348 10.6059 42.3918 10.7657 42.3918H10.8533V42.8747H10.5961C10.4188 42.8747 10.2727 43.0494 10.2727 43.2614V49.6825C10.2727 49.8945 10.4188 50.0693 10.5961 50.0693H12.1472C12.3245 50.0693 12.4706 49.8945 12.4706 49.6825V43.2614C12.4726 43.0475 12.3264 42.8728 12.1491 42.8728Z" fill="#B3CEEB"/>
<path fill-rule="evenodd" clip-rule="evenodd" d="M14.655 43.6285H14.4251V43.1967H14.503C14.6452 43.1967 14.7622 43.0573 14.7622 42.8865C14.7622 42.7157 14.6452 42.5763 14.503 42.5763H14.2185V41.479C14.1932 41.479 14.1678 41.479 14.1425 41.479C13.9944 41.479 13.8483 41.4829 13.7002 41.4869V42.5763H13.4157C13.2735 42.5763 13.1566 42.7157 13.1566 42.8865C13.1566 43.0573 13.2735 43.1967 13.4157 43.1967H13.4936V43.6285H13.2637C13.1039 43.6285 12.9734 43.7836 12.9734 43.974V49.7218C12.9734 49.9122 13.1039 50.0673 13.2637 50.0673H14.6511C14.8109 50.0673 14.9414 49.9122 14.9414 49.7218V43.974C14.9453 43.7836 14.8148 43.6285 14.655 43.6285Z" fill="#DEDED7"/>
<path fill-rule="evenodd" clip-rule="evenodd" d="M18.9417 43.2693H15.1187C14.9394 43.2693 14.7933 43.4165 14.7933 43.5971V49.7395C14.7933 49.9201 14.9394 50.0673 15.1187 50.0673H18.9417C19.121 50.0673 19.2691 49.9201 19.2691 49.7395V43.5971C19.2691 43.4165 19.121 43.2693 18.9417 43.2693Z" fill="#F9F9FA"/>
<path fill-rule="evenodd" clip-rule="evenodd" d="M18.1974 44.7926H15.8631C15.7423 44.7926 15.6448 44.8927 15.6448 45.0144V46.3022C15.6448 46.4239 15.7442 46.524 15.8631 46.524H18.1974C18.3182 46.524 18.4157 46.4239 18.4157 46.3022V45.0144C18.4157 44.8908 18.3182 44.7926 18.1974 44.7926Z" fill="#F5F6F5"/>
<path fill-rule="evenodd" clip-rule="evenodd" d="M18.2325 46.9186H15.828C15.7267 46.9186 15.6429 47.003 15.6429 47.1051V47.2837C15.6429 47.3858 15.7247 47.4702 15.828 47.4702H18.2305C18.3319 47.4702 18.4157 47.3858 18.4157 47.2837V47.1051C18.4157 47.003 18.3338 46.9186 18.2325 46.9186Z" fill="#F5F6F5"/>
<path fill-rule="evenodd" clip-rule="evenodd" d="M18.2325 47.9845H15.828C15.7267 47.9845 15.6429 48.067 15.6429 48.171V48.3497C15.6429 48.4517 15.7247 48.5361 15.828 48.5361H18.2305C18.3319 48.5361 18.4157 48.4517 18.4157 48.3497V48.171C18.4157 48.0689 18.3338 47.9845 18.2325 47.9845Z" fill="#F5F6F5"/>
<path fill-rule="evenodd" clip-rule="evenodd" d="M14.2146 45.89H11.8666C11.7555 45.89 11.6659 45.9803 11.6659 46.0921V49.8671C11.6659 49.979 11.7555 50.0693 11.8666 50.0693H14.2165C14.3276 50.0693 14.4172 49.979 14.4172 49.8671V46.0921C14.4153 45.9822 14.3256 45.89 14.2146 45.89Z" fill="#EAEAE6"/>
<path fill-rule="evenodd" clip-rule="evenodd" d="M1.17496 50.0634C1.20419 50.0673 1.23341 50.0693 1.26264 50.0693H9.23023C9.60435 50.0693 9.91027 49.7611 9.91027 49.3842V42.1366C5.9937 43.3832 2.80199 46.3081 1.17496 50.0634Z" fill="#C1DBF2"/>
<path fill-rule="evenodd" clip-rule="evenodd" d="M10.7501 45.89H8.40013C8.28907 45.89 8.19943 45.9803 8.19943 46.0921V49.8671C8.19943 49.979 8.28907 50.0693 8.40013 50.0693H10.7501C10.8611 50.0693 10.9508 49.979 10.9508 49.8671V46.0921C10.9508 45.9822 10.8611 45.89 10.7501 45.89Z" fill="#C1DBF2"/>
<path fill-rule="evenodd" clip-rule="evenodd" d="M24.2204 62.4678H30.3719C30.6077 62.4678 30.8006 62.6622 30.8006 62.8997V67.9585C30.8006 68.196 30.6077 68.3903 30.3719 68.3903H24.2204C23.9846 68.3903 23.7917 68.196 23.7917 67.9585V62.8997C23.7917 62.6622 23.9846 62.4678 24.2204 62.4678Z" fill="#EAEAE6"/>
<path fill-rule="evenodd" clip-rule="evenodd" d="M27.1744 64.3563H31.3657C31.5255 64.3563 31.658 64.4878 31.658 64.6507V68.0959C31.658 68.2569 31.5274 68.3903 31.3657 68.3903H27.1744C27.0146 68.3903 26.8821 68.2588 26.8821 68.0959V64.6507C26.884 64.4898 27.0146 64.3563 27.1744 64.3563Z" fill="#E1E1D9"/>
<path fill-rule="evenodd" clip-rule="evenodd" d="M30.0913 58.8401H33.7214C33.891 58.8401 34.0313 58.9815 34.0313 59.1523V68.0782C34.0313 68.251 33.891 68.3903 33.7214 68.3903H30.0913C29.9198 68.3903 29.7815 68.251 29.7815 68.0782V59.1523C29.7815 58.9795 29.9198 58.8401 30.0913 58.8401Z" fill="#B8D3EE"/>
<path fill-rule="evenodd" clip-rule="evenodd" d="M7.33624 61.7631H7.57202V61.3175H7.49213C7.34599 61.3175 7.22518 61.1742 7.22518 60.9995C7.22518 60.8248 7.34599 60.6795 7.49213 60.6795H7.78441V58.8028C7.78441 58.6281 7.90522 58.4828 8.05136 58.4828C8.1975 58.4828 8.31831 58.6261 8.31831 58.8028V60.6795H8.61059C8.75673 60.6795 8.87754 60.8228 8.87754 60.9995C8.87754 61.1742 8.75673 61.3175 8.61059 61.3175H8.5307V61.7631H8.76647C8.93015 61.7631 9.0646 61.9241 9.0646 62.1184V68.033C9.0646 68.2293 8.93015 68.3903 8.76647 68.3903H7.67919C7.4629 68.2784 7.25051 68.1587 7.04201 68.035V68.033V62.1184C7.03812 61.9241 7.17257 61.7631 7.33624 61.7631Z" fill="#DEDED7"/>
<path fill-rule="evenodd" clip-rule="evenodd" d="M5.02723 62.458H5.23768V62.0595H5.16558C5.03503 62.0595 4.92591 61.9299 4.92591 61.7729C4.92591 61.6158 5.03308 61.4863 5.16558 61.4863H5.42669V59.8059C5.42669 59.6489 5.53386 59.5213 5.66636 59.5213C5.79691 59.5213 5.90603 59.6489 5.90603 59.8059V61.4863H6.16713C6.29768 61.4863 6.4068 61.6139 6.4068 61.7729C6.4068 61.9299 6.29963 62.0595 6.16713 62.0595H6.09504V62.458H6.30548C6.45162 62.458 6.57243 62.6013 6.57243 62.776V67.7464C5.93136 67.3342 5.32731 66.8709 4.76028 66.3644V62.778C4.76028 62.6013 4.88109 62.458 5.02723 62.458Z" fill="#DEDED7"/>
<path fill-rule="evenodd" clip-rule="evenodd" d="M1.51596 62.1282H4.6005C4.76613 62.1282 4.90058 62.2637 4.90058 62.4305V66.494C3.51127 65.2789 2.35578 63.7948 1.51596 62.1282Z" fill="#F9F9FA"/>
<path fill-rule="evenodd" clip-rule="evenodd" d="M2.32462 63.5298H3.91462C4.02569 63.5298 4.11727 63.6221 4.11727 63.734V64.9196C4.11727 65.0315 4.02569 65.1238 3.91462 65.1238H3.53271C3.09429 64.6232 2.69094 64.0893 2.32462 63.5298Z" fill="#F5F6F5"/>
<path fill-rule="evenodd" clip-rule="evenodd" d="M5.43252 64.5427H7.5954C7.69672 64.5427 7.78051 64.6271 7.78051 64.7292V68.2058C7.78051 68.2862 7.7279 68.3569 7.6558 68.3805C6.79845 67.9309 5.99175 67.395 5.24741 66.7865V64.7292C5.24935 64.6252 5.33119 64.5427 5.43252 64.5427Z" fill="#EAEAE6"/>
<path fill-rule="evenodd" clip-rule="evenodd" d="M10.0252 58.9814H17.3615C17.7064 58.9814 17.987 59.2661 17.987 59.6116V67.7582C17.987 68.1057 17.7044 68.3883 17.3615 68.3883H10.0252C9.68034 68.3883 9.39975 68.1037 9.39975 67.7582V59.6116C9.39975 59.2661 9.68034 58.9814 10.0252 58.9814Z" fill="#EAEAE6"/>
<path fill-rule="evenodd" clip-rule="evenodd" d="M8.62426 64.5427H10.7871C10.8885 64.5427 10.9723 64.6271 10.9723 64.7292V68.2058C10.9723 68.3078 10.8885 68.3923 10.7871 68.3923H8.62426C8.52293 68.3923 8.43915 68.3078 8.43915 68.2058V64.7292C8.43915 64.6252 8.52293 64.5427 8.62426 64.5427Z" fill="#F9F9FA"/>
<path fill-rule="evenodd" clip-rule="evenodd" d="M42.825 62.4678H36.6735C36.4377 62.4678 36.2448 62.6622 36.2448 62.8997V67.9585C36.2448 68.196 36.4377 68.3903 36.6735 68.3903H42.825C43.0608 68.3903 43.2537 68.196 43.2537 67.9585V62.8997C43.2537 62.6622 43.0608 62.4678 42.825 62.4678Z" fill="#EAEAE6"/>
<path fill-rule="evenodd" clip-rule="evenodd" d="M39.871 64.3563H35.6817C35.5219 64.3563 35.3894 64.4878 35.3894 64.6507V68.0959C35.3894 68.2569 35.5199 68.3903 35.6817 68.3903H39.871C40.0327 68.3903 40.1633 68.2588 40.1633 68.0959V64.6507C40.1633 64.4898 40.0327 64.3563 39.871 64.3563Z" fill="#E1E1D9"/>
<path fill-rule="evenodd" clip-rule="evenodd" d="M8.67102 46.4239H3.45478C1.87256 48.2652 0.748253 50.5149 0.265015 52.9903C0.446229 53.0923 0.654723 53.1493 0.874908 53.1493H8.67102C9.36665 53.1493 9.93563 52.5761 9.93563 51.8753V47.6979C9.93563 46.9971 9.36665 46.4239 8.67102 46.4239Z" fill="#331C38"/>
<path fill-rule="evenodd" clip-rule="evenodd" d="M13.2111 46.4239H5.41502C4.7194 46.4239 4.15042 46.9971 4.15042 47.6979V51.8753C4.15042 52.5761 4.7194 53.1493 5.41502 53.1493H13.2111C13.9068 53.1493 14.4757 52.5761 14.4757 51.8753V47.6979C14.4777 46.9971 13.9068 46.4239 13.2111 46.4239Z" fill="#4F3F55"/>
<path fill-rule="evenodd" clip-rule="evenodd" d="M12.798 46.1098H11.4711C11.2996 46.1098 11.1593 46.2511 11.1593 46.4239V47.2386C11.1593 47.4113 11.2996 47.5526 11.4711 47.5526H12.798C12.9695 47.5526 13.1098 47.4113 13.1098 47.2386V46.4239C13.1078 46.2511 12.9675 46.1098 12.798 46.1098Z" fill="#331C38"/>
<path fill-rule="evenodd" clip-rule="evenodd" d="M12.798 46.1098H11.7497C11.5782 46.1098 11.4379 46.2511 11.4379 46.4239V47.2386C11.4379 47.4113 11.5782 47.5526 11.7497 47.5526H12.7961C12.9675 47.5526 13.1078 47.4113 13.1078 47.2386V46.4239C13.1078 46.2511 12.9675 46.1098 12.798 46.1098Z" fill="#4F3F55"/>
<path fill-rule="evenodd" clip-rule="evenodd" d="M12.6207 46.7262C12.5584 46.7262 12.5077 46.7772 12.5077 46.8401V47.3681H12.0927V46.8401C12.0927 46.7772 12.042 46.7262 11.9797 46.7262C11.9173 46.7262 11.8666 46.7772 11.8666 46.8401V47.5585V47.6822V48.2495C11.8666 48.3536 11.9524 48.4399 12.0556 48.4399H12.5486C12.6519 48.4399 12.7376 48.3536 12.7376 48.2495V47.6822V47.5585V46.8401C12.7357 46.7772 12.6831 46.7262 12.6207 46.7262Z" fill="#3F2C44"/>
<path fill-rule="evenodd" clip-rule="evenodd" d="M7.2661 46.1098H5.93915C5.76768 46.1098 5.62738 46.2511 5.62738 46.4239V47.2386C5.62738 47.4113 5.76768 47.5526 5.93915 47.5526H7.2661C7.43758 47.5526 7.57787 47.4113 7.57787 47.2386V46.4239C7.57787 46.2511 7.43758 46.1098 7.2661 46.1098Z" fill="#331C38"/>
<path fill-rule="evenodd" clip-rule="evenodd" d="M7.26612 46.1098H6.21976C6.04828 46.1098 5.90799 46.2511 5.90799 46.4239V47.2386C5.90799 47.4113 6.04828 47.5526 6.21976 47.5526H7.26612C7.43759 47.5526 7.57789 47.4113 7.57789 47.2386V46.4239C7.57789 46.2511 7.43759 46.1098 7.26612 46.1098Z" fill="#4F3F55"/>
<path fill-rule="evenodd" clip-rule="evenodd" d="M7.09075 46.7262C7.0284 46.7262 6.97774 46.7772 6.97774 46.8401V47.3681H6.5627V46.8401C6.5627 46.7772 6.51203 46.7262 6.44773 46.7262C6.38538 46.7262 6.33472 46.7772 6.33472 46.8401V47.5585V47.6822V48.2495C6.33472 48.3536 6.42045 48.4399 6.52373 48.4399H7.01476C7.11803 48.4399 7.20377 48.3536 7.20377 48.2495V47.6822V47.5585V46.8401C7.20377 46.7772 7.1531 46.7262 7.09075 46.7262Z" fill="#5A4A60"/>
<path fill-rule="evenodd" clip-rule="evenodd" d="M13.4917 48.9503H5.13637C5.01166 48.9503 4.90839 49.0544 4.90839 49.18C4.90839 49.3056 5.01166 49.4097 5.13637 49.4097H13.4917C13.6164 49.4097 13.7197 49.3056 13.7197 49.18C13.7197 49.0524 13.6164 48.9503 13.4917 48.9503Z" fill="#331C38"/>
<path fill-rule="evenodd" clip-rule="evenodd" d="M13.4917 49.922H5.13637C5.01166 49.922 4.90839 50.0261 4.90839 50.1517C4.90839 50.2773 5.01166 50.3814 5.13637 50.3814H13.4917C13.6164 50.3814 13.7197 50.2773 13.7197 50.1517C13.7197 50.0241 13.6164 49.922 13.4917 49.922Z" fill="#331C38"/>
<path fill-rule="evenodd" clip-rule="evenodd" d="M13.4917 50.8918H5.13637C5.01166 50.8918 4.90839 50.9958 4.90839 51.1214C4.90839 51.2471 5.01166 51.3511 5.13637 51.3511H13.4917C13.6164 51.3511 13.7197 51.2471 13.7197 51.1214C13.7197 50.9958 13.6164 50.8918 13.4917 50.8918Z" fill="#331C38"/>
<path fill-rule="evenodd" clip-rule="evenodd" d="M13.4917 51.8635H5.13637C5.01166 51.8635 4.90839 51.9675 4.90839 52.0931C4.90839 52.2188 5.01166 52.3228 5.13637 52.3228H13.4917C13.6164 52.3228 13.7197 52.2188 13.7197 52.0931C13.7197 51.9675 13.6164 51.8635 13.4917 51.8635Z" fill="#331C38"/>
<path fill-rule="evenodd" clip-rule="evenodd" d="M5.04867 53.0609H15.1519C16.054 53.0609 16.7906 53.8049 16.7906 54.7119V60.1259C16.7906 61.0348 16.0521 61.7768 15.1519 61.7768H5.04867C4.14649 61.7768 3.40994 61.0329 3.40994 60.1259V54.7119C3.40994 53.8049 4.14844 53.0609 5.04867 53.0609Z" fill="#331C38"/>
<path fill-rule="evenodd" clip-rule="evenodd" d="M0.251362 53.0609H9.26921C10.1714 53.0609 10.9079 53.8049 10.9079 54.7119V60.1259C10.9079 61.0348 10.1714 61.7768 9.26921 61.7768H1.34644C0.485187 59.9394 0 57.8881 0 55.7287C0 54.8179 0.0876843 53.9266 0.251362 53.0609Z" fill="#4F3F55"/>
<path fill-rule="evenodd" clip-rule="evenodd" d="M0.335146 52.6546H1.42243C1.64457 52.6546 1.82578 52.8372 1.82578 53.0609V54.1171C1.82578 54.3408 1.64457 54.5234 1.42243 54.5234H0.0506592C0.105218 53.8874 0.200697 53.2651 0.335146 52.6546Z" fill="#331C38"/>
<path fill-rule="evenodd" clip-rule="evenodd" d="M0.335146 52.6546H1.06C1.28214 52.6546 1.46335 52.8372 1.46335 53.0609V54.1171C1.46335 54.3408 1.28214 54.5234 1.06 54.5234H0.0506592C0.105218 53.8874 0.200697 53.2651 0.335146 52.6546Z" fill="#4F3F55"/>
<path fill-rule="evenodd" clip-rule="evenodd" d="M0.0779416 54.2368V54.2859H0.615739V53.6027C0.615739 53.5203 0.681989 53.4536 0.763828 53.4536C0.845667 53.4536 0.911917 53.5203 0.911917 53.6027V54.5332V54.6922V55.4264C0.911917 55.5619 0.80085 55.6737 0.666401 55.6737H0.0272796C0.0175369 55.6737 0.0097427 55.6738 0 55.6718C0.00194854 55.1889 0.0292281 54.7099 0.0779416 54.2368Z" fill="#3F2C44"/>
<path fill-rule="evenodd" clip-rule="evenodd" d="M6.87054 52.6546H8.5911C8.81324 52.6546 8.99445 52.8372 8.99445 53.0609V54.1171C8.99445 54.3408 8.81324 54.5234 8.5911 54.5234H6.87054C6.64841 54.5234 6.46719 54.3408 6.46719 54.1171V53.0609C6.46719 52.8372 6.64841 52.6546 6.87054 52.6546Z" fill="#331C38"/>
<path fill-rule="evenodd" clip-rule="evenodd" d="M6.87054 52.6546H8.22673C8.44886 52.6546 8.63007 52.8372 8.63007 53.0609V54.1171C8.63007 54.3408 8.44886 54.5234 8.22673 54.5234H6.87054C6.64841 54.5234 6.46719 54.3408 6.46719 54.1171V53.0609C6.46719 52.8372 6.64841 52.6546 6.87054 52.6546Z" fill="#4F3F55"/>
<path fill-rule="evenodd" clip-rule="evenodd" d="M7.09854 53.4536C7.18038 53.4536 7.24663 53.5203 7.24663 53.6027V54.2859H7.78443V53.6027C7.78443 53.5203 7.85068 53.4536 7.93252 53.4536C8.01436 53.4536 8.08061 53.5203 8.08061 53.6027V54.5332V54.6922V55.4264C8.08061 55.5619 7.96954 55.6737 7.83509 55.6737H7.19792C7.06347 55.6737 6.9524 55.5619 6.9524 55.4264V54.6922V54.5332V53.6027C6.95046 53.5203 7.01671 53.4536 7.09854 53.4536Z" fill="#3F2C44"/>
<path fill-rule="evenodd" clip-rule="evenodd" d="M0.0136414 56.3353H9.63164C9.79337 56.3353 9.92782 56.4688 9.92782 56.6337C9.92782 56.7966 9.79531 56.9321 9.63164 56.9321H0.0506636C0.0350753 56.7338 0.0214355 56.5355 0.0136414 56.3353Z" fill="#331C38"/>
<path fill-rule="evenodd" clip-rule="evenodd" d="M0.122772 57.5936H9.63165C9.79338 57.5936 9.92783 57.7271 9.92783 57.892C9.92783 58.0549 9.79533 58.1904 9.63165 58.1904H0.212405C0.17928 57.9921 0.148103 57.7938 0.122772 57.5936Z" fill="#331C38"/>
<path fill-rule="evenodd" clip-rule="evenodd" d="M0.34491 58.8539H9.62971C9.79144 58.8539 9.92589 58.9874 9.92589 59.1523C9.92589 59.3152 9.79339 59.4506 9.62971 59.4506H0.492999C0.440388 59.2524 0.389726 59.0541 0.34491 58.8539Z" fill="#331C38"/>
<path fill-rule="evenodd" clip-rule="evenodd" d="M0.689789 60.1122H9.63164C9.79337 60.1122 9.92782 60.2457 9.92782 60.4106C9.92782 60.5755 9.79532 60.709 9.63164 60.709H0.896334C0.824238 60.5107 0.754091 60.3124 0.689789 60.1122Z" fill="#331C38"/>
<path fill-rule="evenodd" clip-rule="evenodd" d="M24.9355 57.8586C24.9355 57.8586 25.5746 60.0003 25.8883 62.5954H11.9484C11.8978 60.7835 12.0478 59.3427 12.5389 58.6949C14.5829 55.9878 23.4819 56.1881 24.9355 57.8586Z" fill="#05304B"/>
<path fill-rule="evenodd" clip-rule="evenodd" d="M23.4838 51.6044C23.4702 52.7488 23.4897 53.7676 23.5715 54.2525C22.6401 53.8403 21.5957 54.5489 21.6366 55.3302C21.6892 56.351 21.5665 57.0184 22.8583 58.9873C23.4643 59.91 24.0002 60.1848 24.3996 60.2162C23.7897 60.6854 23.0922 61.1015 22.5602 61.2017C22.5602 61.2017 22.4569 61.2488 22.3089 61.0289C22.1608 60.809 21.5665 58.4514 21.1651 57.89C21.0365 57.7114 21.1397 56.1056 21.3404 53.9993C19.2535 54.6824 15.8163 54.545 14.2516 54.0052C14.1094 53.7558 14.0353 53.6008 14.0509 53.5713C14.1074 53.4516 15.2123 51.7967 16.5314 49.9142C17.6869 51.7496 18.6885 53.2769 18.6885 53.2769L23.4838 51.6044Z" fill="#004268"/>
<path fill-rule="evenodd" clip-rule="evenodd" d="M14.01 52.7586C14.0587 52.578 14.0938 52.419 14.1133 52.2816C14.1386 52.1069 14.1483 51.9047 14.1483 51.6829C14.3062 49.8867 14.0801 48.2063 13.3319 46.3061C12.0731 43.1142 10.2142 37.8454 10.2123 37.8435C10.2902 37.763 10.3701 37.6864 10.45 37.6138C10.6351 37.4018 10.8982 37.2192 11.1866 37.0661C11.7419 36.7363 12.344 36.5479 13.0201 36.4262L13.0318 36.4242C13.0318 36.4242 13.0416 36.4222 13.0591 36.4203C14.4562 36.1788 16.1651 36.222 18.4273 35.9295C18.5657 35.9334 18.6534 35.9511 18.782 35.9531C20.3856 35.9747 24.8146 41.5399 24.1132 44.3981C24.1132 44.3981 23.7585 45.9116 23.6182 48.0552C23.4779 50.2008 23.3883 53.9659 23.6319 54.494C23.8754 55.022 26.6112 60.2889 26.7554 60.6481C27.3848 62.2205 16.2079 62.8212 12.5486 59.6116C12.7434 58.1766 12.9987 56.7416 13.3299 55.6207C13.632 54.5941 13.8619 53.6557 14.01 52.7586Z" fill="white"/>
<path fill-rule="evenodd" clip-rule="evenodd" d="M14.01 52.7586C14.0587 52.58 14.0938 52.419 14.1133 52.2816C14.1386 52.1069 14.1483 51.9047 14.1483 51.6809C14.3062 49.8847 14.0801 48.2063 13.3319 46.3061C12.0731 43.1142 10.2142 37.8474 10.2123 37.8435C10.2902 37.763 10.3701 37.6864 10.45 37.6138C10.6351 37.4018 10.8982 37.2192 11.1866 37.0661C11.7419 36.7363 12.344 36.5479 13.0201 36.4261L13.0318 36.4242C13.0318 36.4242 13.0416 36.4222 13.0591 36.4203C13.4059 36.3594 13.8366 36.1121 14.2263 36.0787C14.7777 36.0296 15.3097 36.2024 15.9644 36.1592C15.9644 36.1592 12.2349 39.0174 16.0521 46.2649C17.8973 49.767 16.2001 52.0068 13.9223 53.2455C13.9554 53.0786 13.9847 52.9176 14.01 52.7586Z" fill="#FDF1EF"/>
<path fill-rule="evenodd" clip-rule="evenodd" d="M14.3452 31.3615L14.4368 32.5864C14.4368 32.5864 14.5166 35.0991 14.5283 35.4819C14.5342 35.6429 14.4075 35.8294 14.1776 35.9982C13.936 36.1749 15.0505 36.7167 14.6082 36.807C14.6004 36.8089 16.4496 36.7991 17.6577 36.7815C18.4176 36.7697 18.821 37.5117 18.6748 35.8745C18.6748 35.8647 18.6573 35.8667 18.6495 35.8628C18.3786 35.7469 18.5014 35.8647 18.2676 35.6586C18.2345 35.6292 18.1974 35.5938 18.1585 35.5546C17.7278 35.1109 17.6811 33.0674 18.0805 32.5197C18.48 31.972 14.3452 31.3615 14.3452 31.3615Z" fill="#E8685B"/>
<path fill-rule="evenodd" clip-rule="evenodd" d="M28.6494 40.6153L29.7016 40.4366C29.7016 40.4366 30.4791 41.7538 29.1677 44.2351C29.1677 44.2351 28.6124 43.444 28.552 43.0082C28.4935 42.5705 28.6494 40.6153 28.6494 40.6153Z" fill="#F8CFBE"/>
<path fill-rule="evenodd" clip-rule="evenodd" d="M20.3467 36.3849C23.3163 37.547 27.2699 39.567 30.2687 40.947C31.1124 41.3357 31.8567 41.6733 32.0243 40.9725C32.4023 39.4001 32.6459 36.0944 32.755 34.0155C32.7823 33.4914 32.2075 32.9457 32.0633 32.6473C31.9873 32.4883 33.0317 32.0839 33.1856 32.1251C33.7371 32.2665 34.4561 31.7541 34.7172 32.1526C34.6685 32.3842 34.5165 33.0262 34.5379 33.8251C34.5866 35.5663 34.875 38.5757 34.0177 43.1476C34.006 43.1829 34.1813 42.5273 33.9845 43.2556C33.8306 43.8229 33.133 44.3509 32.5212 44.4373C31.3871 44.5983 24.4795 42.2995 23.2714 41.689C22.5719 41.3357 21.9484 40.9549 21.3853 40.5642C21.851 39.3982 19.9667 37.4567 20.3467 36.3849Z" fill="#F4AD85"/>
<path fill-rule="evenodd" clip-rule="evenodd" d="M34.2924 32.1153C34.5223 32.1133 34.6509 32.0603 34.7561 32.2194C34.7074 32.451 34.5165 33.0262 34.5379 33.8251C34.5866 35.5663 34.875 38.5757 34.0176 43.1476C34.0059 43.1829 34.1813 42.5273 33.9845 43.2556C33.8306 43.8229 33.133 44.3509 32.5212 44.4373C31.9756 44.5139 30.0991 44.0251 28.1603 43.4263C28.0395 42.541 27.9674 41.9403 27.9674 41.9403L29.1287 41.0197C29.1287 41.0197 29.7075 42.6902 30.1926 43.0946C30.6778 43.499 32.4062 43.7228 32.9187 43.5068C33.4311 43.2929 34.0917 38.4108 34.0605 36.2907C34.0293 34.1706 33.8793 33.4875 33.6942 33.0831C33.5734 32.8142 33.9533 32.5923 34.2924 32.1153Z" fill="#EF8871"/>
<path fill-rule="evenodd" clip-rule="evenodd" d="M19.8771 36.4732L20.222 36.3083C20.222 36.3083 24.1093 37.6628 29.7036 40.4366C29.3879 40.8116 28.5539 43.0082 29.1697 44.2351L25.2063 43.7757L19.8771 36.4732Z" fill="white"/>
<path fill-rule="evenodd" clip-rule="evenodd" d="M19.8771 36.4732L20.222 36.3083H20.2239H20.2259L20.2298 36.3103L20.2337 36.3123H20.2356L20.2434 36.3142L20.2473 36.3162L20.2512 36.3182L20.2609 36.3221L20.2648 36.3241L20.2726 36.326L20.2863 36.3319L20.2902 36.3339L20.3019 36.3378L20.3194 36.3437L20.3369 36.3496L20.3545 36.3555H20.3564L20.3779 36.3633L20.3954 36.3692L20.4012 36.3712L20.4266 36.381L20.4422 36.3869L20.4538 36.3908L20.4811 36.4006L20.4928 36.4045L20.5104 36.4104L20.5415 36.4222L20.5493 36.4261L20.5747 36.4359L20.6097 36.4477L20.6136 36.4497L20.6467 36.4615L20.6818 36.4752H20.6838L20.7227 36.4889L20.7539 36.5007L20.7637 36.5047L20.8046 36.5204L20.8319 36.5302L20.8474 36.5361L20.8923 36.5537L20.9137 36.5616L20.939 36.5714L20.9858 36.5891L21.0014 36.595L21.0345 36.6067L21.0852 36.6264L21.093 36.6283L21.1378 36.646L21.1904 36.6656L21.245 36.6872L21.2917 36.7049L21.3015 36.7088L21.358 36.7304L21.3969 36.7461L21.4164 36.754L21.4768 36.7775L21.508 36.7893L21.5372 36.8011L21.545 36.805L21.6639 36.8521L21.7301 36.8776L21.7438 36.8835L21.7983 36.9051L21.8665 36.9326H21.8685L21.9347 36.9581L21.9971 36.9836L22.0049 36.9876L22.077 37.017L22.1296 37.0386L22.151 37.0465L22.2251 37.0759L22.2679 37.0936L22.3011 37.1073L22.379 37.1387L22.4102 37.1525L22.4569 37.1721L22.5368 37.2035L22.5972 37.2271L22.6187 37.2349L22.7005 37.2683L22.7083 37.2722L22.7843 37.3036L22.8622 37.337L22.8681 37.3389L22.9538 37.3743L23.022 37.4018L23.0415 37.4096L23.1292 37.4449L23.1838 37.4685L23.2188 37.4822L23.3085 37.5195C23.6319 38.4775 24.1483 39.567 24.9784 40.5603C26.4495 42.3211 28.2168 42.0483 29.1599 41.7165C28.9339 42.5273 28.815 43.5382 29.1638 44.2371L22.4881 43.4499L19.8771 36.4732Z" fill="#FDF1EF"/>
<path fill-rule="evenodd" clip-rule="evenodd" d="M6.90757 47.1895L6.56073 47.3681C6.56073 47.3681 6.5958 47.7862 7.70647 48.5459C8.81714 49.3076 9.69204 49.6315 9.69204 49.6315L9.72711 48.7364L6.90757 47.1895Z" fill="#F8CFBE"/>
<path fill-rule="evenodd" clip-rule="evenodd" d="M19.0509 35.9845C22.9304 39.9105 17.6421 41.9914 15.1596 38.8485C13.6106 36.8894 12.9052 36.4458 12.9052 36.4458C12.9052 36.4458 12.8487 36.3947 12.7415 36.4104C12.6363 36.4261 11.7555 36.7402 11.6581 36.7775C11.5626 36.8129 11.5529 36.8698 11.5529 36.8698C11.5529 36.8698 16.4009 40.6565 12.7181 45.2893C12.7181 45.2893 15.6974 49.1721 12.7649 55.552C12.7649 55.552 10.4325 60.5872 11.6562 61.7513C12.8798 62.9154 27.2464 60.9975 27.2464 60.9975C27.2464 60.9975 24.9666 56.6454 24.4425 55.5736C23.9164 54.5018 23.4936 53.4045 23.6728 50.5895C23.8521 47.7745 24.3938 44.6042 24.2769 42.8178C24.16 41.0334 20.5883 36.754 20.409 36.4576C20.2317 36.1611 19.2282 35.9079 19.0509 35.9845Z" fill="#E67170"/>
<path fill-rule="evenodd" clip-rule="evenodd" d="M14.0919 42.0051C13.8795 43.603 13.1936 44.7887 12.7201 45.2893C12.7201 45.2893 15.6994 49.1722 12.7688 55.552C12.7688 55.552 10.7267 59.8099 11.2977 61.553C11.8686 63.2943 13.1079 61.2664 14.0042 61.2586C14.1289 55.9348 14.9083 45.46 23.8872 48.2181C24.0216 46.9402 24.1717 45.6858 24.2477 44.6081C20.8631 45.9253 14.5907 47.2719 14.0919 42.0051Z" fill="#D84F50"/>
<path fill-rule="evenodd" clip-rule="evenodd" d="M10.0428 38.0555C9.58294 38.8564 5.43839 50.4305 5.86512 52.7429C6.29186 55.0573 9.51474 59.27 11.1866 60.4086C11.1866 60.4086 11.3756 60.5244 11.4789 60.2515C11.5841 59.9787 11.9602 60.0337 12.346 59.802C10.5981 56.7436 9.69596 55.6934 8.60867 52.3091C8.01242 50.4579 11.9153 45.5131 12.5973 44.3392C14.2244 41.5477 11.0521 36.3025 10.0428 38.0555Z" fill="#F4AD85"/>
<path fill-rule="evenodd" clip-rule="evenodd" d="M14.5381 60.707C14.5556 60.0042 14.0003 59.4153 13.3027 59.3976L12.0888 59.3662C11.3912 59.3486 10.8066 59.908 10.7891 60.6088C10.7871 60.6422 10.7891 60.6736 10.791 60.705H14.5381V60.707Z" fill="#F4AD85"/>
<path fill-rule="evenodd" clip-rule="evenodd" d="M7.58761 22.1686C6.09308 22.5848 5.21624 24.1415 5.62933 25.6471C6.04242 27.1528 7.58761 28.0361 9.08214 27.62C10.5767 27.2038 11.4535 25.6471 11.0404 24.1415C10.6273 22.6358 9.08019 21.7524 7.58761 22.1686Z" fill="#3F2C44"/>
<path fill-rule="evenodd" clip-rule="evenodd" d="M12.0517 20.9201C12.0517 20.9201 9.92976 19.9936 8.79571 22.1902C7.89938 23.9295 7.26415 26.2969 8.09228 29.051C8.21504 29.4358 9.7466 33.9606 13.7801 33.4659C17.9909 32.9496 19.9355 29.4103 19.9355 29.4103C24.2905 26.2007 16.9055 15.7828 12.0517 20.9201Z" fill="#3F2C44"/>
<path fill-rule="evenodd" clip-rule="evenodd" d="M8.02409 24.1532C7.63633 25.5666 7.5428 27.2195 8.08839 29.0432C8.18776 29.3573 9.71152 33.9665 13.7801 33.4659C13.2793 30.8119 12.8233 28.89 12.8233 28.89L17.0283 26.4323L16.8783 22.8459C11.208 30.3545 8.02604 24.1552 8.02409 24.1532Z" fill="#331C38"/>
<path fill-rule="evenodd" clip-rule="evenodd" d="M19.8225 29.5968C18.7274 27.6691 12.6012 29.3946 12.6012 29.3946L11.3327 28.4818C11.3327 28.4818 9.07433 29.0353 9.89077 32.0584C10.7871 32.9693 12.0537 33.6779 13.782 33.4659C17.4082 33.0203 19.3529 30.3329 19.8225 29.5968Z" fill="#331C38"/>
<path fill-rule="evenodd" clip-rule="evenodd" d="M10.6312 28.786C9.92586 28.8861 9.43483 29.5437 9.5342 30.2544C9.63358 30.965 10.2863 31.4597 10.9917 31.3595C11.6971 31.2594 12.1881 30.6018 12.0887 29.8912C11.9874 29.1806 11.3347 28.6859 10.6312 28.786Z" fill="#E8685B"/>
<path fill-rule="evenodd" clip-rule="evenodd" d="M14.3861 21.619C11.9816 21.9605 10.2902 24.222 10.6293 26.6443L11.1885 30.6489C11.5276 33.0713 13.7723 34.7753 16.1768 34.4337C18.5813 34.0921 20.2726 31.8307 19.9336 29.4083L19.3743 25.4037C19.0372 22.9813 16.7925 21.2794 14.3861 21.619Z" fill="#F4AD85"/>
<path fill-rule="evenodd" clip-rule="evenodd" d="M10.791 24.6911C10.5981 25.3036 10.5338 25.9691 10.6293 26.6443L11.1885 30.6489C11.5276 33.0713 13.7723 34.7752 16.1768 34.4337C16.319 34.4141 16.4593 34.3866 16.5977 34.3532C11.8218 34.2295 10.828 28.7291 12.7961 28.2108C15.2259 27.5709 17.19 25.284 17.19 25.284C17.6635 25.9278 18.7722 26.2792 19.5224 26.452L19.3763 25.4037C19.0723 23.2287 17.2329 21.6327 15.1187 21.5758C14.4192 21.7603 13.7957 21.9802 13.4781 22.0253C12.6441 22.1431 11.5977 23.6821 10.9508 24.5125C10.9099 24.5655 10.8553 24.6244 10.791 24.6911Z" fill="#EF8871"/>
<path fill-rule="evenodd" clip-rule="evenodd" d="M15.4597 31.4381C15.5493 32.078 16.1359 32.5217 16.7691 32.4314C17.4044 32.3411 17.8447 31.7502 17.757 31.1122H17.7551C17.7395 31.0023 17.6382 30.9257 17.5291 30.9395L15.6331 31.2084C15.5221 31.2261 15.4461 31.3281 15.4597 31.4381Z" fill="white"/>
<path fill-rule="evenodd" clip-rule="evenodd" d="M18.8872 29.7047C18.5384 29.7538 18.2948 30.0797 18.3435 30.4311C18.3923 30.7824 18.7157 31.0278 19.0645 30.9787C19.4133 30.9297 19.6569 30.6038 19.6081 30.2524C19.5594 29.901 19.2379 29.6557 18.8872 29.7047Z" fill="#E8685B"/>
<path fill-rule="evenodd" clip-rule="evenodd" d="M13.4449 30.4762C13.0961 30.5253 12.8526 30.8512 12.9013 31.2025C12.95 31.5539 13.2735 31.7993 13.6222 31.7502C13.971 31.7012 14.2146 31.3753 14.1659 31.0239C14.1172 30.6725 13.7937 30.4271 13.4449 30.4762Z" fill="#E8685B"/>
<path fill-rule="evenodd" clip-rule="evenodd" d="M10.3662 28.8528L11.2489 28.3247C11.2489 28.3247 11.9134 29.4005 11.0872 29.9226L11.0112 29.3749C10.9722 29.0981 10.793 28.7919 10.3662 28.8528Z" fill="#331C38"/>
<path fill-rule="evenodd" clip-rule="evenodd" d="M16.8763 22.8439C16.8763 22.8439 16.8704 26.2085 10.6293 28.786L10.033 24.0099L13.0162 21.1871L16.3093 21.1674C16.3093 21.1674 18.1857 22.7595 18.3845 22.9833C18.5813 23.207 20.0388 25.4645 20.0388 25.4645L19.4698 26.0809C19.4698 26.079 17.9889 25.6432 16.8763 22.8439Z" fill="#3F2C44"/>
<path fill-rule="evenodd" clip-rule="evenodd" d="M16.8763 22.8439C16.8763 22.8439 16.8705 26.2085 10.6293 28.786L10.3214 26.3146C11.8257 26.927 14.0412 26.6012 16.8763 22.8439Z" fill="#331C38"/>
<path fill-rule="evenodd" clip-rule="evenodd" d="M8.33974 23.1973L8.33779 23.2031L8.33584 23.209C8.28518 23.3386 8.23842 23.4701 8.19165 23.6036C11.9056 27.1587 15.4733 24.2377 17.1588 20.0917C16.5626 19.7757 15.9352 19.5774 15.3019 19.5323C14.5458 23.686 10.7267 25.6373 8.33974 23.1973Z" fill="#4F3F55"/>
<path fill-rule="evenodd" clip-rule="evenodd" d="M14.277 29.5241C14.2886 29.6144 14.3724 29.6753 14.4601 29.6635C14.5498 29.6517 14.6102 29.5673 14.5985 29.479C14.5692 29.263 14.4543 29.0805 14.2945 28.9588C14.1328 28.8371 13.9282 28.7762 13.7138 28.8076C13.4995 28.8371 13.3183 28.9529 13.1975 29.1139C13.0767 29.2768 13.0163 29.4829 13.0474 29.6988C13.0591 29.7891 13.1429 29.85 13.2306 29.8382C13.3202 29.8264 13.3806 29.742 13.3689 29.6537C13.3514 29.5261 13.3865 29.4063 13.4566 29.3102C13.5287 29.2159 13.6339 29.1492 13.7606 29.1315C13.8853 29.1139 14.0061 29.1492 14.0996 29.2199C14.1932 29.2905 14.2594 29.3985 14.277 29.5241Z" fill="#331C38"/>
<path fill-rule="evenodd" clip-rule="evenodd" d="M18.7352 28.892C18.7469 28.9823 18.8307 29.0432 18.9184 29.0314C19.008 29.0196 19.0684 28.9352 19.0567 28.8469C19.0275 28.6309 18.9125 28.4484 18.7527 28.3267C18.591 28.205 18.3845 28.1441 18.1721 28.1755C17.9577 28.205 17.7765 28.3208 17.6557 28.4817C17.5349 28.6447 17.4745 28.8508 17.5057 29.0667C17.5174 29.157 17.6012 29.2179 17.6888 29.2061C17.7785 29.1943 17.8389 29.1099 17.8272 29.0216C17.8097 28.8959 17.8447 28.7742 17.9149 28.68C17.987 28.5858 18.0922 28.519 18.2188 28.4994C18.3436 28.4817 18.4644 28.5171 18.5579 28.5877C18.6495 28.6584 18.7177 28.7664 18.7352 28.892Z" fill="#331C38"/>
<path fill-rule="evenodd" clip-rule="evenodd" d="M11.9757 29.3985L10.6176 29.5909C10.5046 29.6066 10.3993 29.5281 10.3838 29.4142C10.3682 29.3003 10.4461 29.1943 10.5591 29.1786L11.9173 28.9863L11.8939 28.8253C11.8744 28.7193 11.8237 28.2619 12.383 28.1834L14.9161 27.8241C15.5045 27.7417 15.5591 28.2462 15.563 28.3208L15.5747 28.4091L15.5903 28.521L16.6444 28.3718L16.6288 28.2599L16.6171 28.1736C16.6016 28.1009 16.5158 27.6003 17.1043 27.5179L19.3626 27.1979C19.9219 27.1194 19.9979 27.5729 20.0095 27.6808L20.2687 29.5379C20.3622 30.2092 19.7562 30.3545 19.6179 30.378L19.5965 30.382L18.287 30.5685C17.1998 30.7235 16.8646 29.6753 16.7087 28.786L15.6429 28.9372C15.7383 29.8363 15.7033 30.9356 14.616 31.0906L14.2185 31.1476L13.0299 31.3164L13.0084 31.3183C12.8701 31.334 12.2466 31.3635 12.153 30.6921L11.9757 29.3985ZM12.9734 30.8963L14.5595 30.6705C15.4636 30.5429 15.2785 29.2375 15.1694 28.4641L15.1577 28.3757C15.1557 28.3659 15.1538 28.3542 15.1538 28.3424C15.1538 28.3424 15.1499 28.2089 14.9745 28.2344L12.4414 28.5936C12.2914 28.6152 12.2953 28.7114 12.2992 28.7409C12.3011 28.7507 12.3031 28.7585 12.305 28.7684L12.3557 29.1335L12.5642 30.6254C12.6051 30.9238 12.8954 30.9061 12.9558 30.8983L12.9734 30.8963ZM19.5575 29.9619C19.6179 29.9521 19.9024 29.8873 19.8595 29.5889L19.6004 27.7338C19.5984 27.724 19.5984 27.7142 19.5984 27.7064C19.5945 27.6789 19.5711 27.5846 19.4211 27.6062L17.1627 27.9262C16.9874 27.9517 17.0205 28.0793 17.0205 28.0793C17.0224 28.0911 17.0244 28.1009 17.0263 28.1127L17.038 28.201C17.1452 28.9745 17.3245 30.2799 18.2286 30.1523L19.538 29.9658L19.5575 29.9619Z" fill="#331C38"/>
<path d="M28.8462 49.6845H28.1369V52.5623H28.8462V49.6845Z" fill="#331C38"/>
<path fill-rule="evenodd" clip-rule="evenodd" d="M30.7226 48.0414H26.2585C26.0208 48.0414 25.824 48.2377 25.824 48.4792V49.8592C25.824 50.0987 26.0189 50.297 26.2585 50.297H30.7226C30.9623 50.297 31.1572 50.1007 31.1572 49.8592V48.4792C31.1572 48.2397 30.9623 48.0414 30.7226 48.0414Z" fill="#331C38"/>
<path fill-rule="evenodd" clip-rule="evenodd" d="M30.7226 48.3693C30.7811 48.3693 30.8318 48.4203 30.8318 48.4792V49.8592C30.8318 49.9201 30.783 49.9691 30.7226 49.9691H26.2585C26.2001 49.9691 26.1494 49.9201 26.1494 49.8592V48.4792C26.1494 48.4203 26.2001 48.3693 26.2585 48.3693H30.7226Z" fill="white"/>
<path fill-rule="evenodd" clip-rule="evenodd" d="M28.9631 52.0814H23.515C22.9947 52.0814 22.5699 52.5093 22.5699 53.0334V60.5774C22.5699 61.1015 22.9947 61.5295 23.515 61.5295H28.9631C29.4834 61.5295 29.9082 61.1015 29.9082 60.5774V53.0334C29.9082 52.5113 29.4834 52.0814 28.9631 52.0814Z" fill="#4F3F55"/>
<path fill-rule="evenodd" clip-rule="evenodd" d="M20.1109 56.8535V61.6846C20.1109 62.354 20.6545 62.9016 21.319 62.9016H31.1591C31.8236 62.9016 32.3672 62.354 32.3672 61.6846V56.8535C32.3672 56.5551 32.1256 56.3137 31.8314 56.3137H20.6487C20.3525 56.3137 20.1109 56.5551 20.1109 56.8535Z" fill="#3F2C44"/>
<path fill-rule="evenodd" clip-rule="evenodd" d="M21.4359 55.4833V60.3144C21.4359 60.9838 21.9796 61.5314 22.644 61.5314H29.8361C30.5005 61.5314 31.0442 60.9838 31.0442 60.3144V55.4833C31.0442 55.1849 30.8025 54.9435 30.5064 54.9435H21.9718C21.6756 54.9415 21.4359 55.1849 21.4359 55.4833Z" fill="#3F2C44"/>
<path fill-rule="evenodd" clip-rule="evenodd" d="M31.0441 59.6744V55.4833C31.0441 55.1849 30.8025 54.9435 30.5063 54.9435H22.5699V58.4612C22.5699 59.1306 23.1136 59.6783 23.778 59.6783H30.9701C30.9954 59.6764 31.0188 59.6764 31.0441 59.6744Z" fill="#4F3F55"/>
<path fill-rule="evenodd" clip-rule="evenodd" d="M23.7722 52.0814V52.5643V53.1296C23.7722 53.6538 24.197 54.0817 24.7172 54.0817H29.9082V54.9435H22.5699V53.0354C22.5699 52.5113 22.9947 52.0833 23.515 52.0833H23.7449H23.7722V52.0814Z" fill="#3F2C44"/>
<path fill-rule="evenodd" clip-rule="evenodd" d="M31.4514 56.3137V59.7039C31.4514 60.0022 31.693 60.2437 31.9873 60.2437H32.3672V60.707H30.9779C31.0208 60.5833 31.0422 60.4518 31.0422 60.3144V59.6764V56.3157H31.4514V56.3137Z" fill="#331C38"/>
<path fill-rule="evenodd" clip-rule="evenodd" d="M21.0287 56.3137V59.7039C21.0287 60.0022 20.787 60.2437 20.4909 60.2437H20.1129V60.707H21.5022C21.4593 60.5833 21.4379 60.4518 21.4379 60.3144V59.6764V56.3157H21.0287V56.3137Z" fill="#331C38"/>
<path fill-rule="evenodd" clip-rule="evenodd" d="M30.368 55.4715H26.2975C26.1631 55.4715 26.052 55.5834 26.052 55.7189C26.052 55.8543 26.1631 55.9662 26.2975 55.9662H30.368C30.5025 55.9662 30.6135 55.8543 30.6135 55.7189C30.6135 55.5815 30.5025 55.4715 30.368 55.4715Z" fill="#3F2C44"/>
<path fill-rule="evenodd" clip-rule="evenodd" d="M25.2434 55.4715H25.4655C25.6 55.4715 25.711 55.5834 25.711 55.7189C25.711 55.8543 25.6 55.9662 25.4655 55.9662H25.2434C25.1089 55.9662 24.9979 55.8543 24.9979 55.7189C24.9979 55.5815 25.1089 55.4715 25.2434 55.4715Z" fill="white"/>
<path fill-rule="evenodd" clip-rule="evenodd" d="M30.2589 56.6925H28.6124C28.4565 56.6925 28.3279 56.8221 28.3279 56.9791V58.7871C28.3279 58.9441 28.4565 59.0737 28.6124 59.0737H30.2589C30.4148 59.0737 30.5434 58.9441 30.5434 58.7871V56.9791C30.5434 56.8221 30.4148 56.6925 30.2589 56.6925Z" fill="white"/>
<path fill-rule="evenodd" clip-rule="evenodd" d="M27.7706 56.6925H23.4507C23.3845 56.6925 23.3299 56.7475 23.3299 56.8143C23.3299 56.881 23.3845 56.936 23.4507 56.936H27.7706C27.8369 56.936 27.8914 56.881 27.8914 56.8143C27.8914 56.7475 27.8369 56.6925 27.7706 56.6925Z" fill="#3F2C44"/>
<path fill-rule="evenodd" clip-rule="evenodd" d="M27.7706 57.4052H23.4507C23.3845 57.4052 23.3299 57.4601 23.3299 57.5269C23.3299 57.5936 23.3845 57.6486 23.4507 57.6486H27.7706C27.8369 57.6486 27.8914 57.5936 27.8914 57.5269C27.8914 57.4601 27.8369 57.4052 27.7706 57.4052Z" fill="#3F2C44"/>
<path fill-rule="evenodd" clip-rule="evenodd" d="M27.7706 58.1197H23.4507C23.3845 58.1197 23.3299 58.1747 23.3299 58.2414C23.3299 58.3081 23.3845 58.3631 23.4507 58.3631H27.7706C27.8369 58.3631 27.8914 58.3081 27.8914 58.2414C27.8914 58.1727 27.8369 58.1197 27.7706 58.1197Z" fill="#3F2C44"/>
<path fill-rule="evenodd" clip-rule="evenodd" d="M27.7706 58.8323H23.4507C23.3845 58.8323 23.3299 58.8872 23.3299 58.954C23.3299 59.0207 23.3845 59.0757 23.4507 59.0757H27.7706C27.8369 59.0757 27.8914 59.0207 27.8914 58.954C27.8914 58.8872 27.8369 58.8323 27.7706 58.8323Z" fill="#3F2C44"/>
<path fill-rule="evenodd" clip-rule="evenodd" d="M55.321 64.0755H2.70068C5.2786 67.6463 9.45432 69.9784 14.1445 69.9784H55.3191C55.7848 69.9784 56.1667 69.5936 56.1667 69.1245V64.9295C56.1667 64.4603 55.7867 64.0755 55.321 64.0755Z" fill="#E8685B"/>
<path fill-rule="evenodd" clip-rule="evenodd" d="M55.321 64.0755H2.70068C3.4119 65.061 4.24393 65.9522 5.17533 66.7256H56.1687V64.9295C56.1667 64.4603 55.7867 64.0755 55.321 64.0755Z" fill="#331C38"/>
<path fill-rule="evenodd" clip-rule="evenodd" d="M64.0505 60.707H0.896332C1.6017 62.5993 2.69873 64.3052 4.08415 65.7206H64.0505C64.4558 65.7206 64.7871 65.3869 64.7871 64.9805V61.449C64.7851 61.0407 64.4558 60.707 64.0505 60.707Z" fill="#F4C6B3"/>
<path fill-rule="evenodd" clip-rule="evenodd" d="M20.2258 60.707H18.2987V65.7206H20.2258V60.707ZM59.8962 60.707H56.6343V65.7206H59.8962V60.707ZM55.0034 60.707H29.0625V65.7206H55.0034V60.707ZM26.8957 60.707H23.6358V65.7206H26.8976V60.707H26.8957Z" fill="#F3BBA2"/>
<path fill-rule="evenodd" clip-rule="evenodd" d="M1.49259 62.0811H15.2376L16.7945 62.9861C16.814 62.9978 16.8373 63.0037 16.8607 63.0037H64.789V62.7387H16.8919L15.3467 61.8397C15.3253 61.824 15.298 61.8161 15.2707 61.8161H1.36398C1.40685 61.9044 1.44972 61.9928 1.49259 62.0811Z" fill="white"/>
<path fill-rule="evenodd" clip-rule="evenodd" d="M37.3282 38.1595C37.3282 38.1595 36.5118 38.5541 35.746 40.5407C34.9822 42.5273 32.6069 54.2604 32.6809 55.8799C32.753 57.4974 37.7257 66.6687 37.7257 66.6687C37.7257 66.6687 38.7214 65.0198 38.7779 64.2306C38.8344 63.4415 38.1368 62.2774 38.1368 62.2774C38.1368 62.2774 36.4962 56.6985 36.1123 54.5568C35.7304 52.4151 38.7643 47.8785 38.7643 47.8785L41.0791 41.7558C41.0791 41.7558 39.0176 37.2506 37.3282 38.1595Z" fill="#97B2BC"/>
<path fill-rule="evenodd" clip-rule="evenodd" d="M36.1143 54.5568C35.7323 52.4151 38.7662 47.8785 38.7662 47.8785L39.5554 45.7938C39.3294 44.2547 39.0799 43.0573 38.9455 43.4146C38.698 44.0781 36.4494 50.6974 36.1143 51.7928C35.7791 52.8882 36.1143 54.5568 36.1143 54.5568Z" fill="#7D939D"/>
<path fill-rule="evenodd" clip-rule="evenodd" d="M36.7865 64.9C37.3438 65.9581 37.7276 66.6687 37.7276 66.6687C37.7276 66.6687 38.7234 65.0198 38.7799 64.2306C38.8364 63.4415 38.1388 62.2774 38.1388 62.2774C38.1388 62.2774 36.6501 57.2206 36.1786 54.8885C36.4553 56.3274 37.5445 62.0026 37.6594 62.4698C37.7686 62.9193 37.6088 63.944 36.7865 64.9Z" fill="#7D939D"/>
<path fill-rule="evenodd" clip-rule="evenodd" d="M53.3218 40.2933L55.6562 38.613C56.0576 39.1273 56.3635 39.7142 56.5915 40.2482C57.0786 41.6105 57.706 43.6599 58.1055 46.0686C58.8362 50.4835 59.5649 56.5532 59.3467 58.5378C59.1285 60.5244 54.0895 65.7481 53.505 65.8207C52.9204 65.8933 52.7022 64.1659 52.7022 64.1659C52.7022 64.1659 55.5509 59.8982 55.9153 58.2061C56.2816 56.5139 53.3588 47.1699 53.3588 47.1699L53.3218 40.2933Z" fill="#7D939D"/>
<path fill-rule="evenodd" clip-rule="evenodd" d="M38.3044 63.4023C38.3044 63.4023 37.5737 66.07 37.5016 69.9784H54.0779C54.0779 69.9784 54.5884 66.8415 53.657 64.5251L38.3044 63.4023Z" fill="#331C38" stroke="#05304B" stroke-width="0.216" stroke-miterlimit="22.9256" stroke-linecap="round" stroke-linejoin="round"/>
<path fill-rule="evenodd" clip-rule="evenodd" d="M38.8344 58.9697C38.8344 58.9697 38.205 62.6288 38.0764 63.4199C37.9478 64.211 37.866 65.2043 40.7148 66.1976C43.5635 67.1909 50.4828 67.503 52.8191 66.3625C52.8191 66.3625 54.0876 65.8148 53.9785 64.6743C53.8694 63.5338 52.9477 60.0356 52.9477 60.0356L38.8344 58.9697Z" fill="white"/>
<path fill-rule="evenodd" clip-rule="evenodd" d="M38.8344 58.9697C38.8344 58.9697 38.205 62.6288 38.0764 63.4199C37.9634 64.1227 37.8855 64.9844 39.8593 65.8639C39.6236 65.1258 39.5008 64.2601 39.6548 63.5023C39.9704 61.93 41.0207 60.9975 42.0982 61.076C43.1758 61.1546 47.6009 61.2606 50.931 61.2606C52.0728 61.2606 52.8542 61.4942 53.39 61.8004C53.1581 60.8385 52.9458 60.0356 52.9458 60.0356L38.8344 58.9697Z" fill="#E6E4EB"/>
<path fill-rule="evenodd" clip-rule="evenodd" d="M52.8464 58.2983C52.8464 58.2983 53.1386 58.6674 53.1932 60.0454C53.1932 60.0454 53.1114 60.4321 52.71 60.5224C52.3086 60.6147 44.339 61.5864 38.7526 59.6744C38.7526 59.6744 38.2693 59.4722 38.1505 59.1326C38.0316 58.793 38.6064 57.4856 38.6064 57.4856L52.8464 58.2983Z" fill="#5F6879"/>
<path fill-rule="evenodd" clip-rule="evenodd" d="M37.3282 38.1595C37.3282 38.1595 45.8238 32.5001 54.6819 37.6903C55.2333 38.0515 55.6756 38.5835 56.0244 39.1469C56.2427 40.3463 56.5603 43.0043 55.9484 46.3258C55.1086 50.8879 53.392 55.927 53.2828 58.1707C53.2828 58.1707 53.2107 59.0345 52.2969 59.1444C51.383 59.2543 41.0869 59.7765 38.5675 57.7526C38.5675 57.7526 38.2849 57.464 38.357 57.0714C39.2261 52.3542 38.283 51.8458 38.3141 48.5872C38.318 48.5872 40.2549 40.2423 37.3282 38.1595Z" fill="#97B2BC"/>
<path fill-rule="evenodd" clip-rule="evenodd" d="M37.3282 38.1595C37.3282 38.1595 45.8238 32.5001 54.6819 37.6903C55.2333 38.0515 55.6756 38.5835 56.0244 39.1469C56.1901 40.0558 56.4122 41.8009 56.2446 44.0388C54.8767 43.872 52.5736 44.1487 49.1695 46.2727C43.887 49.5687 39.6586 50.4481 40.2315 58.5201C39.5339 58.318 38.9591 58.0667 38.5694 57.7546C38.5694 57.7546 38.2869 57.466 38.359 57.0734C39.228 52.3562 38.2849 51.8478 38.3161 48.5891C38.318 48.5872 40.2549 40.2423 37.3282 38.1595Z" fill="#8EA7B0"/>
<path fill-rule="evenodd" clip-rule="evenodd" d="M39.5125 58.2748C39.1364 58.1236 38.8149 57.9509 38.5714 57.7546C38.5714 57.7546 38.2888 57.466 38.3609 57.0734C39.23 52.3562 38.2869 51.8478 38.3181 48.5891C38.3181 48.5891 38.9085 46.045 38.9455 43.4165C39.1929 42.753 39.8399 47.4408 39.9977 49.7454C40.1263 51.6299 39.2845 55.8524 39.5125 58.2748Z" fill="#7D939D"/>
<path fill-rule="evenodd" clip-rule="evenodd" d="M48.09 20.3175C48.09 20.3175 44.986 18.9473 42.942 21.4109C40.8979 23.8764 42.2853 27.0762 41.956 29.9089C41.6267 32.7415 36.4416 37.4862 42.3574 40.2816C42.3574 40.2816 43.3063 40.5014 43.5616 42.011C43.8168 43.5186 46.2272 47.0501 50.6816 44.402C55.1359 41.7538 56.8156 36.5302 53.6765 31.7855C50.5354 27.0409 54.6994 20.3175 48.09 20.3175Z" fill="#4F3F55"/>
<path fill-rule="evenodd" clip-rule="evenodd" d="M43.431 20.9083C43.2634 21.0556 43.0978 21.2224 42.94 21.4128C41.5663 23.0677 41.7416 25.0562 41.9053 27.0409C43.0822 28.841 44.758 30.3486 47.0923 30.4899C49.5865 30.6411 51.4064 30.1483 52.6847 29.5163C52.5755 29.0962 52.4956 28.6702 52.4372 28.2462C49.8787 29.1236 43.7837 30.2171 43.431 20.9083Z" fill="#56455B"/>
<path fill-rule="evenodd" clip-rule="evenodd" d="M41.995 29.4377C41.9872 29.5968 41.9735 29.7538 41.956 29.9108C41.6267 32.7435 36.4416 37.4882 42.3574 40.2835C42.3574 40.2835 43.3063 40.5034 43.5616 42.013C43.8168 43.5206 46.2272 47.0521 50.6816 44.4039C55.1359 41.7558 56.8156 36.5322 53.6765 31.7875C53.6297 31.7168 53.5849 31.6462 53.542 31.5755C52.8308 38.6012 42.5756 36.9896 41.995 29.4377Z" fill="#3F2C44"/>
<path fill-rule="evenodd" clip-rule="evenodd" d="M41.9794 29.6635C41.9716 29.7459 41.9638 29.8284 41.954 29.9108C41.6247 32.7435 36.4397 37.4882 42.3554 40.2835C42.3554 40.2835 43.3044 40.5034 43.5596 42.013C43.8149 43.5206 46.2252 47.0521 50.6796 44.4039C55.134 41.7558 56.8136 36.5322 53.6745 31.7875C53.6745 31.7875 55.8198 35.2581 52.8756 38.7013C49.9957 42.0679 42.3067 40.4504 41.9794 29.6635Z" fill="#331C38"/>
<path fill-rule="evenodd" clip-rule="evenodd" d="M37.2113 38.2361L37.2152 38.2577C37.5601 38.5482 40.0659 40.9411 38.5149 48.2711C38.4077 48.4439 38.2713 48.6657 38.1174 48.9248C38.1446 48.8051 38.17 48.6853 38.1972 48.5617C39.9412 40.7821 37.1723 38.5404 37.0301 38.4304C37.0223 38.4245 37.0145 38.4186 37.0086 38.4108C37.0885 38.3303 37.1567 38.2753 37.2113 38.2361Z" fill="#526675"/>
<path fill-rule="evenodd" clip-rule="evenodd" d="M78.4132 36.3555C78.4132 36.1356 77.9358 32.9398 77.9358 32.9398C77.9358 32.9398 80.7125 34.1863 82.32 37.2761C83.9276 40.366 85.7533 49.8573 85.0226 53.2415C84.2919 56.6258 80.0558 59.641 80.0558 59.641L78.4132 36.3555Z" fill="#E67170"/>
<path fill-rule="evenodd" clip-rule="evenodd" d="M78.4132 36.3555C78.4132 36.1356 77.9358 32.9398 77.9358 32.9398C77.9358 32.9398 80.7125 34.1863 82.32 37.2761C82.4817 37.5863 82.6435 37.9612 82.8071 38.3853C82.092 38.6758 81.5094 39.2627 81.3457 40.3404C80.8722 43.4656 81.5036 51.94 82.5558 53.7931C83.0975 54.7491 83.8925 54.8453 84.6193 54.439C83.3332 57.305 80.0558 59.641 80.0558 59.641L78.4132 36.3555Z" fill="#D84F50"/>
<path fill-rule="evenodd" clip-rule="evenodd" d="M59.7013 65.3967C59.7013 65.3967 59.2084 66.6118 59.3545 67.0888C59.5006 67.5678 60.925 69.1127 65.8899 69.2953C70.8548 69.4798 76.0048 69.0008 77.9027 67.8603C79.8005 66.7198 80.1474 66.0936 79.9662 64.4937C79.783 62.8938 59.7013 65.3967 59.7013 65.3967Z" fill="white"/>
<path fill-rule="evenodd" clip-rule="evenodd" d="M63.1873 34.9205L60.6678 34.0371C60.6678 34.0371 58.0763 36.538 56.2505 40.8057C54.4247 45.0733 52.3807 50.5895 52.2345 52.2816C52.0884 53.9738 54.8631 60.5205 60.1222 62.6543C65.3794 64.7881 61.8019 59.0502 61.8019 59.0502C61.8019 59.0502 58.0042 53.2376 57.858 52.209C57.7119 51.1784 60.1222 49.3037 60.1222 49.3037C60.1222 49.3037 67.7176 45.9567 67.4254 44.9261C67.1311 43.8955 63.1873 34.9205 63.1873 34.9205Z" fill="#E67170"/>
<path fill-rule="evenodd" clip-rule="evenodd" d="M52.2306 52.5191C52.3222 54.5136 55.0813 60.6108 60.1203 62.6563C61.1101 63.0587 61.7863 63.1804 62.2325 63.1156C61.987 61.7945 61.835 60.4007 61.759 58.9893C61.4979 58.5869 60.0209 56.3058 58.9589 54.4684C58.4406 56.9811 56.0478 57.9411 54.4539 56.3372C52.8015 54.6687 52.2501 52.5898 52.2306 52.5191ZM57.8561 52.209C57.7099 51.1784 60.1203 49.3037 60.1203 49.3037C60.1203 49.3037 61.153 48.8483 62.441 48.222C62.9846 42.9513 62.6767 40.1716 62.3143 41.7538C61.8934 43.5932 60.2645 45.8998 58.766 49.1584C57.2676 52.4151 57.8561 52.209 57.8561 52.209Z" fill="#D84F50"/>
<path fill-rule="evenodd" clip-rule="evenodd" d="M68.6626 15.9026C70.4066 15.9026 71.8329 17.3356 71.8329 19.0886V25.4469C71.8329 27.1999 70.4066 28.6329 68.6626 28.6329C66.9187 28.6329 65.4924 27.1999 65.4924 25.4469V19.0906C65.4924 17.3376 66.9187 15.9026 68.6626 15.9026Z" fill="#F4AD85"/>
<path fill-rule="evenodd" clip-rule="evenodd" d="M68.4931 24.8658H72.2051C72.4955 24.8658 72.7332 25.1053 72.7332 25.3978V32.661C72.7332 32.9535 72.4955 33.193 72.2051 33.193H68.4931C68.2028 33.193 67.9651 32.9535 67.9651 32.661V25.3978C67.967 25.1053 68.2028 24.8658 68.4931 24.8658Z" fill="#F09576"/>
<path fill-rule="evenodd" clip-rule="evenodd" d="M64.8552 20.6472C64.8552 20.6472 62.7586 20.3391 62.3007 18.2641C61.8428 16.1892 63.0255 13.2309 67.2207 14.5756C67.2207 14.5756 68.9783 14.5756 70.7086 14.5756C73.0625 14.5756 75.009 15.0487 76.1548 16.6171C78.0098 19.1553 77.5421 24.8305 75.2682 27.0841C72.6766 29.6537 68.4717 28.3325 68.4951 24.8658C68.7874 24.5714 68.9686 24.165 68.9686 23.7155C68.9686 23.2051 68.7347 22.7477 68.3684 22.4493C67.93 22.094 67.3513 22.1823 67.3513 23.741V25.1132C67.3513 25.1132 66.4179 24.9012 66.4179 23.8843C66.416 22.8655 66.416 20.5216 64.8552 20.6472Z" fill="#3F2C44"/>
<path fill-rule="evenodd" clip-rule="evenodd" d="M66.72 14.4342C66.8817 14.4755 67.0474 14.5226 67.2188 14.5775H69.7617C70.3462 19.4577 74.5804 20.5432 77.2967 20.7317C77.3045 21.0791 77.2967 21.4305 77.2714 21.7839C70.5411 22.2589 67.7547 17.2748 66.72 14.4342Z" fill="#4F3F55"/>
<path fill-rule="evenodd" clip-rule="evenodd" d="M64.8552 20.6472C64.8552 20.6472 62.7586 20.339 62.3007 18.2641C62.1351 17.5123 62.1838 16.6426 62.515 15.9065C62.5033 15.9634 61.9675 18.7136 63.9199 18.7136C65.8919 18.7136 68.9413 18.9787 69.4402 20.8592C69.9156 22.6495 71.4413 27.6121 76.718 24.6028C76.377 25.5961 75.8898 26.4696 75.2682 27.086C72.6767 29.6556 68.4717 28.3345 68.4951 24.8678C68.7874 24.5733 68.9686 24.167 68.9686 23.7174C68.9686 23.207 68.7348 22.7496 68.3685 22.4513C67.93 22.096 67.3513 22.1843 67.3513 23.7429V25.1151C67.3513 25.1151 66.418 24.9031 66.418 23.8862C66.416 22.8655 66.416 20.5216 64.8552 20.6472Z" fill="#331C38"/>
<path fill-rule="evenodd" clip-rule="evenodd" d="M64.7753 32.0878C64.7753 32.0878 61.9461 32.7867 60.6678 34.0371C60.6678 34.0371 64.7208 41.799 60.1203 49.3037C60.1203 49.3037 58.879 62.032 58.9511 63.4297C59.0232 64.8274 59.2804 65.5262 60.1203 66.2997C60.9601 67.0731 66.2913 68.5061 72.6435 67.6974C78.9958 66.8886 80.2019 64.9393 80.3481 64.1286C80.4942 63.3198 81.1879 58.2061 80.6774 49.8926C80.1649 41.5791 81.0534 33.5483 77.2694 32.6905C73.4834 31.8307 64.7753 32.0878 64.7753 32.0878Z" fill="#E67170"/>
<path fill-rule="evenodd" clip-rule="evenodd" d="M64.7753 32.0878C64.7753 32.0878 63.2009 32.4765 61.8701 33.193C61.9168 33.1754 63.4542 32.5727 64.0758 33.9017C64.7071 35.2523 63.8829 42.9788 72.8384 42.9788C72.8384 42.9788 69.9117 35.5644 69.9117 34.3787C69.9117 33.7819 68.877 32.8416 67.8462 32.0505C66.0555 32.0505 64.7753 32.0878 64.7753 32.0878Z" fill="#D84F50"/>
<path fill-rule="evenodd" clip-rule="evenodd" d="M62.3143 41.7558C62.2675 44.082 61.7122 46.7066 60.1203 49.3037C60.1203 49.3037 58.879 62.032 58.9511 63.4297C59.0232 64.8274 59.2804 65.5262 60.1203 66.2997C60.4885 66.6393 61.7239 67.1065 63.5302 67.4539C61.5271 63.0469 61.3712 56.2195 62.1039 50.986C63.084 43.9721 62.7352 39.9145 62.3143 41.7558Z" fill="#D84F50"/>
<path fill-rule="evenodd" clip-rule="evenodd" d="M64.7753 32.0879C64.7753 32.0879 65.5236 32.0506 65.962 32.7867C66.4004 33.5228 66.3459 42.278 71.7862 42.9768C75.2468 43.4205 77.1408 39.6397 77.5733 36.2122C77.9299 33.3835 77.0589 29.689 72.7994 29.8323C72.776 29.8323 72.7332 29.8284 72.7332 29.852V30.4585C72.4428 31.7463 70.5469 31.4538 69.6311 30.8904C68.1307 29.9717 66.1413 29.1924 64.7753 32.0879Z" fill="white"/>
<path fill-rule="evenodd" clip-rule="evenodd" d="M73.1618 29.8304C73.043 29.8284 72.9222 29.8284 72.7994 29.8323C72.776 29.8323 72.7332 29.8284 72.7332 29.852V30.4585C72.474 31.601 70.9502 31.4989 69.9721 31.0671C74.4479 34.0077 75.0169 30.0541 73.1618 29.8304Z" fill="#F8CFBE"/>
<path fill-rule="evenodd" clip-rule="evenodd" d="M11.093 37.4842L10.6059 37.4548C10.6059 37.4548 10.0155 37.8415 9.85766 38.2596C9.69983 38.6777 7.60904 43.8445 6.56073 47.3701C6.56073 47.3701 9.11332 47.6881 9.69204 49.6354C9.69204 49.6354 13.0201 45.1263 13.2014 44.3784C13.3826 43.6285 13.934 40.2207 11.093 37.4842Z" fill="white"/>
<path fill-rule="evenodd" clip-rule="evenodd" d="M11.093 37.4842L10.6059 37.4548C10.6059 37.4548 10.3565 37.6177 10.1383 37.8474C13.4917 39.0488 11.4886 44.9163 10.2746 46.7262C9.71932 47.5546 9.0685 47.9354 8.50732 48.1003C9.01784 48.4399 9.48354 48.9307 9.69204 49.6335C9.69204 49.6335 13.0201 45.1244 13.2014 44.3764C13.3826 43.6285 13.934 40.2207 11.093 37.4842Z" fill="#FDF1EF"/>
<path fill-rule="evenodd" clip-rule="evenodd" d="M28.7955 39.991C28.3045 40.6742 27.3673 42.3035 28.0161 44.0997L28.2948 44.133C27.5875 42.3604 28.5578 40.735 29.0235 40.101L28.7955 39.991ZM29.2554 40.2168L29.4795 40.3267C29.0001 41.0157 28.1779 42.5371 28.8072 44.1939L28.5325 44.1625C27.9557 42.4743 28.7585 40.9451 29.2554 40.2168Z" fill="#3F2C44"/>
<path fill-rule="evenodd" clip-rule="evenodd" d="M6.88612 46.3257C7.65189 46.418 9.57315 46.8224 10.4558 48.5852L10.2902 48.8149C9.46599 47.0148 7.5077 46.6438 6.80817 46.5672C6.83351 46.4867 6.85884 46.4062 6.88612 46.3257ZM6.73023 46.8126C6.7049 46.8931 6.67957 46.9735 6.65619 47.054C7.4395 47.16 9.19514 47.5841 9.9804 49.2409L10.146 49.0131C9.30231 47.3799 7.56031 46.9343 6.73023 46.8126Z" fill="#3F2C44"/>
<path fill-rule="evenodd" clip-rule="evenodd" d="M17.6577 36.7795C17.6011 40.9117 11.925 35.8333 14.4114 35.7764C14.4114 35.7764 15.1304 36.6421 17.6577 36.7795Z" fill="#3F2C44"/>
<path fill-rule="evenodd" clip-rule="evenodd" d="M18.2598 35.6586C18.2598 35.6586 18.667 36.5145 17.6577 36.7795C17.6577 36.7795 18.0299 37.9141 18.7586 37.7316C19.4874 37.549 19.2418 35.4171 18.2598 35.6586Z" fill="#3F2C44"/>
<path fill-rule="evenodd" clip-rule="evenodd" d="M15.6994 42.1582L17.3673 42.0051C17.4765 41.9953 17.5661 42.0777 17.5661 42.1877V42.7295C17.5661 42.8394 17.4765 42.9375 17.3673 42.9493L15.6994 43.1005C15.5903 43.1103 15.5026 43.0278 15.5026 42.9179V42.3761C15.5006 42.2681 15.5903 42.168 15.6994 42.1582Z" fill="white"/>
<path fill-rule="evenodd" clip-rule="evenodd" d="M35.5959 12.2651H26.1338C25.3447 12.2651 24.6978 12.9168 24.6978 13.7118V19.6755V20.1172V23.9137C24.6978 23.9805 24.7348 24.0374 24.7971 24.0629C24.8575 24.0885 24.9257 24.0747 24.9725 24.0276L27.4199 21.562H35.5979C36.3871 21.562 37.034 20.9103 37.034 20.1153V13.7099C37.032 12.9148 36.3851 12.2651 35.5959 12.2651Z" fill="white"/>
<path fill-rule="evenodd" clip-rule="evenodd" d="M47.6652 6.73715H57.1273C57.9164 6.73715 58.5634 7.38888 58.5634 8.18391V14.1476V14.5893V18.3858C58.5634 18.4526 58.5263 18.5095 58.464 18.535C58.4036 18.5605 58.3373 18.5468 58.2886 18.4997L55.8452 16.0341H47.6671C46.878 16.0341 46.231 15.3824 46.231 14.5873V8.18391C46.231 7.38692 46.876 6.73715 47.6652 6.73715Z" fill="white"/>
<path fill-rule="evenodd" clip-rule="evenodd" d="M53.2361 8.65896C53.2361 8.19372 52.86 7.81485 52.3982 7.81485C51.9364 7.81485 51.5603 8.19372 51.5603 8.65896V10.6436H49.5904C49.1286 10.6436 48.7525 11.0205 48.7525 11.4877C48.7525 11.9529 49.1286 12.3318 49.5904 12.3318H51.5603V14.3164C51.5603 14.7817 51.9364 15.1605 52.3982 15.1605C52.86 15.1605 53.2361 14.7836 53.2361 14.3164V12.3298H55.2041C55.6679 12.3298 56.042 11.9529 56.042 11.4857C56.042 11.0205 55.6679 10.6416 55.2041 10.6416H53.2361V8.65896Z" fill="#D84F50"/>
<path d="M31.1571 15.0526C31.4854 15.0526 31.7514 14.7845 31.7514 14.4539C31.7514 14.1232 31.4854 13.8551 31.1571 13.8551C30.8289 13.8551 30.5628 14.1232 30.5628 14.4539C30.5628 14.7845 30.8289 15.0526 31.1571 15.0526Z" fill="#D84F50"/>
<path d="M32.3107 15.683C32.1957 15.5672 31.9969 15.3512 31.6111 15.3512C31.5488 15.3512 31.1903 15.3512 30.8571 15.3512C30.0406 15.3473 29.3762 14.6779 29.3762 13.8574H28.7819C28.7819 14.8016 29.4073 15.6025 30.2647 15.8636V19.8368H30.859V18.0406H31.4533V19.8348H32.0476V16.2621L33.2206 17.4438L33.6396 17.0218L32.3107 15.683Z" fill="#D84F50"/>
<path fill-rule="evenodd" clip-rule="evenodd" d="M21.2469 11.0028C21.2469 10.9224 21.1826 10.8576 21.1027 10.8576C21.0228 10.8576 20.9585 10.9224 20.9585 11.0028V11.3424H20.6214C20.5415 11.3424 20.4772 11.4072 20.4772 11.4877C20.4772 11.5682 20.5415 11.633 20.6214 11.633H20.9585V11.9726C20.9585 12.0531 21.0228 12.1178 21.1027 12.1178C21.1826 12.1178 21.2469 12.0531 21.2469 11.9726V11.633H21.584C21.6639 11.633 21.7282 11.5682 21.7282 11.4877C21.7282 11.4072 21.6639 11.3424 21.584 11.3424H21.2469V11.0028Z" fill="white"/>
<path fill-rule="evenodd" clip-rule="evenodd" d="M59.3526 27.7397C59.3526 27.6592 59.2882 27.5944 59.2084 27.5944C59.1285 27.5944 59.0642 27.6592 59.0642 27.7397V28.0793H58.7271C58.6472 28.0793 58.5829 28.1441 58.5829 28.2246C58.5829 28.305 58.6472 28.3698 58.7271 28.3698H59.0642V28.7094C59.0642 28.7899 59.1285 28.8547 59.2084 28.8547C59.2882 28.8547 59.3526 28.7899 59.3526 28.7094V28.3698H59.6896C59.7695 28.3698 59.8338 28.305 59.8338 28.2246C59.8338 28.1441 59.7695 28.0793 59.6896 28.0793H59.3526V27.7397Z" fill="white"/>
<path fill-rule="evenodd" clip-rule="evenodd" d="M55.2509 2.6344C55.2509 2.55392 55.1866 2.48914 55.1067 2.48914C55.0268 2.48914 54.9625 2.55392 54.9625 2.6344V2.97401H54.6254C54.5455 2.97401 54.4812 3.03879 54.4812 3.11927C54.4812 3.19976 54.5455 3.26454 54.6254 3.26454H54.9625V3.60414C54.9625 3.68463 55.0268 3.74941 55.1067 3.74941C55.1866 3.74941 55.2509 3.68463 55.2509 3.60414V3.26454H55.588C55.6679 3.26454 55.7322 3.19976 55.7322 3.11927C55.7322 3.03879 55.6679 2.97401 55.588 2.97401H55.2509V2.6344Z" fill="white"/>
<path fill-rule="evenodd" clip-rule="evenodd" d="M36.1143 5.49454C36.1143 5.41405 36.05 5.34927 35.9701 5.34927C35.8902 5.34927 35.8259 5.41405 35.8259 5.49454V5.83414H35.4888C35.4089 5.83414 35.3446 5.89892 35.3446 5.97941C35.3446 6.05989 35.4089 6.12467 35.4888 6.12467H35.8259V6.46428C35.8259 6.54476 35.8902 6.60954 35.9701 6.60954C36.05 6.60954 36.1143 6.54476 36.1143 6.46428V6.12467H36.4514C36.5313 6.12467 36.5956 6.05989 36.5956 5.97941C36.5956 5.89892 36.5313 5.83414 36.4514 5.83414H36.1143V5.49454Z" fill="white"/>
<path fill-rule="evenodd" clip-rule="evenodd" d="M80.3812 29.7538C80.3812 29.6733 80.3169 29.6085 80.237 29.6085C80.1571 29.6085 80.0928 29.6733 80.0928 29.7538V30.0934H79.7557C79.6758 30.0934 79.6115 30.1582 79.6115 30.2387C79.6115 30.3191 79.6758 30.3839 79.7557 30.3839H80.0928V30.7235C80.0928 30.804 80.1571 30.8688 80.237 30.8688C80.3169 30.8688 80.3812 30.804 80.3812 30.7235V30.3839H80.7183C80.7982 30.3839 80.8625 30.3191 80.8625 30.2387C80.8625 30.1582 80.7982 30.0934 80.7183 30.0934H80.3812V29.7538Z" fill="white"/>
<path fill-rule="evenodd" clip-rule="evenodd" d="M27.1763 36.8894C27.1763 36.809 27.112 36.7442 27.0321 36.7442C26.9522 36.7442 26.8879 36.809 26.8879 36.8894V37.229H26.5508C26.4709 37.229 26.4066 37.2938 26.4066 37.3743C26.4066 37.4548 26.4709 37.5196 26.5508 37.5196H26.8899V37.8592C26.8899 37.9397 26.9542 38.0044 27.034 38.0044C27.1139 38.0044 27.1782 37.9397 27.1782 37.8592V37.5196H27.5153C27.5952 37.5196 27.6595 37.4548 27.6595 37.3743C27.6595 37.2938 27.5952 37.229 27.5153 37.229H27.1782V36.8894H27.1763Z" fill="white"/>
<path fill-rule="evenodd" clip-rule="evenodd" d="M41.7923 9.38529C41.7923 9.3048 41.728 9.24002 41.6481 9.24002C41.5682 9.24002 41.5039 9.3048 41.5039 9.38529V9.72489H41.1668C41.0869 9.72489 41.0226 9.78967 41.0226 9.87016C41.0226 9.95064 41.0869 10.0154 41.1668 10.0154H41.5039V10.355C41.5039 10.4355 41.5682 10.5003 41.6481 10.5003C41.728 10.5003 41.7923 10.4355 41.7923 10.355V10.0154H42.1294C42.2093 10.0154 42.2736 9.95064 42.2736 9.87016C42.2736 9.78967 42.2093 9.72489 42.1294 9.72489H41.7923V9.38529Z" fill="#719FD4"/>
<path fill-rule="evenodd" clip-rule="evenodd" d="M55.8822 24.004C55.8822 23.9235 55.8179 23.8588 55.738 23.8588C55.6581 23.8588 55.5938 23.9235 55.5938 24.004V24.3436H55.2567C55.1768 24.3436 55.1125 24.4084 55.1125 24.4889C55.1125 24.5694 55.1768 24.6342 55.2567 24.6342H55.5938V24.9738C55.5938 25.0543 55.6581 25.119 55.738 25.119C55.8179 25.119 55.8822 25.0543 55.8822 24.9738V24.6342H56.2193C56.2992 24.6342 56.3635 24.5694 56.3635 24.4889C56.3635 24.4084 56.2992 24.3436 56.2193 24.3436H55.8822V24.004Z" fill="#719FD4"/>
<path fill-rule="evenodd" clip-rule="evenodd" d="M26.9659 27.3216C26.9659 27.2411 26.9016 27.1763 26.8217 27.1763C26.7418 27.1763 26.6775 27.2411 26.6775 27.3216V27.6612H26.3404C26.2605 27.6612 26.1962 27.7259 26.1962 27.8064C26.1962 27.8869 26.2605 27.9517 26.3404 27.9517H26.6775V28.2913C26.6775 28.3718 26.7418 28.4366 26.8217 28.4366C26.9016 28.4366 26.9659 28.3718 26.9659 28.2913V27.9517H27.303C27.3829 27.9517 27.4472 27.8869 27.4472 27.8064C27.4472 27.7259 27.3829 27.6612 27.303 27.6612H26.9659V27.3216Z" fill="#719FD4"/>
<path fill-rule="evenodd" clip-rule="evenodd" d="M32.6244 46.6732C32.6244 46.5927 32.5601 46.528 32.4802 46.528C32.4003 46.528 32.336 46.5927 32.336 46.6732V47.0128H31.9989C31.919 47.0128 31.8547 47.0776 31.8547 47.1581C31.8547 47.2386 31.919 47.3034 31.9989 47.3034H32.336V47.643C32.336 47.7234 32.4003 47.7882 32.4802 47.7882C32.5601 47.7882 32.6244 47.7234 32.6244 47.643V47.3034H32.9615C33.0414 47.3034 33.1057 47.2386 33.1057 47.1581C33.1057 47.0776 33.0414 47.0128 32.9615 47.0128H32.6244V46.6732Z" fill="#719FD4"/>
<path fill-rule="evenodd" clip-rule="evenodd" d="M33.9962 34.628C34.004 33.6053 34.4385 33.1675 34.6451 32.7376C34.7912 32.4314 34.9023 31.2143 34.8964 30.9218C34.8906 30.645 34.6665 28.5347 34.2222 29.7538C34.2222 29.7538 34.23 29.1668 34.0469 28.8174C33.8637 28.4699 33.6045 29.2022 33.6045 29.2022C33.6045 29.2022 33.5675 28.4425 33.2226 28.4523C32.8777 28.4601 32.9752 29.6831 32.9167 29.3396C32.8563 28.996 32.7686 28.4719 32.3964 28.5288C32.375 28.5426 32.3536 28.5544 32.3321 28.5681C32.2581 28.6172 32.188 31.0769 32.2055 31.4479C31.7982 30.8963 31.4923 30.8118 31.2858 30.7235C31.1338 30.6587 30.937 30.7333 30.9097 30.8197C30.8863 30.8943 31.2838 31.3851 31.315 31.5342C31.5625 32.7081 32.3458 32.8848 32.7706 33.7113C32.7472 33.8604 32.866 34.2962 32.8329 34.4808C33.4974 34.5907 33.513 34.5259 33.9962 34.628Z" fill="#F4AD85"/>
</svg>
