<svg width="91" height="65" viewBox="0 0 91 65" fill="none" xmlns="http://www.w3.org/2000/svg">
<path fill-rule="evenodd" clip-rule="evenodd" d="M14.6253 69.9925C6.58118 69.9925 0 63.5765 0 55.7381C0 47.8997 6.58118 41.4837 14.6253 41.4837C18.0272 41.4837 20.811 38.7706 20.811 35.4591C20.811 32.1439 18.0272 29.4345 14.6253 29.4345H13.8881C10.3517 29.4345 7.45662 26.616 7.45662 23.169C7.45662 19.7221 10.3517 16.9036 13.8881 16.9036H16.1458C17.5204 16.9036 18.6492 15.8048 18.6492 14.4651C18.6492 13.1255 17.5242 12.0267 16.1458 12.0267H14.487C13.5348 12.0267 12.7592 11.2703 12.7592 10.3446C12.7592 9.41888 13.5386 8.66251 14.487 8.66251H25.6413C27.1349 8.66251 28.3559 7.47339 28.3559 6.0171C28.3559 4.5608 27.1349 3.37168 25.6413 3.37168H22.3084C21.3562 3.37168 20.5806 2.61531 20.5806 1.6896C20.5806 0.763896 21.36 0.00752607 22.3084 0.00752607H69.7398C70.98 0.00752607 71.9937 0.997205 71.9937 2.20514C71.9937 3.41307 70.9762 4.40275 69.7398 4.40275H66.3225C64.3758 4.40275 62.7785 5.95689 62.7785 7.85346C62.7785 9.75003 64.3719 11.3042 66.3225 11.3042H80.967C82.2072 11.3042 83.2208 12.2938 83.2208 13.5018C83.2208 14.7097 82.2072 15.6994 80.967 15.6994H78.8014C77.0044 15.6994 75.5338 17.1331 75.5338 18.8829C75.5338 20.6327 77.0044 22.0664 78.8014 22.0664H81.7464C86.3617 22.0664 90.1361 25.7467 90.1361 30.2435C90.1361 34.7404 86.3617 38.4206 81.7464 38.4206H80.7865C76.3478 38.4206 72.7155 41.9579 72.7155 46.2854C72.7155 50.6128 76.3478 54.1501 80.7865 54.1501H82.8676C87.3446 54.1501 91.0038 57.7175 91.0038 62.0788C91.0038 66.4402 87.3408 70.0075 82.8676 70.0075C59.7106 69.9925 37.7823 69.9925 14.6253 69.9925ZM75.507 4.39523C76.751 4.39523 77.7608 3.41307 77.7608 2.19761C77.7608 0.982153 76.751 0 75.507 0C74.2629 0 73.2531 0.982153 73.2531 2.19761C73.2531 3.41307 74.2591 4.39523 75.507 4.39523ZM9.64139 12.0229C10.5975 12.0229 11.3692 11.2703 11.3692 10.3408C11.3692 9.41136 10.5936 8.65875 9.64139 8.65875C8.68532 8.65875 7.91354 9.41136 7.91354 10.3408C7.91354 11.2703 8.68532 12.0229 9.64139 12.0229Z" fill="#C1DBF2"/>
<path fill-rule="evenodd" clip-rule="evenodd" d="M45.8149 13.8329H18.5648C18.6185 14.0324 18.6492 14.2469 18.6492 14.4613C18.6492 15.801 17.5242 16.8998 16.1458 16.8998H13.8881C10.3517 16.8998 7.45663 19.7183 7.45663 23.1652C7.45663 23.1841 7.45663 23.2029 7.45663 23.2217H45.811C48.4604 23.2217 50.6298 21.1106 50.6298 18.5254C50.6336 15.9477 48.4642 13.8329 45.8149 13.8329Z" fill="#DCE9F7"/>
<path fill-rule="evenodd" clip-rule="evenodd" d="M8.05177 20.5537H50.6336V69.9925H14.6253C6.58118 69.9925 0 63.5765 0 55.7381C0 47.8997 6.58118 41.4837 14.6253 41.4837C18.0272 41.4837 20.811 38.7706 20.811 35.4591C20.811 32.1439 18.0272 29.4345 14.6253 29.4345H13.8881C10.3517 29.4345 7.45662 26.616 7.45662 23.169C7.46046 22.2358 7.67165 21.3515 8.05177 20.5537Z" fill="#CDE0F3"/>
<path fill-rule="evenodd" clip-rule="evenodd" d="M7.62173 24.5576H47.1664C48.2991 24.5576 49.2245 25.6263 49.2245 26.9358V69.9925H14.6253C6.58118 69.9925 0 63.5765 0 55.7381C0 47.8997 6.58118 41.4837 14.6253 41.4837C18.0272 41.4837 20.811 38.7706 20.811 35.4591C20.811 32.1439 18.0272 29.4345 14.6253 29.4345H13.8881C10.8432 29.4345 8.27447 27.3422 7.62173 24.5576Z" fill="#C1DBF2"/>
<path fill-rule="evenodd" clip-rule="evenodd" d="M20.4654 33.476H49.2245V37.525H20.4347C20.6766 36.8777 20.811 36.1853 20.811 35.4591C20.811 34.7667 20.6881 34.1006 20.4654 33.476Z" fill="#CDE0F3"/>
<path fill-rule="evenodd" clip-rule="evenodd" d="M51.2441 31.7525H19.494C20.3195 32.776 20.811 34.0668 20.811 35.4591C20.811 35.5757 20.8071 35.6886 20.7994 35.8015H51.2403C51.989 35.8015 52.5957 35.207 52.5957 34.4807V33.0771C52.5995 32.3471 51.989 31.7525 51.2441 31.7525Z" fill="#DCE9F7"/>
<path fill-rule="evenodd" clip-rule="evenodd" d="M0.57211 51.8019H49.2245V55.851H0.00383966C0.00383966 55.8133 0 55.7757 0 55.7381C0 54.3759 0.199662 53.055 0.57211 51.8019Z" fill="#CDE0F3"/>
<path fill-rule="evenodd" clip-rule="evenodd" d="M51.2441 50.0785H1.2095C0.645065 51.3466 0.261099 52.7051 0.0921535 54.1275H51.2403C51.989 54.1275 52.5957 53.533 52.5957 52.8067V51.3993C52.5995 50.673 51.989 50.0785 51.2441 50.0785Z" fill="#DCE9F7"/>
<path fill-rule="evenodd" clip-rule="evenodd" d="M51.2441 18.5292H9.57996C8.42038 19.5527 7.64477 20.9827 7.48734 22.5782H51.2403C51.989 22.5782 52.5957 21.9836 52.5957 21.2574V19.85C52.5995 19.1237 51.989 18.5292 51.2441 18.5292Z" fill="#DCE9F7"/>
<path fill-rule="evenodd" clip-rule="evenodd" d="M11.2579 17.5132H46.8439C47.8076 17.5132 48.5948 16.6477 48.5948 15.594C48.5948 15.1839 48.4757 14.8038 48.2761 14.4915C49.6699 15.1989 50.6413 16.7455 50.6413 18.5292H9.57996C10.0753 18.1153 10.6397 17.7691 11.2579 17.5132Z" fill="#CDE0F3"/>
<path fill-rule="evenodd" clip-rule="evenodd" d="M47.5273 39.8468H41.5797C41.2994 39.8468 41.0729 40.0688 41.0729 40.3435V49.5855C41.0729 49.8602 41.2994 50.0823 41.5797 50.0823H47.5273C47.8076 50.0823 48.0342 49.8602 48.0342 49.5855V40.3435C48.0342 40.0688 47.8076 39.8468 47.5273 39.8468Z" fill="#EAEAE6"/>
<path fill-rule="evenodd" clip-rule="evenodd" d="M40.2704 39.8468H37.2485C37.1065 39.8468 36.9913 39.9597 36.9913 40.0989V49.8264C36.9913 49.9656 37.1065 50.0785 37.2485 50.0785H40.2704C40.4124 50.0785 40.5276 49.9656 40.5276 49.8264V40.0989C40.5276 39.9597 40.4124 39.8468 40.2704 39.8468Z" fill="#E7E9E3"/>
<path fill-rule="evenodd" clip-rule="evenodd" d="M37.7247 37.9201H34.2114C34.0463 37.9201 33.9119 38.0518 33.9119 38.2136V49.7887C33.9119 49.9505 34.0463 50.0822 34.2114 50.0822H37.7285C37.8936 50.0822 38.028 49.9505 38.028 49.7887V38.2136C38.028 38.0518 37.8898 37.9201 37.7247 37.9201Z" fill="#B3CEEB"/>
<path fill-rule="evenodd" clip-rule="evenodd" d="M39.0148 45.3408H32.9251C32.7293 45.3408 32.5718 45.4951 32.5718 45.687V49.7323C32.5718 49.9242 32.7293 50.0785 32.9251 50.0785H39.0148C39.2106 50.0785 39.368 49.9242 39.368 49.7323V45.687C39.368 45.4951 39.2106 45.3408 39.0148 45.3408Z" fill="#B8D3EE"/>
<path fill-rule="evenodd" clip-rule="evenodd" d="M31.5313 41.3972H28.5095C28.3674 41.3972 28.2522 41.51 28.2522 41.6493V49.8264C28.2522 49.9656 28.3674 50.0785 28.5095 50.0785H31.5313C31.6734 50.0785 31.7886 49.9656 31.7886 49.8264V41.6493C31.7886 41.5138 31.6734 41.3972 31.5313 41.3972Z" fill="#B8D3EE"/>
<path fill-rule="evenodd" clip-rule="evenodd" d="M46.3678 42.1422H42.7355C42.5473 42.1422 42.3937 42.2928 42.3937 42.4734V44.4114C42.3937 44.5957 42.5473 44.7425 42.7355 44.7425H46.3678C46.5559 44.7425 46.7095 44.592 46.7095 44.4114V42.4734C46.7095 42.289 46.5559 42.1422 46.3678 42.1422Z" fill="#E3E2DC"/>
<path fill-rule="evenodd" clip-rule="evenodd" d="M46.4215 45.3408H42.6817C42.5243 45.3408 42.3937 45.465 42.3937 45.6193V45.8902C42.3937 46.0445 42.5204 46.1724 42.6817 46.1724H46.4215C46.579 46.1724 46.7095 46.0483 46.7095 45.8902V45.6193C46.7095 45.465 46.579 45.3408 46.4215 45.3408Z" fill="#E3E2DC"/>
<path fill-rule="evenodd" clip-rule="evenodd" d="M46.4215 46.9439H42.6817C42.5243 46.9439 42.3937 47.0681 42.3937 47.2223V47.4895C42.3937 47.6438 42.5204 47.7717 42.6817 47.7717H46.4215C46.579 47.7717 46.7095 47.6476 46.7095 47.4895V47.2223C46.7095 47.0681 46.579 46.9439 46.4215 46.9439Z" fill="#E3E2DC"/>
<path fill-rule="evenodd" clip-rule="evenodd" d="M30.0223 44.8817C29.6115 44.8817 29.2774 45.2655 29.2774 45.7435C29.2774 46.2176 29.6115 46.6052 30.0223 46.6052C30.4332 46.6052 30.7672 46.2214 30.7672 45.7435C30.7634 45.2655 30.4332 44.8817 30.0223 44.8817Z" fill="#B3CEEB"/>
<path fill-rule="evenodd" clip-rule="evenodd" d="M31.6196 30.1908H30.0223C29.911 30.1908 29.815 30.2811 29.815 30.3903V31.553C29.815 31.6622 29.9071 31.7525 30.0223 31.7525H31.6196C31.731 31.7525 31.8231 31.6622 31.8231 31.553V30.3903C31.8231 30.2811 31.7348 30.1908 31.6196 30.1908Z" fill="#DCE9F7"/>
<path fill-rule="evenodd" clip-rule="evenodd" d="M29.0586 27.6696H24.6698C24.5009 27.6696 24.3627 27.8013 24.3627 27.9669V31.4552C24.3627 31.617 24.5009 31.7525 24.6698 31.7525H29.0586C29.2275 31.7525 29.3657 31.6208 29.3657 31.4552V27.9669C29.3657 27.8013 29.2275 27.6696 29.0586 27.6696Z" fill="#B8D3EE"/>
<path fill-rule="evenodd" clip-rule="evenodd" d="M26.9506 28.9716H23.9633C23.8481 28.9716 23.756 29.0619 23.756 29.1748V31.5531C23.756 31.666 23.8481 31.7563 23.9633 31.7563H26.9506C27.0658 31.7563 27.1579 31.666 27.1579 31.5531V29.1748C27.1618 29.0619 27.0658 28.9716 26.9506 28.9716Z" fill="#B3CEEB"/>
<path fill-rule="evenodd" clip-rule="evenodd" d="M24.8733 25.1634H22.2854C22.1664 25.1634 22.0627 25.2613 22.0627 25.3779V31.538C22.0627 31.6547 22.1625 31.7525 22.2854 31.7525H24.8733C24.9924 31.7525 25.096 31.6547 25.096 31.538V25.3779C25.096 25.2613 24.9924 25.1634 24.8733 25.1634Z" fill="#DCE9F7"/>
<path fill-rule="evenodd" clip-rule="evenodd" d="M41.1036 27.1804H40.9346V26.8756H40.9922C41.0959 26.8756 41.1804 26.7778 41.1804 26.6574C41.1804 26.5369 41.0959 26.4391 40.9922 26.4391H40.7849V25.1446C40.7849 25.0242 40.6966 24.9264 40.5967 24.9264C40.4931 24.9264 40.4086 25.0242 40.4086 25.1446V26.4391H40.2013C40.0976 26.4391 40.0093 26.5369 40.0093 26.6574C40.0093 26.7778 40.0976 26.8756 40.2013 26.8756H40.2588V27.1804H40.0899C39.9747 27.1804 39.8787 27.2895 39.8787 27.425V31.5041C39.8787 31.6396 39.9747 31.7487 40.0899 31.7487H41.1074C41.2264 31.7487 41.3224 31.6396 41.3224 31.5041V27.4288C41.3148 27.2933 41.2188 27.1804 41.1036 27.1804Z" fill="#B3CEEB"/>
<path fill-rule="evenodd" clip-rule="evenodd" d="M42.7508 27.6621H42.6011V27.3874H42.6548C42.747 27.3874 42.8276 27.3008 42.8276 27.1917C42.8276 27.0826 42.7508 26.996 42.6548 26.996H42.4705V25.837C42.4705 25.7279 42.3937 25.6413 42.2977 25.6413C42.2017 25.6413 42.1249 25.7279 42.1249 25.837V26.996H41.9406C41.8446 26.996 41.7678 27.0826 41.7678 27.1917C41.7678 27.3008 41.8446 27.3874 41.9406 27.3874H41.9905V27.6621H41.8408C41.7371 27.6621 41.6488 27.7599 41.6488 27.8803V31.5305C41.6488 31.6509 41.7371 31.7487 41.8408 31.7487H42.7508C42.8545 31.7487 42.9389 31.6509 42.9389 31.5305V27.8803C42.9389 27.7599 42.8545 27.6621 42.7508 27.6621Z" fill="#B3CEEB"/>
<path fill-rule="evenodd" clip-rule="evenodd" d="M45.5653 27.4325H43.0541C42.9351 27.4325 42.8391 27.5266 42.8391 27.6433V31.5455C42.8391 31.6622 42.9351 31.7525 43.0541 31.7525H45.5653C45.6843 31.7525 45.7803 31.6584 45.7803 31.5455V27.6433C45.7764 27.5266 45.6843 27.4325 45.5653 27.4325Z" fill="#DCE9F7"/>
<path fill-rule="evenodd" clip-rule="evenodd" d="M45.0738 28.3996H43.5418C43.465 28.3996 43.3959 28.4636 43.3959 28.5389V29.3592C43.3959 29.4345 43.4611 29.5022 43.5418 29.5022H45.0738C45.1506 29.5022 45.2197 29.4382 45.2197 29.3592V28.5389C45.2197 28.4636 45.1544 28.3996 45.0738 28.3996Z" fill="#F5F6F5"/>
<path fill-rule="evenodd" clip-rule="evenodd" d="M45.1007 29.7505H43.5226C43.4573 29.7505 43.3997 29.8032 43.3997 29.8672V29.9801C43.3997 30.0441 43.4535 30.0968 43.5226 30.0968H45.1007C45.1659 30.0968 45.2197 30.0441 45.2197 29.9801V29.8672C45.2197 29.8032 45.1659 29.7505 45.1007 29.7505Z" fill="#F5F6F5"/>
<path fill-rule="evenodd" clip-rule="evenodd" d="M45.1007 30.4279H43.5226C43.4573 30.4279 43.3997 30.4806 43.3997 30.5446V30.6575C43.3997 30.7214 43.4535 30.7741 43.5226 30.7741H45.1007C45.1659 30.7741 45.2197 30.7214 45.2197 30.6575V30.5446C45.2197 30.4806 45.1659 30.4279 45.1007 30.4279Z" fill="#F5F6F5"/>
<path fill-rule="evenodd" clip-rule="evenodd" d="M42.459 29.0995H40.9154C40.8425 29.0995 40.7849 29.156 40.7849 29.2275V31.6245C40.7849 31.696 40.8425 31.7525 40.9154 31.7525H42.459C42.5319 31.7525 42.5895 31.696 42.5895 31.6245V29.2275C42.5895 29.156 42.5319 29.0995 42.459 29.0995Z" fill="#B8D3EE"/>
<path fill-rule="evenodd" clip-rule="evenodd" d="M39.1838 25.265H33.9503C33.7046 25.265 33.5049 25.4607 33.5049 25.7015V31.3197C33.5049 31.5606 33.7046 31.7563 33.9503 31.7563H39.1838C39.4295 31.7563 39.633 31.5606 39.633 31.3197V25.6978C39.6292 25.4607 39.4295 25.265 39.1838 25.265Z" fill="#B8D3EE"/>
<path fill-rule="evenodd" clip-rule="evenodd" d="M40.1859 29.0995H38.6424C38.5694 29.0995 38.5118 29.156 38.5118 29.2275V31.6245C38.5118 31.696 38.5694 31.7525 38.6424 31.7525H40.1859C40.2589 31.7525 40.3165 31.696 40.3165 31.6245V29.2275C40.3165 29.156 40.2589 29.0995 40.1859 29.0995Z" fill="#DCE9F7"/>
<path fill-rule="evenodd" clip-rule="evenodd" d="M15.7887 27.6696H20.1774C20.3464 27.6696 20.4846 27.8013 20.4846 27.9669V31.4552C20.4846 31.617 20.3464 31.7525 20.1774 31.7525H19.494C18.5264 30.5521 17.1019 29.7129 15.4854 29.4909V27.9631C15.4815 27.8013 15.6197 27.6696 15.7887 27.6696Z" fill="#B3CEEB"/>
<path fill-rule="evenodd" clip-rule="evenodd" d="M17.8967 28.9716H20.8839C20.9991 28.9716 21.0913 29.0619 21.0913 29.1748V31.5531C21.0913 31.666 20.9991 31.7563 20.8839 31.7563H19.494C18.9986 31.1429 18.3843 30.6236 17.6893 30.2322V29.1748C17.6893 29.0619 17.7815 28.9716 17.8967 28.9716Z" fill="#B8D3EE"/>
<path fill-rule="evenodd" clip-rule="evenodd" d="M17.0827 29.7957H18.0771C18.1232 29.7957 18.1616 29.8333 18.1616 29.8785V30.522C17.8007 30.2736 17.409 30.0629 16.9982 29.8973V29.8785C16.9982 29.8333 17.0366 29.7957 17.0827 29.7957Z" fill="#F0F1EE"/>
<path fill-rule="evenodd" clip-rule="evenodd" d="M10.6167 26.0741H8.19767C8.80433 27.1917 9.74889 28.1174 10.897 28.7082V26.3488C10.9008 26.1982 10.7702 26.0741 10.6167 26.0741Z" fill="#EAEAE6"/>
<path fill-rule="evenodd" clip-rule="evenodd" d="M9.97544 27.346H9.11152C9.42637 27.6884 9.77962 27.997 10.1636 28.2642V27.5304C10.1636 27.4325 10.0791 27.346 9.97544 27.346Z" fill="#E3E2DC"/>
<path fill-rule="evenodd" clip-rule="evenodd" d="M12.5634 42.8798H12.2984V42.3981H12.3906C12.5557 42.3981 12.6901 42.2438 12.6901 42.0519C12.6901 41.86 12.5557 41.7057 12.3906 41.7057H12.0834C11.6649 41.7772 11.2502 41.8675 10.8432 41.9767C10.8394 42.003 10.8355 42.0293 10.8355 42.0519C10.8355 42.2438 10.9699 42.3981 11.135 42.3981H11.2272V42.8798H10.9622C10.7779 42.8798 10.6282 43.0529 10.6282 43.2674V49.6909C10.6282 49.9016 10.7779 50.0785 10.9622 50.0785H12.5672C12.7515 50.0785 12.9013 49.9054 12.9013 49.6909V43.2674C12.8974 43.0567 12.7477 42.8798 12.5634 42.8798Z" fill="#B3CEEB"/>
<path fill-rule="evenodd" clip-rule="evenodd" d="M15.1552 43.6362H14.9171V43.2034H14.9977C15.1436 43.2034 15.2665 43.0642 15.2665 42.8949C15.2665 42.7255 15.1475 42.5863 14.9977 42.5863H14.7021V41.4875C14.6752 41.4875 14.6483 41.4875 14.6253 41.4875C14.4717 41.4875 14.3219 41.4912 14.1684 41.495V42.5863H13.8727C13.7268 42.5863 13.6039 42.7255 13.6039 42.8949C13.6039 43.0642 13.723 43.2034 13.8727 43.2034H13.9533V43.6362H13.7153C13.5502 43.6362 13.4158 43.7905 13.4158 43.9824V49.7323C13.4158 49.9242 13.5502 50.0785 13.7153 50.0785H15.1513C15.3164 50.0785 15.4508 49.9242 15.4508 49.7323V43.9824C15.4546 43.7942 15.3203 43.6362 15.1552 43.6362Z" fill="#DEDED7"/>
<path fill-rule="evenodd" clip-rule="evenodd" d="M19.5861 43.2787H15.6313C15.447 43.2787 15.2934 43.4254 15.2934 43.6061V49.7511C15.2934 49.9317 15.4431 50.0785 15.6313 50.0785H19.5861C19.7704 50.0785 19.924 49.9317 19.924 49.7511V43.6061C19.9278 43.4254 19.7743 43.2787 19.5861 43.2787Z" fill="#F9F9FA"/>
<path fill-rule="evenodd" clip-rule="evenodd" d="M18.8182 44.8027H16.4031C16.2763 44.8027 16.1765 44.9043 16.1765 45.0247V46.3117C16.1765 46.4321 16.2802 46.5337 16.4031 46.5337H18.8182C18.9449 46.5337 19.0447 46.4321 19.0447 46.3117V45.0247C19.0447 44.9005 18.9411 44.8027 18.8182 44.8027Z" fill="#F5F6F5"/>
<path fill-rule="evenodd" clip-rule="evenodd" d="M18.8527 46.9288H16.3646C16.261 46.9288 16.1726 47.0116 16.1726 47.117V47.2938C16.1726 47.3954 16.2571 47.482 16.3646 47.482H18.8489C18.9526 47.482 19.0409 47.3992 19.0409 47.2938V47.117C19.0447 47.0116 18.9602 46.9288 18.8527 46.9288Z" fill="#F5F6F5"/>
<path fill-rule="evenodd" clip-rule="evenodd" d="M18.8527 47.9938H16.3646C16.261 47.9938 16.1726 48.0766 16.1726 48.1819V48.3588C16.1726 48.4604 16.2571 48.5469 16.3646 48.5469H18.8489C18.9526 48.5469 19.0409 48.4641 19.0409 48.3588V48.1819C19.0447 48.0803 18.9602 47.9938 18.8527 47.9938Z" fill="#F5F6F5"/>
<path fill-rule="evenodd" clip-rule="evenodd" d="M14.6982 45.8978H12.2716C12.1564 45.8978 12.0642 45.9881 12.0642 46.101V49.8753C12.0642 49.9882 12.1564 50.0785 12.2716 50.0785H14.7021C14.8173 50.0785 14.9094 49.9882 14.9094 49.8753V46.101C14.9056 45.9918 14.8134 45.8978 14.6982 45.8978Z" fill="#EAEAE6"/>
<path fill-rule="evenodd" clip-rule="evenodd" d="M1.21334 50.0747C1.24406 50.0785 1.27478 50.0822 1.3055 50.0822H9.54541C9.93322 50.0822 10.2481 49.7737 10.2481 49.3974V42.146C6.19723 43.3916 2.89896 46.3154 1.21334 50.0747Z" fill="#C1DBF2"/>
<path fill-rule="evenodd" clip-rule="evenodd" d="M11.1158 45.8978H8.68531C8.57012 45.8978 8.47797 45.9881 8.47797 46.101V49.8753C8.47797 49.9882 8.57012 50.0785 8.68531 50.0785H11.1158C11.231 50.0785 11.3232 49.9882 11.3232 49.8753V46.101C11.3232 45.9918 11.231 45.8978 11.1158 45.8978Z" fill="#C1DBF2"/>
<path fill-rule="evenodd" clip-rule="evenodd" d="M25.0461 62.4814H31.4084C31.6503 62.4814 31.85 62.6771 31.85 62.9142V67.9755C31.85 68.2126 31.6503 68.4082 31.4084 68.4082H25.0461C24.8042 68.4082 24.6045 68.2126 24.6045 67.9755V62.9142C24.6045 62.6734 24.8042 62.4814 25.0461 62.4814Z" fill="#EAEAE6"/>
<path fill-rule="evenodd" clip-rule="evenodd" d="M28.1025 64.3705H32.4375C32.6026 64.3705 32.7408 64.5022 32.7408 64.664V68.1109C32.7408 68.2728 32.6064 68.4045 32.4375 68.4045H28.1025C27.9374 68.4045 27.7992 68.2728 27.7992 68.1109V64.664C27.7992 64.5022 27.9374 64.3705 28.1025 64.3705Z" fill="#E1E1D9"/>
<path fill-rule="evenodd" clip-rule="evenodd" d="M31.1166 58.8539H34.8718C35.0484 58.8539 35.1905 58.9969 35.1905 59.1662V68.0921C35.1905 68.2652 35.0446 68.4045 34.8718 68.4045H31.1166C30.94 68.4045 30.7979 68.2652 30.7979 68.0921V59.1662C30.7979 58.9894 30.94 58.8539 31.1166 58.8539Z" fill="#B8D3EE"/>
<path fill-rule="evenodd" clip-rule="evenodd" d="M7.58717 61.774H7.83291V61.33H7.74844C7.59869 61.33 7.47198 61.187 7.47198 61.0101C7.47198 60.837 7.59869 60.6903 7.74844 60.6903H8.05177V58.8125C8.05177 58.6394 8.17848 58.4926 8.32823 58.4926C8.47797 58.4926 8.60468 58.6356 8.60468 58.8125V60.6903H8.90801C9.05776 60.6903 9.18447 60.8333 9.18447 61.0101C9.18447 61.1832 9.05776 61.33 8.90801 61.33H8.82354V61.774H9.06928C9.23823 61.774 9.37645 61.9358 9.37645 62.1277V68.0432C9.37645 68.2389 9.23823 68.4007 9.06928 68.4007H7.94426C7.72156 68.2878 7.5027 68.1674 7.28384 68.047V68.0432V62.1277C7.27616 61.9358 7.41822 61.774 7.58717 61.774Z" fill="#DEDED7"/>
<path fill-rule="evenodd" clip-rule="evenodd" d="M5.19891 62.4701H5.41777V62.0713H5.34481C5.21043 62.0713 5.09524 61.9433 5.09524 61.7853C5.09524 61.6272 5.20659 61.4993 5.34481 61.4993H5.61359V59.8172C5.61359 59.6592 5.72494 59.5312 5.86317 59.5312C5.99756 59.5312 6.11275 59.6592 6.11275 59.8172V61.4993H6.38152C6.51591 61.4993 6.6311 61.6272 6.6311 61.7853C6.6311 61.9433 6.51975 62.0713 6.38152 62.0713H6.30857V62.4701H6.52743C6.67718 62.4701 6.80389 62.6131 6.80389 62.79V67.761C6.13962 67.347 5.5176 66.8842 4.93013 66.3799V62.7938C4.92245 62.6131 5.04916 62.4701 5.19891 62.4701Z" fill="#DEDED7"/>
<path fill-rule="evenodd" clip-rule="evenodd" d="M1.56657 62.139H4.75733C4.93012 62.139 5.06834 62.2745 5.06834 62.44V66.5041C3.63231 65.2924 2.43434 63.8098 1.56657 62.139Z" fill="#F9F9FA"/>
<path fill-rule="evenodd" clip-rule="evenodd" d="M2.40363 63.5426H4.047C4.16219 63.5426 4.25818 63.6367 4.25818 63.7458V64.9312C4.25818 65.0441 4.16219 65.1344 4.047 65.1344H3.65152C3.19844 64.6377 2.78375 64.1033 2.40363 63.5426Z" fill="#F5F6F5"/>
<path fill-rule="evenodd" clip-rule="evenodd" d="M5.61744 64.5549H7.85596C7.95963 64.5549 8.04795 64.6377 8.04795 64.7431V68.2201C8.04795 68.2991 7.99419 68.3706 7.9174 68.3932C7.03044 67.9416 6.19723 67.4073 5.42546 66.7977V64.7393C5.4293 64.6377 5.51377 64.5549 5.61744 64.5549Z" fill="#EAEAE6"/>
<path fill-rule="evenodd" clip-rule="evenodd" d="M10.3671 58.9931H17.9543C18.3113 58.9931 18.5993 59.2791 18.5993 59.6253V67.7723C18.5993 68.1185 18.3075 68.4045 17.9543 68.4045H10.3671C10.01 68.4045 9.72202 68.1185 9.72202 67.7723V59.6253C9.72202 59.2791 10.01 58.9931 10.3671 58.9931Z" fill="#EAEAE6"/>
<path fill-rule="evenodd" clip-rule="evenodd" d="M8.91954 64.5549H11.1542C11.2579 64.5549 11.3462 64.6377 11.3462 64.7431V68.2201C11.3462 68.3217 11.2579 68.4045 11.1542 68.4045H8.91954C8.81587 68.4045 8.72755 68.3217 8.72755 68.2201V64.7431C8.72755 64.6377 8.81203 64.5549 8.91954 64.5549Z" fill="#F9F9FA"/>
<path fill-rule="evenodd" clip-rule="evenodd" d="M44.2866 62.4814H37.9243C37.6786 62.4814 37.4828 62.6771 37.4828 62.9142V67.9755C37.4828 68.2126 37.6824 68.4082 37.9243 68.4082H44.2866C44.5324 68.4082 44.7282 68.2126 44.7282 67.9755V62.9142C44.7282 62.6734 44.5285 62.4814 44.2866 62.4814Z" fill="#EAEAE6"/>
<path fill-rule="evenodd" clip-rule="evenodd" d="M41.2303 64.3705H36.8992C36.734 64.3705 36.5958 64.5022 36.5958 64.664V68.1109C36.5958 68.2728 36.7302 68.4045 36.8992 68.4045H41.2303C41.3992 68.4045 41.5336 68.2728 41.5336 68.1109V64.664C41.5336 64.5022 41.3992 64.3705 41.2303 64.3705Z" fill="#E1E1D9"/>
<path fill-rule="evenodd" clip-rule="evenodd" d="M16.2341 42.1686L17.9581 42.0143C18.0694 42.003 18.1654 42.0858 18.1654 42.1987V42.7406C18.1654 42.8497 18.0733 42.9475 17.9581 42.9588L16.2341 43.1093C16.1227 43.1206 16.0306 43.0379 16.0306 42.925V42.3831C16.0306 42.2777 16.1227 42.1761 16.2341 42.1686Z" fill="white"/>
<path d="M37.4405 19.1689H27.8951C26.1366 19.1689 24.7121 17.7728 24.7121 16.0493V8.25232C24.7121 7.39059 25.4262 6.69443 26.3017 6.69443H39.0302C39.9094 6.69443 40.6198 7.39435 40.6198 8.25232V16.0493C40.6198 17.7728 39.1953 19.1689 37.4405 19.1689Z" fill="#EFE6DE"/>
<path d="M31.8346 53.6346C27.6955 53.2206 24.7121 49.3974 24.7121 45.3182V16.0493H40.6198V45.7773C40.6198 50.3419 36.592 54.1087 31.8346 53.6346Z" fill="#FD3018"/>
<path d="M63.1049 19.1689H53.5595C51.8009 19.1689 50.3764 17.7728 50.3764 16.0493V8.25232C50.3764 7.39059 51.0906 6.69443 51.966 6.69443H64.6945C65.5738 6.69443 66.2841 7.39435 66.2841 8.25232V16.0493C66.2879 17.7728 64.8634 19.1689 63.1049 19.1689Z" fill="#DFCCBF"/>
<path d="M57.5028 53.6346C53.3636 53.2206 50.3802 49.3974 50.3802 45.3182V16.0493H66.2879V45.7773C66.2879 50.3419 62.2563 54.1087 57.5028 53.6346Z" fill="#B80000"/>
<path d="M42.2132 9.81407H23.1224C22.2432 9.81407 21.5328 9.11791 21.5328 8.25617C21.5328 7.39443 22.2432 6.69827 23.1224 6.69827H42.2132C43.0925 6.69827 43.8029 7.39443 43.8029 8.25617C43.8029 9.11791 43.0925 9.81407 42.2132 9.81407Z" fill="#57555C"/>
<path d="M67.8776 9.81407H48.7868C47.9075 9.81407 47.1971 9.11791 47.1971 8.25617C47.1971 7.39443 47.9075 6.69827 48.7868 6.69827H67.8776C68.7568 6.69827 69.4672 7.39443 69.4672 8.25617C69.4672 9.11791 68.7568 9.81407 67.8776 9.81407Z" fill="#3C3A41"/>
<path d="M67.8775 28.6254H23.1224C20.4923 28.6254 18.3497 30.7252 18.3497 33.3029V55.2338C18.3497 57.8115 20.4923 59.9113 23.1224 59.9113H67.8775C70.5077 59.9113 72.6503 57.8115 72.6503 55.2338V33.3029C72.6503 30.7252 70.5077 28.6254 67.8775 28.6254ZM23.1224 31.745H67.8775C68.7568 31.745 69.4672 32.4449 69.4672 33.3029V37.9803H21.5328V33.3029C21.5328 32.4411 22.2432 31.745 23.1224 31.745Z" fill="#FCBF29"/>
<path d="M67.8776 28.6254H45.5V31.745H67.8776C68.7568 31.745 69.4672 32.4449 69.4672 33.3029V37.9803H45.5V59.9113H67.8776C70.5077 59.9113 72.6503 57.8115 72.6503 55.2338V33.3029C72.6503 30.7252 70.5077 28.6254 67.8776 28.6254Z" fill="#FE9923"/>
</svg>
