<svg width="54" height="54" viewBox="0 0 54 54" fill="none" xmlns="http://www.w3.org/2000/svg">
<path d="M27 0.333344C12.28 0.333344 0.333374 12.28 0.333374 27C0.333374 41.72 12.28 53.6667 27 53.6667C41.72 53.6667 53.6667 41.72 53.6667 27C53.6667 12.28 41.72 0.333344 27 0.333344ZM27 48.3333C15.24 48.3333 5.66671 38.76 5.66671 27C5.66671 15.24 15.24 5.66668 27 5.66668C38.76 5.66668 48.3334 15.24 48.3334 27C48.3334 38.76 38.76 48.3333 27 48.3333ZM20.3334 39L39 27L20.3334 15V39Z" fill="white"/>
</svg>
