<svg width="20" height="16" viewBox="0 0 20 16" fill="none" xmlns="http://www.w3.org/2000/svg">
<path d="M18 0H2C0.89 0 0.00999999 0.89 0.00999999 2L0 14C0 15.11 0.89 16 2 16H18C19.11 16 20 15.11 20 14V2C20 0.89 19.11 0 18 0ZM18 14H2V2H18V14ZM6 13H8V12H9C9.55 12 10 11.55 10 11V8C10 7.45 9.55 7 9 7H6V6H10V4H8V3H6V4H5C4.45 4 4 4.45 4 5V8C4 8.55 4.45 9 5 9H8V10H4V12H6V13ZM14.71 8L15.77 9.06L15.06 9.77L14 8.71L12.94 9.77L12.23 9.06L13.29 8L12.23 6.94L12.94 6.23L14 7.29L15.06 6.23L15.77 6.94L14.71 8Z" fill="#172B4D"/>
</svg>
