<svg width="20" height="20" viewBox="0 0 20 20" fill="none" xmlns="http://www.w3.org/2000/svg">
<path d="M10 0C4.5 0 0 4.5 0 10C0 15.5 4.5 20 10 20C15.5 20 20 15.5 20 10C20 4.5 15.5 0 10 0ZM10 18C5.6 18 2 14.4 2 10C2 5.6 5.6 2 10 2C14.4 2 18 5.6 18 10C18 14.4 14.4 18 10 18ZM14 12C14 13.7 12.7 15 11 15V16C11 16.6 10.6 17 10 17C9.4 17 9 16.6 9 16V15H8C7.4 15 7 14.6 7 14C7 13.4 7.4 13 8 13H11C11.6 13 12 12.6 12 12C12 11.4 11.6 11 11 11H9C7.3 11 6 9.7 6 8C6 6.3 7.3 5 9 5V4C9 3.4 9.4 3 10 3C10.6 3 11 3.4 11 4V5H12C12.6 5 13 5.4 13 6C13 6.6 12.6 7 12 7H9C8.4 7 8 7.4 8 8C8 8.6 8.4 9 9 9H11C12.7 9 14 10.3 14 12Z" fill="#0762F7"/>
</svg>
