<svg width="37" height="36" viewBox="0 0 37 36" fill="none" xmlns="http://www.w3.org/2000/svg">
<g clip-path="url(#clip0_18433_7944)">
<path d="M6.93004 20.865C6.69864 19.8821 6.58778 18.8747 6.59999 17.865C6.60408 17.5032 6.47733 17.1521 6.24303 16.8765C6.00873 16.6008 5.68271 16.4192 5.32503 16.365H5.205C5.00553 16.3487 4.80482 16.3724 4.61467 16.4348C4.42452 16.4973 4.24873 16.5971 4.09776 16.7285C3.9468 16.8599 3.82365 17.0201 3.73558 17.1999C3.64751 17.3796 3.59632 17.5752 3.58498 17.775C3.57271 19.0342 3.72396 20.2897 4.03496 21.51C4.08988 21.7024 4.18278 21.882 4.30815 22.038C4.43352 22.194 4.58887 22.3233 4.765 22.4184C4.94113 22.5134 5.13451 22.5722 5.33372 22.5914C5.53294 22.6106 5.73395 22.5897 5.92497 22.53H6.045C6.3607 22.3955 6.62076 22.1569 6.78181 21.8539C6.94287 21.5509 6.99522 21.2019 6.93004 20.865Z" fill="#BF9806"/>
<path d="M19.455 29.9701C18.4216 30.0453 17.3828 29.9847 16.365 29.7901C16.0232 29.7521 15.6787 29.8326 15.3893 30.0183C15.0998 30.204 14.883 30.4835 14.775 30.8101V30.9151C14.7238 31.1102 14.7125 31.3137 14.7417 31.5133C14.771 31.7129 14.8401 31.9045 14.9451 32.0768C15.0502 32.249 15.189 32.3983 15.353 32.5157C15.5171 32.6331 15.7031 32.7162 15.9 32.7601C16.8007 32.9237 17.7146 33.004 18.6301 33H19.62C19.8231 32.9817 20.0203 32.9223 20.1996 32.8252C20.379 32.7282 20.5366 32.5955 20.663 32.4355C20.7893 32.2755 20.8817 32.0914 20.9345 31.8944C20.9873 31.6975 20.9994 31.4919 20.9701 31.2901V31.1851C20.9213 30.827 20.737 30.5012 20.4551 30.2751C20.1731 30.049 19.8152 29.9399 19.455 29.9701Z" fill="#BF9806"/>
<path d="M28.83 26.58C28.5605 26.3555 28.2208 26.2326 27.87 26.2326C27.5192 26.2326 27.1795 26.3555 26.91 26.58C26.1887 27.2891 25.3766 27.8993 24.495 28.395C24.1995 28.5805 23.9779 28.8633 23.8684 29.1946C23.7589 29.5259 23.7684 29.8849 23.895 30.21V30.315C23.9826 30.497 24.1059 30.6595 24.2578 30.7927C24.4096 30.9259 24.5869 31.0271 24.7788 31.0901C24.9707 31.1531 25.1734 31.1768 25.3746 31.1596C25.5759 31.1424 25.7716 31.0847 25.95 30.99C27.0399 30.3739 28.0478 29.623 28.95 28.755C29.0952 28.6151 29.2106 28.4473 29.2895 28.2617C29.3684 28.0762 29.4091 27.8766 29.4091 27.675C29.4091 27.4734 29.3684 27.2738 29.2895 27.0882C29.2106 26.9027 29.0952 26.735 28.95 26.595L28.83 26.58Z" fill="#BF9806"/>
<path d="M9.33007 25.62C9.09541 25.3625 8.77846 25.1947 8.43359 25.1454C8.08872 25.0962 7.73743 25.1685 7.44006 25.35H7.35006C7.18704 25.4672 7.04921 25.616 6.94476 25.7875C6.8403 25.959 6.77134 26.1497 6.74197 26.3484C6.71259 26.547 6.72339 26.7495 6.77374 26.9439C6.82408 27.1383 6.91291 27.3205 7.03503 27.48C7.83088 28.4436 8.74279 29.3051 9.75003 30.045C9.91679 30.1613 10.1055 30.2425 10.3047 30.2837C10.5038 30.3248 10.7091 30.3251 10.9084 30.2844C11.1076 30.2437 11.2965 30.1629 11.4635 30.047C11.6306 29.9311 11.7723 29.7823 11.8801 29.6099V29.505C12.0631 29.2008 12.1245 28.8386 12.0522 28.4911C11.9799 28.1435 11.7792 27.836 11.4901 27.63C10.6901 27.0514 9.96465 26.3763 9.33007 25.62Z" fill="#BF9806"/>
<path d="M32.04 17.97H31.935C31.5932 17.9856 31.2671 18.1176 31.0106 18.344C30.7541 18.5705 30.5828 18.8778 30.525 19.215C30.4318 20.2431 30.1944 21.253 29.82 22.215C29.7194 22.5457 29.7362 22.901 29.8674 23.2208C29.9986 23.5406 30.2362 23.8052 30.54 23.97H30.63C30.8144 24.0562 31.0144 24.1039 31.2178 24.1103C31.4212 24.1167 31.6237 24.0817 31.8132 24.0073C32.0026 23.9329 32.175 23.8208 32.3197 23.6777C32.4644 23.5346 32.5785 23.3636 32.655 23.175C33.0879 21.9943 33.375 20.7652 33.51 19.515C33.516 19.3167 33.4826 19.1193 33.4118 18.9341C33.3409 18.7488 33.2341 18.5794 33.0974 18.4358C32.9607 18.2921 32.7968 18.177 32.6153 18.097C32.4338 18.0171 32.2383 17.9739 32.04 17.97Z" fill="#BF9806"/>
<path d="M29.8951 13.9649C30.0275 14.2864 30.2673 14.5519 30.5738 14.716C30.8802 14.8802 31.2341 14.9329 31.5751 14.865H31.695C31.8892 14.8102 32.0703 14.7168 32.2276 14.5904C32.3848 14.464 32.515 14.3072 32.6102 14.1294C32.7054 13.9515 32.7637 13.7563 32.7817 13.5553C32.7998 13.3544 32.7771 13.1519 32.715 12.96C32.2922 11.7785 31.7228 10.6547 31.0201 9.615C30.9005 9.45206 30.7492 9.31491 30.5753 9.21189C30.4015 9.10887 30.2086 9.04204 30.0083 9.01542C29.8079 8.9888 29.6043 9.00294 29.4096 9.05698C29.2149 9.11103 29.033 9.20393 28.875 9.32999C28.6138 9.5655 28.4437 9.88523 28.3944 10.2334C28.345 10.5816 28.4196 10.9361 28.605 11.2349C29.1491 12.0865 29.5827 13.0039 29.8951 13.9649Z" fill="#BF9806"/>
<path d="M5.92501 13.425H6.03002C6.35976 13.5501 6.72445 13.5472 7.05211 13.4166C7.37978 13.2861 7.64661 13.0376 7.80001 12.72C8.24857 11.8097 8.80778 10.9583 9.46498 10.185C9.68561 9.91662 9.80629 9.57994 9.80629 9.2325C9.80629 8.88506 9.68561 8.54839 9.46498 8.27999V8.18999C9.32008 8.04956 9.14839 7.93977 8.96007 7.86727C8.77176 7.79477 8.57076 7.76102 8.3691 7.76802C8.16743 7.77503 7.9692 7.82271 7.78637 7.9081C7.60353 7.99349 7.43989 8.11483 7.30507 8.26497C6.49273 9.21527 5.80229 10.2634 5.24999 11.385C5.15771 11.5627 5.10196 11.7571 5.08602 11.9567C5.07008 12.1564 5.09433 12.3572 5.15724 12.5474C5.22016 12.7375 5.32045 12.9131 5.45232 13.0638C5.58419 13.2145 5.74492 13.3374 5.92501 13.425Z" fill="#BF9806"/>
<path d="M21.885 6.465C22.8575 6.73793 23.7903 7.13633 24.66 7.65006C24.969 7.81381 25.3255 7.86446 25.6679 7.79325C26.0103 7.72204 26.3169 7.53342 26.535 7.26005V7.17005C26.6489 7.00378 26.7282 6.81629 26.768 6.61872C26.8078 6.42115 26.8074 6.21756 26.7668 6.02015C26.7262 5.82274 26.6463 5.63555 26.5317 5.46973C26.4172 5.30392 26.2703 5.16282 26.1 5.055C25.0218 4.41432 23.8679 3.91045 22.6651 3.555C22.4699 3.50625 22.2669 3.49725 22.0682 3.52854C21.8695 3.55983 21.6791 3.63083 21.5084 3.73719C21.3377 3.84355 21.1901 3.98315 21.0744 4.14771C20.9588 4.31227 20.8773 4.49836 20.835 4.69501V4.81504C20.7838 5.17019 20.8616 5.53193 21.0542 5.83466C21.2469 6.1374 21.5416 6.36103 21.885 6.465Z" fill="#BF9806"/>
<path d="M13.6801 7.04997C14.6359 6.62185 15.6449 6.32424 16.6801 6.16502C17.0157 6.08583 17.3137 5.89339 17.5241 5.62019C17.7345 5.34698 17.8442 5.0097 17.835 4.66502V4.61997C17.8168 4.41689 17.7573 4.21968 17.6602 4.04035C17.5632 3.86103 17.4305 3.70335 17.2705 3.577C17.1105 3.45066 16.9264 3.35825 16.7294 3.30546C16.5325 3.25267 16.3268 3.24057 16.125 3.26994C14.896 3.48559 13.6975 3.84824 12.5551 4.34998C12.3723 4.43877 12.2095 4.56369 12.0765 4.71729C11.9435 4.87089 11.8431 5.04997 11.7814 5.24354C11.7196 5.43711 11.6979 5.64116 11.7175 5.84339C11.737 6.04562 11.7974 6.24181 11.8951 6.41999V6.50999C12.088 6.78825 12.3693 6.99303 12.6934 7.09107C13.0175 7.18912 13.3653 7.17463 13.6801 7.04997Z" fill="#BF9806"/>
<path d="M20.1 16.5H17.1C16.7022 16.5 16.3207 16.342 16.0394 16.0607C15.7581 15.7794 15.6 15.3978 15.6 15C15.6 14.6021 15.7581 14.2206 16.0394 13.9393C16.3207 13.658 16.7022 13.5 17.1 13.5H21.6C21.9979 13.5 22.3794 13.342 22.6607 13.0607C22.942 12.7794 23.1 12.3978 23.1 12C23.1 11.6021 22.942 11.2206 22.6607 10.9393C22.3794 10.658 21.9979 10.5 21.6 10.5H20.1V8.99997C20.1 8.60214 19.942 8.22064 19.6607 7.93933C19.3794 7.65803 18.9979 7.49997 18.6 7.49997C18.2022 7.49997 17.8207 7.65803 17.5394 7.93933C17.2581 8.22064 17.1 8.60214 17.1 8.99997V10.5C15.9066 10.5 14.7619 10.9741 13.918 11.8181C13.0741 12.662 12.6 13.8065 12.6 15C12.6 16.1934 13.0741 17.3381 13.918 18.182C14.7619 19.0259 15.9066 19.5 17.1 19.5H20.1C20.4979 19.5 20.8794 19.658 21.1607 19.9393C21.442 20.2206 21.6 20.6021 21.6 21C21.6 21.3978 21.442 21.7794 21.1607 22.0607C20.8794 22.342 20.4979 22.5 20.1 22.5H15.6C15.2022 22.5 14.8207 22.658 14.5394 22.9393C14.2581 23.2206 14.1 23.6021 14.1 24C14.1 24.3978 14.2581 24.7794 14.5394 25.0607C14.8207 25.342 15.2022 25.5 15.6 25.5H17.1V27C17.1 27.3978 17.2581 27.7794 17.5394 28.0607C17.8207 28.342 18.2022 28.5 18.6 28.5C18.9979 28.5 19.3794 28.342 19.6607 28.0607C19.942 27.7794 20.1 27.3978 20.1 27V25.5C21.2935 25.5 22.4381 25.0259 23.282 24.182C24.126 23.3381 24.6 22.1934 24.6 21C24.6 19.8065 24.126 18.662 23.282 17.8181C22.4381 16.9741 21.2935 16.5 20.1 16.5Z" fill="#BF9806"/>
</g>
<defs>
<clipPath id="clip0_18433_7944">
<rect width="36" height="36" fill="white" transform="translate(0.600037)"/>
</clipPath>
</defs>
</svg>
