<svg width="37" height="36" viewBox="0 0 37 36" fill="none" xmlns="http://www.w3.org/2000/svg">
<g clip-path="url(#clip0_18433_8067)">
<path d="M18.8001 2.99997C14.8218 2.99997 11.0065 4.58036 8.19342 7.3934C5.38037 10.2064 3.80008 14.0217 3.80008 18C3.80008 21.9782 5.38037 25.7936 8.19342 28.6066C11.0065 31.4197 14.8218 33 18.8001 33C22.7783 33 26.5936 31.4197 29.4066 28.6066C32.2197 25.7936 33.8001 21.9782 33.8001 18C33.8001 14.0217 32.2197 10.2064 29.4066 7.3934C26.5936 4.58036 22.7783 2.99997 18.8001 2.99997ZM18.8001 30C15.6175 30 12.5652 28.7357 10.3148 26.4853C8.06435 24.2348 6.80008 21.1826 6.80008 18C6.80008 14.8174 8.06435 11.7651 10.3148 9.51468C12.5652 7.26424 15.6175 5.99997 18.8001 5.99997C21.9827 5.99997 25.0349 7.26424 27.2854 9.51468C29.5358 11.7651 30.8001 14.8174 30.8001 18C30.8001 21.1826 29.5358 24.2348 27.2854 26.4853C25.0349 28.7357 21.9827 30 18.8001 30ZM24.8001 21C24.8001 22.1934 24.3259 23.3381 23.482 24.182C22.6381 25.0259 21.4936 25.5 20.3001 25.5V27C20.3001 27.3978 20.142 27.7794 19.8607 28.0607C19.5794 28.342 19.1979 28.5 18.8001 28.5C18.4023 28.5 18.0207 28.342 17.7394 28.0607C17.458 27.7794 17.3001 27.3978 17.3001 27V25.5H15.8001C15.4023 25.5 15.0207 25.342 14.7394 25.0607C14.458 24.7794 14.3001 24.3978 14.3001 24C14.3001 23.6021 14.458 23.2206 14.7394 22.9393C15.0207 22.658 15.4023 22.5 15.8001 22.5H20.3001C20.6979 22.5 21.0794 22.342 21.3607 22.0607C21.642 21.7794 21.8001 21.3978 21.8001 21C21.8001 20.6021 21.642 20.2206 21.3607 19.9393C21.0794 19.658 20.6979 19.5 20.3001 19.5H17.3001C16.1066 19.5 14.962 19.0259 14.1181 18.182C13.2742 17.3381 12.8001 16.1934 12.8001 15C12.8001 13.8065 13.2742 12.662 14.1181 11.8181C14.962 10.9741 16.1066 10.5 17.3001 10.5V8.99997C17.3001 8.60214 17.458 8.22064 17.7394 7.93933C18.0207 7.65803 18.4023 7.49997 18.8001 7.49997C19.1979 7.49997 19.5794 7.65803 19.8607 7.93933C20.142 8.22064 20.3001 8.60214 20.3001 8.99997V10.5H21.8001C22.1979 10.5 22.5794 10.658 22.8607 10.9393C23.142 11.2206 23.3001 11.6021 23.3001 12C23.3001 12.3978 23.142 12.7794 22.8607 13.0607C22.5794 13.342 22.1979 13.5 21.8001 13.5H17.3001C16.9023 13.5 16.5207 13.658 16.2394 13.9393C15.958 14.2206 15.8001 14.6021 15.8001 15C15.8001 15.3978 15.958 15.7794 16.2394 16.0607C16.5207 16.342 16.9023 16.5 17.3001 16.5H20.3001C21.4936 16.5 22.6381 16.9741 23.482 17.8181C24.3259 18.662 24.8001 19.8065 24.8001 21Z" fill="#B3304D"/>
</g>
<defs>
<clipPath id="clip0_18433_8067">
<rect width="36" height="36" fill="white" transform="translate(0.800049)"/>
</clipPath>
</defs>
</svg>
