<svg width="37" height="36" viewBox="0 0 37 36" fill="none" xmlns="http://www.w3.org/2000/svg">
<g clip-path="url(#clip0_18433_8070)">
<path d="M25.285 11.37L15.4 21.255L10.015 15.885L7.90003 18L15.4 25.5L27.4 13.5L25.285 11.37ZM18.4 3C15.4333 3 12.5332 3.87973 10.0665 5.52796C7.59974 7.17618 5.67715 9.51886 4.54184 12.2597C3.40652 15.0006 3.10947 18.0166 3.68825 20.9264C4.26703 23.8361 5.69564 26.5088 7.79343 28.6066C9.89122 30.7044 12.564 32.133 15.4737 32.7118C18.3834 33.2906 21.3994 32.9935 24.1403 31.8582C26.8812 30.7229 29.2239 28.8003 30.8721 26.3336C32.5203 23.8668 33.4 20.9667 33.4 18C33.4 16.0302 33.012 14.0796 32.2582 12.2597C31.5044 10.4399 30.3995 8.78628 29.0066 7.3934C27.6138 6.00052 25.9602 4.89563 24.1403 4.14181C22.3204 3.38799 20.3699 3 18.4 3ZM18.4 30C16.0267 30 13.7066 29.2962 11.7332 27.9776C9.7598 26.6591 8.22173 24.7849 7.31348 22.5922C6.40523 20.3995 6.16759 17.9867 6.63061 15.6589C7.09363 13.3311 8.23652 11.1929 9.91475 9.51472C11.593 7.83649 13.7312 6.6936 16.0589 6.23058C18.3867 5.76755 20.7995 6.00519 22.9922 6.91345C25.1849 7.8217 27.0591 9.35977 28.3777 11.3332C29.6962 13.3065 30.4 15.6266 30.4 18C30.4 21.1826 29.1358 24.2348 26.8853 26.4853C24.6349 28.7357 21.5826 30 18.4 30Z" fill="#049154"/>
</g>
<defs>
<clipPath id="clip0_18433_8070">
<rect width="36" height="36" fill="white" transform="translate(0.400024)"/>
</clipPath>
</defs>
</svg>
