<svg width="36" height="36" viewBox="0 0 36 36" fill="none" xmlns="http://www.w3.org/2000/svg">
<g clip-path="url(#clip0_18433_7885)">
<path d="M17.985 3C14.0067 3 10.1915 4.58034 7.37842 7.39339C4.56537 10.2064 2.98499 14.0218 2.98499 18C2.98499 21.9782 4.56537 25.7935 7.37842 28.6066C10.1915 31.4196 14.0067 33 17.985 33C21.9632 33 25.7786 31.4196 28.5916 28.6066C31.4046 25.7935 32.985 21.9782 32.985 18C32.985 14.0218 31.4046 10.2064 28.5916 7.39339C25.7786 4.58034 21.9632 3 17.985 3ZM17.985 30C14.8024 30 11.7502 28.7357 9.49974 26.4853C7.2493 24.2348 5.98499 21.1826 5.98499 18C5.98499 14.8174 7.2493 11.7651 9.49974 9.51471C11.7502 7.26427 14.8024 6 17.985 6C21.1676 6 24.2198 7.26427 26.4703 9.51471C28.7207 11.7651 29.985 14.8174 29.985 18C29.985 21.18 28.7228 24.23 26.4756 26.48C24.2284 28.73 21.18 29.996 18 30H17.985ZM18.735 10.5H16.485V19.5L24.36 24.225L25.485 22.38L18.735 18.375V10.5Z" fill="#4C0398"/>
</g>
<defs>
<clipPath id="clip0_18433_7885">
<rect width="36" height="36" fill="white"/>
</clipPath>
</defs>
</svg>
