<svg width="37" height="36" viewBox="0 0 37 36" fill="none" xmlns="http://www.w3.org/2000/svg">
<g clip-path="url(#clip0_18433_8073)">
<path d="M30.2 4.5H6.20001C5.40436 4.5 4.6413 4.81607 4.07869 5.37868C3.51608 5.94129 3.20001 6.70435 3.20001 7.5V28.5C3.20001 29.2956 3.51608 30.0587 4.07869 30.6213C4.6413 31.1839 5.40436 31.5 6.20001 31.5H30.2C30.9957 31.5 31.7587 31.1839 32.3213 30.6213C32.8839 30.0587 33.2 29.2956 33.2 28.5V7.5C33.2 6.70435 32.8839 5.94129 32.3213 5.37868C31.7587 4.81607 30.9957 4.5 30.2 4.5ZM30.2 28.5H6.20001V7.5H30.2V28.5Z" fill="#069BA7"/>
<path d="M29.315 15.63L27.185 13.5L22.43 18.255L20.315 16.125L18.2 18.24L22.43 22.5L29.315 15.63Z" fill="#069BA7"/>
<path d="M15.2 10.5H7.70001V13.5H15.2V10.5Z" fill="#069BA7"/>
<path d="M15.2 16.5H7.70001V19.5H15.2V16.5Z" fill="#069BA7"/>
<path d="M15.2 22.5H7.70001V25.5H15.2V22.5Z" fill="#069BA7"/>
</g>
<defs>
<clipPath id="clip0_18433_8073">
<rect width="36" height="36" fill="white" transform="translate(0.200012)"/>
</clipPath>
</defs>
</svg>
