<svg width="44" height="44" viewBox="0 0 44 44" fill="none" xmlns="http://www.w3.org/2000/svg">
<g clip-path="url(#clip0_23463_26855)">
<path fill-rule="evenodd" clip-rule="evenodd" d="M25.5 30.1668C25.5002 30.7555 25.2779 31.3225 24.8776 31.7541C24.4773 32.1858 23.9287 32.4502 23.3417 32.4943L23.1667 32.5002H20.8333C20.2447 32.5004 19.6777 32.278 19.246 31.8778C18.8144 31.4775 18.55 30.9288 18.5058 30.3418L18.5 30.1668H25.5ZM22 10.3335C24.1175 10.3335 26.1522 11.1559 27.6749 12.6272C29.1977 14.0986 30.0894 16.1039 30.162 18.2202L30.1667 18.5002V22.8915L32.2923 27.1428C32.3851 27.3283 32.4315 27.5336 32.4276 27.7409C32.4238 27.9483 32.3697 28.1516 32.27 28.3335C32.1703 28.5154 32.0281 28.6704 31.8554 28.7853C31.6827 28.9002 31.4848 28.9715 31.2785 28.9932L31.1443 29.0002H12.8557C12.6482 29.0002 12.4438 28.95 12.26 28.8537C12.0762 28.7575 11.9185 28.6181 11.8003 28.4476C11.6822 28.277 11.6072 28.0804 11.5817 27.8745C11.5562 27.6686 11.581 27.4595 11.654 27.2653L11.7077 27.1428L13.8333 22.8915V18.5002C13.8333 16.3342 14.6938 14.257 16.2253 12.7255C17.7568 11.1939 19.8341 10.3335 22 10.3335ZM22 12.6668C20.4968 12.6669 19.0517 13.2473 17.9659 14.2869C16.8802 15.3266 16.2377 16.7452 16.1725 18.247L16.1667 18.5002V22.8915C16.1667 23.1808 16.1129 23.4677 16.008 23.7373L15.9205 23.9357L14.5555 26.6668H29.4457L28.0807 23.9345C27.9512 23.6758 27.8709 23.3953 27.8438 23.1073L27.8333 22.8915V18.5002C27.8333 16.9531 27.2188 15.4693 26.1248 14.3754C25.0308 13.2814 23.5471 12.6668 22 12.6668Z" fill="#1AB69D"/>
</g>
<defs>
<clipPath id="clip0_23463_26855">
<rect width="28" height="28" fill="white" transform="translate(8 8)"/>
</clipPath>
</defs>
</svg>
