<svg width="44" height="44" viewBox="0 0 44 44" fill="none" xmlns="http://www.w3.org/2000/svg">
<rect width="44" height="44" rx="22" fill="url(#paint0_linear_23463_26860)"/>
<g clip-path="url(#clip0_23463_26860)">
<path d="M26 24C27.2885 24.0001 28.5272 24.4975 29.4578 25.3887C30.3884 26.2798 30.9391 27.4958 30.995 28.783L31 29V30C31.0002 30.5046 30.8096 30.9906 30.4665 31.3605C30.1234 31.7305 29.6532 31.9572 29.15 31.995L29 32H15C14.4954 32.0002 14.0094 31.8096 13.6395 31.4665C13.2695 31.1234 13.0428 30.6532 13.005 30.15L13 30V29C13.0001 27.7115 13.4975 26.4728 14.3887 25.5422C15.2798 24.6116 16.4958 24.0609 17.783 24.005L18 24H26ZM22 12C23.3261 12 24.5979 12.5268 25.5355 13.4645C26.4732 14.4021 27 15.6739 27 17C27 18.3261 26.4732 19.5979 25.5355 20.5355C24.5979 21.4732 23.3261 22 22 22C20.6739 22 19.4021 21.4732 18.4645 20.5355C17.5268 19.5979 17 18.3261 17 17C17 15.6739 17.5268 14.4021 18.4645 13.4645C19.4021 12.5268 20.6739 12 22 12Z" fill="white"/>
</g>
<defs>
<linearGradient id="paint0_linear_23463_26860" x1="0" y1="22" x2="44" y2="22" gradientUnits="userSpaceOnUse">
<stop stop-color="#1AB69D"/>
<stop offset="1" stop-color="#31B978"/>
</linearGradient>
<clipPath id="clip0_23463_26860">
<rect x="10" y="10" width="24" height="24" fill="white"/>
</clipPath>
</defs>
</svg>
