<svg width="44" height="44" viewBox="0 0 44 44" fill="none" xmlns="http://www.w3.org/2000/svg">
<g clip-path="url(#clip0_23657_26145)">
<path d="M30.6683 23.1435C30.715 22.7702 30.75 22.3968 30.75 22.0002C30.75 21.6035 30.715 21.2302 30.6683 20.8568L33.13 18.9318C33.3517 18.7568 33.41 18.4418 33.27 18.1852L30.9367 14.1485C30.8317 13.9618 30.6333 13.8568 30.4233 13.8568C30.3533 13.8568 30.2833 13.8685 30.225 13.8918L27.32 15.0585C26.7133 14.5918 26.06 14.2068 25.3483 13.9152L24.905 10.8235C24.87 10.5435 24.625 10.3335 24.3333 10.3335H19.6667C19.375 10.3335 19.13 10.5435 19.095 10.8235L18.6517 13.9152C17.94 14.2068 17.2867 14.6035 16.68 15.0585L13.775 13.8918C13.705 13.8685 13.635 13.8568 13.565 13.8568C13.3667 13.8568 13.1683 13.9618 13.0633 14.1485L10.73 18.1852C10.5783 18.4418 10.6483 18.7568 10.87 18.9318L13.3317 20.8568C13.285 21.2302 13.25 21.6152 13.25 22.0002C13.25 22.3852 13.285 22.7702 13.3317 23.1435L10.87 25.0685C10.6483 25.2435 10.59 25.5585 10.73 25.8152L13.0633 29.8518C13.1683 30.0385 13.3667 30.1435 13.5767 30.1435C13.6467 30.1435 13.7167 30.1318 13.775 30.1085L16.68 28.9418C17.2867 29.4085 17.94 29.7935 18.6517 30.0852L19.095 33.1768C19.13 33.4568 19.375 33.6668 19.6667 33.6668H24.3333C24.625 33.6668 24.87 33.4568 24.905 33.1768L25.3483 30.0852C26.06 29.7935 26.7133 29.3968 27.32 28.9418L30.225 30.1085C30.295 30.1318 30.365 30.1435 30.435 30.1435C30.6333 30.1435 30.8317 30.0385 30.9367 29.8518L33.27 25.8152C33.41 25.5585 33.3517 25.2435 33.13 25.0685L30.6683 23.1435ZM28.3583 21.1485C28.405 21.5102 28.4167 21.7552 28.4167 22.0002C28.4167 22.2452 28.3933 22.5018 28.3583 22.8518L28.195 24.1702L29.2333 24.9868L30.4933 25.9668L29.6767 27.3785L28.195 26.7835L26.9817 26.2935L25.9317 27.0868C25.43 27.4602 24.9517 27.7402 24.4733 27.9385L23.2367 28.4402L23.05 29.7585L22.8167 31.3335H21.1833L20.9617 29.7585L20.775 28.4402L19.5383 27.9385C19.0367 27.7285 18.57 27.4602 18.1033 27.1102L17.0417 26.2935L15.805 26.7952L14.3233 27.3902L13.5067 25.9785L14.7667 24.9985L15.805 24.1818L15.6417 22.8635C15.6067 22.5018 15.5833 22.2335 15.5833 22.0002C15.5833 21.7668 15.6067 21.4985 15.6417 21.1485L15.805 19.8302L14.7667 19.0135L13.5067 18.0335L14.3233 16.6218L15.805 17.2168L17.0183 17.7068L18.0683 16.9135C18.57 16.5402 19.0483 16.2602 19.5267 16.0618L20.7633 15.5602L20.95 14.2418L21.1833 12.6668H22.805L23.0267 14.2418L23.2133 15.5602L24.45 16.0618C24.9517 16.2718 25.4183 16.5402 25.885 16.8902L26.9467 17.7068L28.1833 17.2052L29.665 16.6102L30.4817 18.0218L29.2333 19.0135L28.195 19.8302L28.3583 21.1485ZM22 17.3335C19.4217 17.3335 17.3333 19.4218 17.3333 22.0002C17.3333 24.5785 19.4217 26.6668 22 26.6668C24.5783 26.6668 26.6667 24.5785 26.6667 22.0002C26.6667 19.4218 24.5783 17.3335 22 17.3335ZM22 24.3335C20.7167 24.3335 19.6667 23.2835 19.6667 22.0002C19.6667 20.7168 20.7167 19.6668 22 19.6668C23.2833 19.6668 24.3333 20.7168 24.3333 22.0002C24.3333 23.2835 23.2833 24.3335 22 24.3335Z" fill="#1AB69D"/>
</g>
<defs>
<clipPath id="clip0_23657_26145">
<rect width="28" height="28" fill="white" transform="translate(8 8)"/>
</clipPath>
</defs>
</svg>
