<svg width="32" height="32" viewBox="0 0 32 32" fill="none" xmlns="http://www.w3.org/2000/svg">
<rect x="0.5" y="0.5" width="31" height="31" rx="15.5" fill="white"/>
<g clip-path="url(#clip0_5308_43917)">
<path d="M22.5452 11.6364H20.2397L18.9088 10.1818H14.5452V11.6364H18.2688L19.5997 13.0909H22.5452V21.8182H10.9088V15.2727H9.45428V21.8182C9.45428 22.6182 10.1088 23.2727 10.9088 23.2727H22.5452C23.3452 23.2727 23.9997 22.6182 23.9997 21.8182V13.0909C23.9997 12.2909 23.3452 11.6364 22.5452 11.6364ZM13.0906 17.4545C13.0906 19.4618 14.7197 21.0909 16.727 21.0909C18.7343 21.0909 20.3634 19.4618 20.3634 17.4545C20.3634 15.4473 18.7343 13.8182 16.727 13.8182C14.7197 13.8182 13.0906 15.4473 13.0906 17.4545ZM16.727 15.2727C17.927 15.2727 18.9088 16.2545 18.9088 17.4545C18.9088 18.6545 17.927 19.6364 16.727 19.6364C15.527 19.6364 14.5452 18.6545 14.5452 17.4545C14.5452 16.2545 15.527 15.2727 16.727 15.2727ZM10.9088 11.6364H13.0906V10.1818H10.9088V8H9.45428V10.1818H7.27246V11.6364H9.45428V13.8182H10.9088V11.6364Z" fill="#0762F7"/>
</g>
<rect x="0.5" y="0.5" width="31" height="31" rx="15.5" stroke="#0762F7"/>
<rect x="0.5" y="0.5" width="31" height="31" rx="15.5" stroke="white" stroke-opacity="0.75"/>
<defs>
<clipPath id="clip0_5308_43917">
<rect width="17.4545" height="17.4545" fill="white" transform="translate(7.27246 7.27295)"/>
</clipPath>
</defs>
</svg>
