<svg width="44" height="44" viewBox="0 0 44 44" fill="none" xmlns="http://www.w3.org/2000/svg">
<g filter="url(#filter0_d_939_1945)">
<rect x="4" y="4" width="36" height="36" rx="8" fill="#0762F7" shape-rendering="crispEdges"/>
<rect x="4" y="4" width="36" height="36" rx="8" fill="black" fill-opacity="0.25" shape-rendering="crispEdges"/>
<g clip-path="url(#clip0_939_1945)">
<path d="M29.88 28.47C30.32 27.77 30.58 26.96 30.58 26.08C30.58 23.59 28.57 21.58 26.08 21.58C23.59 21.58 21.58 23.59 21.58 26.08C21.58 28.57 23.59 30.58 26.07 30.58C26.95 30.58 27.77 30.32 28.46 29.88L31.58 33L33 31.58L29.88 28.47ZM26.08 28.58C24.7 28.58 23.58 27.46 23.58 26.08C23.58 24.7 24.7 23.58 26.08 23.58C27.46 23.58 28.58 24.7 28.58 26.08C28.58 27.46 27.46 28.58 26.08 28.58ZM25.72 20.08C24.98 20.1 24.27 20.26 23.62 20.53L23.07 19.7L19.27 25.88L16.26 22.36L12.63 28.17L11 27L16 19L19 22.5L23 16L25.72 20.08ZM28.31 20.58C27.67 20.3 26.98 20.13 26.26 20.09L31.38 12L33 13.18L28.31 20.58Z" fill="white"/>
</g>
</g>
<defs>
<filter id="filter0_d_939_1945" x="0" y="0" width="44" height="44" filterUnits="userSpaceOnUse" color-interpolation-filters="sRGB">
<feFlood flood-opacity="0" result="BackgroundImageFix"/>
<feColorMatrix in="SourceAlpha" type="matrix" values="0 0 0 0 0 0 0 0 0 0 0 0 0 0 0 0 0 0 127 0" result="hardAlpha"/>
<feOffset/>
<feGaussianBlur stdDeviation="2"/>
<feComposite in2="hardAlpha" operator="out"/>
<feColorMatrix type="matrix" values="0 0 0 0 0 0 0 0 0 0 0 0 0 0 0 0 0 0 0.5 0"/>
<feBlend mode="normal" in2="BackgroundImageFix" result="effect1_dropShadow_939_1945"/>
<feBlend mode="normal" in="SourceGraphic" in2="effect1_dropShadow_939_1945" result="shape"/>
</filter>
<clipPath id="clip0_939_1945">
<rect width="24" height="24" fill="white" transform="translate(10 10)"/>
</clipPath>
</defs>
</svg>
