<svg width="44" height="44" viewBox="0 0 44 44" fill="none" xmlns="http://www.w3.org/2000/svg">
<g filter="url(#filter0_d_977_4640)">
<rect x="4" y="4" width="36" height="36" rx="8" fill="#0762F7" shape-rendering="crispEdges"/>
<rect x="4" y="4" width="36" height="36" rx="8" fill="black" fill-opacity="0.25" shape-rendering="crispEdges"/>
<g clip-path="url(#clip0_977_4640)">
<path d="M21 22C23.21 22 25 20.21 25 18C25 15.79 23.21 14 21 14C18.79 14 17 15.79 17 18C17 20.21 18.79 22 21 22ZM21 16C22.1 16 23 16.9 23 18C23 19.1 22.1 20 21 20C19.9 20 19 19.1 19 18C19 16.9 19.9 16 21 16ZM15 28C15.2 27.37 17.57 26.32 19.96 26.06L22 24.06C21.61 24.02 21.32 24 21 24C18.33 24 13 25.34 13 28V30H22L20 28H15ZM30.6 22.5L25.47 27.67L23.4 25.59L22 27L25.47 30.5L32 23.91L30.6 22.5Z" fill="white"/>
</g>
</g>
<defs>
<filter id="filter0_d_977_4640" x="0" y="0" width="44" height="44" filterUnits="userSpaceOnUse" color-interpolation-filters="sRGB">
<feFlood flood-opacity="0" result="BackgroundImageFix"/>
<feColorMatrix in="SourceAlpha" type="matrix" values="0 0 0 0 0 0 0 0 0 0 0 0 0 0 0 0 0 0 127 0" result="hardAlpha"/>
<feOffset/>
<feGaussianBlur stdDeviation="2"/>
<feComposite in2="hardAlpha" operator="out"/>
<feColorMatrix type="matrix" values="0 0 0 0 0 0 0 0 0 0 0 0 0 0 0 0 0 0 0.5 0"/>
<feBlend mode="normal" in2="BackgroundImageFix" result="effect1_dropShadow_977_4640"/>
<feBlend mode="normal" in="SourceGraphic" in2="effect1_dropShadow_977_4640" result="shape"/>
</filter>
<clipPath id="clip0_977_4640">
<rect width="24" height="24" fill="white" transform="translate(10 10)"/>
</clipPath>
</defs>
</svg>
