<svg width="20" height="20" viewBox="0 0 20 20" fill="none" xmlns="http://www.w3.org/2000/svg">
<path d="M16.6666 2.5H3.33329C2.89127 2.5 2.46734 2.67559 2.15478 2.98816C1.84222 3.30072 1.66663 3.72464 1.66663 4.16667V15.8333C1.66663 16.2754 1.84222 16.6993 2.15478 17.0118C2.46734 17.3244 2.89127 17.5 3.33329 17.5H16.6666C17.1087 17.5 17.5326 17.3244 17.8451 17.0118C18.1577 16.6993 18.3333 16.2754 18.3333 15.8333V4.16667C18.3333 3.72464 18.1577 3.30072 17.8451 2.98816C17.5326 2.67559 17.1087 2.5 16.6666 2.5ZM16.6666 15.8333H3.33329V4.16667H16.6666V15.8333Z" fill="black"/>
<path d="M8.33329 5.8335H4.16663V7.50016H8.33329V5.8335Z" fill="black"/>
<path d="M8.33329 9.1665H4.16663V10.8332H8.33329V9.1665Z" fill="black"/>
<path d="M8.33329 12.5H4.16663V14.1667H8.33329V12.5Z" fill="black"/>
<path d="M13.3333 7.5H11.6667V9.16667H10V10.8333H11.6667V12.5H13.3333V10.8333H15V9.16667H13.3333V7.5Z" fill="black"/>
</svg>
