<svg width="20" height="20" viewBox="0 0 20 20" fill="none" xmlns="http://www.w3.org/2000/svg">
<path d="M9.16663 5.83317H10.8333V7.49984H9.16663V5.83317ZM9.16663 9.1665H10.8333V14.1665H9.16663V9.1665ZM9.99996 1.6665C5.41663 1.6665 1.66663 5.4165 1.66663 9.99984C1.66663 14.5832 5.41663 18.3332 9.99996 18.3332C14.5833 18.3332 18.3333 14.5832 18.3333 9.99984C18.3333 5.4165 14.5833 1.6665 9.99996 1.6665ZM9.99996 16.6665C6.33329 16.6665 3.33329 13.6665 3.33329 9.99984C3.33329 6.33317 6.33329 3.33317 9.99996 3.33317C13.6666 3.33317 16.6666 6.33317 16.6666 9.99984C16.6666 13.6665 13.6666 16.6665 9.99996 16.6665Z" fill="#172B4D"/>
</svg>
