<svg width="38" height="37" viewBox="0 0 38 37" fill="none" xmlns="http://www.w3.org/2000/svg">
<path fill-rule="evenodd" clip-rule="evenodd" d="M19.0003 3.99981C17.8136 3.99981 16.6536 4.35171 15.6669 5.011C14.6802 5.67029 13.9112 6.60736 13.457 7.70371C13.0029 8.80007 12.8841 10.0065 13.1156 11.1704C13.3471 12.3342 13.9186 13.4033 14.7577 14.2425C15.5968 15.0816 16.6659 15.653 17.8298 15.8845C18.9937 16.116 20.2001 15.9972 21.2964 15.5431C22.3928 15.089 23.3299 14.3199 23.9891 13.3332C24.6484 12.3465 25.0003 11.1865 25.0003 9.99981C25.0003 8.40852 24.3682 6.88239 23.243 5.75717C22.1177 4.63196 20.5916 3.99981 19.0003 3.99981ZM25.1803 17.4598C26.7578 16.1824 27.9007 14.4474 28.4517 12.4938C29.0026 10.5401 28.9346 8.46371 28.257 6.55027C27.5795 4.63683 26.3256 2.98039 24.6679 1.80887C23.0102 0.63734 21.0302 0.00830078 19.0003 0.00830078C16.9705 0.00830078 14.9905 0.63734 13.3328 1.80887C11.6751 2.98039 10.4212 4.63683 9.7436 6.55027C9.066 8.46371 8.99802 10.5401 9.54899 12.4938C10.1 14.4474 11.2428 16.1824 12.8203 17.4598C9.62728 18.6069 6.82345 20.6331 4.73213 23.3048C2.6408 25.9764 1.34715 29.1847 1.00032 32.5598C0.951371 33.0014 0.997895 33.4483 1.13674 33.8703C1.27559 34.2923 1.50351 34.6795 1.80508 35.0057C2.10664 35.3319 2.4748 35.5895 2.8846 35.761C3.29441 35.9326 3.7363 36.014 4.18032 35.9998H33.8203C34.2588 36.0129 34.695 35.9329 35.1002 35.7649C35.5054 35.5969 35.8704 35.3449 36.1709 35.0254C36.4715 34.7059 36.7008 34.3263 36.8438 33.9116C36.9868 33.4969 37.0401 33.0566 37.0003 32.6198C36.6643 29.2341 35.3756 26.013 33.2835 23.3298C31.1915 20.6466 28.3819 18.6113 25.1803 17.4598ZM19.0003 19.9998C15.679 19.9989 12.4739 21.2224 9.99807 23.4363C7.52221 25.6502 5.94936 28.6991 5.58032 31.9998H32.4203C32.0513 28.6991 30.4784 25.6502 28.0026 23.4363C25.5267 21.2224 22.3216 19.9989 19.0003 19.9998ZM20.3403 24.6598V21.9998H17.6603V24.6598H15.0003V27.3598H17.6803V29.9998H20.3603V27.3398H23.0003V24.6598H20.3403Z" fill="#0762F7"/>
<path fill-rule="evenodd" clip-rule="evenodd" d="M19.0003 3.99981C17.8136 3.99981 16.6536 4.35171 15.6669 5.011C14.6802 5.67029 13.9112 6.60736 13.457 7.70371C13.0029 8.80007 12.8841 10.0065 13.1156 11.1704C13.3471 12.3342 13.9186 13.4033 14.7577 14.2425C15.5968 15.0816 16.6659 15.653 17.8298 15.8845C18.9937 16.116 20.2001 15.9972 21.2964 15.5431C22.3928 15.089 23.3299 14.3199 23.9891 13.3332C24.6484 12.3465 25.0003 11.1865 25.0003 9.99981C25.0003 8.40852 24.3682 6.88239 23.243 5.75717C22.1177 4.63196 20.5916 3.99981 19.0003 3.99981ZM25.1803 17.4598C26.7578 16.1824 27.9007 14.4474 28.4517 12.4938C29.0026 10.5401 28.9346 8.46371 28.257 6.55027C27.5795 4.63683 26.3256 2.98039 24.6679 1.80887C23.0102 0.63734 21.0302 0.00830078 19.0003 0.00830078C16.9705 0.00830078 14.9905 0.63734 13.3328 1.80887C11.6751 2.98039 10.4212 4.63683 9.7436 6.55027C9.066 8.46371 8.99802 10.5401 9.54899 12.4938C10.1 14.4474 11.2428 16.1824 12.8203 17.4598C9.62728 18.6069 6.82345 20.6331 4.73213 23.3048C2.6408 25.9764 1.34715 29.1847 1.00032 32.5598C0.951371 33.0014 0.997895 33.4483 1.13674 33.8703C1.27559 34.2923 1.50351 34.6795 1.80508 35.0057C2.10664 35.3319 2.4748 35.5895 2.8846 35.761C3.29441 35.9326 3.7363 36.014 4.18032 35.9998H33.8203C34.2588 36.0129 34.695 35.9329 35.1002 35.7649C35.5054 35.5969 35.8704 35.3449 36.1709 35.0254C36.4715 34.7059 36.7008 34.3263 36.8438 33.9116C36.9868 33.4969 37.0401 33.0566 37.0003 32.6198C36.6643 29.2341 35.3756 26.013 33.2835 23.3298C31.1915 20.6466 28.3819 18.6113 25.1803 17.4598ZM19.0003 19.9998C15.679 19.9989 12.4739 21.2224 9.99807 23.4363C7.52221 25.6502 5.94936 28.6991 5.58032 31.9998H32.4203C32.0513 28.6991 30.4784 25.6502 28.0026 23.4363C25.5267 21.2224 22.3216 19.9989 19.0003 19.9998ZM20.3403 24.6598V21.9998H17.6603V24.6598H15.0003V27.3598H17.6803V29.9998H20.3603V27.3398H23.0003V24.6598H20.3403Z" fill="black" fill-opacity="0.25"/>
</svg>
