<svg width="48" height="48" viewBox="0 0 48 48" fill="none" xmlns="http://www.w3.org/2000/svg">
<path d="M33.3398 26.2202C34.7104 27.008 35.8575 28.132 36.6729 29.4863C37.4883 30.8406 37.945 32.3804 37.9999 33.9602V39.9602H45.9999V33.9602C45.9999 29.6402 38.8598 27.0602 33.3398 26.2202Z" fill="#0762F7"/>
<path d="M33.3398 26.2202C34.7104 27.008 35.8575 28.132 36.6729 29.4863C37.4883 30.8406 37.945 32.3804 37.9999 33.9602V39.9602H45.9999V33.9602C45.9999 29.6402 38.8598 27.0602 33.3398 26.2202Z" fill="black" fill-opacity="0.25"/>
<path d="M29.9999 24C32.1216 24 34.1564 23.1572 35.6567 21.6569C37.157 20.1566 37.9999 18.1217 37.9999 16C37.9999 14.9494 37.793 13.9091 37.3909 12.9385C36.9889 11.9679 36.3996 11.086 35.6567 10.3431C34.9139 9.60027 34.0319 9.011 33.0613 8.60896C32.0907 8.20693 31.0505 8 29.9999 8C29.093 8.01465 28.1946 8.17677 27.3398 8.48C29.0581 10.61 29.9966 13.2634 29.9999 16C29.9966 18.7366 29.0581 21.39 27.3398 23.52C28.1946 23.8232 29.093 23.9853 29.9999 24V24Z" fill="#0762F7"/>
<path d="M29.9999 24C32.1216 24 34.1564 23.1572 35.6567 21.6569C37.157 20.1566 37.9999 18.1217 37.9999 16C37.9999 14.9494 37.793 13.9091 37.3909 12.9385C36.9889 11.9679 36.3996 11.086 35.6567 10.3431C34.9139 9.60027 34.0319 9.011 33.0613 8.60896C32.0907 8.20693 31.0505 8 29.9999 8C29.093 8.01465 28.1946 8.17677 27.3398 8.48C29.0581 10.61 29.9966 13.2634 29.9999 16C29.9966 18.7366 29.0581 21.39 27.3398 23.52C28.1946 23.8232 29.093 23.9853 29.9999 24V24Z" fill="black" fill-opacity="0.25"/>
<path d="M18 24C20.1217 24 22.1566 23.1572 23.6569 21.6569C25.1572 20.1566 26 18.1217 26 16C26 14.9494 25.7931 13.9091 25.3911 12.9385C24.989 11.9679 24.3997 11.086 23.6569 10.3431C22.914 9.60027 22.0321 9.011 21.0615 8.60896C20.0909 8.20693 19.0506 8 18 8C15.8783 8 13.8434 8.84285 12.3431 10.3431C10.8428 11.8434 10 13.8783 10 16C10 18.1217 10.8428 20.1566 12.3431 21.6569C13.8434 23.1572 15.8783 24 18 24V24ZM18 12C19.0609 12 20.0783 12.4214 20.8284 13.1716C21.5786 13.9217 22 14.9391 22 16C22 17.0609 21.5786 18.0783 20.8284 18.8284C20.0783 19.5786 19.0609 20 18 20C16.9391 20 15.9217 19.5786 15.1716 18.8284C14.4214 18.0783 14 17.0609 14 16C14 14.9391 14.4214 13.9217 15.1716 13.1716C15.9217 12.4214 16.9391 12 18 12Z" fill="#0762F7"/>
<path d="M18 24C20.1217 24 22.1566 23.1572 23.6569 21.6569C25.1572 20.1566 26 18.1217 26 16C26 14.9494 25.7931 13.9091 25.3911 12.9385C24.989 11.9679 24.3997 11.086 23.6569 10.3431C22.914 9.60027 22.0321 9.011 21.0615 8.60896C20.0909 8.20693 19.0506 8 18 8C15.8783 8 13.8434 8.84285 12.3431 10.3431C10.8428 11.8434 10 13.8783 10 16C10 18.1217 10.8428 20.1566 12.3431 21.6569C13.8434 23.1572 15.8783 24 18 24V24ZM18 12C19.0609 12 20.0783 12.4214 20.8284 13.1716C21.5786 13.9217 22 14.9391 22 16C22 17.0609 21.5786 18.0783 20.8284 18.8284C20.0783 19.5786 19.0609 20 18 20C16.9391 20 15.9217 19.5786 15.1716 18.8284C14.4214 18.0783 14 17.0609 14 16C14 14.9391 14.4214 13.9217 15.1716 13.1716C15.9217 12.4214 16.9391 12 18 12Z" fill="black" fill-opacity="0.25"/>
<path d="M18 26C12.66 26 2 28.68 2 34V40H34V34C34 28.68 23.34 26 18 26ZM30 36H6V34C6.4 32.56 12.6 30 18 30C23.4 30 29.6 32.58 30 34V36Z" fill="#0762F7"/>
<path d="M18 26C12.66 26 2 28.68 2 34V40H34V34C34 28.68 23.34 26 18 26ZM30 36H6V34C6.4 32.56 12.6 30 18 30C23.4 30 29.6 32.58 30 34V36Z" fill="black" fill-opacity="0.25"/>
</svg>
