<svg width="44" height="44" viewBox="0 0 44 44" fill="none" xmlns="http://www.w3.org/2000/svg">
<g filter="url(#filter0_d_1026_1388)">
<rect x="4" y="4" width="36" height="36" rx="8" fill="#0762F7" shape-rendering="crispEdges"/>
<rect x="4" y="4" width="36" height="36" rx="8" fill="black" fill-opacity="0.25" shape-rendering="crispEdges"/>
<path d="M22 12C16.5 12 12 16.5 12 22C12 27.5 16.5 32 22 32C27.5 32 32 27.5 32 22C32 16.5 27.5 12 22 12ZM22 30C17.6 30 14 26.4 14 22C14 17.6 17.6 14 22 14C26.4 14 30 17.6 30 22C30 26.4 26.4 30 22 30ZM26 24C26 25.7 24.7 27 23 27V28C23 28.6 22.6 29 22 29C21.4 29 21 28.6 21 28V27H20C19.4 27 19 26.6 19 26C19 25.4 19.4 25 20 25H23C23.6 25 24 24.6 24 24C24 23.4 23.6 23 23 23H21C19.3 23 18 21.7 18 20C18 18.3 19.3 17 21 17V16C21 15.4 21.4 15 22 15C22.6 15 23 15.4 23 16V17H24C24.6 17 25 17.4 25 18C25 18.6 24.6 19 24 19H21C20.4 19 20 19.4 20 20C20 20.6 20.4 21 21 21H23C24.7 21 26 22.3 26 24Z" fill="white"/>
</g>
<defs>
<filter id="filter0_d_1026_1388" x="0" y="0" width="44" height="44" filterUnits="userSpaceOnUse" color-interpolation-filters="sRGB">
<feFlood flood-opacity="0" result="BackgroundImageFix"/>
<feColorMatrix in="SourceAlpha" type="matrix" values="0 0 0 0 0 0 0 0 0 0 0 0 0 0 0 0 0 0 127 0" result="hardAlpha"/>
<feOffset/>
<feGaussianBlur stdDeviation="2"/>
<feComposite in2="hardAlpha" operator="out"/>
<feColorMatrix type="matrix" values="0 0 0 0 0 0 0 0 0 0 0 0 0 0 0 0 0 0 0.5 0"/>
<feBlend mode="normal" in2="BackgroundImageFix" result="effect1_dropShadow_1026_1388"/>
<feBlend mode="normal" in="SourceGraphic" in2="effect1_dropShadow_1026_1388" result="shape"/>
</filter>
</defs>
</svg>
