<svg width="20" height="20" viewBox="0 0 20 20" fill="none" xmlns="http://www.w3.org/2000/svg">
<path d="M16.6665 2.5H3.33317C2.89114 2.5 2.46722 2.67559 2.15466 2.98816C1.8421 3.30072 1.6665 3.72464 1.6665 4.16667V15.8333C1.6665 16.2754 1.8421 16.6993 2.15466 17.0118C2.46722 17.3244 2.89114 17.5 3.33317 17.5H16.6665C17.1085 17.5 17.5325 17.3244 17.845 17.0118C18.1576 16.6993 18.3332 16.2754 18.3332 15.8333V4.16667C18.3332 3.72464 18.1576 3.30072 17.845 2.98816C17.5325 2.67559 17.1085 2.5 16.6665 2.5ZM16.6665 15.8333H3.33317V4.16667H16.6665V15.8333Z" fill="black"/>
<path d="M8.33317 5.8335H4.1665V7.50016H8.33317V5.8335Z" fill="black"/>
<path d="M8.33317 9.1665H4.1665V10.8332H8.33317V9.1665Z" fill="black"/>
<path d="M8.33317 12.5H4.1665V14.1667H8.33317V12.5Z" fill="black"/>
<path d="M13.3333 7.5H11.6667V9.16667H10V10.8333H11.6667V12.5H13.3333V10.8333H15V9.16667H13.3333V7.5Z" fill="black"/>
</svg>
