<svg width="24" height="24" viewBox="0 0 24 24" fill="none" xmlns="http://www.w3.org/2000/svg">
<path d="M17.7 10.5998L16.2 9.1998L17.7 7.7998L16.2 6.2998L14.8 7.7998L13.4 6.2998L12 7.7998L13.4 9.1998L12 10.5998L13.4 11.9998L14.8 10.5998L16.2 11.9998L17.7 10.5998Z" fill="#0762F7"/>
<path d="M19.0999 4.8998C16.7999 2.5998 12.8999 2.5998 10.5999 4.8998L4.89987 10.5998C2.59987 12.8998 2.59987 16.7998 4.89987 19.0998C7.19987 21.3998 11.0999 21.3998 13.3999 19.0998L19.0999 13.3998C21.3999 11.0998 21.3999 7.29981 19.0999 4.8998ZM17.6999 6.29981C19.2999 7.89981 19.2999 10.3998 17.6999 11.9998L14.8999 14.7998L9.19987 9.19981L11.9999 6.29981C13.5999 4.79981 16.0999 4.79981 17.6999 6.29981Z" fill="#0762F7"/>
</svg>
