<svg width="20" height="20" viewBox="0 0 20 20" fill="none" xmlns="http://www.w3.org/2000/svg">
<path fill-rule="evenodd" clip-rule="evenodd" d="M10.0001 4.16655C9.5056 4.16655 9.02225 4.31317 8.61113 4.58787C8.2 4.86258 7.87957 5.25303 7.69035 5.70984C7.50113 6.16666 7.45163 6.66932 7.54809 7.15427C7.64455 7.63923 7.88265 8.08469 8.23229 8.43432C8.58192 8.78395 9.02737 9.02205 9.51233 9.11851C9.99728 9.21498 10.4999 9.16547 10.9568 8.97625C11.4136 8.78703 11.804 8.4666 12.0787 8.05547C12.3534 7.64435 12.5001 7.161 12.5001 6.66655C12.5001 6.00351 12.2367 5.36762 11.7678 4.89878C11.299 4.42994 10.6631 4.16655 10.0001 4.16655ZM12.5751 9.77488C13.2323 9.24261 13.7085 8.51973 13.9381 7.7057C14.1677 6.89167 14.1394 6.02651 13.857 5.22924C13.5747 4.43197 13.0522 3.74179 12.3615 3.25365C11.6708 2.76552 10.8458 2.50342 10.0001 2.50342C9.15427 2.50342 8.32928 2.76552 7.63857 3.25365C6.94787 3.74179 6.42542 4.43197 6.14308 5.22924C5.86075 6.02651 5.83243 6.89167 6.062 7.7057C6.29157 8.51973 6.76776 9.24261 7.42505 9.77488C6.09462 10.2528 4.92636 11.0971 4.05497 12.2103C3.18359 13.3235 2.64456 14.6603 2.50005 16.0665C2.47966 16.2505 2.49904 16.4367 2.55689 16.6126C2.61475 16.7884 2.70972 16.9497 2.83537 17.0857C2.96102 17.2216 3.11442 17.3289 3.28517 17.4004C3.45592 17.4719 3.64004 17.5058 3.82505 17.4999H16.1751C16.3577 17.5054 16.5395 17.472 16.7083 17.402C16.8772 17.332 17.0292 17.227 17.1545 17.0939C17.2797 16.9608 17.3753 16.8026 17.4348 16.6298C17.4944 16.457 17.5166 16.2736 17.5001 16.0915C17.36 14.6808 16.8231 13.3387 15.9514 12.2207C15.0797 11.1027 13.909 10.2547 12.5751 9.77488ZM10.0001 10.8332C8.61617 10.8328 7.28072 11.3426 6.24911 12.2651C5.21751 13.1875 4.56215 14.4579 4.40839 15.8332H15.5917C15.438 14.4579 14.7826 13.1875 13.751 12.2651C12.7194 11.3426 11.3839 10.8328 10.0001 10.8332ZM10.5584 12.7749V11.6665H9.44172V12.7749H8.33339V13.8999H9.45005V14.9999H10.5667V13.8915H11.6667V12.7749H10.5584Z" fill="#172B4D"/>
</svg>
