<svg width="140" height="111" viewBox="0 0 140 111" fill="none" xmlns="http://www.w3.org/2000/svg">
<path d="M13.3254 70.4262C13.3254 64.6789 13.2642 58.9315 13.3643 53.1842C13.3921 51.5151 12.8858 50.6972 11.2724 50.2132C8.44042 49.3675 5.65299 48.3493 2.8767 47.3145C-0.0609498 46.224 -0.761979 44.3657 0.83481 41.6673C4.93527 34.7349 9.05243 27.8025 13.3198 20.9703C14.032 19.8297 15.4118 18.8393 16.7026 18.3776C33.594 12.302 50.5077 6.28758 67.466 0.401161C68.9849 -0.127392 70.9989 -0.132956 72.5123 0.395598C89.6485 6.33766 106.74 12.4077 123.81 18.5333C124.895 18.9228 125.991 19.8965 126.603 20.8924C130.737 27.5911 134.754 34.3621 138.782 41.1221C140.924 44.7162 140.301 46.3631 136.306 47.7818C133.863 48.6498 131.438 49.5789 128.951 50.28C127.215 50.764 126.697 51.6598 126.709 53.4402C126.792 64.473 126.675 75.5059 126.798 86.5387C126.831 89.6043 125.746 91.2735 122.819 92.2916C106.128 98.1057 89.4983 104.092 72.8016 109.879C71.2048 110.435 69.0906 110.496 67.5049 109.945C50.7136 104.137 34.0057 98.1002 17.22 92.2749C14.2656 91.2512 13.1529 89.6433 13.2642 86.561C13.4589 81.1864 13.3254 75.8008 13.3254 70.4262ZM120.071 53.5514C118.953 53.9298 118.174 54.1857 117.4 54.4583C107.102 58.0747 96.8091 61.6967 86.5106 65.3076C82.182 66.8265 81.8204 66.6763 79.4169 62.6815C76.3846 57.6352 73.3468 52.5945 70.0642 47.1476C66.7482 52.6779 63.6715 57.8077 60.5892 62.9374C58.4249 66.5427 57.7295 66.7875 53.8738 65.4188C48.1209 63.377 42.368 61.3351 36.6151 59.3043C31.1627 57.3793 25.7047 55.4709 20.0853 53.4958C20.0853 64.601 20.0853 75.339 20.0853 86.1827C35.5358 91.6629 50.9417 97.1209 66.5702 102.662C66.6425 101.616 66.726 100.904 66.726 100.198C66.7371 92.2304 66.726 84.2576 66.7371 76.2904C66.7427 74.0927 67.8332 72.6739 70.0531 72.6628C72.273 72.6572 73.3746 74.0649 73.3969 76.2626C73.4192 78.1153 73.4025 79.968 73.4025 81.8207C73.4025 88.6474 73.4025 95.4796 73.4025 102.751C89.2313 97.1321 104.687 91.6462 120.065 86.1882C120.071 75.2054 120.071 64.5565 120.071 53.5514ZM8.21787 42.2014C23.6238 47.6761 38.7572 53.0729 53.9239 58.3863C54.4357 58.5643 55.5596 58.1192 55.8656 57.6296C58.9423 52.689 61.9078 47.6761 64.9456 42.6243C64.5283 42.3795 64.2446 42.1458 63.9163 42.0289C49.2114 36.7824 34.512 31.5246 19.7682 26.3838C19.0894 26.1501 17.6261 26.7454 17.2144 27.3964C14.1877 32.1478 11.3391 37.016 8.21787 42.2014ZM75.0048 42.4518C77.9146 47.3089 80.8022 51.9324 83.4784 56.6782C84.5132 58.5087 85.498 58.7424 87.4286 58.0358C100.887 53.1453 114.39 48.3883 127.882 43.5868C129.14 43.1361 130.386 42.6521 131.771 42.1291C128.673 36.9604 125.674 32.081 122.808 27.1182C121.918 25.5826 120.967 26.0944 119.804 26.5117C111.714 29.3993 103.608 32.2479 95.5183 35.1244C88.7361 37.539 81.9595 39.9704 75.0048 42.4518ZM73.4971 35.9701C86.7999 31.2298 99.7133 26.6341 112.621 22.0385C112.621 21.8326 112.627 21.6323 112.627 21.4265C99.6577 16.8141 86.6942 12.2074 73.4971 7.51717C73.4971 17.1535 73.4971 26.3059 73.4971 35.9701Z" fill="white"/>
<path d="M13.3254 70.4262C13.3254 64.6789 13.2642 58.9315 13.3643 53.1842C13.3921 51.5151 12.8858 50.6972 11.2724 50.2132C8.44042 49.3675 5.65299 48.3493 2.8767 47.3145C-0.0609498 46.224 -0.761979 44.3657 0.83481 41.6673C4.93527 34.7349 9.05243 27.8025 13.3198 20.9703C14.032 19.8297 15.4118 18.8393 16.7026 18.3776C33.594 12.302 50.5077 6.28758 67.466 0.401161C68.9849 -0.127392 70.9989 -0.132956 72.5123 0.395598C89.6485 6.33766 106.74 12.4077 123.81 18.5333C124.895 18.9228 125.991 19.8965 126.603 20.8924C130.737 27.5911 134.754 34.3621 138.782 41.1221C140.924 44.7162 140.301 46.3631 136.306 47.7818C133.863 48.6498 131.438 49.5789 128.951 50.28C127.215 50.764 126.697 51.6598 126.709 53.4402C126.792 64.473 126.675 75.5059 126.798 86.5387C126.831 89.6043 125.746 91.2735 122.819 92.2916C106.128 98.1057 89.4983 104.092 72.8016 109.879C71.2048 110.435 69.0906 110.496 67.5049 109.945C50.7136 104.137 34.0057 98.1002 17.22 92.2749C14.2656 91.2512 13.1529 89.6433 13.2642 86.561C13.4589 81.1864 13.3254 75.8008 13.3254 70.4262ZM120.071 53.5514C118.953 53.9298 118.174 54.1857 117.4 54.4583C107.102 58.0747 96.8091 61.6967 86.5106 65.3076C82.182 66.8265 81.8204 66.6763 79.4169 62.6815C76.3846 57.6352 73.3468 52.5945 70.0642 47.1476C66.7482 52.6779 63.6715 57.8077 60.5892 62.9374C58.4249 66.5427 57.7295 66.7875 53.8738 65.4188C48.1209 63.377 42.368 61.3351 36.6151 59.3043C31.1627 57.3793 25.7047 55.4709 20.0853 53.4958C20.0853 64.601 20.0853 75.339 20.0853 86.1827C35.5358 91.6629 50.9417 97.1209 66.5702 102.662C66.6425 101.616 66.726 100.904 66.726 100.198C66.7371 92.2304 66.726 84.2576 66.7371 76.2904C66.7427 74.0927 67.8332 72.6739 70.0531 72.6628C72.273 72.6572 73.3746 74.0649 73.3969 76.2626C73.4192 78.1153 73.4025 79.968 73.4025 81.8207C73.4025 88.6474 73.4025 95.4796 73.4025 102.751C89.2313 97.1321 104.687 91.6462 120.065 86.1882C120.071 75.2054 120.071 64.5565 120.071 53.5514ZM8.21787 42.2014C23.6238 47.6761 38.7572 53.0729 53.9239 58.3863C54.4357 58.5643 55.5596 58.1192 55.8656 57.6296C58.9423 52.689 61.9078 47.6761 64.9456 42.6243C64.5283 42.3795 64.2446 42.1458 63.9163 42.0289C49.2114 36.7824 34.512 31.5246 19.7682 26.3838C19.0894 26.1501 17.6261 26.7454 17.2144 27.3964C14.1877 32.1478 11.3391 37.016 8.21787 42.2014ZM75.0048 42.4518C77.9146 47.3089 80.8022 51.9324 83.4784 56.6782C84.5132 58.5087 85.498 58.7424 87.4286 58.0358C100.887 53.1453 114.39 48.3883 127.882 43.5868C129.14 43.1361 130.386 42.6521 131.771 42.1291C128.673 36.9604 125.674 32.081 122.808 27.1182C121.918 25.5826 120.967 26.0944 119.804 26.5117C111.714 29.3993 103.608 32.2479 95.5183 35.1244C88.7361 37.539 81.9595 39.9704 75.0048 42.4518ZM73.4971 35.9701C86.7999 31.2298 99.7133 26.6341 112.621 22.0385C112.621 21.8326 112.627 21.6323 112.627 21.4265C99.6577 16.8141 86.6942 12.2074 73.4971 7.51717C73.4971 17.1535 73.4971 26.3059 73.4971 35.9701Z" fill="#172B4D" fill-opacity="0.25"/>
</svg>
