<svg width="20" height="20" viewBox="0 0 20 20" fill="none" xmlns="http://www.w3.org/2000/svg">
<path d="M4.99998 13.3332C4.75949 13.3378 4.52092 13.3771 4.29165 13.4499C3.66357 12.4088 3.33218 11.2158 3.33332 9.99989C3.33025 8.73674 3.68882 7.4991 4.36665 6.43322C4.4599 6.27488 4.49821 6.09016 4.4756 5.9078C4.45299 5.72544 4.37074 5.55566 4.24165 5.42489C4.15457 5.33594 4.04868 5.26764 3.93174 5.22499C3.81481 5.18233 3.68981 5.16642 3.56591 5.17841C3.44202 5.1904 3.32239 5.22999 3.21581 5.29427C3.10922 5.35855 3.01839 5.4459 2.94998 5.54989C2.11553 6.87802 1.67285 8.4147 1.67285 9.98322C1.67285 11.5517 2.11553 13.0884 2.94998 14.4166C2.65982 14.8322 2.50288 15.3263 2.49998 15.8332C2.49998 16.3277 2.6466 16.811 2.92131 17.2221C3.19601 17.6333 3.58646 17.9537 4.04327 18.1429C4.50009 18.3321 5.00276 18.3816 5.48771 18.2852C5.97266 18.1887 6.41812 17.9506 6.76775 17.601C7.11738 17.2514 7.35548 16.8059 7.45195 16.3209C7.54841 15.836 7.4989 15.3333 7.30968 14.8765C7.12046 14.4197 6.80003 14.0292 6.38891 13.7545C5.97778 13.4798 5.49444 13.3332 4.99998 13.3332ZM4.99998 16.6666C4.83516 16.6666 4.67405 16.6177 4.53701 16.5261C4.39997 16.4345 4.29316 16.3044 4.23008 16.1521C4.16701 15.9999 4.15051 15.8323 4.18266 15.6706C4.21482 15.509 4.29418 15.3605 4.41073 15.244C4.52727 15.1274 4.67576 15.0481 4.83741 15.0159C4.99906 14.9837 5.16661 15.0002 5.31888 15.0633C5.47116 15.1264 5.60131 15.2332 5.69287 15.3702C5.78444 15.5073 5.83332 15.6684 5.83332 15.8332C5.83332 16.0542 5.74552 16.2662 5.58924 16.4225C5.43296 16.5788 5.221 16.6666 4.99998 16.6666ZM18.3333 10.5582C18.199 12.2206 17.5723 13.8053 16.5333 15.11C15.4943 16.4147 14.0901 17.3802 12.5 17.8832H12.4333C12.06 18.0035 11.6636 18.0343 11.2762 17.973C10.8888 17.9118 10.5212 17.7603 10.2032 17.5307C9.8852 17.3011 9.62567 16.9999 9.4456 16.6515C9.26553 16.303 9.16997 15.9171 9.16665 15.5249V13.3332C8.28259 13.3332 7.43475 12.982 6.80963 12.3569C6.1845 11.7318 5.83332 10.8839 5.83332 9.99989V6.66655C5.83332 6.44554 5.92111 6.23358 6.07739 6.0773C6.23367 5.92102 6.44563 5.83322 6.66665 5.83322H8.33332C8.55433 5.83322 8.76629 5.92102 8.92257 6.0773C9.07885 6.23358 9.16665 6.44554 9.16665 6.66655C9.16665 6.88757 9.07885 7.09953 8.92257 7.25581C8.76629 7.41209 8.55433 7.49989 8.33332 7.49989H7.49998V9.99989C7.49998 10.4419 7.67558 10.8658 7.98814 11.1784C8.3007 11.491 8.72462 11.6666 9.16665 11.6666H10.8333C11.2753 11.6666 11.6993 11.491 12.0118 11.1784C12.3244 10.8658 12.5 10.4419 12.5 9.99989V7.49989H11.6666C11.4456 7.49989 11.2337 7.41209 11.0774 7.25581C10.9211 7.09953 10.8333 6.88757 10.8333 6.66655C10.8333 6.44554 10.9211 6.23358 11.0774 6.0773C11.2337 5.92102 11.4456 5.83322 11.6666 5.83322H13.3333C13.5543 5.83322 13.7663 5.92102 13.9226 6.0773C14.0789 6.23358 14.1666 6.44554 14.1666 6.66655V9.99989C14.1666 10.8839 13.8155 11.7318 13.1903 12.3569C12.5652 12.982 11.7174 13.3332 10.8333 13.3332V15.5916C10.8288 15.7219 10.8549 15.8514 10.9096 15.9698C10.9643 16.0881 11.046 16.192 11.1481 16.2731C11.2502 16.3541 11.37 16.4101 11.4976 16.4365C11.6253 16.4628 11.7574 16.4589 11.8833 16.4249C12.787 16.1454 13.6208 15.6769 14.3295 15.0504C15.0381 14.4239 15.6054 13.6537 15.9935 12.7911C16.3816 11.9285 16.5817 10.9932 16.5805 10.0473C16.5793 9.10143 16.3768 8.16663 15.9865 7.30501C15.5962 6.4434 15.027 5.6747 14.3168 5.04998C13.6066 4.42527 12.7715 3.95885 11.8671 3.6817C10.9628 3.40456 10.0098 3.32303 9.07145 3.44255C8.13314 3.56206 7.23101 3.87988 6.42498 4.37489C6.26752 4.4692 6.08333 4.50889 5.901 4.48779C5.71868 4.4667 5.54841 4.38599 5.41665 4.25822C5.32616 4.17113 5.25652 4.06472 5.21294 3.94693C5.16936 3.82914 5.15297 3.70303 5.16499 3.57801C5.17701 3.453 5.21713 3.33232 5.28236 3.22499C5.34758 3.11766 5.43622 3.02647 5.54165 2.95822C6.84235 2.12945 8.34752 1.67791 9.88962 1.65385C11.4317 1.62978 12.9503 2.03415 14.2762 2.82193C15.6021 3.60971 16.6834 4.74999 17.3997 6.11585C18.116 7.48172 18.4392 9.01957 18.3333 10.5582Z" fill="#172B4D"/>
</svg>
