<svg width="24" height="24" viewBox="0 0 24 24" fill="none" xmlns="http://www.w3.org/2000/svg">
<path d="M11 5.5H8V4H8.5C8.76522 4 9.01957 3.89464 9.20711 3.70711C9.39464 3.51957 9.5 3.26522 9.5 3C9.5 2.73478 9.39464 2.48043 9.20711 2.29289C9.01957 2.10536 8.76522 2 8.5 2H5.5C5.23478 2 4.98043 2.10536 4.79289 2.29289C4.60536 2.48043 4.5 2.73478 4.5 3C4.5 3.26522 4.60536 3.51957 4.79289 3.70711C4.98043 3.89464 5.23478 4 5.5 4H6V5.5H3C2.73478 5.5 2.48043 5.60536 2.29289 5.79289C2.10536 5.98043 2 6.23478 2 6.5C2 6.76522 2.10536 7.01957 2.29289 7.20711C2.48043 7.39464 2.73478 7.5 3 7.5V15C3 15.5304 3.21071 16.0391 3.58579 16.4142C3.96086 16.7893 4.46957 17 5 17H6V21L8 22.5V17H9C9.53043 17 10.0391 16.7893 10.4142 16.4142C10.7893 16.0391 11 15.5304 11 15V7.5C11.2652 7.5 11.5196 7.39464 11.7071 7.20711C11.8946 7.01957 12 6.76522 12 6.5C12 6.23478 11.8946 5.98043 11.7071 5.79289C11.5196 5.60536 11.2652 5.5 11 5.5ZM9 9H7.25C7.05109 9 6.86032 9.07902 6.71967 9.21967C6.57902 9.36032 6.5 9.55109 6.5 9.75C6.5 9.94891 6.57902 10.1397 6.71967 10.2803C6.86032 10.421 7.05109 10.5 7.25 10.5H9V12H7.25C7.05109 12 6.86032 12.079 6.71967 12.2197C6.57902 12.3603 6.5 12.5511 6.5 12.75C6.5 12.9489 6.57902 13.1397 6.71967 13.2803C6.86032 13.421 7.05109 13.5 7.25 13.5H9V15H5V7.5H9V9ZM19.5 10.5V10C19.7652 10 20.0196 9.89464 20.2071 9.70711C20.3946 9.51957 20.5 9.26522 20.5 9C20.5 8.73478 20.3946 8.48043 20.2071 8.29289C20.0196 8.10536 19.7652 8 19.5 8H14.5C14.2348 8 13.9804 8.10536 13.7929 8.29289C13.6054 8.48043 13.5 8.73478 13.5 9C13.5 9.26522 13.6054 9.51957 13.7929 9.70711C13.9804 9.89464 14.2348 10 14.5 10V10.5C14.5 11 13 11.66 13 13.5V20C13 20.5304 13.2107 21.0391 13.5858 21.4142C13.9609 21.7893 14.4696 22 15 22H19C19.5304 22 20.0391 21.7893 20.4142 21.4142C20.7893 21.0391 21 20.5304 21 20V13.5C21 11.66 19.5 11 19.5 10.5ZM16.5 10.5V10H17.5V10.5C17.5 12.1 19 12.5 19 13.5V14H15V13.5C15 12.5 16.5 12.1 16.5 10.5ZM19 15.5V17H15V15.5H19ZM15 20V18.5H19V20H15Z" fill="#0762F7"/>
</svg>
