<svg width="24" height="24" viewBox="0 0 24 24" fill="none" xmlns="http://www.w3.org/2000/svg">
<path d="M7.5 22C6.57174 22 5.6815 21.6313 5.02513 20.9749C4.36875 20.3185 4 19.4283 4 18.5V2H11V18.5C11 19.4283 10.6313 20.3185 9.97487 20.9749C9.3185 21.6313 8.42826 22 7.5 22ZM9 4H6V18.5C6 18.8978 6.15804 19.2794 6.43934 19.5607C6.72064 19.842 7.10218 20 7.5 20C7.89782 20 8.27936 19.842 8.56066 19.5607C8.84196 19.2794 9 18.8978 9 18.5V4Z" fill="#0762F7"/>
<path d="M16.5 22C15.5717 22 14.6815 21.6313 14.0251 20.9749C13.3687 20.3185 13 19.4283 13 18.5V2H20V18.5C20 19.4283 19.6313 20.3185 18.9749 20.9749C18.3185 21.6313 17.4283 22 16.5 22ZM18 4H15V12H18V4Z" fill="#0762F7"/>
</svg>
