<svg width="20" height="16" viewBox="0 0 20 16" fill="none" xmlns="http://www.w3.org/2000/svg">
<path d="M17.96 2.63L15.62 0.29C15.42 0.1 15.17 0 14.92 0C14.66 0 14.41 0.1 14.21 0.29L8.76 5.74L8.26 5.24L0 13.5L0.9 14.4C3.02 16.52 6.47 16.52 8.59 14.4L13.01 10L12.51 9.5L17.96 4.05C18.35 3.65 18.35 3.02 17.96 2.63ZM6.88 13.29C5.82 14.35 4.1 14.35 3.04 13.29L7.99 8.34L9.91 10.26L6.88 13.29ZM10.82 8.35L9.9 7.43L11.45 5.88L12.9 6.27L10.82 8.35ZM14.53 4.63L13.08 4.24L14.91 2.41L15.83 3.33L14.53 4.63ZM11 14H20C20 15.1 19.1 16 18 16H9L11 14Z" fill="#0762F7"/>
</svg>
