<svg width="20" height="20" viewBox="0 0 20 20" fill="none" xmlns="http://www.w3.org/2000/svg">
<g clip-path="url(#clip0_3626_3743)">
<path d="M4.1665 10.8335C4.49868 10.8332 4.82746 10.7668 5.13366 10.638C5.43985 10.5092 5.71732 10.3207 5.94984 10.0835C6.418 9.61475 6.68097 8.97934 6.68097 8.31684C6.68097 7.65434 6.418 7.01893 5.94984 6.55018C5.48284 6.09137 4.8545 5.83404 4.19983 5.8335C3.86766 5.83377 3.53887 5.90024 3.23268 6.02901C2.92648 6.15779 2.64902 6.3463 2.4165 6.58352C1.94833 7.05227 1.68537 7.68768 1.68537 8.35018C1.68537 9.01268 1.94833 9.64809 2.4165 10.1168C2.8835 10.5756 3.51184 10.833 4.1665 10.8335ZM3.57483 7.75018C3.65201 7.67144 3.74405 7.60879 3.84561 7.56588C3.94717 7.52296 4.05625 7.50062 4.1665 7.50016C4.38394 7.49886 4.59328 7.58259 4.74983 7.73349C4.90504 7.88963 4.99216 8.10085 4.99216 8.32101C4.99216 8.54116 4.90504 8.75236 4.74983 8.9085C4.67238 8.98975 4.5793 9.05451 4.4762 9.0989C4.3731 9.14329 4.26209 9.1664 4.14983 9.16683C3.93239 9.16814 3.72306 9.0844 3.5665 8.9335C3.48894 8.85548 3.42759 8.76287 3.386 8.66103C3.3444 8.55918 3.32339 8.45012 3.32416 8.34011C3.32494 8.2301 3.34749 8.12133 3.39051 8.02008C3.43354 7.91883 3.49618 7.8271 3.57483 7.75018ZM14.9998 5.8335H7.49984V10.8335H18.3332V9.16683C18.3332 8.72909 18.2469 8.29564 18.0794 7.89122C17.9119 7.4868 17.6664 7.11933 17.3569 6.8098C17.0473 6.50028 16.6799 6.25477 16.2754 6.08725C15.871 5.91973 15.4376 5.8335 14.9998 5.8335ZM9.1665 9.16683V7.50016H14.9998C15.4419 7.50016 15.8658 7.67576 16.1783 7.98832C16.4909 8.30088 16.6665 8.7248 16.6665 9.16683H9.1665ZM1.6665 13.3335H6.6665V15.0002H13.3332V13.3335H18.3332V11.6668H1.6665V13.3335Z" fill="#172B4D"/>
</g>
<defs>
<clipPath id="clip0_3626_3743">
<rect width="20" height="20" fill="white"/>
</clipPath>
</defs>
</svg>
