<svg width="17" height="22" viewBox="0 0 17 22" fill="none" xmlns="http://www.w3.org/2000/svg">
<path d="M8.99023 3V0L4.99023 4L8.99023 8V5C12.3002 5 14.9902 7.69 14.9902 11C14.9902 12.01 14.7402 12.97 14.2902 13.8L15.7502 15.26C16.5302 14.03 16.9902 12.57 16.9902 11C16.9902 6.58 13.4102 3 8.99023 3ZM8.99023 17C5.68023 17 2.99023 14.31 2.99023 11C2.99023 9.99 3.24023 9.03 3.69023 8.2L2.23023 6.74C1.45023 7.97 0.990234 9.43 0.990234 11C0.990234 15.42 4.57023 19 8.99023 19V22L12.9902 18L8.99023 14V17Z" fill="#0762F7"/>
</svg>
