<svg width="20" height="20" viewBox="0 0 20 20" fill="none" xmlns="http://www.w3.org/2000/svg">
<path fill-rule="evenodd" clip-rule="evenodd" d="M4.16667 7.5V15C4.16667 15.225 4.25833 15.4333 4.40833 15.5917C4.56667 15.7417 4.775 15.8333 5 15.8333H15C15.225 15.8333 15.4333 15.7417 15.5917 15.5917C15.75 15.4417 15.8333 15.225 15.8333 15V7.5H4.16667ZM5.83333 10.8333V9.16667H7.5V10.8333H5.83333ZM12.5 10.8333V9.16667H14.1667V10.8333H12.5ZM9.16667 10.8333V9.16667H10.8333V10.8333H9.16667ZM5.83333 14.1667V12.5H7.5V14.1667H5.83333ZM9.16667 14.1667V12.5H10.8333V14.1667H9.16667ZM17.5 5.825V15.8333C17.5 16.05 17.4583 16.2667 17.375 16.4667C17.2917 16.6667 17.1667 16.85 17.0167 17.0083C16.8583 17.1667 16.675 17.2833 16.475 17.3667C16.275 17.45 16.0583 17.4917 15.8417 17.4917H4.15833C3.71667 17.4917 3.29167 17.3167 2.98333 17.0083C2.675 16.7 2.5 16.275 2.5 15.8417V5.825C2.5 4.90833 3.24167 4.16667 4.15833 4.16667H5V2.5H6.66667V4.16667H13.3333V2.5H15V4.16667H15.8417C16.7583 4.16667 17.5 4.90833 17.5 5.825ZM12.5 14.1667V12.5H14.1667V14.1667H12.5Z" fill="#172B4D"/>
</svg>
