<svg width="20" height="20" viewBox="0 0 20 20" fill="none" xmlns="http://www.w3.org/2000/svg">
<path d="M5.83317 6.66683V5.00016C5.83317 4.0835 6.58317 3.3335 7.49984 3.3335H12.4998C13.4165 3.3335 14.1665 4.0835 14.1665 5.00016V6.66683H16.6665C17.5832 6.66683 18.3332 7.41683 18.3332 8.3335V11.8418C18.3332 12.7502 18.3332 13.9168 18.3332 15.0002C18.3332 15.9252 17.5915 16.6668 16.6665 16.6668H3.33317C2.4165 16.6668 1.6665 15.9252 1.6665 15.0002C1.6665 13.4418 1.6665 11.7502 1.6665 10.3668C1.6665 9.80016 1.6665 9.0585 1.6665 8.3335C1.6665 7.41683 2.4165 6.66683 3.33317 6.66683H5.83317ZM12.4998 8.3335V5.00016H7.49984V8.3335H3.33317V15.0002H7.49984V10.8335C7.49984 10.3752 7.87484 10.0002 8.33317 10.0002H11.6665C12.1248 10.0002 12.4998 10.3752 12.4998 10.8335V15.0002H16.6665C16.6665 12.4085 16.6665 8.3335 16.6665 8.3335H12.4998ZM11.1165 15.0002C11.1165 14.0668 11.1165 12.3085 11.1165 11.3835C10.3748 11.3835 9.63317 11.3835 8.8915 11.3835C8.8915 12.3168 8.8915 14.0752 8.8915 15.0002C9.63317 15.0002 10.3665 15.0002 11.1165 15.0002ZM10.5582 6.94183C10.5582 6.56683 10.5582 6.20016 10.5582 5.8335C10.1832 5.8335 9.8165 5.8335 9.4415 5.8335C9.4415 6.20016 9.4415 6.56683 9.4415 6.94183C9.0665 6.94183 8.69984 6.94183 8.32484 6.94183C8.32484 7.31683 8.32484 7.6835 8.32484 8.0585C8.69984 8.0585 9.0665 8.0585 9.4415 8.0585C9.4415 8.4335 9.4415 8.79183 9.4415 9.16683C9.8165 9.16683 10.1915 9.16683 10.5665 9.16683C10.5665 8.80016 10.5665 8.4335 10.5665 8.0585C10.9415 8.0585 11.3082 8.0585 11.6832 8.0585C11.6832 7.6835 11.6832 7.32516 11.6832 6.94183C11.2998 6.94183 10.9332 6.94183 10.5582 6.94183ZM15.5915 11.0918C15.0332 11.0918 14.4748 11.0918 13.9165 11.0918C13.9165 11.4668 13.9165 11.8335 13.9165 12.2002C14.4748 12.2002 15.0332 12.2002 15.5915 12.2002C15.5915 11.8335 15.5915 11.4668 15.5915 11.0918ZM4.40817 12.2002C4.9665 12.2002 5.52484 12.2002 6.07484 12.2002C6.07484 11.8252 6.07484 11.4668 6.07484 11.0918C5.5165 11.0918 4.9665 11.0918 4.40817 11.0918C4.40817 11.4668 4.40817 11.8335 4.40817 12.2002ZM6.07484 9.97516C6.07484 9.60016 6.07484 9.2335 6.07484 8.86683C5.5165 8.86683 4.95817 8.86683 4.39984 8.86683C4.39984 9.24183 4.39984 9.60016 4.39984 9.97516C4.95817 9.97516 5.5165 9.97516 6.07484 9.97516ZM13.9165 8.86683C13.9165 9.24183 13.9165 9.60016 13.9165 9.97516C14.4748 9.97516 15.0332 9.97516 15.5915 9.97516C15.5915 9.60016 15.5915 9.24183 15.5915 8.86683C15.0332 8.86683 14.4748 8.86683 13.9165 8.86683ZM6.07484 14.4252C6.07484 14.0502 6.07484 13.6835 6.07484 13.3168C5.5165 13.3168 4.95817 13.3168 4.40817 13.3168C4.40817 13.6835 4.40817 14.0502 4.40817 14.4252C4.9665 14.4252 5.5165 14.4252 6.07484 14.4252ZM13.9165 13.3252C13.9165 13.7002 13.9165 14.0585 13.9165 14.4335C14.4748 14.4335 15.0332 14.4335 15.5915 14.4335C15.5915 14.0668 15.5915 13.7002 15.5915 13.3252C15.0332 13.3252 14.4748 13.3252 13.9165 13.3252Z" fill="#172B4D"/>
</svg>
