<svg width="20" height="20" viewBox="0 0 20 20" fill="none" xmlns="http://www.w3.org/2000/svg">
<path d="M6.25016 18.3332C5.47661 18.3332 4.73475 18.0259 4.18777 17.4789C3.64079 16.9319 3.3335 16.1901 3.3335 15.4165V1.6665H9.16683V15.4165C9.16683 16.1901 8.85954 16.9319 8.31256 17.4789C7.76558 18.0259 7.02371 18.3332 6.25016 18.3332ZM7.50016 3.33317H5.00016V15.4165C5.00016 15.748 5.13186 16.066 5.36628 16.3004C5.6007 16.5348 5.91864 16.6665 6.25016 16.6665C6.58168 16.6665 6.89963 16.5348 7.13405 16.3004C7.36847 16.066 7.50016 15.748 7.50016 15.4165V3.33317Z" fill="#172B4D"/>
<path d="M13.7502 18.3332C12.9766 18.3332 12.2347 18.0259 11.6878 17.4789C11.1408 16.9319 10.8335 16.1901 10.8335 15.4165V1.6665H16.6668V15.4165C16.6668 16.1901 16.3595 16.9319 15.8126 17.4789C15.2656 18.0259 14.5237 18.3332 13.7502 18.3332ZM15.0002 3.33317H12.5002V9.99984H15.0002V3.33317Z" fill="#172B4D"/>
</svg>
