<svg width="20" height="20" viewBox="0 0 20 20" fill="none" xmlns="http://www.w3.org/2000/svg">
<path d="M9.99984 1.66675C5.4165 1.66675 1.6665 5.41675 1.6665 10.0001C1.6665 14.5834 5.4165 18.3334 9.99984 18.3334C14.5832 18.3334 18.3332 14.5834 18.3332 10.0001C18.3332 5.41675 14.5832 1.66675 9.99984 1.66675ZM9.99984 16.6667C6.33317 16.6667 3.33317 13.6667 3.33317 10.0001C3.33317 6.33342 6.33317 3.33341 9.99984 3.33341C13.6665 3.33341 16.6665 6.33342 16.6665 10.0001C16.6665 13.6667 13.6665 16.6667 9.99984 16.6667ZM12.9998 5.83342L9.99984 8.83342L6.99984 5.83342L5.83317 7.00008L8.83317 10.0001L5.83317 13.0001L6.99984 14.1667L9.99984 11.1667L12.9998 14.1667L14.1665 13.0001L11.1665 10.0001L14.1665 7.00008L12.9998 5.83342Z" fill="#0762F7"/>
<path d="M9.99984 1.66675C5.4165 1.66675 1.6665 5.41675 1.6665 10.0001C1.6665 14.5834 5.4165 18.3334 9.99984 18.3334C14.5832 18.3334 18.3332 14.5834 18.3332 10.0001C18.3332 5.41675 14.5832 1.66675 9.99984 1.66675ZM9.99984 16.6667C6.33317 16.6667 3.33317 13.6667 3.33317 10.0001C3.33317 6.33342 6.33317 3.33341 9.99984 3.33341C13.6665 3.33341 16.6665 6.33342 16.6665 10.0001C16.6665 13.6667 13.6665 16.6667 9.99984 16.6667ZM12.9998 5.83342L9.99984 8.83342L6.99984 5.83342L5.83317 7.00008L8.83317 10.0001L5.83317 13.0001L6.99984 14.1667L9.99984 11.1667L12.9998 14.1667L14.1665 13.0001L11.1665 10.0001L14.1665 7.00008L12.9998 5.83342Z" fill="black" fill-opacity="0.25"/>
</svg>
