<svg width="20" height="20" viewBox="0 0 20 20" fill="none" xmlns="http://www.w3.org/2000/svg">
<path d="M11.6663 1.6665H4.99967C4.08301 1.6665 3.33301 2.4165 3.33301 3.33317V16.6665C3.33301 17.5832 4.07467 18.3332 4.99134 18.3332H14.9997C15.9163 18.3332 16.6663 17.5832 16.6663 16.6665V6.6665L11.6663 1.6665ZM14.9997 16.6665H4.99967V3.33317H10.833V7.49984H14.9997V16.6665ZM10.833 13.3332V11.6665H6.66634V9.99984H10.833V8.33317L13.333 10.8332L10.833 13.3332Z" fill="#0762F7"/>
<path d="M11.6663 1.6665H4.99967C4.08301 1.6665 3.33301 2.4165 3.33301 3.33317V16.6665C3.33301 17.5832 4.07467 18.3332 4.99134 18.3332H14.9997C15.9163 18.3332 16.6663 17.5832 16.6663 16.6665V6.6665L11.6663 1.6665ZM14.9997 16.6665H4.99967V3.33317H10.833V7.49984H14.9997V16.6665ZM10.833 13.3332V11.6665H6.66634V9.99984H10.833V8.33317L13.333 10.8332L10.833 13.3332Z" fill="black" fill-opacity="0.25"/>
</svg>
