<svg width="18" height="14" viewBox="0 0 18 14" fill="none" xmlns="http://www.w3.org/2000/svg">
<path d="M10.6667 10.3333H12.3333V8.66667H14V7H12.3333V5.33333H10.6667V7H9V8.66667H10.6667V10.3333ZM2.33334 13.6667C1.87501 13.6667 1.48278 13.5036 1.15667 13.1775C0.830005 12.8508 0.666672 12.4583 0.666672 12V2C0.666672 1.54167 0.830005 1.14944 1.15667 0.823333C1.48278 0.496666 1.87501 0.333333 2.33334 0.333333H7.33334L9 2H15.6667C16.125 2 16.5175 2.16333 16.8442 2.49C17.1703 2.81611 17.3333 3.20833 17.3333 3.66667V12C17.3333 12.4583 17.1703 12.8508 16.8442 13.1775C16.5175 13.5036 16.125 13.6667 15.6667 13.6667H2.33334ZM2.33334 2V12H15.6667V3.66667H8.31251L6.64584 2H2.33334Z" fill="#0762F7"/>
<path d="M10.6667 10.3333H12.3333V8.66667H14V7H12.3333V5.33333H10.6667V7H9V8.66667H10.6667V10.3333ZM2.33334 13.6667C1.87501 13.6667 1.48278 13.5036 1.15667 13.1775C0.830005 12.8508 0.666672 12.4583 0.666672 12V2C0.666672 1.54167 0.830005 1.14944 1.15667 0.823333C1.48278 0.496666 1.87501 0.333333 2.33334 0.333333H7.33334L9 2H15.6667C16.125 2 16.5175 2.16333 16.8442 2.49C17.1703 2.81611 17.3333 3.20833 17.3333 3.66667V12C17.3333 12.4583 17.1703 12.8508 16.8442 13.1775C16.5175 13.5036 16.125 13.6667 15.6667 13.6667H2.33334ZM2.33334 2V12H15.6667V3.66667H8.31251L6.64584 2H2.33334Z" fill="black" fill-opacity="0.25"/>
</svg>
