<svg width="18" height="14" viewBox="0 0 18 14" fill="none" xmlns="http://www.w3.org/2000/svg">
<path d="M2.33334 13.6667C1.87501 13.6667 1.48278 13.5036 1.15667 13.1775C0.830005 12.8508 0.666672 12.4583 0.666672 12V1.99999C0.666672 1.54166 0.830005 1.14944 1.15667 0.823328C1.48278 0.496661 1.87501 0.333328 2.33334 0.333328H7.33334L9 1.99999H15.6667C16.125 1.99999 16.5175 2.16333 16.8442 2.48999C17.1703 2.81611 17.3333 3.20833 17.3333 3.66666V12C17.3333 12.4583 17.1703 12.8508 16.8442 13.1775C16.5175 13.5036 16.125 13.6667 15.6667 13.6667H2.33334Z" fill="#0762F7"/>
<path d="M2.33334 13.6667C1.87501 13.6667 1.48278 13.5036 1.15667 13.1775C0.830005 12.8508 0.666672 12.4583 0.666672 12V1.99999C0.666672 1.54166 0.830005 1.14944 1.15667 0.823328C1.48278 0.496661 1.87501 0.333328 2.33334 0.333328H7.33334L9 1.99999H15.6667C16.125 1.99999 16.5175 2.16333 16.8442 2.48999C17.1703 2.81611 17.3333 3.20833 17.3333 3.66666V12C17.3333 12.4583 17.1703 12.8508 16.8442 13.1775C16.5175 13.5036 16.125 13.6667 15.6667 13.6667H2.33334Z" fill="white" fill-opacity="0.5"/>
</svg>
