<svg width="33" height="32" viewBox="0 0 33 32" fill="none" xmlns="http://www.w3.org/2000/svg">
<rect x="0.369141" width="32" height="32" rx="16" fill="#0762F7"/>
<rect x="0.369141" width="32" height="32" rx="16" fill="black" fill-opacity="0.5"/>
<g clip-path="url(#clip0_18697_19165)">
<path d="M16.3164 6C13.6642 6 11.1207 7.05356 9.24536 8.92892C7.37 10.8043 6.31641 13.3478 6.31641 16C6.31641 18.6522 7.37 21.1957 9.24536 23.0711C11.1207 24.9464 13.6642 26 16.3164 26C18.9686 26 21.5121 24.9464 23.3875 23.0711C25.2628 21.1957 26.3164 18.6522 26.3164 16C26.3164 13.3478 25.2628 10.8043 23.3875 8.92892C21.5121 7.05356 18.9686 6 16.3164 6ZM11.3864 22.28C11.8164 21.38 14.4364 20.5 16.3164 20.5C18.1964 20.5 20.8264 21.38 21.2464 22.28C19.8459 23.3962 18.1073 24.0028 16.3164 24C14.5255 24.0028 12.7869 23.3962 11.3864 22.28ZM22.6764 20.83C21.2464 19.09 17.7764 18.5 16.3164 18.5C14.8564 18.5 11.3864 19.09 9.95642 20.83C8.89738 19.4421 8.32141 17.7458 8.31641 16C8.31641 13.8783 9.15929 11.8434 10.6596 10.3431C12.1599 8.84285 14.1947 8 16.3164 8C18.4381 8 20.473 8.84285 21.9733 10.3431C23.4736 11.8434 24.3164 13.8783 24.3164 16C24.3158 17.7527 23.7396 19.4566 22.6764 20.85V20.83ZM16.3164 10C15.8564 9.99868 15.4007 10.0883 14.9755 10.2637C14.5502 10.4392 14.1639 10.6969 13.8386 11.0222C13.5133 11.3475 13.2556 11.7338 13.0801 12.1591C12.9047 12.5843 12.8151 13.04 12.8164 13.5C12.8151 13.96 12.9047 14.4157 13.0801 14.841C13.2556 15.2662 13.5133 15.6525 13.8386 15.9778C14.1639 16.3031 14.5502 16.5608 14.9755 16.7363C15.4007 16.9117 15.8564 17.0013 16.3164 17C16.7764 17.0013 17.2321 16.9117 17.6574 16.7363C18.0826 16.5608 18.469 16.3031 18.7943 15.9778C19.1195 15.6525 19.3772 15.2662 19.5527 14.841C19.7281 14.4157 19.8177 13.96 19.8164 13.5C19.8177 13.04 19.7281 12.5843 19.5527 12.1591C19.3772 11.7338 19.1195 11.3475 18.7943 11.0222C18.469 10.6969 18.0826 10.4392 17.6574 10.2637C17.2321 10.0883 16.7764 9.99868 16.3164 10ZM16.3164 15C15.9186 15 15.5371 14.842 15.2558 14.5607C14.9745 14.2794 14.8164 13.8978 14.8164 13.5C14.8164 13.1022 14.9745 12.7206 15.2558 12.4393C15.5371 12.158 15.9186 12 16.3164 12C16.7142 12 17.0958 12.158 17.3771 12.4393C17.6584 12.7206 17.8164 13.1022 17.8164 13.5C17.8164 13.8978 17.6584 14.2794 17.3771 14.5607C17.0958 14.842 16.7142 15 16.3164 15Z" fill="white"/>
</g>
<defs>
<clipPath id="clip0_18697_19165">
<rect width="20" height="20" fill="white" transform="translate(6.31641 6)"/>
</clipPath>
</defs>
</svg>
