<svg width="24" height="24" viewBox="0 0 24 24" fill="none" xmlns="http://www.w3.org/2000/svg">
<path d="M6.35 15.3499L4.25 13.1999C5.247 12.2106 6.42059 11.4169 7.71 10.8599C9.06618 10.283 10.5262 9.9903 12 9.9999C13.4761 9.98724 14.9381 10.2871 16.29 10.8799C17.5847 11.4407 18.7593 12.2453 19.75 13.2499L17.65 15.3499C16.9176 14.6165 16.0522 14.0294 15.1 13.6199C14.1177 13.2106 13.0641 12.9999 12 12.9999C10.9359 12.9999 9.88227 13.2106 8.9 13.6199C7.94784 14.0294 7.08241 14.6165 6.35 15.3499Z" fill="#FFF"/>
<path d="M2.1 11.0999L0 8.99989C1.55984 7.40057 3.42699 6.13318 5.48918 5.27394C7.55138 4.41469 9.76603 3.98132 12 3.99989C14.2739 3.98013 16.5275 4.42949 18.62 5.31989C20.6373 6.18197 22.4653 7.43236 24 8.99989L21.9 11.0999C20.6211 9.82121 19.1065 8.80244 17.44 8.09989C15.7216 7.36291 13.8697 6.98843 12 6.99989C10.131 6.98527 8.27909 7.35634 6.56 8.08989C4.8927 8.79541 3.37806 9.81762 2.1 11.0999Z" fill="#FFF"/>
<path d="M12 21L15.52 17.45C15.0838 17.005 14.5683 16.6455 14 16.39C13.3821 16.1325 12.7194 16 12.05 16C11.3807 16 10.7179 16.1325 10.1 16.39C9.51393 16.6401 8.98104 16.9999 8.53003 17.45L12 21Z" fill="#FFF"/>
</svg>
