<svg width="24" height="24" viewBox="0 0 24 24" fill="none" xmlns="http://www.w3.org/2000/svg">
<g clip-path="url(#clip0_16255_7791)">
<path fill-rule="evenodd" clip-rule="evenodd" d="M5 9V18C5 18.27 5.11 18.52 5.29 18.71C5.48 18.89 5.73 19 6 19H18C18.27 19 18.52 18.89 18.71 18.71C18.9 18.53 19 18.27 19 18V9H5ZM7 13V11H9V13H7ZM15 13V11H17V13H15ZM11 13V11H13V13H11ZM7 17V15H9V17H7ZM11 17V15H13V17H11ZM21 6.99V19C21 19.26 20.95 19.52 20.85 19.76C20.75 20 20.6 20.22 20.42 20.41C20.23 20.6 20.01 20.74 19.77 20.84C19.53 20.94 19.27 20.99 19.01 20.99H4.99C4.46 20.99 3.95 20.78 3.58 20.41C3.21 20.04 3 19.53 3 19.01V6.99C3 5.89 3.89 5 4.99 5H6V3H8V5H16V3H18V5H19.01C20.11 5 21 5.89 21 6.99ZM15 17V15H17V17H15Z" fill="#7A869A"/>
</g>
<defs>
<clipPath id="clip0_16255_7791">
<rect width="24" height="24" fill="white"/>
</clipPath>
</defs>
</svg>
