<svg width="20" height="20" viewBox="0 0 20 20" fill="none" xmlns="http://www.w3.org/2000/svg">
<path d="M13.8333 6.33335L8.33329 11.8334L5.33329 8.83335L4.16663 10L8.33329 14.1667L15 7.50002L13.8333 6.33335ZM9.99996 1.66669C5.41663 1.66669 1.66663 5.41669 1.66663 10C1.66663 14.5834 5.41663 18.3334 9.99996 18.3334C14.5833 18.3334 18.3333 14.5834 18.3333 10C18.3333 5.41669 14.5833 1.66669 9.99996 1.66669ZM9.99996 16.6667C6.33329 16.6667 3.33329 13.6667 3.33329 10C3.33329 6.33335 6.33329 3.33335 9.99996 3.33335C13.6666 3.33335 16.6666 6.33335 16.6666 10C16.6666 13.6667 13.6666 16.6667 9.99996 16.6667Z" fill="white"/>
</svg>
