<svg width="14" height="18" viewBox="0 0 14 18" fill="none" xmlns="http://www.w3.org/2000/svg">
<path d="M3.66683 12.3334H10.3335V14H3.66683V12.3334ZM3.66683 9.00002H10.3335V10.6667H3.66683V9.00002ZM8.66683 0.666687H2.00016C1.55814 0.666687 1.13421 0.84228 0.82165 1.15484C0.50909 1.4674 0.333496 1.89133 0.333496 2.33335V15.6667C0.333496 16.1087 0.50909 16.5326 0.82165 16.8452C1.13421 17.1578 1.55814 17.3334 2.00016 17.3334H12.0002C12.4422 17.3334 12.8661 17.1578 13.1787 16.8452C13.4912 16.5326 13.6668 16.1087 13.6668 15.6667V5.66669L8.66683 0.666687ZM12.0002 15.6667H2.00016V2.33335H7.8335V6.50002H12.0002V15.6667Z" fill="#0762F7"/>
<path d="M3.66683 12.3334H10.3335V14H3.66683V12.3334ZM3.66683 9.00002H10.3335V10.6667H3.66683V9.00002ZM8.66683 0.666687H2.00016C1.55814 0.666687 1.13421 0.84228 0.82165 1.15484C0.50909 1.4674 0.333496 1.89133 0.333496 2.33335V15.6667C0.333496 16.1087 0.50909 16.5326 0.82165 16.8452C1.13421 17.1578 1.55814 17.3334 2.00016 17.3334H12.0002C12.4422 17.3334 12.8661 17.1578 13.1787 16.8452C13.4912 16.5326 13.6668 16.1087 13.6668 15.6667V5.66669L8.66683 0.666687ZM12.0002 15.6667H2.00016V2.33335H7.8335V6.50002H12.0002V15.6667Z" fill="black" fill-opacity="0.25"/>
</svg>
