<svg width="24" height="24" viewBox="0 0 24 24" fill="none" xmlns="http://www.w3.org/2000/svg">
<mask id="mask0_21074_15993" style="mask-type:alpha" maskUnits="userSpaceOnUse" x="0" y="0" width="24" height="24">
<rect width="24" height="24" transform="matrix(-1 0 0 1 24 0)" fill="#D9D9D9"/>
</mask>
<g mask="url(#mask0_21074_15993)">
<path d="M2.1 11.1C3.38333 9.81672 4.87067 8.81238 6.562 8.08705C8.254 7.36238 10.0667 7.00005 12 7.00005C12.35 7.00005 12.6873 7.01238 13.012 7.03705C13.3373 7.06238 13.6667 7.10005 14 7.15005L16.55 4.60005C15.8167 4.40005 15.0707 4.25005 14.312 4.15005C13.554 4.05005 12.7833 4.00005 12 4.00005C9.63333 4.00005 7.425 4.44172 5.375 5.32505C3.325 6.20838 1.53333 7.41672 0 8.95005L2.1 11.1ZM6.1 15.05L11.15 10C9.8 10.1334 8.53733 10.475 7.362 11.025C6.18733 11.575 5.15 12.3 4.25 13.2L6.1 15.05ZM4.25 22.6L13.65 13.15C14.4333 13.3334 15.1623 13.6084 15.837 13.975C16.5123 14.3417 17.1167 14.8 17.65 15.35L19.75 13.2C19.2167 12.6667 18.6417 12.2 18.025 11.8C17.4083 11.4 16.75 11.05 16.05 10.75L18.3 8.50005C18.9833 8.85005 19.6207 9.23738 20.212 9.66205C20.804 10.0874 21.3667 10.5667 21.9 11.1L24 8.95005C23.4667 8.41672 22.9123 7.93738 22.337 7.51205C21.7623 7.08738 21.15 6.68338 20.5 6.30005L22.6 4.20005L21.2 2.80005L2.8 21.2001L4.25 22.6ZM12 21L15.525 17.45C15.075 17 14.55 16.6457 13.95 16.387C13.35 16.129 12.7 16 12 16C11.3 16 10.65 16.129 10.05 16.387C9.45 16.6457 8.925 17 8.475 17.45L12 21Z" fill="#172B4D"/>
</g>
</svg>
