<svg width="20" height="20" viewBox="0 0 20 20" xmlns="http://www.w3.org/2000/svg">
<path d="M11.7667 8.725L10.0001 10.4917L8.22508 8.725L7.05008 9.9L8.82508 11.6667L7.05842 13.4333L8.23342 14.6083L10.0001 12.8417L11.7667 14.6083L12.9417 13.4333L11.1751 11.6667L12.9417 9.9L11.7667 8.725ZM12.9167 3.33333L12.0834 2.5H7.91675L7.08341 3.33333H4.16675V5H15.8334V3.33333H12.9167ZM5.00008 15.8333C5.00008 16.75 5.75008 17.5 6.66675 17.5H13.3334C14.2501 17.5 15.0001 16.75 15.0001 15.8333V5.83333H5.00008V15.8333ZM6.66675 7.5H13.3334V15.8333H6.66675V7.5Z" fill="#FC3B3A"/>
</svg>
