<svg width="20" height="20" viewBox="0 0 20 20" fill="none" xmlns="http://www.w3.org/2000/svg">
<g clip-path="url(#clip0_16267_7931)">
<path d="M4.16667 5.00002C5.08714 5.00002 5.83333 4.25383 5.83333 3.33335C5.83333 2.41288 5.08714 1.66669 4.16667 1.66669C3.24619 1.66669 2.5 2.41288 2.5 3.33335C2.5 4.25383 3.24619 5.00002 4.16667 5.00002Z" fill="#0762F7"/>
<path d="M9.54167 3.75H7.875C7.675 4.93333 6.65834 5.83333 5.41667 5.83333H2.91667C2.22501 5.83333 1.66667 6.39167 1.66667 7.08333V9.16667H6.66667V7.28333C8.21667 6.79167 9.375 5.425 9.54167 3.75Z" fill="#0762F7"/>
<path d="M15.8333 14.1666C16.7538 14.1666 17.5 13.4205 17.5 12.5C17.5 11.5795 16.7538 10.8333 15.8333 10.8333C14.9129 10.8333 14.1667 11.5795 14.1667 12.5C14.1667 13.4205 14.9129 14.1666 15.8333 14.1666Z" fill="#0762F7"/>
<path d="M17.0833 15H14.5833C13.3417 15 12.325 14.1 12.125 12.9167H10.4583C10.625 14.5917 11.7833 15.9584 13.3333 16.45V18.3334H18.3333V16.25C18.3333 15.5584 17.775 15 17.0833 15Z" fill="#0762F7"/>
<path d="M16.6667 4.99998H14.3917C15.5833 6.04998 16.4 7.50831 16.6083 9.16665H14.925C14.7333 8.03331 14.15 7.04165 13.3333 6.29998V8.33331H11.6667V3.33331H16.6667V4.99998Z" fill="#0762F7"/>
<path d="M3.33333 15H5.60833C4.41666 13.95 3.6 12.4916 3.39166 10.8333H5.07499C5.26666 11.9666 5.84999 12.9583 6.66666 13.7V11.6666H8.33333V16.6666H3.33333V15Z" fill="#0762F7"/>
</g>
<defs>
<clipPath id="clip0_16267_7931">
<rect width="20" height="20" fill="white"/>
</clipPath>
</defs>
</svg>
