<svg width="16" height="16" viewBox="0 0 16 16" fill="none" xmlns="http://www.w3.org/2000/svg">
<g clip-path="url(#clip0_16255_7752)">
<path d="M14.3969 1H1.60299C1.37734 0.999574 1.17047 1.12563 1.06732 1.32638C0.96275 1.52984 0.981104 1.77484 1.1147 1.96065L5.80184 8.56339C5.8034 8.56566 5.80511 8.5678 5.80667 8.57007C5.97698 8.79999 6.06903 9.07842 6.0696 9.36468V14.7478C6.0686 14.9073 6.13121 15.0604 6.2436 15.1735C6.356 15.2866 6.50881 15.3501 6.66816 15.3501C6.74925 15.3501 6.82935 15.3339 6.90419 15.3029L9.538 14.2985C9.77404 14.2265 9.93068 14.0039 9.93068 13.7357V9.36468C9.93111 9.07857 10.0233 8.79999 10.1935 8.57007C10.195 8.5678 10.1967 8.56566 10.1983 8.56339L14.8853 1.96036C15.0189 1.77469 15.0372 1.52984 14.9327 1.32638C14.8295 1.12563 14.6227 0.999574 14.3969 1ZM9.60615 8.13855C9.34437 8.49381 9.2028 8.92334 9.20195 9.36468V13.6472L6.79805 14.5637V9.36468C6.7972 8.92334 6.65564 8.49381 6.39371 8.13855L1.8433 1.72845H14.1567L9.60615 8.13855Z" fill="#172B4D"/>
</g>
<defs>
<clipPath id="clip0_16255_7752">
<rect width="16" height="16" fill="white"/>
</clipPath>
</defs>
</svg>
