<svg width="20" height="20" viewBox="0 0 20 20" fill="none" xmlns="http://www.w3.org/2000/svg">
<g opacity="0.87">
<path d="M13.3333 14.1667C13.3333 14.6667 13 15 12.5 15H7.49999C6.99999 15 6.66666 14.6667 6.66666 14.1667C6.66666 13.6667 6.99999 13.3334 7.49999 13.3334H12.5C13 13.3334 13.3333 13.6667 13.3333 14.1667ZM10.0833 11.8334L11.8333 10.0834L12.75 9.16669C13.25 8.66669 13.25 7.91669 12.75 7.41669C12.25 6.91669 11.5 6.91669 11 7.41669L10.0833 8.33335L9.16666 7.33335C8.66666 6.83335 7.91666 6.83335 7.41666 7.33335C6.91666 7.83335 6.91666 8.58335 7.41666 9.08335L10.0833 11.8334ZM16.6667 3.33335V16.6667C16.6667 17.5834 15.9167 18.3334 15 18.3334H4.99999C4.08333 18.3334 3.33333 17.5834 3.33333 16.6667V3.33335C3.33333 2.41669 4.08333 1.66669 4.99999 1.66669H15C15.9167 1.66669 16.6667 2.41669 16.6667 3.33335ZM15 3.33335H13.3333C13.3333 3.83335 13 4.16669 12.5 4.16669H7.49999C6.99999 4.16669 6.66666 3.83335 6.66666 3.33335H4.99999V16.6667H15V3.33335Z" fill="#0762F7"/>
</g>
</svg>
