<svg width="25" height="24" viewBox="0 0 25 24" fill="none" xmlns="http://www.w3.org/2000/svg">
<path d="M12.3691 2C6.84914 2 2.36914 6.48 2.36914 12C2.36914 17.52 6.84914 22 12.3691 22C17.8891 22 22.3691 17.52 22.3691 12C22.3691 6.48 17.8891 2 12.3691 2ZM13.3691 19H11.3691V17H13.3691V19ZM15.4391 11.25L14.5391 12.17C14.0391 12.68 13.6791 13.14 13.4991 13.86C13.4191 14.18 13.3691 14.54 13.3691 15H11.3691V14.5C11.3691 14.04 11.4491 13.6 11.5891 13.19C11.7891 12.61 12.1191 12.09 12.5391 11.67L13.7791 10.41C14.2391 9.97 14.4591 9.31 14.3291 8.61C14.1991 7.89 13.6391 7.28 12.9391 7.08C11.8291 6.77 10.7991 7.4 10.4691 8.35C10.3491 8.72 10.0391 9 9.64914 9H9.34914C8.76914 9 8.36914 8.44 8.52914 7.88C8.95914 6.41 10.2091 5.29 11.7591 5.05C13.2791 4.81 14.7291 5.6 15.6291 6.85C16.8091 8.48 16.4591 10.23 15.4391 11.25Z" fill="white"/>
</svg>
