<svg width="25" height="24" viewBox="0 0 25 24" fill="none" xmlns="http://www.w3.org/2000/svg">
<g clip-path="url(#clip0_4576_1761)">
<path d="M12.5 2C7 2 2.5 6.5 2.5 12C2.5 17.5 7 22 12.5 22C18 22 22.5 17.5 22.5 12C22.5 6.5 18 2 12.5 2ZM13.5 17H11.5V11H13.5V17ZM13.5 9H11.5V7H13.5V9Z" fill="#0762F7"/>
<path d="M12.5 2C7 2 2.5 6.5 2.5 12C2.5 17.5 7 22 12.5 22C18 22 22.5 17.5 22.5 12C22.5 6.5 18 2 12.5 2ZM13.5 17H11.5V11H13.5V17ZM13.5 9H11.5V7H13.5V9Z" fill="black" fill-opacity="0.25"/>
</g>
<defs>
<clipPath id="clip0_4576_1761">
<rect width="24" height="24" fill="white" transform="translate(0.5)"/>
</clipPath>
</defs>
</svg>
