<svg width="20" height="20" viewBox="0 0 20 20" fill="none" xmlns="http://www.w3.org/2000/svg">
<g clip-path="url(#clip0_13425_10422)">
<path d="M10.7999 2.5H9.13322V10.8333H10.7999V2.5ZM14.8249 4.30834L13.6416 5.49169C14.3165 6.03309 14.8609 6.71942 15.2346 7.49985C15.6082 8.28027 15.8014 9.13475 15.7999 10C15.7999 11.5471 15.1853 13.0308 14.0913 14.1248C12.9974 15.2188 11.5137 15.8333 9.96656 15.8333C8.41946 15.8333 6.93574 15.2188 5.84177 14.1248C4.74781 13.0308 4.13322 11.5471 4.13322 10C4.13422 9.13482 4.32764 8.2807 4.6995 7.49952C5.07136 6.71833 5.61232 6.02964 6.28321 5.48335L5.10823 4.30834C4.27999 5.00744 3.61445 5.87902 3.15816 6.86213C2.70187 7.84525 2.46583 8.91616 2.46655 10C2.46655 11.9891 3.25674 13.8968 4.66326 15.3033C6.06978 16.7098 7.97743 17.5 9.96656 17.5C11.9557 17.5 13.8633 16.7098 15.2698 15.3033C16.6764 13.8968 17.4666 11.9891 17.4666 10C17.4714 8.91876 17.2405 7.84948 16.7901 6.86653C16.3396 5.88358 15.6804 5.0106 14.8582 4.30834H14.8249Z" fill="#0762F7"/>
<path d="M10.7999 2.5H9.13322V10.8333H10.7999V2.5ZM14.8249 4.30834L13.6416 5.49169C14.3165 6.03309 14.8609 6.71942 15.2346 7.49985C15.6082 8.28027 15.8014 9.13475 15.7999 10C15.7999 11.5471 15.1853 13.0308 14.0913 14.1248C12.9974 15.2188 11.5137 15.8333 9.96656 15.8333C8.41946 15.8333 6.93574 15.2188 5.84177 14.1248C4.74781 13.0308 4.13322 11.5471 4.13322 10C4.13422 9.13482 4.32764 8.2807 4.6995 7.49952C5.07136 6.71833 5.61232 6.02964 6.28321 5.48335L5.10823 4.30834C4.27999 5.00744 3.61445 5.87902 3.15816 6.86213C2.70187 7.84525 2.46583 8.91616 2.46655 10C2.46655 11.9891 3.25674 13.8968 4.66326 15.3033C6.06978 16.7098 7.97743 17.5 9.96656 17.5C11.9557 17.5 13.8633 16.7098 15.2698 15.3033C16.6764 13.8968 17.4666 11.9891 17.4666 10C17.4714 8.91876 17.2405 7.84948 16.7901 6.86653C16.3396 5.88358 15.6804 5.0106 14.8582 4.30834H14.8249Z" fill="black" fill-opacity="0.25"/>
</g>
<defs>
<clipPath id="clip0_13425_10422">
<rect width="20" height="20" fill="white"/>
</clipPath>
</defs>
</svg>
