<svg width="25" height="24" viewBox="0 0 25 24" fill="none" xmlns="http://www.w3.org/2000/svg">
<path d="M12.3694 22.0001C11.0353 22.0086 9.714 21.7396 8.48944 21.2101C6.09271 20.186 4.18347 18.2768 3.15944 15.8801C2.62991 14.6555 2.36087 13.3342 2.36944 12.0001C2.3589 10.6625 2.62798 9.33752 3.15944 8.11005C4.18732 5.71827 6.09573 3.81344 8.48944 2.79005C9.714 2.26052 11.0353 1.99149 12.3694 2.00005C13.707 1.98951 15.032 2.2586 16.2594 2.79005C18.6476 3.81813 20.5514 5.72186 21.5794 8.11005C22.1109 9.33752 22.38 10.6625 22.3694 12.0001C22.378 13.3342 22.109 14.6555 21.5794 15.8801C20.5561 18.2738 18.6512 20.1822 16.2594 21.2101C15.032 21.7415 13.707 22.0106 12.3694 22.0001ZM16.3694 8.00005H19.2694C18.7931 7.17669 18.1812 6.43966 17.4594 5.82005C16.726 5.20638 15.8804 4.74108 14.9694 4.45005C15.269 5.00263 15.5328 5.57379 15.7594 6.16005C16.0005 6.76024 16.2042 7.37474 16.3694 8.00005ZM10.4694 8.00005H14.2694C14.0758 7.28684 13.8146 6.5937 13.4894 5.93005C13.1721 5.27168 12.7973 4.64258 12.3694 4.05005C11.9416 4.64258 11.5668 5.27168 11.2494 5.93005C10.9243 6.5937 10.6631 7.28684 10.4694 8.00005ZM4.61944 14.0001H8.01944C7.96944 13.6701 7.92944 13.3401 7.90944 13.0001C7.88944 12.6601 7.90944 12.3401 7.90944 12.0001C7.90944 11.6601 7.90944 11.3101 7.90944 11.0001C7.90944 10.6901 7.96944 10.3401 8.01944 10.0001H4.61944C4.53649 10.3294 4.47304 10.6633 4.42944 11.0001C4.35101 11.6644 4.35101 12.3357 4.42944 13.0001C4.47304 13.3368 4.53649 13.6707 4.61944 14.0001ZM9.76944 19.5501C9.46992 18.9975 9.20604 18.4263 8.97944 17.8401C8.75534 17.2387 8.56833 16.6243 8.41944 16.0001H5.41944C5.89348 16.8221 6.5058 17.5562 7.22944 18.1701C7.97473 18.7961 8.83861 19.2655 9.76944 19.5501ZM5.46944 8.00005H8.46944C8.61833 7.37585 8.80534 6.76137 9.02944 6.16005C9.2398 5.57502 9.48696 5.00388 9.76944 4.45005C8.85852 4.74108 8.01284 5.20638 7.27944 5.82005C6.5577 6.43966 5.94577 7.17669 5.46944 8.00005ZM12.3694 20.0001C12.7972 19.411 13.172 18.7852 13.4894 18.1301C13.8176 17.4469 14.0788 16.7336 14.2694 16.0001H10.4694C10.6631 16.7165 10.9243 17.4129 11.2494 18.0801C11.5643 18.7524 11.9391 19.3951 12.3694 20.0001ZM10.0194 14.0001H14.7194C14.7694 13.6701 14.8094 13.3401 14.8294 13.0001C14.8494 12.6601 14.8294 12.3401 14.8294 12.0001C14.8294 11.6601 14.8294 11.3101 14.8294 11.0001C14.8294 10.6901 14.7694 10.3401 14.7194 10.0001H10.0194C9.96944 10.3301 9.92944 10.6601 9.90944 11.0001C9.88944 11.3401 9.90944 11.6601 9.90944 12.0001C9.90944 12.3401 9.90944 12.6901 9.90944 13.0001C9.90944 13.3101 9.96944 13.6701 10.0194 14.0001ZM14.9694 19.5501C15.8826 19.2594 16.7289 18.7903 17.4594 18.1701C18.1831 17.5562 18.7954 16.8221 19.2694 16.0001H16.3694C16.2206 16.6243 16.0335 17.2387 15.8094 17.8401C15.5666 18.4276 15.286 18.9988 14.9694 19.5501ZM16.7194 14.0001H20.1194C20.2024 13.6707 20.2658 13.3368 20.3094 13.0001C20.3879 12.3357 20.3879 11.6644 20.3094 11.0001C20.2658 10.6633 20.2024 10.3294 20.1194 10.0001H16.7194C16.7194 10.3301 16.8094 10.6601 16.8294 11.0001C16.8494 11.3401 16.8294 11.6601 16.8294 12.0001C16.8294 12.3401 16.8294 12.6901 16.8294 13.0001C16.8294 13.3101 16.7694 13.6701 16.7194 14.0001Z" fill="white"/>
</svg>
