<svg width="25" height="24" viewBox="0 0 25 24" fill="none" xmlns="http://www.w3.org/2000/svg">
<path d="M7.94844 4.08L6.51844 2.65C4.11844 4.48 2.53844 7.3 2.39844 10.5H4.39844C4.54844 7.85 5.90844 5.53 7.94844 4.08ZM20.3384 10.5H22.3384C22.1884 7.3 20.6084 4.48 18.2184 2.65L16.7984 4.08C18.8184 5.53 20.1884 7.85 20.3384 10.5ZM18.3684 11C18.3684 7.93 16.7284 5.36 13.8684 4.68V4C13.8684 3.17 13.1984 2.5 12.3684 2.5C11.5384 2.5 10.8684 3.17 10.8684 4V4.68C7.99844 5.36 6.36844 7.92 6.36844 11V16L4.36844 18V19H20.3684V18L18.3684 16V11ZM12.3684 22C12.5084 22 12.6384 21.99 12.7684 21.96C13.4184 21.82 13.9484 21.38 14.2084 20.78C14.3084 20.54 14.3584 20.28 14.3584 20H10.3584C10.3684 21.1 11.2584 22 12.3684 22Z" fill="white"/>
</svg>
