<svg width="25" height="24" viewBox="0 0 25 24" fill="none" xmlns="http://www.w3.org/2000/svg">
<g clip-path="url(#clip0_12249_6148)">
<path d="M3.5 17V19H9.5V17H3.5ZM3.5 5V7H13.5V5H3.5ZM13.5 21V19H21.5V17H13.5V15H11.5V21H13.5ZM7.5 9V11H3.5V13H7.5V15H9.5V9H7.5ZM21.5 13V11H11.5V13H21.5ZM15.5 9H17.5V7H21.5V5H17.5V3H15.5V9Z" fill="#0762F7"/>
<path d="M3.5 17V19H9.5V17H3.5ZM3.5 5V7H13.5V5H3.5ZM13.5 21V19H21.5V17H13.5V15H11.5V21H13.5ZM7.5 9V11H3.5V13H7.5V15H9.5V9H7.5ZM21.5 13V11H11.5V13H21.5ZM15.5 9H17.5V7H21.5V5H17.5V3H15.5V9Z" fill="black" fill-opacity="0.25"/>
</g>
<defs>
<clipPath id="clip0_12249_6148">
<rect width="24" height="24" fill="white" transform="translate(0.5)"/>
</clipPath>
</defs>
</svg>
