<svg width="25" height="24" viewBox="0 0 25 24" fill="none" xmlns="http://www.w3.org/2000/svg">
<g clip-path="url(#clip0_11537_6114)">
<path d="M14.5 2H6.5C5.4 2 4.5 2.9 4.5 4V20C4.5 21.1 5.39 22 6.49 22H18.5C19.6 22 20.5 21.1 20.5 20V8L14.5 2ZM18.5 20H6.5V4H13.5V9H18.5V20Z" fill="#0762F7"/>
<path d="M14.5 2H6.5C5.4 2 4.5 2.9 4.5 4V20C4.5 21.1 5.39 22 6.49 22H18.5C19.6 22 20.5 21.1 20.5 20V8L14.5 2ZM18.5 20H6.5V4H13.5V9H18.5V20Z" fill="black" fill-opacity="0.25"/>
<path d="M7.5 15.44H8.59V13.7H10.64V11H7.5V15.44ZM9.6 12V12.74H8.59V12H9.6Z" fill="#0762F7"/>
<path d="M7.5 15.44H8.59V13.7H10.64V11H7.5V15.44ZM9.6 12V12.74H8.59V12H9.6Z" fill="black" fill-opacity="0.25"/>
<path d="M10.9299 11V15.44H13.4999L14.0699 14.98V11.45L13.4999 11H10.9299ZM13.0299 12V14.44H12.0099V12H13.0299Z" fill="#0762F7"/>
<path d="M10.9299 11V15.44H13.4999L14.0699 14.98V11.45L13.4999 11H10.9299ZM13.0299 12V14.44H12.0099V12H13.0299Z" fill="black" fill-opacity="0.25"/>
<path d="M17.5001 12V11H14.3601V15.44H15.4501V13.7H17.5001V12.74H15.4501V12H17.5001Z" fill="#0762F7"/>
<path d="M17.5001 12V11H14.3601V15.44H15.4501V13.7H17.5001V12.74H15.4501V12H17.5001Z" fill="black" fill-opacity="0.25"/>
</g>
<defs>
<clipPath id="clip0_11537_6114">
<rect width="24" height="24" fill="white" transform="translate(0.5)"/>
</clipPath>
</defs>
</svg>
