<svg width="20" height="20" viewBox="0 0 20 20" fill="none" xmlns="http://www.w3.org/2000/svg">
<path d="M15.8334 6.66667H15.0001V2.5H5.00008V6.66667H4.16675C2.78341 6.66667 1.66675 7.78333 1.66675 9.16667V14.1667H5.00008V17.5H15.0001V14.1667H18.3334V9.16667C18.3334 7.78333 17.2167 6.66667 15.8334 6.66667ZM6.66675 4.16667H13.3334V6.66667H6.66675V4.16667ZM13.3334 15.8333H6.66675V12.5H13.3334V15.8333ZM15.0001 12.5V10.8333H5.00008V12.5H3.33341V9.16667C3.33341 8.70833 3.70841 8.33333 4.16675 8.33333H15.8334C16.2917 8.33333 16.6667 8.70833 16.6667 9.16667V12.5H15.0001Z" fill="#0762F7"/>
<path d="M15.8334 6.66667H15.0001V2.5H5.00008V6.66667H4.16675C2.78341 6.66667 1.66675 7.78333 1.66675 9.16667V14.1667H5.00008V17.5H15.0001V14.1667H18.3334V9.16667C18.3334 7.78333 17.2167 6.66667 15.8334 6.66667ZM6.66675 4.16667H13.3334V6.66667H6.66675V4.16667ZM13.3334 15.8333H6.66675V12.5H13.3334V15.8333ZM15.0001 12.5V10.8333H5.00008V12.5H3.33341V9.16667C3.33341 8.70833 3.70841 8.33333 4.16675 8.33333H15.8334C16.2917 8.33333 16.6667 8.70833 16.6667 9.16667V12.5H15.0001Z" fill="black" fill-opacity="0.25"/>
<path d="M15.0001 10.4167C15.4603 10.4167 15.8334 10.0436 15.8334 9.58333C15.8334 9.1231 15.4603 8.75 15.0001 8.75C14.5398 8.75 14.1667 9.1231 14.1667 9.58333C14.1667 10.0436 14.5398 10.4167 15.0001 10.4167Z" fill="#0762F7"/>
<path d="M15.0001 10.4167C15.4603 10.4167 15.8334 10.0436 15.8334 9.58333C15.8334 9.1231 15.4603 8.75 15.0001 8.75C14.5398 8.75 14.1667 9.1231 14.1667 9.58333C14.1667 10.0436 14.5398 10.4167 15.0001 10.4167Z" fill="black" fill-opacity="0.25"/>
</svg>
