<svg width="20" height="20" viewBox="0 0 20 20" fill="none" xmlns="http://www.w3.org/2000/svg">
<g clip-path="url(#clip0_14226_10076)">
<path d="M15.8333 1.66666H4.16667C3.72464 1.66666 3.30071 1.84228 2.98815 2.15484C2.67559 2.4674 2.5 2.8913 2.5 3.33332V15C2.5 15.442 2.67559 15.8659 2.98815 16.1785C3.30071 16.4911 3.72464 16.6667 4.16667 16.6667H7.5L10 19.1667L12.5 16.6667H15.8333C16.2754 16.6667 16.6993 16.4911 17.0118 16.1785C17.3244 15.8659 17.5 15.442 17.5 15V3.33332C17.5 2.8913 17.3244 2.4674 17.0118 2.15484C16.6993 1.84228 16.2754 1.66666 15.8333 1.66666ZM15.8333 15H11.8083L11.3167 15.4917L10 16.7833L8.675 15.4583L8.19167 14.975H4.16667V3.30832H15.8333V15ZM9.16667 12.5H10.8333V14.1667H9.16667V12.5ZM10 5.83332C10.442 5.83332 10.866 6.00894 11.1785 6.3215C11.4911 6.63406 11.6667 7.05796 11.6667 7.49999C11.6667 9.16666 9.16667 8.95832 9.16667 11.6667H10.8333C10.8333 9.79166 13.3333 9.58332 13.3333 7.49999C13.3333 6.61593 12.9821 5.76811 12.357 5.14299C11.7319 4.51787 10.8841 4.16666 10 4.16666C9.11594 4.16666 8.2681 4.51787 7.64297 5.14299C7.01785 5.76811 6.66667 6.61593 6.66667 7.49999H8.33333C8.33333 7.05796 8.50893 6.63406 8.82149 6.3215C9.13405 6.00894 9.55797 5.83332 10 5.83332Z" fill="#0762F7"/>
<path d="M15.8333 1.66666H4.16667C3.72464 1.66666 3.30071 1.84228 2.98815 2.15484C2.67559 2.4674 2.5 2.8913 2.5 3.33332V15C2.5 15.442 2.67559 15.8659 2.98815 16.1785C3.30071 16.4911 3.72464 16.6667 4.16667 16.6667H7.5L10 19.1667L12.5 16.6667H15.8333C16.2754 16.6667 16.6993 16.4911 17.0118 16.1785C17.3244 15.8659 17.5 15.442 17.5 15V3.33332C17.5 2.8913 17.3244 2.4674 17.0118 2.15484C16.6993 1.84228 16.2754 1.66666 15.8333 1.66666ZM15.8333 15H11.8083L11.3167 15.4917L10 16.7833L8.675 15.4583L8.19167 14.975H4.16667V3.30832H15.8333V15ZM9.16667 12.5H10.8333V14.1667H9.16667V12.5ZM10 5.83332C10.442 5.83332 10.866 6.00894 11.1785 6.3215C11.4911 6.63406 11.6667 7.05796 11.6667 7.49999C11.6667 9.16666 9.16667 8.95832 9.16667 11.6667H10.8333C10.8333 9.79166 13.3333 9.58332 13.3333 7.49999C13.3333 6.61593 12.9821 5.76811 12.357 5.14299C11.7319 4.51787 10.8841 4.16666 10 4.16666C9.11594 4.16666 8.2681 4.51787 7.64297 5.14299C7.01785 5.76811 6.66667 6.61593 6.66667 7.49999H8.33333C8.33333 7.05796 8.50893 6.63406 8.82149 6.3215C9.13405 6.00894 9.55797 5.83332 10 5.83332Z" fill="black" fill-opacity="0.25"/>
</g>
<defs>
<clipPath id="clip0_14226_10076">
<rect width="20" height="20" fill="white"/>
</clipPath>
</defs>
</svg>
