<svg width="24" height="24" viewBox="0 0 24 24" fill="none" xmlns="http://www.w3.org/2000/svg">
<g clip-path="url(#clip0_5308_43892)">
<path d="M3 10C3 10.5523 3.44772 11 4 11H10C10.5523 11 11 10.5523 11 10V4C11 3.44772 10.5523 3 10 3H4C3.44772 3 3 3.44772 3 4V10ZM5 5.2C5 5.08954 5.08954 5 5.2 5H8.8C8.91046 5 9 5.08954 9 5.2V8.8C9 8.91046 8.91046 9 8.8 9H5.2C5.08954 9 5 8.91046 5 8.8V5.2Z" fill="#7A869A"/>
<path d="M3 10C3 10.5523 3.44772 11 4 11H10C10.5523 11 11 10.5523 11 10V4C11 3.44772 10.5523 3 10 3H4C3.44772 3 3 3.44772 3 4V10ZM5 5.2C5 5.08954 5.08954 5 5.2 5H8.8C8.91046 5 9 5.08954 9 5.2V8.8C9 8.91046 8.91046 9 8.8 9H5.2C5.08954 9 5 8.91046 5 8.8V5.2Z" fill="black" fill-opacity="0.25"/>
<path d="M3 20C3 20.5523 3.44772 21 4 21H10C10.5523 21 11 20.5523 11 20V14C11 13.4477 10.5523 13 10 13H4C3.44772 13 3 13.4477 3 14V20ZM5 15.2C5 15.0895 5.08954 15 5.2 15H8.8C8.91046 15 9 15.0895 9 15.2V18.8C9 18.9105 8.91046 19 8.8 19H5.2C5.08954 19 5 18.9105 5 18.8V15.2Z" fill="#7A869A"/>
<path d="M3 20C3 20.5523 3.44772 21 4 21H10C10.5523 21 11 20.5523 11 20V14C11 13.4477 10.5523 13 10 13H4C3.44772 13 3 13.4477 3 14V20ZM5 15.2C5 15.0895 5.08954 15 5.2 15H8.8C8.91046 15 9 15.0895 9 15.2V18.8C9 18.9105 8.91046 19 8.8 19H5.2C5.08954 19 5 18.9105 5 18.8V15.2Z" fill="black" fill-opacity="0.25"/>
<path d="M14 3C13.4477 3 13 3.44772 13 4V10C13 10.5523 13.4477 11 14 11H20C20.5523 11 21 10.5523 21 10V4C21 3.44772 20.5523 3 20 3H14ZM19 8.8C19 8.91046 18.9105 9 18.8 9H15.2C15.0895 9 15 8.91046 15 8.8V5.2C15 5.08954 15.0895 5 15.2 5H18.8C18.9105 5 19 5.08954 19 5.2V8.8Z" fill="#7A869A"/>
<path d="M14 3C13.4477 3 13 3.44772 13 4V10C13 10.5523 13.4477 11 14 11H20C20.5523 11 21 10.5523 21 10V4C21 3.44772 20.5523 3 20 3H14ZM19 8.8C19 8.91046 18.9105 9 18.8 9H15.2C15.0895 9 15 8.91046 15 8.8V5.2C15 5.08954 15.0895 5 15.2 5H18.8C18.9105 5 19 5.08954 19 5.2V8.8Z" fill="black" fill-opacity="0.25"/>
<path d="M21 19H19V21H21V19Z" fill="#7A869A"/>
<path d="M21 19H19V21H21V19Z" fill="black" fill-opacity="0.25"/>
<path d="M15 13H13V15H15V13Z" fill="#7A869A"/>
<path d="M15 13H13V15H15V13Z" fill="black" fill-opacity="0.25"/>
<path d="M17 15H15V17H17V15Z" fill="#7A869A"/>
<path d="M17 15H15V17H17V15Z" fill="black" fill-opacity="0.25"/>
<path d="M15 17H13V19H15V17Z" fill="#7A869A"/>
<path d="M15 17H13V19H15V17Z" fill="black" fill-opacity="0.25"/>
<path d="M17 19H15V21H17V19Z" fill="#7A869A"/>
<path d="M17 19H15V21H17V19Z" fill="black" fill-opacity="0.25"/>
<path d="M19 17H17V19H19V17Z" fill="#7A869A"/>
<path d="M19 17H17V19H19V17Z" fill="black" fill-opacity="0.25"/>
<path d="M19 13H17V15H19V13Z" fill="#7A869A"/>
<path d="M19 13H17V15H19V13Z" fill="black" fill-opacity="0.25"/>
<path d="M21 15H19V17H21V15Z" fill="#7A869A"/>
<path d="M21 15H19V17H21V15Z" fill="black" fill-opacity="0.25"/>
</g>
<defs>
<clipPath id="clip0_5308_43892">
<rect width="24" height="24" fill="white"/>
</clipPath>
</defs>
</svg>
