<svg width="20" height="20" viewBox="0 0 20 20" fill="none" xmlns="http://www.w3.org/2000/svg">
<path d="M16.3671 10.8166C16.4014 10.55 16.4271 10.2833 16.4271 9.99996C16.4271 9.71663 16.4014 9.44996 16.3671 9.18329L18.1748 7.80829C18.3375 7.68329 18.3804 7.45829 18.2776 7.27496L16.5641 4.39163C16.487 4.25829 16.3414 4.18329 16.1872 4.18329C16.1358 4.18329 16.0844 4.19163 16.0415 4.20829L13.9083 5.04163C13.4628 4.70829 12.9831 4.43329 12.4605 4.22496L12.1349 2.01663C12.1092 1.81663 11.9293 1.66663 11.7152 1.66663H8.28831C8.07413 1.66663 7.89422 1.81663 7.86852 2.01663L7.54297 4.22496C7.02037 4.43329 6.54062 4.71663 6.09513 5.04163L3.96192 4.20829C3.91051 4.19163 3.85911 4.18329 3.80771 4.18329C3.66207 4.18329 3.51643 4.25829 3.43932 4.39163L1.7259 7.27496C1.61453 7.45829 1.66593 7.68329 1.82871 7.80829L3.63637 9.18329C3.6021 9.44996 3.5764 9.72496 3.5764 9.99996C3.5764 10.275 3.6021 10.55 3.63637 10.8166L1.82871 12.1916C1.66593 12.3166 1.6231 12.5416 1.7259 12.725L3.43932 15.6083C3.51643 15.7416 3.66207 15.8166 3.81628 15.8166C3.86768 15.8166 3.91908 15.8083 3.96192 15.7916L6.09513 14.9583C6.54062 15.2916 7.02037 15.5666 7.54297 15.775L7.86852 17.9833C7.89422 18.1833 8.07413 18.3333 8.28831 18.3333H11.7152C11.9293 18.3333 12.1092 18.1833 12.1349 17.9833L12.4605 15.775C12.9831 15.5666 13.4628 15.2833 13.9083 14.9583L16.0415 15.7916C16.0929 15.8083 16.1443 15.8166 16.1957 15.8166C16.3414 15.8166 16.487 15.7416 16.5641 15.6083L18.2776 12.725C18.3804 12.5416 18.3375 12.3166 18.1748 12.1916L16.3671 10.8166ZM14.6708 9.39163C14.7051 9.64996 14.7136 9.82496 14.7136 9.99996C14.7136 10.175 14.6965 10.3583 14.6708 10.6083L14.5509 11.55L15.3133 12.1333L16.2386 12.8333L15.6389 13.8416L14.5509 13.4166L13.6599 13.0666L12.8888 13.6333C12.5205 13.9 12.1692 14.1 11.818 14.2416L10.9098 14.6L10.7728 15.5416L10.6014 16.6666H9.40203L9.23926 15.5416L9.10218 14.6L8.19407 14.2416C7.82568 14.0916 7.483 13.9 7.14031 13.65L6.36071 13.0666L5.45259 13.425L4.36457 13.85L3.76487 12.8416L4.69012 12.1416L5.45259 11.5583L5.33265 10.6166C5.30695 10.3583 5.28982 10.1666 5.28982 9.99996C5.28982 9.83329 5.30695 9.64163 5.33265 9.39163L5.45259 8.44996L4.69012 7.86663L3.76487 7.16663L4.36457 6.15829L5.45259 6.58329L6.34357 6.93329L7.11461 6.36663C7.483 6.09996 7.83425 5.89996 8.1855 5.75829L9.09362 5.39996L9.23069 4.45829L9.40203 3.33329H10.5929L10.7556 4.45829L10.8927 5.39996L11.8008 5.75829C12.1692 5.90829 12.5119 6.09996 12.8546 6.34996L13.6342 6.93329L14.5423 6.57496L15.6303 6.14996L16.23 7.15829L15.3133 7.86663L14.5509 8.44996L14.6708 9.39163ZM10.0017 6.66663C8.1084 6.66663 6.57488 8.15829 6.57488 9.99996C6.57488 11.8416 8.1084 13.3333 10.0017 13.3333C11.8951 13.3333 13.4286 11.8416 13.4286 9.99996C13.4286 8.15829 11.8951 6.66663 10.0017 6.66663ZM10.0017 11.6666C9.05935 11.6666 8.28831 10.9166 8.28831 9.99996C8.28831 9.08329 9.05935 8.33329 10.0017 8.33329C10.9441 8.33329 11.7152 9.08329 11.7152 9.99996C11.7152 10.9166 10.9441 11.6666 10.0017 11.6666Z" fill="#7A869A"/>
</svg>
