<svg width="17" height="22" viewBox="0 0 17 22" fill="none" xmlns="http://www.w3.org/2000/svg">
<path d="M8.98999 3V0L4.98999 4L8.98999 8V5C12.3 5 14.99 7.69 14.99 11C14.99 12.01 14.74 12.97 14.29 13.8L15.75 15.26C16.53 14.03 16.99 12.57 16.99 11C16.99 6.58 13.41 3 8.98999 3ZM8.98999 17C5.67999 17 2.98999 14.31 2.98999 11C2.98999 9.99 3.23999 9.03 3.68999 8.2L2.22999 6.74C1.44999 7.97 0.98999 9.43 0.98999 11C0.98999 15.42 4.56999 19 8.98999 19V22L12.99 18L8.98999 14V17Z" fill="#064bba"/>
</svg>
