<svg width="25" height="24" viewBox="0 0 25 24" fill="none" xmlns="http://www.w3.org/2000/svg">
<g clip-path="url(#clip0_11537_6122)">
<path d="M14.51 9.98C14.51 11.78 14.51 13.55 14.51 15.33C14.59 15.33 14.66 15.33 14.73 15.33C15.42 15.34 16.12 15.32 16.81 15.37C17.63 15.43 18.35 16.2 18.48 17.01C18.64 18.02 18 18.93 17.1 19.22C16.63 19.37 16.16 19.56 15.72 19.78C15.07 20.11 14.56 20.62 14.11 21.19C13.73 21.67 13.24 21.96 12.62 22C11.92 22.04 11.35 21.75 10.92 21.2C10.48 20.63 9.95997 20.14 9.31997 19.81C8.92997 19.6 8.49997 19.44 8.06997 19.3C7.22997 19.03 6.65997 18.51 6.52997 17.62C6.34997 16.39 7.27997 15.35 8.54997 15.34C9.12997 15.33 9.70997 15.34 10.29 15.34C10.35 15.34 10.42 15.34 10.49 15.34C10.49 13.56 10.49 11.79 10.49 10C10.27 10 10.06 10 9.84997 10C9.57997 10 9.31997 9.99 9.04997 10.01C8.43997 10.06 7.96997 10.5 7.85997 11.09C7.74997 11.67 8.02997 12.26 8.57997 12.52C8.75997 12.6 8.95997 12.64 9.15997 12.66C9.56997 12.71 9.84997 12.99 9.82997 13.37C9.80997 13.74 9.50997 14 9.10997 14C7.42997 13.98 6.18997 12.38 6.57997 10.74C6.59997 10.61 6.58997 10.52 6.49997 10.42C5.90997 9.74 5.70997 8.96 5.89997 8.08C5.92997 7.94 5.90997 7.84 5.80997 7.73C5.16997 6.96 4.98997 6.09 5.30997 5.14C5.63997 4.16 6.34997 3.58 7.35997 3.37C7.54997 3.33 7.74997 3.32 7.93997 3.32C8.77997 3.32 9.60997 3.32 10.45 3.32C10.57 3.32 10.63 3.29 10.68 3.18C11.05 2.41 11.66 2 12.51 2C13.35 2 13.96 2.42 14.32 3.18C14.37 3.29 14.43 3.32 14.55 3.32C15.41 3.31 16.27 3.31 17.13 3.32C18.43 3.33 19.48 4.15 19.77 5.41C19.97 6.28 19.76 7.07 19.18 7.75C19.09 7.85 19.07 7.94 19.1 8.07C19.3 8.96 19.1 9.75 18.5 10.44C18.42 10.53 18.4 10.62 18.43 10.73C18.76 12.21 17.89 13.6 16.41 13.95C16.23 13.99 16.03 14.01 15.85 14.01C15.48 14.01 15.19 13.73 15.18 13.37C15.17 13.01 15.43 12.71 15.81 12.68C16.24 12.65 16.61 12.52 16.88 12.17C17.49 11.41 17.1 10.23 16.14 10.06C15.61 9.96 15.06 10 14.51 9.98ZM9.48997 16.67C9.14997 16.67 8.80997 16.66 8.47997 16.67C8.17997 16.68 7.93997 16.88 7.85997 17.17C7.78997 17.44 7.89997 17.73 8.15997 17.89C8.27997 17.96 8.41997 18.01 8.54997 18.05C9.44997 18.3 10.26 18.72 10.96 19.34C11.33 19.67 11.66 20.04 11.99 20.41C12.29 20.74 12.66 20.77 12.98 20.46C13.08 20.36 13.16 20.26 13.25 20.15C13.7 19.6 14.23 19.14 14.83 18.76C15.36 18.43 15.93 18.18 16.53 18C16.7 17.95 16.88 17.85 17.02 17.73C17.21 17.55 17.22 17.3 17.11 17.07C16.99 16.82 16.78 16.68 16.5 16.68C15.84 16.67 15.18 16.68 14.53 16.67C14.42 16.67 14.38 16.72 14.33 16.81C13.97 17.58 13.35 18 12.51 18C11.67 18 11.05 17.59 10.68 16.81C10.63 16.7 10.57 16.66 10.45 16.67C10.13 16.67 9.80997 16.67 9.48997 16.67ZM14.52 4.67C14.52 5.12 14.52 5.55 14.52 5.99C14.6 5.99 14.66 5.99 14.73 5.99C15.32 5.99 15.9 5.99 16.49 5.99C17.1 5.99 17.66 6.17 18.14 6.55C18.19 6.59 18.25 6.63 18.32 6.68C18.46 6.43 18.53 6.18 18.51 5.91C18.44 5.16 17.9 4.66 17.13 4.66C16.31 4.65 15.5 4.66 14.68 4.66C14.62 4.66 14.57 4.67 14.52 4.67ZM6.70997 6.67C6.74997 6.64 6.79997 6.62 6.82997 6.59C7.35997 6.15 7.96997 5.98 8.63997 5.99C9.18997 6 9.73997 5.99 10.29 5.99C10.35 5.99 10.42 5.98 10.48 5.98C10.48 5.53 10.48 5.1 10.48 4.67C10.44 4.67 10.41 4.66 10.38 4.66C9.52997 4.66 8.66997 4.65 7.81997 4.67C7.59997 4.68 7.34997 4.76 7.13997 4.87C6.51997 5.2 6.30997 6.1 6.70997 6.67ZM17.64 9.35C17.67 9.29 17.7 9.26 17.71 9.22C18.13 8.34 17.49 7.35 16.48 7.33C15.86 7.32 15.24 7.33 14.61 7.33C14.58 7.33 14.54 7.34 14.5 7.34C14.5 7.78 14.5 8.21 14.5 8.65C14.94 8.65 15.36 8.65 15.79 8.65C16.29 8.65 16.76 8.77 17.19 9.04C17.35 9.13 17.48 9.24 17.64 9.35ZM7.37997 9.35C7.45997 9.29 7.52997 9.23 7.59997 9.18C7.92997 8.92 8.30997 8.75 8.72997 8.71C9.09997 8.66 9.47997 8.67 9.84997 8.66C10.06 8.65 10.27 8.66 10.49 8.66C10.49 8.21 10.49 7.78 10.49 7.34C10.44 7.34 10.4 7.33 10.36 7.33C9.74997 7.33 9.13997 7.33 8.52997 7.33C8.41997 7.33 8.31997 7.34 8.20997 7.37C7.32997 7.56 6.87997 8.61 7.37997 9.35ZM11.83 14.01C11.83 14.65 11.83 15.27 11.83 15.89C11.83 15.95 11.82 16.02 11.84 16.07C11.9 16.21 11.95 16.37 12.05 16.47C12.24 16.68 12.49 16.72 12.75 16.61C13.02 16.5 13.16 16.28 13.17 15.98C13.18 15.44 13.17 14.9 13.17 14.36C13.17 14.24 13.17 14.13 13.17 14C12.72 14.01 12.29 14.01 11.83 14.01ZM13.16 6.01C12.72 6.01 12.28 6.01 11.85 6.01C11.85 6.46 11.85 6.89 11.85 7.32C12.3 7.32 12.72 7.32 13.16 7.32C13.16 6.87 13.16 6.44 13.16 6.01ZM11.85 8.67C11.85 9.12 11.85 9.55 11.85 9.98C12.3 9.98 12.73 9.98 13.16 9.98C13.16 9.54 13.16 9.11 13.16 8.67C12.72 8.67 12.29 8.67 11.85 8.67ZM13.16 11.34C12.71 11.34 12.28 11.34 11.85 11.34C11.85 11.78 11.85 12.21 11.85 12.65C12.3 12.65 12.73 12.65 13.16 12.65C13.16 12.21 13.16 11.78 13.16 11.34ZM11.84 4.65C12.29 4.65 12.72 4.65 13.16 4.65C13.16 4.4 13.18 4.15 13.16 3.91C13.13 3.58 12.83 3.33 12.5 3.33C12.17 3.33 11.87 3.58 11.84 3.91C11.82 4.15 11.84 4.39 11.84 4.65Z" fill="#0762F7"/>
<path d="M14.51 9.98C14.51 11.78 14.51 13.55 14.51 15.33C14.59 15.33 14.66 15.33 14.73 15.33C15.42 15.34 16.12 15.32 16.81 15.37C17.63 15.43 18.35 16.2 18.48 17.01C18.64 18.02 18 18.93 17.1 19.22C16.63 19.37 16.16 19.56 15.72 19.78C15.07 20.11 14.56 20.62 14.11 21.19C13.73 21.67 13.24 21.96 12.62 22C11.92 22.04 11.35 21.75 10.92 21.2C10.48 20.63 9.95997 20.14 9.31997 19.81C8.92997 19.6 8.49997 19.44 8.06997 19.3C7.22997 19.03 6.65997 18.51 6.52997 17.62C6.34997 16.39 7.27997 15.35 8.54997 15.34C9.12997 15.33 9.70997 15.34 10.29 15.34C10.35 15.34 10.42 15.34 10.49 15.34C10.49 13.56 10.49 11.79 10.49 10C10.27 10 10.06 10 9.84997 10C9.57997 10 9.31997 9.99 9.04997 10.01C8.43997 10.06 7.96997 10.5 7.85997 11.09C7.74997 11.67 8.02997 12.26 8.57997 12.52C8.75997 12.6 8.95997 12.64 9.15997 12.66C9.56997 12.71 9.84997 12.99 9.82997 13.37C9.80997 13.74 9.50997 14 9.10997 14C7.42997 13.98 6.18997 12.38 6.57997 10.74C6.59997 10.61 6.58997 10.52 6.49997 10.42C5.90997 9.74 5.70997 8.96 5.89997 8.08C5.92997 7.94 5.90997 7.84 5.80997 7.73C5.16997 6.96 4.98997 6.09 5.30997 5.14C5.63997 4.16 6.34997 3.58 7.35997 3.37C7.54997 3.33 7.74997 3.32 7.93997 3.32C8.77997 3.32 9.60997 3.32 10.45 3.32C10.57 3.32 10.63 3.29 10.68 3.18C11.05 2.41 11.66 2 12.51 2C13.35 2 13.96 2.42 14.32 3.18C14.37 3.29 14.43 3.32 14.55 3.32C15.41 3.31 16.27 3.31 17.13 3.32C18.43 3.33 19.48 4.15 19.77 5.41C19.97 6.28 19.76 7.07 19.18 7.75C19.09 7.85 19.07 7.94 19.1 8.07C19.3 8.96 19.1 9.75 18.5 10.44C18.42 10.53 18.4 10.62 18.43 10.73C18.76 12.21 17.89 13.6 16.41 13.95C16.23 13.99 16.03 14.01 15.85 14.01C15.48 14.01 15.19 13.73 15.18 13.37C15.17 13.01 15.43 12.71 15.81 12.68C16.24 12.65 16.61 12.52 16.88 12.17C17.49 11.41 17.1 10.23 16.14 10.06C15.61 9.96 15.06 10 14.51 9.98ZM9.48997 16.67C9.14997 16.67 8.80997 16.66 8.47997 16.67C8.17997 16.68 7.93997 16.88 7.85997 17.17C7.78997 17.44 7.89997 17.73 8.15997 17.89C8.27997 17.96 8.41997 18.01 8.54997 18.05C9.44997 18.3 10.26 18.72 10.96 19.34C11.33 19.67 11.66 20.04 11.99 20.41C12.29 20.74 12.66 20.77 12.98 20.46C13.08 20.36 13.16 20.26 13.25 20.15C13.7 19.6 14.23 19.14 14.83 18.76C15.36 18.43 15.93 18.18 16.53 18C16.7 17.95 16.88 17.85 17.02 17.73C17.21 17.55 17.22 17.3 17.11 17.07C16.99 16.82 16.78 16.68 16.5 16.68C15.84 16.67 15.18 16.68 14.53 16.67C14.42 16.67 14.38 16.72 14.33 16.81C13.97 17.58 13.35 18 12.51 18C11.67 18 11.05 17.59 10.68 16.81C10.63 16.7 10.57 16.66 10.45 16.67C10.13 16.67 9.80997 16.67 9.48997 16.67ZM14.52 4.67C14.52 5.12 14.52 5.55 14.52 5.99C14.6 5.99 14.66 5.99 14.73 5.99C15.32 5.99 15.9 5.99 16.49 5.99C17.1 5.99 17.66 6.17 18.14 6.55C18.19 6.59 18.25 6.63 18.32 6.68C18.46 6.43 18.53 6.18 18.51 5.91C18.44 5.16 17.9 4.66 17.13 4.66C16.31 4.65 15.5 4.66 14.68 4.66C14.62 4.66 14.57 4.67 14.52 4.67ZM6.70997 6.67C6.74997 6.64 6.79997 6.62 6.82997 6.59C7.35997 6.15 7.96997 5.98 8.63997 5.99C9.18997 6 9.73997 5.99 10.29 5.99C10.35 5.99 10.42 5.98 10.48 5.98C10.48 5.53 10.48 5.1 10.48 4.67C10.44 4.67 10.41 4.66 10.38 4.66C9.52997 4.66 8.66997 4.65 7.81997 4.67C7.59997 4.68 7.34997 4.76 7.13997 4.87C6.51997 5.2 6.30997 6.1 6.70997 6.67ZM17.64 9.35C17.67 9.29 17.7 9.26 17.71 9.22C18.13 8.34 17.49 7.35 16.48 7.33C15.86 7.32 15.24 7.33 14.61 7.33C14.58 7.33 14.54 7.34 14.5 7.34C14.5 7.78 14.5 8.21 14.5 8.65C14.94 8.65 15.36 8.65 15.79 8.65C16.29 8.65 16.76 8.77 17.19 9.04C17.35 9.13 17.48 9.24 17.64 9.35ZM7.37997 9.35C7.45997 9.29 7.52997 9.23 7.59997 9.18C7.92997 8.92 8.30997 8.75 8.72997 8.71C9.09997 8.66 9.47997 8.67 9.84997 8.66C10.06 8.65 10.27 8.66 10.49 8.66C10.49 8.21 10.49 7.78 10.49 7.34C10.44 7.34 10.4 7.33 10.36 7.33C9.74997 7.33 9.13997 7.33 8.52997 7.33C8.41997 7.33 8.31997 7.34 8.20997 7.37C7.32997 7.56 6.87997 8.61 7.37997 9.35ZM11.83 14.01C11.83 14.65 11.83 15.27 11.83 15.89C11.83 15.95 11.82 16.02 11.84 16.07C11.9 16.21 11.95 16.37 12.05 16.47C12.24 16.68 12.49 16.72 12.75 16.61C13.02 16.5 13.16 16.28 13.17 15.98C13.18 15.44 13.17 14.9 13.17 14.36C13.17 14.24 13.17 14.13 13.17 14C12.72 14.01 12.29 14.01 11.83 14.01ZM13.16 6.01C12.72 6.01 12.28 6.01 11.85 6.01C11.85 6.46 11.85 6.89 11.85 7.32C12.3 7.32 12.72 7.32 13.16 7.32C13.16 6.87 13.16 6.44 13.16 6.01ZM11.85 8.67C11.85 9.12 11.85 9.55 11.85 9.98C12.3 9.98 12.73 9.98 13.16 9.98C13.16 9.54 13.16 9.11 13.16 8.67C12.72 8.67 12.29 8.67 11.85 8.67ZM13.16 11.34C12.71 11.34 12.28 11.34 11.85 11.34C11.85 11.78 11.85 12.21 11.85 12.65C12.3 12.65 12.73 12.65 13.16 12.65C13.16 12.21 13.16 11.78 13.16 11.34ZM11.84 4.65C12.29 4.65 12.72 4.65 13.16 4.65C13.16 4.4 13.18 4.15 13.16 3.91C13.13 3.58 12.83 3.33 12.5 3.33C12.17 3.33 11.87 3.58 11.84 3.91C11.82 4.15 11.84 4.39 11.84 4.65Z" fill="black" fill-opacity="0.25"/>
</g>
<defs>
<clipPath id="clip0_11537_6122">
<rect width="24" height="24" fill="white" transform="translate(0.5)"/>
</clipPath>
</defs>
</svg>
