<?xml version="1.0" standalone="yes"?>
<svg xmlns="http://www.w3.org/2000/svg" width="855" height="685">
<path style="fill:#010101; stroke:none;" d="M0 0L0 685L79 685L79 684C38.7796 683.17 2.76585 644.37 1.03935 605C-0.98389 558.863 1 512.187 1 466L1 190L1 111C1 81.9327 0.946827 53.8175 22.0903 31C51.1555 -0.366455 86.5283 1 126 1L230 1L279 1C285.078 1 294.455 -0.744568 300 2.02777C307.898 5.97687 314.799 15.7987 321 22L365 66C371.094 72.0942 378.792 83.3704 387 86.3966C396.762 89.996 412.609 87 423 87L505 87L692 87C721.321 87 755.215 82.2966 784 87.8048C818.216 94.3525 853.233 125.057 854 162L855 162L855 0L0 0z"/>
<path style="fill:#ffa101; stroke:none;" d="M1 166L2 166C2.3372 125.267 39.0464 93.506 77 87.5903C109.825 82.4739 146.758 87 180 87L386 87C370.696 65.275 346.805 46.8051 328 28C320.094 20.0944 311.038 7.047 301 2.02777C295.455 -0.744568 286.078 1 280 1L231 1L119 1C82.7484 1 48.4198 0.596191 22.1736 30C-9.4545 65.4332 1 122.218 1 166z"/>
<path style="fill:#ffcb29; stroke:none;" d="M71 2L72 3L71 2M19 33L20 34L19 33M16 37L17 38L16 37z"/>
<path style="fill:#ff7f01; stroke:none;" d="M14 40L15 41L14 40M11 45L12 46L11 45M8 51L9 52L8 51z"/>
<path style="fill:#ffcb29; stroke:none;" d="M3 65L4 66L3 65z"/>
<path style="fill:#ffc927; stroke:none;" d="M1 76L2 77L1 76M77 87L77 88L86 88L77 87z"/>
<path style="fill:#ffcb29; stroke:none;" d="M8 635L10 635L9 637L11 637L10 639L12 639L11 641C22.8339 652.119 32.6718 675.262 52 676C60.4701 686.825 84.1745 684.005 96 684L218 684L668 684L744 684C756.161 684 769.009 685.684 781.001 683.998C792.341 682.405 811.485 678.276 818 668C828.164 666.701 835.337 652.844 842 646L841 644L844 638L847 637L852.667 620L855 594L855 308L854 182L852.833 157L850 141C846.684 141 846.251 135.717 844.667 133C839.45 124.057 833.493 116.181 826 109C810.018 93.6839 789.144 89.0557 768 87C749.076 85.1601 729.027 87 710 87L593 87L236 87L123 87C81.6409 87 40.678 87.1741 15.3333 126C-9.17381 163.543 6.08798 212.952 2 255C-1.50741 291.076 1 328.649 1 365L1 566C1 582.363 0.312856 598.836 2.33333 615C3.13294 621.397 8.64593 629.187 8 635z"/>
<path style="fill:#ffc927; stroke:none;" d="M770 87L770 88L795 91C787.936 86.7405 778.004 87 770 87z"/>
<path style="fill:#ffa101; stroke:none;" d="M782 87L783 88L782 87z"/>
<path style="fill:#ffc927; stroke:none;" d="M71 88L71 89L74 89L71 88z"/>
<path style="fill:#ffa101; stroke:none;" d="M787 88L788 89L787 88z"/>
<path style="fill:#ffc927; stroke:none;" d="M66.6667 89.3333L67.3333 89.6667L66.6667 89.3333M63 90L64 91L63 90M59.6667 91.3333L60.3333 91.6667L59.6667 91.3333M795 91L795 92L798 92L795 91M57 92L58 93L57 92M798 92L798 93L803 94L803 93L798 92M54.6667 93.3333L55.3333 93.6667L54.6667 93.3333M52 94L53 95L52 94M803 94L803 95L811 98L811 97L803 94M50 95L51 96L50 95M48 96L49 97L48 96M46 97L47 98L46 97M44 98L45 99L44 98M811.667 98.3333L812.333 98.6667L811.667 98.3333M42.6667 99.3333L43.3333 99.6667L42.6667 99.3333M813 99L816 101L816 100L813 99z"/>
<path style="fill:#ffa101; stroke:none;" d="M814 99L815 100L814 99z"/>
<path style="fill:#ffc927; stroke:none;" d="M41 100L42 101L41 100M39 101L40 102L39 101M816 101L819 103L816 101M38 102L39 103L38 102M36 103L37 104L36 103M819 103L823 106L823 105L819 103z"/>
<path style="fill:#ffa101; stroke:none;" d="M820 103L821 104L820 103z"/>
<path style="fill:#ffc927; stroke:none;" d="M35 104L36 105L35 104M34 105L35 106L34 105M33 106L34 107L33 106M823 106L824 107L823 106M31 107L32 108L31 107M824 107L835 118L824 107z"/>
<path style="fill:#ffa101; stroke:none;" d="M825 107L826 108L825 107z"/>
<path style="fill:#ffc927; stroke:none;" d="M30 108L31 109L30 108z"/>
<path style="fill:#ffa101; stroke:none;" d="M826 108L827 109L826 108z"/>
<path style="fill:#ffc927; stroke:none;" d="M29 109L30 110L29 109M28 110L29 111L28 110M27 111L28 112L27 111M26 112L27 113L26 112z"/>
<path style="fill:#ffa101; stroke:none;" d="M830 112L831 113L830 112z"/>
<path style="fill:#ffc927; stroke:none;" d="M25 113L26 114L25 113M24 114L25 115L24 114M23 115L24 116L23 115M22 116L23 117L22 116z"/>
<path style="fill:#ffa101; stroke:none;" d="M834 116L835 117L834 116z"/>
<path style="fill:#ffc927; stroke:none;" d="M21 117L22 118L21 117M835 118L844 133L845 133L835 118M20 119L21 120L20 119M19 120L20 121L19 120M18 121L19 122L18 121M17.3333 122.667L17.6667 123.333L17.3333 122.667M16 124L17 125L16 124M15 125L16 126L15 125M14 127L15 128L14 127z"/>
<path style="fill:#ffa101; stroke:none;" d="M842 127L843 128L842 127z"/>
<path style="fill:#ffc927; stroke:none;" d="M13 129L14 130L13 129M12.3333 130.667L12.6667 131.333L12.3333 130.667M11 132L12 133L11 132M845.333 133.667L845.667 134.333L845.333 133.667M10 134L11 135L10 134M846.333 135.667L846.667 136.333L846.333 135.667M9 136L10 137L9 136M847 137L848 142L849 142L847 137M8.33333 138.667L8.66667 139.333L8.33333 138.667M7 141L8 142L7 141M849 142L853 162L854 162L849 142M6.33333 143.667L6.66667 144.333L6.33333 143.667M5.33333 146.667L5.66667 147.333L5.33333 146.667M4.33333 149.667L4.66667 150.333L4.33333 149.667z"/>
<path style="fill:#ffa101; stroke:none;" d="M852 151L853 152L852 151z"/>
<path style="fill:#ffc927; stroke:none;" d="M3 153L3 156L4 156L3 153z"/>
<path style="fill:#ffa101; stroke:none;" d="M853 155L854 156L853 155z"/>
<path style="fill:#ffc927; stroke:none;" d="M2 158L2 162L3 162L2 158z"/>
<path style="fill:#ffa101; stroke:none;" d="M854 162L855 163L854 162z"/>
<path style="fill:#ffc927; stroke:none;" d="M854 163L854 258L855 258L855 192L854 163M1 166L1 258L2 258L2 194L1 166M854 604L855 605L854 604M1.33333 608.667L1.66667 609.333L1.33333 608.667z"/>
<path style="fill:#ffa101; stroke:none;" d="M854 609L855 610L854 609z"/>
<path style="fill:#ffc927; stroke:none;" d="M853 610L854 611L853 610z"/>
<path style="fill:#010101; stroke:none;" d="M854 610C852.367 647.46 814.126 683.234 777 684L777 685L855 685L855 633L854 610z"/>
<path style="fill:#ffc927; stroke:none;" d="M2.33333 613.667L2.66667 614.333L2.33333 613.667M853 613L854 614L853 613M852 617L853 618L852 617M3 619L4 620L3 619M851 622L852 623L851 622M4 623L5 624L4 623M850.333 625.667L850.667 626.333L850.333 625.667M6 629L7 630L6 629M7 631L8 632L7 631M8 633L9 634L8 633M9 635L10 636L9 635M846 635L847 636L846 635M10 637L11 638L10 637M845 637L844 639L846 639L845 637M11 639L12 640L11 639M12 641L13 642L12 641M13.3333 642.667L13.6667 643.333L13.3333 642.667M841 644L842 645L841 644M840 646L841 647L840 646M838 648L839 649L838 648M17 649L18 650L17 649M18 650L19 651L18 650M834 654L835 655L834 654M833 655L834 656L833 655M831 657L832 658L831 657M35 667L36 668L35 667M36 668L37 669L36 668M818 668L819 669L818 668M817 669L818 670L817 669M39 670L40 671L39 670M42 671L43 672L42 671M814 671L815 672L814 671M43 672L46 674L43 672M46 674L47 675L46 674M809 674L810 675L809 674M807 675L808 676L807 675M51 676L52 677L51 676M805 676L806 677L805 676M54.6667 678.333L55.3333 678.667L54.6667 678.333M58 679L59 680L58 679M60 680L61 681L60 680M63.6667 681.333L64.3333 681.667L63.6667 681.333M789 681L790 682L789 681M792 681L793 682L792 681M68 682L69 683L68 682M788 682L789 683L788 682M73 683L74 684L73 683M82 684L83 685L82 684M86 684L86 685L770 685L751 684L711 684L571 684L86 684M773 684L774 685L773 684z"/>
</svg>
