<svg width="18" height="18" viewBox="0 0 18 18" fill="none" xmlns="http://www.w3.org/2000/svg">
<path d="M12.8334 5.33333L7.33341 10.8333L4.33341 7.83333L3.16675 9L7.33341 13.1667L14.0001 6.5L12.8334 5.33333ZM9.00008 0.666668C4.41675 0.666668 0.666748 4.41667 0.666748 9C0.666748 13.5833 4.41675 17.3333 9.00008 17.3333C13.5834 17.3333 17.3334 13.5833 17.3334 9C17.3334 4.41667 13.5834 0.666668 9.00008 0.666668ZM9.00008 15.6667C5.33341 15.6667 2.33341 12.6667 2.33341 9C2.33341 5.33333 5.33341 2.33333 9.00008 2.33333C12.6667 2.33333 15.6667 5.33333 15.6667 9C15.6667 12.6667 12.6667 15.6667 9.00008 15.6667Z" fill="#0762F7"/>
<path d="M12.8334 5.33333L7.33341 10.8333L4.33341 7.83333L3.16675 9L7.33341 13.1667L14.0001 6.5L12.8334 5.33333ZM9.00008 0.666668C4.41675 0.666668 0.666748 4.41667 0.666748 9C0.666748 13.5833 4.41675 17.3333 9.00008 17.3333C13.5834 17.3333 17.3334 13.5833 17.3334 9C17.3334 4.41667 13.5834 0.666668 9.00008 0.666668ZM9.00008 15.6667C5.33341 15.6667 2.33341 12.6667 2.33341 9C2.33341 5.33333 5.33341 2.33333 9.00008 2.33333C12.6667 2.33333 15.6667 5.33333 15.6667 9C15.6667 12.6667 12.6667 15.6667 9.00008 15.6667Z" fill="black" fill-opacity="0.25"/>
</svg>
