<?xml version="1.0" standalone="no"?>
<!DOCTYPE svg PUBLIC "-//W3C//DTD SVG 20010904//EN"
 "http://www.w3.org/TR/2001/REC-SVG-20010904/DTD/svg10.dtd">
<svg version="1.0" xmlns="http://www.w3.org/2000/svg"
 width="512.000000pt" height="512.000000pt" viewBox="0 0 512.000000 512.000000"
 preserveAspectRatio="xMidYMid meet">

<g transform="translate(0.000000,512.000000) scale(0.100000,-0.100000)"
fill="#000000" stroke="none">
<path d="M978 4939 c-58 -30 -78 -79 -78 -189 l0 -90 -90 0 c-112 0 -159 -20
-190 -80 -20 -38 -20 -58 -20 -817 l-1 -778 -77 -52 c-256 -172 -433 -397
-498 -633 -27 -98 -25 -291 4 -393 110 -386 502 -711 1113 -925 130 -45 423
-121 572 -147 l97 -17 0 -270 c0 -250 1 -272 20 -308 35 -69 125 -99 193 -64
17 9 238 155 492 324 490 327 495 331 495 410 0 79 -5 83 -495 410 -254 169
-475 315 -492 324 -68 35 -158 5 -193 -64 -18 -35 -20 -58 -20 -245 0 -168 -2
-205 -14 -205 -8 0 -57 9 -109 20 -708 145 -1221 447 -1358 798 -18 45 -23 78
-23 162 -1 92 3 113 26 168 43 105 89 171 178 261 l85 85 5 -279 c6 -316 8
-328 80 -365 39 -20 56 -20 1880 -20 1825 0 1841 0 1880 20 26 13 47 34 60 60
19 36 20 58 20 310 l0 272 55 -47 c30 -26 79 -79 109 -118 150 -196 174 -377
75 -576 -36 -72 -59 -103 -148 -192 -68 -68 -142 -130 -207 -172 -116 -77
-321 -178 -480 -235 -111 -41 -360 -111 -467 -132 -128 -25 -188 -152 -116
-244 49 -62 97 -68 261 -31 525 118 965 339 1233 616 139 144 215 269 261 429
25 89 25 288 0 380 -65 236 -242 461 -498 633 l-77 52 -1 778 c0 759 0 779
-20 817 -13 26 -34 47 -60 60 -38 19 -58 20 -476 20 l-437 0 -111 108 c-204
197 -184 192 -856 192 -672 0 -652 5 -856 -192 l-111 -108 -197 0 -196 0 0 90
c0 112 -20 159 -80 190 -49 25 -94 25 -142 -1z m1730 -895 c279 -58 502 -268
579 -548 23 -84 23 -288 0 -372 -77 -280 -300 -490 -579 -548 -519 -107 -989
363 -882 882 32 156 98 274 217 389 184 177 422 247 665 197z m1122 -4 c45
-23 80 -80 80 -130 0 -76 -74 -150 -151 -150 -73 0 -149 76 -149 150 0 48 35
107 78 129 48 26 93 26 142 1z"/>
<path d="M2455 3746 c-83 -20 -146 -56 -211 -120 -177 -178 -177 -455 0 -631
179 -178 455 -178 631 -1 178 179 178 454 1 632 -114 114 -267 158 -421 120z"/>
</g>
</svg>
