<svg width="14" height="18" viewBox="0 0 14 18" fill="none" xmlns="http://www.w3.org/2000/svg">
<path d="M6.16666 14.8333H7.83333V11.3542L9.16666 12.6875L10.3333 11.5L6.99999 8.16667L3.66666 11.5L4.85416 12.6667L6.16666 11.3542V14.8333ZM1.99999 17.3333C1.54166 17.3333 1.14944 17.1703 0.823328 16.8442C0.496661 16.5175 0.333328 16.125 0.333328 15.6667V2.33333C0.333328 1.875 0.496661 1.4825 0.823328 1.15583C1.14944 0.829721 1.54166 0.666666 1.99999 0.666666H8.66666L13.6667 5.66667V15.6667C13.6667 16.125 13.5036 16.5175 13.1775 16.8442C12.8508 17.1703 12.4583 17.3333 12 17.3333H1.99999ZM7.83333 6.5V2.33333H1.99999V15.6667H12V6.5H7.83333Z" fill="#0762F7"/>
<path d="M6.16666 14.8333H7.83333V11.3542L9.16666 12.6875L10.3333 11.5L6.99999 8.16667L3.66666 11.5L4.85416 12.6667L6.16666 11.3542V14.8333ZM1.99999 17.3333C1.54166 17.3333 1.14944 17.1703 0.823328 16.8442C0.496661 16.5175 0.333328 16.125 0.333328 15.6667V2.33333C0.333328 1.875 0.496661 1.4825 0.823328 1.15583C1.14944 0.829721 1.54166 0.666666 1.99999 0.666666H8.66666L13.6667 5.66667V15.6667C13.6667 16.125 13.5036 16.5175 13.1775 16.8442C12.8508 17.1703 12.4583 17.3333 12 17.3333H1.99999ZM7.83333 6.5V2.33333H1.99999V15.6667H12V6.5H7.83333Z" fill="black" fill-opacity="0.25"/>
</svg>
