<svg width="20" height="19" viewBox="0 0 20 19" fill="none" xmlns="http://www.w3.org/2000/svg">
<path d="M18.2609 4.52381H15.5043L13.913 2.71429H8.69565V4.52381H13.1478L14.7391 6.33333H18.2609V17.1905H4.34783V9.04762H2.6087V17.1905C2.6087 18.1857 3.3913 19 4.34783 19H18.2609C19.2174 19 20 18.1857 20 17.1905V6.33333C20 5.3381 19.2174 4.52381 18.2609 4.52381ZM6.95652 11.7619C6.95652 14.259 8.90435 16.2857 11.3043 16.2857C13.7043 16.2857 15.6522 14.259 15.6522 11.7619C15.6522 9.26476 13.7043 7.2381 11.3043 7.2381C8.90435 7.2381 6.95652 9.26476 6.95652 11.7619ZM11.3043 9.04762C12.7391 9.04762 13.913 10.269 13.913 11.7619C13.913 13.2548 12.7391 14.4762 11.3043 14.4762C9.86957 14.4762 8.69565 13.2548 8.69565 11.7619C8.69565 10.269 9.86957 9.04762 11.3043 9.04762ZM4.34783 4.52381H6.95652V2.71429H4.34783V0H2.6087V2.71429H0V4.52381H2.6087V7.2381H4.34783V4.52381Z" fill="#2F80ED"/>
</svg>
