<svg width="18" height="18" viewBox="0 0 18 18" fill="none" xmlns="http://www.w3.org/2000/svg">
<path d="M12.8333 5.33317L7.33329 10.8332L4.33329 7.83317L3.16663 8.99984L7.33329 13.1665L14 6.49984L12.8333 5.33317ZM8.99996 0.666504C4.41663 0.666504 0.666626 4.4165 0.666626 8.99984C0.666626 13.5832 4.41663 17.3332 8.99996 17.3332C13.5833 17.3332 17.3333 13.5832 17.3333 8.99984C17.3333 4.4165 13.5833 0.666504 8.99996 0.666504ZM8.99996 15.6665C5.33329 15.6665 2.33329 12.6665 2.33329 8.99984C2.33329 5.33317 5.33329 2.33317 8.99996 2.33317C12.6666 2.33317 15.6666 5.33317 15.6666 8.99984C15.6666 12.6665 12.6666 15.6665 8.99996 15.6665Z" fill="#2F80ED"/>
</svg>
