<svg width="18" height="18" viewBox="0 0 18 18" fill="none" xmlns="http://www.w3.org/2000/svg">
<path d="M12.8333 5.33332L7.33332 10.8333L4.33332 7.83332L3.16666 8.99999L7.33332 13.1667L14 6.49999L12.8333 5.33332ZM8.99999 0.666656C4.41666 0.666656 0.666656 4.41666 0.666656 8.99999C0.666656 13.5833 4.41666 17.3333 8.99999 17.3333C13.5833 17.3333 17.3333 13.5833 17.3333 8.99999C17.3333 4.41666 13.5833 0.666656 8.99999 0.666656ZM8.99999 15.6667C5.33332 15.6667 2.33332 12.6667 2.33332 8.99999C2.33332 5.33332 5.33332 2.33332 8.99999 2.33332C12.6667 2.33332 15.6667 5.33332 15.6667 8.99999C15.6667 12.6667 12.6667 15.6667 8.99999 15.6667Z" fill="#0762F7"/>
</svg>
