<svg width="18" height="18" viewBox="0 0 18 18" fill="none" xmlns="http://www.w3.org/2000/svg">
<path d="M8.16666 14H9.83332V12.3333H8.16666V14ZM8.99999 0.666656C4.39999 0.666656 0.666656 4.39999 0.666656 8.99999C0.666656 13.6 4.39999 17.3333 8.99999 17.3333C13.6 17.3333 17.3333 13.6 17.3333 8.99999C17.3333 4.39999 13.6 0.666656 8.99999 0.666656ZM8.99999 15.6667C5.32499 15.6667 2.33332 12.675 2.33332 8.99999C2.33332 5.32499 5.32499 2.33332 8.99999 2.33332C12.675 2.33332 15.6667 5.32499 15.6667 8.99999C15.6667 12.675 12.675 15.6667 8.99999 15.6667ZM8.99999 3.99999C7.15832 3.99999 5.66666 5.49166 5.66666 7.33332H7.33332C7.33332 6.41666 8.08332 5.66666 8.99999 5.66666C9.91666 5.66666 10.6667 6.41666 10.6667 7.33332C10.6667 8.99999 8.16666 8.79166 8.16666 11.5H9.83332C9.83332 9.62499 12.3333 9.41666 12.3333 7.33332C12.3333 5.49166 10.8417 3.99999 8.99999 3.99999Z" fill="#0762F7"/>
</svg>
