<svg width="24" height="24" viewBox="0 0 24 24" fill="none" xmlns="http://www.w3.org/2000/svg">
<path d="M5.99 5.99005L4.93 4.93005C3.12 6.74005 2 9.24005 2 12.0001C2 14.7601 3.12 17.2601 4.93 19.0701L5.99 18.0101C4.45 16.4701 3.5 14.3401 3.5 12.0001C3.5 9.66005 4.45 7.53005 5.99 5.99005Z" fill="#0762F7"/>
<path d="M7.05 7.05005C5.78 8.32005 5 10.07 5 12C5 13.93 5.78 15.68 7.05 16.95L8.11 15.89C7.11 14.89 6.5 13.52 6.5 12C6.5 10.48 7.12 9.11005 8.11 8.11005L7.05 7.05005Z" fill="#0762F7"/>
<path d="M19.07 4.93005L18.01 5.99005C19.55 7.53005 20.5 9.66005 20.5 12.0001C20.5 14.3401 19.55 16.4701 18.01 18.0101L19.07 19.0701C20.88 17.2601 22 14.7601 22 12.0001C22 9.24005 20.88 6.74005 19.07 4.93005Z" fill="#0762F7"/>
<path d="M13 9H11V11H9V13H11V15H13V13H15V11H13V9Z" fill="#0762F7"/>
<path d="M16.9499 7.05005L15.8899 8.11005C16.8799 9.11005 17.4999 10.48 17.4999 12C17.4999 13.52 16.8799 14.89 15.8899 15.89L16.9499 16.95C18.2199 15.68 18.9999 13.93 18.9999 12C18.9999 10.07 18.2199 8.32005 16.9499 7.05005Z" fill="#0762F7"/>
</svg>
